G04 (created by PCBNEW (2013-05-31 BZR 4019)-stable) date 24/04/2014 12:04:17*
%MOIN*%
G04 Gerber Fmt 3.4, Leading zero omitted, Abs format*
%FSLAX34Y34*%
G01*
G70*
G90*
G04 APERTURE LIST*
%ADD10C,0.005*%
%ADD11C,0.0077*%
%ADD12C,0.00787402*%
%ADD13C,0.011811*%
G04 APERTURE END LIST*
G54D10*
G54D11*
X46007Y-30019D02*
X48110Y-30019D01*
X48110Y-30019D02*
X48110Y-32834D01*
X48110Y-32834D02*
X56425Y-32834D01*
X46007Y-30019D02*
X46007Y-34570D01*
X41283Y-52483D02*
X41283Y-27680D01*
X67661Y-52483D02*
X41283Y-52483D01*
X67661Y-27680D02*
X67661Y-52483D01*
X41283Y-27680D02*
X67661Y-27680D01*
X64905Y-32834D02*
X64905Y-39492D01*
X57764Y-32834D02*
X64905Y-32834D01*
X57764Y-32677D02*
X57764Y-29648D01*
X65692Y-29650D02*
X57764Y-29650D01*
X65692Y-39492D02*
X65692Y-29650D01*
X64905Y-39492D02*
X65692Y-39492D01*
X57764Y-50515D02*
X57764Y-49728D01*
X65692Y-50515D02*
X57764Y-50515D01*
X65692Y-40948D02*
X65692Y-50515D01*
X64905Y-40948D02*
X65692Y-40948D01*
X64905Y-49728D02*
X64905Y-40948D01*
X57764Y-49728D02*
X64905Y-49728D01*
X45220Y-50515D02*
X45220Y-44413D01*
X56386Y-50515D02*
X45220Y-50515D01*
X56386Y-49728D02*
X56386Y-50515D01*
X46007Y-49728D02*
X56386Y-49728D01*
X46007Y-44413D02*
X46007Y-49728D01*
X46007Y-44413D02*
X45220Y-44413D01*
X45220Y-43390D02*
X45220Y-35555D01*
X46007Y-43390D02*
X45220Y-43390D01*
X46007Y-35555D02*
X46007Y-43390D01*
X46007Y-35555D02*
X45220Y-35555D01*
X46007Y-34570D02*
X45220Y-34570D01*
X45220Y-29648D02*
X45220Y-34570D01*
X45220Y-29648D02*
X56384Y-29648D01*
X56384Y-32834D02*
X56384Y-29648D01*
G54D12*
X60657Y-34787D02*
X60696Y-34826D01*
X60696Y-34787D02*
X60657Y-34826D01*
X60685Y-40563D02*
X60724Y-40602D01*
X60724Y-40563D02*
X60685Y-40602D01*
X46325Y-34224D02*
G75*
G03X46325Y-34224I-38J0D01*
G74*
G01*
X46337Y-33877D02*
G75*
G03X46337Y-33877I-38J0D01*
G74*
G01*
X46341Y-33511D02*
G75*
G03X46341Y-33511I-38J0D01*
G74*
G01*
X46396Y-30354D02*
G75*
G03X46396Y-30354I-38J0D01*
G74*
G01*
X46455Y-46496D02*
G75*
G03X46455Y-46496I-38J0D01*
G74*
G01*
X46455Y-46889D02*
G75*
G03X46455Y-46889I-38J0D01*
G74*
G01*
X46455Y-47322D02*
G75*
G03X46455Y-47322I-38J0D01*
G74*
G01*
X46518Y-42669D02*
G75*
G03X46518Y-42669I-38J0D01*
G74*
G01*
X46518Y-43062D02*
G75*
G03X46518Y-43062I-38J0D01*
G74*
G01*
X46518Y-43456D02*
G75*
G03X46518Y-43456I-38J0D01*
G74*
G01*
X46534Y-32145D02*
G75*
G03X46534Y-32145I-38J0D01*
G74*
G01*
X46573Y-43897D02*
G75*
G03X46573Y-43897I-38J0D01*
G74*
G01*
X46577Y-37393D02*
G75*
G03X46577Y-37393I-38J0D01*
G74*
G01*
X46597Y-38653D02*
G75*
G03X46597Y-38653I-38J0D01*
G74*
G01*
X46597Y-39047D02*
G75*
G03X46597Y-39047I-38J0D01*
G74*
G01*
X46833Y-42669D02*
G75*
G03X46833Y-42669I-38J0D01*
G74*
G01*
X46833Y-43062D02*
G75*
G03X46833Y-43062I-38J0D01*
G74*
G01*
X46833Y-43456D02*
G75*
G03X46833Y-43456I-38J0D01*
G74*
G01*
X46912Y-38653D02*
G75*
G03X46912Y-38653I-38J0D01*
G74*
G01*
X46912Y-39047D02*
G75*
G03X46912Y-39047I-38J0D01*
G74*
G01*
X46928Y-46496D02*
G75*
G03X46928Y-46496I-38J0D01*
G74*
G01*
X46928Y-46889D02*
G75*
G03X46928Y-46889I-38J0D01*
G74*
G01*
X46928Y-47322D02*
G75*
G03X46928Y-47322I-38J0D01*
G74*
G01*
X47227Y-38653D02*
G75*
G03X47227Y-38653I-38J0D01*
G74*
G01*
X47227Y-39047D02*
G75*
G03X47227Y-39047I-38J0D01*
G74*
G01*
X47239Y-36862D02*
G75*
G03X47239Y-36862I-38J0D01*
G74*
G01*
X47247Y-36555D02*
G75*
G03X47247Y-36555I-38J0D01*
G74*
G01*
X47282Y-32283D02*
G75*
G03X47282Y-32283I-38J0D01*
G74*
G01*
X47400Y-46141D02*
G75*
G03X47400Y-46141I-38J0D01*
G74*
G01*
X47400Y-46496D02*
G75*
G03X47400Y-46496I-38J0D01*
G74*
G01*
X47400Y-46889D02*
G75*
G03X47400Y-46889I-38J0D01*
G74*
G01*
X47400Y-47322D02*
G75*
G03X47400Y-47322I-38J0D01*
G74*
G01*
X47507Y-43708D02*
G75*
G03X47507Y-43708I-38J0D01*
G74*
G01*
X47514Y-33153D02*
G75*
G03X47514Y-33153I-38J0D01*
G74*
G01*
X47542Y-38653D02*
G75*
G03X47542Y-38653I-38J0D01*
G74*
G01*
X47542Y-39047D02*
G75*
G03X47542Y-39047I-38J0D01*
G74*
G01*
X47542Y-44047D02*
G75*
G03X47542Y-44047I-38J0D01*
G74*
G01*
X47546Y-44417D02*
G75*
G03X47546Y-44417I-38J0D01*
G74*
G01*
X47554Y-42799D02*
G75*
G03X47554Y-42799I-38J0D01*
G74*
G01*
X47554Y-43271D02*
G75*
G03X47554Y-43271I-38J0D01*
G74*
G01*
X47699Y-37669D02*
G75*
G03X47699Y-37669I-38J0D01*
G74*
G01*
X47715Y-30314D02*
G75*
G03X47715Y-30314I-38J0D01*
G74*
G01*
X47794Y-32165D02*
G75*
G03X47794Y-32165I-38J0D01*
G74*
G01*
X47837Y-43708D02*
G75*
G03X47837Y-43708I-38J0D01*
G74*
G01*
X47841Y-41759D02*
G75*
G03X47841Y-41759I-38J0D01*
G74*
G01*
X47845Y-42094D02*
G75*
G03X47845Y-42094I-38J0D01*
G74*
G01*
X47853Y-39251D02*
G75*
G03X47853Y-39251I-38J0D01*
G74*
G01*
X47853Y-41500D02*
G75*
G03X47853Y-41500I-38J0D01*
G74*
G01*
X47857Y-44047D02*
G75*
G03X47857Y-44047I-38J0D01*
G74*
G01*
X47869Y-40807D02*
G75*
G03X47869Y-40807I-38J0D01*
G74*
G01*
X47869Y-41137D02*
G75*
G03X47869Y-41137I-38J0D01*
G74*
G01*
X47869Y-42799D02*
G75*
G03X47869Y-42799I-38J0D01*
G74*
G01*
X47869Y-43271D02*
G75*
G03X47869Y-43271I-38J0D01*
G74*
G01*
X47877Y-39535D02*
G75*
G03X47877Y-39535I-38J0D01*
G74*
G01*
X47877Y-40023D02*
G75*
G03X47877Y-40023I-38J0D01*
G74*
G01*
X47877Y-44417D02*
G75*
G03X47877Y-44417I-38J0D01*
G74*
G01*
X47884Y-40444D02*
G75*
G03X47884Y-40444I-38J0D01*
G74*
G01*
X47908Y-33153D02*
G75*
G03X47908Y-33153I-38J0D01*
G74*
G01*
X48014Y-37669D02*
G75*
G03X48014Y-37669I-38J0D01*
G74*
G01*
X48046Y-35212D02*
G75*
G03X48046Y-35212I-38J0D01*
G74*
G01*
X48066Y-34964D02*
G75*
G03X48066Y-34964I-38J0D01*
G74*
G01*
X48113Y-41142D02*
G75*
G03X48113Y-41142I-38J0D01*
G74*
G01*
X48117Y-38783D02*
G75*
G03X48117Y-38783I-38J0D01*
G74*
G01*
X48148Y-45472D02*
G75*
G03X48148Y-45472I-38J0D01*
G74*
G01*
X48148Y-45866D02*
G75*
G03X48148Y-45866I-38J0D01*
G74*
G01*
X48152Y-49043D02*
G75*
G03X48152Y-49043I-38J0D01*
G74*
G01*
X48152Y-49358D02*
G75*
G03X48152Y-49358I-38J0D01*
G74*
G01*
X48192Y-42725D02*
G75*
G03X48192Y-42725I-38J0D01*
G74*
G01*
X48203Y-37402D02*
G75*
G03X48203Y-37402I-38J0D01*
G74*
G01*
X48211Y-40748D02*
G75*
G03X48211Y-40748I-38J0D01*
G74*
G01*
X48219Y-40355D02*
G75*
G03X48219Y-40355I-38J0D01*
G74*
G01*
X48223Y-39965D02*
G75*
G03X48223Y-39965I-38J0D01*
G74*
G01*
X48227Y-35551D02*
G75*
G03X48227Y-35551I-38J0D01*
G74*
G01*
X48231Y-37205D02*
G75*
G03X48231Y-37205I-38J0D01*
G74*
G01*
X48231Y-37984D02*
G75*
G03X48231Y-37984I-38J0D01*
G74*
G01*
X48231Y-38591D02*
G75*
G03X48231Y-38591I-38J0D01*
G74*
G01*
X48235Y-41732D02*
G75*
G03X48235Y-41732I-38J0D01*
G74*
G01*
X48239Y-39768D02*
G75*
G03X48239Y-39768I-38J0D01*
G74*
G01*
X48239Y-40949D02*
G75*
G03X48239Y-40949I-38J0D01*
G74*
G01*
X48259Y-38386D02*
G75*
G03X48259Y-38386I-38J0D01*
G74*
G01*
X48286Y-33149D02*
G75*
G03X48286Y-33149I-38J0D01*
G74*
G01*
X48321Y-34952D02*
G75*
G03X48321Y-34952I-38J0D01*
G74*
G01*
X48329Y-35232D02*
G75*
G03X48329Y-35232I-38J0D01*
G74*
G01*
X48384Y-46417D02*
G75*
G03X48384Y-46417I-38J0D01*
G74*
G01*
X48384Y-46771D02*
G75*
G03X48384Y-46771I-38J0D01*
G74*
G01*
X48546Y-49043D02*
G75*
G03X48546Y-49043I-38J0D01*
G74*
G01*
X48546Y-49358D02*
G75*
G03X48546Y-49358I-38J0D01*
G74*
G01*
X48621Y-45511D02*
G75*
G03X48621Y-45511I-38J0D01*
G74*
G01*
X48621Y-45905D02*
G75*
G03X48621Y-45905I-38J0D01*
G74*
G01*
X49014Y-41299D02*
G75*
G03X49014Y-41299I-38J0D01*
G74*
G01*
X49018Y-48492D02*
G75*
G03X49018Y-48492I-38J0D01*
G74*
G01*
X49170Y-37012D02*
G75*
G03X49170Y-37012I-38J0D01*
G74*
G01*
X49270Y-33897D02*
G75*
G03X49270Y-33897I-38J0D01*
G74*
G01*
X49333Y-46720D02*
G75*
G03X49333Y-46720I-38J0D01*
G74*
G01*
X49392Y-37402D02*
G75*
G03X49392Y-37402I-38J0D01*
G74*
G01*
X49412Y-48492D02*
G75*
G03X49412Y-48492I-38J0D01*
G74*
G01*
X49573Y-42618D02*
G75*
G03X49573Y-42618I-38J0D01*
G74*
G01*
X49603Y-42918D02*
G75*
G03X49603Y-42918I-38J0D01*
G74*
G01*
X49605Y-42362D02*
G75*
G03X49605Y-42362I-38J0D01*
G74*
G01*
X49644Y-36732D02*
G75*
G03X49644Y-36732I-38J0D01*
G74*
G01*
X49644Y-39330D02*
G75*
G03X49644Y-39330I-38J0D01*
G74*
G01*
X49644Y-41535D02*
G75*
G03X49644Y-41535I-38J0D01*
G74*
G01*
X49672Y-37205D02*
G75*
G03X49672Y-37205I-38J0D01*
G74*
G01*
X49727Y-46720D02*
G75*
G03X49727Y-46720I-38J0D01*
G74*
G01*
X49782Y-36425D02*
G75*
G03X49782Y-36425I-38J0D01*
G74*
G01*
X49786Y-36225D02*
G75*
G03X49786Y-36225I-38J0D01*
G74*
G01*
X49829Y-38086D02*
G75*
G03X49829Y-38086I-38J0D01*
G74*
G01*
X49829Y-42476D02*
G75*
G03X49829Y-42476I-38J0D01*
G74*
G01*
X49884Y-48492D02*
G75*
G03X49884Y-48492I-38J0D01*
G74*
G01*
X49920Y-38976D02*
G75*
G03X49920Y-38976I-38J0D01*
G74*
G01*
X49955Y-37012D02*
G75*
G03X49955Y-37012I-38J0D01*
G74*
G01*
X49959Y-41338D02*
G75*
G03X49959Y-41338I-38J0D01*
G74*
G01*
X49963Y-34925D02*
G75*
G03X49963Y-34925I-38J0D01*
G74*
G01*
X50050Y-42476D02*
G75*
G03X50050Y-42476I-38J0D01*
G74*
G01*
X50152Y-35279D02*
G75*
G03X50152Y-35279I-38J0D01*
G74*
G01*
X50199Y-46720D02*
G75*
G03X50199Y-46720I-38J0D01*
G74*
G01*
X50278Y-48492D02*
G75*
G03X50278Y-48492I-38J0D01*
G74*
G01*
X50550Y-33031D02*
G75*
G03X50550Y-33031I-38J0D01*
G74*
G01*
X50593Y-46720D02*
G75*
G03X50593Y-46720I-38J0D01*
G74*
G01*
X51022Y-42716D02*
G75*
G03X51022Y-42716I-38J0D01*
G74*
G01*
X51026Y-43157D02*
G75*
G03X51026Y-43157I-38J0D01*
G74*
G01*
X51129Y-40949D02*
G75*
G03X51129Y-40949I-38J0D01*
G74*
G01*
X51239Y-44602D02*
G75*
G03X51239Y-44602I-38J0D01*
G74*
G01*
X51243Y-44925D02*
G75*
G03X51243Y-44925I-38J0D01*
G74*
G01*
X51258Y-41417D02*
G75*
G03X51258Y-41417I-38J0D01*
G74*
G01*
X51329Y-43874D02*
G75*
G03X51329Y-43874I-38J0D01*
G74*
G01*
X51329Y-44267D02*
G75*
G03X51329Y-44267I-38J0D01*
G74*
G01*
X51436Y-42355D02*
G75*
G03X51436Y-42355I-38J0D01*
G74*
G01*
X51483Y-35929D02*
G75*
G03X51483Y-35929I-38J0D01*
G74*
G01*
X51495Y-43149D02*
G75*
G03X51495Y-43149I-38J0D01*
G74*
G01*
X51573Y-44736D02*
G75*
G03X51573Y-44736I-38J0D01*
G74*
G01*
X51573Y-45066D02*
G75*
G03X51573Y-45066I-38J0D01*
G74*
G01*
X51585Y-44082D02*
G75*
G03X51585Y-44082I-38J0D01*
G74*
G01*
X51585Y-44413D02*
G75*
G03X51585Y-44413I-38J0D01*
G74*
G01*
X51605Y-43716D02*
G75*
G03X51605Y-43716I-38J0D01*
G74*
G01*
X51676Y-42355D02*
G75*
G03X51676Y-42355I-38J0D01*
G74*
G01*
X51692Y-46338D02*
G75*
G03X51692Y-46338I-38J0D01*
G74*
G01*
X51707Y-35288D02*
G75*
G03X51707Y-35288I-38J0D01*
G74*
G01*
X51755Y-37992D02*
G75*
G03X51755Y-37992I-38J0D01*
G74*
G01*
X51759Y-37508D02*
G75*
G03X51759Y-37508I-38J0D01*
G74*
G01*
X51766Y-36957D02*
G75*
G03X51766Y-36957I-38J0D01*
G74*
G01*
X51766Y-37240D02*
G75*
G03X51766Y-37240I-38J0D01*
G74*
G01*
X51770Y-36461D02*
G75*
G03X51770Y-36461I-38J0D01*
G74*
G01*
X51770Y-33681D02*
G75*
G03X51770Y-33681I-38J0D01*
G74*
G01*
X51790Y-40748D02*
G75*
G03X51790Y-40748I-38J0D01*
G74*
G01*
X51955Y-42355D02*
G75*
G03X51955Y-42355I-38J0D01*
G74*
G01*
X51955Y-35578D02*
G75*
G03X51955Y-35578I-38J0D01*
G74*
G01*
X52046Y-40826D02*
G75*
G03X52046Y-40826I-38J0D01*
G74*
G01*
X52046Y-43149D02*
G75*
G03X52046Y-43149I-38J0D01*
G74*
G01*
X52050Y-34799D02*
G75*
G03X52050Y-34799I-38J0D01*
G74*
G01*
X52089Y-46326D02*
G75*
G03X52089Y-46326I-38J0D01*
G74*
G01*
X52105Y-33681D02*
G75*
G03X52105Y-33681I-38J0D01*
G74*
G01*
X52156Y-42354D02*
G75*
G03X52156Y-42354I-38J0D01*
G74*
G01*
X52231Y-35890D02*
G75*
G03X52231Y-35890I-38J0D01*
G74*
G01*
X52251Y-40654D02*
G75*
G03X52251Y-40654I-38J0D01*
G74*
G01*
X52270Y-40016D02*
G75*
G03X52270Y-40016I-38J0D01*
G74*
G01*
X52286Y-40394D02*
G75*
G03X52286Y-40394I-38J0D01*
G74*
G01*
X52314Y-40847D02*
G75*
G03X52314Y-40847I-38J0D01*
G74*
G01*
X52404Y-38772D02*
G75*
G03X52404Y-38772I-38J0D01*
G74*
G01*
X52424Y-39181D02*
G75*
G03X52424Y-39181I-38J0D01*
G74*
G01*
X52440Y-39815D02*
G75*
G03X52440Y-39815I-38J0D01*
G74*
G01*
X52503Y-41043D02*
G75*
G03X52503Y-41043I-38J0D01*
G74*
G01*
X52554Y-38162D02*
G75*
G03X52554Y-38162I-38J0D01*
G74*
G01*
X52573Y-41732D02*
G75*
G03X52573Y-41732I-38J0D01*
G74*
G01*
X52581Y-37827D02*
G75*
G03X52581Y-37827I-38J0D01*
G74*
G01*
X52597Y-43228D02*
G75*
G03X52597Y-43228I-38J0D01*
G74*
G01*
X52597Y-43700D02*
G75*
G03X52597Y-43700I-38J0D01*
G74*
G01*
X52684Y-37508D02*
G75*
G03X52684Y-37508I-38J0D01*
G74*
G01*
X52908Y-36752D02*
G75*
G03X52908Y-36752I-38J0D01*
G74*
G01*
X52908Y-37327D02*
G75*
G03X52908Y-37327I-38J0D01*
G74*
G01*
X52912Y-43464D02*
G75*
G03X52912Y-43464I-38J0D01*
G74*
G01*
X52912Y-43976D02*
G75*
G03X52912Y-43976I-38J0D01*
G74*
G01*
X52944Y-35095D02*
G75*
G03X52944Y-35095I-38J0D01*
G74*
G01*
X53030Y-36181D02*
G75*
G03X53030Y-36181I-38J0D01*
G74*
G01*
X53109Y-34862D02*
G75*
G03X53109Y-34862I-38J0D01*
G74*
G01*
X53361Y-36453D02*
G75*
G03X53361Y-36453I-38J0D01*
G74*
G01*
X53617Y-41925D02*
G75*
G03X53617Y-41925I-38J0D01*
G74*
G01*
X53617Y-42122D02*
G75*
G03X53617Y-42122I-38J0D01*
G74*
G01*
X53621Y-40201D02*
G75*
G03X53621Y-40201I-38J0D01*
G74*
G01*
X53625Y-41040D02*
G75*
G03X53625Y-41040I-38J0D01*
G74*
G01*
X53629Y-41236D02*
G75*
G03X53629Y-41236I-38J0D01*
G74*
G01*
X53640Y-40559D02*
G75*
G03X53640Y-40559I-38J0D01*
G74*
G01*
X53648Y-39571D02*
G75*
G03X53648Y-39571I-38J0D01*
G74*
G01*
X53664Y-39370D02*
G75*
G03X53664Y-39370I-38J0D01*
G74*
G01*
X53688Y-38981D02*
G75*
G03X53688Y-38981I-38J0D01*
G74*
G01*
X53688Y-41536D02*
G75*
G03X53688Y-41536I-38J0D01*
G74*
G01*
X53700Y-38355D02*
G75*
G03X53700Y-38355I-38J0D01*
G74*
G01*
X53700Y-38555D02*
G75*
G03X53700Y-38555I-38J0D01*
G74*
G01*
X53818Y-37795D02*
G75*
G03X53818Y-37795I-38J0D01*
G74*
G01*
X53944Y-34843D02*
G75*
G03X53944Y-34843I-38J0D01*
G74*
G01*
X54014Y-33740D02*
G75*
G03X54014Y-33740I-38J0D01*
G74*
G01*
X54054Y-41338D02*
G75*
G03X54054Y-41338I-38J0D01*
G74*
G01*
X54211Y-39133D02*
G75*
G03X54211Y-39133I-38J0D01*
G74*
G01*
X54369Y-37795D02*
G75*
G03X54369Y-37795I-38J0D01*
G74*
G01*
X54388Y-33720D02*
G75*
G03X54388Y-33720I-38J0D01*
G74*
G01*
X54491Y-37319D02*
G75*
G03X54491Y-37319I-38J0D01*
G74*
G01*
X54495Y-43477D02*
G75*
G03X54495Y-43477I-38J0D01*
G74*
G01*
X54605Y-42362D02*
G75*
G03X54605Y-42362I-38J0D01*
G74*
G01*
X54617Y-44225D02*
G75*
G03X54617Y-44225I-38J0D01*
G74*
G01*
X54759Y-36075D02*
G75*
G03X54759Y-36075I-38J0D01*
G74*
G01*
X54759Y-43055D02*
G75*
G03X54759Y-43055I-38J0D01*
G74*
G01*
X54762Y-39173D02*
G75*
G03X54762Y-39173I-38J0D01*
G74*
G01*
X54774Y-36331D02*
G75*
G03X54774Y-36331I-38J0D01*
G74*
G01*
X54841Y-44094D02*
G75*
G03X54841Y-44094I-38J0D01*
G74*
G01*
X54845Y-49043D02*
G75*
G03X54845Y-49043I-38J0D01*
G74*
G01*
X54845Y-49358D02*
G75*
G03X54845Y-49358I-38J0D01*
G74*
G01*
X55022Y-43063D02*
G75*
G03X55022Y-43063I-38J0D01*
G74*
G01*
X55117Y-48031D02*
G75*
G03X55117Y-48031I-38J0D01*
G74*
G01*
X55117Y-48464D02*
G75*
G03X55117Y-48464I-38J0D01*
G74*
G01*
X55239Y-49043D02*
G75*
G03X55239Y-49043I-38J0D01*
G74*
G01*
X55239Y-49358D02*
G75*
G03X55239Y-49358I-38J0D01*
G74*
G01*
X55263Y-43067D02*
G75*
G03X55263Y-43067I-38J0D01*
G74*
G01*
X55298Y-41209D02*
G75*
G03X55298Y-41209I-38J0D01*
G74*
G01*
X55326Y-40421D02*
G75*
G03X55326Y-40421I-38J0D01*
G74*
G01*
X55337Y-38228D02*
G75*
G03X55337Y-38228I-38J0D01*
G74*
G01*
X55341Y-40032D02*
G75*
G03X55341Y-40032I-38J0D01*
G74*
G01*
X55404Y-40819D02*
G75*
G03X55404Y-40819I-38J0D01*
G74*
G01*
X55432Y-39638D02*
G75*
G03X55432Y-39638I-38J0D01*
G74*
G01*
X55471Y-43464D02*
G75*
G03X55471Y-43464I-38J0D01*
G74*
G01*
X55483Y-41846D02*
G75*
G03X55483Y-41846I-38J0D01*
G74*
G01*
X55491Y-43067D02*
G75*
G03X55491Y-43067I-38J0D01*
G74*
G01*
X55593Y-39028D02*
G75*
G03X55593Y-39028I-38J0D01*
G74*
G01*
X55676Y-36756D02*
G75*
G03X55676Y-36756I-38J0D01*
G74*
G01*
X55711Y-49358D02*
G75*
G03X55711Y-49358I-38J0D01*
G74*
G01*
X55739Y-40618D02*
G75*
G03X55739Y-40618I-38J0D01*
G74*
G01*
X55743Y-41839D02*
G75*
G03X55743Y-41839I-38J0D01*
G74*
G01*
X55747Y-39445D02*
G75*
G03X55747Y-39445I-38J0D01*
G74*
G01*
X55774Y-39831D02*
G75*
G03X55774Y-39831I-38J0D01*
G74*
G01*
X55810Y-40232D02*
G75*
G03X55810Y-40232I-38J0D01*
G74*
G01*
X55853Y-41406D02*
G75*
G03X55853Y-41406I-38J0D01*
G74*
G01*
X55869Y-39047D02*
G75*
G03X55869Y-39047I-38J0D01*
G74*
G01*
X55928Y-41016D02*
G75*
G03X55928Y-41016I-38J0D01*
G74*
G01*
X55971Y-38528D02*
G75*
G03X55971Y-38528I-38J0D01*
G74*
G01*
X56019Y-37386D02*
G75*
G03X56019Y-37386I-38J0D01*
G74*
G01*
X56022Y-38016D02*
G75*
G03X56022Y-38016I-38J0D01*
G74*
G01*
X56105Y-49358D02*
G75*
G03X56105Y-49358I-38J0D01*
G74*
G01*
X56298Y-42953D02*
G75*
G03X56298Y-42953I-38J0D01*
G74*
G01*
X56341Y-41937D02*
G75*
G03X56341Y-41937I-38J0D01*
G74*
G01*
X56357Y-38122D02*
G75*
G03X56357Y-38122I-38J0D01*
G74*
G01*
X56455Y-46299D02*
G75*
G03X56455Y-46299I-38J0D01*
G74*
G01*
X56573Y-33799D02*
G75*
G03X56573Y-33799I-38J0D01*
G74*
G01*
X56577Y-49358D02*
G75*
G03X56577Y-49358I-38J0D01*
G74*
G01*
X56613Y-38130D02*
G75*
G03X56613Y-38130I-38J0D01*
G74*
G01*
X56821Y-39272D02*
G75*
G03X56821Y-39272I-38J0D01*
G74*
G01*
X56821Y-39705D02*
G75*
G03X56821Y-39705I-38J0D01*
G74*
G01*
X56821Y-40138D02*
G75*
G03X56821Y-40138I-38J0D01*
G74*
G01*
X56821Y-40571D02*
G75*
G03X56821Y-40571I-38J0D01*
G74*
G01*
X56821Y-41004D02*
G75*
G03X56821Y-41004I-38J0D01*
G74*
G01*
X56849Y-46299D02*
G75*
G03X56849Y-46299I-38J0D01*
G74*
G01*
X56971Y-49043D02*
G75*
G03X56971Y-49043I-38J0D01*
G74*
G01*
X56971Y-49358D02*
G75*
G03X56971Y-49358I-38J0D01*
G74*
G01*
X56995Y-42059D02*
G75*
G03X56995Y-42059I-38J0D01*
G74*
G01*
X57007Y-47834D02*
G75*
G03X57007Y-47834I-38J0D01*
G74*
G01*
X57038Y-39055D02*
G75*
G03X57038Y-39055I-38J0D01*
G74*
G01*
X57038Y-39488D02*
G75*
G03X57038Y-39488I-38J0D01*
G74*
G01*
X57038Y-39921D02*
G75*
G03X57038Y-39921I-38J0D01*
G74*
G01*
X57038Y-40354D02*
G75*
G03X57038Y-40354I-38J0D01*
G74*
G01*
X57038Y-40787D02*
G75*
G03X57038Y-40787I-38J0D01*
G74*
G01*
X57132Y-35291D02*
G75*
G03X57132Y-35291I-38J0D01*
G74*
G01*
X57144Y-36587D02*
G75*
G03X57144Y-36587I-38J0D01*
G74*
G01*
X57207Y-46870D02*
G75*
G03X57207Y-46870I-38J0D01*
G74*
G01*
X57243Y-42071D02*
G75*
G03X57243Y-42071I-38J0D01*
G74*
G01*
X57254Y-39272D02*
G75*
G03X57254Y-39272I-38J0D01*
G74*
G01*
X57254Y-39705D02*
G75*
G03X57254Y-39705I-38J0D01*
G74*
G01*
X57254Y-40138D02*
G75*
G03X57254Y-40138I-38J0D01*
G74*
G01*
X57254Y-40571D02*
G75*
G03X57254Y-40571I-38J0D01*
G74*
G01*
X57254Y-41004D02*
G75*
G03X57254Y-41004I-38J0D01*
G74*
G01*
X57286Y-47539D02*
G75*
G03X57286Y-47539I-38J0D01*
G74*
G01*
X57345Y-42228D02*
G75*
G03X57345Y-42228I-38J0D01*
G74*
G01*
X57471Y-39055D02*
G75*
G03X57471Y-39055I-38J0D01*
G74*
G01*
X57471Y-39488D02*
G75*
G03X57471Y-39488I-38J0D01*
G74*
G01*
X57471Y-39921D02*
G75*
G03X57471Y-39921I-38J0D01*
G74*
G01*
X57471Y-40354D02*
G75*
G03X57471Y-40354I-38J0D01*
G74*
G01*
X57471Y-40787D02*
G75*
G03X57471Y-40787I-38J0D01*
G74*
G01*
X57503Y-41937D02*
G75*
G03X57503Y-41937I-38J0D01*
G74*
G01*
X57691Y-39272D02*
G75*
G03X57691Y-39272I-38J0D01*
G74*
G01*
X57691Y-39705D02*
G75*
G03X57691Y-39705I-38J0D01*
G74*
G01*
X57691Y-40138D02*
G75*
G03X57691Y-40138I-38J0D01*
G74*
G01*
X57691Y-40571D02*
G75*
G03X57691Y-40571I-38J0D01*
G74*
G01*
X57691Y-41004D02*
G75*
G03X57691Y-41004I-38J0D01*
G74*
G01*
X57719Y-46870D02*
G75*
G03X57719Y-46870I-38J0D01*
G74*
G01*
X57774Y-44220D02*
G75*
G03X57774Y-44220I-38J0D01*
G74*
G01*
X57877Y-47460D02*
G75*
G03X57877Y-47460I-38J0D01*
G74*
G01*
X57904Y-39055D02*
G75*
G03X57904Y-39055I-38J0D01*
G74*
G01*
X57904Y-39488D02*
G75*
G03X57904Y-39488I-38J0D01*
G74*
G01*
X57904Y-39921D02*
G75*
G03X57904Y-39921I-38J0D01*
G74*
G01*
X57904Y-40354D02*
G75*
G03X57904Y-40354I-38J0D01*
G74*
G01*
X57904Y-40787D02*
G75*
G03X57904Y-40787I-38J0D01*
G74*
G01*
X58120Y-39272D02*
G75*
G03X58120Y-39272I-38J0D01*
G74*
G01*
X58120Y-39705D02*
G75*
G03X58120Y-39705I-38J0D01*
G74*
G01*
X58120Y-40138D02*
G75*
G03X58120Y-40138I-38J0D01*
G74*
G01*
X58120Y-40571D02*
G75*
G03X58120Y-40571I-38J0D01*
G74*
G01*
X58120Y-41004D02*
G75*
G03X58120Y-41004I-38J0D01*
G74*
G01*
X58192Y-46870D02*
G75*
G03X58192Y-46870I-38J0D01*
G74*
G01*
X58274Y-44590D02*
G75*
G03X58274Y-44590I-38J0D01*
G74*
G01*
X58294Y-36228D02*
G75*
G03X58294Y-36228I-38J0D01*
G74*
G01*
X58318Y-42751D02*
G75*
G03X58318Y-42751I-38J0D01*
G74*
G01*
X58337Y-39055D02*
G75*
G03X58337Y-39055I-38J0D01*
G74*
G01*
X58337Y-39488D02*
G75*
G03X58337Y-39488I-38J0D01*
G74*
G01*
X58337Y-39921D02*
G75*
G03X58337Y-39921I-38J0D01*
G74*
G01*
X58337Y-40354D02*
G75*
G03X58337Y-40354I-38J0D01*
G74*
G01*
X58337Y-40787D02*
G75*
G03X58337Y-40787I-38J0D01*
G74*
G01*
X58392Y-35528D02*
G75*
G03X58392Y-35528I-38J0D01*
G74*
G01*
X58408Y-36783D02*
G75*
G03X58408Y-36783I-38J0D01*
G74*
G01*
X58463Y-33267D02*
G75*
G03X58463Y-33267I-38J0D01*
G74*
G01*
X58507Y-47578D02*
G75*
G03X58507Y-47578I-38J0D01*
G74*
G01*
X58542Y-49409D02*
G75*
G03X58542Y-49409I-38J0D01*
G74*
G01*
X58553Y-39272D02*
G75*
G03X58553Y-39272I-38J0D01*
G74*
G01*
X58553Y-39705D02*
G75*
G03X58553Y-39705I-38J0D01*
G74*
G01*
X58553Y-40138D02*
G75*
G03X58553Y-40138I-38J0D01*
G74*
G01*
X58553Y-40571D02*
G75*
G03X58553Y-40571I-38J0D01*
G74*
G01*
X58553Y-41004D02*
G75*
G03X58553Y-41004I-38J0D01*
G74*
G01*
X58576Y-41932D02*
G75*
G03X58576Y-41932I-38J0D01*
G74*
G01*
X58625Y-46870D02*
G75*
G03X58625Y-46870I-38J0D01*
G74*
G01*
X58770Y-39055D02*
G75*
G03X58770Y-39055I-38J0D01*
G74*
G01*
X58770Y-39488D02*
G75*
G03X58770Y-39488I-38J0D01*
G74*
G01*
X58770Y-39921D02*
G75*
G03X58770Y-39921I-38J0D01*
G74*
G01*
X58770Y-40354D02*
G75*
G03X58770Y-40354I-38J0D01*
G74*
G01*
X58770Y-40787D02*
G75*
G03X58770Y-40787I-38J0D01*
G74*
G01*
X58782Y-41909D02*
G75*
G03X58782Y-41909I-38J0D01*
G74*
G01*
X58818Y-33779D02*
G75*
G03X58818Y-33779I-38J0D01*
G74*
G01*
X58971Y-48818D02*
G75*
G03X58971Y-48818I-38J0D01*
G74*
G01*
X58979Y-49240D02*
G75*
G03X58979Y-49240I-38J0D01*
G74*
G01*
X59054Y-33307D02*
G75*
G03X59054Y-33307I-38J0D01*
G74*
G01*
X59188Y-37972D02*
G75*
G03X59188Y-37972I-38J0D01*
G74*
G01*
X59211Y-33779D02*
G75*
G03X59211Y-33779I-38J0D01*
G74*
G01*
X59286Y-48452D02*
G75*
G03X59286Y-48452I-38J0D01*
G74*
G01*
X59310Y-41807D02*
G75*
G03X59310Y-41807I-38J0D01*
G74*
G01*
X59319Y-42067D02*
G75*
G03X59319Y-42067I-38J0D01*
G74*
G01*
X59546Y-36051D02*
G75*
G03X59546Y-36051I-38J0D01*
G74*
G01*
X59644Y-33267D02*
G75*
G03X59644Y-33267I-38J0D01*
G74*
G01*
X59684Y-40225D02*
G75*
G03X59684Y-40225I-38J0D01*
G74*
G01*
X59688Y-35925D02*
G75*
G03X59688Y-35925I-38J0D01*
G74*
G01*
X59707Y-40425D02*
G75*
G03X59707Y-40425I-38J0D01*
G74*
G01*
X59825Y-39870D02*
G75*
G03X59825Y-39870I-38J0D01*
G74*
G01*
X59841Y-44988D02*
G75*
G03X59841Y-44988I-38J0D01*
G74*
G01*
X59849Y-44299D02*
G75*
G03X59849Y-44299I-38J0D01*
G74*
G01*
X59861Y-44641D02*
G75*
G03X59861Y-44641I-38J0D01*
G74*
G01*
X59888Y-43614D02*
G75*
G03X59888Y-43614I-38J0D01*
G74*
G01*
X59989Y-40876D02*
G75*
G03X59989Y-40876I-38J0D01*
G74*
G01*
X60003Y-42188D02*
G75*
G03X60003Y-42188I-38J0D01*
G74*
G01*
X60034Y-33263D02*
G75*
G03X60034Y-33263I-38J0D01*
G74*
G01*
X60188Y-43614D02*
G75*
G03X60188Y-43614I-38J0D01*
G74*
G01*
X60215Y-35130D02*
G75*
G03X60215Y-35130I-38J0D01*
G74*
G01*
X60284Y-35719D02*
G75*
G03X60284Y-35719I-38J0D01*
G74*
G01*
X60290Y-40763D02*
G75*
G03X60290Y-40763I-38J0D01*
G74*
G01*
X60304Y-35482D02*
G75*
G03X60304Y-35482I-38J0D01*
G74*
G01*
X60436Y-42381D02*
G75*
G03X60436Y-42381I-38J0D01*
G74*
G01*
X60507Y-33263D02*
G75*
G03X60507Y-33263I-38J0D01*
G74*
G01*
X60684Y-42460D02*
G75*
G03X60684Y-42460I-38J0D01*
G74*
G01*
X60684Y-44980D02*
G75*
G03X60684Y-44980I-38J0D01*
G74*
G01*
X60695Y-44641D02*
G75*
G03X60695Y-44641I-38J0D01*
G74*
G01*
X60719Y-46791D02*
G75*
G03X60719Y-46791I-38J0D01*
G74*
G01*
X60755Y-48362D02*
G75*
G03X60755Y-48362I-38J0D01*
G74*
G01*
X60900Y-33263D02*
G75*
G03X60900Y-33263I-38J0D01*
G74*
G01*
X60920Y-38087D02*
G75*
G03X60920Y-38087I-38J0D01*
G74*
G01*
X61049Y-37386D02*
G75*
G03X61049Y-37386I-38J0D01*
G74*
G01*
X61062Y-43511D02*
G75*
G03X61062Y-43511I-38J0D01*
G74*
G01*
X61062Y-35198D02*
G75*
G03X61062Y-35198I-38J0D01*
G74*
G01*
X61062Y-35536D02*
G75*
G03X61062Y-35536I-38J0D01*
G74*
G01*
X61160Y-46311D02*
G75*
G03X61160Y-46311I-38J0D01*
G74*
G01*
X61207Y-44732D02*
G75*
G03X61207Y-44732I-38J0D01*
G74*
G01*
X61211Y-42181D02*
G75*
G03X61211Y-42181I-38J0D01*
G74*
G01*
X61239Y-33799D02*
G75*
G03X61239Y-33799I-38J0D01*
G74*
G01*
X61267Y-41854D02*
G75*
G03X61267Y-41854I-38J0D01*
G74*
G01*
X61302Y-40071D02*
G75*
G03X61302Y-40071I-38J0D01*
G74*
G01*
X61321Y-40799D02*
G75*
G03X61321Y-40799I-38J0D01*
G74*
G01*
X61373Y-33263D02*
G75*
G03X61373Y-33263I-38J0D01*
G74*
G01*
X61404Y-44913D02*
G75*
G03X61404Y-44913I-38J0D01*
G74*
G01*
X61404Y-49437D02*
G75*
G03X61404Y-49437I-38J0D01*
G74*
G01*
X61424Y-35540D02*
G75*
G03X61424Y-35540I-38J0D01*
G74*
G01*
X61428Y-47940D02*
G75*
G03X61428Y-47940I-38J0D01*
G74*
G01*
X61432Y-48484D02*
G75*
G03X61432Y-48484I-38J0D01*
G74*
G01*
X61432Y-35193D02*
G75*
G03X61432Y-35193I-38J0D01*
G74*
G01*
X61518Y-46314D02*
G75*
G03X61518Y-46314I-38J0D01*
G74*
G01*
X61593Y-33799D02*
G75*
G03X61593Y-33799I-38J0D01*
G74*
G01*
X61680Y-44440D02*
G75*
G03X61680Y-44440I-38J0D01*
G74*
G01*
X61703Y-45185D02*
G75*
G03X61703Y-45185I-38J0D01*
G74*
G01*
X61766Y-33263D02*
G75*
G03X61766Y-33263I-38J0D01*
G74*
G01*
X62010Y-46921D02*
G75*
G03X62010Y-46921I-38J0D01*
G74*
G01*
X62097Y-48488D02*
G75*
G03X62097Y-48488I-38J0D01*
G74*
G01*
X62192Y-36559D02*
G75*
G03X62192Y-36559I-38J0D01*
G74*
G01*
X62203Y-33275D02*
G75*
G03X62203Y-33275I-38J0D01*
G74*
G01*
X62369Y-49421D02*
G75*
G03X62369Y-49421I-38J0D01*
G74*
G01*
X62388Y-47901D02*
G75*
G03X62388Y-47901I-38J0D01*
G74*
G01*
X62487Y-48370D02*
G75*
G03X62487Y-48370I-38J0D01*
G74*
G01*
X62597Y-33275D02*
G75*
G03X62597Y-33275I-38J0D01*
G74*
G01*
X62755Y-46909D02*
G75*
G03X62755Y-46909I-38J0D01*
G74*
G01*
X62869Y-40255D02*
G75*
G03X62869Y-40255I-38J0D01*
G74*
G01*
X62873Y-37500D02*
G75*
G03X62873Y-37500I-38J0D01*
G74*
G01*
X62873Y-39862D02*
G75*
G03X62873Y-39862I-38J0D01*
G74*
G01*
X62892Y-37874D02*
G75*
G03X62892Y-37874I-38J0D01*
G74*
G01*
X62951Y-42204D02*
G75*
G03X62951Y-42204I-38J0D01*
G74*
G01*
X62951Y-42637D02*
G75*
G03X62951Y-42637I-38J0D01*
G74*
G01*
X62991Y-33275D02*
G75*
G03X62991Y-33275I-38J0D01*
G74*
G01*
X63266Y-43818D02*
G75*
G03X63266Y-43818I-38J0D01*
G74*
G01*
X63345Y-42559D02*
G75*
G03X63345Y-42559I-38J0D01*
G74*
G01*
X63345Y-42992D02*
G75*
G03X63345Y-42992I-38J0D01*
G74*
G01*
X63345Y-45551D02*
G75*
G03X63345Y-45551I-38J0D01*
G74*
G01*
X63361Y-45913D02*
G75*
G03X63361Y-45913I-38J0D01*
G74*
G01*
X63384Y-34704D02*
G75*
G03X63384Y-34704I-38J0D01*
G74*
G01*
X63392Y-46311D02*
G75*
G03X63392Y-46311I-38J0D01*
G74*
G01*
X63404Y-35964D02*
G75*
G03X63404Y-35964I-38J0D01*
G74*
G01*
X63424Y-36909D02*
G75*
G03X63424Y-36909I-38J0D01*
G74*
G01*
X63424Y-37303D02*
G75*
G03X63424Y-37303I-38J0D01*
G74*
G01*
X63424Y-37696D02*
G75*
G03X63424Y-37696I-38J0D01*
G74*
G01*
X63424Y-44291D02*
G75*
G03X63424Y-44291I-38J0D01*
G74*
G01*
X63483Y-33129D02*
G75*
G03X63483Y-33129I-38J0D01*
G74*
G01*
X63483Y-33818D02*
G75*
G03X63483Y-33818I-38J0D01*
G74*
G01*
X63503Y-33464D02*
G75*
G03X63503Y-33464I-38J0D01*
G74*
G01*
X63503Y-34153D02*
G75*
G03X63503Y-34153I-38J0D01*
G74*
G01*
X63507Y-48342D02*
G75*
G03X63507Y-48342I-38J0D01*
G74*
G01*
X63542Y-46732D02*
G75*
G03X63542Y-46732I-38J0D01*
G74*
G01*
X63621Y-43740D02*
G75*
G03X63621Y-43740I-38J0D01*
G74*
G01*
X63707Y-45909D02*
G75*
G03X63707Y-45909I-38J0D01*
G74*
G01*
X63707Y-46303D02*
G75*
G03X63707Y-46303I-38J0D01*
G74*
G01*
X63755Y-42606D02*
G75*
G03X63755Y-42606I-38J0D01*
G74*
G01*
X63818Y-36909D02*
G75*
G03X63818Y-36909I-38J0D01*
G74*
G01*
X63818Y-37303D02*
G75*
G03X63818Y-37303I-38J0D01*
G74*
G01*
X63818Y-37696D02*
G75*
G03X63818Y-37696I-38J0D01*
G74*
G01*
X63825Y-43003D02*
G75*
G03X63825Y-43003I-38J0D01*
G74*
G01*
X63877Y-33818D02*
G75*
G03X63877Y-33818I-38J0D01*
G74*
G01*
X63896Y-33464D02*
G75*
G03X63896Y-33464I-38J0D01*
G74*
G01*
X63896Y-34153D02*
G75*
G03X63896Y-34153I-38J0D01*
G74*
G01*
X63955Y-46893D02*
G75*
G03X63955Y-46893I-38J0D01*
G74*
G01*
X63983Y-43751D02*
G75*
G03X63983Y-43751I-38J0D01*
G74*
G01*
X64054Y-33149D02*
G75*
G03X64054Y-33149I-38J0D01*
G74*
G01*
X64101Y-42602D02*
G75*
G03X64101Y-42602I-38J0D01*
G74*
G01*
X64101Y-45909D02*
G75*
G03X64101Y-45909I-38J0D01*
G74*
G01*
X64101Y-46303D02*
G75*
G03X64101Y-46303I-38J0D01*
G74*
G01*
X64140Y-42996D02*
G75*
G03X64140Y-42996I-38J0D01*
G74*
G01*
X64211Y-33661D02*
G75*
G03X64211Y-33661I-38J0D01*
G74*
G01*
X64211Y-36909D02*
G75*
G03X64211Y-36909I-38J0D01*
G74*
G01*
X64211Y-37303D02*
G75*
G03X64211Y-37303I-38J0D01*
G74*
G01*
X64211Y-37696D02*
G75*
G03X64211Y-37696I-38J0D01*
G74*
G01*
X64258Y-48429D02*
G75*
G03X64258Y-48429I-38J0D01*
G74*
G01*
X64298Y-43744D02*
G75*
G03X64298Y-43744I-38J0D01*
G74*
G01*
X64495Y-42602D02*
G75*
G03X64495Y-42602I-38J0D01*
G74*
G01*
X64534Y-42996D02*
G75*
G03X64534Y-42996I-38J0D01*
G74*
G01*
X64581Y-46566D02*
G75*
G03X64581Y-46566I-38J0D01*
G74*
G01*
X64605Y-36909D02*
G75*
G03X64605Y-36909I-38J0D01*
G74*
G01*
X64605Y-37303D02*
G75*
G03X64605Y-37303I-38J0D01*
G74*
G01*
X64605Y-37696D02*
G75*
G03X64605Y-37696I-38J0D01*
G74*
G01*
X64640Y-46996D02*
G75*
G03X64640Y-46996I-38J0D01*
G74*
G01*
X64640Y-47311D02*
G75*
G03X64640Y-47311I-38J0D01*
G74*
G01*
X64644Y-47637D02*
G75*
G03X64644Y-47637I-38J0D01*
G74*
G01*
X64644Y-48425D02*
G75*
G03X64644Y-48425I-38J0D01*
G74*
G01*
X64644Y-48897D02*
G75*
G03X64644Y-48897I-38J0D01*
G74*
G01*
X64684Y-33740D02*
G75*
G03X64684Y-33740I-38J0D01*
G74*
G01*
X64684Y-34547D02*
G75*
G03X64684Y-34547I-38J0D01*
G74*
G01*
X64684Y-34881D02*
G75*
G03X64684Y-34881I-38J0D01*
G74*
G01*
X64684Y-35708D02*
G75*
G03X64684Y-35708I-38J0D01*
G74*
G01*
X64684Y-44094D02*
G75*
G03X64684Y-44094I-38J0D01*
G74*
G01*
X64684Y-44409D02*
G75*
G03X64684Y-44409I-38J0D01*
G74*
G01*
X64684Y-45196D02*
G75*
G03X64684Y-45196I-38J0D01*
G74*
G01*
X64684Y-45511D02*
G75*
G03X64684Y-45511I-38J0D01*
G74*
G01*
X64692Y-43744D02*
G75*
G03X64692Y-43744I-38J0D01*
G74*
G01*
X64703Y-36003D02*
G75*
G03X64703Y-36003I-38J0D01*
G74*
G01*
X59350Y-37174D02*
X59350Y-37252D01*
X59311Y-37213D02*
X59389Y-37213D01*
X59740Y-40701D02*
X59740Y-40779D01*
X59701Y-40740D02*
X59779Y-40740D01*
X59748Y-38981D02*
X59748Y-39059D01*
X59709Y-39020D02*
X59787Y-39020D01*
X59882Y-37347D02*
X59882Y-37425D01*
X59843Y-37386D02*
X59921Y-37386D01*
X60030Y-41172D02*
X60030Y-41250D01*
X59991Y-41211D02*
X60069Y-41211D01*
X60039Y-41398D02*
X60039Y-41476D01*
X60000Y-41437D02*
X60078Y-41437D01*
X60319Y-39945D02*
X60319Y-40023D01*
X60280Y-39984D02*
X60358Y-39984D01*
X60339Y-39205D02*
X60339Y-39283D01*
X60300Y-39244D02*
X60378Y-39244D01*
X60780Y-39367D02*
X60780Y-39445D01*
X60741Y-39406D02*
X60819Y-39406D01*
X60906Y-36221D02*
X60906Y-36299D01*
X60867Y-36260D02*
X60945Y-36260D01*
X61957Y-34784D02*
X61957Y-34862D01*
X61918Y-34823D02*
X61996Y-34823D01*
X61957Y-35894D02*
X61957Y-35972D01*
X61918Y-35933D02*
X61996Y-35933D01*
X48197Y-42153D02*
X48197Y-42098D01*
X48141Y-42098D01*
X48141Y-42153D01*
X48197Y-42153D01*
X48216Y-39575D02*
X48216Y-39519D01*
X48161Y-39519D01*
X48161Y-39575D01*
X48216Y-39575D01*
X48216Y-41957D02*
X48216Y-41901D01*
X48161Y-41901D01*
X48161Y-41957D01*
X48216Y-41957D01*
X56464Y-38777D02*
X56464Y-38722D01*
X56409Y-38722D01*
X56409Y-38777D01*
X56464Y-38777D01*
X56464Y-38974D02*
X56464Y-38919D01*
X56409Y-38919D01*
X56409Y-38974D01*
X56464Y-38974D01*
X56464Y-39171D02*
X56464Y-39116D01*
X56409Y-39116D01*
X56409Y-39171D01*
X56464Y-39171D01*
X56464Y-39368D02*
X56464Y-39313D01*
X56409Y-39313D01*
X56409Y-39368D01*
X56464Y-39368D01*
X56464Y-39564D02*
X56464Y-39509D01*
X56409Y-39509D01*
X56409Y-39564D01*
X56464Y-39564D01*
X56464Y-39761D02*
X56464Y-39706D01*
X56409Y-39706D01*
X56409Y-39761D01*
X56464Y-39761D01*
X56464Y-39958D02*
X56464Y-39903D01*
X56409Y-39903D01*
X56409Y-39958D01*
X56464Y-39958D01*
X56464Y-40155D02*
X56464Y-40100D01*
X56409Y-40100D01*
X56409Y-40155D01*
X56464Y-40155D01*
X56464Y-40352D02*
X56464Y-40297D01*
X56409Y-40297D01*
X56409Y-40352D01*
X56464Y-40352D01*
X56464Y-40549D02*
X56464Y-40494D01*
X56409Y-40494D01*
X56409Y-40549D01*
X56464Y-40549D01*
X56464Y-40746D02*
X56464Y-40691D01*
X56409Y-40691D01*
X56409Y-40746D01*
X56464Y-40746D01*
X56464Y-40942D02*
X56464Y-40887D01*
X56409Y-40887D01*
X56409Y-40942D01*
X56464Y-40942D01*
X56464Y-41139D02*
X56464Y-41084D01*
X56409Y-41084D01*
X56409Y-41139D01*
X56464Y-41139D01*
X56474Y-41336D02*
X56474Y-41281D01*
X56419Y-41281D01*
X56419Y-41336D01*
X56474Y-41336D01*
X56690Y-41366D02*
X56690Y-41311D01*
X56635Y-41311D01*
X56635Y-41366D01*
X56690Y-41366D01*
X56700Y-38738D02*
X56700Y-38683D01*
X56645Y-38683D01*
X56645Y-38738D01*
X56700Y-38738D01*
X56887Y-41366D02*
X56887Y-41311D01*
X56832Y-41311D01*
X56832Y-41366D01*
X56887Y-41366D01*
X56897Y-38747D02*
X56897Y-38692D01*
X56842Y-38692D01*
X56842Y-38747D01*
X56897Y-38747D01*
X57084Y-41366D02*
X57084Y-41311D01*
X57029Y-41311D01*
X57029Y-41366D01*
X57084Y-41366D01*
X57094Y-38747D02*
X57094Y-38692D01*
X57039Y-38692D01*
X57039Y-38747D01*
X57094Y-38747D01*
X57281Y-41366D02*
X57281Y-41311D01*
X57226Y-41311D01*
X57226Y-41366D01*
X57281Y-41366D01*
X57881Y-38747D02*
X57881Y-38692D01*
X57826Y-38692D01*
X57826Y-38747D01*
X57881Y-38747D01*
X58265Y-41366D02*
X58265Y-41311D01*
X58210Y-41311D01*
X58210Y-41366D01*
X58265Y-41366D01*
X58462Y-41366D02*
X58462Y-41311D01*
X58407Y-41311D01*
X58407Y-41366D01*
X58462Y-41366D01*
X59082Y-40155D02*
X59082Y-40100D01*
X59027Y-40100D01*
X59027Y-40155D01*
X59082Y-40155D01*
X59092Y-38777D02*
X59092Y-38722D01*
X59037Y-38722D01*
X59037Y-38777D01*
X59092Y-38777D01*
X59092Y-38974D02*
X59092Y-38919D01*
X59037Y-38919D01*
X59037Y-38974D01*
X59092Y-38974D01*
X59092Y-39171D02*
X59092Y-39116D01*
X59037Y-39116D01*
X59037Y-39171D01*
X59092Y-39171D01*
X59092Y-39368D02*
X59092Y-39313D01*
X59037Y-39313D01*
X59037Y-39368D01*
X59092Y-39368D01*
X59092Y-39761D02*
X59092Y-39706D01*
X59037Y-39706D01*
X59037Y-39761D01*
X59092Y-39761D01*
X59092Y-39958D02*
X59092Y-39903D01*
X59037Y-39903D01*
X59037Y-39958D01*
X59092Y-39958D01*
X59092Y-40352D02*
X59092Y-40297D01*
X59037Y-40297D01*
X59037Y-40352D01*
X59092Y-40352D01*
X59092Y-40549D02*
X59092Y-40494D01*
X59037Y-40494D01*
X59037Y-40549D01*
X59092Y-40549D01*
X59092Y-40746D02*
X59092Y-40691D01*
X59037Y-40691D01*
X59037Y-40746D01*
X59092Y-40746D01*
X59092Y-40942D02*
X59092Y-40887D01*
X59037Y-40887D01*
X59037Y-40942D01*
X59092Y-40942D01*
X59092Y-41336D02*
X59092Y-41281D01*
X59037Y-41281D01*
X59037Y-41336D01*
X59092Y-41336D01*
X59102Y-41139D02*
X59102Y-41084D01*
X59047Y-41084D01*
X59047Y-41139D01*
X59102Y-41139D01*
X48124Y-36203D02*
X48182Y-36145D01*
X48124Y-36086D01*
X48065Y-36145D01*
X48124Y-36203D01*
X48124Y-36479D02*
X48182Y-36421D01*
X48124Y-36362D01*
X48065Y-36421D01*
X48124Y-36479D01*
X48138Y-43865D02*
X48196Y-43807D01*
X48138Y-43748D01*
X48079Y-43807D01*
X48138Y-43865D01*
X48150Y-39137D02*
X48208Y-39079D01*
X48150Y-39020D01*
X48091Y-39079D01*
X48150Y-39137D01*
X48158Y-36775D02*
X48216Y-36717D01*
X48158Y-36658D01*
X48099Y-36717D01*
X48158Y-36775D01*
X48189Y-41495D02*
X48247Y-41437D01*
X48189Y-41378D01*
X48130Y-41437D01*
X48189Y-41495D01*
X48990Y-36164D02*
X49048Y-36106D01*
X48990Y-36047D01*
X48931Y-36106D01*
X48990Y-36164D01*
X48990Y-36459D02*
X49048Y-36401D01*
X48990Y-36342D01*
X48931Y-36401D01*
X48990Y-36459D01*
X50921Y-43857D02*
X50979Y-43799D01*
X50921Y-43740D01*
X50862Y-43799D01*
X50921Y-43857D01*
X51012Y-36759D02*
X51070Y-36701D01*
X51012Y-36642D01*
X50953Y-36701D01*
X51012Y-36759D01*
X51169Y-34302D02*
X51227Y-34244D01*
X51169Y-34185D01*
X51110Y-34244D01*
X51169Y-34302D01*
X51336Y-47929D02*
X51395Y-47871D01*
X51336Y-47812D01*
X51278Y-47871D01*
X51336Y-47929D01*
X51336Y-49149D02*
X51395Y-49091D01*
X51336Y-49032D01*
X51278Y-49091D01*
X51336Y-49149D01*
X51375Y-47338D02*
X51434Y-47280D01*
X51375Y-47221D01*
X51317Y-47280D01*
X51375Y-47338D01*
X51375Y-48559D02*
X51434Y-48500D01*
X51375Y-48442D01*
X51317Y-48500D01*
X51375Y-48559D01*
X51494Y-48244D02*
X51552Y-48185D01*
X51494Y-48127D01*
X51435Y-48185D01*
X51494Y-48244D01*
X51533Y-47653D02*
X51591Y-47595D01*
X51533Y-47536D01*
X51474Y-47595D01*
X51533Y-47653D01*
X51533Y-48874D02*
X51591Y-48815D01*
X51533Y-48757D01*
X51474Y-48815D01*
X51533Y-48874D01*
X51651Y-47929D02*
X51710Y-47871D01*
X51651Y-47812D01*
X51593Y-47871D01*
X51651Y-47929D01*
X51651Y-49149D02*
X51710Y-49091D01*
X51651Y-49032D01*
X51593Y-49091D01*
X51651Y-49149D01*
X51690Y-47338D02*
X51749Y-47280D01*
X51690Y-47221D01*
X51632Y-47280D01*
X51690Y-47338D01*
X51690Y-48559D02*
X51749Y-48500D01*
X51690Y-48442D01*
X51632Y-48500D01*
X51690Y-48559D01*
X51809Y-48244D02*
X51867Y-48185D01*
X51809Y-48127D01*
X51750Y-48185D01*
X51809Y-48244D01*
X51848Y-47653D02*
X51906Y-47595D01*
X51848Y-47536D01*
X51789Y-47595D01*
X51848Y-47653D01*
X51848Y-48874D02*
X51906Y-48815D01*
X51848Y-48757D01*
X51789Y-48815D01*
X51848Y-48874D01*
X51966Y-47929D02*
X52025Y-47871D01*
X51966Y-47812D01*
X51908Y-47871D01*
X51966Y-47929D01*
X51966Y-49149D02*
X52025Y-49091D01*
X51966Y-49032D01*
X51908Y-49091D01*
X51966Y-49149D01*
X52005Y-47338D02*
X52064Y-47280D01*
X52005Y-47221D01*
X51947Y-47280D01*
X52005Y-47338D01*
X52005Y-48559D02*
X52064Y-48500D01*
X52005Y-48442D01*
X51947Y-48500D01*
X52005Y-48559D01*
X52123Y-48244D02*
X52182Y-48185D01*
X52123Y-48127D01*
X52065Y-48185D01*
X52123Y-48244D01*
X52163Y-47653D02*
X52221Y-47595D01*
X52163Y-47536D01*
X52104Y-47595D01*
X52163Y-47653D01*
X52163Y-48874D02*
X52221Y-48815D01*
X52163Y-48757D01*
X52104Y-48815D01*
X52163Y-48874D01*
X52281Y-47929D02*
X52339Y-47871D01*
X52281Y-47812D01*
X52222Y-47871D01*
X52281Y-47929D01*
X52281Y-49149D02*
X52339Y-49091D01*
X52281Y-49032D01*
X52222Y-49091D01*
X52281Y-49149D01*
X52320Y-47338D02*
X52379Y-47280D01*
X52320Y-47221D01*
X52262Y-47280D01*
X52320Y-47338D01*
X52320Y-48559D02*
X52379Y-48500D01*
X52320Y-48442D01*
X52262Y-48500D01*
X52320Y-48559D01*
X52438Y-48244D02*
X52497Y-48185D01*
X52438Y-48127D01*
X52380Y-48185D01*
X52438Y-48244D01*
X52478Y-47653D02*
X52536Y-47595D01*
X52478Y-47536D01*
X52419Y-47595D01*
X52478Y-47653D01*
X52478Y-48874D02*
X52536Y-48815D01*
X52478Y-48757D01*
X52419Y-48815D01*
X52478Y-48874D01*
X52596Y-47929D02*
X52654Y-47871D01*
X52596Y-47812D01*
X52537Y-47871D01*
X52596Y-47929D01*
X52596Y-49149D02*
X52654Y-49091D01*
X52596Y-49032D01*
X52537Y-49091D01*
X52596Y-49149D01*
X52635Y-47338D02*
X52694Y-47280D01*
X52635Y-47221D01*
X52577Y-47280D01*
X52635Y-47338D01*
X52635Y-48559D02*
X52694Y-48500D01*
X52635Y-48442D01*
X52577Y-48500D01*
X52635Y-48559D01*
X52753Y-48244D02*
X52812Y-48185D01*
X52753Y-48127D01*
X52695Y-48185D01*
X52753Y-48244D01*
X52793Y-47653D02*
X52851Y-47595D01*
X52793Y-47536D01*
X52734Y-47595D01*
X52793Y-47653D01*
X52793Y-48874D02*
X52851Y-48815D01*
X52793Y-48757D01*
X52734Y-48815D01*
X52793Y-48874D01*
X52911Y-47929D02*
X52969Y-47871D01*
X52911Y-47812D01*
X52852Y-47871D01*
X52911Y-47929D01*
X52911Y-49149D02*
X52969Y-49091D01*
X52911Y-49032D01*
X52852Y-49091D01*
X52911Y-49149D01*
X52950Y-47338D02*
X53009Y-47280D01*
X52950Y-47221D01*
X52892Y-47280D01*
X52950Y-47338D01*
X52950Y-48559D02*
X53009Y-48500D01*
X52950Y-48442D01*
X52892Y-48500D01*
X52950Y-48559D01*
X53068Y-48244D02*
X53127Y-48185D01*
X53068Y-48127D01*
X53010Y-48185D01*
X53068Y-48244D01*
X53108Y-47653D02*
X53166Y-47595D01*
X53108Y-47536D01*
X53049Y-47595D01*
X53108Y-47653D01*
X53108Y-48874D02*
X53166Y-48815D01*
X53108Y-48757D01*
X53049Y-48815D01*
X53108Y-48874D01*
X53465Y-45873D02*
X53523Y-45815D01*
X53465Y-45756D01*
X53406Y-45815D01*
X53465Y-45873D01*
X54221Y-34499D02*
X54279Y-34441D01*
X54221Y-34382D01*
X54162Y-34441D01*
X54221Y-34499D01*
X54268Y-46566D02*
X54326Y-46508D01*
X54268Y-46449D01*
X54209Y-46508D01*
X54268Y-46566D01*
X54949Y-37401D02*
X55007Y-37343D01*
X54949Y-37284D01*
X54890Y-37343D01*
X54949Y-37401D01*
X55032Y-45334D02*
X55090Y-45276D01*
X55032Y-45217D01*
X54973Y-45276D01*
X55032Y-45334D01*
X55748Y-43570D02*
X55806Y-43512D01*
X55748Y-43453D01*
X55689Y-43512D01*
X55748Y-43570D01*
X55787Y-47300D02*
X55845Y-47242D01*
X55787Y-47183D01*
X55728Y-47242D01*
X55787Y-47300D01*
X55787Y-47734D02*
X55845Y-47676D01*
X55787Y-47617D01*
X55728Y-47676D01*
X55787Y-47734D01*
X55787Y-48167D02*
X55845Y-48109D01*
X55787Y-48050D01*
X55728Y-48109D01*
X55787Y-48167D01*
X56102Y-44033D02*
X56160Y-43975D01*
X56102Y-43916D01*
X56043Y-43975D01*
X56102Y-44033D01*
X56220Y-47301D02*
X56278Y-47243D01*
X56220Y-47184D01*
X56161Y-47243D01*
X56220Y-47301D01*
X56220Y-47734D02*
X56278Y-47676D01*
X56220Y-47617D01*
X56161Y-47676D01*
X56220Y-47734D01*
X56378Y-44033D02*
X56436Y-43975D01*
X56378Y-43916D01*
X56319Y-43975D01*
X56378Y-44033D01*
X56783Y-43231D02*
X56841Y-43173D01*
X56783Y-43114D01*
X56724Y-43173D01*
X56783Y-43231D01*
X59910Y-37873D02*
X59968Y-37815D01*
X59910Y-37756D01*
X59851Y-37815D01*
X59910Y-37873D01*
X61594Y-38141D02*
X61652Y-38083D01*
X61594Y-38024D01*
X61535Y-38083D01*
X61594Y-38141D01*
X61728Y-40704D02*
X61786Y-40646D01*
X61728Y-40587D01*
X61669Y-40646D01*
X61728Y-40704D01*
X61821Y-42076D02*
X61879Y-42018D01*
X61821Y-41959D01*
X61762Y-42018D01*
X61821Y-42076D01*
X62036Y-39558D02*
X62094Y-39500D01*
X62036Y-39441D01*
X61977Y-39500D01*
X62036Y-39558D01*
X62039Y-39861D02*
X62097Y-39803D01*
X62039Y-39744D01*
X61980Y-39803D01*
X62039Y-39861D01*
X55520Y-35071D02*
X55638Y-35189D01*
X55638Y-35071D02*
X55520Y-35189D01*
X55638Y-35130D02*
G75*
G03X55638Y-35130I-59J0D01*
G74*
G01*
X56032Y-35319D02*
X56150Y-35437D01*
X56150Y-35319D02*
X56032Y-35437D01*
X56150Y-35378D02*
G75*
G03X56150Y-35378I-59J0D01*
G74*
G01*
X45830Y-34453D02*
X46184Y-34807D01*
X46184Y-34453D02*
X45830Y-34807D01*
X46007Y-34453D02*
X46007Y-34807D01*
X45830Y-34630D02*
X46184Y-34630D01*
X45830Y-34886D02*
X46184Y-35240D01*
X46184Y-34886D02*
X45830Y-35240D01*
X46007Y-34886D02*
X46007Y-35240D01*
X45830Y-35063D02*
X46184Y-35063D01*
X45830Y-35319D02*
X46184Y-35673D01*
X46184Y-35319D02*
X45830Y-35673D01*
X46007Y-35319D02*
X46007Y-35673D01*
X45830Y-35496D02*
X46184Y-35496D01*
X45830Y-43292D02*
X46184Y-43646D01*
X46184Y-43292D02*
X45830Y-43646D01*
X46007Y-43292D02*
X46007Y-43646D01*
X45830Y-43469D02*
X46184Y-43469D01*
X45830Y-43725D02*
X46184Y-44079D01*
X46184Y-43725D02*
X45830Y-44079D01*
X46007Y-43725D02*
X46007Y-44079D01*
X45830Y-43902D02*
X46184Y-43902D01*
X45830Y-44158D02*
X46184Y-44512D01*
X46184Y-44158D02*
X45830Y-44512D01*
X46007Y-44158D02*
X46007Y-44512D01*
X45830Y-44335D02*
X46184Y-44335D01*
X46595Y-44644D02*
X46949Y-44998D01*
X46949Y-44644D02*
X46595Y-44998D01*
X46772Y-44644D02*
X46772Y-44998D01*
X46595Y-44821D02*
X46949Y-44821D01*
X46595Y-45644D02*
X46949Y-45998D01*
X46949Y-45644D02*
X46595Y-45998D01*
X46772Y-45644D02*
X46772Y-45998D01*
X46595Y-45821D02*
X46949Y-45821D01*
X51862Y-33054D02*
X52216Y-33408D01*
X52216Y-33054D02*
X51862Y-33408D01*
X52039Y-33054D02*
X52039Y-33408D01*
X51862Y-33231D02*
X52216Y-33231D01*
X52862Y-33074D02*
X53216Y-33428D01*
X53216Y-33074D02*
X52862Y-33428D01*
X53039Y-33074D02*
X53039Y-33428D01*
X52862Y-33251D02*
X53216Y-33251D01*
X53862Y-33074D02*
X54216Y-33428D01*
X54216Y-33074D02*
X53862Y-33428D01*
X54039Y-33074D02*
X54039Y-33428D01*
X53862Y-33251D02*
X54216Y-33251D01*
X54862Y-33074D02*
X55216Y-33428D01*
X55216Y-33074D02*
X54862Y-33428D01*
X55039Y-33074D02*
X55039Y-33428D01*
X54862Y-33251D02*
X55216Y-33251D01*
X55862Y-33074D02*
X56216Y-33428D01*
X56216Y-33074D02*
X55862Y-33428D01*
X56039Y-33074D02*
X56039Y-33428D01*
X55862Y-33251D02*
X56216Y-33251D01*
X56248Y-32578D02*
X56602Y-32932D01*
X56602Y-32578D02*
X56248Y-32932D01*
X56425Y-32578D02*
X56425Y-32932D01*
X56248Y-32755D02*
X56602Y-32755D01*
X56249Y-49591D02*
X56603Y-49945D01*
X56603Y-49591D02*
X56249Y-49945D01*
X56426Y-49591D02*
X56426Y-49945D01*
X56249Y-49768D02*
X56603Y-49768D01*
X56681Y-32578D02*
X57035Y-32932D01*
X57035Y-32578D02*
X56681Y-32932D01*
X56858Y-32578D02*
X56858Y-32932D01*
X56681Y-32755D02*
X57035Y-32755D01*
X56682Y-49591D02*
X57036Y-49945D01*
X57036Y-49591D02*
X56682Y-49945D01*
X56859Y-49591D02*
X56859Y-49945D01*
X56682Y-49768D02*
X57036Y-49768D01*
X56862Y-33074D02*
X57216Y-33428D01*
X57216Y-33074D02*
X56862Y-33428D01*
X57039Y-33074D02*
X57039Y-33428D01*
X56862Y-33251D02*
X57216Y-33251D01*
X57114Y-32578D02*
X57468Y-32932D01*
X57468Y-32578D02*
X57114Y-32932D01*
X57291Y-32578D02*
X57291Y-32932D01*
X57114Y-32755D02*
X57468Y-32755D01*
X57115Y-49591D02*
X57469Y-49945D01*
X57469Y-49591D02*
X57115Y-49945D01*
X57292Y-49591D02*
X57292Y-49945D01*
X57115Y-49768D02*
X57469Y-49768D01*
X57548Y-32578D02*
X57902Y-32932D01*
X57902Y-32578D02*
X57548Y-32932D01*
X57725Y-32578D02*
X57725Y-32932D01*
X57548Y-32755D02*
X57902Y-32755D01*
X57549Y-49591D02*
X57903Y-49945D01*
X57903Y-49591D02*
X57549Y-49945D01*
X57726Y-49591D02*
X57726Y-49945D01*
X57549Y-49768D02*
X57903Y-49768D01*
X59689Y-49015D02*
X60043Y-49369D01*
X60043Y-49015D02*
X59689Y-49369D01*
X59866Y-49015D02*
X59866Y-49369D01*
X59689Y-49192D02*
X60043Y-49192D01*
X59701Y-47464D02*
X60055Y-47818D01*
X60055Y-47464D02*
X59701Y-47818D01*
X59878Y-47464D02*
X59878Y-47818D01*
X59701Y-47641D02*
X60055Y-47641D01*
X60689Y-49035D02*
X61043Y-49389D01*
X61043Y-49035D02*
X60689Y-49389D01*
X60866Y-49035D02*
X60866Y-49389D01*
X60689Y-49212D02*
X61043Y-49212D01*
X60701Y-47464D02*
X61055Y-47818D01*
X61055Y-47464D02*
X60701Y-47818D01*
X60878Y-47464D02*
X60878Y-47818D01*
X60701Y-47641D02*
X61055Y-47641D01*
X61689Y-49035D02*
X62043Y-49389D01*
X62043Y-49035D02*
X61689Y-49389D01*
X61866Y-49035D02*
X61866Y-49389D01*
X61689Y-49212D02*
X62043Y-49212D01*
X61701Y-47464D02*
X62055Y-47818D01*
X62055Y-47464D02*
X61701Y-47818D01*
X61878Y-47464D02*
X61878Y-47818D01*
X61701Y-47641D02*
X62055Y-47641D01*
X62689Y-49035D02*
X63043Y-49389D01*
X63043Y-49035D02*
X62689Y-49389D01*
X62866Y-49035D02*
X62866Y-49389D01*
X62689Y-49212D02*
X63043Y-49212D01*
X62701Y-47464D02*
X63055Y-47818D01*
X63055Y-47464D02*
X62701Y-47818D01*
X62878Y-47464D02*
X62878Y-47818D01*
X62701Y-47641D02*
X63055Y-47641D01*
X63689Y-49035D02*
X64043Y-49389D01*
X64043Y-49035D02*
X63689Y-49389D01*
X63866Y-49035D02*
X63866Y-49389D01*
X63689Y-49212D02*
X64043Y-49212D01*
X63701Y-47484D02*
X64055Y-47838D01*
X64055Y-47484D02*
X63701Y-47838D01*
X63878Y-47484D02*
X63878Y-47838D01*
X63701Y-47661D02*
X64055Y-47661D01*
X64728Y-39394D02*
X65082Y-39748D01*
X65082Y-39394D02*
X64728Y-39748D01*
X64905Y-39394D02*
X64905Y-39748D01*
X64728Y-39571D02*
X65082Y-39571D01*
X64728Y-39827D02*
X65082Y-40181D01*
X65082Y-39827D02*
X64728Y-40181D01*
X64905Y-39827D02*
X64905Y-40181D01*
X64728Y-40004D02*
X65082Y-40004D01*
X64728Y-40260D02*
X65082Y-40614D01*
X65082Y-40260D02*
X64728Y-40614D01*
X64905Y-40260D02*
X64905Y-40614D01*
X64728Y-40437D02*
X65082Y-40437D01*
X64728Y-40693D02*
X65082Y-41047D01*
X65082Y-40693D02*
X64728Y-41047D01*
X64905Y-40693D02*
X64905Y-41047D01*
X64728Y-40870D02*
X65082Y-40870D01*
X49338Y-34846D02*
X49770Y-35278D01*
X49770Y-34846D02*
X49338Y-35278D01*
X49706Y-35214D02*
X49706Y-34909D01*
X49401Y-34909D01*
X49401Y-35214D01*
X49706Y-35214D01*
X49338Y-45238D02*
X49770Y-45670D01*
X49770Y-45238D02*
X49338Y-45670D01*
X49706Y-45606D02*
X49706Y-45301D01*
X49401Y-45301D01*
X49401Y-45606D01*
X49706Y-45606D01*
X46618Y-30629D02*
X47759Y-31771D01*
X47759Y-30629D02*
X46618Y-31771D01*
X47188Y-31771D02*
X47759Y-31200D01*
X47188Y-30629D01*
X46618Y-31200D01*
X47188Y-31771D01*
X46618Y-47952D02*
X47759Y-49094D01*
X47759Y-47952D02*
X46618Y-49094D01*
X47188Y-49094D02*
X47759Y-48523D01*
X47188Y-47952D01*
X46618Y-48523D01*
X47188Y-49094D01*
X57248Y-47952D02*
X58389Y-49094D01*
X58389Y-47952D02*
X57248Y-49094D01*
X57818Y-49094D02*
X58389Y-48523D01*
X57818Y-47952D01*
X57248Y-48523D01*
X57818Y-49094D01*
G54D13*
X42313Y-54298D02*
X42313Y-53117D01*
X42594Y-53117D01*
X42763Y-53173D01*
X42876Y-53286D01*
X42932Y-53398D01*
X42988Y-53623D01*
X42988Y-53792D01*
X42932Y-54017D01*
X42876Y-54130D01*
X42763Y-54242D01*
X42594Y-54298D01*
X42313Y-54298D01*
X43494Y-54298D02*
X43494Y-53511D01*
X43494Y-53736D02*
X43550Y-53623D01*
X43607Y-53567D01*
X43719Y-53511D01*
X43832Y-53511D01*
X44225Y-54298D02*
X44225Y-53511D01*
X44225Y-53117D02*
X44169Y-53173D01*
X44225Y-53230D01*
X44282Y-53173D01*
X44225Y-53117D01*
X44225Y-53230D01*
X44957Y-54298D02*
X44844Y-54242D01*
X44788Y-54130D01*
X44788Y-53117D01*
X45575Y-54298D02*
X45463Y-54242D01*
X45406Y-54130D01*
X45406Y-53117D01*
X46925Y-54298D02*
X46925Y-53117D01*
X47319Y-53961D01*
X47712Y-53117D01*
X47712Y-54298D01*
X48781Y-54298D02*
X48781Y-53680D01*
X48725Y-53567D01*
X48612Y-53511D01*
X48387Y-53511D01*
X48275Y-53567D01*
X48781Y-54242D02*
X48669Y-54298D01*
X48387Y-54298D01*
X48275Y-54242D01*
X48219Y-54130D01*
X48219Y-54017D01*
X48275Y-53905D01*
X48387Y-53848D01*
X48669Y-53848D01*
X48781Y-53792D01*
X49343Y-53511D02*
X49343Y-54692D01*
X49343Y-53567D02*
X49456Y-53511D01*
X49681Y-53511D01*
X49793Y-53567D01*
X49850Y-53623D01*
X49906Y-53736D01*
X49906Y-54073D01*
X49850Y-54186D01*
X49793Y-54242D01*
X49681Y-54298D01*
X49456Y-54298D01*
X49343Y-54242D01*
X50412Y-54186D02*
X50468Y-54242D01*
X50412Y-54298D01*
X50356Y-54242D01*
X50412Y-54186D01*
X50412Y-54298D01*
X50412Y-53567D02*
X50468Y-53623D01*
X50412Y-53680D01*
X50356Y-53623D01*
X50412Y-53567D01*
X50412Y-53680D01*
X41205Y-56281D02*
X41244Y-56320D01*
X41244Y-56281D02*
X41205Y-56320D01*
X42538Y-55597D02*
X42651Y-55597D01*
X42763Y-55654D01*
X42819Y-55710D01*
X42876Y-55822D01*
X42932Y-56047D01*
X42932Y-56329D01*
X42876Y-56554D01*
X42819Y-56666D01*
X42763Y-56722D01*
X42651Y-56779D01*
X42538Y-56779D01*
X42426Y-56722D01*
X42369Y-56666D01*
X42313Y-56554D01*
X42257Y-56329D01*
X42257Y-56047D01*
X42313Y-55822D01*
X42369Y-55710D01*
X42426Y-55654D01*
X42538Y-55597D01*
X43438Y-56666D02*
X43494Y-56722D01*
X43438Y-56779D01*
X43382Y-56722D01*
X43438Y-56666D01*
X43438Y-56779D01*
X44619Y-56779D02*
X43944Y-56779D01*
X44282Y-56779D02*
X44282Y-55597D01*
X44169Y-55766D01*
X44057Y-55879D01*
X43944Y-55935D01*
X45350Y-55597D02*
X45463Y-55597D01*
X45575Y-55654D01*
X45631Y-55710D01*
X45688Y-55822D01*
X45744Y-56047D01*
X45744Y-56329D01*
X45688Y-56554D01*
X45631Y-56666D01*
X45575Y-56722D01*
X45463Y-56779D01*
X45350Y-56779D01*
X45238Y-56722D01*
X45181Y-56666D01*
X45125Y-56554D01*
X45069Y-56329D01*
X45069Y-56047D01*
X45125Y-55822D01*
X45181Y-55710D01*
X45238Y-55654D01*
X45350Y-55597D01*
X46250Y-56779D02*
X46250Y-55991D01*
X46250Y-56104D02*
X46306Y-56047D01*
X46419Y-55991D01*
X46588Y-55991D01*
X46700Y-56047D01*
X46756Y-56160D01*
X46756Y-56779D01*
X46756Y-56160D02*
X46813Y-56047D01*
X46925Y-55991D01*
X47094Y-55991D01*
X47206Y-56047D01*
X47262Y-56160D01*
X47262Y-56779D01*
X47825Y-56779D02*
X47825Y-55991D01*
X47825Y-56104D02*
X47881Y-56047D01*
X47994Y-55991D01*
X48162Y-55991D01*
X48275Y-56047D01*
X48331Y-56160D01*
X48331Y-56779D01*
X48331Y-56160D02*
X48387Y-56047D01*
X48500Y-55991D01*
X48669Y-55991D01*
X48781Y-56047D01*
X48837Y-56160D01*
X48837Y-56779D01*
X51143Y-55541D02*
X50131Y-57060D01*
X52662Y-55597D02*
X52774Y-55597D01*
X52887Y-55654D01*
X52943Y-55710D01*
X52999Y-55822D01*
X53055Y-56047D01*
X53055Y-56329D01*
X52999Y-56554D01*
X52943Y-56666D01*
X52887Y-56722D01*
X52774Y-56779D01*
X52662Y-56779D01*
X52549Y-56722D01*
X52493Y-56666D01*
X52437Y-56554D01*
X52381Y-56329D01*
X52381Y-56047D01*
X52437Y-55822D01*
X52493Y-55710D01*
X52549Y-55654D01*
X52662Y-55597D01*
X53562Y-56666D02*
X53618Y-56722D01*
X53562Y-56779D01*
X53505Y-56722D01*
X53562Y-56666D01*
X53562Y-56779D01*
X54349Y-55597D02*
X54462Y-55597D01*
X54574Y-55654D01*
X54630Y-55710D01*
X54687Y-55822D01*
X54743Y-56047D01*
X54743Y-56329D01*
X54687Y-56554D01*
X54630Y-56666D01*
X54574Y-56722D01*
X54462Y-56779D01*
X54349Y-56779D01*
X54237Y-56722D01*
X54180Y-56666D01*
X54124Y-56554D01*
X54068Y-56329D01*
X54068Y-56047D01*
X54124Y-55822D01*
X54180Y-55710D01*
X54237Y-55654D01*
X54349Y-55597D01*
X55474Y-55597D02*
X55586Y-55597D01*
X55699Y-55654D01*
X55755Y-55710D01*
X55811Y-55822D01*
X55868Y-56047D01*
X55868Y-56329D01*
X55811Y-56554D01*
X55755Y-56666D01*
X55699Y-56722D01*
X55586Y-56779D01*
X55474Y-56779D01*
X55361Y-56722D01*
X55305Y-56666D01*
X55249Y-56554D01*
X55193Y-56329D01*
X55193Y-56047D01*
X55249Y-55822D01*
X55305Y-55710D01*
X55361Y-55654D01*
X55474Y-55597D01*
X56880Y-55991D02*
X56880Y-56779D01*
X56599Y-55541D02*
X56318Y-56385D01*
X57049Y-56385D01*
X57442Y-55597D02*
X57442Y-55822D01*
X57892Y-55597D02*
X57892Y-55822D01*
X59636Y-57229D02*
X59580Y-57172D01*
X59467Y-57004D01*
X59411Y-56891D01*
X59355Y-56722D01*
X59298Y-56441D01*
X59298Y-56216D01*
X59355Y-55935D01*
X59411Y-55766D01*
X59467Y-55654D01*
X59580Y-55485D01*
X59636Y-55429D01*
X60030Y-55710D02*
X60086Y-55654D01*
X60198Y-55597D01*
X60480Y-55597D01*
X60592Y-55654D01*
X60648Y-55710D01*
X60705Y-55822D01*
X60705Y-55935D01*
X60648Y-56104D01*
X59973Y-56779D01*
X60705Y-56779D01*
X62111Y-56779D02*
X62111Y-55597D01*
X62617Y-56779D02*
X62617Y-56160D01*
X62561Y-56047D01*
X62448Y-55991D01*
X62279Y-55991D01*
X62167Y-56047D01*
X62111Y-56104D01*
X63348Y-56779D02*
X63235Y-56722D01*
X63179Y-56666D01*
X63123Y-56554D01*
X63123Y-56216D01*
X63179Y-56104D01*
X63235Y-56047D01*
X63348Y-55991D01*
X63517Y-55991D01*
X63629Y-56047D01*
X63685Y-56104D01*
X63742Y-56216D01*
X63742Y-56554D01*
X63685Y-56666D01*
X63629Y-56722D01*
X63517Y-56779D01*
X63348Y-56779D01*
X64417Y-56779D02*
X64304Y-56722D01*
X64248Y-56610D01*
X64248Y-55597D01*
X65316Y-56722D02*
X65204Y-56779D01*
X64979Y-56779D01*
X64867Y-56722D01*
X64810Y-56610D01*
X64810Y-56160D01*
X64867Y-56047D01*
X64979Y-55991D01*
X65204Y-55991D01*
X65316Y-56047D01*
X65373Y-56160D01*
X65373Y-56272D01*
X64810Y-56385D01*
X65823Y-56722D02*
X65935Y-56779D01*
X66160Y-56779D01*
X66273Y-56722D01*
X66329Y-56610D01*
X66329Y-56554D01*
X66273Y-56441D01*
X66160Y-56385D01*
X65991Y-56385D01*
X65879Y-56329D01*
X65823Y-56216D01*
X65823Y-56160D01*
X65879Y-56047D01*
X65991Y-55991D01*
X66160Y-55991D01*
X66273Y-56047D01*
X66723Y-57229D02*
X66779Y-57172D01*
X66891Y-57004D01*
X66948Y-56891D01*
X67004Y-56722D01*
X67060Y-56441D01*
X67060Y-56216D01*
X67004Y-55935D01*
X66948Y-55766D01*
X66891Y-55654D01*
X66779Y-55485D01*
X66723Y-55429D01*
G54D12*
X41244Y-57860D02*
G75*
G03X41244Y-57860I-38J0D01*
G74*
G01*
G54D13*
X42538Y-57157D02*
X42651Y-57157D01*
X42763Y-57213D01*
X42819Y-57269D01*
X42876Y-57382D01*
X42932Y-57606D01*
X42932Y-57888D01*
X42876Y-58113D01*
X42819Y-58225D01*
X42763Y-58281D01*
X42651Y-58338D01*
X42538Y-58338D01*
X42426Y-58281D01*
X42369Y-58225D01*
X42313Y-58113D01*
X42257Y-57888D01*
X42257Y-57606D01*
X42313Y-57382D01*
X42369Y-57269D01*
X42426Y-57213D01*
X42538Y-57157D01*
X43438Y-58225D02*
X43494Y-58281D01*
X43438Y-58338D01*
X43382Y-58281D01*
X43438Y-58225D01*
X43438Y-58338D01*
X43944Y-57269D02*
X44000Y-57213D01*
X44113Y-57157D01*
X44394Y-57157D01*
X44507Y-57213D01*
X44563Y-57269D01*
X44619Y-57382D01*
X44619Y-57494D01*
X44563Y-57663D01*
X43888Y-58338D01*
X44619Y-58338D01*
X45350Y-57157D02*
X45463Y-57157D01*
X45575Y-57213D01*
X45631Y-57269D01*
X45688Y-57382D01*
X45744Y-57606D01*
X45744Y-57888D01*
X45688Y-58113D01*
X45631Y-58225D01*
X45575Y-58281D01*
X45463Y-58338D01*
X45350Y-58338D01*
X45238Y-58281D01*
X45181Y-58225D01*
X45125Y-58113D01*
X45069Y-57888D01*
X45069Y-57606D01*
X45125Y-57382D01*
X45181Y-57269D01*
X45238Y-57213D01*
X45350Y-57157D01*
X46250Y-58338D02*
X46250Y-57550D01*
X46250Y-57663D02*
X46306Y-57606D01*
X46419Y-57550D01*
X46588Y-57550D01*
X46700Y-57606D01*
X46756Y-57719D01*
X46756Y-58338D01*
X46756Y-57719D02*
X46813Y-57606D01*
X46925Y-57550D01*
X47094Y-57550D01*
X47206Y-57606D01*
X47262Y-57719D01*
X47262Y-58338D01*
X47825Y-58338D02*
X47825Y-57550D01*
X47825Y-57663D02*
X47881Y-57606D01*
X47994Y-57550D01*
X48162Y-57550D01*
X48275Y-57606D01*
X48331Y-57719D01*
X48331Y-58338D01*
X48331Y-57719D02*
X48387Y-57606D01*
X48500Y-57550D01*
X48669Y-57550D01*
X48781Y-57606D01*
X48837Y-57719D01*
X48837Y-58338D01*
X51143Y-57100D02*
X50131Y-58619D01*
X52662Y-57157D02*
X52774Y-57157D01*
X52887Y-57213D01*
X52943Y-57269D01*
X52999Y-57382D01*
X53055Y-57606D01*
X53055Y-57888D01*
X52999Y-58113D01*
X52943Y-58225D01*
X52887Y-58281D01*
X52774Y-58338D01*
X52662Y-58338D01*
X52549Y-58281D01*
X52493Y-58225D01*
X52437Y-58113D01*
X52381Y-57888D01*
X52381Y-57606D01*
X52437Y-57382D01*
X52493Y-57269D01*
X52549Y-57213D01*
X52662Y-57157D01*
X53562Y-58225D02*
X53618Y-58281D01*
X53562Y-58338D01*
X53505Y-58281D01*
X53562Y-58225D01*
X53562Y-58338D01*
X54349Y-57157D02*
X54462Y-57157D01*
X54574Y-57213D01*
X54630Y-57269D01*
X54687Y-57382D01*
X54743Y-57606D01*
X54743Y-57888D01*
X54687Y-58113D01*
X54630Y-58225D01*
X54574Y-58281D01*
X54462Y-58338D01*
X54349Y-58338D01*
X54237Y-58281D01*
X54180Y-58225D01*
X54124Y-58113D01*
X54068Y-57888D01*
X54068Y-57606D01*
X54124Y-57382D01*
X54180Y-57269D01*
X54237Y-57213D01*
X54349Y-57157D01*
X55474Y-57157D02*
X55586Y-57157D01*
X55699Y-57213D01*
X55755Y-57269D01*
X55811Y-57382D01*
X55868Y-57606D01*
X55868Y-57888D01*
X55811Y-58113D01*
X55755Y-58225D01*
X55699Y-58281D01*
X55586Y-58338D01*
X55474Y-58338D01*
X55361Y-58281D01*
X55305Y-58225D01*
X55249Y-58113D01*
X55193Y-57888D01*
X55193Y-57606D01*
X55249Y-57382D01*
X55305Y-57269D01*
X55361Y-57213D01*
X55474Y-57157D01*
X56543Y-57663D02*
X56430Y-57606D01*
X56374Y-57550D01*
X56318Y-57438D01*
X56318Y-57382D01*
X56374Y-57269D01*
X56430Y-57213D01*
X56543Y-57157D01*
X56768Y-57157D01*
X56880Y-57213D01*
X56936Y-57269D01*
X56992Y-57382D01*
X56992Y-57438D01*
X56936Y-57550D01*
X56880Y-57606D01*
X56768Y-57663D01*
X56543Y-57663D01*
X56430Y-57719D01*
X56374Y-57775D01*
X56318Y-57888D01*
X56318Y-58113D01*
X56374Y-58225D01*
X56430Y-58281D01*
X56543Y-58338D01*
X56768Y-58338D01*
X56880Y-58281D01*
X56936Y-58225D01*
X56992Y-58113D01*
X56992Y-57888D01*
X56936Y-57775D01*
X56880Y-57719D01*
X56768Y-57663D01*
X57442Y-57157D02*
X57442Y-57382D01*
X57892Y-57157D02*
X57892Y-57382D01*
X59636Y-58788D02*
X59580Y-58731D01*
X59467Y-58563D01*
X59411Y-58450D01*
X59355Y-58281D01*
X59298Y-58000D01*
X59298Y-57775D01*
X59355Y-57494D01*
X59411Y-57325D01*
X59467Y-57213D01*
X59580Y-57044D01*
X59636Y-56988D01*
X60592Y-57550D02*
X60592Y-58338D01*
X60311Y-57100D02*
X60030Y-57944D01*
X60761Y-57944D01*
X61773Y-57157D02*
X61211Y-57157D01*
X61154Y-57719D01*
X61211Y-57663D01*
X61323Y-57606D01*
X61604Y-57606D01*
X61717Y-57663D01*
X61773Y-57719D01*
X61829Y-57831D01*
X61829Y-58113D01*
X61773Y-58225D01*
X61717Y-58281D01*
X61604Y-58338D01*
X61323Y-58338D01*
X61211Y-58281D01*
X61154Y-58225D01*
X62504Y-57663D02*
X62392Y-57606D01*
X62336Y-57550D01*
X62279Y-57438D01*
X62279Y-57382D01*
X62336Y-57269D01*
X62392Y-57213D01*
X62504Y-57157D01*
X62729Y-57157D01*
X62842Y-57213D01*
X62898Y-57269D01*
X62954Y-57382D01*
X62954Y-57438D01*
X62898Y-57550D01*
X62842Y-57606D01*
X62729Y-57663D01*
X62504Y-57663D01*
X62392Y-57719D01*
X62336Y-57775D01*
X62279Y-57888D01*
X62279Y-58113D01*
X62336Y-58225D01*
X62392Y-58281D01*
X62504Y-58338D01*
X62729Y-58338D01*
X62842Y-58281D01*
X62898Y-58225D01*
X62954Y-58113D01*
X62954Y-57888D01*
X62898Y-57775D01*
X62842Y-57719D01*
X62729Y-57663D01*
X64360Y-58338D02*
X64360Y-57157D01*
X64867Y-58338D02*
X64867Y-57719D01*
X64810Y-57606D01*
X64698Y-57550D01*
X64529Y-57550D01*
X64417Y-57606D01*
X64360Y-57663D01*
X65598Y-58338D02*
X65485Y-58281D01*
X65429Y-58225D01*
X65373Y-58113D01*
X65373Y-57775D01*
X65429Y-57663D01*
X65485Y-57606D01*
X65598Y-57550D01*
X65766Y-57550D01*
X65879Y-57606D01*
X65935Y-57663D01*
X65991Y-57775D01*
X65991Y-58113D01*
X65935Y-58225D01*
X65879Y-58281D01*
X65766Y-58338D01*
X65598Y-58338D01*
X66666Y-58338D02*
X66554Y-58281D01*
X66498Y-58169D01*
X66498Y-57157D01*
X67566Y-58281D02*
X67454Y-58338D01*
X67229Y-58338D01*
X67116Y-58281D01*
X67060Y-58169D01*
X67060Y-57719D01*
X67116Y-57606D01*
X67229Y-57550D01*
X67454Y-57550D01*
X67566Y-57606D01*
X67622Y-57719D01*
X67622Y-57831D01*
X67060Y-57944D01*
X68072Y-58281D02*
X68185Y-58338D01*
X68410Y-58338D01*
X68522Y-58281D01*
X68579Y-58169D01*
X68579Y-58113D01*
X68522Y-58000D01*
X68410Y-57944D01*
X68241Y-57944D01*
X68129Y-57888D01*
X68072Y-57775D01*
X68072Y-57719D01*
X68129Y-57606D01*
X68241Y-57550D01*
X68410Y-57550D01*
X68522Y-57606D01*
X68972Y-58788D02*
X69028Y-58731D01*
X69141Y-58563D01*
X69197Y-58450D01*
X69253Y-58281D01*
X69310Y-58000D01*
X69310Y-57775D01*
X69253Y-57494D01*
X69197Y-57325D01*
X69141Y-57213D01*
X69028Y-57044D01*
X68972Y-56988D01*
X41205Y-59380D02*
X41205Y-59458D01*
X41166Y-59419D02*
X41244Y-59419D01*
X42538Y-58716D02*
X42651Y-58716D01*
X42763Y-58772D01*
X42819Y-58828D01*
X42876Y-58941D01*
X42932Y-59166D01*
X42932Y-59447D01*
X42876Y-59672D01*
X42819Y-59784D01*
X42763Y-59840D01*
X42651Y-59897D01*
X42538Y-59897D01*
X42426Y-59840D01*
X42369Y-59784D01*
X42313Y-59672D01*
X42257Y-59447D01*
X42257Y-59166D01*
X42313Y-58941D01*
X42369Y-58828D01*
X42426Y-58772D01*
X42538Y-58716D01*
X43438Y-59784D02*
X43494Y-59840D01*
X43438Y-59897D01*
X43382Y-59840D01*
X43438Y-59784D01*
X43438Y-59897D01*
X43944Y-58828D02*
X44000Y-58772D01*
X44113Y-58716D01*
X44394Y-58716D01*
X44507Y-58772D01*
X44563Y-58828D01*
X44619Y-58941D01*
X44619Y-59053D01*
X44563Y-59222D01*
X43888Y-59897D01*
X44619Y-59897D01*
X45350Y-58716D02*
X45463Y-58716D01*
X45575Y-58772D01*
X45631Y-58828D01*
X45688Y-58941D01*
X45744Y-59166D01*
X45744Y-59447D01*
X45688Y-59672D01*
X45631Y-59784D01*
X45575Y-59840D01*
X45463Y-59897D01*
X45350Y-59897D01*
X45238Y-59840D01*
X45181Y-59784D01*
X45125Y-59672D01*
X45069Y-59447D01*
X45069Y-59166D01*
X45125Y-58941D01*
X45181Y-58828D01*
X45238Y-58772D01*
X45350Y-58716D01*
X46250Y-59897D02*
X46250Y-59109D01*
X46250Y-59222D02*
X46306Y-59166D01*
X46419Y-59109D01*
X46588Y-59109D01*
X46700Y-59166D01*
X46756Y-59278D01*
X46756Y-59897D01*
X46756Y-59278D02*
X46813Y-59166D01*
X46925Y-59109D01*
X47094Y-59109D01*
X47206Y-59166D01*
X47262Y-59278D01*
X47262Y-59897D01*
X47825Y-59897D02*
X47825Y-59109D01*
X47825Y-59222D02*
X47881Y-59166D01*
X47994Y-59109D01*
X48162Y-59109D01*
X48275Y-59166D01*
X48331Y-59278D01*
X48331Y-59897D01*
X48331Y-59278D02*
X48387Y-59166D01*
X48500Y-59109D01*
X48669Y-59109D01*
X48781Y-59166D01*
X48837Y-59278D01*
X48837Y-59897D01*
X51143Y-58659D02*
X50131Y-60178D01*
X52662Y-58716D02*
X52774Y-58716D01*
X52887Y-58772D01*
X52943Y-58828D01*
X52999Y-58941D01*
X53055Y-59166D01*
X53055Y-59447D01*
X52999Y-59672D01*
X52943Y-59784D01*
X52887Y-59840D01*
X52774Y-59897D01*
X52662Y-59897D01*
X52549Y-59840D01*
X52493Y-59784D01*
X52437Y-59672D01*
X52381Y-59447D01*
X52381Y-59166D01*
X52437Y-58941D01*
X52493Y-58828D01*
X52549Y-58772D01*
X52662Y-58716D01*
X53562Y-59784D02*
X53618Y-59840D01*
X53562Y-59897D01*
X53505Y-59840D01*
X53562Y-59784D01*
X53562Y-59897D01*
X54349Y-58716D02*
X54462Y-58716D01*
X54574Y-58772D01*
X54630Y-58828D01*
X54687Y-58941D01*
X54743Y-59166D01*
X54743Y-59447D01*
X54687Y-59672D01*
X54630Y-59784D01*
X54574Y-59840D01*
X54462Y-59897D01*
X54349Y-59897D01*
X54237Y-59840D01*
X54180Y-59784D01*
X54124Y-59672D01*
X54068Y-59447D01*
X54068Y-59166D01*
X54124Y-58941D01*
X54180Y-58828D01*
X54237Y-58772D01*
X54349Y-58716D01*
X55474Y-58716D02*
X55586Y-58716D01*
X55699Y-58772D01*
X55755Y-58828D01*
X55811Y-58941D01*
X55868Y-59166D01*
X55868Y-59447D01*
X55811Y-59672D01*
X55755Y-59784D01*
X55699Y-59840D01*
X55586Y-59897D01*
X55474Y-59897D01*
X55361Y-59840D01*
X55305Y-59784D01*
X55249Y-59672D01*
X55193Y-59447D01*
X55193Y-59166D01*
X55249Y-58941D01*
X55305Y-58828D01*
X55361Y-58772D01*
X55474Y-58716D01*
X56543Y-59222D02*
X56430Y-59166D01*
X56374Y-59109D01*
X56318Y-58997D01*
X56318Y-58941D01*
X56374Y-58828D01*
X56430Y-58772D01*
X56543Y-58716D01*
X56768Y-58716D01*
X56880Y-58772D01*
X56936Y-58828D01*
X56992Y-58941D01*
X56992Y-58997D01*
X56936Y-59109D01*
X56880Y-59166D01*
X56768Y-59222D01*
X56543Y-59222D01*
X56430Y-59278D01*
X56374Y-59334D01*
X56318Y-59447D01*
X56318Y-59672D01*
X56374Y-59784D01*
X56430Y-59840D01*
X56543Y-59897D01*
X56768Y-59897D01*
X56880Y-59840D01*
X56936Y-59784D01*
X56992Y-59672D01*
X56992Y-59447D01*
X56936Y-59334D01*
X56880Y-59278D01*
X56768Y-59222D01*
X57442Y-58716D02*
X57442Y-58941D01*
X57892Y-58716D02*
X57892Y-58941D01*
X59636Y-60347D02*
X59580Y-60290D01*
X59467Y-60122D01*
X59411Y-60009D01*
X59355Y-59840D01*
X59298Y-59559D01*
X59298Y-59334D01*
X59355Y-59053D01*
X59411Y-58884D01*
X59467Y-58772D01*
X59580Y-58603D01*
X59636Y-58547D01*
X60705Y-59897D02*
X60030Y-59897D01*
X60367Y-59897D02*
X60367Y-58716D01*
X60255Y-58884D01*
X60142Y-58997D01*
X60030Y-59053D01*
X61154Y-58828D02*
X61211Y-58772D01*
X61323Y-58716D01*
X61604Y-58716D01*
X61717Y-58772D01*
X61773Y-58828D01*
X61829Y-58941D01*
X61829Y-59053D01*
X61773Y-59222D01*
X61098Y-59897D01*
X61829Y-59897D01*
X63235Y-59897D02*
X63235Y-58716D01*
X63742Y-59897D02*
X63742Y-59278D01*
X63685Y-59166D01*
X63573Y-59109D01*
X63404Y-59109D01*
X63292Y-59166D01*
X63235Y-59222D01*
X64473Y-59897D02*
X64360Y-59840D01*
X64304Y-59784D01*
X64248Y-59672D01*
X64248Y-59334D01*
X64304Y-59222D01*
X64360Y-59166D01*
X64473Y-59109D01*
X64642Y-59109D01*
X64754Y-59166D01*
X64810Y-59222D01*
X64867Y-59334D01*
X64867Y-59672D01*
X64810Y-59784D01*
X64754Y-59840D01*
X64642Y-59897D01*
X64473Y-59897D01*
X65541Y-59897D02*
X65429Y-59840D01*
X65373Y-59728D01*
X65373Y-58716D01*
X66441Y-59840D02*
X66329Y-59897D01*
X66104Y-59897D01*
X65991Y-59840D01*
X65935Y-59728D01*
X65935Y-59278D01*
X65991Y-59166D01*
X66104Y-59109D01*
X66329Y-59109D01*
X66441Y-59166D01*
X66498Y-59278D01*
X66498Y-59391D01*
X65935Y-59503D01*
X66948Y-59840D02*
X67060Y-59897D01*
X67285Y-59897D01*
X67397Y-59840D01*
X67454Y-59728D01*
X67454Y-59672D01*
X67397Y-59559D01*
X67285Y-59503D01*
X67116Y-59503D01*
X67004Y-59447D01*
X66948Y-59334D01*
X66948Y-59278D01*
X67004Y-59166D01*
X67116Y-59109D01*
X67285Y-59109D01*
X67397Y-59166D01*
X67847Y-60347D02*
X67904Y-60290D01*
X68016Y-60122D01*
X68072Y-60009D01*
X68129Y-59840D01*
X68185Y-59559D01*
X68185Y-59334D01*
X68129Y-59053D01*
X68072Y-58884D01*
X68016Y-58772D01*
X67904Y-58603D01*
X67847Y-58547D01*
G54D12*
X41233Y-61006D02*
X41233Y-60950D01*
X41177Y-60950D01*
X41177Y-61006D01*
X41233Y-61006D01*
G54D13*
X42538Y-60275D02*
X42651Y-60275D01*
X42763Y-60331D01*
X42819Y-60387D01*
X42876Y-60500D01*
X42932Y-60725D01*
X42932Y-61006D01*
X42876Y-61231D01*
X42819Y-61343D01*
X42763Y-61400D01*
X42651Y-61456D01*
X42538Y-61456D01*
X42426Y-61400D01*
X42369Y-61343D01*
X42313Y-61231D01*
X42257Y-61006D01*
X42257Y-60725D01*
X42313Y-60500D01*
X42369Y-60387D01*
X42426Y-60331D01*
X42538Y-60275D01*
X43438Y-61343D02*
X43494Y-61400D01*
X43438Y-61456D01*
X43382Y-61400D01*
X43438Y-61343D01*
X43438Y-61456D01*
X43944Y-60387D02*
X44000Y-60331D01*
X44113Y-60275D01*
X44394Y-60275D01*
X44507Y-60331D01*
X44563Y-60387D01*
X44619Y-60500D01*
X44619Y-60612D01*
X44563Y-60781D01*
X43888Y-61456D01*
X44619Y-61456D01*
X45350Y-60275D02*
X45463Y-60275D01*
X45575Y-60331D01*
X45631Y-60387D01*
X45688Y-60500D01*
X45744Y-60725D01*
X45744Y-61006D01*
X45688Y-61231D01*
X45631Y-61343D01*
X45575Y-61400D01*
X45463Y-61456D01*
X45350Y-61456D01*
X45238Y-61400D01*
X45181Y-61343D01*
X45125Y-61231D01*
X45069Y-61006D01*
X45069Y-60725D01*
X45125Y-60500D01*
X45181Y-60387D01*
X45238Y-60331D01*
X45350Y-60275D01*
X46250Y-61456D02*
X46250Y-60668D01*
X46250Y-60781D02*
X46306Y-60725D01*
X46419Y-60668D01*
X46588Y-60668D01*
X46700Y-60725D01*
X46756Y-60837D01*
X46756Y-61456D01*
X46756Y-60837D02*
X46813Y-60725D01*
X46925Y-60668D01*
X47094Y-60668D01*
X47206Y-60725D01*
X47262Y-60837D01*
X47262Y-61456D01*
X47825Y-61456D02*
X47825Y-60668D01*
X47825Y-60781D02*
X47881Y-60725D01*
X47994Y-60668D01*
X48162Y-60668D01*
X48275Y-60725D01*
X48331Y-60837D01*
X48331Y-61456D01*
X48331Y-60837D02*
X48387Y-60725D01*
X48500Y-60668D01*
X48669Y-60668D01*
X48781Y-60725D01*
X48837Y-60837D01*
X48837Y-61456D01*
X51143Y-60218D02*
X50131Y-61737D01*
X52662Y-60275D02*
X52774Y-60275D01*
X52887Y-60331D01*
X52943Y-60387D01*
X52999Y-60500D01*
X53055Y-60725D01*
X53055Y-61006D01*
X52999Y-61231D01*
X52943Y-61343D01*
X52887Y-61400D01*
X52774Y-61456D01*
X52662Y-61456D01*
X52549Y-61400D01*
X52493Y-61343D01*
X52437Y-61231D01*
X52381Y-61006D01*
X52381Y-60725D01*
X52437Y-60500D01*
X52493Y-60387D01*
X52549Y-60331D01*
X52662Y-60275D01*
X53562Y-61343D02*
X53618Y-61400D01*
X53562Y-61456D01*
X53505Y-61400D01*
X53562Y-61343D01*
X53562Y-61456D01*
X54349Y-60275D02*
X54462Y-60275D01*
X54574Y-60331D01*
X54630Y-60387D01*
X54687Y-60500D01*
X54743Y-60725D01*
X54743Y-61006D01*
X54687Y-61231D01*
X54630Y-61343D01*
X54574Y-61400D01*
X54462Y-61456D01*
X54349Y-61456D01*
X54237Y-61400D01*
X54180Y-61343D01*
X54124Y-61231D01*
X54068Y-61006D01*
X54068Y-60725D01*
X54124Y-60500D01*
X54180Y-60387D01*
X54237Y-60331D01*
X54349Y-60275D01*
X55474Y-60275D02*
X55586Y-60275D01*
X55699Y-60331D01*
X55755Y-60387D01*
X55811Y-60500D01*
X55868Y-60725D01*
X55868Y-61006D01*
X55811Y-61231D01*
X55755Y-61343D01*
X55699Y-61400D01*
X55586Y-61456D01*
X55474Y-61456D01*
X55361Y-61400D01*
X55305Y-61343D01*
X55249Y-61231D01*
X55193Y-61006D01*
X55193Y-60725D01*
X55249Y-60500D01*
X55305Y-60387D01*
X55361Y-60331D01*
X55474Y-60275D01*
X56543Y-60781D02*
X56430Y-60725D01*
X56374Y-60668D01*
X56318Y-60556D01*
X56318Y-60500D01*
X56374Y-60387D01*
X56430Y-60331D01*
X56543Y-60275D01*
X56768Y-60275D01*
X56880Y-60331D01*
X56936Y-60387D01*
X56992Y-60500D01*
X56992Y-60556D01*
X56936Y-60668D01*
X56880Y-60725D01*
X56768Y-60781D01*
X56543Y-60781D01*
X56430Y-60837D01*
X56374Y-60893D01*
X56318Y-61006D01*
X56318Y-61231D01*
X56374Y-61343D01*
X56430Y-61400D01*
X56543Y-61456D01*
X56768Y-61456D01*
X56880Y-61400D01*
X56936Y-61343D01*
X56992Y-61231D01*
X56992Y-61006D01*
X56936Y-60893D01*
X56880Y-60837D01*
X56768Y-60781D01*
X57442Y-60275D02*
X57442Y-60500D01*
X57892Y-60275D02*
X57892Y-60500D01*
X59636Y-61906D02*
X59580Y-61849D01*
X59467Y-61681D01*
X59411Y-61568D01*
X59355Y-61400D01*
X59298Y-61118D01*
X59298Y-60893D01*
X59355Y-60612D01*
X59411Y-60443D01*
X59467Y-60331D01*
X59580Y-60162D01*
X59636Y-60106D01*
X60592Y-60668D02*
X60592Y-61456D01*
X60311Y-60218D02*
X60030Y-61062D01*
X60761Y-61062D01*
X61436Y-60275D02*
X61548Y-60275D01*
X61661Y-60331D01*
X61717Y-60387D01*
X61773Y-60500D01*
X61829Y-60725D01*
X61829Y-61006D01*
X61773Y-61231D01*
X61717Y-61343D01*
X61661Y-61400D01*
X61548Y-61456D01*
X61436Y-61456D01*
X61323Y-61400D01*
X61267Y-61343D01*
X61211Y-61231D01*
X61154Y-61006D01*
X61154Y-60725D01*
X61211Y-60500D01*
X61267Y-60387D01*
X61323Y-60331D01*
X61436Y-60275D01*
X63235Y-61456D02*
X63235Y-60275D01*
X63742Y-61456D02*
X63742Y-60837D01*
X63685Y-60725D01*
X63573Y-60668D01*
X63404Y-60668D01*
X63292Y-60725D01*
X63235Y-60781D01*
X64473Y-61456D02*
X64360Y-61400D01*
X64304Y-61343D01*
X64248Y-61231D01*
X64248Y-60893D01*
X64304Y-60781D01*
X64360Y-60725D01*
X64473Y-60668D01*
X64642Y-60668D01*
X64754Y-60725D01*
X64810Y-60781D01*
X64867Y-60893D01*
X64867Y-61231D01*
X64810Y-61343D01*
X64754Y-61400D01*
X64642Y-61456D01*
X64473Y-61456D01*
X65541Y-61456D02*
X65429Y-61400D01*
X65373Y-61287D01*
X65373Y-60275D01*
X66441Y-61400D02*
X66329Y-61456D01*
X66104Y-61456D01*
X65991Y-61400D01*
X65935Y-61287D01*
X65935Y-60837D01*
X65991Y-60725D01*
X66104Y-60668D01*
X66329Y-60668D01*
X66441Y-60725D01*
X66498Y-60837D01*
X66498Y-60950D01*
X65935Y-61062D01*
X66948Y-61400D02*
X67060Y-61456D01*
X67285Y-61456D01*
X67397Y-61400D01*
X67454Y-61287D01*
X67454Y-61231D01*
X67397Y-61118D01*
X67285Y-61062D01*
X67116Y-61062D01*
X67004Y-61006D01*
X66948Y-60893D01*
X66948Y-60837D01*
X67004Y-60725D01*
X67116Y-60668D01*
X67285Y-60668D01*
X67397Y-60725D01*
X67847Y-61906D02*
X67904Y-61849D01*
X68016Y-61681D01*
X68072Y-61568D01*
X68129Y-61400D01*
X68185Y-61118D01*
X68185Y-60893D01*
X68129Y-60612D01*
X68072Y-60443D01*
X68016Y-60331D01*
X67904Y-60162D01*
X67847Y-60106D01*
G54D12*
X41186Y-62595D02*
X41244Y-62537D01*
X41186Y-62478D01*
X41127Y-62537D01*
X41186Y-62595D01*
G54D13*
X42538Y-61834D02*
X42651Y-61834D01*
X42763Y-61890D01*
X42819Y-61946D01*
X42876Y-62059D01*
X42932Y-62284D01*
X42932Y-62565D01*
X42876Y-62790D01*
X42819Y-62902D01*
X42763Y-62959D01*
X42651Y-63015D01*
X42538Y-63015D01*
X42426Y-62959D01*
X42369Y-62902D01*
X42313Y-62790D01*
X42257Y-62565D01*
X42257Y-62284D01*
X42313Y-62059D01*
X42369Y-61946D01*
X42426Y-61890D01*
X42538Y-61834D01*
X43438Y-62902D02*
X43494Y-62959D01*
X43438Y-63015D01*
X43382Y-62959D01*
X43438Y-62902D01*
X43438Y-63015D01*
X43888Y-61834D02*
X44619Y-61834D01*
X44225Y-62284D01*
X44394Y-62284D01*
X44507Y-62340D01*
X44563Y-62396D01*
X44619Y-62509D01*
X44619Y-62790D01*
X44563Y-62902D01*
X44507Y-62959D01*
X44394Y-63015D01*
X44057Y-63015D01*
X43944Y-62959D01*
X43888Y-62902D01*
X45350Y-61834D02*
X45463Y-61834D01*
X45575Y-61890D01*
X45631Y-61946D01*
X45688Y-62059D01*
X45744Y-62284D01*
X45744Y-62565D01*
X45688Y-62790D01*
X45631Y-62902D01*
X45575Y-62959D01*
X45463Y-63015D01*
X45350Y-63015D01*
X45238Y-62959D01*
X45181Y-62902D01*
X45125Y-62790D01*
X45069Y-62565D01*
X45069Y-62284D01*
X45125Y-62059D01*
X45181Y-61946D01*
X45238Y-61890D01*
X45350Y-61834D01*
X46250Y-63015D02*
X46250Y-62227D01*
X46250Y-62340D02*
X46306Y-62284D01*
X46419Y-62227D01*
X46588Y-62227D01*
X46700Y-62284D01*
X46756Y-62396D01*
X46756Y-63015D01*
X46756Y-62396D02*
X46813Y-62284D01*
X46925Y-62227D01*
X47094Y-62227D01*
X47206Y-62284D01*
X47262Y-62396D01*
X47262Y-63015D01*
X47825Y-63015D02*
X47825Y-62227D01*
X47825Y-62340D02*
X47881Y-62284D01*
X47994Y-62227D01*
X48162Y-62227D01*
X48275Y-62284D01*
X48331Y-62396D01*
X48331Y-63015D01*
X48331Y-62396D02*
X48387Y-62284D01*
X48500Y-62227D01*
X48669Y-62227D01*
X48781Y-62284D01*
X48837Y-62396D01*
X48837Y-63015D01*
X51143Y-61777D02*
X50131Y-63296D01*
X52662Y-61834D02*
X52774Y-61834D01*
X52887Y-61890D01*
X52943Y-61946D01*
X52999Y-62059D01*
X53055Y-62284D01*
X53055Y-62565D01*
X52999Y-62790D01*
X52943Y-62902D01*
X52887Y-62959D01*
X52774Y-63015D01*
X52662Y-63015D01*
X52549Y-62959D01*
X52493Y-62902D01*
X52437Y-62790D01*
X52381Y-62565D01*
X52381Y-62284D01*
X52437Y-62059D01*
X52493Y-61946D01*
X52549Y-61890D01*
X52662Y-61834D01*
X53562Y-62902D02*
X53618Y-62959D01*
X53562Y-63015D01*
X53505Y-62959D01*
X53562Y-62902D01*
X53562Y-63015D01*
X54349Y-61834D02*
X54462Y-61834D01*
X54574Y-61890D01*
X54630Y-61946D01*
X54687Y-62059D01*
X54743Y-62284D01*
X54743Y-62565D01*
X54687Y-62790D01*
X54630Y-62902D01*
X54574Y-62959D01*
X54462Y-63015D01*
X54349Y-63015D01*
X54237Y-62959D01*
X54180Y-62902D01*
X54124Y-62790D01*
X54068Y-62565D01*
X54068Y-62284D01*
X54124Y-62059D01*
X54180Y-61946D01*
X54237Y-61890D01*
X54349Y-61834D01*
X55868Y-63015D02*
X55193Y-63015D01*
X55530Y-63015D02*
X55530Y-61834D01*
X55418Y-62002D01*
X55305Y-62115D01*
X55193Y-62171D01*
X56318Y-61946D02*
X56374Y-61890D01*
X56486Y-61834D01*
X56768Y-61834D01*
X56880Y-61890D01*
X56936Y-61946D01*
X56992Y-62059D01*
X56992Y-62171D01*
X56936Y-62340D01*
X56261Y-63015D01*
X56992Y-63015D01*
X57442Y-61834D02*
X57442Y-62059D01*
X57892Y-61834D02*
X57892Y-62059D01*
X59636Y-63465D02*
X59580Y-63409D01*
X59467Y-63240D01*
X59411Y-63127D01*
X59355Y-62959D01*
X59298Y-62677D01*
X59298Y-62452D01*
X59355Y-62171D01*
X59411Y-62002D01*
X59467Y-61890D01*
X59580Y-61721D01*
X59636Y-61665D01*
X59973Y-61834D02*
X60761Y-61834D01*
X60255Y-63015D01*
X61098Y-61834D02*
X61829Y-61834D01*
X61436Y-62284D01*
X61604Y-62284D01*
X61717Y-62340D01*
X61773Y-62396D01*
X61829Y-62509D01*
X61829Y-62790D01*
X61773Y-62902D01*
X61717Y-62959D01*
X61604Y-63015D01*
X61267Y-63015D01*
X61154Y-62959D01*
X61098Y-62902D01*
X63235Y-63015D02*
X63235Y-61834D01*
X63742Y-63015D02*
X63742Y-62396D01*
X63685Y-62284D01*
X63573Y-62227D01*
X63404Y-62227D01*
X63292Y-62284D01*
X63235Y-62340D01*
X64473Y-63015D02*
X64360Y-62959D01*
X64304Y-62902D01*
X64248Y-62790D01*
X64248Y-62452D01*
X64304Y-62340D01*
X64360Y-62284D01*
X64473Y-62227D01*
X64642Y-62227D01*
X64754Y-62284D01*
X64810Y-62340D01*
X64867Y-62452D01*
X64867Y-62790D01*
X64810Y-62902D01*
X64754Y-62959D01*
X64642Y-63015D01*
X64473Y-63015D01*
X65541Y-63015D02*
X65429Y-62959D01*
X65373Y-62846D01*
X65373Y-61834D01*
X66441Y-62959D02*
X66329Y-63015D01*
X66104Y-63015D01*
X65991Y-62959D01*
X65935Y-62846D01*
X65935Y-62396D01*
X65991Y-62284D01*
X66104Y-62227D01*
X66329Y-62227D01*
X66441Y-62284D01*
X66498Y-62396D01*
X66498Y-62509D01*
X65935Y-62621D01*
X66948Y-62959D02*
X67060Y-63015D01*
X67285Y-63015D01*
X67397Y-62959D01*
X67454Y-62846D01*
X67454Y-62790D01*
X67397Y-62677D01*
X67285Y-62621D01*
X67116Y-62621D01*
X67004Y-62565D01*
X66948Y-62452D01*
X66948Y-62396D01*
X67004Y-62284D01*
X67116Y-62227D01*
X67285Y-62227D01*
X67397Y-62284D01*
X67847Y-63465D02*
X67904Y-63409D01*
X68016Y-63240D01*
X68072Y-63127D01*
X68129Y-62959D01*
X68185Y-62677D01*
X68185Y-62452D01*
X68129Y-62171D01*
X68072Y-62002D01*
X68016Y-61890D01*
X67904Y-61721D01*
X67847Y-61665D01*
X41126Y-64037D02*
X41244Y-64155D01*
X41244Y-64037D02*
X41126Y-64155D01*
G54D12*
X41244Y-64096D02*
G75*
G03X41244Y-64096I-59J0D01*
G74*
G01*
G54D13*
X42538Y-63393D02*
X42651Y-63393D01*
X42763Y-63449D01*
X42819Y-63505D01*
X42876Y-63618D01*
X42932Y-63843D01*
X42932Y-64124D01*
X42876Y-64349D01*
X42819Y-64461D01*
X42763Y-64518D01*
X42651Y-64574D01*
X42538Y-64574D01*
X42426Y-64518D01*
X42369Y-64461D01*
X42313Y-64349D01*
X42257Y-64124D01*
X42257Y-63843D01*
X42313Y-63618D01*
X42369Y-63505D01*
X42426Y-63449D01*
X42538Y-63393D01*
X43438Y-64461D02*
X43494Y-64518D01*
X43438Y-64574D01*
X43382Y-64518D01*
X43438Y-64461D01*
X43438Y-64574D01*
X43888Y-63393D02*
X44619Y-63393D01*
X44225Y-63843D01*
X44394Y-63843D01*
X44507Y-63899D01*
X44563Y-63955D01*
X44619Y-64068D01*
X44619Y-64349D01*
X44563Y-64461D01*
X44507Y-64518D01*
X44394Y-64574D01*
X44057Y-64574D01*
X43944Y-64518D01*
X43888Y-64461D01*
X45350Y-63393D02*
X45463Y-63393D01*
X45575Y-63449D01*
X45631Y-63505D01*
X45688Y-63618D01*
X45744Y-63843D01*
X45744Y-64124D01*
X45688Y-64349D01*
X45631Y-64461D01*
X45575Y-64518D01*
X45463Y-64574D01*
X45350Y-64574D01*
X45238Y-64518D01*
X45181Y-64461D01*
X45125Y-64349D01*
X45069Y-64124D01*
X45069Y-63843D01*
X45125Y-63618D01*
X45181Y-63505D01*
X45238Y-63449D01*
X45350Y-63393D01*
X46250Y-64574D02*
X46250Y-63786D01*
X46250Y-63899D02*
X46306Y-63843D01*
X46419Y-63786D01*
X46588Y-63786D01*
X46700Y-63843D01*
X46756Y-63955D01*
X46756Y-64574D01*
X46756Y-63955D02*
X46813Y-63843D01*
X46925Y-63786D01*
X47094Y-63786D01*
X47206Y-63843D01*
X47262Y-63955D01*
X47262Y-64574D01*
X47825Y-64574D02*
X47825Y-63786D01*
X47825Y-63899D02*
X47881Y-63843D01*
X47994Y-63786D01*
X48162Y-63786D01*
X48275Y-63843D01*
X48331Y-63955D01*
X48331Y-64574D01*
X48331Y-63955D02*
X48387Y-63843D01*
X48500Y-63786D01*
X48669Y-63786D01*
X48781Y-63843D01*
X48837Y-63955D01*
X48837Y-64574D01*
X51143Y-63337D02*
X50131Y-64855D01*
X52662Y-63393D02*
X52774Y-63393D01*
X52887Y-63449D01*
X52943Y-63505D01*
X52999Y-63618D01*
X53055Y-63843D01*
X53055Y-64124D01*
X52999Y-64349D01*
X52943Y-64461D01*
X52887Y-64518D01*
X52774Y-64574D01*
X52662Y-64574D01*
X52549Y-64518D01*
X52493Y-64461D01*
X52437Y-64349D01*
X52381Y-64124D01*
X52381Y-63843D01*
X52437Y-63618D01*
X52493Y-63505D01*
X52549Y-63449D01*
X52662Y-63393D01*
X53562Y-64461D02*
X53618Y-64518D01*
X53562Y-64574D01*
X53505Y-64518D01*
X53562Y-64461D01*
X53562Y-64574D01*
X54349Y-63393D02*
X54462Y-63393D01*
X54574Y-63449D01*
X54630Y-63505D01*
X54687Y-63618D01*
X54743Y-63843D01*
X54743Y-64124D01*
X54687Y-64349D01*
X54630Y-64461D01*
X54574Y-64518D01*
X54462Y-64574D01*
X54349Y-64574D01*
X54237Y-64518D01*
X54180Y-64461D01*
X54124Y-64349D01*
X54068Y-64124D01*
X54068Y-63843D01*
X54124Y-63618D01*
X54180Y-63505D01*
X54237Y-63449D01*
X54349Y-63393D01*
X55868Y-64574D02*
X55193Y-64574D01*
X55530Y-64574D02*
X55530Y-63393D01*
X55418Y-63561D01*
X55305Y-63674D01*
X55193Y-63730D01*
X56318Y-63505D02*
X56374Y-63449D01*
X56486Y-63393D01*
X56768Y-63393D01*
X56880Y-63449D01*
X56936Y-63505D01*
X56992Y-63618D01*
X56992Y-63730D01*
X56936Y-63899D01*
X56261Y-64574D01*
X56992Y-64574D01*
X57442Y-63393D02*
X57442Y-63618D01*
X57892Y-63393D02*
X57892Y-63618D01*
X59636Y-65024D02*
X59580Y-64968D01*
X59467Y-64799D01*
X59411Y-64686D01*
X59355Y-64518D01*
X59298Y-64236D01*
X59298Y-64011D01*
X59355Y-63730D01*
X59411Y-63561D01*
X59467Y-63449D01*
X59580Y-63280D01*
X59636Y-63224D01*
X60030Y-63505D02*
X60086Y-63449D01*
X60198Y-63393D01*
X60480Y-63393D01*
X60592Y-63449D01*
X60648Y-63505D01*
X60705Y-63618D01*
X60705Y-63730D01*
X60648Y-63899D01*
X59973Y-64574D01*
X60705Y-64574D01*
X62111Y-64574D02*
X62111Y-63393D01*
X62617Y-64574D02*
X62617Y-63955D01*
X62561Y-63843D01*
X62448Y-63786D01*
X62279Y-63786D01*
X62167Y-63843D01*
X62111Y-63899D01*
X63348Y-64574D02*
X63235Y-64518D01*
X63179Y-64461D01*
X63123Y-64349D01*
X63123Y-64011D01*
X63179Y-63899D01*
X63235Y-63843D01*
X63348Y-63786D01*
X63517Y-63786D01*
X63629Y-63843D01*
X63685Y-63899D01*
X63742Y-64011D01*
X63742Y-64349D01*
X63685Y-64461D01*
X63629Y-64518D01*
X63517Y-64574D01*
X63348Y-64574D01*
X64417Y-64574D02*
X64304Y-64518D01*
X64248Y-64405D01*
X64248Y-63393D01*
X65316Y-64518D02*
X65204Y-64574D01*
X64979Y-64574D01*
X64867Y-64518D01*
X64810Y-64405D01*
X64810Y-63955D01*
X64867Y-63843D01*
X64979Y-63786D01*
X65204Y-63786D01*
X65316Y-63843D01*
X65373Y-63955D01*
X65373Y-64068D01*
X64810Y-64180D01*
X65823Y-64518D02*
X65935Y-64574D01*
X66160Y-64574D01*
X66273Y-64518D01*
X66329Y-64405D01*
X66329Y-64349D01*
X66273Y-64236D01*
X66160Y-64180D01*
X65991Y-64180D01*
X65879Y-64124D01*
X65823Y-64011D01*
X65823Y-63955D01*
X65879Y-63843D01*
X65991Y-63786D01*
X66160Y-63786D01*
X66273Y-63843D01*
X66723Y-65024D02*
X66779Y-64968D01*
X66891Y-64799D01*
X66948Y-64686D01*
X67004Y-64518D01*
X67060Y-64236D01*
X67060Y-64011D01*
X67004Y-63730D01*
X66948Y-63561D01*
X66891Y-63449D01*
X66779Y-63280D01*
X66723Y-63224D01*
X40890Y-65478D02*
X41244Y-65832D01*
X41244Y-65478D02*
X40890Y-65832D01*
X41067Y-65478D02*
X41067Y-65832D01*
X40890Y-65655D02*
X41244Y-65655D01*
X42538Y-64952D02*
X42651Y-64952D01*
X42763Y-65008D01*
X42819Y-65064D01*
X42876Y-65177D01*
X42932Y-65402D01*
X42932Y-65683D01*
X42876Y-65908D01*
X42819Y-66020D01*
X42763Y-66077D01*
X42651Y-66133D01*
X42538Y-66133D01*
X42426Y-66077D01*
X42369Y-66020D01*
X42313Y-65908D01*
X42257Y-65683D01*
X42257Y-65402D01*
X42313Y-65177D01*
X42369Y-65064D01*
X42426Y-65008D01*
X42538Y-64952D01*
X43438Y-66020D02*
X43494Y-66077D01*
X43438Y-66133D01*
X43382Y-66077D01*
X43438Y-66020D01*
X43438Y-66133D01*
X44057Y-66133D02*
X44282Y-66133D01*
X44394Y-66077D01*
X44450Y-66020D01*
X44563Y-65852D01*
X44619Y-65627D01*
X44619Y-65177D01*
X44563Y-65064D01*
X44507Y-65008D01*
X44394Y-64952D01*
X44169Y-64952D01*
X44057Y-65008D01*
X44000Y-65064D01*
X43944Y-65177D01*
X43944Y-65458D01*
X44000Y-65570D01*
X44057Y-65627D01*
X44169Y-65683D01*
X44394Y-65683D01*
X44507Y-65627D01*
X44563Y-65570D01*
X44619Y-65458D01*
X45350Y-64952D02*
X45463Y-64952D01*
X45575Y-65008D01*
X45631Y-65064D01*
X45688Y-65177D01*
X45744Y-65402D01*
X45744Y-65683D01*
X45688Y-65908D01*
X45631Y-66020D01*
X45575Y-66077D01*
X45463Y-66133D01*
X45350Y-66133D01*
X45238Y-66077D01*
X45181Y-66020D01*
X45125Y-65908D01*
X45069Y-65683D01*
X45069Y-65402D01*
X45125Y-65177D01*
X45181Y-65064D01*
X45238Y-65008D01*
X45350Y-64952D01*
X46250Y-66133D02*
X46250Y-65346D01*
X46250Y-65458D02*
X46306Y-65402D01*
X46419Y-65346D01*
X46588Y-65346D01*
X46700Y-65402D01*
X46756Y-65514D01*
X46756Y-66133D01*
X46756Y-65514D02*
X46813Y-65402D01*
X46925Y-65346D01*
X47094Y-65346D01*
X47206Y-65402D01*
X47262Y-65514D01*
X47262Y-66133D01*
X47825Y-66133D02*
X47825Y-65346D01*
X47825Y-65458D02*
X47881Y-65402D01*
X47994Y-65346D01*
X48162Y-65346D01*
X48275Y-65402D01*
X48331Y-65514D01*
X48331Y-66133D01*
X48331Y-65514D02*
X48387Y-65402D01*
X48500Y-65346D01*
X48669Y-65346D01*
X48781Y-65402D01*
X48837Y-65514D01*
X48837Y-66133D01*
X51143Y-64896D02*
X50131Y-66414D01*
X52662Y-64952D02*
X52774Y-64952D01*
X52887Y-65008D01*
X52943Y-65064D01*
X52999Y-65177D01*
X53055Y-65402D01*
X53055Y-65683D01*
X52999Y-65908D01*
X52943Y-66020D01*
X52887Y-66077D01*
X52774Y-66133D01*
X52662Y-66133D01*
X52549Y-66077D01*
X52493Y-66020D01*
X52437Y-65908D01*
X52381Y-65683D01*
X52381Y-65402D01*
X52437Y-65177D01*
X52493Y-65064D01*
X52549Y-65008D01*
X52662Y-64952D01*
X53562Y-66020D02*
X53618Y-66077D01*
X53562Y-66133D01*
X53505Y-66077D01*
X53562Y-66020D01*
X53562Y-66133D01*
X54349Y-64952D02*
X54462Y-64952D01*
X54574Y-65008D01*
X54630Y-65064D01*
X54687Y-65177D01*
X54743Y-65402D01*
X54743Y-65683D01*
X54687Y-65908D01*
X54630Y-66020D01*
X54574Y-66077D01*
X54462Y-66133D01*
X54349Y-66133D01*
X54237Y-66077D01*
X54180Y-66020D01*
X54124Y-65908D01*
X54068Y-65683D01*
X54068Y-65402D01*
X54124Y-65177D01*
X54180Y-65064D01*
X54237Y-65008D01*
X54349Y-64952D01*
X55136Y-64952D02*
X55868Y-64952D01*
X55474Y-65402D01*
X55643Y-65402D01*
X55755Y-65458D01*
X55811Y-65514D01*
X55868Y-65627D01*
X55868Y-65908D01*
X55811Y-66020D01*
X55755Y-66077D01*
X55643Y-66133D01*
X55305Y-66133D01*
X55193Y-66077D01*
X55136Y-66020D01*
X56936Y-64952D02*
X56374Y-64952D01*
X56318Y-65514D01*
X56374Y-65458D01*
X56486Y-65402D01*
X56768Y-65402D01*
X56880Y-65458D01*
X56936Y-65514D01*
X56992Y-65627D01*
X56992Y-65908D01*
X56936Y-66020D01*
X56880Y-66077D01*
X56768Y-66133D01*
X56486Y-66133D01*
X56374Y-66077D01*
X56318Y-66020D01*
X57442Y-64952D02*
X57442Y-65177D01*
X57892Y-64952D02*
X57892Y-65177D01*
X59636Y-66583D02*
X59580Y-66527D01*
X59467Y-66358D01*
X59411Y-66245D01*
X59355Y-66077D01*
X59298Y-65795D01*
X59298Y-65570D01*
X59355Y-65289D01*
X59411Y-65121D01*
X59467Y-65008D01*
X59580Y-64839D01*
X59636Y-64783D01*
X59973Y-64952D02*
X60705Y-64952D01*
X60311Y-65402D01*
X60480Y-65402D01*
X60592Y-65458D01*
X60648Y-65514D01*
X60705Y-65627D01*
X60705Y-65908D01*
X60648Y-66020D01*
X60592Y-66077D01*
X60480Y-66133D01*
X60142Y-66133D01*
X60030Y-66077D01*
X59973Y-66020D01*
X61717Y-64952D02*
X61492Y-64952D01*
X61379Y-65008D01*
X61323Y-65064D01*
X61211Y-65233D01*
X61154Y-65458D01*
X61154Y-65908D01*
X61211Y-66020D01*
X61267Y-66077D01*
X61379Y-66133D01*
X61604Y-66133D01*
X61717Y-66077D01*
X61773Y-66020D01*
X61829Y-65908D01*
X61829Y-65627D01*
X61773Y-65514D01*
X61717Y-65458D01*
X61604Y-65402D01*
X61379Y-65402D01*
X61267Y-65458D01*
X61211Y-65514D01*
X61154Y-65627D01*
X63235Y-66133D02*
X63235Y-64952D01*
X63742Y-66133D02*
X63742Y-65514D01*
X63685Y-65402D01*
X63573Y-65346D01*
X63404Y-65346D01*
X63292Y-65402D01*
X63235Y-65458D01*
X64473Y-66133D02*
X64360Y-66077D01*
X64304Y-66020D01*
X64248Y-65908D01*
X64248Y-65570D01*
X64304Y-65458D01*
X64360Y-65402D01*
X64473Y-65346D01*
X64642Y-65346D01*
X64754Y-65402D01*
X64810Y-65458D01*
X64867Y-65570D01*
X64867Y-65908D01*
X64810Y-66020D01*
X64754Y-66077D01*
X64642Y-66133D01*
X64473Y-66133D01*
X65541Y-66133D02*
X65429Y-66077D01*
X65373Y-65964D01*
X65373Y-64952D01*
X66441Y-66077D02*
X66329Y-66133D01*
X66104Y-66133D01*
X65991Y-66077D01*
X65935Y-65964D01*
X65935Y-65514D01*
X65991Y-65402D01*
X66104Y-65346D01*
X66329Y-65346D01*
X66441Y-65402D01*
X66498Y-65514D01*
X66498Y-65627D01*
X65935Y-65739D01*
X66948Y-66077D02*
X67060Y-66133D01*
X67285Y-66133D01*
X67397Y-66077D01*
X67454Y-65964D01*
X67454Y-65908D01*
X67397Y-65795D01*
X67285Y-65739D01*
X67116Y-65739D01*
X67004Y-65683D01*
X66948Y-65570D01*
X66948Y-65514D01*
X67004Y-65402D01*
X67116Y-65346D01*
X67285Y-65346D01*
X67397Y-65402D01*
X67847Y-66583D02*
X67904Y-66527D01*
X68016Y-66358D01*
X68072Y-66245D01*
X68129Y-66077D01*
X68185Y-65795D01*
X68185Y-65570D01*
X68129Y-65289D01*
X68072Y-65121D01*
X68016Y-65008D01*
X67904Y-64839D01*
X67847Y-64783D01*
X40812Y-66998D02*
X41244Y-67430D01*
X41244Y-66998D02*
X40812Y-67430D01*
G54D12*
X41181Y-67367D02*
X41181Y-67061D01*
X40876Y-67061D01*
X40876Y-67367D01*
X41181Y-67367D01*
G54D13*
X42932Y-67692D02*
X42257Y-67692D01*
X42594Y-67692D02*
X42594Y-66511D01*
X42482Y-66680D01*
X42369Y-66792D01*
X42257Y-66848D01*
X43438Y-67579D02*
X43494Y-67636D01*
X43438Y-67692D01*
X43382Y-67636D01*
X43438Y-67579D01*
X43438Y-67692D01*
X44619Y-67692D02*
X43944Y-67692D01*
X44282Y-67692D02*
X44282Y-66511D01*
X44169Y-66680D01*
X44057Y-66792D01*
X43944Y-66848D01*
X45350Y-66511D02*
X45463Y-66511D01*
X45575Y-66567D01*
X45631Y-66623D01*
X45688Y-66736D01*
X45744Y-66961D01*
X45744Y-67242D01*
X45688Y-67467D01*
X45631Y-67579D01*
X45575Y-67636D01*
X45463Y-67692D01*
X45350Y-67692D01*
X45238Y-67636D01*
X45181Y-67579D01*
X45125Y-67467D01*
X45069Y-67242D01*
X45069Y-66961D01*
X45125Y-66736D01*
X45181Y-66623D01*
X45238Y-66567D01*
X45350Y-66511D01*
X46250Y-67692D02*
X46250Y-66905D01*
X46250Y-67017D02*
X46306Y-66961D01*
X46419Y-66905D01*
X46588Y-66905D01*
X46700Y-66961D01*
X46756Y-67073D01*
X46756Y-67692D01*
X46756Y-67073D02*
X46813Y-66961D01*
X46925Y-66905D01*
X47094Y-66905D01*
X47206Y-66961D01*
X47262Y-67073D01*
X47262Y-67692D01*
X47825Y-67692D02*
X47825Y-66905D01*
X47825Y-67017D02*
X47881Y-66961D01*
X47994Y-66905D01*
X48162Y-66905D01*
X48275Y-66961D01*
X48331Y-67073D01*
X48331Y-67692D01*
X48331Y-67073D02*
X48387Y-66961D01*
X48500Y-66905D01*
X48669Y-66905D01*
X48781Y-66961D01*
X48837Y-67073D01*
X48837Y-67692D01*
X51143Y-66455D02*
X50131Y-67973D01*
X52662Y-66511D02*
X52774Y-66511D01*
X52887Y-66567D01*
X52943Y-66623D01*
X52999Y-66736D01*
X53055Y-66961D01*
X53055Y-67242D01*
X52999Y-67467D01*
X52943Y-67579D01*
X52887Y-67636D01*
X52774Y-67692D01*
X52662Y-67692D01*
X52549Y-67636D01*
X52493Y-67579D01*
X52437Y-67467D01*
X52381Y-67242D01*
X52381Y-66961D01*
X52437Y-66736D01*
X52493Y-66623D01*
X52549Y-66567D01*
X52662Y-66511D01*
X53562Y-67579D02*
X53618Y-67636D01*
X53562Y-67692D01*
X53505Y-67636D01*
X53562Y-67579D01*
X53562Y-67692D01*
X54349Y-66511D02*
X54462Y-66511D01*
X54574Y-66567D01*
X54630Y-66623D01*
X54687Y-66736D01*
X54743Y-66961D01*
X54743Y-67242D01*
X54687Y-67467D01*
X54630Y-67579D01*
X54574Y-67636D01*
X54462Y-67692D01*
X54349Y-67692D01*
X54237Y-67636D01*
X54180Y-67579D01*
X54124Y-67467D01*
X54068Y-67242D01*
X54068Y-66961D01*
X54124Y-66736D01*
X54180Y-66623D01*
X54237Y-66567D01*
X54349Y-66511D01*
X55755Y-66905D02*
X55755Y-67692D01*
X55474Y-66455D02*
X55193Y-67298D01*
X55924Y-67298D01*
X56261Y-66511D02*
X56992Y-66511D01*
X56599Y-66961D01*
X56768Y-66961D01*
X56880Y-67017D01*
X56936Y-67073D01*
X56992Y-67186D01*
X56992Y-67467D01*
X56936Y-67579D01*
X56880Y-67636D01*
X56768Y-67692D01*
X56430Y-67692D01*
X56318Y-67636D01*
X56261Y-67579D01*
X57442Y-66511D02*
X57442Y-66736D01*
X57892Y-66511D02*
X57892Y-66736D01*
X59636Y-68142D02*
X59580Y-68086D01*
X59467Y-67917D01*
X59411Y-67804D01*
X59355Y-67636D01*
X59298Y-67355D01*
X59298Y-67130D01*
X59355Y-66848D01*
X59411Y-66680D01*
X59467Y-66567D01*
X59580Y-66398D01*
X59636Y-66342D01*
X60030Y-66623D02*
X60086Y-66567D01*
X60198Y-66511D01*
X60480Y-66511D01*
X60592Y-66567D01*
X60648Y-66623D01*
X60705Y-66736D01*
X60705Y-66848D01*
X60648Y-67017D01*
X59973Y-67692D01*
X60705Y-67692D01*
X62111Y-67692D02*
X62111Y-66511D01*
X62617Y-67692D02*
X62617Y-67073D01*
X62561Y-66961D01*
X62448Y-66905D01*
X62279Y-66905D01*
X62167Y-66961D01*
X62111Y-67017D01*
X63348Y-67692D02*
X63235Y-67636D01*
X63179Y-67579D01*
X63123Y-67467D01*
X63123Y-67130D01*
X63179Y-67017D01*
X63235Y-66961D01*
X63348Y-66905D01*
X63517Y-66905D01*
X63629Y-66961D01*
X63685Y-67017D01*
X63742Y-67130D01*
X63742Y-67467D01*
X63685Y-67579D01*
X63629Y-67636D01*
X63517Y-67692D01*
X63348Y-67692D01*
X64417Y-67692D02*
X64304Y-67636D01*
X64248Y-67523D01*
X64248Y-66511D01*
X65316Y-67636D02*
X65204Y-67692D01*
X64979Y-67692D01*
X64867Y-67636D01*
X64810Y-67523D01*
X64810Y-67073D01*
X64867Y-66961D01*
X64979Y-66905D01*
X65204Y-66905D01*
X65316Y-66961D01*
X65373Y-67073D01*
X65373Y-67186D01*
X64810Y-67298D01*
X65823Y-67636D02*
X65935Y-67692D01*
X66160Y-67692D01*
X66273Y-67636D01*
X66329Y-67523D01*
X66329Y-67467D01*
X66273Y-67355D01*
X66160Y-67298D01*
X65991Y-67298D01*
X65879Y-67242D01*
X65823Y-67130D01*
X65823Y-67073D01*
X65879Y-66961D01*
X65991Y-66905D01*
X66160Y-66905D01*
X66273Y-66961D01*
X66723Y-68142D02*
X66779Y-68086D01*
X66891Y-67917D01*
X66948Y-67804D01*
X67004Y-67636D01*
X67060Y-67355D01*
X67060Y-67130D01*
X67004Y-66848D01*
X66948Y-66680D01*
X66891Y-66567D01*
X66779Y-66398D01*
X66723Y-66342D01*
X40103Y-68202D02*
X41244Y-69344D01*
X41244Y-68202D02*
X40103Y-69344D01*
G54D12*
X40674Y-69344D02*
X41244Y-68773D01*
X40674Y-68202D01*
X40103Y-68773D01*
X40674Y-69344D01*
G54D13*
X42257Y-68182D02*
X42313Y-68126D01*
X42426Y-68070D01*
X42707Y-68070D01*
X42819Y-68126D01*
X42876Y-68182D01*
X42932Y-68295D01*
X42932Y-68407D01*
X42876Y-68576D01*
X42201Y-69251D01*
X42932Y-69251D01*
X43438Y-69139D02*
X43494Y-69195D01*
X43438Y-69251D01*
X43382Y-69195D01*
X43438Y-69139D01*
X43438Y-69251D01*
X44057Y-69251D02*
X44282Y-69251D01*
X44394Y-69195D01*
X44450Y-69139D01*
X44563Y-68970D01*
X44619Y-68745D01*
X44619Y-68295D01*
X44563Y-68182D01*
X44507Y-68126D01*
X44394Y-68070D01*
X44169Y-68070D01*
X44057Y-68126D01*
X44000Y-68182D01*
X43944Y-68295D01*
X43944Y-68576D01*
X44000Y-68689D01*
X44057Y-68745D01*
X44169Y-68801D01*
X44394Y-68801D01*
X44507Y-68745D01*
X44563Y-68689D01*
X44619Y-68576D01*
X45350Y-68070D02*
X45463Y-68070D01*
X45575Y-68126D01*
X45631Y-68182D01*
X45688Y-68295D01*
X45744Y-68520D01*
X45744Y-68801D01*
X45688Y-69026D01*
X45631Y-69139D01*
X45575Y-69195D01*
X45463Y-69251D01*
X45350Y-69251D01*
X45238Y-69195D01*
X45181Y-69139D01*
X45125Y-69026D01*
X45069Y-68801D01*
X45069Y-68520D01*
X45125Y-68295D01*
X45181Y-68182D01*
X45238Y-68126D01*
X45350Y-68070D01*
X46250Y-69251D02*
X46250Y-68464D01*
X46250Y-68576D02*
X46306Y-68520D01*
X46419Y-68464D01*
X46588Y-68464D01*
X46700Y-68520D01*
X46756Y-68632D01*
X46756Y-69251D01*
X46756Y-68632D02*
X46813Y-68520D01*
X46925Y-68464D01*
X47094Y-68464D01*
X47206Y-68520D01*
X47262Y-68632D01*
X47262Y-69251D01*
X47825Y-69251D02*
X47825Y-68464D01*
X47825Y-68576D02*
X47881Y-68520D01*
X47994Y-68464D01*
X48162Y-68464D01*
X48275Y-68520D01*
X48331Y-68632D01*
X48331Y-69251D01*
X48331Y-68632D02*
X48387Y-68520D01*
X48500Y-68464D01*
X48669Y-68464D01*
X48781Y-68520D01*
X48837Y-68632D01*
X48837Y-69251D01*
X51143Y-68014D02*
X50131Y-69532D01*
X52662Y-68070D02*
X52774Y-68070D01*
X52887Y-68126D01*
X52943Y-68182D01*
X52999Y-68295D01*
X53055Y-68520D01*
X53055Y-68801D01*
X52999Y-69026D01*
X52943Y-69139D01*
X52887Y-69195D01*
X52774Y-69251D01*
X52662Y-69251D01*
X52549Y-69195D01*
X52493Y-69139D01*
X52437Y-69026D01*
X52381Y-68801D01*
X52381Y-68520D01*
X52437Y-68295D01*
X52493Y-68182D01*
X52549Y-68126D01*
X52662Y-68070D01*
X53562Y-69139D02*
X53618Y-69195D01*
X53562Y-69251D01*
X53505Y-69195D01*
X53562Y-69139D01*
X53562Y-69251D01*
X54743Y-69251D02*
X54068Y-69251D01*
X54405Y-69251D02*
X54405Y-68070D01*
X54293Y-68239D01*
X54180Y-68351D01*
X54068Y-68407D01*
X55868Y-69251D02*
X55193Y-69251D01*
X55530Y-69251D02*
X55530Y-68070D01*
X55418Y-68239D01*
X55305Y-68351D01*
X55193Y-68407D01*
X56880Y-68464D02*
X56880Y-69251D01*
X56599Y-68014D02*
X56318Y-68857D01*
X57049Y-68857D01*
X57442Y-68070D02*
X57442Y-68295D01*
X57892Y-68070D02*
X57892Y-68295D01*
X59636Y-69701D02*
X59580Y-69645D01*
X59467Y-69476D01*
X59411Y-69364D01*
X59355Y-69195D01*
X59298Y-68914D01*
X59298Y-68689D01*
X59355Y-68407D01*
X59411Y-68239D01*
X59467Y-68126D01*
X59580Y-67957D01*
X59636Y-67901D01*
X59973Y-68070D02*
X60705Y-68070D01*
X60311Y-68520D01*
X60480Y-68520D01*
X60592Y-68576D01*
X60648Y-68632D01*
X60705Y-68745D01*
X60705Y-69026D01*
X60648Y-69139D01*
X60592Y-69195D01*
X60480Y-69251D01*
X60142Y-69251D01*
X60030Y-69195D01*
X59973Y-69139D01*
X62111Y-69251D02*
X62111Y-68070D01*
X62617Y-69251D02*
X62617Y-68632D01*
X62561Y-68520D01*
X62448Y-68464D01*
X62279Y-68464D01*
X62167Y-68520D01*
X62111Y-68576D01*
X63348Y-69251D02*
X63235Y-69195D01*
X63179Y-69139D01*
X63123Y-69026D01*
X63123Y-68689D01*
X63179Y-68576D01*
X63235Y-68520D01*
X63348Y-68464D01*
X63517Y-68464D01*
X63629Y-68520D01*
X63685Y-68576D01*
X63742Y-68689D01*
X63742Y-69026D01*
X63685Y-69139D01*
X63629Y-69195D01*
X63517Y-69251D01*
X63348Y-69251D01*
X64417Y-69251D02*
X64304Y-69195D01*
X64248Y-69082D01*
X64248Y-68070D01*
X65316Y-69195D02*
X65204Y-69251D01*
X64979Y-69251D01*
X64867Y-69195D01*
X64810Y-69082D01*
X64810Y-68632D01*
X64867Y-68520D01*
X64979Y-68464D01*
X65204Y-68464D01*
X65316Y-68520D01*
X65373Y-68632D01*
X65373Y-68745D01*
X64810Y-68857D01*
X65823Y-69195D02*
X65935Y-69251D01*
X66160Y-69251D01*
X66273Y-69195D01*
X66329Y-69082D01*
X66329Y-69026D01*
X66273Y-68914D01*
X66160Y-68857D01*
X65991Y-68857D01*
X65879Y-68801D01*
X65823Y-68689D01*
X65823Y-68632D01*
X65879Y-68520D01*
X65991Y-68464D01*
X66160Y-68464D01*
X66273Y-68520D01*
X66723Y-69701D02*
X66779Y-69645D01*
X66891Y-69476D01*
X66948Y-69364D01*
X67004Y-69195D01*
X67060Y-68914D01*
X67060Y-68689D01*
X67004Y-68407D01*
X66948Y-68239D01*
X66891Y-68126D01*
X66779Y-67957D01*
X66723Y-67901D01*
M02*
