G04 (created by PCBNEW (2013-05-31 BZR 4019)-stable) date 24/04/2014 12:04:12*
%MOIN*%
G04 Gerber Fmt 3.4, Leading zero omitted, Abs format*
%FSLAX34Y34*%
G01*
G70*
G90*
G04 APERTURE LIST*
%ADD10C,0.00590551*%
%ADD11C,0.0077*%
%ADD12C,0.012*%
%ADD13C,0.0157*%
%ADD14C,0.0195*%
%ADD15C,0.023622*%
%ADD16C,0.0354*%
%ADD17R,0.0392X0.0392*%
%ADD18R,0.0195X0.0175*%
%ADD19R,0.0175X0.0195*%
%ADD20R,0.014X0.0259*%
%ADD21R,0.0259X0.014*%
%ADD22R,0.0195X0.0195*%
%ADD23C,0.173228*%
%ADD24R,0.0299X0.0649*%
%ADD25R,0.0157X0.0209*%
%ADD26R,0.002X0.0114*%
%ADD27R,0.0276X0.0095*%
%ADD28R,0.0327X0.0095*%
%ADD29R,0.0354X0.0095*%
%ADD30R,0.0559X0.0095*%
%ADD31R,0.0019X0.0095*%
%ADD32R,0.0019X0.0083*%
%ADD33R,0.002X0.0095*%
%ADD34R,0.0019X0.0171*%
%ADD35R,0.0019X0.0342*%
%ADD36R,0.0019X0.0304*%
%ADD37R,0.0019X0.0094*%
%ADD38R,0.0019X0.0209*%
%ADD39R,0.0019X0.038*%
%ADD40R,0.0019X0.0475*%
%ADD41R,0.0019X0.0589*%
%ADD42R,0.0019X0.0646*%
%ADD43R,0.0019X0.0703*%
%ADD44R,0.0019X0.0779*%
%ADD45R,0.0019X0.0285*%
%ADD46R,0.0019X0.0247*%
%ADD47R,0.0019X0.0228*%
%ADD48R,0.0019X0.019*%
%ADD49R,0.0019X0.0133*%
%ADD50R,0.0019X0.0076*%
%ADD51R,0.0019X0.0038*%
%ADD52R,0.0019X0.0437*%
%ADD53R,0.0019X0.0551*%
%ADD54R,0.0019X0.0114*%
%ADD55R,0.0019X0.0057*%
%ADD56R,0.002X0.014*%
%ADD57R,0.0019X0.0335*%
%ADD58R,0.0019X0.0152*%
%ADD59R,0.0019X0.0361*%
%ADD60R,0.0019X0.0399*%
%ADD61R,0.0019X0.0323*%
%ADD62R,0.0019X0.0266*%
%ADD63R,0.0591X0.0095*%
%ADD64R,0.0157X0.0095*%
%ADD65R,0.002X0.038*%
%ADD66R,0.0019X0.0418*%
%ADD67R,0.0295X0.0095*%
%ADD68R,0.0217X0.0095*%
%ADD69R,0.0724X0.0095*%
%ADD70R,0.0019X0.3781*%
%ADD71R,0.00984252X0.0216535*%
%ADD72R,0.0216535X0.00984252*%
%ADD73R,0.0433071X0.0433071*%
%ADD74R,0.228346X0.228346*%
%ADD75R,0.0117X0.0275*%
%ADD76R,0.0117X0.0117*%
%ADD77R,0.0117X0.0177*%
%ADD78R,0.0177X0.0117*%
%ADD79R,0.0511811X0.0511811*%
%ADD80R,0.0354331X0.0629921*%
%ADD81R,0.0597X0.0597*%
%ADD82C,0.0597*%
%ADD83R,0.0591X0.0472*%
%ADD84R,0.0275591X0.0531496*%
%ADD85R,0.0531496X0.0393701*%
%ADD86R,0.023622X0.0275591*%
%ADD87R,0.0531496X0.0275591*%
%ADD88R,0.0314X0.0314*%
%ADD89C,0.15748*%
%ADD90C,0.0472441*%
%ADD91R,0.0472441X0.0472441*%
%ADD92C,0.0432*%
%ADD93R,0.0669X0.0669*%
%ADD94O,0.0117X0.0335*%
%ADD95O,0.0122X0.0335*%
%ADD96O,0.0118X0.0335*%
%ADD97O,0.0335X0.0118*%
%ADD98R,0.0335X0.0118*%
%ADD99O,0.0335X0.0122*%
%ADD100R,0.0393701X0.0393701*%
%ADD101R,0.0866142X0.0413386*%
%ADD102R,0.1495X0.0392*%
%ADD103R,0.1299X0.0392*%
%ADD104R,0.0392X0.1299*%
%ADD105R,0.0392X0.1495*%
%ADD106C,0.0117*%
%ADD107C,0.0077*%
%ADD108C,0.0196*%
%ADD109C,0.0138*%
%ADD110C,0.0129*%
%ADD111C,0.0117*%
%ADD112C,0.0157*%
%ADD113C,0.0118*%
%ADD114C,0.0122*%
%ADD115C,0.0078*%
%ADD116C,0.0059*%
%ADD117C,0.0039*%
G04 APERTURE END LIST*
G54D10*
X4000Y-4000D02*
X112930Y-4000D01*
X112930Y-78680D01*
X4000Y-78680D01*
X4000Y-4000D01*
X4700Y-4700D02*
X112230Y-4700D01*
X112230Y-77980D01*
X4700Y-77980D01*
X4700Y-4700D01*
X25780Y-4000D02*
X25780Y-4700D01*
X15032Y-4552D02*
X14747Y-4552D01*
X14890Y-4552D02*
X14890Y-4052D01*
X14842Y-4123D01*
X14794Y-4171D01*
X14747Y-4195D01*
X25780Y-78680D02*
X25780Y-77980D01*
X15032Y-78532D02*
X14747Y-78532D01*
X14890Y-78532D02*
X14890Y-78032D01*
X14842Y-78103D01*
X14794Y-78151D01*
X14747Y-78175D01*
X47560Y-4000D02*
X47560Y-4700D01*
X36527Y-4100D02*
X36550Y-4076D01*
X36598Y-4052D01*
X36717Y-4052D01*
X36765Y-4076D01*
X36789Y-4100D01*
X36812Y-4147D01*
X36812Y-4195D01*
X36789Y-4266D01*
X36503Y-4552D01*
X36812Y-4552D01*
X47560Y-78680D02*
X47560Y-77980D01*
X36527Y-78080D02*
X36550Y-78056D01*
X36598Y-78032D01*
X36717Y-78032D01*
X36765Y-78056D01*
X36789Y-78080D01*
X36812Y-78127D01*
X36812Y-78175D01*
X36789Y-78246D01*
X36503Y-78532D01*
X36812Y-78532D01*
X69340Y-4000D02*
X69340Y-4700D01*
X58283Y-4052D02*
X58592Y-4052D01*
X58426Y-4242D01*
X58497Y-4242D01*
X58545Y-4266D01*
X58569Y-4290D01*
X58592Y-4338D01*
X58592Y-4457D01*
X58569Y-4504D01*
X58545Y-4528D01*
X58497Y-4552D01*
X58354Y-4552D01*
X58307Y-4528D01*
X58283Y-4504D01*
X69340Y-78680D02*
X69340Y-77980D01*
X58283Y-78032D02*
X58592Y-78032D01*
X58426Y-78222D01*
X58497Y-78222D01*
X58545Y-78246D01*
X58569Y-78270D01*
X58592Y-78318D01*
X58592Y-78437D01*
X58569Y-78484D01*
X58545Y-78508D01*
X58497Y-78532D01*
X58354Y-78532D01*
X58307Y-78508D01*
X58283Y-78484D01*
X91120Y-4000D02*
X91120Y-4700D01*
X80325Y-4219D02*
X80325Y-4552D01*
X80206Y-4028D02*
X80087Y-4385D01*
X80396Y-4385D01*
X91120Y-78680D02*
X91120Y-77980D01*
X80325Y-78199D02*
X80325Y-78532D01*
X80206Y-78008D02*
X80087Y-78365D01*
X80396Y-78365D01*
X102129Y-4052D02*
X101890Y-4052D01*
X101867Y-4290D01*
X101890Y-4266D01*
X101938Y-4242D01*
X102057Y-4242D01*
X102105Y-4266D01*
X102129Y-4290D01*
X102152Y-4338D01*
X102152Y-4457D01*
X102129Y-4504D01*
X102105Y-4528D01*
X102057Y-4552D01*
X101938Y-4552D01*
X101890Y-4528D01*
X101867Y-4504D01*
X102129Y-78032D02*
X101890Y-78032D01*
X101867Y-78270D01*
X101890Y-78246D01*
X101938Y-78222D01*
X102057Y-78222D01*
X102105Y-78246D01*
X102129Y-78270D01*
X102152Y-78318D01*
X102152Y-78437D01*
X102129Y-78484D01*
X102105Y-78508D01*
X102057Y-78532D01*
X101938Y-78532D01*
X101890Y-78508D01*
X101867Y-78484D01*
X4000Y-28890D02*
X4700Y-28890D01*
X4230Y-16509D02*
X4469Y-16509D01*
X4183Y-16652D02*
X4350Y-16152D01*
X4516Y-16652D01*
X112930Y-28890D02*
X112230Y-28890D01*
X112460Y-16509D02*
X112699Y-16509D01*
X112413Y-16652D02*
X112580Y-16152D01*
X112746Y-16652D01*
X4000Y-53780D02*
X4700Y-53780D01*
X4385Y-41280D02*
X4457Y-41304D01*
X4480Y-41328D01*
X4504Y-41375D01*
X4504Y-41447D01*
X4480Y-41494D01*
X4457Y-41518D01*
X4409Y-41542D01*
X4219Y-41542D01*
X4219Y-41042D01*
X4385Y-41042D01*
X4433Y-41066D01*
X4457Y-41090D01*
X4480Y-41137D01*
X4480Y-41185D01*
X4457Y-41232D01*
X4433Y-41256D01*
X4385Y-41280D01*
X4219Y-41280D01*
X112930Y-53780D02*
X112230Y-53780D01*
X112615Y-41280D02*
X112687Y-41304D01*
X112710Y-41328D01*
X112734Y-41375D01*
X112734Y-41447D01*
X112710Y-41494D01*
X112687Y-41518D01*
X112639Y-41542D01*
X112449Y-41542D01*
X112449Y-41042D01*
X112615Y-41042D01*
X112663Y-41066D01*
X112687Y-41090D01*
X112710Y-41137D01*
X112710Y-41185D01*
X112687Y-41232D01*
X112663Y-41256D01*
X112615Y-41280D01*
X112449Y-41280D01*
X4504Y-66384D02*
X4480Y-66408D01*
X4409Y-66432D01*
X4361Y-66432D01*
X4290Y-66408D01*
X4242Y-66360D01*
X4219Y-66313D01*
X4195Y-66218D01*
X4195Y-66146D01*
X4219Y-66051D01*
X4242Y-66003D01*
X4290Y-65956D01*
X4361Y-65932D01*
X4409Y-65932D01*
X4480Y-65956D01*
X4504Y-65980D01*
X112734Y-66384D02*
X112710Y-66408D01*
X112639Y-66432D01*
X112591Y-66432D01*
X112520Y-66408D01*
X112472Y-66360D01*
X112449Y-66313D01*
X112425Y-66218D01*
X112425Y-66146D01*
X112449Y-66051D01*
X112472Y-66003D01*
X112520Y-65956D01*
X112591Y-65932D01*
X112639Y-65932D01*
X112710Y-65956D01*
X112734Y-65980D01*
X79380Y-76422D02*
X79455Y-75822D01*
X79597Y-75822D01*
X79680Y-75851D01*
X79730Y-75908D01*
X79751Y-75965D01*
X79765Y-76080D01*
X79755Y-76165D01*
X79712Y-76280D01*
X79676Y-76337D01*
X79612Y-76394D01*
X79522Y-76422D01*
X79380Y-76422D01*
X80237Y-76422D02*
X80276Y-76108D01*
X80255Y-76051D01*
X80201Y-76022D01*
X80087Y-76022D01*
X80026Y-76051D01*
X80240Y-76394D02*
X80180Y-76422D01*
X80037Y-76422D01*
X79983Y-76394D01*
X79962Y-76337D01*
X79969Y-76280D01*
X80005Y-76222D01*
X80065Y-76194D01*
X80208Y-76194D01*
X80269Y-76165D01*
X80487Y-76022D02*
X80715Y-76022D01*
X80597Y-75822D02*
X80533Y-76337D01*
X80555Y-76394D01*
X80608Y-76422D01*
X80665Y-76422D01*
X81097Y-76394D02*
X81037Y-76422D01*
X80922Y-76422D01*
X80869Y-76394D01*
X80847Y-76337D01*
X80876Y-76108D01*
X80912Y-76051D01*
X80972Y-76022D01*
X81087Y-76022D01*
X81140Y-76051D01*
X81162Y-76108D01*
X81155Y-76165D01*
X80862Y-76222D01*
X81387Y-76365D02*
X81412Y-76394D01*
X81380Y-76422D01*
X81355Y-76394D01*
X81387Y-76365D01*
X81380Y-76422D01*
X81426Y-76051D02*
X81451Y-76080D01*
X81419Y-76108D01*
X81394Y-76080D01*
X81426Y-76051D01*
X81419Y-76108D01*
X82162Y-75880D02*
X82194Y-75851D01*
X82255Y-75822D01*
X82397Y-75822D01*
X82451Y-75851D01*
X82476Y-75880D01*
X82497Y-75937D01*
X82490Y-75994D01*
X82451Y-76080D01*
X82065Y-76422D01*
X82437Y-76422D01*
X83001Y-76022D02*
X82951Y-76422D01*
X82887Y-75794D02*
X82690Y-76222D01*
X83062Y-76222D01*
X83980Y-76422D02*
X84019Y-76108D01*
X83997Y-76051D01*
X83944Y-76022D01*
X83830Y-76022D01*
X83769Y-76051D01*
X83983Y-76394D02*
X83922Y-76422D01*
X83780Y-76422D01*
X83726Y-76394D01*
X83705Y-76337D01*
X83712Y-76280D01*
X83747Y-76222D01*
X83808Y-76194D01*
X83951Y-76194D01*
X84012Y-76165D01*
X84315Y-76022D02*
X84240Y-76622D01*
X84312Y-76051D02*
X84372Y-76022D01*
X84487Y-76022D01*
X84540Y-76051D01*
X84565Y-76080D01*
X84587Y-76137D01*
X84565Y-76308D01*
X84530Y-76365D01*
X84497Y-76394D01*
X84437Y-76422D01*
X84322Y-76422D01*
X84269Y-76394D01*
X84808Y-76422D02*
X84858Y-76022D01*
X84844Y-76137D02*
X84880Y-76080D01*
X84912Y-76051D01*
X84972Y-76022D01*
X85030Y-76022D01*
X85676Y-75880D02*
X85708Y-75851D01*
X85769Y-75822D01*
X85912Y-75822D01*
X85965Y-75851D01*
X85990Y-75880D01*
X86012Y-75937D01*
X86005Y-75994D01*
X85965Y-76080D01*
X85580Y-76422D01*
X85951Y-76422D01*
X86397Y-75822D02*
X86455Y-75822D01*
X86508Y-75851D01*
X86533Y-75880D01*
X86555Y-75937D01*
X86569Y-76051D01*
X86551Y-76194D01*
X86508Y-76308D01*
X86472Y-76365D01*
X86440Y-76394D01*
X86380Y-76422D01*
X86322Y-76422D01*
X86269Y-76394D01*
X86244Y-76365D01*
X86222Y-76308D01*
X86208Y-76194D01*
X86226Y-76051D01*
X86269Y-75937D01*
X86305Y-75880D01*
X86337Y-75851D01*
X86397Y-75822D01*
X87094Y-76422D02*
X86751Y-76422D01*
X86922Y-76422D02*
X86997Y-75822D01*
X86930Y-75908D01*
X86865Y-75965D01*
X86805Y-75994D01*
X87658Y-76022D02*
X87608Y-76422D01*
X87544Y-75794D02*
X87347Y-76222D01*
X87719Y-76222D01*
X70972Y-77622D02*
X70972Y-77022D01*
X71315Y-77622D02*
X71058Y-77280D01*
X71315Y-77022D02*
X70972Y-77365D01*
X71572Y-77622D02*
X71572Y-77222D01*
X71572Y-77022D02*
X71544Y-77051D01*
X71572Y-77080D01*
X71601Y-77051D01*
X71572Y-77022D01*
X71572Y-77080D01*
X72201Y-77565D02*
X72172Y-77594D01*
X72087Y-77622D01*
X72030Y-77622D01*
X71944Y-77594D01*
X71887Y-77537D01*
X71858Y-77480D01*
X71830Y-77365D01*
X71830Y-77280D01*
X71858Y-77165D01*
X71887Y-77108D01*
X71944Y-77051D01*
X72030Y-77022D01*
X72087Y-77022D01*
X72172Y-77051D01*
X72201Y-77080D01*
X72715Y-77622D02*
X72715Y-77308D01*
X72687Y-77251D01*
X72630Y-77222D01*
X72515Y-77222D01*
X72458Y-77251D01*
X72715Y-77594D02*
X72658Y-77622D01*
X72515Y-77622D01*
X72458Y-77594D01*
X72430Y-77537D01*
X72430Y-77480D01*
X72458Y-77422D01*
X72515Y-77394D01*
X72658Y-77394D01*
X72715Y-77365D01*
X73258Y-77622D02*
X73258Y-77022D01*
X73258Y-77594D02*
X73201Y-77622D01*
X73087Y-77622D01*
X73030Y-77594D01*
X73001Y-77565D01*
X72972Y-77508D01*
X72972Y-77337D01*
X73001Y-77280D01*
X73030Y-77251D01*
X73087Y-77222D01*
X73201Y-77222D01*
X73258Y-77251D01*
X74001Y-77308D02*
X74201Y-77308D01*
X74287Y-77622D02*
X74001Y-77622D01*
X74001Y-77022D01*
X74287Y-77022D01*
X74544Y-77565D02*
X74572Y-77594D01*
X74544Y-77622D01*
X74515Y-77594D01*
X74544Y-77565D01*
X74544Y-77622D01*
X74829Y-77622D02*
X74829Y-77022D01*
X74972Y-77022D01*
X75058Y-77051D01*
X75115Y-77108D01*
X75144Y-77165D01*
X75172Y-77280D01*
X75172Y-77365D01*
X75144Y-77480D01*
X75115Y-77537D01*
X75058Y-77594D01*
X74972Y-77622D01*
X74829Y-77622D01*
X75429Y-77565D02*
X75458Y-77594D01*
X75429Y-77622D01*
X75401Y-77594D01*
X75429Y-77565D01*
X75429Y-77622D01*
X75687Y-77451D02*
X75972Y-77451D01*
X75629Y-77622D02*
X75829Y-77022D01*
X76029Y-77622D01*
X76229Y-77565D02*
X76258Y-77594D01*
X76229Y-77622D01*
X76201Y-77594D01*
X76229Y-77565D01*
X76229Y-77622D01*
X104522Y-76422D02*
X104358Y-76137D01*
X104180Y-76422D02*
X104255Y-75822D01*
X104483Y-75822D01*
X104537Y-75851D01*
X104562Y-75880D01*
X104583Y-75937D01*
X104572Y-76022D01*
X104537Y-76080D01*
X104505Y-76108D01*
X104444Y-76137D01*
X104215Y-76137D01*
X105012Y-76394D02*
X104951Y-76422D01*
X104837Y-76422D01*
X104783Y-76394D01*
X104762Y-76337D01*
X104790Y-76108D01*
X104826Y-76051D01*
X104887Y-76022D01*
X105001Y-76022D01*
X105055Y-76051D01*
X105076Y-76108D01*
X105069Y-76165D01*
X104776Y-76222D01*
X105287Y-76022D02*
X105380Y-76422D01*
X105572Y-76022D01*
X105758Y-76365D02*
X105783Y-76394D01*
X105751Y-76422D01*
X105726Y-76394D01*
X105758Y-76365D01*
X105751Y-76422D01*
X105797Y-76051D02*
X105822Y-76080D01*
X105790Y-76108D01*
X105765Y-76080D01*
X105797Y-76051D01*
X105790Y-76108D01*
X106855Y-75822D02*
X106569Y-75822D01*
X106505Y-76108D01*
X106537Y-76080D01*
X106597Y-76051D01*
X106740Y-76051D01*
X106794Y-76080D01*
X106819Y-76108D01*
X106840Y-76165D01*
X106822Y-76308D01*
X106787Y-76365D01*
X106755Y-76394D01*
X106694Y-76422D01*
X106551Y-76422D01*
X106497Y-76394D01*
X106472Y-76365D01*
X70944Y-76394D02*
X71030Y-76422D01*
X71172Y-76422D01*
X71230Y-76394D01*
X71258Y-76365D01*
X71287Y-76308D01*
X71287Y-76251D01*
X71258Y-76194D01*
X71230Y-76165D01*
X71172Y-76137D01*
X71058Y-76108D01*
X71001Y-76080D01*
X70972Y-76051D01*
X70944Y-75994D01*
X70944Y-75937D01*
X70972Y-75880D01*
X71001Y-75851D01*
X71058Y-75822D01*
X71201Y-75822D01*
X71287Y-75851D01*
X71544Y-76422D02*
X71544Y-76022D01*
X71544Y-75822D02*
X71515Y-75851D01*
X71544Y-75880D01*
X71572Y-75851D01*
X71544Y-75822D01*
X71544Y-75880D01*
X71772Y-76022D02*
X72087Y-76022D01*
X71772Y-76422D01*
X72087Y-76422D01*
X72544Y-76394D02*
X72487Y-76422D01*
X72372Y-76422D01*
X72315Y-76394D01*
X72287Y-76337D01*
X72287Y-76108D01*
X72315Y-76051D01*
X72372Y-76022D01*
X72487Y-76022D01*
X72544Y-76051D01*
X72572Y-76108D01*
X72572Y-76165D01*
X72287Y-76222D01*
X72830Y-76365D02*
X72858Y-76394D01*
X72830Y-76422D01*
X72801Y-76394D01*
X72830Y-76365D01*
X72830Y-76422D01*
X72830Y-76051D02*
X72858Y-76080D01*
X72830Y-76108D01*
X72801Y-76080D01*
X72830Y-76051D01*
X72830Y-76108D01*
X73544Y-76251D02*
X73830Y-76251D01*
X73487Y-76422D02*
X73687Y-75822D01*
X73887Y-76422D01*
X74344Y-76022D02*
X74344Y-76422D01*
X74201Y-75794D02*
X74058Y-76222D01*
X74430Y-76222D01*
X104172Y-77622D02*
X104172Y-77022D01*
X104715Y-77622D02*
X104715Y-77022D01*
X104715Y-77594D02*
X104658Y-77622D01*
X104544Y-77622D01*
X104487Y-77594D01*
X104458Y-77565D01*
X104430Y-77508D01*
X104430Y-77337D01*
X104458Y-77280D01*
X104487Y-77251D01*
X104544Y-77222D01*
X104658Y-77222D01*
X104715Y-77251D01*
X105001Y-77565D02*
X105030Y-77594D01*
X105001Y-77622D01*
X104972Y-77594D01*
X105001Y-77565D01*
X105001Y-77622D01*
X105001Y-77251D02*
X105030Y-77280D01*
X105001Y-77308D01*
X104972Y-77280D01*
X105001Y-77251D01*
X105001Y-77308D01*
X106058Y-77622D02*
X105715Y-77622D01*
X105887Y-77622D02*
X105887Y-77022D01*
X105829Y-77108D01*
X105772Y-77165D01*
X105715Y-77194D01*
X106744Y-76994D02*
X106230Y-77765D01*
X107258Y-77622D02*
X106915Y-77622D01*
X107087Y-77622D02*
X107087Y-77022D01*
X107029Y-77108D01*
X106972Y-77165D01*
X106915Y-77194D01*
X70969Y-74622D02*
X71312Y-74622D01*
X71065Y-75222D02*
X71140Y-74622D01*
X71437Y-75222D02*
X71487Y-74822D01*
X71512Y-74622D02*
X71480Y-74651D01*
X71505Y-74680D01*
X71537Y-74651D01*
X71512Y-74622D01*
X71505Y-74680D01*
X71687Y-74822D02*
X71915Y-74822D01*
X71797Y-74622D02*
X71733Y-75137D01*
X71755Y-75194D01*
X71808Y-75222D01*
X71865Y-75222D01*
X72151Y-75222D02*
X72097Y-75194D01*
X72076Y-75137D01*
X72140Y-74622D01*
X72612Y-75194D02*
X72551Y-75222D01*
X72437Y-75222D01*
X72383Y-75194D01*
X72362Y-75137D01*
X72390Y-74908D01*
X72426Y-74851D01*
X72487Y-74822D01*
X72601Y-74822D01*
X72655Y-74851D01*
X72676Y-74908D01*
X72669Y-74965D01*
X72376Y-75022D01*
X72901Y-75165D02*
X72926Y-75194D01*
X72894Y-75222D01*
X72869Y-75194D01*
X72901Y-75165D01*
X72894Y-75222D01*
X72940Y-74851D02*
X72965Y-74880D01*
X72933Y-74908D01*
X72908Y-74880D01*
X72940Y-74851D01*
X72933Y-74908D01*
X73637Y-75222D02*
X73712Y-74622D01*
X73858Y-75051D01*
X74112Y-74622D01*
X74037Y-75222D01*
X74315Y-74822D02*
X74408Y-75222D01*
X74601Y-74822D02*
X74408Y-75222D01*
X74333Y-75365D01*
X74301Y-75394D01*
X74240Y-75422D01*
X74780Y-75222D02*
X74830Y-74822D01*
X74815Y-74937D02*
X74851Y-74880D01*
X74883Y-74851D01*
X74944Y-74822D01*
X75001Y-74822D01*
X75151Y-75222D02*
X75201Y-74822D01*
X75226Y-74622D02*
X75194Y-74651D01*
X75219Y-74680D01*
X75251Y-74651D01*
X75226Y-74622D01*
X75219Y-74680D01*
X75694Y-75222D02*
X75733Y-74908D01*
X75712Y-74851D01*
X75658Y-74822D01*
X75544Y-74822D01*
X75483Y-74851D01*
X75697Y-75194D02*
X75637Y-75222D01*
X75494Y-75222D01*
X75440Y-75194D01*
X75419Y-75137D01*
X75426Y-75080D01*
X75462Y-75022D01*
X75522Y-74994D01*
X75665Y-74994D01*
X75726Y-74965D01*
X76237Y-75222D02*
X76312Y-74622D01*
X76240Y-75194D02*
X76180Y-75222D01*
X76065Y-75222D01*
X76012Y-75194D01*
X75987Y-75165D01*
X75965Y-75108D01*
X75987Y-74937D01*
X76022Y-74880D01*
X76055Y-74851D01*
X76115Y-74822D01*
X76230Y-74822D01*
X76283Y-74851D01*
X77322Y-75222D02*
X77158Y-74937D01*
X76980Y-75222D02*
X77055Y-74622D01*
X77283Y-74622D01*
X77337Y-74651D01*
X77362Y-74680D01*
X77383Y-74737D01*
X77372Y-74822D01*
X77337Y-74880D01*
X77305Y-74908D01*
X77244Y-74937D01*
X77015Y-74937D01*
X77819Y-74908D02*
X77619Y-74908D01*
X77580Y-75222D02*
X77655Y-74622D01*
X77940Y-74622D01*
X79058Y-74594D02*
X78447Y-75365D01*
X79637Y-75222D02*
X79712Y-74622D01*
X79980Y-75222D01*
X80055Y-74622D01*
X80351Y-75222D02*
X80297Y-75194D01*
X80272Y-75165D01*
X80251Y-75108D01*
X80272Y-74937D01*
X80308Y-74880D01*
X80340Y-74851D01*
X80401Y-74822D01*
X80487Y-74822D01*
X80540Y-74851D01*
X80565Y-74880D01*
X80587Y-74937D01*
X80565Y-75108D01*
X80530Y-75165D01*
X80497Y-75194D01*
X80437Y-75222D01*
X80351Y-75222D01*
X80801Y-74822D02*
X80894Y-75222D01*
X81087Y-74822D01*
X81497Y-75194D02*
X81437Y-75222D01*
X81322Y-75222D01*
X81269Y-75194D01*
X81247Y-75137D01*
X81276Y-74908D01*
X81312Y-74851D01*
X81372Y-74822D01*
X81487Y-74822D01*
X81540Y-74851D01*
X81562Y-74908D01*
X81555Y-74965D01*
X81262Y-75022D01*
X81830Y-74822D02*
X81780Y-75222D01*
X81822Y-74880D02*
X81855Y-74851D01*
X81915Y-74822D01*
X82001Y-74822D01*
X82055Y-74851D01*
X82076Y-74908D01*
X82037Y-75222D01*
X82580Y-75222D02*
X82619Y-74908D01*
X82597Y-74851D01*
X82544Y-74822D01*
X82430Y-74822D01*
X82369Y-74851D01*
X82583Y-75194D02*
X82522Y-75222D01*
X82380Y-75222D01*
X82326Y-75194D01*
X82305Y-75137D01*
X82312Y-75080D01*
X82347Y-75022D01*
X82408Y-74994D01*
X82551Y-74994D01*
X82612Y-74965D01*
X83315Y-74822D02*
X83408Y-75222D01*
X83601Y-74822D01*
X83787Y-75165D02*
X83812Y-75194D01*
X83780Y-75222D01*
X83755Y-75194D01*
X83787Y-75165D01*
X83780Y-75222D01*
X84380Y-75222D02*
X84037Y-75222D01*
X84208Y-75222D02*
X84283Y-74622D01*
X84215Y-74708D01*
X84151Y-74765D01*
X84090Y-74794D01*
X71172Y-72508D02*
X70972Y-72508D01*
X70972Y-72822D02*
X70972Y-72222D01*
X71258Y-72222D01*
X71487Y-72822D02*
X71487Y-72422D01*
X71487Y-72222D02*
X71458Y-72251D01*
X71487Y-72280D01*
X71515Y-72251D01*
X71487Y-72222D01*
X71487Y-72280D01*
X71858Y-72822D02*
X71801Y-72794D01*
X71772Y-72737D01*
X71772Y-72222D01*
X72315Y-72794D02*
X72258Y-72822D01*
X72144Y-72822D01*
X72087Y-72794D01*
X72058Y-72737D01*
X72058Y-72508D01*
X72087Y-72451D01*
X72144Y-72422D01*
X72258Y-72422D01*
X72315Y-72451D01*
X72344Y-72508D01*
X72344Y-72565D01*
X72058Y-72622D01*
X72601Y-72765D02*
X72630Y-72794D01*
X72601Y-72822D01*
X72572Y-72794D01*
X72601Y-72765D01*
X72601Y-72822D01*
X72601Y-72451D02*
X72630Y-72480D01*
X72601Y-72508D01*
X72572Y-72480D01*
X72601Y-72451D01*
X72601Y-72508D01*
X73344Y-72822D02*
X73344Y-72222D01*
X73544Y-72651D01*
X73744Y-72222D01*
X73744Y-72822D01*
X74144Y-72537D02*
X74144Y-72822D01*
X73944Y-72222D02*
X74144Y-72537D01*
X74344Y-72222D01*
X74887Y-72822D02*
X74687Y-72537D01*
X74544Y-72822D02*
X74544Y-72222D01*
X74772Y-72222D01*
X74830Y-72251D01*
X74858Y-72280D01*
X74887Y-72337D01*
X74887Y-72422D01*
X74858Y-72480D01*
X74830Y-72508D01*
X74772Y-72537D01*
X74544Y-72537D01*
X75144Y-72822D02*
X75144Y-72222D01*
X75401Y-72651D02*
X75687Y-72651D01*
X75344Y-72822D02*
X75544Y-72222D01*
X75744Y-72822D01*
X75944Y-72822D02*
X75944Y-72222D01*
X76087Y-72222D01*
X76172Y-72251D01*
X76230Y-72308D01*
X76258Y-72365D01*
X76287Y-72480D01*
X76287Y-72565D01*
X76258Y-72680D01*
X76230Y-72737D01*
X76172Y-72794D01*
X76087Y-72822D01*
X75944Y-72822D01*
X76401Y-72880D02*
X76858Y-72880D01*
X77344Y-72822D02*
X77144Y-72537D01*
X77001Y-72822D02*
X77001Y-72222D01*
X77230Y-72222D01*
X77287Y-72251D01*
X77315Y-72280D01*
X77344Y-72337D01*
X77344Y-72422D01*
X77315Y-72480D01*
X77287Y-72508D01*
X77230Y-72537D01*
X77001Y-72537D01*
X77801Y-72508D02*
X77601Y-72508D01*
X77601Y-72822D02*
X77601Y-72222D01*
X77887Y-72222D01*
X78115Y-72765D02*
X78144Y-72794D01*
X78115Y-72822D01*
X78087Y-72794D01*
X78115Y-72765D01*
X78115Y-72822D01*
X78401Y-72822D02*
X78401Y-72222D01*
X78401Y-72451D02*
X78458Y-72422D01*
X78572Y-72422D01*
X78630Y-72451D01*
X78658Y-72480D01*
X78687Y-72537D01*
X78687Y-72708D01*
X78658Y-72765D01*
X78630Y-72794D01*
X78572Y-72822D01*
X78458Y-72822D01*
X78401Y-72794D01*
X78944Y-72822D02*
X78944Y-72422D01*
X78944Y-72537D02*
X78972Y-72480D01*
X79001Y-72451D01*
X79058Y-72422D01*
X79115Y-72422D01*
X79572Y-72822D02*
X79572Y-72222D01*
X79572Y-72794D02*
X79515Y-72822D01*
X79401Y-72822D01*
X79344Y-72794D01*
X79315Y-72765D01*
X79287Y-72708D01*
X79287Y-72537D01*
X79315Y-72480D01*
X79344Y-72451D01*
X79401Y-72422D01*
X79515Y-72422D01*
X79572Y-72451D01*
X70944Y-73994D02*
X71030Y-74022D01*
X71172Y-74022D01*
X71230Y-73994D01*
X71258Y-73965D01*
X71287Y-73908D01*
X71287Y-73851D01*
X71258Y-73794D01*
X71230Y-73765D01*
X71172Y-73737D01*
X71058Y-73708D01*
X71001Y-73680D01*
X70972Y-73651D01*
X70944Y-73594D01*
X70944Y-73537D01*
X70972Y-73480D01*
X71001Y-73451D01*
X71058Y-73422D01*
X71201Y-73422D01*
X71287Y-73451D01*
X71544Y-74022D02*
X71544Y-73422D01*
X71801Y-74022D02*
X71801Y-73708D01*
X71772Y-73651D01*
X71715Y-73622D01*
X71630Y-73622D01*
X71572Y-73651D01*
X71544Y-73680D01*
X72315Y-73994D02*
X72258Y-74022D01*
X72144Y-74022D01*
X72087Y-73994D01*
X72058Y-73937D01*
X72058Y-73708D01*
X72087Y-73651D01*
X72144Y-73622D01*
X72258Y-73622D01*
X72315Y-73651D01*
X72344Y-73708D01*
X72344Y-73765D01*
X72058Y-73822D01*
X72830Y-73994D02*
X72772Y-74022D01*
X72658Y-74022D01*
X72601Y-73994D01*
X72572Y-73937D01*
X72572Y-73708D01*
X72601Y-73651D01*
X72658Y-73622D01*
X72772Y-73622D01*
X72830Y-73651D01*
X72858Y-73708D01*
X72858Y-73765D01*
X72572Y-73822D01*
X73030Y-73622D02*
X73258Y-73622D01*
X73115Y-73422D02*
X73115Y-73937D01*
X73144Y-73994D01*
X73201Y-74022D01*
X73258Y-74022D01*
X73458Y-73965D02*
X73487Y-73994D01*
X73458Y-74022D01*
X73430Y-73994D01*
X73458Y-73965D01*
X73458Y-74022D01*
X73458Y-73651D02*
X73487Y-73680D01*
X73458Y-73708D01*
X73430Y-73680D01*
X73458Y-73651D01*
X73458Y-73708D01*
X70887Y-69822D02*
X71230Y-69822D01*
X71058Y-70422D02*
X71058Y-69822D01*
X71430Y-70422D02*
X71430Y-69822D01*
X71430Y-70108D02*
X71772Y-70108D01*
X71772Y-70422D02*
X71772Y-69822D01*
X72058Y-70422D02*
X72058Y-69822D01*
X72315Y-70394D02*
X72401Y-70422D01*
X72544Y-70422D01*
X72601Y-70394D01*
X72629Y-70365D01*
X72658Y-70308D01*
X72658Y-70251D01*
X72629Y-70194D01*
X72601Y-70165D01*
X72544Y-70137D01*
X72429Y-70108D01*
X72372Y-70080D01*
X72344Y-70051D01*
X72315Y-69994D01*
X72315Y-69937D01*
X72344Y-69880D01*
X72372Y-69851D01*
X72429Y-69822D01*
X72572Y-69822D01*
X72658Y-69851D01*
X73315Y-69822D02*
X73458Y-70422D01*
X73572Y-69994D01*
X73687Y-70422D01*
X73830Y-69822D01*
X74172Y-69822D02*
X74287Y-69822D01*
X74344Y-69851D01*
X74401Y-69908D01*
X74430Y-70022D01*
X74430Y-70222D01*
X74401Y-70337D01*
X74344Y-70394D01*
X74287Y-70422D01*
X74172Y-70422D01*
X74115Y-70394D01*
X74058Y-70337D01*
X74030Y-70222D01*
X74030Y-70022D01*
X74058Y-69908D01*
X74115Y-69851D01*
X74172Y-69822D01*
X75029Y-70422D02*
X74829Y-70137D01*
X74687Y-70422D02*
X74687Y-69822D01*
X74915Y-69822D01*
X74972Y-69851D01*
X75001Y-69880D01*
X75029Y-69937D01*
X75029Y-70022D01*
X75001Y-70080D01*
X74972Y-70108D01*
X74915Y-70137D01*
X74687Y-70137D01*
X75287Y-70422D02*
X75287Y-69822D01*
X75629Y-70422D02*
X75372Y-70080D01*
X75629Y-69822D02*
X75287Y-70165D01*
X76344Y-70422D02*
X76344Y-69822D01*
X76601Y-70394D02*
X76687Y-70422D01*
X76829Y-70422D01*
X76887Y-70394D01*
X76915Y-70365D01*
X76944Y-70308D01*
X76944Y-70251D01*
X76915Y-70194D01*
X76887Y-70165D01*
X76829Y-70137D01*
X76715Y-70108D01*
X76658Y-70080D01*
X76629Y-70051D01*
X76601Y-69994D01*
X76601Y-69937D01*
X76629Y-69880D01*
X76658Y-69851D01*
X76715Y-69822D01*
X76858Y-69822D01*
X76944Y-69851D01*
X78001Y-70365D02*
X77972Y-70394D01*
X77887Y-70422D01*
X77830Y-70422D01*
X77744Y-70394D01*
X77687Y-70337D01*
X77658Y-70280D01*
X77630Y-70165D01*
X77630Y-70080D01*
X77658Y-69965D01*
X77687Y-69908D01*
X77744Y-69851D01*
X77830Y-69822D01*
X77887Y-69822D01*
X77972Y-69851D01*
X78001Y-69880D01*
X78372Y-69822D02*
X78487Y-69822D01*
X78544Y-69851D01*
X78601Y-69908D01*
X78630Y-70022D01*
X78630Y-70222D01*
X78601Y-70337D01*
X78544Y-70394D01*
X78487Y-70422D01*
X78372Y-70422D01*
X78315Y-70394D01*
X78258Y-70337D01*
X78230Y-70222D01*
X78230Y-70022D01*
X78258Y-69908D01*
X78315Y-69851D01*
X78372Y-69822D01*
X78801Y-69822D02*
X79001Y-70422D01*
X79201Y-69822D01*
X79401Y-70108D02*
X79601Y-70108D01*
X79687Y-70422D02*
X79401Y-70422D01*
X79401Y-69822D01*
X79687Y-69822D01*
X80287Y-70422D02*
X80087Y-70137D01*
X79944Y-70422D02*
X79944Y-69822D01*
X80172Y-69822D01*
X80229Y-69851D01*
X80258Y-69880D01*
X80287Y-69937D01*
X80287Y-70022D01*
X80258Y-70080D01*
X80229Y-70108D01*
X80172Y-70137D01*
X79944Y-70137D01*
X80544Y-70108D02*
X80744Y-70108D01*
X80829Y-70422D02*
X80544Y-70422D01*
X80544Y-69822D01*
X80829Y-69822D01*
X81087Y-70422D02*
X81087Y-69822D01*
X81229Y-69822D01*
X81315Y-69851D01*
X81372Y-69908D01*
X81401Y-69965D01*
X81429Y-70080D01*
X81429Y-70165D01*
X81401Y-70280D01*
X81372Y-70337D01*
X81315Y-70394D01*
X81229Y-70422D01*
X81087Y-70422D01*
X82144Y-69822D02*
X82144Y-70308D01*
X82172Y-70365D01*
X82201Y-70394D01*
X82258Y-70422D01*
X82372Y-70422D01*
X82429Y-70394D01*
X82458Y-70365D01*
X82487Y-70308D01*
X82487Y-69822D01*
X82772Y-70422D02*
X82772Y-69822D01*
X83115Y-70422D01*
X83115Y-69822D01*
X83401Y-70422D02*
X83401Y-69822D01*
X83544Y-69822D01*
X83629Y-69851D01*
X83687Y-69908D01*
X83715Y-69965D01*
X83744Y-70080D01*
X83744Y-70165D01*
X83715Y-70280D01*
X83687Y-70337D01*
X83629Y-70394D01*
X83544Y-70422D01*
X83401Y-70422D01*
X84001Y-70108D02*
X84201Y-70108D01*
X84287Y-70422D02*
X84001Y-70422D01*
X84001Y-69822D01*
X84287Y-69822D01*
X84887Y-70422D02*
X84687Y-70137D01*
X84544Y-70422D02*
X84544Y-69822D01*
X84772Y-69822D01*
X84829Y-69851D01*
X84858Y-69880D01*
X84887Y-69937D01*
X84887Y-70022D01*
X84858Y-70080D01*
X84829Y-70108D01*
X84772Y-70137D01*
X84544Y-70137D01*
X85572Y-70251D02*
X85858Y-70251D01*
X85515Y-70422D02*
X85715Y-69822D01*
X85915Y-70422D01*
X86915Y-70365D02*
X86887Y-70394D01*
X86801Y-70422D01*
X86744Y-70422D01*
X86658Y-70394D01*
X86601Y-70337D01*
X86572Y-70280D01*
X86544Y-70165D01*
X86544Y-70080D01*
X86572Y-69965D01*
X86601Y-69908D01*
X86658Y-69851D01*
X86744Y-69822D01*
X86801Y-69822D01*
X86887Y-69851D01*
X86915Y-69880D01*
X87515Y-70422D02*
X87315Y-70137D01*
X87172Y-70422D02*
X87172Y-69822D01*
X87401Y-69822D01*
X87458Y-69851D01*
X87487Y-69880D01*
X87515Y-69937D01*
X87515Y-70022D01*
X87487Y-70080D01*
X87458Y-70108D01*
X87401Y-70137D01*
X87172Y-70137D01*
X87772Y-70108D02*
X87972Y-70108D01*
X88058Y-70422D02*
X87772Y-70422D01*
X87772Y-69822D01*
X88058Y-69822D01*
X88287Y-70251D02*
X88572Y-70251D01*
X88229Y-70422D02*
X88429Y-69822D01*
X88629Y-70422D01*
X88744Y-69822D02*
X89087Y-69822D01*
X88915Y-70422D02*
X88915Y-69822D01*
X89287Y-70422D02*
X89287Y-69822D01*
X89487Y-69822D02*
X89687Y-70422D01*
X89887Y-69822D01*
X90087Y-70108D02*
X90287Y-70108D01*
X90372Y-70422D02*
X90087Y-70422D01*
X90087Y-69822D01*
X90372Y-69822D01*
X91429Y-70365D02*
X91401Y-70394D01*
X91315Y-70422D01*
X91258Y-70422D01*
X91172Y-70394D01*
X91115Y-70337D01*
X91087Y-70280D01*
X91058Y-70165D01*
X91058Y-70080D01*
X91087Y-69965D01*
X91115Y-69908D01*
X91172Y-69851D01*
X91258Y-69822D01*
X91315Y-69822D01*
X91401Y-69851D01*
X91429Y-69880D01*
X91801Y-69822D02*
X91915Y-69822D01*
X91972Y-69851D01*
X92029Y-69908D01*
X92058Y-70022D01*
X92058Y-70222D01*
X92029Y-70337D01*
X91972Y-70394D01*
X91915Y-70422D01*
X91801Y-70422D01*
X91744Y-70394D01*
X91687Y-70337D01*
X91658Y-70222D01*
X91658Y-70022D01*
X91687Y-69908D01*
X91744Y-69851D01*
X91801Y-69822D01*
X92315Y-70422D02*
X92315Y-69822D01*
X92515Y-70251D01*
X92715Y-69822D01*
X92715Y-70422D01*
X93001Y-70422D02*
X93001Y-69822D01*
X93201Y-70251D01*
X93401Y-69822D01*
X93401Y-70422D01*
X93801Y-69822D02*
X93915Y-69822D01*
X93972Y-69851D01*
X94029Y-69908D01*
X94058Y-70022D01*
X94058Y-70222D01*
X94029Y-70337D01*
X93972Y-70394D01*
X93915Y-70422D01*
X93801Y-70422D01*
X93744Y-70394D01*
X93687Y-70337D01*
X93658Y-70222D01*
X93658Y-70022D01*
X93687Y-69908D01*
X93744Y-69851D01*
X93801Y-69822D01*
X94315Y-70422D02*
X94315Y-69822D01*
X94658Y-70422D01*
X94658Y-69822D01*
X94915Y-70394D02*
X95001Y-70422D01*
X95144Y-70422D01*
X95201Y-70394D01*
X95229Y-70365D01*
X95258Y-70308D01*
X95258Y-70251D01*
X95229Y-70194D01*
X95201Y-70165D01*
X95144Y-70137D01*
X95029Y-70108D01*
X94972Y-70080D01*
X94944Y-70051D01*
X94915Y-69994D01*
X94915Y-69937D01*
X94944Y-69880D01*
X94972Y-69851D01*
X95029Y-69822D01*
X95172Y-69822D01*
X95258Y-69851D01*
X96258Y-70422D02*
X95972Y-70422D01*
X95972Y-69822D01*
X96458Y-70422D02*
X96458Y-69822D01*
X97087Y-70365D02*
X97058Y-70394D01*
X96972Y-70422D01*
X96915Y-70422D01*
X96829Y-70394D01*
X96772Y-70337D01*
X96744Y-70280D01*
X96715Y-70165D01*
X96715Y-70080D01*
X96744Y-69965D01*
X96772Y-69908D01*
X96829Y-69851D01*
X96915Y-69822D01*
X96972Y-69822D01*
X97058Y-69851D01*
X97087Y-69880D01*
X97344Y-70108D02*
X97544Y-70108D01*
X97629Y-70422D02*
X97344Y-70422D01*
X97344Y-69822D01*
X97629Y-69822D01*
X97887Y-70422D02*
X97887Y-69822D01*
X98229Y-70422D01*
X98229Y-69822D01*
X98487Y-70394D02*
X98572Y-70422D01*
X98715Y-70422D01*
X98772Y-70394D01*
X98801Y-70365D01*
X98829Y-70308D01*
X98829Y-70251D01*
X98801Y-70194D01*
X98772Y-70165D01*
X98715Y-70137D01*
X98601Y-70108D01*
X98544Y-70080D01*
X98515Y-70051D01*
X98487Y-69994D01*
X98487Y-69937D01*
X98515Y-69880D01*
X98544Y-69851D01*
X98601Y-69822D01*
X98744Y-69822D01*
X98829Y-69851D01*
X99087Y-70108D02*
X99287Y-70108D01*
X99372Y-70422D02*
X99087Y-70422D01*
X99087Y-69822D01*
X99372Y-69822D01*
X100258Y-70651D02*
X100229Y-70622D01*
X100172Y-70537D01*
X100144Y-70480D01*
X100115Y-70394D01*
X100087Y-70251D01*
X100087Y-70137D01*
X100115Y-69994D01*
X100144Y-69908D01*
X100172Y-69851D01*
X100229Y-69765D01*
X100258Y-69737D01*
X100829Y-70365D02*
X100801Y-70394D01*
X100715Y-70422D01*
X100658Y-70422D01*
X100572Y-70394D01*
X100515Y-70337D01*
X100487Y-70280D01*
X100458Y-70165D01*
X100458Y-70080D01*
X100487Y-69965D01*
X100515Y-69908D01*
X100572Y-69851D01*
X100658Y-69822D01*
X100715Y-69822D01*
X100801Y-69851D01*
X100829Y-69880D01*
X101429Y-70365D02*
X101401Y-70394D01*
X101315Y-70422D01*
X101258Y-70422D01*
X101172Y-70394D01*
X101115Y-70337D01*
X101087Y-70280D01*
X101058Y-70165D01*
X101058Y-70080D01*
X101087Y-69965D01*
X101115Y-69908D01*
X101172Y-69851D01*
X101258Y-69822D01*
X101315Y-69822D01*
X101401Y-69851D01*
X101429Y-69880D01*
X102344Y-70108D02*
X102429Y-70137D01*
X102458Y-70165D01*
X102487Y-70222D01*
X102487Y-70308D01*
X102458Y-70365D01*
X102429Y-70394D01*
X102372Y-70422D01*
X102144Y-70422D01*
X102144Y-69822D01*
X102344Y-69822D01*
X102401Y-69851D01*
X102429Y-69880D01*
X102458Y-69937D01*
X102458Y-69994D01*
X102429Y-70051D01*
X102401Y-70080D01*
X102344Y-70108D01*
X102144Y-70108D01*
X102858Y-70137D02*
X102858Y-70422D01*
X102658Y-69822D02*
X102858Y-70137D01*
X103058Y-69822D01*
X103658Y-69822D02*
X104029Y-69822D01*
X103829Y-70051D01*
X103915Y-70051D01*
X103972Y-70080D01*
X104001Y-70108D01*
X104029Y-70165D01*
X104029Y-70308D01*
X104001Y-70365D01*
X103972Y-70394D01*
X103915Y-70422D01*
X103744Y-70422D01*
X103687Y-70394D01*
X103658Y-70365D01*
X104287Y-70365D02*
X104315Y-70394D01*
X104287Y-70422D01*
X104258Y-70394D01*
X104287Y-70365D01*
X104287Y-70422D01*
X104687Y-69822D02*
X104744Y-69822D01*
X104801Y-69851D01*
X104829Y-69880D01*
X104858Y-69937D01*
X104887Y-70051D01*
X104887Y-70194D01*
X104858Y-70308D01*
X104829Y-70365D01*
X104801Y-70394D01*
X104744Y-70422D01*
X104687Y-70422D01*
X104629Y-70394D01*
X104601Y-70365D01*
X104572Y-70308D01*
X104544Y-70194D01*
X104544Y-70051D01*
X104572Y-69937D01*
X104601Y-69880D01*
X104629Y-69851D01*
X104687Y-69822D01*
X105087Y-70651D02*
X105115Y-70622D01*
X105172Y-70537D01*
X105201Y-70480D01*
X105229Y-70394D01*
X105258Y-70251D01*
X105258Y-70137D01*
X105229Y-69994D01*
X105201Y-69908D01*
X105172Y-69851D01*
X105115Y-69765D01*
X105087Y-69737D01*
X71315Y-69165D02*
X71287Y-69194D01*
X71201Y-69222D01*
X71144Y-69222D01*
X71058Y-69194D01*
X71001Y-69137D01*
X70972Y-69080D01*
X70944Y-68965D01*
X70944Y-68880D01*
X70972Y-68765D01*
X71001Y-68708D01*
X71058Y-68651D01*
X71144Y-68622D01*
X71201Y-68622D01*
X71287Y-68651D01*
X71315Y-68680D01*
X71658Y-69222D02*
X71601Y-69194D01*
X71572Y-69165D01*
X71544Y-69108D01*
X71544Y-68937D01*
X71572Y-68880D01*
X71601Y-68851D01*
X71658Y-68822D01*
X71744Y-68822D01*
X71801Y-68851D01*
X71830Y-68880D01*
X71858Y-68937D01*
X71858Y-69108D01*
X71830Y-69165D01*
X71801Y-69194D01*
X71744Y-69222D01*
X71658Y-69222D01*
X72115Y-68822D02*
X72115Y-69422D01*
X72115Y-68851D02*
X72172Y-68822D01*
X72287Y-68822D01*
X72344Y-68851D01*
X72372Y-68880D01*
X72401Y-68937D01*
X72401Y-69108D01*
X72372Y-69165D01*
X72344Y-69194D01*
X72287Y-69222D01*
X72172Y-69222D01*
X72115Y-69194D01*
X72601Y-68822D02*
X72744Y-69222D01*
X72887Y-68822D02*
X72744Y-69222D01*
X72687Y-69365D01*
X72658Y-69394D01*
X72601Y-69422D01*
X73115Y-69222D02*
X73115Y-68822D01*
X73115Y-68937D02*
X73144Y-68880D01*
X73172Y-68851D01*
X73230Y-68822D01*
X73287Y-68822D01*
X73487Y-69222D02*
X73487Y-68822D01*
X73487Y-68622D02*
X73458Y-68651D01*
X73487Y-68680D01*
X73515Y-68651D01*
X73487Y-68622D01*
X73487Y-68680D01*
X74030Y-68822D02*
X74030Y-69308D01*
X74001Y-69365D01*
X73972Y-69394D01*
X73915Y-69422D01*
X73830Y-69422D01*
X73772Y-69394D01*
X74030Y-69194D02*
X73972Y-69222D01*
X73858Y-69222D01*
X73801Y-69194D01*
X73772Y-69165D01*
X73744Y-69108D01*
X73744Y-68937D01*
X73772Y-68880D01*
X73801Y-68851D01*
X73858Y-68822D01*
X73972Y-68822D01*
X74030Y-68851D01*
X74315Y-69222D02*
X74315Y-68622D01*
X74572Y-69222D02*
X74572Y-68908D01*
X74544Y-68851D01*
X74487Y-68822D01*
X74401Y-68822D01*
X74344Y-68851D01*
X74315Y-68880D01*
X74772Y-68822D02*
X75001Y-68822D01*
X74858Y-68622D02*
X74858Y-69137D01*
X74887Y-69194D01*
X74944Y-69222D01*
X75001Y-69222D01*
X75630Y-68680D02*
X75658Y-68651D01*
X75715Y-68622D01*
X75858Y-68622D01*
X75915Y-68651D01*
X75944Y-68680D01*
X75972Y-68737D01*
X75972Y-68794D01*
X75944Y-68880D01*
X75601Y-69222D01*
X75972Y-69222D01*
X76344Y-68622D02*
X76401Y-68622D01*
X76458Y-68651D01*
X76487Y-68680D01*
X76515Y-68737D01*
X76544Y-68851D01*
X76544Y-68994D01*
X76515Y-69108D01*
X76487Y-69165D01*
X76458Y-69194D01*
X76401Y-69222D01*
X76344Y-69222D01*
X76287Y-69194D01*
X76258Y-69165D01*
X76230Y-69108D01*
X76201Y-68994D01*
X76201Y-68851D01*
X76230Y-68737D01*
X76258Y-68680D01*
X76287Y-68651D01*
X76344Y-68622D01*
X77115Y-69222D02*
X76772Y-69222D01*
X76944Y-69222D02*
X76944Y-68622D01*
X76887Y-68708D01*
X76830Y-68765D01*
X76772Y-68794D01*
X77315Y-68622D02*
X77687Y-68622D01*
X77487Y-68851D01*
X77572Y-68851D01*
X77630Y-68880D01*
X77658Y-68908D01*
X77687Y-68965D01*
X77687Y-69108D01*
X77658Y-69165D01*
X77630Y-69194D01*
X77572Y-69222D01*
X77401Y-69222D01*
X77344Y-69194D01*
X77315Y-69165D01*
X78372Y-69051D02*
X78658Y-69051D01*
X78315Y-69222D02*
X78515Y-68622D01*
X78715Y-69222D01*
X78858Y-68622D02*
X79258Y-68622D01*
X78858Y-69222D01*
X79258Y-69222D01*
X79487Y-69222D02*
X79487Y-68622D01*
X79887Y-68622D02*
X80001Y-68622D01*
X80058Y-68651D01*
X80115Y-68708D01*
X80144Y-68822D01*
X80144Y-69022D01*
X80115Y-69137D01*
X80058Y-69194D01*
X80001Y-69222D01*
X79887Y-69222D01*
X79830Y-69194D01*
X79772Y-69137D01*
X79744Y-69022D01*
X79744Y-68822D01*
X79772Y-68708D01*
X79830Y-68651D01*
X79887Y-68622D01*
X80858Y-68908D02*
X81058Y-68908D01*
X81144Y-69222D02*
X80858Y-69222D01*
X80858Y-68622D01*
X81144Y-68622D01*
X81487Y-69222D02*
X81430Y-69194D01*
X81401Y-69137D01*
X81401Y-68622D01*
X81944Y-69194D02*
X81887Y-69222D01*
X81772Y-69222D01*
X81715Y-69194D01*
X81687Y-69137D01*
X81687Y-68908D01*
X81715Y-68851D01*
X81772Y-68822D01*
X81887Y-68822D01*
X81944Y-68851D01*
X81972Y-68908D01*
X81972Y-68965D01*
X81687Y-69022D01*
X82487Y-69194D02*
X82430Y-69222D01*
X82315Y-69222D01*
X82258Y-69194D01*
X82230Y-69165D01*
X82201Y-69108D01*
X82201Y-68937D01*
X82230Y-68880D01*
X82258Y-68851D01*
X82315Y-68822D01*
X82430Y-68822D01*
X82487Y-68851D01*
X82658Y-68822D02*
X82887Y-68822D01*
X82744Y-68622D02*
X82744Y-69137D01*
X82772Y-69194D01*
X82830Y-69222D01*
X82887Y-69222D01*
X83087Y-69222D02*
X83087Y-68822D01*
X83087Y-68937D02*
X83115Y-68880D01*
X83144Y-68851D01*
X83201Y-68822D01*
X83258Y-68822D01*
X83544Y-69222D02*
X83487Y-69194D01*
X83458Y-69165D01*
X83430Y-69108D01*
X83430Y-68937D01*
X83458Y-68880D01*
X83487Y-68851D01*
X83544Y-68822D01*
X83630Y-68822D01*
X83687Y-68851D01*
X83715Y-68880D01*
X83744Y-68937D01*
X83744Y-69108D01*
X83715Y-69165D01*
X83687Y-69194D01*
X83630Y-69222D01*
X83544Y-69222D01*
X84001Y-68822D02*
X84001Y-69222D01*
X84001Y-68880D02*
X84030Y-68851D01*
X84087Y-68822D01*
X84172Y-68822D01*
X84230Y-68851D01*
X84258Y-68908D01*
X84258Y-69222D01*
X84544Y-69222D02*
X84544Y-68822D01*
X84544Y-68622D02*
X84515Y-68651D01*
X84544Y-68680D01*
X84572Y-68651D01*
X84544Y-68622D01*
X84544Y-68680D01*
X85087Y-69194D02*
X85030Y-69222D01*
X84915Y-69222D01*
X84858Y-69194D01*
X84830Y-69165D01*
X84801Y-69108D01*
X84801Y-68937D01*
X84830Y-68880D01*
X84858Y-68851D01*
X84915Y-68822D01*
X85030Y-68822D01*
X85087Y-68851D01*
X85315Y-69194D02*
X85372Y-69222D01*
X85487Y-69222D01*
X85544Y-69194D01*
X85572Y-69137D01*
X85572Y-69108D01*
X85544Y-69051D01*
X85487Y-69022D01*
X85401Y-69022D01*
X85344Y-68994D01*
X85315Y-68937D01*
X85315Y-68908D01*
X85344Y-68851D01*
X85401Y-68822D01*
X85487Y-68822D01*
X85544Y-68851D01*
X86630Y-69165D02*
X86601Y-69194D01*
X86515Y-69222D01*
X86458Y-69222D01*
X86372Y-69194D01*
X86315Y-69137D01*
X86287Y-69080D01*
X86258Y-68965D01*
X86258Y-68880D01*
X86287Y-68765D01*
X86315Y-68708D01*
X86372Y-68651D01*
X86458Y-68622D01*
X86515Y-68622D01*
X86601Y-68651D01*
X86630Y-68680D01*
X86972Y-69222D02*
X86915Y-69194D01*
X86887Y-69165D01*
X86858Y-69108D01*
X86858Y-68937D01*
X86887Y-68880D01*
X86915Y-68851D01*
X86972Y-68822D01*
X87058Y-68822D01*
X87115Y-68851D01*
X87144Y-68880D01*
X87172Y-68937D01*
X87172Y-69108D01*
X87144Y-69165D01*
X87115Y-69194D01*
X87058Y-69222D01*
X86972Y-69222D01*
X87430Y-69165D02*
X87458Y-69194D01*
X87430Y-69222D01*
X87401Y-69194D01*
X87430Y-69165D01*
X87430Y-69222D01*
X87744Y-69194D02*
X87744Y-69222D01*
X87715Y-69280D01*
X87687Y-69308D01*
X88744Y-69222D02*
X88458Y-69222D01*
X88458Y-68622D01*
X88858Y-68822D02*
X89087Y-68822D01*
X88944Y-68622D02*
X88944Y-69137D01*
X88972Y-69194D01*
X89030Y-69222D01*
X89087Y-69222D01*
X89544Y-69222D02*
X89544Y-68622D01*
X89544Y-69194D02*
X89487Y-69222D01*
X89372Y-69222D01*
X89315Y-69194D01*
X89287Y-69165D01*
X89258Y-69108D01*
X89258Y-68937D01*
X89287Y-68880D01*
X89315Y-68851D01*
X89372Y-68822D01*
X89487Y-68822D01*
X89544Y-68851D01*
X89830Y-69165D02*
X89858Y-69194D01*
X89830Y-69222D01*
X89801Y-69194D01*
X89830Y-69165D01*
X89830Y-69222D01*
X70230Y-68380D02*
X70230Y-77980D01*
X70230Y-71980D02*
X112230Y-71980D01*
X70230Y-68380D02*
X112230Y-68380D01*
X70230Y-74380D02*
X112230Y-74380D01*
X103430Y-75580D02*
X103430Y-77980D01*
X70230Y-76780D02*
X112230Y-76780D01*
X70230Y-75580D02*
X112230Y-75580D01*
X76830Y-75580D02*
X76830Y-76780D01*
G54D11*
X46007Y-30019D02*
X48110Y-30019D01*
X48110Y-30019D02*
X48110Y-32834D01*
X48110Y-32834D02*
X56425Y-32834D01*
X46007Y-30019D02*
X46007Y-34570D01*
G54D12*
X47371Y-42337D02*
X46571Y-42337D01*
X47371Y-41994D01*
X46571Y-41994D01*
X47371Y-41623D02*
X47332Y-41680D01*
X47294Y-41708D01*
X47218Y-41737D01*
X46990Y-41737D01*
X46913Y-41708D01*
X46875Y-41680D01*
X46837Y-41623D01*
X46837Y-41537D01*
X46875Y-41480D01*
X46913Y-41451D01*
X46990Y-41423D01*
X47218Y-41423D01*
X47294Y-41451D01*
X47332Y-41480D01*
X47371Y-41537D01*
X47371Y-41623D01*
X46837Y-41223D02*
X47371Y-41080D01*
X46837Y-40937D01*
X47332Y-40480D02*
X47371Y-40537D01*
X47371Y-40651D01*
X47332Y-40708D01*
X47256Y-40737D01*
X46952Y-40737D01*
X46875Y-40708D01*
X46837Y-40651D01*
X46837Y-40537D01*
X46875Y-40480D01*
X46952Y-40451D01*
X47028Y-40451D01*
X47104Y-40737D01*
X46837Y-40194D02*
X47371Y-40194D01*
X46913Y-40194D02*
X46875Y-40166D01*
X46837Y-40108D01*
X46837Y-40023D01*
X46875Y-39966D01*
X46952Y-39937D01*
X47371Y-39937D01*
X47371Y-39394D02*
X46952Y-39394D01*
X46875Y-39423D01*
X46837Y-39480D01*
X46837Y-39594D01*
X46875Y-39651D01*
X47332Y-39394D02*
X47371Y-39451D01*
X47371Y-39594D01*
X47332Y-39651D01*
X47256Y-39680D01*
X47180Y-39680D01*
X47104Y-39651D01*
X47066Y-39594D01*
X47066Y-39451D01*
X47028Y-39394D01*
G54D11*
X41283Y-52483D02*
X41283Y-27680D01*
X67661Y-52483D02*
X41283Y-52483D01*
X67661Y-27680D02*
X67661Y-52483D01*
X41283Y-27680D02*
X67661Y-27680D01*
X64905Y-32834D02*
X64905Y-39492D01*
X57764Y-32834D02*
X64905Y-32834D01*
X57764Y-32677D02*
X57764Y-29648D01*
X65692Y-29650D02*
X57764Y-29650D01*
X65692Y-39492D02*
X65692Y-29650D01*
X64905Y-39492D02*
X65692Y-39492D01*
X57764Y-50515D02*
X57764Y-49728D01*
X65692Y-50515D02*
X57764Y-50515D01*
X65692Y-40948D02*
X65692Y-50515D01*
X64905Y-40948D02*
X65692Y-40948D01*
X64905Y-49728D02*
X64905Y-40948D01*
X57764Y-49728D02*
X64905Y-49728D01*
X45220Y-50515D02*
X45220Y-44413D01*
X56386Y-50515D02*
X45220Y-50515D01*
X56386Y-49728D02*
X56386Y-50515D01*
X46007Y-49728D02*
X56386Y-49728D01*
X46007Y-44413D02*
X46007Y-49728D01*
X46007Y-44413D02*
X45220Y-44413D01*
X45220Y-43390D02*
X45220Y-35555D01*
X46007Y-43390D02*
X45220Y-43390D01*
X46007Y-35555D02*
X46007Y-43390D01*
X46007Y-35555D02*
X45220Y-35555D01*
X46007Y-34570D02*
X45220Y-34570D01*
X45220Y-29648D02*
X45220Y-34570D01*
X45220Y-29648D02*
X56384Y-29648D01*
X56384Y-32834D02*
X56384Y-29648D01*
G54D13*
X63464Y-34153D03*
X63858Y-34153D03*
X64645Y-34881D03*
X63346Y-34704D03*
X64645Y-33740D03*
X64173Y-33661D03*
X63838Y-33818D03*
X63444Y-33818D03*
X63444Y-33129D03*
X64015Y-33149D03*
X58425Y-33267D03*
X59015Y-33307D03*
X63858Y-33464D03*
X63464Y-33464D03*
X64566Y-37696D03*
X62952Y-33275D03*
X63385Y-37696D03*
X63779Y-37696D03*
X62559Y-33275D03*
X62165Y-33275D03*
X61555Y-33799D03*
X64173Y-37696D03*
X64062Y-42602D03*
X64456Y-42602D03*
X63787Y-43003D03*
X64102Y-42996D03*
X63716Y-42606D03*
X64496Y-42996D03*
X64653Y-43744D03*
X64259Y-43744D03*
X63944Y-43751D03*
X62350Y-47901D03*
X64220Y-48429D03*
X62059Y-48488D03*
X64543Y-46566D03*
X62716Y-46909D03*
X61972Y-46921D03*
X60681Y-46791D03*
X47507Y-44417D03*
X46535Y-43897D03*
X47838Y-44417D03*
X47188Y-38653D03*
X47503Y-38653D03*
X47503Y-39047D03*
X47188Y-39047D03*
X50511Y-33031D03*
X52066Y-33681D03*
X53976Y-33740D03*
X47244Y-32283D03*
X51732Y-33681D03*
X47755Y-32165D03*
X46496Y-32145D03*
X47677Y-30314D03*
X48248Y-33149D03*
X55200Y-49358D03*
X55200Y-49043D03*
X54807Y-49043D03*
X54807Y-49358D03*
X56539Y-49358D03*
X56933Y-49043D03*
X56933Y-49358D03*
X56066Y-49358D03*
X55673Y-49358D03*
X49295Y-46720D03*
X48980Y-48492D03*
X49374Y-48492D03*
X49688Y-46720D03*
X50555Y-46720D03*
X50240Y-48492D03*
X49846Y-48492D03*
X50161Y-46720D03*
X48114Y-49358D03*
X48114Y-49043D03*
X48507Y-49043D03*
X48507Y-49358D03*
X58940Y-49240D03*
X58933Y-48818D03*
G54D14*
X51375Y-48500D03*
X51690Y-48500D03*
X52320Y-48500D03*
X52005Y-48500D03*
X52635Y-48500D03*
X52950Y-48500D03*
X53108Y-48815D03*
X52793Y-48815D03*
X52163Y-48815D03*
X52478Y-48815D03*
X51848Y-48815D03*
X51533Y-48815D03*
X52911Y-49091D03*
X52596Y-49091D03*
X51966Y-49091D03*
X52281Y-49091D03*
X51651Y-49091D03*
X51336Y-49091D03*
X51336Y-47871D03*
X51651Y-47871D03*
X52281Y-47871D03*
X51966Y-47871D03*
X52596Y-47871D03*
X52911Y-47871D03*
X53068Y-48185D03*
X52753Y-48185D03*
X52123Y-48185D03*
X52438Y-48185D03*
X51809Y-48185D03*
X51494Y-48185D03*
X51533Y-47595D03*
X51848Y-47595D03*
X52478Y-47595D03*
X52163Y-47595D03*
X52793Y-47595D03*
X53108Y-47595D03*
X52950Y-47280D03*
X52635Y-47280D03*
X52005Y-47280D03*
X52320Y-47280D03*
X51690Y-47280D03*
G54D13*
X48291Y-35232D03*
X51291Y-44267D03*
X51200Y-44602D03*
X51204Y-44925D03*
X51291Y-43874D03*
X51566Y-43716D03*
X51535Y-44736D03*
X51535Y-45066D03*
X51547Y-44413D03*
X51547Y-44082D03*
X48582Y-45511D03*
X48110Y-45866D03*
X48110Y-45472D03*
X48346Y-46771D03*
X48582Y-45905D03*
X48346Y-46417D03*
X47362Y-46141D03*
X46417Y-47322D03*
X46889Y-46889D03*
X47362Y-46889D03*
X47362Y-47322D03*
X46889Y-47322D03*
X46417Y-46496D03*
X46417Y-46889D03*
X47362Y-46496D03*
X64173Y-36909D03*
X63385Y-37303D03*
X63779Y-37303D03*
X64173Y-37303D03*
X63779Y-36909D03*
X64062Y-46303D03*
X63385Y-44291D03*
X64645Y-44094D03*
X47208Y-36555D03*
X48283Y-34952D03*
G54D14*
X51375Y-47280D03*
X48124Y-36145D03*
X48124Y-36421D03*
G54D15*
X46850Y-32165D03*
X64409Y-33307D03*
X64606Y-49409D03*
G54D13*
X54350Y-33720D03*
X63366Y-35964D03*
X51220Y-41417D03*
X48007Y-35212D03*
X47200Y-36862D03*
X47476Y-33153D03*
X47870Y-33153D03*
X52992Y-36181D03*
X55078Y-48464D03*
X58503Y-49409D03*
X61366Y-49437D03*
X64645Y-45196D03*
X57248Y-47539D03*
X64602Y-47311D03*
X64602Y-46996D03*
X63503Y-46732D03*
X64606Y-47637D03*
X64606Y-48425D03*
X64606Y-48897D03*
X64645Y-45511D03*
X63307Y-45551D03*
X64645Y-44409D03*
X63917Y-46893D03*
X63322Y-45913D03*
X63669Y-46303D03*
X63354Y-46311D03*
X64645Y-35708D03*
X64645Y-34547D03*
X58779Y-33779D03*
X64665Y-36003D03*
X62834Y-37500D03*
X59173Y-33779D03*
X63385Y-36909D03*
X64566Y-37303D03*
X64566Y-36909D03*
X64062Y-45909D03*
X63669Y-45909D03*
X56417Y-46299D03*
X57169Y-46870D03*
X57681Y-46870D03*
X56811Y-46299D03*
X59996Y-33263D03*
X59606Y-33267D03*
X61334Y-33263D03*
X61728Y-33263D03*
X60862Y-33263D03*
X60468Y-33263D03*
X61122Y-46311D03*
X62330Y-49421D03*
X57838Y-47460D03*
X61393Y-48484D03*
X56968Y-47834D03*
X58468Y-47578D03*
X58586Y-46870D03*
X52051Y-46326D03*
X58153Y-46870D03*
X51653Y-46338D03*
X61389Y-47940D03*
X61480Y-46314D03*
X62834Y-39862D03*
X63307Y-42559D03*
X52874Y-43464D03*
X52007Y-43149D03*
X49606Y-39330D03*
X63582Y-43740D03*
X52007Y-40826D03*
X51456Y-43149D03*
X50988Y-43157D03*
X50984Y-42716D03*
X62913Y-42204D03*
X63228Y-43818D03*
X62830Y-40255D03*
X46889Y-46496D03*
X63307Y-42992D03*
X62913Y-42637D03*
X46299Y-33877D03*
X46303Y-33511D03*
X49606Y-41535D03*
X49921Y-41338D03*
X53779Y-37795D03*
X54330Y-37795D03*
X54173Y-39133D03*
X54015Y-41338D03*
X47838Y-40023D03*
X47799Y-43708D03*
X47846Y-40444D03*
X49566Y-42362D03*
X54803Y-44094D03*
X55078Y-48031D03*
X55433Y-43464D03*
X54566Y-42362D03*
X47515Y-42799D03*
X47830Y-42799D03*
X46480Y-42669D03*
X46795Y-42669D03*
X46795Y-43062D03*
X46480Y-43062D03*
X47503Y-44047D03*
X47818Y-44047D03*
X47830Y-43271D03*
X47515Y-43271D03*
X48027Y-34964D03*
X46480Y-43456D03*
X46795Y-43456D03*
X47976Y-37669D03*
X47661Y-37669D03*
X46559Y-39047D03*
X46874Y-39047D03*
X46874Y-38653D03*
X46559Y-38653D03*
X49791Y-38086D03*
X47803Y-41759D03*
X47814Y-41500D03*
X49881Y-38976D03*
X47468Y-43708D03*
X47807Y-42094D03*
X47830Y-41137D03*
X47830Y-40807D03*
X48976Y-41299D03*
X47838Y-39535D03*
X47814Y-39251D03*
X52559Y-43700D03*
X52874Y-43976D03*
X52559Y-43228D03*
X46287Y-34224D03*
X49606Y-36732D03*
X61200Y-33799D03*
X56535Y-33799D03*
X62854Y-37874D03*
X46358Y-30354D03*
G54D14*
X56102Y-43975D03*
G54D13*
X61386Y-35540D03*
X61024Y-35536D03*
X61024Y-35198D03*
X61394Y-35193D03*
G54D16*
X46007Y-34630D03*
X46007Y-35063D03*
X46007Y-35496D03*
X46007Y-44335D03*
X46007Y-43902D03*
X46007Y-43469D03*
X64905Y-39571D03*
X64905Y-40004D03*
X64905Y-40437D03*
X64905Y-40870D03*
G54D17*
X49299Y-51303D03*
X66622Y-51303D03*
X66621Y-28862D03*
G54D13*
X58299Y-40354D03*
X58299Y-39921D03*
X58082Y-40138D03*
X58515Y-40138D03*
X61011Y-37386D03*
X61169Y-44732D03*
X61366Y-44913D03*
X58732Y-40354D03*
X57866Y-40354D03*
X57433Y-40354D03*
X57000Y-40354D03*
X56783Y-40571D03*
X57216Y-40571D03*
X57653Y-40571D03*
X58082Y-40571D03*
X58515Y-40571D03*
X58515Y-41004D03*
X58082Y-41004D03*
X57653Y-41004D03*
X57216Y-41004D03*
X56783Y-41004D03*
X57000Y-40787D03*
X57433Y-40787D03*
X58299Y-40787D03*
X57866Y-40787D03*
X58732Y-40787D03*
X58732Y-39921D03*
X57866Y-39921D03*
X57433Y-39921D03*
X57000Y-39921D03*
X56783Y-40138D03*
X57216Y-40138D03*
X57653Y-40138D03*
X58515Y-39705D03*
X58082Y-39705D03*
X57653Y-39705D03*
X57216Y-39705D03*
X56783Y-39705D03*
X57000Y-39488D03*
X57433Y-39488D03*
X58299Y-39488D03*
X57866Y-39488D03*
X58732Y-39488D03*
X58732Y-39055D03*
X57866Y-39055D03*
X58299Y-39055D03*
X57433Y-39055D03*
X57000Y-39055D03*
X56783Y-39272D03*
X57216Y-39272D03*
X57653Y-39272D03*
X58082Y-39272D03*
X58515Y-39272D03*
G54D14*
X48990Y-36401D03*
X48990Y-36106D03*
X56220Y-47676D03*
X56220Y-47243D03*
X55787Y-47242D03*
X55787Y-47676D03*
G54D18*
X49488Y-33712D03*
X49488Y-34082D03*
X49877Y-33724D03*
X49877Y-34094D03*
X51445Y-35036D03*
X51445Y-35406D03*
G54D19*
X61870Y-36559D03*
X61500Y-36559D03*
G54D18*
X60516Y-41366D03*
X60516Y-40996D03*
X55299Y-38559D03*
X55299Y-38929D03*
X60882Y-40980D03*
X60882Y-41350D03*
X60618Y-38784D03*
X60618Y-38414D03*
X60264Y-38402D03*
X60264Y-38772D03*
X59665Y-38024D03*
X59665Y-37654D03*
G54D20*
X59851Y-43397D03*
X59511Y-43397D03*
G54D21*
X57825Y-35952D03*
X57825Y-36292D03*
G54D20*
X59843Y-42393D03*
X59503Y-42393D03*
X58800Y-35740D03*
X58460Y-35740D03*
X57442Y-36787D03*
X57102Y-36787D03*
G54D21*
X58472Y-36568D03*
X58472Y-36228D03*
G54D20*
X57434Y-35512D03*
X57094Y-35512D03*
X58957Y-37870D03*
X58617Y-37870D03*
G54D21*
X59252Y-36247D03*
X59252Y-36587D03*
G54D20*
X58260Y-42511D03*
X57920Y-42511D03*
X57231Y-42503D03*
X57571Y-42503D03*
G54D21*
X61173Y-42713D03*
X61173Y-42373D03*
G54D20*
X60803Y-43082D03*
X60463Y-43082D03*
G54D21*
X60177Y-42721D03*
X60177Y-42381D03*
G54D20*
X57237Y-37984D03*
X56897Y-37984D03*
X56568Y-36500D03*
X56228Y-36500D03*
X55550Y-36496D03*
X55890Y-36496D03*
X58044Y-37992D03*
X57704Y-37992D03*
G54D22*
X59016Y-35305D03*
X59370Y-35305D03*
X61547Y-42893D03*
X61547Y-43247D03*
X61173Y-43082D03*
X61173Y-43436D03*
X60500Y-42712D03*
X60854Y-42712D03*
X60149Y-43082D03*
X60149Y-43436D03*
X59500Y-43084D03*
X59854Y-43084D03*
X59500Y-42720D03*
X59854Y-42720D03*
X59201Y-43078D03*
X59201Y-42724D03*
X59577Y-36584D03*
X59577Y-36230D03*
X57232Y-45704D03*
X57586Y-45704D03*
X57622Y-35059D03*
X57976Y-35059D03*
X57921Y-42830D03*
X57921Y-43184D03*
X57570Y-42830D03*
X57570Y-43184D03*
X57567Y-42181D03*
X57921Y-42181D03*
X59012Y-37480D03*
X59012Y-37126D03*
X59248Y-35744D03*
X59602Y-35744D03*
X58799Y-36575D03*
X58799Y-36221D03*
X57441Y-36289D03*
X57441Y-35935D03*
X51976Y-36496D03*
X52330Y-36496D03*
X57825Y-35522D03*
X58179Y-35522D03*
X58071Y-37579D03*
X58071Y-37225D03*
X57677Y-37579D03*
X57677Y-37225D03*
X57260Y-37575D03*
X57260Y-37221D03*
X57825Y-36781D03*
X58179Y-36781D03*
X57764Y-34433D03*
X58118Y-34433D03*
X56874Y-37567D03*
X56874Y-37213D03*
X58547Y-37480D03*
X58547Y-37126D03*
X62185Y-35279D03*
X62539Y-35279D03*
X48532Y-37130D03*
X48532Y-36776D03*
X48532Y-37457D03*
X48532Y-37811D03*
X60264Y-38110D03*
X60618Y-38110D03*
X60268Y-39083D03*
X60622Y-39083D03*
X60264Y-39406D03*
X60618Y-39406D03*
X60528Y-40307D03*
X60882Y-40307D03*
X60516Y-41649D03*
X60870Y-41649D03*
X55283Y-39252D03*
X54929Y-39252D03*
X60536Y-40649D03*
X60890Y-40649D03*
G54D23*
X57818Y-48523D03*
X47188Y-48523D03*
G54D14*
X56378Y-43975D03*
X55787Y-48109D03*
G54D18*
X55460Y-48779D03*
X55460Y-48409D03*
G54D17*
X49299Y-28862D03*
G54D16*
X56426Y-49768D03*
X56859Y-49768D03*
X57292Y-49768D03*
X57726Y-49768D03*
X56425Y-32755D03*
X56858Y-32755D03*
X57291Y-32755D03*
X57725Y-32755D03*
G54D24*
X57234Y-43826D03*
X57734Y-43826D03*
X58234Y-43826D03*
X58234Y-45077D03*
X57234Y-45077D03*
X56579Y-35874D03*
X56079Y-35874D03*
X55579Y-35874D03*
X55579Y-34623D03*
X56579Y-34623D03*
G54D25*
X64586Y-39212D03*
G54D26*
X64346Y-40550D03*
G54D27*
X63834Y-40903D03*
G54D28*
X64188Y-40903D03*
G54D29*
X64173Y-41208D03*
G54D30*
X64074Y-41509D03*
G54D31*
X64720Y-39212D03*
G54D32*
X63645Y-41011D03*
G54D33*
X63660Y-41399D03*
G54D32*
X63641Y-41405D03*
G54D34*
X63661Y-41550D03*
G54D35*
X64326Y-39658D03*
G54D36*
X64342Y-39677D03*
G54D31*
X64346Y-40295D03*
G54D33*
X64327Y-40295D03*
G54D37*
X64342Y-39897D03*
G54D38*
X63243Y-38642D03*
G54D39*
X63262Y-38632D03*
G54D40*
X63281Y-38642D03*
G54D41*
X63300Y-38642D03*
G54D42*
X63319Y-38632D03*
G54D43*
X63338Y-38642D03*
G54D44*
X63357Y-38642D03*
G54D45*
X63376Y-38908D03*
X63376Y-38376D03*
G54D46*
X63395Y-38946D03*
X63395Y-38338D03*
G54D47*
X63414Y-38974D03*
G54D38*
X63414Y-38300D03*
G54D48*
X63433Y-38993D03*
G54D34*
X63433Y-38281D03*
G54D49*
X63452Y-39003D03*
X63452Y-38281D03*
G54D31*
X63471Y-39003D03*
G54D46*
X63471Y-38642D03*
G54D50*
X63471Y-38271D03*
G54D51*
X63490Y-39012D03*
G54D35*
X63490Y-38632D03*
G54D51*
X63490Y-38271D03*
G54D52*
X63509Y-38642D03*
G54D40*
X63528Y-38642D03*
G54D53*
X63547Y-38642D03*
G54D47*
X63566Y-38822D03*
G54D38*
X63566Y-38452D03*
G54D34*
X63585Y-38851D03*
X63585Y-38433D03*
G54D54*
X63604Y-38860D03*
X63604Y-38423D03*
G54D55*
X63623Y-38870D03*
X63623Y-38414D03*
G54D49*
X63642Y-41986D03*
G54D56*
X63641Y-41535D03*
G54D57*
X63645Y-40783D03*
G54D54*
X63642Y-40095D03*
G54D36*
X63642Y-39677D03*
G54D31*
X63642Y-38642D03*
G54D58*
X63661Y-41976D03*
G54D31*
X63661Y-41017D03*
G54D59*
X63661Y-40770D03*
G54D58*
X63661Y-40095D03*
G54D35*
X63661Y-39658D03*
G54D38*
X63661Y-38642D03*
G54D58*
X63680Y-41976D03*
G54D34*
X63680Y-41549D03*
G54D31*
X63680Y-41397D03*
X63680Y-41017D03*
G54D39*
X63680Y-40760D03*
G54D58*
X63680Y-40095D03*
G54D39*
X63680Y-39639D03*
G54D45*
X63680Y-38642D03*
G54D58*
X63699Y-41976D03*
G54D34*
X63699Y-41549D03*
G54D31*
X63699Y-41378D03*
X63699Y-41036D03*
G54D60*
X63699Y-40751D03*
G54D58*
X63699Y-40095D03*
G54D60*
X63699Y-39630D03*
G54D61*
X63699Y-38642D03*
G54D34*
X63718Y-41967D03*
X63718Y-41549D03*
G54D31*
X63718Y-41378D03*
X63718Y-41036D03*
G54D49*
X63718Y-40599D03*
G54D34*
X63718Y-40105D03*
G54D58*
X63718Y-39487D03*
G54D31*
X63718Y-38756D03*
X63718Y-38528D03*
G54D34*
X63737Y-41967D03*
X63737Y-41549D03*
G54D31*
X63737Y-41359D03*
X63737Y-41055D03*
G54D54*
X63737Y-40570D03*
G54D48*
X63737Y-40095D03*
G54D49*
X63737Y-39459D03*
G54D51*
X63737Y-38765D03*
X63737Y-38518D03*
G54D34*
X63756Y-41967D03*
G54D48*
X63756Y-41558D03*
G54D31*
X63756Y-41359D03*
X63756Y-41055D03*
X63756Y-40561D03*
G54D50*
X63756Y-40152D03*
G54D31*
X63756Y-40048D03*
G54D54*
X63756Y-39430D03*
G54D34*
X63775Y-41967D03*
G54D48*
X63775Y-41558D03*
G54D31*
X63775Y-41340D03*
G54D50*
X63775Y-41064D03*
G54D31*
X63775Y-40561D03*
X63775Y-40162D03*
G54D50*
X63775Y-40038D03*
G54D54*
X63775Y-39430D03*
G54D48*
X63794Y-41957D03*
X63794Y-41558D03*
G54D31*
X63794Y-41340D03*
X63794Y-41074D03*
X63794Y-40542D03*
X63794Y-40162D03*
X63794Y-40029D03*
G54D54*
X63794Y-39411D03*
G54D50*
X63813Y-41900D03*
G54D48*
X63813Y-41558D03*
G54D31*
X63813Y-41321D03*
G54D50*
X63813Y-41083D03*
G54D31*
X63813Y-40542D03*
X63813Y-40162D03*
X63813Y-40029D03*
X63813Y-39402D03*
G54D50*
X63832Y-41900D03*
G54D38*
X63832Y-41568D03*
G54D31*
X63832Y-41321D03*
X63832Y-41093D03*
X63832Y-40542D03*
G54D50*
X63832Y-40171D03*
G54D31*
X63832Y-40029D03*
X63832Y-39402D03*
X63851Y-41891D03*
X63851Y-41625D03*
X63851Y-41302D03*
G54D50*
X63851Y-41102D03*
G54D31*
X63851Y-40542D03*
X63851Y-40181D03*
G54D50*
X63851Y-40019D03*
G54D62*
X63851Y-38860D03*
G54D36*
X63851Y-38404D03*
G54D50*
X63870Y-41881D03*
X63870Y-41634D03*
G54D31*
X63870Y-41302D03*
X63870Y-41112D03*
X63870Y-40542D03*
X63870Y-40181D03*
X63870Y-40010D03*
G54D45*
X63870Y-38851D03*
G54D36*
X63870Y-38404D03*
G54D50*
X63889Y-41881D03*
G54D31*
X63889Y-41644D03*
X63889Y-41283D03*
G54D50*
X63889Y-41121D03*
G54D31*
X63889Y-40561D03*
G54D50*
X63889Y-40190D03*
G54D31*
X63889Y-40010D03*
G54D61*
X63889Y-38832D03*
G54D36*
X63889Y-38404D03*
G54D50*
X63908Y-41881D03*
G54D31*
X63908Y-41644D03*
X63908Y-41283D03*
X63908Y-41131D03*
G54D54*
X63908Y-40570D03*
G54D31*
X63908Y-40200D03*
X63908Y-40010D03*
G54D61*
X63908Y-38832D03*
G54D36*
X63908Y-38404D03*
G54D31*
X63927Y-41872D03*
X63927Y-41644D03*
X63927Y-41264D03*
G54D50*
X63927Y-41140D03*
G54D54*
X63927Y-40589D03*
G54D31*
X63927Y-40200D03*
X63927Y-39991D03*
G54D49*
X63927Y-38718D03*
G54D50*
X63946Y-41862D03*
X63946Y-41653D03*
G54D48*
X63946Y-41197D03*
G54D58*
X63946Y-40608D03*
G54D31*
X63946Y-40200D03*
X63946Y-39991D03*
X63946Y-38699D03*
G54D50*
X63965Y-41862D03*
G54D31*
X63965Y-41663D03*
G54D34*
X63965Y-41207D03*
G54D60*
X63965Y-40751D03*
G54D50*
X63965Y-40209D03*
G54D31*
X63965Y-39991D03*
X63965Y-38680D03*
G54D50*
X63984Y-41862D03*
G54D31*
X63984Y-41663D03*
G54D58*
X63984Y-41197D03*
G54D39*
X63984Y-40760D03*
G54D31*
X63984Y-40219D03*
X63984Y-39972D03*
G54D63*
X63987Y-39782D03*
G54D64*
X63984Y-38946D03*
G54D31*
X63984Y-38680D03*
G54D64*
X63984Y-38509D03*
G54D31*
X64003Y-41853D03*
G54D50*
X64003Y-41672D03*
G54D49*
X64003Y-41207D03*
G54D35*
X64003Y-40779D03*
G54D31*
X64003Y-40219D03*
X64003Y-39972D03*
G54D50*
X64003Y-38689D03*
G54D30*
X64074Y-42005D03*
G54D50*
X64022Y-41843D03*
X64022Y-41672D03*
G54D61*
X64022Y-40789D03*
G54D31*
X64022Y-40219D03*
X64022Y-39972D03*
X64022Y-38699D03*
G54D50*
X64041Y-41843D03*
G54D31*
X64041Y-41682D03*
X64041Y-40675D03*
G54D54*
X64041Y-40228D03*
G54D31*
X64041Y-39972D03*
G54D54*
X64041Y-38708D03*
G54D31*
X64060Y-41834D03*
X64060Y-41682D03*
G54D54*
X64060Y-40665D03*
G54D65*
X64060Y-40095D03*
G54D61*
X64060Y-38832D03*
G54D46*
X64060Y-38433D03*
G54D50*
X64079Y-41824D03*
X64079Y-41691D03*
G54D31*
X64079Y-40656D03*
G54D39*
X64079Y-40095D03*
G54D36*
X64079Y-38841D03*
G54D46*
X64079Y-38433D03*
G54D50*
X64098Y-41824D03*
X64098Y-41691D03*
G54D54*
X64098Y-40646D03*
G54D39*
X64098Y-40095D03*
G54D45*
X64098Y-38851D03*
G54D46*
X64098Y-38433D03*
G54D50*
X64117Y-41824D03*
G54D31*
X64117Y-41701D03*
G54D54*
X64117Y-40646D03*
G54D66*
X64117Y-40095D03*
G54D67*
X63984Y-39382D03*
G54D62*
X64117Y-38860D03*
G54D46*
X64117Y-38433D03*
G54D31*
X64136Y-41815D03*
X64136Y-41701D03*
X64136Y-40637D03*
X64136Y-40257D03*
X64136Y-39934D03*
G54D54*
X64136Y-39392D03*
X64136Y-38765D03*
G54D50*
X64155Y-41805D03*
X64155Y-41710D03*
G54D54*
X64155Y-40627D03*
G54D31*
X64155Y-40257D03*
X64155Y-39934D03*
X64155Y-39402D03*
X64155Y-38756D03*
G54D34*
X64174Y-41758D03*
G54D31*
X64174Y-40618D03*
X64174Y-40276D03*
X64174Y-39934D03*
G54D54*
X64174Y-39411D03*
G54D31*
X64174Y-38756D03*
G54D34*
X64193Y-41758D03*
G54D54*
X64193Y-40608D03*
G54D31*
X64193Y-40276D03*
X64193Y-39915D03*
X64193Y-39421D03*
X64193Y-38737D03*
G54D58*
X64212Y-41767D03*
G54D54*
X64212Y-40608D03*
G54D31*
X64212Y-40276D03*
X64212Y-39915D03*
G54D54*
X64212Y-39430D03*
G54D31*
X64212Y-38737D03*
G54D49*
X64231Y-41758D03*
G54D31*
X64231Y-40599D03*
X64231Y-40276D03*
X64231Y-39915D03*
G54D54*
X64231Y-39449D03*
G54D31*
X64231Y-38718D03*
G54D68*
X64228Y-38509D03*
G54D49*
X64250Y-41758D03*
G54D54*
X64250Y-40589D03*
G54D31*
X64250Y-40295D03*
X64250Y-39896D03*
G54D58*
X64250Y-39468D03*
G54D68*
X64228Y-38946D03*
G54D31*
X64250Y-38718D03*
G54D49*
X64269Y-41758D03*
G54D31*
X64269Y-40580D03*
G54D69*
X63995Y-40416D03*
G54D31*
X64269Y-40295D03*
X64269Y-39896D03*
G54D54*
X64269Y-39772D03*
G54D38*
X64269Y-39516D03*
G54D31*
X64269Y-39212D03*
X64269Y-38699D03*
X64288Y-41758D03*
G54D54*
X64288Y-40570D03*
G54D31*
X64288Y-40295D03*
X64288Y-39896D03*
G54D60*
X64288Y-39630D03*
G54D49*
X64288Y-39212D03*
G54D31*
X64288Y-38699D03*
X64307Y-41758D03*
X64307Y-40561D03*
X64307Y-40295D03*
X64307Y-39896D03*
G54D59*
X64307Y-39649D03*
G54D34*
X64307Y-39212D03*
G54D50*
X64307Y-38689D03*
G54D31*
X64326Y-41758D03*
G54D54*
X64326Y-40551D03*
G54D37*
X64326Y-39897D03*
G54D31*
X64326Y-38680D03*
G54D55*
X64345Y-41758D03*
G54D25*
X64393Y-39212D03*
G54D70*
X64478Y-40162D03*
X64497Y-40162D03*
X64516Y-40162D03*
G54D48*
X64669Y-39212D03*
G54D34*
X64687Y-39212D03*
G54D49*
X64704Y-39212D03*
G54D71*
X61271Y-45224D03*
X61074Y-45224D03*
X61468Y-45224D03*
X61468Y-44437D03*
X61271Y-44437D03*
X61074Y-44437D03*
G54D72*
X60877Y-45027D03*
X60877Y-44830D03*
X60877Y-44633D03*
X61665Y-44830D03*
X61665Y-44633D03*
X61665Y-45027D03*
G54D73*
X61271Y-44830D03*
G54D22*
X62130Y-44826D03*
X62484Y-44826D03*
G54D74*
X57751Y-40028D03*
G54D75*
X58242Y-40948D03*
X58242Y-40580D03*
X58242Y-40216D03*
X58242Y-39845D03*
X58242Y-39480D03*
X58242Y-39113D03*
X58437Y-39113D03*
X58439Y-39480D03*
X58439Y-39845D03*
X58439Y-40216D03*
X58439Y-40580D03*
X58439Y-40948D03*
X58827Y-40948D03*
X58827Y-40580D03*
X58827Y-40216D03*
X58827Y-39845D03*
X58827Y-39480D03*
X58827Y-39113D03*
X58630Y-39113D03*
X58630Y-39480D03*
X58630Y-39845D03*
X58630Y-40216D03*
X58630Y-40580D03*
X58630Y-40948D03*
X57462Y-40948D03*
X57462Y-40580D03*
X57462Y-40216D03*
X57462Y-39845D03*
X57462Y-39480D03*
X57462Y-39113D03*
X57657Y-39113D03*
X57659Y-39480D03*
X57659Y-39845D03*
X57659Y-40216D03*
X57659Y-40580D03*
X57659Y-40948D03*
X58047Y-40948D03*
X58047Y-40580D03*
X58047Y-40216D03*
X58047Y-39845D03*
X58047Y-39480D03*
X58047Y-39113D03*
X57850Y-39113D03*
X57850Y-39480D03*
X57850Y-39845D03*
X57850Y-40216D03*
X57850Y-40580D03*
X57850Y-40948D03*
X57067Y-40948D03*
X57067Y-40580D03*
X57067Y-40216D03*
X57067Y-39845D03*
X57067Y-39480D03*
X57067Y-39113D03*
X57264Y-39113D03*
X57265Y-39480D03*
X57265Y-39845D03*
X57265Y-40216D03*
X57265Y-40580D03*
X57265Y-40948D03*
X56875Y-40948D03*
X56875Y-40580D03*
X56875Y-40216D03*
X56875Y-39845D03*
X56875Y-39480D03*
X56875Y-39113D03*
G54D76*
X58836Y-38554D03*
X59033Y-38554D03*
X58638Y-38554D03*
X58441Y-38554D03*
X58245Y-38554D03*
X58048Y-38554D03*
X57851Y-38554D03*
X57655Y-38554D03*
X57458Y-38554D03*
X57260Y-38554D03*
X57063Y-38554D03*
X56866Y-38554D03*
X56671Y-38554D03*
G54D77*
X59130Y-38330D03*
X58933Y-38330D03*
X58738Y-38330D03*
X58541Y-38330D03*
X58343Y-38330D03*
X58146Y-38330D03*
X57950Y-38330D03*
X57753Y-38330D03*
X57556Y-38330D03*
X57360Y-38330D03*
X57163Y-38330D03*
X56966Y-38330D03*
X56768Y-38330D03*
X56571Y-38330D03*
G54D76*
X56473Y-38554D03*
G54D78*
X59453Y-38653D03*
G54D76*
X59228Y-38753D03*
G54D78*
X59453Y-38852D03*
X59453Y-39048D03*
X59453Y-39245D03*
X59453Y-39442D03*
X59453Y-39638D03*
X59451Y-39835D03*
X59453Y-40032D03*
X59453Y-40228D03*
X59453Y-40427D03*
X59453Y-40622D03*
X59453Y-40820D03*
X59453Y-41017D03*
X59453Y-41212D03*
X59453Y-41400D03*
G54D76*
X59228Y-38950D03*
X59228Y-39145D03*
X59228Y-39343D03*
X59228Y-39540D03*
X59228Y-39737D03*
X59228Y-39933D03*
X59228Y-40132D03*
X59228Y-40327D03*
X59228Y-40523D03*
X59228Y-40722D03*
X59228Y-40918D03*
X59228Y-41312D03*
X59228Y-41115D03*
X58830Y-41505D03*
X59026Y-41505D03*
X58633Y-41505D03*
X58436Y-41505D03*
X58238Y-41505D03*
X58043Y-41505D03*
X57846Y-41505D03*
X57648Y-41505D03*
X57451Y-41505D03*
X57255Y-41505D03*
X57058Y-41505D03*
X56860Y-41505D03*
X56665Y-41505D03*
G54D77*
X59123Y-41730D03*
X58926Y-41730D03*
X58731Y-41730D03*
X58535Y-41730D03*
X58338Y-41730D03*
X58141Y-41730D03*
X57943Y-41730D03*
X57746Y-41730D03*
X57550Y-41729D03*
X57353Y-41730D03*
X57156Y-41730D03*
X56960Y-41730D03*
X56763Y-41730D03*
X56566Y-41730D03*
G54D76*
X56468Y-41505D03*
G54D77*
X56368Y-41730D03*
X56374Y-38330D03*
G54D78*
X56051Y-38652D03*
G54D76*
X56276Y-38751D03*
G54D78*
X56051Y-38849D03*
X56051Y-39046D03*
X56051Y-39243D03*
X56051Y-39440D03*
X56051Y-39637D03*
X56051Y-39833D03*
X56051Y-40030D03*
X56051Y-40227D03*
X56051Y-40424D03*
X56051Y-40621D03*
X56051Y-40818D03*
X56051Y-41015D03*
X56051Y-41210D03*
X56051Y-41407D03*
G54D76*
X56276Y-38948D03*
X56276Y-39144D03*
X56276Y-39341D03*
X56276Y-39538D03*
X56276Y-39735D03*
X56276Y-39932D03*
X56276Y-40129D03*
X56276Y-40326D03*
X56276Y-40522D03*
X56276Y-40719D03*
X56276Y-40916D03*
X56276Y-41310D03*
X56276Y-41113D03*
G54D75*
X56679Y-39113D03*
X56679Y-39480D03*
X56679Y-39845D03*
X56679Y-40216D03*
X56679Y-40580D03*
X56679Y-40948D03*
G54D22*
X47617Y-35551D03*
X47263Y-35551D03*
X46752Y-35984D03*
X47106Y-35984D03*
G54D79*
X47047Y-37653D03*
G54D80*
X47596Y-36692D03*
X46498Y-36692D03*
G54D22*
X49842Y-33322D03*
X49488Y-33322D03*
X48445Y-35551D03*
X48799Y-35551D03*
G54D81*
X46772Y-44821D03*
G54D82*
X46772Y-45821D03*
G54D83*
X48755Y-34960D03*
X46755Y-34960D03*
X46755Y-33228D03*
X48755Y-33228D03*
G54D84*
X47992Y-34458D03*
G54D85*
X48513Y-33661D03*
X46998Y-33661D03*
X46998Y-34527D03*
X48513Y-34527D03*
G54D86*
X47145Y-34094D03*
G54D87*
X48513Y-34094D03*
G54D84*
X47519Y-34458D03*
X47992Y-33730D03*
X47519Y-33729D03*
G54D82*
X59878Y-47641D03*
X60878Y-47641D03*
X61878Y-47641D03*
G54D81*
X63878Y-47661D03*
G54D82*
X62878Y-47641D03*
X63866Y-49212D03*
X62866Y-49212D03*
X61866Y-49212D03*
G54D81*
X59866Y-49192D03*
G54D82*
X60866Y-49212D03*
G54D88*
X56535Y-48937D03*
X55905Y-48937D03*
G54D89*
X47188Y-31200D03*
G54D90*
X57039Y-33251D03*
X56039Y-33251D03*
X55039Y-33251D03*
X54039Y-33251D03*
G54D91*
X52039Y-33231D03*
G54D90*
X53039Y-33251D03*
G54D92*
X49554Y-45454D03*
X49554Y-35062D03*
G54D93*
X61200Y-35379D03*
G54D94*
X61298Y-34799D03*
G54D95*
X61102Y-34799D03*
G54D94*
X60905Y-34799D03*
G54D95*
X61495Y-34799D03*
X61102Y-35959D03*
G54D96*
X60905Y-35960D03*
X61298Y-35960D03*
X61495Y-35960D03*
G54D97*
X60619Y-35281D03*
G54D98*
X60619Y-35084D03*
G54D97*
X60619Y-35477D03*
X60619Y-35674D03*
G54D99*
X61780Y-35281D03*
G54D97*
X61781Y-35084D03*
X61781Y-35477D03*
X61781Y-35674D03*
G54D100*
X64594Y-35279D03*
X63413Y-35279D03*
G54D101*
X64003Y-35860D03*
X64003Y-34698D03*
G54D100*
X64594Y-44826D03*
X63413Y-44826D03*
G54D101*
X64003Y-45407D03*
X64003Y-44246D03*
G54D102*
X60136Y-33783D03*
X57774Y-33783D03*
X55412Y-33783D03*
X53049Y-33783D03*
G54D103*
X50787Y-33783D03*
G54D104*
X50335Y-34235D03*
G54D105*
X62852Y-36500D03*
X62852Y-38862D03*
X62852Y-41223D03*
X62852Y-43587D03*
G54D103*
X62399Y-46301D03*
G54D104*
X62852Y-45847D03*
X50335Y-45847D03*
G54D103*
X50787Y-46301D03*
G54D102*
X53049Y-46301D03*
X55412Y-46301D03*
X57774Y-46301D03*
X60136Y-46301D03*
G54D105*
X50335Y-43587D03*
X50335Y-41223D03*
X50335Y-38862D03*
X50335Y-36500D03*
G54D103*
X62399Y-33783D03*
G54D104*
X62852Y-34235D03*
G54D14*
X56783Y-43173D03*
X61728Y-40646D03*
X61821Y-42018D03*
X61594Y-38083D03*
X55032Y-45276D03*
X55748Y-43512D03*
G54D106*
X58279Y-42751D03*
X57307Y-42228D03*
G54D13*
X59964Y-42188D03*
X59850Y-43614D03*
X60645Y-44980D03*
X60177Y-35130D03*
G54D14*
X54949Y-37343D03*
G54D13*
X52646Y-37508D03*
G54D14*
X54221Y-34441D03*
X51169Y-34244D03*
G54D13*
X55299Y-38228D03*
G54D14*
X62039Y-39803D03*
X59910Y-37815D03*
X62036Y-39500D03*
G54D106*
X50011Y-42476D03*
G54D13*
X53323Y-36453D03*
G54D106*
X61173Y-42181D03*
X61023Y-43511D03*
X57736Y-44220D03*
X58236Y-44590D03*
X60716Y-48362D03*
X63468Y-48342D03*
X62448Y-48370D03*
X59248Y-48452D03*
G54D13*
X54724Y-39173D03*
X60397Y-42381D03*
X60149Y-43614D03*
X61641Y-44440D03*
X61665Y-45185D03*
X59803Y-44988D03*
X59822Y-44641D03*
X59811Y-44299D03*
X48188Y-35551D03*
G54D106*
X60252Y-40763D03*
X61283Y-40799D03*
X61228Y-41854D03*
G54D13*
X61264Y-40071D03*
G54D107*
X60677Y-34807D03*
G54D14*
X50921Y-43799D03*
X51012Y-36701D03*
X48158Y-36717D03*
X48150Y-39079D03*
X48189Y-41437D03*
X48138Y-43807D03*
G54D13*
X59882Y-37386D03*
X58256Y-36228D03*
X57106Y-36587D03*
X52012Y-34799D03*
X54457Y-43477D03*
G54D14*
X53465Y-45815D03*
G54D13*
X54579Y-44225D03*
G54D14*
X54268Y-46508D03*
G54D13*
X61957Y-34823D03*
X60906Y-36260D03*
X61957Y-35933D03*
X62154Y-36559D03*
X60882Y-38087D03*
X60780Y-39406D03*
X59350Y-37213D03*
G54D108*
X56091Y-35378D03*
X55579Y-35130D03*
G54D13*
X59508Y-36051D03*
X59650Y-35925D03*
X57094Y-35291D03*
X58354Y-35528D03*
X58370Y-36783D03*
X48165Y-37402D03*
X60266Y-35482D03*
X48193Y-37205D03*
X60246Y-35719D03*
X60657Y-44641D03*
X49565Y-42918D03*
X49132Y-37012D03*
G54D109*
X59065Y-39144D03*
G54D13*
X55288Y-40421D03*
X55701Y-40618D03*
X55366Y-40819D03*
X55705Y-41839D03*
G54D109*
X59065Y-40325D03*
G54D13*
X51732Y-36461D03*
X53591Y-41236D03*
G54D109*
X56447Y-41309D03*
G54D13*
X59951Y-40876D03*
X51728Y-36957D03*
G54D109*
X59065Y-40522D03*
G54D13*
X52870Y-37327D03*
X51728Y-37240D03*
X52870Y-36752D03*
X59669Y-40425D03*
X55736Y-39831D03*
X48193Y-37984D03*
X53906Y-34843D03*
G54D106*
X50114Y-35279D03*
X49791Y-42476D03*
G54D13*
X60030Y-41211D03*
G54D109*
X59065Y-38947D03*
G54D13*
X59748Y-39020D03*
X60319Y-39984D03*
X52906Y-35095D03*
X52543Y-37827D03*
G54D106*
X51917Y-35578D03*
G54D13*
X46539Y-37393D03*
X49232Y-33897D03*
X57205Y-42071D03*
G54D107*
X60704Y-40582D03*
G54D109*
X59065Y-40915D03*
X59065Y-39341D03*
G54D13*
X60339Y-39244D03*
X57465Y-41937D03*
G54D109*
X57254Y-41339D03*
X59055Y-40128D03*
G54D13*
X56957Y-42059D03*
G54D109*
X56663Y-41339D03*
X59065Y-39931D03*
G54D13*
X55933Y-38528D03*
G54D109*
X56437Y-39734D03*
X56437Y-40325D03*
G54D13*
X56260Y-42953D03*
G54D109*
X57057Y-41339D03*
G54D13*
X55638Y-36756D03*
G54D109*
X57067Y-38720D03*
X56870Y-38720D03*
G54D13*
X55981Y-37386D03*
G54D109*
X58238Y-41339D03*
X56860Y-41339D03*
X59065Y-38750D03*
G54D13*
X55394Y-39638D03*
X53650Y-41536D03*
G54D109*
X56437Y-41112D03*
G54D13*
X53583Y-40201D03*
G54D109*
X56437Y-39931D03*
G54D13*
X55831Y-39047D03*
G54D109*
X56437Y-40915D03*
G54D13*
X53579Y-41925D03*
X53602Y-40559D03*
G54D109*
X56437Y-40128D03*
G54D13*
X55303Y-40032D03*
X53662Y-38355D03*
G54D109*
X56437Y-38750D03*
G54D13*
X55709Y-39445D03*
G54D109*
X59075Y-41112D03*
G54D13*
X60039Y-41437D03*
X52193Y-35890D03*
X59740Y-40740D03*
X54453Y-37319D03*
X51721Y-37508D03*
X54721Y-36075D03*
X59787Y-39870D03*
X55555Y-39028D03*
X59272Y-41807D03*
G54D109*
X56437Y-38947D03*
G54D13*
X53662Y-38555D03*
X60645Y-42460D03*
G54D109*
X59065Y-41309D03*
G54D13*
X53610Y-39571D03*
G54D109*
X56437Y-39537D03*
G54D13*
X53626Y-39370D03*
G54D109*
X56437Y-39341D03*
X57854Y-38720D03*
G54D13*
X59150Y-37972D03*
X53579Y-42122D03*
G54D109*
X56437Y-40719D03*
G54D13*
X55772Y-40232D03*
X55890Y-41016D03*
X55260Y-41209D03*
X55815Y-41406D03*
X55445Y-41846D03*
X56303Y-41937D03*
X53650Y-38981D03*
G54D109*
X56437Y-39144D03*
G54D13*
X53587Y-41040D03*
G54D109*
X56437Y-40522D03*
G54D13*
X54736Y-36331D03*
X59646Y-40225D03*
X49354Y-37402D03*
X53071Y-34862D03*
X52276Y-40847D03*
X52248Y-40394D03*
X48185Y-39965D03*
X48221Y-38386D03*
X52516Y-38162D03*
X48201Y-39768D03*
X52232Y-40016D03*
G54D109*
X48188Y-39547D03*
G54D13*
X52402Y-39815D03*
X48079Y-38783D03*
X52386Y-39181D03*
X48193Y-38591D03*
X52366Y-38772D03*
G54D109*
X59065Y-39734D03*
G54D13*
X51445Y-35929D03*
X52213Y-40654D03*
X48181Y-40355D03*
X55984Y-38016D03*
X56319Y-38122D03*
X56575Y-38130D03*
G54D109*
X56673Y-38711D03*
G54D13*
X49744Y-36425D03*
X49634Y-37205D03*
X49917Y-37012D03*
X49748Y-36225D03*
X51717Y-37992D03*
X52535Y-41732D03*
X52118Y-42354D03*
G54D109*
X48169Y-42125D03*
G54D13*
X54984Y-43063D03*
X48173Y-40748D03*
X55453Y-43067D03*
X51752Y-40748D03*
G54D109*
X48188Y-41929D03*
G54D13*
X51917Y-42355D03*
X48197Y-41732D03*
X51398Y-42355D03*
X48075Y-41142D03*
X51638Y-42355D03*
X48201Y-40949D03*
X54721Y-43055D03*
X55225Y-43067D03*
X51091Y-40949D03*
G54D109*
X59065Y-40719D03*
G54D13*
X51669Y-35288D03*
G54D109*
X58435Y-41339D03*
G54D13*
X58538Y-41932D03*
X59281Y-42067D03*
X58744Y-41909D03*
X52465Y-41043D03*
X49535Y-42618D03*
X48154Y-42725D03*
X49925Y-34925D03*
G54D11*
X58260Y-42732D02*
X58279Y-42751D01*
X58260Y-42511D02*
X58260Y-42732D01*
X57231Y-42503D02*
X57231Y-42303D01*
X57231Y-42303D02*
X57307Y-42228D01*
G54D110*
X55460Y-48409D02*
X55460Y-48188D01*
X55540Y-48109D02*
X55787Y-48109D01*
X55460Y-48188D02*
X55540Y-48109D01*
G54D111*
X59843Y-42310D02*
X59964Y-42188D01*
X59843Y-42393D02*
X59843Y-42310D01*
X59843Y-42393D02*
X59843Y-42217D01*
X59843Y-42217D02*
X59842Y-42216D01*
X59851Y-43397D02*
X59851Y-43613D01*
X59851Y-43613D02*
X59850Y-43614D01*
X60877Y-44830D02*
X60842Y-44830D01*
X60842Y-44830D02*
X60692Y-44980D01*
G54D112*
X60645Y-44980D02*
X60692Y-44980D01*
X60692Y-44980D02*
X60830Y-44980D01*
X60830Y-44980D02*
X60877Y-45027D01*
G54D111*
X60877Y-44830D02*
X60877Y-45027D01*
G54D112*
X48513Y-34527D02*
X48513Y-34718D01*
X48513Y-34718D02*
X48755Y-34960D01*
X48755Y-34960D02*
X48755Y-35508D01*
X48755Y-35508D02*
X48799Y-35551D01*
G54D11*
X48513Y-34718D02*
X48755Y-34960D01*
G54D111*
X60215Y-35281D02*
X60177Y-35243D01*
X60177Y-35243D02*
X60177Y-35130D01*
X60215Y-35281D02*
X60619Y-35281D01*
X51445Y-34552D02*
X51169Y-34244D01*
X51445Y-34552D02*
X51445Y-35036D01*
G54D113*
X55299Y-38335D02*
X55299Y-38228D01*
X55299Y-38559D02*
X55299Y-38335D01*
G54D114*
X62539Y-35279D02*
X63413Y-35279D01*
X63413Y-44826D02*
X62484Y-44826D01*
G54D11*
X61173Y-42373D02*
X61173Y-42181D01*
X61173Y-43436D02*
X61098Y-43436D01*
X61098Y-43436D02*
X61023Y-43511D01*
X57734Y-43826D02*
X57734Y-44218D01*
X57734Y-44218D02*
X57736Y-44220D01*
X58234Y-45077D02*
X58234Y-44592D01*
X58234Y-44592D02*
X58236Y-44590D01*
X54929Y-39252D02*
X54803Y-39252D01*
X54803Y-39252D02*
X54724Y-39173D01*
G54D111*
X48188Y-35551D02*
X47617Y-35551D01*
G54D11*
X60177Y-42381D02*
X60396Y-42381D01*
X60396Y-42381D02*
X60397Y-42381D01*
X60149Y-43436D02*
X60149Y-43614D01*
X61665Y-44633D02*
X61665Y-44464D01*
X61637Y-44437D02*
X61641Y-44440D01*
X61637Y-44437D02*
X61468Y-44437D01*
X61665Y-44464D02*
X61641Y-44440D01*
X61468Y-45224D02*
X61625Y-45224D01*
X61665Y-45185D02*
X61665Y-45027D01*
X61625Y-45224D02*
X61665Y-45185D01*
X61074Y-45224D02*
X61074Y-44826D01*
X61074Y-44826D02*
X61169Y-44732D01*
X61468Y-45224D02*
X61468Y-45015D01*
X61468Y-45015D02*
X61366Y-44913D01*
X61665Y-45027D02*
X61480Y-45027D01*
X61480Y-45027D02*
X61366Y-44913D01*
X61665Y-44633D02*
X61468Y-44633D01*
X61468Y-44633D02*
X61271Y-44830D01*
X61074Y-44437D02*
X61074Y-44637D01*
X61074Y-44637D02*
X61169Y-44732D01*
G54D111*
X59822Y-44641D02*
X59822Y-44645D01*
X48445Y-35551D02*
X48188Y-35551D01*
G54D11*
X61087Y-40118D02*
X61216Y-40118D01*
X61216Y-40118D02*
X61264Y-40071D01*
X60252Y-41346D02*
X60252Y-41523D01*
G54D115*
X61157Y-40188D02*
X61087Y-40118D01*
X61087Y-40118D02*
X60402Y-40118D01*
X60402Y-40118D02*
X60252Y-40268D01*
X60252Y-40268D02*
X60252Y-40763D01*
X60252Y-40763D02*
X60252Y-40996D01*
X61157Y-40311D02*
X61157Y-40188D01*
X60252Y-41346D02*
X60252Y-40996D01*
G54D11*
X60252Y-41523D02*
X60251Y-41523D01*
X60619Y-35084D02*
X60619Y-34865D01*
X60619Y-34865D02*
X60677Y-34807D01*
X60619Y-35084D02*
X60910Y-35084D01*
X60910Y-35084D02*
X61024Y-35198D01*
X61200Y-35379D02*
X61200Y-35374D01*
X61200Y-35374D02*
X61024Y-35198D01*
X60905Y-35960D02*
X60905Y-35655D01*
X60905Y-35655D02*
X61024Y-35536D01*
X61781Y-35674D02*
X61520Y-35674D01*
X61520Y-35674D02*
X61386Y-35540D01*
X61781Y-35084D02*
X61503Y-35084D01*
X61503Y-35084D02*
X61394Y-35193D01*
X60619Y-35084D02*
X60905Y-35084D01*
G54D111*
X58740Y-41505D02*
X58740Y-40795D01*
X58740Y-40795D02*
X58732Y-40787D01*
X58830Y-41505D02*
X58740Y-41505D01*
X58740Y-41505D02*
X58633Y-41505D01*
X58830Y-41505D02*
X58830Y-40885D01*
X58830Y-40885D02*
X58732Y-40787D01*
X58633Y-41232D02*
X58633Y-41122D01*
X58633Y-41122D02*
X58515Y-41004D01*
X58633Y-41505D02*
X58633Y-41232D01*
X58638Y-38554D02*
X58638Y-38961D01*
X58638Y-38961D02*
X58732Y-39055D01*
X58048Y-38554D02*
X58048Y-39238D01*
X58048Y-39238D02*
X58082Y-39272D01*
X58245Y-38554D02*
X58245Y-39001D01*
X58245Y-39001D02*
X58299Y-39055D01*
X57866Y-39055D02*
X57866Y-39056D01*
X57866Y-39056D02*
X58082Y-39272D01*
X58082Y-39272D02*
X58299Y-39055D01*
X58150Y-38554D02*
X58150Y-39055D01*
X57866Y-39055D02*
X58150Y-39055D01*
X58150Y-39055D02*
X58299Y-39055D01*
X58048Y-38554D02*
X58150Y-38554D01*
X58150Y-38554D02*
X58245Y-38554D01*
G54D113*
X59665Y-37406D02*
X59882Y-37386D01*
X59665Y-37406D02*
X59665Y-37654D01*
G54D11*
X58472Y-36228D02*
X58256Y-36228D01*
X57102Y-36787D02*
X57102Y-36591D01*
X57102Y-36591D02*
X57106Y-36587D01*
G54D113*
X61298Y-34799D02*
X61298Y-35281D01*
X61298Y-35281D02*
X61299Y-35477D01*
X61298Y-35960D02*
X61298Y-35477D01*
G54D116*
X61298Y-35477D02*
X61299Y-35477D01*
G54D113*
X61823Y-35476D02*
X61298Y-35477D01*
G54D116*
X61298Y-35477D02*
X61299Y-35477D01*
G54D113*
X61781Y-35084D02*
X61961Y-35079D01*
X61961Y-35079D02*
X61957Y-34823D01*
X61957Y-34823D02*
X61957Y-34823D01*
X60905Y-35960D02*
X60906Y-36063D01*
X60906Y-36063D02*
X60906Y-36260D01*
X61781Y-35674D02*
X61780Y-35677D01*
X61780Y-35677D02*
X61957Y-35673D01*
X61957Y-35673D02*
X61957Y-35933D01*
G54D111*
X61870Y-36559D02*
X62154Y-36559D01*
G54D115*
X61283Y-41653D02*
X61283Y-40799D01*
X61283Y-40799D02*
X61283Y-40468D01*
X61283Y-40468D02*
X61157Y-40311D01*
X61279Y-41649D02*
X61283Y-41653D01*
X61283Y-41800D02*
X61228Y-41854D01*
X61228Y-41854D02*
X61182Y-41901D01*
X61182Y-41901D02*
X60358Y-41901D01*
X60358Y-41901D02*
X60260Y-41803D01*
X61283Y-41653D02*
X61283Y-41800D01*
X60886Y-40311D02*
X60882Y-40307D01*
X61157Y-40311D02*
X60886Y-40311D01*
G54D11*
X60882Y-38087D02*
X60882Y-37996D01*
X60618Y-38110D02*
X60641Y-38087D01*
X60641Y-38087D02*
X60882Y-38087D01*
X60012Y-38008D02*
X60012Y-38276D01*
X60098Y-37921D02*
X60012Y-38008D01*
X60788Y-37921D02*
X60098Y-37921D01*
X60882Y-37996D02*
X60788Y-37921D01*
G54D115*
X60882Y-38087D02*
X60882Y-39299D01*
X60882Y-39299D02*
X60776Y-39405D01*
G54D11*
X60618Y-38414D02*
X60618Y-38110D01*
G54D115*
X60776Y-39405D02*
X60780Y-39406D01*
X60780Y-39406D02*
X60780Y-39551D01*
X60035Y-39504D02*
X60035Y-38630D01*
X60177Y-39646D02*
X60035Y-39504D01*
X60685Y-39646D02*
X60177Y-39646D01*
X60780Y-39551D02*
X60685Y-39646D01*
X60780Y-39406D02*
X60618Y-39406D01*
X60870Y-41649D02*
X61279Y-41649D01*
X60870Y-41338D02*
X60870Y-41649D01*
G54D113*
X59130Y-38330D02*
X59147Y-38330D01*
X59147Y-38330D02*
X59354Y-38123D01*
X59354Y-38123D02*
X59350Y-37213D01*
G54D112*
X56079Y-35874D02*
X56079Y-35374D01*
X56079Y-35374D02*
X56091Y-35378D01*
X55579Y-34623D02*
X55579Y-35130D01*
G54D11*
X59577Y-36230D02*
X59577Y-36073D01*
X59577Y-36073D02*
X59508Y-36051D01*
X59602Y-35744D02*
X59602Y-35858D01*
X59602Y-35858D02*
X59650Y-35925D01*
X58460Y-35634D02*
X58354Y-35528D01*
X58460Y-35634D02*
X58460Y-35740D01*
X57094Y-35512D02*
X57094Y-35315D01*
X57094Y-35315D02*
X57094Y-35291D01*
X58179Y-35522D02*
X58348Y-35522D01*
X58348Y-35522D02*
X58354Y-35528D01*
X58179Y-36781D02*
X58368Y-36781D01*
X58368Y-36781D02*
X58370Y-36783D01*
G54D117*
X48299Y-37402D02*
X48532Y-37457D01*
X48299Y-37402D02*
X48165Y-37402D01*
X60266Y-35482D02*
X60619Y-35477D01*
X48339Y-37205D02*
X48193Y-37205D01*
X48339Y-37205D02*
X48555Y-37126D01*
X60327Y-35674D02*
X60246Y-35719D01*
X60327Y-35674D02*
X60619Y-35674D01*
G54D112*
X60657Y-44641D02*
X60870Y-44641D01*
X60870Y-44641D02*
X60877Y-44633D01*
G54D111*
X59228Y-39145D02*
X59066Y-39145D01*
X59066Y-39145D02*
X59065Y-39144D01*
G54D11*
X59453Y-38852D02*
X59843Y-38854D01*
X59462Y-39236D02*
X59453Y-39245D01*
X59843Y-39240D02*
X59462Y-39236D01*
X59917Y-39173D02*
X59843Y-39240D01*
X59917Y-38929D02*
X59917Y-39173D01*
X59843Y-38854D02*
X59917Y-38929D01*
G54D117*
X59453Y-39245D02*
X59390Y-39217D01*
X59295Y-39217D02*
X59228Y-39145D01*
X59295Y-39217D02*
X59295Y-39217D01*
X59390Y-39217D02*
X59295Y-39217D01*
X59453Y-39442D02*
X59453Y-39445D01*
X59453Y-39445D02*
X59417Y-39481D01*
X59417Y-39481D02*
X59276Y-39481D01*
X59276Y-39481D02*
X59225Y-39500D01*
X59225Y-39500D02*
X59225Y-39551D01*
G54D115*
X59453Y-39245D02*
X59453Y-39442D01*
G54D11*
X55288Y-40421D02*
X56051Y-40421D01*
X56051Y-40621D02*
X55816Y-40621D01*
X55816Y-40621D02*
X55701Y-40618D01*
G54D116*
X55366Y-40819D02*
X56055Y-40815D01*
G54D117*
X55830Y-41730D02*
X55728Y-41832D01*
X55705Y-41839D02*
X55728Y-41832D01*
X56368Y-41730D02*
X55830Y-41730D01*
G54D111*
X59228Y-40327D02*
X59067Y-40327D01*
X59067Y-40327D02*
X59065Y-40325D01*
G54D117*
X51732Y-36461D02*
X51941Y-36461D01*
X51941Y-36461D02*
X51976Y-36496D01*
G54D111*
X56276Y-41310D02*
X56416Y-41310D01*
X56416Y-41310D02*
X56447Y-41309D01*
G54D117*
X59228Y-40523D02*
X59231Y-40523D01*
G54D111*
X59065Y-40522D02*
X59231Y-40523D01*
G54D117*
X59449Y-40425D02*
X59669Y-40425D01*
X59669Y-40425D02*
X59669Y-40425D01*
G54D116*
X56051Y-39833D02*
X55821Y-39833D01*
X55821Y-39833D02*
X55736Y-39831D01*
G54D11*
X59453Y-41212D02*
X60050Y-41212D01*
X60050Y-41212D02*
X60030Y-41211D01*
G54D115*
X60019Y-41212D02*
X60030Y-41211D01*
G54D111*
X59228Y-38950D02*
X59068Y-38950D01*
X59068Y-38950D02*
X59065Y-38947D01*
G54D115*
X59453Y-39048D02*
X59645Y-39048D01*
X59645Y-39048D02*
X59748Y-39020D01*
X60193Y-40031D02*
X60319Y-39984D01*
G54D11*
X60193Y-40031D02*
X59429Y-40031D01*
G54D111*
X47263Y-35551D02*
X47263Y-34995D01*
X47263Y-34995D02*
X47519Y-34740D01*
X47519Y-34740D02*
X47519Y-34458D01*
G54D11*
X47519Y-34458D02*
X47519Y-34740D01*
X47519Y-34740D02*
X47421Y-34838D01*
G54D114*
X62130Y-44826D02*
X61669Y-44826D01*
X61669Y-44826D02*
X61665Y-44830D01*
G54D11*
X47814Y-35984D02*
X47968Y-35830D01*
X47968Y-35830D02*
X49610Y-35830D01*
X49610Y-35830D02*
X49956Y-35484D01*
X49956Y-35484D02*
X50807Y-35484D01*
X50807Y-35484D02*
X51059Y-35736D01*
X51059Y-35736D02*
X51059Y-35944D01*
X51059Y-35944D02*
X51303Y-36188D01*
X51303Y-36188D02*
X51641Y-36188D01*
X51641Y-36188D02*
X51917Y-35913D01*
X51917Y-35913D02*
X51917Y-35578D01*
X47106Y-35984D02*
X47814Y-35984D01*
G54D114*
X62185Y-35279D02*
X61781Y-35279D01*
X61781Y-35279D02*
X61780Y-35281D01*
G54D11*
X61495Y-35960D02*
X61495Y-36554D01*
X61495Y-36554D02*
X61500Y-36559D01*
G54D112*
X46539Y-37393D02*
X46539Y-37531D01*
X49488Y-34082D02*
X49417Y-34082D01*
X49417Y-34082D02*
X49232Y-33897D01*
X46661Y-37653D02*
X47047Y-37653D01*
X46539Y-37531D02*
X46661Y-37653D01*
G54D11*
X49488Y-33322D02*
X49488Y-33712D01*
X49488Y-33712D02*
X49488Y-33712D01*
X48755Y-33228D02*
X49394Y-33228D01*
X49394Y-33228D02*
X49488Y-33322D01*
X49488Y-33712D02*
X49866Y-33712D01*
X49866Y-33712D02*
X49877Y-33724D01*
X48513Y-33661D02*
X49263Y-33661D01*
X49263Y-33661D02*
X49315Y-33712D01*
X49488Y-33712D02*
X49315Y-33712D01*
X49315Y-33712D02*
X49240Y-33712D01*
X49240Y-33712D02*
X48755Y-33228D01*
X48755Y-33228D02*
X48755Y-33419D01*
X48755Y-33419D02*
X48513Y-33661D01*
X46755Y-34960D02*
X46755Y-35980D01*
X46755Y-35980D02*
X46752Y-35984D01*
X46998Y-34527D02*
X46998Y-34718D01*
X46998Y-34718D02*
X46755Y-34960D01*
G54D111*
X57154Y-41717D02*
X57154Y-41913D01*
X57154Y-41949D02*
X57205Y-42071D01*
X57154Y-41913D02*
X57154Y-41949D01*
G54D11*
X60614Y-40492D02*
X60704Y-40582D01*
X60614Y-40492D02*
X60528Y-40492D01*
G54D111*
X59065Y-40915D02*
X59228Y-40918D01*
G54D115*
X60528Y-40657D02*
X60528Y-41016D01*
X60528Y-40476D02*
X60528Y-40492D01*
X60528Y-40307D02*
X60528Y-40476D01*
X60528Y-40492D02*
X60528Y-40657D01*
G54D11*
X60122Y-41669D02*
X60496Y-41669D01*
X59287Y-41504D02*
X59452Y-41669D01*
X59452Y-41669D02*
X60122Y-41669D01*
G54D115*
X59026Y-41505D02*
X59283Y-41504D01*
G54D11*
X59283Y-41504D02*
X59287Y-41504D01*
X60496Y-41669D02*
X60516Y-41649D01*
G54D115*
X60516Y-41488D02*
X60516Y-41366D01*
X60516Y-41488D02*
X60516Y-41649D01*
G54D111*
X59228Y-39343D02*
X59067Y-39343D01*
X59067Y-39343D02*
X59065Y-39341D01*
G54D115*
X60264Y-38772D02*
X60264Y-39079D01*
X60264Y-39079D02*
X60264Y-39150D01*
X60264Y-39150D02*
X60339Y-39244D01*
X60339Y-39244D02*
X60264Y-39319D01*
X60264Y-39319D02*
X60264Y-39406D01*
X59453Y-38653D02*
X59572Y-38653D01*
X59823Y-38402D02*
X60264Y-38402D01*
X59572Y-38653D02*
X59823Y-38402D01*
G54D11*
X60264Y-38402D02*
X60264Y-38110D01*
G54D115*
X60618Y-38784D02*
X60618Y-39079D01*
X60618Y-39079D02*
X60622Y-39083D01*
G54D11*
X59665Y-38300D02*
X59508Y-38300D01*
X59665Y-38024D02*
X59665Y-38300D01*
X59254Y-38554D02*
X59033Y-38554D01*
X59508Y-38300D02*
X59254Y-38554D01*
X60890Y-40649D02*
X60890Y-40972D01*
G54D111*
X57254Y-41339D02*
X57254Y-41504D01*
X57254Y-41504D02*
X57255Y-41505D01*
G54D117*
X57655Y-38554D02*
X57655Y-38537D01*
X57556Y-38438D02*
X57556Y-38330D01*
X57655Y-38537D02*
X57556Y-38438D01*
G54D110*
X55460Y-48779D02*
X55460Y-48779D01*
X55618Y-48937D02*
X55905Y-48937D01*
X55460Y-48779D02*
X55618Y-48937D01*
G54D111*
X59228Y-40132D02*
X59059Y-40132D01*
X59059Y-40132D02*
X59055Y-40128D01*
G54D117*
X58836Y-38554D02*
X58836Y-38517D01*
X58738Y-38419D02*
X58738Y-38330D01*
X58836Y-38517D02*
X58738Y-38419D01*
X57458Y-38554D02*
X57458Y-38529D01*
X57360Y-38431D02*
X57360Y-38330D01*
X57458Y-38529D02*
X57360Y-38431D01*
G54D11*
X56890Y-37220D02*
X56134Y-37220D01*
X56134Y-37220D02*
X55886Y-36972D01*
X55886Y-36972D02*
X55886Y-36480D01*
X57260Y-37221D02*
X57260Y-37099D01*
X56228Y-36780D02*
X56228Y-36500D01*
X56456Y-37008D02*
X56228Y-36780D01*
X57169Y-37008D02*
X56456Y-37008D01*
X57260Y-37099D02*
X57169Y-37008D01*
X56576Y-36547D02*
X56576Y-35877D01*
X56576Y-35877D02*
X56579Y-35874D01*
X55575Y-36473D02*
X55574Y-35879D01*
X55574Y-35879D02*
X55579Y-35874D01*
X56874Y-37567D02*
X56874Y-37961D01*
X56874Y-37961D02*
X56897Y-37984D01*
X56966Y-38330D02*
X56966Y-38053D01*
X56966Y-38053D02*
X56897Y-37984D01*
X57677Y-37225D02*
X57677Y-37022D01*
X57677Y-37022D02*
X57441Y-36786D01*
X57441Y-36786D02*
X57441Y-36289D01*
X57753Y-38330D02*
X57753Y-38041D01*
X57677Y-37965D02*
X57677Y-37579D01*
X57753Y-38041D02*
X57677Y-37965D01*
G54D114*
X57234Y-45077D02*
X57234Y-45703D01*
X57234Y-45703D02*
X57232Y-45704D01*
G54D11*
X57950Y-38330D02*
X57950Y-38086D01*
X58071Y-37965D02*
X58071Y-37579D01*
X57950Y-38086D02*
X58071Y-37965D01*
X57921Y-43184D02*
X57921Y-43240D01*
X58102Y-43695D02*
X58234Y-43826D01*
X58102Y-43421D02*
X58102Y-43695D01*
X57921Y-43240D02*
X58102Y-43421D01*
X60149Y-43082D02*
X60463Y-43082D01*
X60463Y-43082D02*
X60463Y-43082D01*
X59854Y-43084D02*
X60147Y-43084D01*
X60147Y-43084D02*
X60149Y-43082D01*
X58343Y-38330D02*
X58343Y-38247D01*
X58701Y-38126D02*
X58957Y-37870D01*
X58464Y-38126D02*
X58701Y-38126D01*
X58343Y-38247D02*
X58464Y-38126D01*
X58957Y-37870D02*
X58957Y-37665D01*
X58957Y-37665D02*
X59016Y-37606D01*
X59016Y-37606D02*
X59016Y-37484D01*
X59016Y-37484D02*
X59012Y-37480D01*
G54D117*
X58441Y-38554D02*
X58441Y-38501D01*
X58541Y-38401D02*
X58541Y-38330D01*
X58441Y-38501D02*
X58541Y-38401D01*
G54D11*
X59500Y-43084D02*
X59500Y-43386D01*
X59500Y-43386D02*
X59511Y-43397D01*
X59201Y-43078D02*
X59494Y-43078D01*
X59494Y-43078D02*
X59500Y-43084D01*
X58622Y-42425D02*
X58728Y-42531D01*
X58141Y-41944D02*
X58622Y-42425D01*
X58141Y-41730D02*
X58141Y-41944D01*
X59138Y-43015D02*
X59201Y-43078D01*
X59086Y-43015D02*
X59138Y-43015D01*
X58728Y-42657D02*
X59086Y-43015D01*
X58728Y-42531D02*
X58728Y-42657D01*
X57570Y-43184D02*
X57570Y-43232D01*
X57385Y-43675D02*
X57234Y-43826D01*
X57385Y-43417D02*
X57385Y-43675D01*
X57570Y-43232D02*
X57385Y-43417D01*
X57163Y-38330D02*
X57163Y-38058D01*
X57260Y-37961D02*
X57260Y-37575D01*
X57163Y-38058D02*
X57260Y-37961D01*
G54D114*
X56579Y-34623D02*
X57098Y-34547D01*
X57098Y-34547D02*
X57764Y-34433D01*
G54D11*
X58071Y-37027D02*
X57825Y-36781D01*
X58071Y-37225D02*
X58071Y-37027D01*
X57825Y-36781D02*
X57825Y-36292D01*
X57571Y-42503D02*
X57571Y-42830D01*
X57571Y-42830D02*
X57570Y-42830D01*
X57567Y-42181D02*
X57567Y-42499D01*
X57567Y-42499D02*
X57571Y-42503D01*
X57746Y-41942D02*
X57746Y-42002D01*
X57746Y-41730D02*
X57746Y-41942D01*
X57669Y-42078D02*
X57567Y-42181D01*
X57746Y-42002D02*
X57669Y-42078D01*
X57920Y-42511D02*
X57920Y-42830D01*
X57920Y-42830D02*
X57921Y-42830D01*
X57921Y-42181D02*
X57921Y-42511D01*
X57921Y-42511D02*
X57920Y-42511D01*
X57943Y-41954D02*
X57943Y-42159D01*
X57943Y-42159D02*
X57921Y-42181D01*
X57943Y-41954D02*
X57942Y-41954D01*
X57943Y-41730D02*
X57943Y-41954D01*
X60500Y-42712D02*
X60185Y-42712D01*
X60185Y-42712D02*
X60177Y-42721D01*
X59854Y-42720D02*
X60176Y-42720D01*
X60176Y-42720D02*
X60177Y-42721D01*
X59012Y-37126D02*
X59012Y-37047D01*
X59252Y-36807D02*
X59252Y-36587D01*
X59012Y-37047D02*
X59252Y-36807D01*
X59252Y-36587D02*
X59255Y-36584D01*
X59255Y-36584D02*
X59577Y-36584D01*
X61173Y-43082D02*
X61358Y-43082D01*
X61358Y-43082D02*
X61547Y-42893D01*
X61173Y-42713D02*
X61366Y-42713D01*
X61366Y-42713D02*
X61547Y-42893D01*
X60803Y-43082D02*
X61173Y-43082D01*
X61173Y-43082D02*
X61173Y-43082D01*
X60854Y-42712D02*
X61172Y-42712D01*
X61172Y-42712D02*
X61173Y-42713D01*
X57825Y-35952D02*
X57825Y-35522D01*
X57825Y-35522D02*
X57815Y-35512D01*
X57815Y-35512D02*
X57622Y-35512D01*
X57622Y-35512D02*
X57434Y-35512D01*
X57434Y-35512D02*
X57441Y-35519D01*
X57441Y-35519D02*
X57441Y-35935D01*
X57622Y-35512D02*
X57622Y-35059D01*
X58547Y-37126D02*
X58547Y-37067D01*
X58547Y-37067D02*
X58799Y-36815D01*
X58792Y-36568D02*
X58472Y-36568D01*
X58799Y-36815D02*
X58799Y-36575D01*
X58799Y-36575D02*
X58792Y-36568D01*
X59016Y-35740D02*
X58800Y-35740D01*
X58800Y-35740D02*
X58799Y-35741D01*
X59252Y-36247D02*
X59252Y-35748D01*
X59244Y-35740D02*
X59016Y-35740D01*
X59252Y-35748D02*
X59244Y-35740D01*
X58799Y-35741D02*
X58799Y-36221D01*
X59016Y-35305D02*
X59016Y-35740D01*
X59503Y-42393D02*
X59503Y-42717D01*
X59503Y-42717D02*
X59500Y-42720D01*
X59201Y-42724D02*
X59496Y-42724D01*
X59496Y-42724D02*
X59500Y-42720D01*
X58484Y-42102D02*
X58874Y-42492D01*
X59201Y-42724D02*
X59138Y-42787D01*
X59070Y-42787D02*
X59138Y-42787D01*
X58338Y-41956D02*
X58484Y-42102D01*
X58338Y-41956D02*
X58338Y-41730D01*
X58874Y-42590D02*
X59070Y-42787D01*
X58874Y-42492D02*
X58874Y-42590D01*
X58146Y-38330D02*
X58146Y-38224D01*
X58500Y-37870D02*
X58617Y-37870D01*
X58146Y-38224D02*
X58500Y-37870D01*
X58617Y-37870D02*
X58614Y-37867D01*
X58614Y-37867D02*
X58614Y-37712D01*
X58614Y-37712D02*
X58547Y-37645D01*
X58547Y-37645D02*
X58547Y-37480D01*
G54D113*
X56051Y-39243D02*
X55292Y-39243D01*
X55292Y-39243D02*
X55299Y-39236D01*
X55299Y-39236D02*
X55299Y-38929D01*
G54D11*
X56960Y-42064D02*
X56957Y-42059D01*
X56960Y-42064D02*
X56960Y-41730D01*
G54D111*
X56663Y-41339D02*
X56665Y-41505D01*
X59228Y-39933D02*
X59067Y-39933D01*
X59067Y-39933D02*
X59065Y-39931D01*
G54D11*
X56051Y-38652D02*
X55967Y-38652D01*
X55967Y-38652D02*
X55933Y-38618D01*
X55933Y-38618D02*
X55933Y-38528D01*
G54D111*
X56437Y-39734D02*
X56276Y-39735D01*
X56437Y-40325D02*
X56276Y-40326D01*
G54D11*
X56763Y-41730D02*
X56763Y-42056D01*
X56763Y-42056D02*
X56260Y-42559D01*
X56260Y-42559D02*
X56260Y-42953D01*
G54D111*
X57057Y-41339D02*
X57057Y-41504D01*
X57057Y-41504D02*
X57058Y-41505D01*
X55638Y-36756D02*
X55642Y-36760D01*
X57067Y-38720D02*
X57067Y-38553D01*
X57067Y-38553D02*
X57260Y-38554D01*
X56870Y-38720D02*
X56870Y-38553D01*
G54D117*
X55981Y-37386D02*
X55973Y-37386D01*
X56870Y-38553D02*
X56768Y-38398D01*
X56768Y-38398D02*
X56768Y-38330D01*
G54D111*
X58238Y-41505D02*
X58238Y-41339D01*
X57846Y-41505D02*
X57648Y-41505D01*
X57846Y-41505D02*
X58043Y-41505D01*
X58043Y-41505D02*
X58238Y-41505D01*
X56860Y-41505D02*
X56860Y-41339D01*
X59065Y-38750D02*
X59228Y-38753D01*
G54D11*
X55623Y-39637D02*
X55394Y-39638D01*
X56051Y-39637D02*
X55623Y-39637D01*
G54D111*
X56437Y-41112D02*
X56276Y-41113D01*
G54D117*
X56279Y-39932D02*
X56276Y-39932D01*
G54D111*
X56437Y-39931D02*
X56279Y-39932D01*
G54D11*
X56051Y-39046D02*
X55941Y-39047D01*
X55941Y-39047D02*
X55831Y-39047D01*
X55831Y-39047D02*
X55831Y-39047D01*
G54D111*
X56276Y-40916D02*
X56437Y-40915D01*
X56437Y-40128D02*
X56276Y-40129D01*
G54D11*
X56071Y-40032D02*
X55303Y-40032D01*
G54D111*
X56437Y-38750D02*
X56276Y-38751D01*
G54D11*
X55709Y-39441D02*
X56043Y-39441D01*
X55709Y-39441D02*
X55709Y-39445D01*
G54D117*
X59453Y-41017D02*
X59377Y-41017D01*
X59279Y-41115D02*
X59228Y-41115D01*
X59377Y-41017D02*
X59279Y-41115D01*
G54D111*
X59075Y-41112D02*
X59225Y-41112D01*
X59225Y-41112D02*
X59228Y-41115D01*
G54D115*
X60014Y-41400D02*
X60039Y-41437D01*
X60014Y-41400D02*
X59453Y-41400D01*
X59583Y-40622D02*
X59453Y-40622D01*
X59583Y-40622D02*
X59740Y-40740D01*
G54D117*
X59701Y-39835D02*
X59787Y-39870D01*
X59701Y-39835D02*
X59451Y-39835D01*
G54D11*
X55848Y-38849D02*
X55555Y-39028D01*
X56051Y-38849D02*
X55848Y-38849D01*
G54D113*
X59195Y-41730D02*
X59272Y-41807D01*
X59195Y-41730D02*
X59123Y-41730D01*
G54D111*
X56276Y-38948D02*
X56436Y-38948D01*
X56436Y-38948D02*
X56437Y-38947D01*
X59065Y-41309D02*
X59228Y-41312D01*
X56437Y-39537D02*
X56276Y-39538D01*
G54D117*
X56278Y-39341D02*
X56276Y-39341D01*
G54D111*
X56437Y-39341D02*
X56278Y-39341D01*
G54D11*
X57851Y-38554D02*
X57851Y-38554D01*
G54D111*
X57854Y-38720D02*
X57851Y-38554D01*
G54D117*
X58933Y-38232D02*
X58933Y-38330D01*
X58933Y-38232D02*
X59142Y-38126D01*
X59142Y-38126D02*
X59150Y-37972D01*
G54D111*
X56437Y-40719D02*
X56276Y-40719D01*
X56051Y-40227D02*
X55817Y-40227D01*
X55817Y-40227D02*
X55772Y-40232D01*
G54D11*
X55890Y-41016D02*
X56051Y-41015D01*
G54D116*
X55890Y-41016D02*
X55890Y-41016D01*
G54D11*
X55260Y-41209D02*
X56055Y-41209D01*
G54D116*
X55816Y-41407D02*
X55815Y-41406D01*
G54D11*
X56051Y-41407D02*
X55816Y-41407D01*
G54D117*
X56267Y-41505D02*
X56181Y-41591D01*
X56181Y-41591D02*
X55697Y-41591D01*
X55697Y-41591D02*
X55445Y-41846D01*
X56468Y-41505D02*
X56267Y-41505D01*
G54D11*
X56506Y-41937D02*
X56303Y-41937D01*
X56566Y-41877D02*
X56506Y-41937D01*
X56566Y-41877D02*
X56566Y-41730D01*
G54D111*
X56437Y-39144D02*
X56276Y-39144D01*
X56437Y-40522D02*
X56276Y-40522D01*
G54D11*
X59643Y-40228D02*
X59646Y-40225D01*
X59643Y-40228D02*
X59453Y-40228D01*
G54D111*
X59228Y-39737D02*
X59065Y-39734D01*
G54D117*
X51445Y-35418D02*
X51445Y-35929D01*
G54D116*
X56227Y-38554D02*
X55984Y-38311D01*
X55984Y-38311D02*
X55984Y-38016D01*
X56227Y-38554D02*
X56473Y-38554D01*
X56374Y-38177D02*
X56319Y-38122D01*
X56374Y-38330D02*
X56374Y-38177D01*
X56571Y-38134D02*
X56575Y-38130D01*
X56571Y-38134D02*
X56571Y-38330D01*
G54D117*
X56671Y-38554D02*
X56673Y-38553D01*
G54D111*
X56673Y-38711D02*
X56673Y-38553D01*
G54D114*
X60972Y-36531D02*
X61059Y-36417D01*
X59717Y-35299D02*
X59854Y-35323D01*
X59854Y-35323D02*
X59961Y-35413D01*
X59961Y-35413D02*
X60035Y-35539D01*
X60035Y-35539D02*
X60051Y-35693D01*
X60051Y-35693D02*
X60051Y-35988D01*
X60051Y-35988D02*
X60051Y-36394D01*
X60051Y-36394D02*
X60098Y-36520D01*
X60098Y-36520D02*
X60224Y-36618D01*
X60224Y-36618D02*
X60378Y-36642D01*
X60378Y-36642D02*
X60713Y-36642D01*
X60713Y-36642D02*
X60862Y-36606D01*
X60862Y-36606D02*
X60972Y-36531D01*
X59370Y-35299D02*
X59717Y-35299D01*
X61102Y-36264D02*
X61102Y-35959D01*
X61059Y-36417D02*
X61102Y-36264D01*
X60622Y-34417D02*
X60456Y-34417D01*
X58669Y-35062D02*
X58444Y-35082D01*
X61102Y-34799D02*
X61110Y-34656D01*
X58220Y-35075D02*
X57965Y-35075D01*
X58444Y-35082D02*
X58220Y-35075D01*
X61043Y-34515D02*
X60964Y-34460D01*
X61098Y-34618D02*
X61043Y-34515D01*
X61110Y-34730D02*
X61098Y-34618D01*
X61110Y-34656D02*
X61110Y-34730D01*
X60740Y-34421D02*
X60622Y-34417D01*
X60870Y-34425D02*
X60740Y-34421D01*
X60964Y-34460D02*
X60870Y-34425D01*
X59224Y-34921D02*
X58972Y-34996D01*
X58972Y-34996D02*
X58669Y-35062D01*
X60232Y-34444D02*
X59968Y-34519D01*
X59968Y-34519D02*
X59681Y-34661D01*
X59681Y-34661D02*
X59488Y-34783D01*
X59488Y-34783D02*
X59224Y-34921D01*
X60456Y-34417D02*
X60232Y-34444D01*
X58248Y-34429D02*
X58389Y-34429D01*
X60740Y-34208D02*
X60133Y-34208D01*
X61496Y-34645D02*
X61476Y-34515D01*
X61476Y-34515D02*
X61389Y-34381D01*
X61389Y-34381D02*
X61244Y-34299D01*
X61244Y-34299D02*
X61082Y-34255D01*
X61082Y-34255D02*
X60917Y-34220D01*
X60917Y-34220D02*
X60740Y-34208D01*
X61495Y-34799D02*
X61496Y-34645D01*
X58248Y-34429D02*
X58106Y-34429D01*
X58389Y-34429D02*
X58614Y-34397D01*
X58614Y-34397D02*
X58889Y-34338D01*
X58889Y-34338D02*
X59181Y-34279D01*
X59181Y-34279D02*
X59452Y-34240D01*
X59452Y-34240D02*
X59759Y-34228D01*
X59759Y-34228D02*
X60133Y-34208D01*
G54D111*
X59228Y-40722D02*
X59065Y-40719D01*
X58435Y-41339D02*
X58436Y-41507D01*
G54D117*
X58436Y-41505D02*
X58436Y-41507D01*
X58539Y-41933D02*
X58538Y-41932D01*
X58538Y-41932D02*
X58539Y-41933D01*
X58535Y-41730D02*
X58538Y-41932D01*
X58925Y-41756D02*
X58925Y-41953D01*
X59201Y-41953D02*
X59281Y-42067D01*
X58925Y-41953D02*
X59201Y-41953D01*
X58732Y-41713D02*
X58736Y-41909D01*
X58736Y-41909D02*
X58744Y-41909D01*
G54D114*
X61547Y-43247D02*
X61547Y-43397D01*
X61271Y-44251D02*
X61271Y-44437D01*
X61547Y-43397D02*
X61531Y-43562D01*
X61531Y-43562D02*
X61484Y-43704D01*
X61484Y-43704D02*
X61421Y-43816D01*
X61421Y-43816D02*
X61346Y-43960D01*
X61346Y-43960D02*
X61295Y-44106D01*
X61295Y-44106D02*
X61271Y-44251D01*
X57586Y-45704D02*
X60500Y-45704D01*
X61271Y-45334D02*
X61271Y-45224D01*
X60500Y-45704D02*
X60661Y-45696D01*
X60661Y-45696D02*
X60811Y-45688D01*
X60811Y-45688D02*
X60937Y-45649D01*
X60937Y-45649D02*
X61039Y-45590D01*
X61039Y-45590D02*
X61129Y-45527D01*
X61129Y-45527D02*
X61216Y-45440D01*
X61216Y-45440D02*
X61271Y-45334D01*
G54D111*
X49877Y-34094D02*
X49877Y-34877D01*
X49877Y-34877D02*
X49925Y-34925D01*
G54D10*
G36*
X47736Y-35852D02*
X47290Y-35852D01*
X47282Y-35833D01*
X47256Y-35807D01*
X47222Y-35793D01*
X47185Y-35793D01*
X46990Y-35793D01*
X46955Y-35807D01*
X46929Y-35833D01*
X46929Y-35834D01*
X46928Y-35833D01*
X46902Y-35807D01*
X46887Y-35801D01*
X46887Y-35290D01*
X47069Y-35290D01*
X47104Y-35275D01*
X47111Y-35268D01*
X47111Y-35375D01*
X47087Y-35400D01*
X47072Y-35435D01*
X47072Y-35472D01*
X47072Y-35667D01*
X47087Y-35701D01*
X47113Y-35727D01*
X47147Y-35742D01*
X47184Y-35742D01*
X47379Y-35742D01*
X47414Y-35727D01*
X47440Y-35701D01*
X47454Y-35667D01*
X47454Y-35630D01*
X47454Y-35435D01*
X47440Y-35400D01*
X47415Y-35375D01*
X47415Y-35058D01*
X47627Y-34847D01*
X47627Y-34847D01*
X47627Y-34847D01*
X47647Y-34817D01*
X47675Y-34817D01*
X47710Y-34803D01*
X47736Y-34777D01*
X47736Y-35852D01*
X47736Y-35852D01*
G37*
G54D117*
X47736Y-35852D02*
X47290Y-35852D01*
X47282Y-35833D01*
X47256Y-35807D01*
X47222Y-35793D01*
X47185Y-35793D01*
X46990Y-35793D01*
X46955Y-35807D01*
X46929Y-35833D01*
X46929Y-35834D01*
X46928Y-35833D01*
X46902Y-35807D01*
X46887Y-35801D01*
X46887Y-35290D01*
X47069Y-35290D01*
X47104Y-35275D01*
X47111Y-35268D01*
X47111Y-35375D01*
X47087Y-35400D01*
X47072Y-35435D01*
X47072Y-35472D01*
X47072Y-35667D01*
X47087Y-35701D01*
X47113Y-35727D01*
X47147Y-35742D01*
X47184Y-35742D01*
X47379Y-35742D01*
X47414Y-35727D01*
X47440Y-35701D01*
X47454Y-35667D01*
X47454Y-35630D01*
X47454Y-35435D01*
X47440Y-35400D01*
X47415Y-35375D01*
X47415Y-35058D01*
X47627Y-34847D01*
X47627Y-34847D01*
X47627Y-34847D01*
X47647Y-34817D01*
X47675Y-34817D01*
X47710Y-34803D01*
X47736Y-34777D01*
X47736Y-35852D01*
G54D10*
G36*
X64773Y-49270D02*
X64729Y-49226D01*
X64649Y-49193D01*
X64563Y-49193D01*
X64483Y-49225D01*
X64422Y-49286D01*
X64389Y-49366D01*
X64389Y-49452D01*
X64422Y-49531D01*
X64483Y-49592D01*
X64491Y-49596D01*
X64389Y-49596D01*
X64389Y-45216D01*
X64389Y-44429D01*
X63562Y-44429D01*
X63562Y-44311D01*
X62617Y-44311D01*
X62617Y-35767D01*
X63562Y-35767D01*
X63562Y-35649D01*
X64350Y-35649D01*
X64350Y-34862D01*
X62617Y-34862D01*
X62617Y-33996D01*
X53878Y-33996D01*
X53878Y-34670D01*
X53871Y-34670D01*
X53808Y-34697D01*
X53760Y-34745D01*
X53734Y-34808D01*
X53733Y-34877D01*
X53760Y-34940D01*
X53808Y-34988D01*
X53871Y-35014D01*
X53878Y-35014D01*
X53878Y-46082D01*
X62617Y-46082D01*
X62617Y-45216D01*
X64389Y-45216D01*
X64389Y-49596D01*
X64270Y-49596D01*
X64270Y-47941D01*
X64270Y-47344D01*
X64255Y-47310D01*
X64229Y-47284D01*
X64195Y-47269D01*
X64158Y-47269D01*
X63561Y-47269D01*
X63526Y-47284D01*
X63500Y-47310D01*
X63486Y-47344D01*
X63486Y-47381D01*
X63486Y-47978D01*
X63500Y-48013D01*
X63526Y-48039D01*
X63560Y-48053D01*
X63598Y-48053D01*
X64195Y-48053D01*
X64229Y-48039D01*
X64255Y-48013D01*
X64270Y-47979D01*
X64270Y-47941D01*
X64270Y-49596D01*
X63964Y-49596D01*
X64087Y-49544D01*
X64198Y-49434D01*
X64257Y-49290D01*
X64258Y-49134D01*
X64198Y-48990D01*
X64088Y-48880D01*
X63944Y-48820D01*
X63788Y-48820D01*
X63644Y-48879D01*
X63533Y-48990D01*
X63474Y-49134D01*
X63473Y-49290D01*
X63533Y-49434D01*
X63643Y-49544D01*
X63767Y-49596D01*
X63270Y-49596D01*
X63270Y-47564D01*
X63210Y-47420D01*
X63100Y-47309D01*
X62956Y-47249D01*
X62800Y-47249D01*
X62656Y-47309D01*
X62545Y-47419D01*
X62486Y-47563D01*
X62486Y-47719D01*
X62545Y-47863D01*
X62655Y-47973D01*
X62799Y-48033D01*
X62955Y-48033D01*
X63099Y-47974D01*
X63210Y-47864D01*
X63270Y-47720D01*
X63270Y-47564D01*
X63270Y-49596D01*
X62964Y-49596D01*
X63087Y-49544D01*
X63198Y-49434D01*
X63257Y-49290D01*
X63258Y-49134D01*
X63198Y-48990D01*
X63088Y-48880D01*
X62944Y-48820D01*
X62788Y-48820D01*
X62644Y-48879D01*
X62533Y-48990D01*
X62474Y-49134D01*
X62473Y-49290D01*
X62533Y-49434D01*
X62643Y-49544D01*
X62767Y-49596D01*
X61270Y-49596D01*
X61270Y-47564D01*
X61210Y-47420D01*
X61100Y-47309D01*
X60956Y-47249D01*
X60800Y-47249D01*
X60656Y-47309D01*
X60545Y-47419D01*
X60486Y-47563D01*
X60486Y-47719D01*
X60545Y-47863D01*
X60655Y-47973D01*
X60799Y-48033D01*
X60955Y-48033D01*
X61099Y-47974D01*
X61210Y-47864D01*
X61270Y-47720D01*
X61270Y-47564D01*
X61270Y-49596D01*
X60964Y-49596D01*
X61087Y-49544D01*
X61198Y-49434D01*
X61257Y-49290D01*
X61258Y-49134D01*
X61198Y-48990D01*
X61088Y-48880D01*
X60944Y-48820D01*
X60788Y-48820D01*
X60644Y-48879D01*
X60533Y-48990D01*
X60474Y-49134D01*
X60473Y-49290D01*
X60533Y-49434D01*
X60643Y-49544D01*
X60767Y-49596D01*
X60270Y-49596D01*
X60270Y-47564D01*
X60210Y-47420D01*
X60100Y-47309D01*
X59956Y-47249D01*
X59800Y-47249D01*
X59656Y-47309D01*
X59545Y-47419D01*
X59486Y-47563D01*
X59486Y-47719D01*
X59545Y-47863D01*
X59655Y-47973D01*
X59799Y-48033D01*
X59955Y-48033D01*
X60099Y-47974D01*
X60210Y-47864D01*
X60270Y-47720D01*
X60270Y-47564D01*
X60270Y-49596D01*
X60258Y-49596D01*
X60258Y-49472D01*
X60258Y-48875D01*
X60243Y-48841D01*
X60217Y-48814D01*
X60183Y-48800D01*
X60145Y-48800D01*
X59548Y-48800D01*
X59514Y-48814D01*
X59488Y-48840D01*
X59474Y-48875D01*
X59474Y-48912D01*
X59474Y-49509D01*
X59488Y-49543D01*
X59514Y-49570D01*
X59548Y-49584D01*
X59586Y-49584D01*
X60183Y-49584D01*
X60217Y-49570D01*
X60243Y-49544D01*
X60257Y-49509D01*
X60258Y-49472D01*
X60258Y-49596D01*
X57936Y-49596D01*
X57879Y-49538D01*
X57780Y-49497D01*
X57672Y-49497D01*
X57572Y-49538D01*
X57508Y-49602D01*
X57445Y-49538D01*
X57346Y-49497D01*
X57238Y-49497D01*
X57138Y-49538D01*
X57075Y-49601D01*
X57012Y-49538D01*
X56913Y-49497D01*
X56805Y-49497D01*
X56705Y-49538D01*
X56642Y-49601D01*
X56579Y-49538D01*
X56480Y-49497D01*
X56411Y-49497D01*
X56411Y-47638D01*
X56411Y-47205D01*
X56382Y-47135D01*
X56328Y-47081D01*
X56258Y-47052D01*
X56182Y-47052D01*
X56112Y-47081D01*
X56058Y-47134D01*
X56029Y-47204D01*
X56029Y-47280D01*
X56058Y-47351D01*
X56112Y-47404D01*
X56182Y-47434D01*
X56258Y-47434D01*
X56328Y-47405D01*
X56382Y-47351D01*
X56411Y-47281D01*
X56411Y-47205D01*
X56411Y-47638D01*
X56382Y-47568D01*
X56328Y-47514D01*
X56258Y-47485D01*
X56182Y-47485D01*
X56112Y-47514D01*
X56058Y-47567D01*
X56029Y-47638D01*
X56029Y-47713D01*
X56058Y-47784D01*
X56112Y-47837D01*
X56182Y-47867D01*
X56258Y-47867D01*
X56328Y-47838D01*
X56382Y-47784D01*
X56411Y-47714D01*
X56411Y-47638D01*
X56411Y-49497D01*
X56372Y-49497D01*
X56272Y-49538D01*
X56215Y-49596D01*
X56155Y-49596D01*
X56155Y-49075D01*
X56155Y-48761D01*
X56141Y-48727D01*
X56115Y-48700D01*
X56081Y-48686D01*
X56043Y-48686D01*
X55978Y-48686D01*
X55978Y-48071D01*
X55978Y-47638D01*
X55978Y-47204D01*
X55949Y-47134D01*
X55895Y-47080D01*
X55825Y-47051D01*
X55749Y-47051D01*
X55679Y-47080D01*
X55625Y-47133D01*
X55596Y-47203D01*
X55596Y-47279D01*
X55625Y-47350D01*
X55679Y-47403D01*
X55749Y-47433D01*
X55825Y-47433D01*
X55895Y-47404D01*
X55949Y-47350D01*
X55978Y-47280D01*
X55978Y-47204D01*
X55978Y-47638D01*
X55949Y-47568D01*
X55895Y-47514D01*
X55825Y-47485D01*
X55749Y-47485D01*
X55679Y-47514D01*
X55625Y-47567D01*
X55596Y-47638D01*
X55596Y-47713D01*
X55625Y-47784D01*
X55679Y-47837D01*
X55749Y-47867D01*
X55825Y-47867D01*
X55895Y-47838D01*
X55949Y-47784D01*
X55978Y-47714D01*
X55978Y-47638D01*
X55978Y-48071D01*
X55949Y-48001D01*
X55895Y-47947D01*
X55825Y-47918D01*
X55749Y-47918D01*
X55679Y-47947D01*
X55675Y-47951D01*
X55540Y-47951D01*
X55479Y-47963D01*
X55428Y-47997D01*
X55348Y-48077D01*
X55314Y-48128D01*
X55302Y-48188D01*
X55302Y-48250D01*
X55283Y-48268D01*
X55269Y-48303D01*
X55269Y-48340D01*
X55269Y-48515D01*
X55283Y-48549D01*
X55310Y-48576D01*
X55344Y-48590D01*
X55381Y-48590D01*
X55576Y-48590D01*
X55611Y-48576D01*
X55637Y-48550D01*
X55651Y-48515D01*
X55651Y-48478D01*
X55651Y-48303D01*
X55637Y-48269D01*
X55635Y-48267D01*
X55675Y-48267D01*
X55679Y-48271D01*
X55749Y-48300D01*
X55825Y-48300D01*
X55895Y-48271D01*
X55949Y-48217D01*
X55978Y-48147D01*
X55978Y-48071D01*
X55978Y-48686D01*
X55729Y-48686D01*
X55695Y-48700D01*
X55669Y-48726D01*
X55658Y-48753D01*
X55651Y-48747D01*
X55651Y-48673D01*
X55637Y-48639D01*
X55611Y-48612D01*
X55576Y-48598D01*
X55539Y-48598D01*
X55344Y-48598D01*
X55310Y-48612D01*
X55283Y-48638D01*
X55269Y-48673D01*
X55269Y-48710D01*
X55269Y-48885D01*
X55283Y-48919D01*
X55310Y-48946D01*
X55344Y-48960D01*
X55381Y-48960D01*
X55418Y-48960D01*
X55506Y-49048D01*
X55557Y-49082D01*
X55557Y-49082D01*
X55618Y-49095D01*
X55654Y-49095D01*
X55654Y-49112D01*
X55669Y-49146D01*
X55695Y-49173D01*
X55729Y-49187D01*
X55766Y-49187D01*
X56080Y-49187D01*
X56115Y-49173D01*
X56141Y-49147D01*
X56155Y-49112D01*
X56155Y-49075D01*
X56155Y-49596D01*
X53834Y-49596D01*
X53834Y-38520D01*
X53807Y-38457D01*
X53805Y-38455D01*
X53807Y-38452D01*
X53833Y-38389D01*
X53834Y-38320D01*
X53807Y-38257D01*
X53759Y-38209D01*
X53696Y-38183D01*
X53627Y-38182D01*
X53564Y-38209D01*
X53516Y-38257D01*
X53495Y-38308D01*
X53495Y-36418D01*
X53468Y-36355D01*
X53420Y-36307D01*
X53357Y-36281D01*
X53288Y-36280D01*
X53243Y-36299D01*
X53243Y-34827D01*
X53216Y-34764D01*
X53168Y-34716D01*
X53105Y-34690D01*
X53036Y-34689D01*
X52973Y-34716D01*
X52925Y-34764D01*
X52899Y-34827D01*
X52898Y-34896D01*
X52910Y-34923D01*
X52871Y-34922D01*
X52808Y-34949D01*
X52760Y-34997D01*
X52734Y-35060D01*
X52733Y-35129D01*
X52760Y-35192D01*
X52808Y-35240D01*
X52871Y-35266D01*
X52940Y-35267D01*
X53003Y-35240D01*
X53051Y-35192D01*
X53077Y-35129D01*
X53078Y-35060D01*
X53066Y-35033D01*
X53105Y-35034D01*
X53168Y-35007D01*
X53216Y-34959D01*
X53242Y-34896D01*
X53243Y-34827D01*
X53243Y-36299D01*
X53225Y-36307D01*
X53177Y-36355D01*
X53151Y-36418D01*
X53150Y-36487D01*
X53177Y-36550D01*
X53225Y-36598D01*
X53288Y-36624D01*
X53357Y-36625D01*
X53420Y-36598D01*
X53468Y-36550D01*
X53494Y-36487D01*
X53495Y-36418D01*
X53495Y-38308D01*
X53490Y-38320D01*
X53489Y-38389D01*
X53516Y-38452D01*
X53518Y-38454D01*
X53516Y-38457D01*
X53490Y-38520D01*
X53489Y-38589D01*
X53516Y-38652D01*
X53564Y-38700D01*
X53627Y-38726D01*
X53696Y-38727D01*
X53759Y-38700D01*
X53807Y-38652D01*
X53833Y-38589D01*
X53834Y-38520D01*
X53834Y-49596D01*
X53822Y-49596D01*
X53822Y-41501D01*
X53822Y-38946D01*
X53795Y-38883D01*
X53747Y-38835D01*
X53684Y-38809D01*
X53615Y-38808D01*
X53552Y-38835D01*
X53504Y-38883D01*
X53478Y-38946D01*
X53477Y-39015D01*
X53504Y-39078D01*
X53552Y-39126D01*
X53615Y-39152D01*
X53684Y-39153D01*
X53747Y-39126D01*
X53795Y-39078D01*
X53821Y-39015D01*
X53822Y-38946D01*
X53822Y-41501D01*
X53798Y-41443D01*
X53798Y-39335D01*
X53771Y-39272D01*
X53723Y-39224D01*
X53660Y-39198D01*
X53591Y-39197D01*
X53528Y-39224D01*
X53480Y-39272D01*
X53454Y-39335D01*
X53453Y-39404D01*
X53477Y-39460D01*
X53464Y-39473D01*
X53438Y-39536D01*
X53437Y-39605D01*
X53464Y-39668D01*
X53512Y-39716D01*
X53575Y-39742D01*
X53644Y-39743D01*
X53707Y-39716D01*
X53755Y-39668D01*
X53781Y-39605D01*
X53782Y-39536D01*
X53758Y-39480D01*
X53771Y-39467D01*
X53797Y-39404D01*
X53798Y-39335D01*
X53798Y-41443D01*
X53795Y-41438D01*
X53774Y-41416D01*
X53774Y-40524D01*
X53755Y-40478D01*
X53755Y-40166D01*
X53728Y-40103D01*
X53680Y-40055D01*
X53617Y-40029D01*
X53548Y-40028D01*
X53485Y-40055D01*
X53437Y-40103D01*
X53411Y-40166D01*
X53410Y-40235D01*
X53437Y-40298D01*
X53485Y-40346D01*
X53548Y-40372D01*
X53617Y-40373D01*
X53680Y-40346D01*
X53728Y-40298D01*
X53754Y-40235D01*
X53755Y-40166D01*
X53755Y-40478D01*
X53747Y-40461D01*
X53699Y-40413D01*
X53636Y-40387D01*
X53567Y-40386D01*
X53504Y-40413D01*
X53456Y-40461D01*
X53430Y-40524D01*
X53429Y-40593D01*
X53456Y-40656D01*
X53504Y-40704D01*
X53567Y-40730D01*
X53636Y-40731D01*
X53699Y-40704D01*
X53747Y-40656D01*
X53773Y-40593D01*
X53774Y-40524D01*
X53774Y-41416D01*
X53747Y-41390D01*
X53699Y-41370D01*
X53736Y-41333D01*
X53762Y-41270D01*
X53763Y-41201D01*
X53736Y-41138D01*
X53733Y-41135D01*
X53758Y-41074D01*
X53759Y-41005D01*
X53732Y-40942D01*
X53684Y-40894D01*
X53621Y-40868D01*
X53552Y-40867D01*
X53489Y-40894D01*
X53441Y-40942D01*
X53415Y-41005D01*
X53414Y-41074D01*
X53441Y-41137D01*
X53444Y-41140D01*
X53419Y-41201D01*
X53418Y-41270D01*
X53445Y-41333D01*
X53493Y-41381D01*
X53541Y-41401D01*
X53504Y-41438D01*
X53478Y-41501D01*
X53477Y-41570D01*
X53504Y-41633D01*
X53552Y-41681D01*
X53615Y-41707D01*
X53684Y-41708D01*
X53747Y-41681D01*
X53795Y-41633D01*
X53821Y-41570D01*
X53822Y-41501D01*
X53822Y-49596D01*
X53751Y-49596D01*
X53751Y-42087D01*
X53724Y-42024D01*
X53723Y-42023D01*
X53724Y-42022D01*
X53750Y-41959D01*
X53751Y-41890D01*
X53724Y-41827D01*
X53676Y-41779D01*
X53613Y-41753D01*
X53544Y-41752D01*
X53481Y-41779D01*
X53433Y-41827D01*
X53407Y-41890D01*
X53406Y-41959D01*
X53433Y-42022D01*
X53434Y-42023D01*
X53433Y-42024D01*
X53407Y-42087D01*
X53406Y-42156D01*
X53433Y-42219D01*
X53481Y-42267D01*
X53544Y-42293D01*
X53613Y-42294D01*
X53676Y-42267D01*
X53724Y-42219D01*
X53750Y-42156D01*
X53751Y-42087D01*
X53751Y-49596D01*
X53405Y-49596D01*
X53405Y-49181D01*
X53405Y-47236D01*
X53157Y-46988D01*
X53042Y-46988D01*
X53042Y-37292D01*
X53042Y-36717D01*
X53015Y-36654D01*
X52967Y-36606D01*
X52904Y-36580D01*
X52835Y-36579D01*
X52772Y-36606D01*
X52724Y-36654D01*
X52698Y-36717D01*
X52697Y-36786D01*
X52724Y-36849D01*
X52772Y-36897D01*
X52835Y-36923D01*
X52904Y-36924D01*
X52967Y-36897D01*
X53015Y-36849D01*
X53041Y-36786D01*
X53042Y-36717D01*
X53042Y-37292D01*
X53015Y-37229D01*
X52967Y-37181D01*
X52904Y-37155D01*
X52835Y-37154D01*
X52772Y-37181D01*
X52724Y-37229D01*
X52698Y-37292D01*
X52697Y-37343D01*
X52680Y-37336D01*
X52611Y-37335D01*
X52548Y-37362D01*
X52500Y-37410D01*
X52474Y-37473D01*
X52473Y-37542D01*
X52500Y-37605D01*
X52548Y-37653D01*
X52551Y-37655D01*
X52508Y-37654D01*
X52445Y-37681D01*
X52397Y-37729D01*
X52371Y-37792D01*
X52370Y-37861D01*
X52397Y-37924D01*
X52445Y-37972D01*
X52486Y-37989D01*
X52481Y-37989D01*
X52418Y-38016D01*
X52370Y-38064D01*
X52344Y-38127D01*
X52343Y-38196D01*
X52370Y-38259D01*
X52418Y-38307D01*
X52481Y-38333D01*
X52550Y-38334D01*
X52613Y-38307D01*
X52661Y-38259D01*
X52687Y-38196D01*
X52688Y-38127D01*
X52661Y-38064D01*
X52613Y-38016D01*
X52572Y-37999D01*
X52577Y-37999D01*
X52640Y-37972D01*
X52688Y-37924D01*
X52714Y-37861D01*
X52715Y-37792D01*
X52688Y-37729D01*
X52640Y-37681D01*
X52637Y-37679D01*
X52680Y-37680D01*
X52743Y-37653D01*
X52791Y-37605D01*
X52817Y-37542D01*
X52818Y-37491D01*
X52835Y-37498D01*
X52904Y-37499D01*
X52967Y-37472D01*
X53015Y-37424D01*
X53041Y-37361D01*
X53042Y-37292D01*
X53042Y-46988D01*
X52707Y-46988D01*
X52707Y-41697D01*
X52680Y-41634D01*
X52637Y-41590D01*
X52637Y-41008D01*
X52610Y-40945D01*
X52574Y-40908D01*
X52574Y-39780D01*
X52558Y-39742D01*
X52558Y-39146D01*
X52538Y-39098D01*
X52538Y-38737D01*
X52511Y-38674D01*
X52463Y-38626D01*
X52400Y-38600D01*
X52331Y-38599D01*
X52268Y-38626D01*
X52220Y-38674D01*
X52194Y-38737D01*
X52193Y-38806D01*
X52220Y-38869D01*
X52268Y-38917D01*
X52331Y-38943D01*
X52400Y-38944D01*
X52463Y-38917D01*
X52511Y-38869D01*
X52537Y-38806D01*
X52538Y-38737D01*
X52538Y-39098D01*
X52531Y-39083D01*
X52483Y-39035D01*
X52420Y-39009D01*
X52351Y-39008D01*
X52288Y-39035D01*
X52240Y-39083D01*
X52214Y-39146D01*
X52213Y-39215D01*
X52240Y-39278D01*
X52288Y-39326D01*
X52351Y-39352D01*
X52420Y-39353D01*
X52483Y-39326D01*
X52531Y-39278D01*
X52557Y-39215D01*
X52558Y-39146D01*
X52558Y-39742D01*
X52547Y-39717D01*
X52499Y-39669D01*
X52436Y-39643D01*
X52367Y-39642D01*
X52304Y-39669D01*
X52256Y-39717D01*
X52230Y-39780D01*
X52229Y-39843D01*
X52197Y-39843D01*
X52134Y-39870D01*
X52086Y-39918D01*
X52060Y-39981D01*
X52059Y-40050D01*
X52086Y-40113D01*
X52134Y-40161D01*
X52197Y-40187D01*
X52266Y-40188D01*
X52329Y-40161D01*
X52377Y-40113D01*
X52403Y-40050D01*
X52404Y-39987D01*
X52436Y-39987D01*
X52499Y-39960D01*
X52547Y-39912D01*
X52573Y-39849D01*
X52574Y-39780D01*
X52574Y-40908D01*
X52562Y-40897D01*
X52499Y-40871D01*
X52447Y-40870D01*
X52448Y-40812D01*
X52421Y-40749D01*
X52377Y-40705D01*
X52384Y-40688D01*
X52385Y-40619D01*
X52358Y-40556D01*
X52343Y-40540D01*
X52345Y-40539D01*
X52393Y-40491D01*
X52419Y-40428D01*
X52420Y-40359D01*
X52393Y-40296D01*
X52345Y-40248D01*
X52282Y-40222D01*
X52213Y-40221D01*
X52150Y-40248D01*
X52102Y-40296D01*
X52076Y-40359D01*
X52075Y-40428D01*
X52102Y-40491D01*
X52117Y-40507D01*
X52115Y-40508D01*
X52067Y-40556D01*
X52041Y-40619D01*
X52040Y-40688D01*
X52067Y-40751D01*
X52111Y-40795D01*
X52104Y-40812D01*
X52103Y-40881D01*
X52130Y-40944D01*
X52178Y-40992D01*
X52241Y-41018D01*
X52293Y-41019D01*
X52292Y-41077D01*
X52319Y-41140D01*
X52367Y-41188D01*
X52430Y-41214D01*
X52499Y-41215D01*
X52562Y-41188D01*
X52610Y-41140D01*
X52636Y-41077D01*
X52637Y-41008D01*
X52637Y-41590D01*
X52632Y-41586D01*
X52569Y-41560D01*
X52500Y-41559D01*
X52437Y-41586D01*
X52389Y-41634D01*
X52363Y-41697D01*
X52362Y-41766D01*
X52389Y-41829D01*
X52437Y-41877D01*
X52500Y-41903D01*
X52569Y-41904D01*
X52632Y-41877D01*
X52680Y-41829D01*
X52706Y-41766D01*
X52707Y-41697D01*
X52707Y-46988D01*
X52290Y-46988D01*
X52290Y-42319D01*
X52263Y-42256D01*
X52215Y-42208D01*
X52152Y-42182D01*
X52083Y-42181D01*
X52020Y-42208D01*
X52017Y-42211D01*
X52014Y-42209D01*
X51951Y-42183D01*
X51924Y-42183D01*
X51924Y-40713D01*
X51900Y-40655D01*
X51900Y-37205D01*
X51873Y-37142D01*
X51829Y-37098D01*
X51873Y-37054D01*
X51899Y-36991D01*
X51900Y-36922D01*
X51873Y-36859D01*
X51825Y-36811D01*
X51762Y-36785D01*
X51693Y-36784D01*
X51630Y-36811D01*
X51582Y-36859D01*
X51556Y-36922D01*
X51555Y-36991D01*
X51582Y-37054D01*
X51626Y-37098D01*
X51582Y-37142D01*
X51556Y-37205D01*
X51555Y-37274D01*
X51582Y-37337D01*
X51615Y-37370D01*
X51575Y-37410D01*
X51549Y-37473D01*
X51548Y-37542D01*
X51575Y-37605D01*
X51623Y-37653D01*
X51686Y-37679D01*
X51755Y-37680D01*
X51818Y-37653D01*
X51866Y-37605D01*
X51892Y-37542D01*
X51893Y-37473D01*
X51866Y-37410D01*
X51833Y-37377D01*
X51873Y-37337D01*
X51899Y-37274D01*
X51900Y-37205D01*
X51900Y-40655D01*
X51897Y-40650D01*
X51889Y-40641D01*
X51889Y-37957D01*
X51862Y-37894D01*
X51814Y-37846D01*
X51751Y-37820D01*
X51682Y-37819D01*
X51619Y-37846D01*
X51571Y-37894D01*
X51545Y-37957D01*
X51544Y-38026D01*
X51571Y-38089D01*
X51619Y-38137D01*
X51682Y-38163D01*
X51751Y-38164D01*
X51814Y-38137D01*
X51862Y-38089D01*
X51888Y-38026D01*
X51889Y-37957D01*
X51889Y-40641D01*
X51849Y-40602D01*
X51786Y-40576D01*
X51717Y-40575D01*
X51654Y-40602D01*
X51606Y-40650D01*
X51580Y-40713D01*
X51579Y-40782D01*
X51606Y-40845D01*
X51654Y-40893D01*
X51717Y-40919D01*
X51786Y-40920D01*
X51849Y-40893D01*
X51897Y-40845D01*
X51923Y-40782D01*
X51924Y-40713D01*
X51924Y-42183D01*
X51882Y-42182D01*
X51819Y-42209D01*
X51777Y-42251D01*
X51735Y-42209D01*
X51672Y-42183D01*
X51603Y-42182D01*
X51540Y-42209D01*
X51518Y-42231D01*
X51495Y-42209D01*
X51432Y-42183D01*
X51363Y-42182D01*
X51300Y-42209D01*
X51263Y-42246D01*
X51263Y-40914D01*
X51236Y-40851D01*
X51188Y-40803D01*
X51125Y-40777D01*
X51056Y-40776D01*
X50993Y-40803D01*
X50945Y-40851D01*
X50919Y-40914D01*
X50918Y-40983D01*
X50945Y-41046D01*
X50993Y-41094D01*
X51056Y-41120D01*
X51125Y-41121D01*
X51188Y-41094D01*
X51236Y-41046D01*
X51262Y-40983D01*
X51263Y-40914D01*
X51263Y-42246D01*
X51252Y-42257D01*
X51226Y-42320D01*
X51225Y-42389D01*
X51252Y-42452D01*
X51300Y-42500D01*
X51363Y-42526D01*
X51432Y-42527D01*
X51495Y-42500D01*
X51517Y-42478D01*
X51540Y-42500D01*
X51603Y-42526D01*
X51672Y-42527D01*
X51735Y-42500D01*
X51777Y-42458D01*
X51819Y-42500D01*
X51882Y-42526D01*
X51951Y-42527D01*
X52014Y-42500D01*
X52017Y-42497D01*
X52020Y-42499D01*
X52083Y-42525D01*
X52152Y-42526D01*
X52215Y-42499D01*
X52263Y-42451D01*
X52289Y-42388D01*
X52290Y-42319D01*
X52290Y-46988D01*
X51830Y-46988D01*
X51830Y-45165D01*
X51830Y-43613D01*
X51661Y-43445D01*
X51212Y-43445D01*
X51043Y-43613D01*
X51043Y-44532D01*
X51028Y-44567D01*
X51028Y-44636D01*
X51043Y-44672D01*
X51043Y-44864D01*
X51032Y-44890D01*
X51032Y-44959D01*
X51043Y-44985D01*
X51043Y-45165D01*
X51212Y-45334D01*
X51661Y-45334D01*
X51830Y-45165D01*
X51830Y-46988D01*
X51811Y-46988D01*
X51330Y-46988D01*
X51082Y-47236D01*
X51082Y-49220D01*
X51212Y-49350D01*
X53236Y-49350D01*
X53405Y-49181D01*
X53405Y-49596D01*
X50163Y-49596D01*
X50163Y-42446D01*
X50140Y-42390D01*
X50098Y-42347D01*
X50089Y-42343D01*
X50089Y-36977D01*
X50062Y-36914D01*
X50014Y-36866D01*
X49951Y-36840D01*
X49920Y-36840D01*
X49920Y-36190D01*
X49893Y-36127D01*
X49845Y-36079D01*
X49782Y-36053D01*
X49713Y-36052D01*
X49650Y-36079D01*
X49602Y-36127D01*
X49576Y-36190D01*
X49575Y-36259D01*
X49602Y-36322D01*
X49602Y-36322D01*
X49598Y-36327D01*
X49572Y-36390D01*
X49571Y-36459D01*
X49598Y-36522D01*
X49646Y-36570D01*
X49709Y-36596D01*
X49778Y-36597D01*
X49841Y-36570D01*
X49889Y-36522D01*
X49915Y-36459D01*
X49916Y-36390D01*
X49889Y-36327D01*
X49889Y-36327D01*
X49893Y-36322D01*
X49919Y-36259D01*
X49920Y-36190D01*
X49920Y-36840D01*
X49882Y-36839D01*
X49819Y-36866D01*
X49771Y-36914D01*
X49745Y-36977D01*
X49744Y-37046D01*
X49763Y-37091D01*
X49731Y-37059D01*
X49668Y-37033D01*
X49599Y-37032D01*
X49536Y-37059D01*
X49488Y-37107D01*
X49462Y-37170D01*
X49461Y-37239D01*
X49481Y-37286D01*
X49451Y-37256D01*
X49388Y-37230D01*
X49319Y-37229D01*
X49304Y-37236D01*
X49304Y-36977D01*
X49277Y-36914D01*
X49271Y-36908D01*
X49229Y-36866D01*
X49166Y-36840D01*
X49097Y-36839D01*
X49034Y-36866D01*
X48986Y-36914D01*
X48960Y-36977D01*
X48959Y-37046D01*
X48986Y-37109D01*
X49034Y-37157D01*
X49097Y-37183D01*
X49166Y-37184D01*
X49229Y-37157D01*
X49271Y-37115D01*
X49277Y-37109D01*
X49303Y-37046D01*
X49304Y-36977D01*
X49304Y-37236D01*
X49271Y-37249D01*
X49256Y-37256D01*
X49208Y-37304D01*
X49182Y-37367D01*
X49181Y-37436D01*
X49208Y-37499D01*
X49256Y-37547D01*
X49271Y-37553D01*
X49319Y-37573D01*
X49388Y-37574D01*
X49451Y-37547D01*
X49499Y-37499D01*
X49525Y-37436D01*
X49526Y-37367D01*
X49506Y-37320D01*
X49536Y-37350D01*
X49599Y-37376D01*
X49668Y-37377D01*
X49731Y-37350D01*
X49779Y-37302D01*
X49805Y-37239D01*
X49806Y-37170D01*
X49787Y-37125D01*
X49819Y-37157D01*
X49882Y-37183D01*
X49951Y-37184D01*
X50014Y-37157D01*
X50062Y-37109D01*
X50088Y-37046D01*
X50089Y-36977D01*
X50089Y-42343D01*
X50042Y-42324D01*
X49981Y-42324D01*
X49925Y-42347D01*
X49901Y-42371D01*
X49877Y-42347D01*
X49821Y-42324D01*
X49761Y-42324D01*
X49705Y-42347D01*
X49662Y-42390D01*
X49639Y-42446D01*
X49639Y-42479D01*
X49632Y-42472D01*
X49569Y-42446D01*
X49500Y-42445D01*
X49437Y-42472D01*
X49389Y-42520D01*
X49363Y-42583D01*
X49362Y-42652D01*
X49389Y-42715D01*
X49437Y-42763D01*
X49464Y-42775D01*
X49419Y-42820D01*
X49393Y-42883D01*
X49392Y-42952D01*
X49419Y-43015D01*
X49467Y-43063D01*
X49530Y-43089D01*
X49599Y-43090D01*
X49662Y-43063D01*
X49710Y-43015D01*
X49736Y-42952D01*
X49737Y-42883D01*
X49710Y-42820D01*
X49662Y-42772D01*
X49635Y-42760D01*
X49680Y-42715D01*
X49706Y-42652D01*
X49707Y-42605D01*
X49760Y-42628D01*
X49821Y-42628D01*
X49877Y-42605D01*
X49901Y-42581D01*
X49925Y-42605D01*
X49981Y-42628D01*
X50041Y-42628D01*
X50097Y-42605D01*
X50140Y-42562D01*
X50163Y-42506D01*
X50163Y-42446D01*
X50163Y-49596D01*
X49271Y-49596D01*
X48917Y-49596D01*
X46139Y-49596D01*
X46139Y-47427D01*
X46291Y-47578D01*
X48748Y-47578D01*
X48917Y-47409D01*
X48917Y-45464D01*
X48748Y-45295D01*
X48723Y-45295D01*
X48723Y-37535D01*
X48723Y-37340D01*
X48708Y-37306D01*
X48695Y-37293D01*
X48708Y-37280D01*
X48722Y-37246D01*
X48723Y-37208D01*
X48723Y-37013D01*
X48708Y-36979D01*
X48682Y-36953D01*
X48648Y-36939D01*
X48610Y-36938D01*
X48415Y-36938D01*
X48381Y-36953D01*
X48355Y-36979D01*
X48341Y-37013D01*
X48340Y-37051D01*
X48340Y-37083D01*
X48322Y-37090D01*
X48290Y-37059D01*
X48227Y-37033D01*
X48158Y-37032D01*
X48095Y-37059D01*
X48047Y-37107D01*
X48021Y-37170D01*
X48020Y-37239D01*
X48039Y-37284D01*
X48019Y-37304D01*
X47993Y-37367D01*
X47992Y-37436D01*
X48019Y-37499D01*
X48067Y-37547D01*
X48130Y-37573D01*
X48199Y-37574D01*
X48262Y-37547D01*
X48293Y-37516D01*
X48340Y-37528D01*
X48340Y-37573D01*
X48355Y-37607D01*
X48381Y-37633D01*
X48415Y-37647D01*
X48453Y-37648D01*
X48648Y-37648D01*
X48682Y-37633D01*
X48708Y-37607D01*
X48722Y-37573D01*
X48723Y-37535D01*
X48723Y-45295D01*
X48393Y-45295D01*
X48393Y-38351D01*
X48366Y-38288D01*
X48365Y-38286D01*
X48365Y-37949D01*
X48338Y-37886D01*
X48290Y-37838D01*
X48227Y-37812D01*
X48158Y-37811D01*
X48095Y-37838D01*
X48047Y-37886D01*
X48021Y-37949D01*
X48020Y-38018D01*
X48047Y-38081D01*
X48095Y-38129D01*
X48158Y-38155D01*
X48227Y-38156D01*
X48290Y-38129D01*
X48338Y-38081D01*
X48364Y-38018D01*
X48365Y-37949D01*
X48365Y-38286D01*
X48318Y-38240D01*
X48255Y-38214D01*
X48186Y-38213D01*
X48123Y-38240D01*
X48075Y-38288D01*
X48049Y-38351D01*
X48048Y-38420D01*
X48069Y-38470D01*
X48047Y-38493D01*
X48021Y-38556D01*
X48020Y-38620D01*
X47981Y-38637D01*
X47933Y-38685D01*
X47907Y-38748D01*
X47906Y-38817D01*
X47933Y-38880D01*
X47981Y-38928D01*
X48044Y-38954D01*
X48113Y-38955D01*
X48176Y-38928D01*
X48224Y-38880D01*
X48250Y-38817D01*
X48251Y-38753D01*
X48290Y-38736D01*
X48338Y-38688D01*
X48364Y-38625D01*
X48365Y-38556D01*
X48344Y-38506D01*
X48366Y-38483D01*
X48392Y-38420D01*
X48393Y-38351D01*
X48393Y-45295D01*
X48373Y-45295D01*
X48373Y-40914D01*
X48373Y-39733D01*
X48346Y-39670D01*
X48321Y-39644D01*
X48326Y-39639D01*
X48351Y-39579D01*
X48351Y-39515D01*
X48326Y-39455D01*
X48281Y-39409D01*
X48221Y-39384D01*
X48156Y-39384D01*
X48097Y-39409D01*
X48051Y-39455D01*
X48026Y-39514D01*
X48026Y-39579D01*
X48051Y-39639D01*
X48068Y-39656D01*
X48055Y-39670D01*
X48029Y-39733D01*
X48028Y-39802D01*
X48051Y-39855D01*
X48039Y-39867D01*
X48013Y-39930D01*
X48012Y-39999D01*
X48039Y-40062D01*
X48087Y-40110D01*
X48150Y-40136D01*
X48219Y-40137D01*
X48282Y-40110D01*
X48330Y-40062D01*
X48356Y-39999D01*
X48357Y-39930D01*
X48334Y-39877D01*
X48346Y-39865D01*
X48372Y-39802D01*
X48373Y-39733D01*
X48373Y-40914D01*
X48353Y-40866D01*
X48353Y-40320D01*
X48326Y-40257D01*
X48278Y-40209D01*
X48215Y-40183D01*
X48146Y-40182D01*
X48083Y-40209D01*
X48035Y-40257D01*
X48009Y-40320D01*
X48008Y-40389D01*
X48035Y-40452D01*
X48083Y-40500D01*
X48146Y-40526D01*
X48215Y-40527D01*
X48278Y-40500D01*
X48326Y-40452D01*
X48352Y-40389D01*
X48353Y-40320D01*
X48353Y-40866D01*
X48346Y-40851D01*
X48325Y-40829D01*
X48344Y-40782D01*
X48345Y-40713D01*
X48318Y-40650D01*
X48270Y-40602D01*
X48207Y-40576D01*
X48138Y-40575D01*
X48075Y-40602D01*
X48027Y-40650D01*
X48001Y-40713D01*
X48000Y-40782D01*
X48027Y-40845D01*
X48048Y-40867D01*
X48029Y-40914D01*
X48028Y-40974D01*
X47977Y-40996D01*
X47929Y-41044D01*
X47903Y-41107D01*
X47902Y-41176D01*
X47929Y-41239D01*
X47977Y-41287D01*
X48040Y-41313D01*
X48109Y-41314D01*
X48172Y-41287D01*
X48220Y-41239D01*
X48246Y-41176D01*
X48247Y-41116D01*
X48298Y-41094D01*
X48346Y-41046D01*
X48372Y-40983D01*
X48373Y-40914D01*
X48373Y-45295D01*
X48369Y-45295D01*
X48369Y-41697D01*
X48342Y-41634D01*
X48294Y-41586D01*
X48231Y-41560D01*
X48162Y-41559D01*
X48099Y-41586D01*
X48051Y-41634D01*
X48025Y-41697D01*
X48024Y-41766D01*
X48051Y-41829D01*
X48055Y-41833D01*
X48051Y-41836D01*
X48026Y-41896D01*
X48026Y-41961D01*
X48049Y-42016D01*
X48031Y-42033D01*
X48006Y-42093D01*
X48006Y-42158D01*
X48031Y-42217D01*
X48077Y-42263D01*
X48136Y-42288D01*
X48201Y-42288D01*
X48261Y-42263D01*
X48306Y-42218D01*
X48331Y-42158D01*
X48331Y-42093D01*
X48309Y-42038D01*
X48326Y-42021D01*
X48351Y-41961D01*
X48351Y-41896D01*
X48329Y-41843D01*
X48342Y-41829D01*
X48368Y-41766D01*
X48369Y-41697D01*
X48369Y-45295D01*
X48326Y-45295D01*
X48326Y-42690D01*
X48299Y-42627D01*
X48251Y-42579D01*
X48188Y-42553D01*
X48119Y-42552D01*
X48056Y-42579D01*
X48008Y-42627D01*
X47982Y-42690D01*
X47981Y-42759D01*
X48008Y-42822D01*
X48056Y-42870D01*
X48119Y-42896D01*
X48188Y-42897D01*
X48251Y-42870D01*
X48299Y-42822D01*
X48325Y-42759D01*
X48326Y-42690D01*
X48326Y-45295D01*
X47760Y-45295D01*
X47760Y-42633D01*
X47760Y-39098D01*
X47396Y-39098D01*
X47396Y-37890D01*
X47396Y-37379D01*
X47382Y-37344D01*
X47356Y-37318D01*
X47321Y-37304D01*
X47284Y-37304D01*
X46772Y-37304D01*
X46738Y-37318D01*
X46712Y-37344D01*
X46708Y-37352D01*
X46698Y-37327D01*
X46685Y-37296D01*
X46660Y-37272D01*
X46660Y-37272D01*
X46636Y-37247D01*
X46573Y-37221D01*
X46505Y-37221D01*
X46442Y-37247D01*
X46417Y-37272D01*
X46417Y-37272D01*
X46417Y-37272D01*
X46393Y-37296D01*
X46367Y-37359D01*
X46367Y-37427D01*
X46367Y-37427D01*
X46367Y-37531D01*
X46380Y-37597D01*
X46417Y-37653D01*
X46539Y-37775D01*
X46595Y-37812D01*
X46595Y-37812D01*
X46661Y-37825D01*
X46697Y-37825D01*
X46697Y-37927D01*
X46712Y-37962D01*
X46738Y-37988D01*
X46772Y-38002D01*
X46809Y-38002D01*
X47321Y-38002D01*
X47356Y-37988D01*
X47382Y-37962D01*
X47396Y-37928D01*
X47396Y-37890D01*
X47396Y-39098D01*
X46213Y-39098D01*
X46213Y-42633D01*
X47760Y-42633D01*
X47760Y-45295D01*
X46409Y-45295D01*
X46139Y-45564D01*
X46139Y-44573D01*
X46160Y-44564D01*
X46237Y-44488D01*
X46278Y-44389D01*
X46278Y-44281D01*
X46237Y-44181D01*
X46173Y-44118D01*
X46237Y-44055D01*
X46278Y-43956D01*
X46278Y-43848D01*
X46237Y-43748D01*
X46173Y-43685D01*
X46237Y-43622D01*
X46278Y-43523D01*
X46278Y-43415D01*
X46237Y-43315D01*
X46161Y-43239D01*
X46139Y-43230D01*
X46139Y-35734D01*
X46160Y-35725D01*
X46237Y-35649D01*
X46278Y-35550D01*
X46278Y-35442D01*
X46237Y-35342D01*
X46173Y-35279D01*
X46237Y-35216D01*
X46278Y-35117D01*
X46278Y-35009D01*
X46237Y-34909D01*
X46173Y-34846D01*
X46237Y-34783D01*
X46278Y-34684D01*
X46278Y-34576D01*
X46237Y-34476D01*
X46161Y-34400D01*
X46139Y-34391D01*
X46139Y-30151D01*
X47978Y-30151D01*
X47978Y-32834D01*
X47988Y-32885D01*
X48011Y-32920D01*
X48011Y-32932D01*
X48024Y-32932D01*
X48059Y-32956D01*
X48110Y-32966D01*
X48369Y-32966D01*
X48366Y-32973D01*
X48366Y-33011D01*
X48366Y-33371D01*
X48229Y-33371D01*
X48195Y-33385D01*
X48188Y-33391D01*
X48182Y-33385D01*
X48148Y-33371D01*
X48111Y-33371D01*
X47835Y-33371D01*
X47801Y-33385D01*
X47775Y-33411D01*
X47760Y-33445D01*
X47760Y-33483D01*
X47760Y-34014D01*
X47775Y-34048D01*
X47801Y-34075D01*
X47835Y-34089D01*
X47872Y-34089D01*
X48148Y-34089D01*
X48154Y-34087D01*
X48154Y-34101D01*
X48148Y-34099D01*
X48111Y-34099D01*
X47835Y-34099D01*
X47801Y-34113D01*
X47775Y-34139D01*
X47769Y-34153D01*
X47742Y-34153D01*
X47736Y-34140D01*
X47710Y-34113D01*
X47676Y-34099D01*
X47638Y-34099D01*
X47363Y-34099D01*
X47357Y-34101D01*
X47357Y-34085D01*
X47363Y-34088D01*
X47400Y-34088D01*
X47675Y-34088D01*
X47710Y-34074D01*
X47736Y-34047D01*
X47750Y-34013D01*
X47750Y-33976D01*
X47750Y-33444D01*
X47736Y-33410D01*
X47710Y-33384D01*
X47676Y-33369D01*
X47638Y-33369D01*
X47363Y-33369D01*
X47328Y-33384D01*
X47302Y-33410D01*
X47288Y-33444D01*
X47288Y-33481D01*
X47288Y-33865D01*
X47282Y-33863D01*
X47245Y-33863D01*
X47066Y-33863D01*
X47066Y-32122D01*
X47033Y-32042D01*
X46973Y-31982D01*
X46893Y-31949D01*
X46807Y-31948D01*
X46728Y-31981D01*
X46667Y-32042D01*
X46634Y-32122D01*
X46634Y-32208D01*
X46666Y-32287D01*
X46727Y-32348D01*
X46807Y-32381D01*
X46893Y-32381D01*
X46972Y-32348D01*
X47033Y-32288D01*
X47066Y-32208D01*
X47066Y-32122D01*
X47066Y-33863D01*
X47009Y-33863D01*
X46974Y-33877D01*
X46948Y-33903D01*
X46934Y-33938D01*
X46934Y-33975D01*
X46934Y-34237D01*
X46713Y-34237D01*
X46679Y-34251D01*
X46653Y-34277D01*
X46638Y-34312D01*
X46638Y-34349D01*
X46638Y-34630D01*
X46441Y-34630D01*
X46407Y-34645D01*
X46381Y-34671D01*
X46366Y-34705D01*
X46366Y-34743D01*
X46366Y-35215D01*
X46381Y-35249D01*
X46407Y-35275D01*
X46441Y-35289D01*
X46478Y-35290D01*
X46623Y-35290D01*
X46623Y-35798D01*
X46601Y-35807D01*
X46575Y-35833D01*
X46561Y-35868D01*
X46561Y-35905D01*
X46561Y-36100D01*
X46575Y-36134D01*
X46601Y-36160D01*
X46635Y-36175D01*
X46673Y-36175D01*
X46868Y-36175D01*
X46902Y-36161D01*
X46928Y-36134D01*
X46929Y-36134D01*
X46929Y-36134D01*
X46955Y-36160D01*
X46957Y-36161D01*
X46949Y-36161D01*
X46949Y-37145D01*
X47972Y-37145D01*
X47972Y-36554D01*
X47988Y-36554D01*
X48015Y-36582D01*
X48086Y-36611D01*
X48162Y-36612D01*
X48232Y-36583D01*
X48260Y-36554D01*
X48873Y-36554D01*
X48882Y-36563D01*
X48952Y-36592D01*
X49028Y-36592D01*
X49098Y-36563D01*
X49106Y-36554D01*
X49271Y-36554D01*
X49271Y-35962D01*
X49610Y-35962D01*
X49660Y-35952D01*
X49703Y-35924D01*
X50011Y-35616D01*
X50752Y-35616D01*
X50927Y-35790D01*
X50927Y-35944D01*
X50937Y-35995D01*
X50965Y-36038D01*
X51209Y-36282D01*
X51209Y-36282D01*
X51252Y-36310D01*
X51303Y-36320D01*
X51628Y-36320D01*
X51586Y-36363D01*
X51560Y-36426D01*
X51559Y-36495D01*
X51586Y-36558D01*
X51634Y-36606D01*
X51697Y-36632D01*
X51766Y-36633D01*
X51789Y-36623D01*
X51799Y-36646D01*
X51825Y-36672D01*
X51859Y-36686D01*
X51897Y-36687D01*
X52092Y-36687D01*
X52126Y-36672D01*
X52152Y-36646D01*
X52166Y-36612D01*
X52167Y-36574D01*
X52167Y-36379D01*
X52152Y-36345D01*
X52126Y-36319D01*
X52092Y-36305D01*
X52054Y-36304D01*
X51859Y-36304D01*
X51831Y-36316D01*
X51829Y-36315D01*
X51766Y-36289D01*
X51725Y-36288D01*
X51735Y-36282D01*
X52010Y-36006D01*
X52010Y-36006D01*
X52010Y-36006D01*
X52038Y-35965D01*
X52047Y-35987D01*
X52095Y-36035D01*
X52158Y-36061D01*
X52227Y-36062D01*
X52290Y-36035D01*
X52338Y-35987D01*
X52364Y-35924D01*
X52365Y-35855D01*
X52338Y-35792D01*
X52290Y-35744D01*
X52227Y-35718D01*
X52158Y-35717D01*
X52095Y-35744D01*
X52049Y-35790D01*
X52049Y-35657D01*
X52069Y-35609D01*
X52069Y-35548D01*
X52046Y-35492D01*
X52003Y-35449D01*
X51947Y-35426D01*
X51887Y-35426D01*
X51831Y-35449D01*
X51788Y-35492D01*
X51765Y-35548D01*
X51765Y-35608D01*
X51785Y-35657D01*
X51785Y-35858D01*
X51587Y-36056D01*
X51560Y-36056D01*
X51590Y-36026D01*
X51616Y-35963D01*
X51617Y-35894D01*
X51590Y-35831D01*
X51558Y-35798D01*
X51558Y-35587D01*
X51561Y-35587D01*
X51595Y-35572D01*
X51621Y-35546D01*
X51635Y-35512D01*
X51636Y-35474D01*
X51636Y-35459D01*
X51703Y-35460D01*
X51766Y-35433D01*
X51814Y-35385D01*
X51840Y-35322D01*
X51841Y-35253D01*
X51814Y-35190D01*
X51766Y-35142D01*
X51703Y-35116D01*
X51636Y-35115D01*
X51636Y-35104D01*
X51636Y-34929D01*
X51621Y-34895D01*
X51597Y-34870D01*
X51597Y-34552D01*
X51592Y-34530D01*
X51588Y-34501D01*
X51586Y-34497D01*
X51585Y-34493D01*
X51573Y-34476D01*
X51558Y-34450D01*
X51360Y-34229D01*
X51360Y-34206D01*
X51331Y-34135D01*
X51277Y-34082D01*
X51207Y-34053D01*
X51131Y-34052D01*
X51060Y-34081D01*
X51007Y-34135D01*
X50978Y-34205D01*
X50977Y-34281D01*
X51006Y-34352D01*
X51060Y-34405D01*
X51130Y-34434D01*
X51136Y-34434D01*
X51293Y-34609D01*
X51293Y-34870D01*
X51268Y-34895D01*
X51254Y-34929D01*
X51253Y-34967D01*
X51253Y-35142D01*
X51268Y-35176D01*
X51294Y-35202D01*
X51328Y-35216D01*
X51366Y-35217D01*
X51512Y-35217D01*
X51508Y-35224D01*
X51328Y-35224D01*
X51294Y-35239D01*
X51268Y-35265D01*
X51254Y-35299D01*
X51253Y-35337D01*
X51253Y-35512D01*
X51268Y-35546D01*
X51294Y-35572D01*
X51328Y-35586D01*
X51332Y-35586D01*
X51332Y-35798D01*
X51299Y-35831D01*
X51273Y-35894D01*
X51272Y-35963D01*
X51279Y-35978D01*
X51191Y-35890D01*
X51191Y-35736D01*
X51181Y-35685D01*
X51152Y-35642D01*
X51152Y-35642D01*
X50900Y-35390D01*
X50857Y-35362D01*
X50807Y-35352D01*
X50248Y-35352D01*
X50266Y-35309D01*
X50266Y-35249D01*
X50243Y-35193D01*
X50200Y-35150D01*
X50144Y-35127D01*
X50097Y-35127D01*
X50097Y-34891D01*
X50071Y-34827D01*
X50029Y-34786D01*
X50029Y-34259D01*
X50054Y-34234D01*
X50068Y-34200D01*
X50068Y-34163D01*
X50068Y-33988D01*
X50054Y-33954D01*
X50028Y-33927D01*
X49994Y-33913D01*
X49956Y-33913D01*
X49761Y-33913D01*
X49727Y-33927D01*
X49701Y-33953D01*
X49686Y-33988D01*
X49686Y-34025D01*
X49686Y-34200D01*
X49701Y-34234D01*
X49725Y-34259D01*
X49725Y-34877D01*
X49737Y-34936D01*
X49753Y-34959D01*
X49779Y-35022D01*
X49827Y-35070D01*
X49890Y-35097D01*
X49959Y-35097D01*
X50022Y-35071D01*
X50070Y-35022D01*
X50097Y-34959D01*
X50097Y-34891D01*
X50097Y-35127D01*
X50084Y-35127D01*
X50028Y-35150D01*
X49985Y-35193D01*
X49962Y-35249D01*
X49962Y-35309D01*
X49979Y-35352D01*
X49956Y-35352D01*
X49956Y-35352D01*
X49946Y-35354D01*
X49906Y-35362D01*
X49863Y-35390D01*
X49863Y-35390D01*
X49555Y-35698D01*
X49271Y-35698D01*
X49271Y-34180D01*
X49295Y-34204D01*
X49295Y-34204D01*
X49306Y-34211D01*
X49306Y-34211D01*
X49311Y-34223D01*
X49337Y-34249D01*
X49372Y-34263D01*
X49409Y-34263D01*
X49604Y-34263D01*
X49638Y-34249D01*
X49664Y-34223D01*
X49679Y-34188D01*
X49679Y-34151D01*
X49679Y-33976D01*
X49665Y-33942D01*
X49638Y-33915D01*
X49604Y-33901D01*
X49567Y-33901D01*
X49479Y-33901D01*
X49471Y-33893D01*
X49604Y-33893D01*
X49638Y-33879D01*
X49664Y-33853D01*
X49668Y-33844D01*
X49692Y-33844D01*
X49701Y-33864D01*
X49727Y-33891D01*
X49761Y-33905D01*
X49798Y-33905D01*
X49993Y-33905D01*
X50028Y-33891D01*
X50054Y-33864D01*
X50068Y-33830D01*
X50068Y-33793D01*
X50068Y-33618D01*
X50054Y-33584D01*
X50028Y-33557D01*
X49994Y-33543D01*
X49956Y-33543D01*
X49761Y-33543D01*
X49727Y-33557D01*
X49704Y-33580D01*
X49668Y-33580D01*
X49665Y-33572D01*
X49638Y-33545D01*
X49620Y-33538D01*
X49620Y-33507D01*
X49638Y-33499D01*
X49665Y-33473D01*
X49679Y-33439D01*
X49679Y-33401D01*
X49679Y-33206D01*
X49665Y-33172D01*
X49638Y-33146D01*
X49604Y-33131D01*
X49567Y-33131D01*
X49482Y-33131D01*
X49444Y-33106D01*
X49394Y-33096D01*
X49144Y-33096D01*
X49144Y-32973D01*
X49141Y-32966D01*
X52866Y-32966D01*
X52852Y-32972D01*
X52759Y-33064D01*
X52709Y-33185D01*
X52709Y-33317D01*
X52759Y-33438D01*
X52852Y-33531D01*
X52973Y-33581D01*
X53104Y-33581D01*
X53225Y-33531D01*
X53318Y-33438D01*
X53368Y-33317D01*
X53369Y-33186D01*
X53318Y-33065D01*
X53226Y-32972D01*
X53212Y-32966D01*
X53866Y-32966D01*
X53852Y-32972D01*
X53759Y-33064D01*
X53709Y-33185D01*
X53709Y-33317D01*
X53759Y-33438D01*
X53852Y-33531D01*
X53973Y-33581D01*
X54104Y-33581D01*
X54225Y-33531D01*
X54318Y-33438D01*
X54368Y-33317D01*
X54369Y-33186D01*
X54318Y-33065D01*
X54226Y-32972D01*
X54212Y-32966D01*
X54866Y-32966D01*
X54852Y-32972D01*
X54759Y-33064D01*
X54709Y-33185D01*
X54709Y-33317D01*
X54759Y-33438D01*
X54852Y-33531D01*
X54973Y-33581D01*
X55104Y-33581D01*
X55225Y-33531D01*
X55318Y-33438D01*
X55368Y-33317D01*
X55369Y-33186D01*
X55318Y-33065D01*
X55226Y-32972D01*
X55212Y-32966D01*
X55866Y-32966D01*
X55852Y-32972D01*
X55759Y-33064D01*
X55709Y-33185D01*
X55709Y-33317D01*
X55759Y-33438D01*
X55852Y-33531D01*
X55973Y-33581D01*
X56104Y-33581D01*
X56225Y-33531D01*
X56318Y-33438D01*
X56368Y-33317D01*
X56369Y-33186D01*
X56318Y-33065D01*
X56226Y-32972D01*
X56212Y-32966D01*
X56253Y-32966D01*
X56271Y-32985D01*
X56370Y-33026D01*
X56478Y-33026D01*
X56578Y-32985D01*
X56630Y-32932D01*
X56652Y-32932D01*
X56704Y-32985D01*
X56800Y-33024D01*
X56759Y-33064D01*
X56709Y-33185D01*
X56709Y-33317D01*
X56759Y-33438D01*
X56852Y-33531D01*
X56973Y-33581D01*
X57104Y-33581D01*
X57225Y-33531D01*
X57318Y-33438D01*
X57368Y-33317D01*
X57369Y-33186D01*
X57318Y-33065D01*
X57280Y-33026D01*
X57344Y-33026D01*
X57444Y-32985D01*
X57496Y-32932D01*
X57519Y-32932D01*
X57571Y-32985D01*
X57670Y-33026D01*
X57778Y-33026D01*
X57878Y-32985D01*
X57896Y-32966D01*
X64773Y-32966D01*
X64773Y-39037D01*
X64704Y-38968D01*
X64704Y-38180D01*
X64625Y-38102D01*
X64625Y-33264D01*
X64592Y-33184D01*
X64532Y-33123D01*
X64452Y-33090D01*
X64366Y-33090D01*
X64287Y-33123D01*
X64226Y-33184D01*
X64193Y-33263D01*
X64193Y-33349D01*
X64225Y-33429D01*
X64286Y-33490D01*
X64366Y-33523D01*
X64452Y-33523D01*
X64531Y-33490D01*
X64592Y-33429D01*
X64625Y-33350D01*
X64625Y-33264D01*
X64625Y-38102D01*
X64541Y-38017D01*
X64496Y-37972D01*
X63338Y-37972D01*
X63090Y-38220D01*
X63090Y-39260D01*
X63248Y-39417D01*
X63248Y-42094D01*
X63495Y-42342D01*
X64415Y-42342D01*
X64773Y-42103D01*
X64773Y-49270D01*
X64773Y-49270D01*
G37*
G54D117*
X64773Y-49270D02*
X64729Y-49226D01*
X64649Y-49193D01*
X64563Y-49193D01*
X64483Y-49225D01*
X64422Y-49286D01*
X64389Y-49366D01*
X64389Y-49452D01*
X64422Y-49531D01*
X64483Y-49592D01*
X64491Y-49596D01*
X64389Y-49596D01*
X64389Y-45216D01*
X64389Y-44429D01*
X63562Y-44429D01*
X63562Y-44311D01*
X62617Y-44311D01*
X62617Y-35767D01*
X63562Y-35767D01*
X63562Y-35649D01*
X64350Y-35649D01*
X64350Y-34862D01*
X62617Y-34862D01*
X62617Y-33996D01*
X53878Y-33996D01*
X53878Y-34670D01*
X53871Y-34670D01*
X53808Y-34697D01*
X53760Y-34745D01*
X53734Y-34808D01*
X53733Y-34877D01*
X53760Y-34940D01*
X53808Y-34988D01*
X53871Y-35014D01*
X53878Y-35014D01*
X53878Y-46082D01*
X62617Y-46082D01*
X62617Y-45216D01*
X64389Y-45216D01*
X64389Y-49596D01*
X64270Y-49596D01*
X64270Y-47941D01*
X64270Y-47344D01*
X64255Y-47310D01*
X64229Y-47284D01*
X64195Y-47269D01*
X64158Y-47269D01*
X63561Y-47269D01*
X63526Y-47284D01*
X63500Y-47310D01*
X63486Y-47344D01*
X63486Y-47381D01*
X63486Y-47978D01*
X63500Y-48013D01*
X63526Y-48039D01*
X63560Y-48053D01*
X63598Y-48053D01*
X64195Y-48053D01*
X64229Y-48039D01*
X64255Y-48013D01*
X64270Y-47979D01*
X64270Y-47941D01*
X64270Y-49596D01*
X63964Y-49596D01*
X64087Y-49544D01*
X64198Y-49434D01*
X64257Y-49290D01*
X64258Y-49134D01*
X64198Y-48990D01*
X64088Y-48880D01*
X63944Y-48820D01*
X63788Y-48820D01*
X63644Y-48879D01*
X63533Y-48990D01*
X63474Y-49134D01*
X63473Y-49290D01*
X63533Y-49434D01*
X63643Y-49544D01*
X63767Y-49596D01*
X63270Y-49596D01*
X63270Y-47564D01*
X63210Y-47420D01*
X63100Y-47309D01*
X62956Y-47249D01*
X62800Y-47249D01*
X62656Y-47309D01*
X62545Y-47419D01*
X62486Y-47563D01*
X62486Y-47719D01*
X62545Y-47863D01*
X62655Y-47973D01*
X62799Y-48033D01*
X62955Y-48033D01*
X63099Y-47974D01*
X63210Y-47864D01*
X63270Y-47720D01*
X63270Y-47564D01*
X63270Y-49596D01*
X62964Y-49596D01*
X63087Y-49544D01*
X63198Y-49434D01*
X63257Y-49290D01*
X63258Y-49134D01*
X63198Y-48990D01*
X63088Y-48880D01*
X62944Y-48820D01*
X62788Y-48820D01*
X62644Y-48879D01*
X62533Y-48990D01*
X62474Y-49134D01*
X62473Y-49290D01*
X62533Y-49434D01*
X62643Y-49544D01*
X62767Y-49596D01*
X61270Y-49596D01*
X61270Y-47564D01*
X61210Y-47420D01*
X61100Y-47309D01*
X60956Y-47249D01*
X60800Y-47249D01*
X60656Y-47309D01*
X60545Y-47419D01*
X60486Y-47563D01*
X60486Y-47719D01*
X60545Y-47863D01*
X60655Y-47973D01*
X60799Y-48033D01*
X60955Y-48033D01*
X61099Y-47974D01*
X61210Y-47864D01*
X61270Y-47720D01*
X61270Y-47564D01*
X61270Y-49596D01*
X60964Y-49596D01*
X61087Y-49544D01*
X61198Y-49434D01*
X61257Y-49290D01*
X61258Y-49134D01*
X61198Y-48990D01*
X61088Y-48880D01*
X60944Y-48820D01*
X60788Y-48820D01*
X60644Y-48879D01*
X60533Y-48990D01*
X60474Y-49134D01*
X60473Y-49290D01*
X60533Y-49434D01*
X60643Y-49544D01*
X60767Y-49596D01*
X60270Y-49596D01*
X60270Y-47564D01*
X60210Y-47420D01*
X60100Y-47309D01*
X59956Y-47249D01*
X59800Y-47249D01*
X59656Y-47309D01*
X59545Y-47419D01*
X59486Y-47563D01*
X59486Y-47719D01*
X59545Y-47863D01*
X59655Y-47973D01*
X59799Y-48033D01*
X59955Y-48033D01*
X60099Y-47974D01*
X60210Y-47864D01*
X60270Y-47720D01*
X60270Y-47564D01*
X60270Y-49596D01*
X60258Y-49596D01*
X60258Y-49472D01*
X60258Y-48875D01*
X60243Y-48841D01*
X60217Y-48814D01*
X60183Y-48800D01*
X60145Y-48800D01*
X59548Y-48800D01*
X59514Y-48814D01*
X59488Y-48840D01*
X59474Y-48875D01*
X59474Y-48912D01*
X59474Y-49509D01*
X59488Y-49543D01*
X59514Y-49570D01*
X59548Y-49584D01*
X59586Y-49584D01*
X60183Y-49584D01*
X60217Y-49570D01*
X60243Y-49544D01*
X60257Y-49509D01*
X60258Y-49472D01*
X60258Y-49596D01*
X57936Y-49596D01*
X57879Y-49538D01*
X57780Y-49497D01*
X57672Y-49497D01*
X57572Y-49538D01*
X57508Y-49602D01*
X57445Y-49538D01*
X57346Y-49497D01*
X57238Y-49497D01*
X57138Y-49538D01*
X57075Y-49601D01*
X57012Y-49538D01*
X56913Y-49497D01*
X56805Y-49497D01*
X56705Y-49538D01*
X56642Y-49601D01*
X56579Y-49538D01*
X56480Y-49497D01*
X56411Y-49497D01*
X56411Y-47638D01*
X56411Y-47205D01*
X56382Y-47135D01*
X56328Y-47081D01*
X56258Y-47052D01*
X56182Y-47052D01*
X56112Y-47081D01*
X56058Y-47134D01*
X56029Y-47204D01*
X56029Y-47280D01*
X56058Y-47351D01*
X56112Y-47404D01*
X56182Y-47434D01*
X56258Y-47434D01*
X56328Y-47405D01*
X56382Y-47351D01*
X56411Y-47281D01*
X56411Y-47205D01*
X56411Y-47638D01*
X56382Y-47568D01*
X56328Y-47514D01*
X56258Y-47485D01*
X56182Y-47485D01*
X56112Y-47514D01*
X56058Y-47567D01*
X56029Y-47638D01*
X56029Y-47713D01*
X56058Y-47784D01*
X56112Y-47837D01*
X56182Y-47867D01*
X56258Y-47867D01*
X56328Y-47838D01*
X56382Y-47784D01*
X56411Y-47714D01*
X56411Y-47638D01*
X56411Y-49497D01*
X56372Y-49497D01*
X56272Y-49538D01*
X56215Y-49596D01*
X56155Y-49596D01*
X56155Y-49075D01*
X56155Y-48761D01*
X56141Y-48727D01*
X56115Y-48700D01*
X56081Y-48686D01*
X56043Y-48686D01*
X55978Y-48686D01*
X55978Y-48071D01*
X55978Y-47638D01*
X55978Y-47204D01*
X55949Y-47134D01*
X55895Y-47080D01*
X55825Y-47051D01*
X55749Y-47051D01*
X55679Y-47080D01*
X55625Y-47133D01*
X55596Y-47203D01*
X55596Y-47279D01*
X55625Y-47350D01*
X55679Y-47403D01*
X55749Y-47433D01*
X55825Y-47433D01*
X55895Y-47404D01*
X55949Y-47350D01*
X55978Y-47280D01*
X55978Y-47204D01*
X55978Y-47638D01*
X55949Y-47568D01*
X55895Y-47514D01*
X55825Y-47485D01*
X55749Y-47485D01*
X55679Y-47514D01*
X55625Y-47567D01*
X55596Y-47638D01*
X55596Y-47713D01*
X55625Y-47784D01*
X55679Y-47837D01*
X55749Y-47867D01*
X55825Y-47867D01*
X55895Y-47838D01*
X55949Y-47784D01*
X55978Y-47714D01*
X55978Y-47638D01*
X55978Y-48071D01*
X55949Y-48001D01*
X55895Y-47947D01*
X55825Y-47918D01*
X55749Y-47918D01*
X55679Y-47947D01*
X55675Y-47951D01*
X55540Y-47951D01*
X55479Y-47963D01*
X55428Y-47997D01*
X55348Y-48077D01*
X55314Y-48128D01*
X55302Y-48188D01*
X55302Y-48250D01*
X55283Y-48268D01*
X55269Y-48303D01*
X55269Y-48340D01*
X55269Y-48515D01*
X55283Y-48549D01*
X55310Y-48576D01*
X55344Y-48590D01*
X55381Y-48590D01*
X55576Y-48590D01*
X55611Y-48576D01*
X55637Y-48550D01*
X55651Y-48515D01*
X55651Y-48478D01*
X55651Y-48303D01*
X55637Y-48269D01*
X55635Y-48267D01*
X55675Y-48267D01*
X55679Y-48271D01*
X55749Y-48300D01*
X55825Y-48300D01*
X55895Y-48271D01*
X55949Y-48217D01*
X55978Y-48147D01*
X55978Y-48071D01*
X55978Y-48686D01*
X55729Y-48686D01*
X55695Y-48700D01*
X55669Y-48726D01*
X55658Y-48753D01*
X55651Y-48747D01*
X55651Y-48673D01*
X55637Y-48639D01*
X55611Y-48612D01*
X55576Y-48598D01*
X55539Y-48598D01*
X55344Y-48598D01*
X55310Y-48612D01*
X55283Y-48638D01*
X55269Y-48673D01*
X55269Y-48710D01*
X55269Y-48885D01*
X55283Y-48919D01*
X55310Y-48946D01*
X55344Y-48960D01*
X55381Y-48960D01*
X55418Y-48960D01*
X55506Y-49048D01*
X55557Y-49082D01*
X55557Y-49082D01*
X55618Y-49095D01*
X55654Y-49095D01*
X55654Y-49112D01*
X55669Y-49146D01*
X55695Y-49173D01*
X55729Y-49187D01*
X55766Y-49187D01*
X56080Y-49187D01*
X56115Y-49173D01*
X56141Y-49147D01*
X56155Y-49112D01*
X56155Y-49075D01*
X56155Y-49596D01*
X53834Y-49596D01*
X53834Y-38520D01*
X53807Y-38457D01*
X53805Y-38455D01*
X53807Y-38452D01*
X53833Y-38389D01*
X53834Y-38320D01*
X53807Y-38257D01*
X53759Y-38209D01*
X53696Y-38183D01*
X53627Y-38182D01*
X53564Y-38209D01*
X53516Y-38257D01*
X53495Y-38308D01*
X53495Y-36418D01*
X53468Y-36355D01*
X53420Y-36307D01*
X53357Y-36281D01*
X53288Y-36280D01*
X53243Y-36299D01*
X53243Y-34827D01*
X53216Y-34764D01*
X53168Y-34716D01*
X53105Y-34690D01*
X53036Y-34689D01*
X52973Y-34716D01*
X52925Y-34764D01*
X52899Y-34827D01*
X52898Y-34896D01*
X52910Y-34923D01*
X52871Y-34922D01*
X52808Y-34949D01*
X52760Y-34997D01*
X52734Y-35060D01*
X52733Y-35129D01*
X52760Y-35192D01*
X52808Y-35240D01*
X52871Y-35266D01*
X52940Y-35267D01*
X53003Y-35240D01*
X53051Y-35192D01*
X53077Y-35129D01*
X53078Y-35060D01*
X53066Y-35033D01*
X53105Y-35034D01*
X53168Y-35007D01*
X53216Y-34959D01*
X53242Y-34896D01*
X53243Y-34827D01*
X53243Y-36299D01*
X53225Y-36307D01*
X53177Y-36355D01*
X53151Y-36418D01*
X53150Y-36487D01*
X53177Y-36550D01*
X53225Y-36598D01*
X53288Y-36624D01*
X53357Y-36625D01*
X53420Y-36598D01*
X53468Y-36550D01*
X53494Y-36487D01*
X53495Y-36418D01*
X53495Y-38308D01*
X53490Y-38320D01*
X53489Y-38389D01*
X53516Y-38452D01*
X53518Y-38454D01*
X53516Y-38457D01*
X53490Y-38520D01*
X53489Y-38589D01*
X53516Y-38652D01*
X53564Y-38700D01*
X53627Y-38726D01*
X53696Y-38727D01*
X53759Y-38700D01*
X53807Y-38652D01*
X53833Y-38589D01*
X53834Y-38520D01*
X53834Y-49596D01*
X53822Y-49596D01*
X53822Y-41501D01*
X53822Y-38946D01*
X53795Y-38883D01*
X53747Y-38835D01*
X53684Y-38809D01*
X53615Y-38808D01*
X53552Y-38835D01*
X53504Y-38883D01*
X53478Y-38946D01*
X53477Y-39015D01*
X53504Y-39078D01*
X53552Y-39126D01*
X53615Y-39152D01*
X53684Y-39153D01*
X53747Y-39126D01*
X53795Y-39078D01*
X53821Y-39015D01*
X53822Y-38946D01*
X53822Y-41501D01*
X53798Y-41443D01*
X53798Y-39335D01*
X53771Y-39272D01*
X53723Y-39224D01*
X53660Y-39198D01*
X53591Y-39197D01*
X53528Y-39224D01*
X53480Y-39272D01*
X53454Y-39335D01*
X53453Y-39404D01*
X53477Y-39460D01*
X53464Y-39473D01*
X53438Y-39536D01*
X53437Y-39605D01*
X53464Y-39668D01*
X53512Y-39716D01*
X53575Y-39742D01*
X53644Y-39743D01*
X53707Y-39716D01*
X53755Y-39668D01*
X53781Y-39605D01*
X53782Y-39536D01*
X53758Y-39480D01*
X53771Y-39467D01*
X53797Y-39404D01*
X53798Y-39335D01*
X53798Y-41443D01*
X53795Y-41438D01*
X53774Y-41416D01*
X53774Y-40524D01*
X53755Y-40478D01*
X53755Y-40166D01*
X53728Y-40103D01*
X53680Y-40055D01*
X53617Y-40029D01*
X53548Y-40028D01*
X53485Y-40055D01*
X53437Y-40103D01*
X53411Y-40166D01*
X53410Y-40235D01*
X53437Y-40298D01*
X53485Y-40346D01*
X53548Y-40372D01*
X53617Y-40373D01*
X53680Y-40346D01*
X53728Y-40298D01*
X53754Y-40235D01*
X53755Y-40166D01*
X53755Y-40478D01*
X53747Y-40461D01*
X53699Y-40413D01*
X53636Y-40387D01*
X53567Y-40386D01*
X53504Y-40413D01*
X53456Y-40461D01*
X53430Y-40524D01*
X53429Y-40593D01*
X53456Y-40656D01*
X53504Y-40704D01*
X53567Y-40730D01*
X53636Y-40731D01*
X53699Y-40704D01*
X53747Y-40656D01*
X53773Y-40593D01*
X53774Y-40524D01*
X53774Y-41416D01*
X53747Y-41390D01*
X53699Y-41370D01*
X53736Y-41333D01*
X53762Y-41270D01*
X53763Y-41201D01*
X53736Y-41138D01*
X53733Y-41135D01*
X53758Y-41074D01*
X53759Y-41005D01*
X53732Y-40942D01*
X53684Y-40894D01*
X53621Y-40868D01*
X53552Y-40867D01*
X53489Y-40894D01*
X53441Y-40942D01*
X53415Y-41005D01*
X53414Y-41074D01*
X53441Y-41137D01*
X53444Y-41140D01*
X53419Y-41201D01*
X53418Y-41270D01*
X53445Y-41333D01*
X53493Y-41381D01*
X53541Y-41401D01*
X53504Y-41438D01*
X53478Y-41501D01*
X53477Y-41570D01*
X53504Y-41633D01*
X53552Y-41681D01*
X53615Y-41707D01*
X53684Y-41708D01*
X53747Y-41681D01*
X53795Y-41633D01*
X53821Y-41570D01*
X53822Y-41501D01*
X53822Y-49596D01*
X53751Y-49596D01*
X53751Y-42087D01*
X53724Y-42024D01*
X53723Y-42023D01*
X53724Y-42022D01*
X53750Y-41959D01*
X53751Y-41890D01*
X53724Y-41827D01*
X53676Y-41779D01*
X53613Y-41753D01*
X53544Y-41752D01*
X53481Y-41779D01*
X53433Y-41827D01*
X53407Y-41890D01*
X53406Y-41959D01*
X53433Y-42022D01*
X53434Y-42023D01*
X53433Y-42024D01*
X53407Y-42087D01*
X53406Y-42156D01*
X53433Y-42219D01*
X53481Y-42267D01*
X53544Y-42293D01*
X53613Y-42294D01*
X53676Y-42267D01*
X53724Y-42219D01*
X53750Y-42156D01*
X53751Y-42087D01*
X53751Y-49596D01*
X53405Y-49596D01*
X53405Y-49181D01*
X53405Y-47236D01*
X53157Y-46988D01*
X53042Y-46988D01*
X53042Y-37292D01*
X53042Y-36717D01*
X53015Y-36654D01*
X52967Y-36606D01*
X52904Y-36580D01*
X52835Y-36579D01*
X52772Y-36606D01*
X52724Y-36654D01*
X52698Y-36717D01*
X52697Y-36786D01*
X52724Y-36849D01*
X52772Y-36897D01*
X52835Y-36923D01*
X52904Y-36924D01*
X52967Y-36897D01*
X53015Y-36849D01*
X53041Y-36786D01*
X53042Y-36717D01*
X53042Y-37292D01*
X53015Y-37229D01*
X52967Y-37181D01*
X52904Y-37155D01*
X52835Y-37154D01*
X52772Y-37181D01*
X52724Y-37229D01*
X52698Y-37292D01*
X52697Y-37343D01*
X52680Y-37336D01*
X52611Y-37335D01*
X52548Y-37362D01*
X52500Y-37410D01*
X52474Y-37473D01*
X52473Y-37542D01*
X52500Y-37605D01*
X52548Y-37653D01*
X52551Y-37655D01*
X52508Y-37654D01*
X52445Y-37681D01*
X52397Y-37729D01*
X52371Y-37792D01*
X52370Y-37861D01*
X52397Y-37924D01*
X52445Y-37972D01*
X52486Y-37989D01*
X52481Y-37989D01*
X52418Y-38016D01*
X52370Y-38064D01*
X52344Y-38127D01*
X52343Y-38196D01*
X52370Y-38259D01*
X52418Y-38307D01*
X52481Y-38333D01*
X52550Y-38334D01*
X52613Y-38307D01*
X52661Y-38259D01*
X52687Y-38196D01*
X52688Y-38127D01*
X52661Y-38064D01*
X52613Y-38016D01*
X52572Y-37999D01*
X52577Y-37999D01*
X52640Y-37972D01*
X52688Y-37924D01*
X52714Y-37861D01*
X52715Y-37792D01*
X52688Y-37729D01*
X52640Y-37681D01*
X52637Y-37679D01*
X52680Y-37680D01*
X52743Y-37653D01*
X52791Y-37605D01*
X52817Y-37542D01*
X52818Y-37491D01*
X52835Y-37498D01*
X52904Y-37499D01*
X52967Y-37472D01*
X53015Y-37424D01*
X53041Y-37361D01*
X53042Y-37292D01*
X53042Y-46988D01*
X52707Y-46988D01*
X52707Y-41697D01*
X52680Y-41634D01*
X52637Y-41590D01*
X52637Y-41008D01*
X52610Y-40945D01*
X52574Y-40908D01*
X52574Y-39780D01*
X52558Y-39742D01*
X52558Y-39146D01*
X52538Y-39098D01*
X52538Y-38737D01*
X52511Y-38674D01*
X52463Y-38626D01*
X52400Y-38600D01*
X52331Y-38599D01*
X52268Y-38626D01*
X52220Y-38674D01*
X52194Y-38737D01*
X52193Y-38806D01*
X52220Y-38869D01*
X52268Y-38917D01*
X52331Y-38943D01*
X52400Y-38944D01*
X52463Y-38917D01*
X52511Y-38869D01*
X52537Y-38806D01*
X52538Y-38737D01*
X52538Y-39098D01*
X52531Y-39083D01*
X52483Y-39035D01*
X52420Y-39009D01*
X52351Y-39008D01*
X52288Y-39035D01*
X52240Y-39083D01*
X52214Y-39146D01*
X52213Y-39215D01*
X52240Y-39278D01*
X52288Y-39326D01*
X52351Y-39352D01*
X52420Y-39353D01*
X52483Y-39326D01*
X52531Y-39278D01*
X52557Y-39215D01*
X52558Y-39146D01*
X52558Y-39742D01*
X52547Y-39717D01*
X52499Y-39669D01*
X52436Y-39643D01*
X52367Y-39642D01*
X52304Y-39669D01*
X52256Y-39717D01*
X52230Y-39780D01*
X52229Y-39843D01*
X52197Y-39843D01*
X52134Y-39870D01*
X52086Y-39918D01*
X52060Y-39981D01*
X52059Y-40050D01*
X52086Y-40113D01*
X52134Y-40161D01*
X52197Y-40187D01*
X52266Y-40188D01*
X52329Y-40161D01*
X52377Y-40113D01*
X52403Y-40050D01*
X52404Y-39987D01*
X52436Y-39987D01*
X52499Y-39960D01*
X52547Y-39912D01*
X52573Y-39849D01*
X52574Y-39780D01*
X52574Y-40908D01*
X52562Y-40897D01*
X52499Y-40871D01*
X52447Y-40870D01*
X52448Y-40812D01*
X52421Y-40749D01*
X52377Y-40705D01*
X52384Y-40688D01*
X52385Y-40619D01*
X52358Y-40556D01*
X52343Y-40540D01*
X52345Y-40539D01*
X52393Y-40491D01*
X52419Y-40428D01*
X52420Y-40359D01*
X52393Y-40296D01*
X52345Y-40248D01*
X52282Y-40222D01*
X52213Y-40221D01*
X52150Y-40248D01*
X52102Y-40296D01*
X52076Y-40359D01*
X52075Y-40428D01*
X52102Y-40491D01*
X52117Y-40507D01*
X52115Y-40508D01*
X52067Y-40556D01*
X52041Y-40619D01*
X52040Y-40688D01*
X52067Y-40751D01*
X52111Y-40795D01*
X52104Y-40812D01*
X52103Y-40881D01*
X52130Y-40944D01*
X52178Y-40992D01*
X52241Y-41018D01*
X52293Y-41019D01*
X52292Y-41077D01*
X52319Y-41140D01*
X52367Y-41188D01*
X52430Y-41214D01*
X52499Y-41215D01*
X52562Y-41188D01*
X52610Y-41140D01*
X52636Y-41077D01*
X52637Y-41008D01*
X52637Y-41590D01*
X52632Y-41586D01*
X52569Y-41560D01*
X52500Y-41559D01*
X52437Y-41586D01*
X52389Y-41634D01*
X52363Y-41697D01*
X52362Y-41766D01*
X52389Y-41829D01*
X52437Y-41877D01*
X52500Y-41903D01*
X52569Y-41904D01*
X52632Y-41877D01*
X52680Y-41829D01*
X52706Y-41766D01*
X52707Y-41697D01*
X52707Y-46988D01*
X52290Y-46988D01*
X52290Y-42319D01*
X52263Y-42256D01*
X52215Y-42208D01*
X52152Y-42182D01*
X52083Y-42181D01*
X52020Y-42208D01*
X52017Y-42211D01*
X52014Y-42209D01*
X51951Y-42183D01*
X51924Y-42183D01*
X51924Y-40713D01*
X51900Y-40655D01*
X51900Y-37205D01*
X51873Y-37142D01*
X51829Y-37098D01*
X51873Y-37054D01*
X51899Y-36991D01*
X51900Y-36922D01*
X51873Y-36859D01*
X51825Y-36811D01*
X51762Y-36785D01*
X51693Y-36784D01*
X51630Y-36811D01*
X51582Y-36859D01*
X51556Y-36922D01*
X51555Y-36991D01*
X51582Y-37054D01*
X51626Y-37098D01*
X51582Y-37142D01*
X51556Y-37205D01*
X51555Y-37274D01*
X51582Y-37337D01*
X51615Y-37370D01*
X51575Y-37410D01*
X51549Y-37473D01*
X51548Y-37542D01*
X51575Y-37605D01*
X51623Y-37653D01*
X51686Y-37679D01*
X51755Y-37680D01*
X51818Y-37653D01*
X51866Y-37605D01*
X51892Y-37542D01*
X51893Y-37473D01*
X51866Y-37410D01*
X51833Y-37377D01*
X51873Y-37337D01*
X51899Y-37274D01*
X51900Y-37205D01*
X51900Y-40655D01*
X51897Y-40650D01*
X51889Y-40641D01*
X51889Y-37957D01*
X51862Y-37894D01*
X51814Y-37846D01*
X51751Y-37820D01*
X51682Y-37819D01*
X51619Y-37846D01*
X51571Y-37894D01*
X51545Y-37957D01*
X51544Y-38026D01*
X51571Y-38089D01*
X51619Y-38137D01*
X51682Y-38163D01*
X51751Y-38164D01*
X51814Y-38137D01*
X51862Y-38089D01*
X51888Y-38026D01*
X51889Y-37957D01*
X51889Y-40641D01*
X51849Y-40602D01*
X51786Y-40576D01*
X51717Y-40575D01*
X51654Y-40602D01*
X51606Y-40650D01*
X51580Y-40713D01*
X51579Y-40782D01*
X51606Y-40845D01*
X51654Y-40893D01*
X51717Y-40919D01*
X51786Y-40920D01*
X51849Y-40893D01*
X51897Y-40845D01*
X51923Y-40782D01*
X51924Y-40713D01*
X51924Y-42183D01*
X51882Y-42182D01*
X51819Y-42209D01*
X51777Y-42251D01*
X51735Y-42209D01*
X51672Y-42183D01*
X51603Y-42182D01*
X51540Y-42209D01*
X51518Y-42231D01*
X51495Y-42209D01*
X51432Y-42183D01*
X51363Y-42182D01*
X51300Y-42209D01*
X51263Y-42246D01*
X51263Y-40914D01*
X51236Y-40851D01*
X51188Y-40803D01*
X51125Y-40777D01*
X51056Y-40776D01*
X50993Y-40803D01*
X50945Y-40851D01*
X50919Y-40914D01*
X50918Y-40983D01*
X50945Y-41046D01*
X50993Y-41094D01*
X51056Y-41120D01*
X51125Y-41121D01*
X51188Y-41094D01*
X51236Y-41046D01*
X51262Y-40983D01*
X51263Y-40914D01*
X51263Y-42246D01*
X51252Y-42257D01*
X51226Y-42320D01*
X51225Y-42389D01*
X51252Y-42452D01*
X51300Y-42500D01*
X51363Y-42526D01*
X51432Y-42527D01*
X51495Y-42500D01*
X51517Y-42478D01*
X51540Y-42500D01*
X51603Y-42526D01*
X51672Y-42527D01*
X51735Y-42500D01*
X51777Y-42458D01*
X51819Y-42500D01*
X51882Y-42526D01*
X51951Y-42527D01*
X52014Y-42500D01*
X52017Y-42497D01*
X52020Y-42499D01*
X52083Y-42525D01*
X52152Y-42526D01*
X52215Y-42499D01*
X52263Y-42451D01*
X52289Y-42388D01*
X52290Y-42319D01*
X52290Y-46988D01*
X51830Y-46988D01*
X51830Y-45165D01*
X51830Y-43613D01*
X51661Y-43445D01*
X51212Y-43445D01*
X51043Y-43613D01*
X51043Y-44532D01*
X51028Y-44567D01*
X51028Y-44636D01*
X51043Y-44672D01*
X51043Y-44864D01*
X51032Y-44890D01*
X51032Y-44959D01*
X51043Y-44985D01*
X51043Y-45165D01*
X51212Y-45334D01*
X51661Y-45334D01*
X51830Y-45165D01*
X51830Y-46988D01*
X51811Y-46988D01*
X51330Y-46988D01*
X51082Y-47236D01*
X51082Y-49220D01*
X51212Y-49350D01*
X53236Y-49350D01*
X53405Y-49181D01*
X53405Y-49596D01*
X50163Y-49596D01*
X50163Y-42446D01*
X50140Y-42390D01*
X50098Y-42347D01*
X50089Y-42343D01*
X50089Y-36977D01*
X50062Y-36914D01*
X50014Y-36866D01*
X49951Y-36840D01*
X49920Y-36840D01*
X49920Y-36190D01*
X49893Y-36127D01*
X49845Y-36079D01*
X49782Y-36053D01*
X49713Y-36052D01*
X49650Y-36079D01*
X49602Y-36127D01*
X49576Y-36190D01*
X49575Y-36259D01*
X49602Y-36322D01*
X49602Y-36322D01*
X49598Y-36327D01*
X49572Y-36390D01*
X49571Y-36459D01*
X49598Y-36522D01*
X49646Y-36570D01*
X49709Y-36596D01*
X49778Y-36597D01*
X49841Y-36570D01*
X49889Y-36522D01*
X49915Y-36459D01*
X49916Y-36390D01*
X49889Y-36327D01*
X49889Y-36327D01*
X49893Y-36322D01*
X49919Y-36259D01*
X49920Y-36190D01*
X49920Y-36840D01*
X49882Y-36839D01*
X49819Y-36866D01*
X49771Y-36914D01*
X49745Y-36977D01*
X49744Y-37046D01*
X49763Y-37091D01*
X49731Y-37059D01*
X49668Y-37033D01*
X49599Y-37032D01*
X49536Y-37059D01*
X49488Y-37107D01*
X49462Y-37170D01*
X49461Y-37239D01*
X49481Y-37286D01*
X49451Y-37256D01*
X49388Y-37230D01*
X49319Y-37229D01*
X49304Y-37236D01*
X49304Y-36977D01*
X49277Y-36914D01*
X49271Y-36908D01*
X49229Y-36866D01*
X49166Y-36840D01*
X49097Y-36839D01*
X49034Y-36866D01*
X48986Y-36914D01*
X48960Y-36977D01*
X48959Y-37046D01*
X48986Y-37109D01*
X49034Y-37157D01*
X49097Y-37183D01*
X49166Y-37184D01*
X49229Y-37157D01*
X49271Y-37115D01*
X49277Y-37109D01*
X49303Y-37046D01*
X49304Y-36977D01*
X49304Y-37236D01*
X49271Y-37249D01*
X49256Y-37256D01*
X49208Y-37304D01*
X49182Y-37367D01*
X49181Y-37436D01*
X49208Y-37499D01*
X49256Y-37547D01*
X49271Y-37553D01*
X49319Y-37573D01*
X49388Y-37574D01*
X49451Y-37547D01*
X49499Y-37499D01*
X49525Y-37436D01*
X49526Y-37367D01*
X49506Y-37320D01*
X49536Y-37350D01*
X49599Y-37376D01*
X49668Y-37377D01*
X49731Y-37350D01*
X49779Y-37302D01*
X49805Y-37239D01*
X49806Y-37170D01*
X49787Y-37125D01*
X49819Y-37157D01*
X49882Y-37183D01*
X49951Y-37184D01*
X50014Y-37157D01*
X50062Y-37109D01*
X50088Y-37046D01*
X50089Y-36977D01*
X50089Y-42343D01*
X50042Y-42324D01*
X49981Y-42324D01*
X49925Y-42347D01*
X49901Y-42371D01*
X49877Y-42347D01*
X49821Y-42324D01*
X49761Y-42324D01*
X49705Y-42347D01*
X49662Y-42390D01*
X49639Y-42446D01*
X49639Y-42479D01*
X49632Y-42472D01*
X49569Y-42446D01*
X49500Y-42445D01*
X49437Y-42472D01*
X49389Y-42520D01*
X49363Y-42583D01*
X49362Y-42652D01*
X49389Y-42715D01*
X49437Y-42763D01*
X49464Y-42775D01*
X49419Y-42820D01*
X49393Y-42883D01*
X49392Y-42952D01*
X49419Y-43015D01*
X49467Y-43063D01*
X49530Y-43089D01*
X49599Y-43090D01*
X49662Y-43063D01*
X49710Y-43015D01*
X49736Y-42952D01*
X49737Y-42883D01*
X49710Y-42820D01*
X49662Y-42772D01*
X49635Y-42760D01*
X49680Y-42715D01*
X49706Y-42652D01*
X49707Y-42605D01*
X49760Y-42628D01*
X49821Y-42628D01*
X49877Y-42605D01*
X49901Y-42581D01*
X49925Y-42605D01*
X49981Y-42628D01*
X50041Y-42628D01*
X50097Y-42605D01*
X50140Y-42562D01*
X50163Y-42506D01*
X50163Y-42446D01*
X50163Y-49596D01*
X49271Y-49596D01*
X48917Y-49596D01*
X46139Y-49596D01*
X46139Y-47427D01*
X46291Y-47578D01*
X48748Y-47578D01*
X48917Y-47409D01*
X48917Y-45464D01*
X48748Y-45295D01*
X48723Y-45295D01*
X48723Y-37535D01*
X48723Y-37340D01*
X48708Y-37306D01*
X48695Y-37293D01*
X48708Y-37280D01*
X48722Y-37246D01*
X48723Y-37208D01*
X48723Y-37013D01*
X48708Y-36979D01*
X48682Y-36953D01*
X48648Y-36939D01*
X48610Y-36938D01*
X48415Y-36938D01*
X48381Y-36953D01*
X48355Y-36979D01*
X48341Y-37013D01*
X48340Y-37051D01*
X48340Y-37083D01*
X48322Y-37090D01*
X48290Y-37059D01*
X48227Y-37033D01*
X48158Y-37032D01*
X48095Y-37059D01*
X48047Y-37107D01*
X48021Y-37170D01*
X48020Y-37239D01*
X48039Y-37284D01*
X48019Y-37304D01*
X47993Y-37367D01*
X47992Y-37436D01*
X48019Y-37499D01*
X48067Y-37547D01*
X48130Y-37573D01*
X48199Y-37574D01*
X48262Y-37547D01*
X48293Y-37516D01*
X48340Y-37528D01*
X48340Y-37573D01*
X48355Y-37607D01*
X48381Y-37633D01*
X48415Y-37647D01*
X48453Y-37648D01*
X48648Y-37648D01*
X48682Y-37633D01*
X48708Y-37607D01*
X48722Y-37573D01*
X48723Y-37535D01*
X48723Y-45295D01*
X48393Y-45295D01*
X48393Y-38351D01*
X48366Y-38288D01*
X48365Y-38286D01*
X48365Y-37949D01*
X48338Y-37886D01*
X48290Y-37838D01*
X48227Y-37812D01*
X48158Y-37811D01*
X48095Y-37838D01*
X48047Y-37886D01*
X48021Y-37949D01*
X48020Y-38018D01*
X48047Y-38081D01*
X48095Y-38129D01*
X48158Y-38155D01*
X48227Y-38156D01*
X48290Y-38129D01*
X48338Y-38081D01*
X48364Y-38018D01*
X48365Y-37949D01*
X48365Y-38286D01*
X48318Y-38240D01*
X48255Y-38214D01*
X48186Y-38213D01*
X48123Y-38240D01*
X48075Y-38288D01*
X48049Y-38351D01*
X48048Y-38420D01*
X48069Y-38470D01*
X48047Y-38493D01*
X48021Y-38556D01*
X48020Y-38620D01*
X47981Y-38637D01*
X47933Y-38685D01*
X47907Y-38748D01*
X47906Y-38817D01*
X47933Y-38880D01*
X47981Y-38928D01*
X48044Y-38954D01*
X48113Y-38955D01*
X48176Y-38928D01*
X48224Y-38880D01*
X48250Y-38817D01*
X48251Y-38753D01*
X48290Y-38736D01*
X48338Y-38688D01*
X48364Y-38625D01*
X48365Y-38556D01*
X48344Y-38506D01*
X48366Y-38483D01*
X48392Y-38420D01*
X48393Y-38351D01*
X48393Y-45295D01*
X48373Y-45295D01*
X48373Y-40914D01*
X48373Y-39733D01*
X48346Y-39670D01*
X48321Y-39644D01*
X48326Y-39639D01*
X48351Y-39579D01*
X48351Y-39515D01*
X48326Y-39455D01*
X48281Y-39409D01*
X48221Y-39384D01*
X48156Y-39384D01*
X48097Y-39409D01*
X48051Y-39455D01*
X48026Y-39514D01*
X48026Y-39579D01*
X48051Y-39639D01*
X48068Y-39656D01*
X48055Y-39670D01*
X48029Y-39733D01*
X48028Y-39802D01*
X48051Y-39855D01*
X48039Y-39867D01*
X48013Y-39930D01*
X48012Y-39999D01*
X48039Y-40062D01*
X48087Y-40110D01*
X48150Y-40136D01*
X48219Y-40137D01*
X48282Y-40110D01*
X48330Y-40062D01*
X48356Y-39999D01*
X48357Y-39930D01*
X48334Y-39877D01*
X48346Y-39865D01*
X48372Y-39802D01*
X48373Y-39733D01*
X48373Y-40914D01*
X48353Y-40866D01*
X48353Y-40320D01*
X48326Y-40257D01*
X48278Y-40209D01*
X48215Y-40183D01*
X48146Y-40182D01*
X48083Y-40209D01*
X48035Y-40257D01*
X48009Y-40320D01*
X48008Y-40389D01*
X48035Y-40452D01*
X48083Y-40500D01*
X48146Y-40526D01*
X48215Y-40527D01*
X48278Y-40500D01*
X48326Y-40452D01*
X48352Y-40389D01*
X48353Y-40320D01*
X48353Y-40866D01*
X48346Y-40851D01*
X48325Y-40829D01*
X48344Y-40782D01*
X48345Y-40713D01*
X48318Y-40650D01*
X48270Y-40602D01*
X48207Y-40576D01*
X48138Y-40575D01*
X48075Y-40602D01*
X48027Y-40650D01*
X48001Y-40713D01*
X48000Y-40782D01*
X48027Y-40845D01*
X48048Y-40867D01*
X48029Y-40914D01*
X48028Y-40974D01*
X47977Y-40996D01*
X47929Y-41044D01*
X47903Y-41107D01*
X47902Y-41176D01*
X47929Y-41239D01*
X47977Y-41287D01*
X48040Y-41313D01*
X48109Y-41314D01*
X48172Y-41287D01*
X48220Y-41239D01*
X48246Y-41176D01*
X48247Y-41116D01*
X48298Y-41094D01*
X48346Y-41046D01*
X48372Y-40983D01*
X48373Y-40914D01*
X48373Y-45295D01*
X48369Y-45295D01*
X48369Y-41697D01*
X48342Y-41634D01*
X48294Y-41586D01*
X48231Y-41560D01*
X48162Y-41559D01*
X48099Y-41586D01*
X48051Y-41634D01*
X48025Y-41697D01*
X48024Y-41766D01*
X48051Y-41829D01*
X48055Y-41833D01*
X48051Y-41836D01*
X48026Y-41896D01*
X48026Y-41961D01*
X48049Y-42016D01*
X48031Y-42033D01*
X48006Y-42093D01*
X48006Y-42158D01*
X48031Y-42217D01*
X48077Y-42263D01*
X48136Y-42288D01*
X48201Y-42288D01*
X48261Y-42263D01*
X48306Y-42218D01*
X48331Y-42158D01*
X48331Y-42093D01*
X48309Y-42038D01*
X48326Y-42021D01*
X48351Y-41961D01*
X48351Y-41896D01*
X48329Y-41843D01*
X48342Y-41829D01*
X48368Y-41766D01*
X48369Y-41697D01*
X48369Y-45295D01*
X48326Y-45295D01*
X48326Y-42690D01*
X48299Y-42627D01*
X48251Y-42579D01*
X48188Y-42553D01*
X48119Y-42552D01*
X48056Y-42579D01*
X48008Y-42627D01*
X47982Y-42690D01*
X47981Y-42759D01*
X48008Y-42822D01*
X48056Y-42870D01*
X48119Y-42896D01*
X48188Y-42897D01*
X48251Y-42870D01*
X48299Y-42822D01*
X48325Y-42759D01*
X48326Y-42690D01*
X48326Y-45295D01*
X47760Y-45295D01*
X47760Y-42633D01*
X47760Y-39098D01*
X47396Y-39098D01*
X47396Y-37890D01*
X47396Y-37379D01*
X47382Y-37344D01*
X47356Y-37318D01*
X47321Y-37304D01*
X47284Y-37304D01*
X46772Y-37304D01*
X46738Y-37318D01*
X46712Y-37344D01*
X46708Y-37352D01*
X46698Y-37327D01*
X46685Y-37296D01*
X46660Y-37272D01*
X46660Y-37272D01*
X46636Y-37247D01*
X46573Y-37221D01*
X46505Y-37221D01*
X46442Y-37247D01*
X46417Y-37272D01*
X46417Y-37272D01*
X46417Y-37272D01*
X46393Y-37296D01*
X46367Y-37359D01*
X46367Y-37427D01*
X46367Y-37427D01*
X46367Y-37531D01*
X46380Y-37597D01*
X46417Y-37653D01*
X46539Y-37775D01*
X46595Y-37812D01*
X46595Y-37812D01*
X46661Y-37825D01*
X46697Y-37825D01*
X46697Y-37927D01*
X46712Y-37962D01*
X46738Y-37988D01*
X46772Y-38002D01*
X46809Y-38002D01*
X47321Y-38002D01*
X47356Y-37988D01*
X47382Y-37962D01*
X47396Y-37928D01*
X47396Y-37890D01*
X47396Y-39098D01*
X46213Y-39098D01*
X46213Y-42633D01*
X47760Y-42633D01*
X47760Y-45295D01*
X46409Y-45295D01*
X46139Y-45564D01*
X46139Y-44573D01*
X46160Y-44564D01*
X46237Y-44488D01*
X46278Y-44389D01*
X46278Y-44281D01*
X46237Y-44181D01*
X46173Y-44118D01*
X46237Y-44055D01*
X46278Y-43956D01*
X46278Y-43848D01*
X46237Y-43748D01*
X46173Y-43685D01*
X46237Y-43622D01*
X46278Y-43523D01*
X46278Y-43415D01*
X46237Y-43315D01*
X46161Y-43239D01*
X46139Y-43230D01*
X46139Y-35734D01*
X46160Y-35725D01*
X46237Y-35649D01*
X46278Y-35550D01*
X46278Y-35442D01*
X46237Y-35342D01*
X46173Y-35279D01*
X46237Y-35216D01*
X46278Y-35117D01*
X46278Y-35009D01*
X46237Y-34909D01*
X46173Y-34846D01*
X46237Y-34783D01*
X46278Y-34684D01*
X46278Y-34576D01*
X46237Y-34476D01*
X46161Y-34400D01*
X46139Y-34391D01*
X46139Y-30151D01*
X47978Y-30151D01*
X47978Y-32834D01*
X47988Y-32885D01*
X48011Y-32920D01*
X48011Y-32932D01*
X48024Y-32932D01*
X48059Y-32956D01*
X48110Y-32966D01*
X48369Y-32966D01*
X48366Y-32973D01*
X48366Y-33011D01*
X48366Y-33371D01*
X48229Y-33371D01*
X48195Y-33385D01*
X48188Y-33391D01*
X48182Y-33385D01*
X48148Y-33371D01*
X48111Y-33371D01*
X47835Y-33371D01*
X47801Y-33385D01*
X47775Y-33411D01*
X47760Y-33445D01*
X47760Y-33483D01*
X47760Y-34014D01*
X47775Y-34048D01*
X47801Y-34075D01*
X47835Y-34089D01*
X47872Y-34089D01*
X48148Y-34089D01*
X48154Y-34087D01*
X48154Y-34101D01*
X48148Y-34099D01*
X48111Y-34099D01*
X47835Y-34099D01*
X47801Y-34113D01*
X47775Y-34139D01*
X47769Y-34153D01*
X47742Y-34153D01*
X47736Y-34140D01*
X47710Y-34113D01*
X47676Y-34099D01*
X47638Y-34099D01*
X47363Y-34099D01*
X47357Y-34101D01*
X47357Y-34085D01*
X47363Y-34088D01*
X47400Y-34088D01*
X47675Y-34088D01*
X47710Y-34074D01*
X47736Y-34047D01*
X47750Y-34013D01*
X47750Y-33976D01*
X47750Y-33444D01*
X47736Y-33410D01*
X47710Y-33384D01*
X47676Y-33369D01*
X47638Y-33369D01*
X47363Y-33369D01*
X47328Y-33384D01*
X47302Y-33410D01*
X47288Y-33444D01*
X47288Y-33481D01*
X47288Y-33865D01*
X47282Y-33863D01*
X47245Y-33863D01*
X47066Y-33863D01*
X47066Y-32122D01*
X47033Y-32042D01*
X46973Y-31982D01*
X46893Y-31949D01*
X46807Y-31948D01*
X46728Y-31981D01*
X46667Y-32042D01*
X46634Y-32122D01*
X46634Y-32208D01*
X46666Y-32287D01*
X46727Y-32348D01*
X46807Y-32381D01*
X46893Y-32381D01*
X46972Y-32348D01*
X47033Y-32288D01*
X47066Y-32208D01*
X47066Y-32122D01*
X47066Y-33863D01*
X47009Y-33863D01*
X46974Y-33877D01*
X46948Y-33903D01*
X46934Y-33938D01*
X46934Y-33975D01*
X46934Y-34237D01*
X46713Y-34237D01*
X46679Y-34251D01*
X46653Y-34277D01*
X46638Y-34312D01*
X46638Y-34349D01*
X46638Y-34630D01*
X46441Y-34630D01*
X46407Y-34645D01*
X46381Y-34671D01*
X46366Y-34705D01*
X46366Y-34743D01*
X46366Y-35215D01*
X46381Y-35249D01*
X46407Y-35275D01*
X46441Y-35289D01*
X46478Y-35290D01*
X46623Y-35290D01*
X46623Y-35798D01*
X46601Y-35807D01*
X46575Y-35833D01*
X46561Y-35868D01*
X46561Y-35905D01*
X46561Y-36100D01*
X46575Y-36134D01*
X46601Y-36160D01*
X46635Y-36175D01*
X46673Y-36175D01*
X46868Y-36175D01*
X46902Y-36161D01*
X46928Y-36134D01*
X46929Y-36134D01*
X46929Y-36134D01*
X46955Y-36160D01*
X46957Y-36161D01*
X46949Y-36161D01*
X46949Y-37145D01*
X47972Y-37145D01*
X47972Y-36554D01*
X47988Y-36554D01*
X48015Y-36582D01*
X48086Y-36611D01*
X48162Y-36612D01*
X48232Y-36583D01*
X48260Y-36554D01*
X48873Y-36554D01*
X48882Y-36563D01*
X48952Y-36592D01*
X49028Y-36592D01*
X49098Y-36563D01*
X49106Y-36554D01*
X49271Y-36554D01*
X49271Y-35962D01*
X49610Y-35962D01*
X49660Y-35952D01*
X49703Y-35924D01*
X50011Y-35616D01*
X50752Y-35616D01*
X50927Y-35790D01*
X50927Y-35944D01*
X50937Y-35995D01*
X50965Y-36038D01*
X51209Y-36282D01*
X51209Y-36282D01*
X51252Y-36310D01*
X51303Y-36320D01*
X51628Y-36320D01*
X51586Y-36363D01*
X51560Y-36426D01*
X51559Y-36495D01*
X51586Y-36558D01*
X51634Y-36606D01*
X51697Y-36632D01*
X51766Y-36633D01*
X51789Y-36623D01*
X51799Y-36646D01*
X51825Y-36672D01*
X51859Y-36686D01*
X51897Y-36687D01*
X52092Y-36687D01*
X52126Y-36672D01*
X52152Y-36646D01*
X52166Y-36612D01*
X52167Y-36574D01*
X52167Y-36379D01*
X52152Y-36345D01*
X52126Y-36319D01*
X52092Y-36305D01*
X52054Y-36304D01*
X51859Y-36304D01*
X51831Y-36316D01*
X51829Y-36315D01*
X51766Y-36289D01*
X51725Y-36288D01*
X51735Y-36282D01*
X52010Y-36006D01*
X52010Y-36006D01*
X52010Y-36006D01*
X52038Y-35965D01*
X52047Y-35987D01*
X52095Y-36035D01*
X52158Y-36061D01*
X52227Y-36062D01*
X52290Y-36035D01*
X52338Y-35987D01*
X52364Y-35924D01*
X52365Y-35855D01*
X52338Y-35792D01*
X52290Y-35744D01*
X52227Y-35718D01*
X52158Y-35717D01*
X52095Y-35744D01*
X52049Y-35790D01*
X52049Y-35657D01*
X52069Y-35609D01*
X52069Y-35548D01*
X52046Y-35492D01*
X52003Y-35449D01*
X51947Y-35426D01*
X51887Y-35426D01*
X51831Y-35449D01*
X51788Y-35492D01*
X51765Y-35548D01*
X51765Y-35608D01*
X51785Y-35657D01*
X51785Y-35858D01*
X51587Y-36056D01*
X51560Y-36056D01*
X51590Y-36026D01*
X51616Y-35963D01*
X51617Y-35894D01*
X51590Y-35831D01*
X51558Y-35798D01*
X51558Y-35587D01*
X51561Y-35587D01*
X51595Y-35572D01*
X51621Y-35546D01*
X51635Y-35512D01*
X51636Y-35474D01*
X51636Y-35459D01*
X51703Y-35460D01*
X51766Y-35433D01*
X51814Y-35385D01*
X51840Y-35322D01*
X51841Y-35253D01*
X51814Y-35190D01*
X51766Y-35142D01*
X51703Y-35116D01*
X51636Y-35115D01*
X51636Y-35104D01*
X51636Y-34929D01*
X51621Y-34895D01*
X51597Y-34870D01*
X51597Y-34552D01*
X51592Y-34530D01*
X51588Y-34501D01*
X51586Y-34497D01*
X51585Y-34493D01*
X51573Y-34476D01*
X51558Y-34450D01*
X51360Y-34229D01*
X51360Y-34206D01*
X51331Y-34135D01*
X51277Y-34082D01*
X51207Y-34053D01*
X51131Y-34052D01*
X51060Y-34081D01*
X51007Y-34135D01*
X50978Y-34205D01*
X50977Y-34281D01*
X51006Y-34352D01*
X51060Y-34405D01*
X51130Y-34434D01*
X51136Y-34434D01*
X51293Y-34609D01*
X51293Y-34870D01*
X51268Y-34895D01*
X51254Y-34929D01*
X51253Y-34967D01*
X51253Y-35142D01*
X51268Y-35176D01*
X51294Y-35202D01*
X51328Y-35216D01*
X51366Y-35217D01*
X51512Y-35217D01*
X51508Y-35224D01*
X51328Y-35224D01*
X51294Y-35239D01*
X51268Y-35265D01*
X51254Y-35299D01*
X51253Y-35337D01*
X51253Y-35512D01*
X51268Y-35546D01*
X51294Y-35572D01*
X51328Y-35586D01*
X51332Y-35586D01*
X51332Y-35798D01*
X51299Y-35831D01*
X51273Y-35894D01*
X51272Y-35963D01*
X51279Y-35978D01*
X51191Y-35890D01*
X51191Y-35736D01*
X51181Y-35685D01*
X51152Y-35642D01*
X51152Y-35642D01*
X50900Y-35390D01*
X50857Y-35362D01*
X50807Y-35352D01*
X50248Y-35352D01*
X50266Y-35309D01*
X50266Y-35249D01*
X50243Y-35193D01*
X50200Y-35150D01*
X50144Y-35127D01*
X50097Y-35127D01*
X50097Y-34891D01*
X50071Y-34827D01*
X50029Y-34786D01*
X50029Y-34259D01*
X50054Y-34234D01*
X50068Y-34200D01*
X50068Y-34163D01*
X50068Y-33988D01*
X50054Y-33954D01*
X50028Y-33927D01*
X49994Y-33913D01*
X49956Y-33913D01*
X49761Y-33913D01*
X49727Y-33927D01*
X49701Y-33953D01*
X49686Y-33988D01*
X49686Y-34025D01*
X49686Y-34200D01*
X49701Y-34234D01*
X49725Y-34259D01*
X49725Y-34877D01*
X49737Y-34936D01*
X49753Y-34959D01*
X49779Y-35022D01*
X49827Y-35070D01*
X49890Y-35097D01*
X49959Y-35097D01*
X50022Y-35071D01*
X50070Y-35022D01*
X50097Y-34959D01*
X50097Y-34891D01*
X50097Y-35127D01*
X50084Y-35127D01*
X50028Y-35150D01*
X49985Y-35193D01*
X49962Y-35249D01*
X49962Y-35309D01*
X49979Y-35352D01*
X49956Y-35352D01*
X49956Y-35352D01*
X49946Y-35354D01*
X49906Y-35362D01*
X49863Y-35390D01*
X49863Y-35390D01*
X49555Y-35698D01*
X49271Y-35698D01*
X49271Y-34180D01*
X49295Y-34204D01*
X49295Y-34204D01*
X49306Y-34211D01*
X49306Y-34211D01*
X49311Y-34223D01*
X49337Y-34249D01*
X49372Y-34263D01*
X49409Y-34263D01*
X49604Y-34263D01*
X49638Y-34249D01*
X49664Y-34223D01*
X49679Y-34188D01*
X49679Y-34151D01*
X49679Y-33976D01*
X49665Y-33942D01*
X49638Y-33915D01*
X49604Y-33901D01*
X49567Y-33901D01*
X49479Y-33901D01*
X49471Y-33893D01*
X49604Y-33893D01*
X49638Y-33879D01*
X49664Y-33853D01*
X49668Y-33844D01*
X49692Y-33844D01*
X49701Y-33864D01*
X49727Y-33891D01*
X49761Y-33905D01*
X49798Y-33905D01*
X49993Y-33905D01*
X50028Y-33891D01*
X50054Y-33864D01*
X50068Y-33830D01*
X50068Y-33793D01*
X50068Y-33618D01*
X50054Y-33584D01*
X50028Y-33557D01*
X49994Y-33543D01*
X49956Y-33543D01*
X49761Y-33543D01*
X49727Y-33557D01*
X49704Y-33580D01*
X49668Y-33580D01*
X49665Y-33572D01*
X49638Y-33545D01*
X49620Y-33538D01*
X49620Y-33507D01*
X49638Y-33499D01*
X49665Y-33473D01*
X49679Y-33439D01*
X49679Y-33401D01*
X49679Y-33206D01*
X49665Y-33172D01*
X49638Y-33146D01*
X49604Y-33131D01*
X49567Y-33131D01*
X49482Y-33131D01*
X49444Y-33106D01*
X49394Y-33096D01*
X49144Y-33096D01*
X49144Y-32973D01*
X49141Y-32966D01*
X52866Y-32966D01*
X52852Y-32972D01*
X52759Y-33064D01*
X52709Y-33185D01*
X52709Y-33317D01*
X52759Y-33438D01*
X52852Y-33531D01*
X52973Y-33581D01*
X53104Y-33581D01*
X53225Y-33531D01*
X53318Y-33438D01*
X53368Y-33317D01*
X53369Y-33186D01*
X53318Y-33065D01*
X53226Y-32972D01*
X53212Y-32966D01*
X53866Y-32966D01*
X53852Y-32972D01*
X53759Y-33064D01*
X53709Y-33185D01*
X53709Y-33317D01*
X53759Y-33438D01*
X53852Y-33531D01*
X53973Y-33581D01*
X54104Y-33581D01*
X54225Y-33531D01*
X54318Y-33438D01*
X54368Y-33317D01*
X54369Y-33186D01*
X54318Y-33065D01*
X54226Y-32972D01*
X54212Y-32966D01*
X54866Y-32966D01*
X54852Y-32972D01*
X54759Y-33064D01*
X54709Y-33185D01*
X54709Y-33317D01*
X54759Y-33438D01*
X54852Y-33531D01*
X54973Y-33581D01*
X55104Y-33581D01*
X55225Y-33531D01*
X55318Y-33438D01*
X55368Y-33317D01*
X55369Y-33186D01*
X55318Y-33065D01*
X55226Y-32972D01*
X55212Y-32966D01*
X55866Y-32966D01*
X55852Y-32972D01*
X55759Y-33064D01*
X55709Y-33185D01*
X55709Y-33317D01*
X55759Y-33438D01*
X55852Y-33531D01*
X55973Y-33581D01*
X56104Y-33581D01*
X56225Y-33531D01*
X56318Y-33438D01*
X56368Y-33317D01*
X56369Y-33186D01*
X56318Y-33065D01*
X56226Y-32972D01*
X56212Y-32966D01*
X56253Y-32966D01*
X56271Y-32985D01*
X56370Y-33026D01*
X56478Y-33026D01*
X56578Y-32985D01*
X56630Y-32932D01*
X56652Y-32932D01*
X56704Y-32985D01*
X56800Y-33024D01*
X56759Y-33064D01*
X56709Y-33185D01*
X56709Y-33317D01*
X56759Y-33438D01*
X56852Y-33531D01*
X56973Y-33581D01*
X57104Y-33581D01*
X57225Y-33531D01*
X57318Y-33438D01*
X57368Y-33317D01*
X57369Y-33186D01*
X57318Y-33065D01*
X57280Y-33026D01*
X57344Y-33026D01*
X57444Y-32985D01*
X57496Y-32932D01*
X57519Y-32932D01*
X57571Y-32985D01*
X57670Y-33026D01*
X57778Y-33026D01*
X57878Y-32985D01*
X57896Y-32966D01*
X64773Y-32966D01*
X64773Y-39037D01*
X64704Y-38968D01*
X64704Y-38180D01*
X64625Y-38102D01*
X64625Y-33264D01*
X64592Y-33184D01*
X64532Y-33123D01*
X64452Y-33090D01*
X64366Y-33090D01*
X64287Y-33123D01*
X64226Y-33184D01*
X64193Y-33263D01*
X64193Y-33349D01*
X64225Y-33429D01*
X64286Y-33490D01*
X64366Y-33523D01*
X64452Y-33523D01*
X64531Y-33490D01*
X64592Y-33429D01*
X64625Y-33350D01*
X64625Y-33264D01*
X64625Y-38102D01*
X64541Y-38017D01*
X64496Y-37972D01*
X63338Y-37972D01*
X63090Y-38220D01*
X63090Y-39260D01*
X63248Y-39417D01*
X63248Y-42094D01*
X63495Y-42342D01*
X64415Y-42342D01*
X64773Y-42103D01*
X64773Y-49270D01*
G54D10*
G36*
X49114Y-35610D02*
X48680Y-35610D01*
X48680Y-35334D01*
X47893Y-35334D01*
X47893Y-34901D01*
X48247Y-34901D01*
X48247Y-34328D01*
X48267Y-34328D01*
X48798Y-34328D01*
X48834Y-34314D01*
X48837Y-34310D01*
X49114Y-34310D01*
X49114Y-35610D01*
X49114Y-35610D01*
G37*
G54D117*
X49114Y-35610D02*
X48680Y-35610D01*
X48680Y-35334D01*
X47893Y-35334D01*
X47893Y-34901D01*
X48247Y-34901D01*
X48247Y-34328D01*
X48267Y-34328D01*
X48798Y-34328D01*
X48834Y-34314D01*
X48837Y-34310D01*
X49114Y-34310D01*
X49114Y-35610D01*
G54D10*
G36*
X47815Y-37027D02*
X47066Y-37027D01*
X47066Y-36318D01*
X47125Y-36318D01*
X47815Y-36318D01*
X47815Y-37027D01*
X47815Y-37027D01*
G37*
G54D117*
X47815Y-37027D02*
X47066Y-37027D01*
X47066Y-36318D01*
X47125Y-36318D01*
X47815Y-36318D01*
X47815Y-37027D01*
M02*
