G04 (created by PCBNEW (2013-05-31 BZR 4019)-stable) date 24/04/2014 12:04:12*
%MOIN*%
G04 Gerber Fmt 3.4, Leading zero omitted, Abs format*
%FSLAX34Y34*%
G01*
G70*
G90*
G04 APERTURE LIST*
%ADD10C,0.00590551*%
%ADD11C,0.0077*%
%ADD12C,0.0157*%
%ADD13C,0.0195*%
%ADD14C,0.0354*%
%ADD15C,0.173228*%
%ADD16R,0.0597X0.0597*%
%ADD17C,0.0597*%
%ADD18C,0.15748*%
%ADD19C,0.0472441*%
%ADD20R,0.0472441X0.0472441*%
%ADD21C,0.0432*%
%ADD22C,0.0117*%
%ADD23C,0.0077*%
%ADD24C,0.0196*%
%ADD25C,0.0138*%
%ADD26C,0.0122*%
%ADD27C,0.0039*%
G04 APERTURE END LIST*
G54D10*
X4000Y-4000D02*
X112930Y-4000D01*
X112930Y-78680D01*
X4000Y-78680D01*
X4000Y-4000D01*
X4700Y-4700D02*
X112230Y-4700D01*
X112230Y-77980D01*
X4700Y-77980D01*
X4700Y-4700D01*
X25780Y-4000D02*
X25780Y-4700D01*
X15032Y-4552D02*
X14747Y-4552D01*
X14890Y-4552D02*
X14890Y-4052D01*
X14842Y-4123D01*
X14794Y-4171D01*
X14747Y-4195D01*
X25780Y-78680D02*
X25780Y-77980D01*
X15032Y-78532D02*
X14747Y-78532D01*
X14890Y-78532D02*
X14890Y-78032D01*
X14842Y-78103D01*
X14794Y-78151D01*
X14747Y-78175D01*
X47560Y-4000D02*
X47560Y-4700D01*
X36527Y-4100D02*
X36550Y-4076D01*
X36598Y-4052D01*
X36717Y-4052D01*
X36765Y-4076D01*
X36789Y-4100D01*
X36812Y-4147D01*
X36812Y-4195D01*
X36789Y-4266D01*
X36503Y-4552D01*
X36812Y-4552D01*
X47560Y-78680D02*
X47560Y-77980D01*
X36527Y-78080D02*
X36550Y-78056D01*
X36598Y-78032D01*
X36717Y-78032D01*
X36765Y-78056D01*
X36789Y-78080D01*
X36812Y-78127D01*
X36812Y-78175D01*
X36789Y-78246D01*
X36503Y-78532D01*
X36812Y-78532D01*
X69340Y-4000D02*
X69340Y-4700D01*
X58283Y-4052D02*
X58592Y-4052D01*
X58426Y-4242D01*
X58497Y-4242D01*
X58545Y-4266D01*
X58569Y-4290D01*
X58592Y-4338D01*
X58592Y-4457D01*
X58569Y-4504D01*
X58545Y-4528D01*
X58497Y-4552D01*
X58354Y-4552D01*
X58307Y-4528D01*
X58283Y-4504D01*
X69340Y-78680D02*
X69340Y-77980D01*
X58283Y-78032D02*
X58592Y-78032D01*
X58426Y-78222D01*
X58497Y-78222D01*
X58545Y-78246D01*
X58569Y-78270D01*
X58592Y-78318D01*
X58592Y-78437D01*
X58569Y-78484D01*
X58545Y-78508D01*
X58497Y-78532D01*
X58354Y-78532D01*
X58307Y-78508D01*
X58283Y-78484D01*
X91120Y-4000D02*
X91120Y-4700D01*
X80325Y-4219D02*
X80325Y-4552D01*
X80206Y-4028D02*
X80087Y-4385D01*
X80396Y-4385D01*
X91120Y-78680D02*
X91120Y-77980D01*
X80325Y-78199D02*
X80325Y-78532D01*
X80206Y-78008D02*
X80087Y-78365D01*
X80396Y-78365D01*
X102129Y-4052D02*
X101890Y-4052D01*
X101867Y-4290D01*
X101890Y-4266D01*
X101938Y-4242D01*
X102057Y-4242D01*
X102105Y-4266D01*
X102129Y-4290D01*
X102152Y-4338D01*
X102152Y-4457D01*
X102129Y-4504D01*
X102105Y-4528D01*
X102057Y-4552D01*
X101938Y-4552D01*
X101890Y-4528D01*
X101867Y-4504D01*
X102129Y-78032D02*
X101890Y-78032D01*
X101867Y-78270D01*
X101890Y-78246D01*
X101938Y-78222D01*
X102057Y-78222D01*
X102105Y-78246D01*
X102129Y-78270D01*
X102152Y-78318D01*
X102152Y-78437D01*
X102129Y-78484D01*
X102105Y-78508D01*
X102057Y-78532D01*
X101938Y-78532D01*
X101890Y-78508D01*
X101867Y-78484D01*
X4000Y-28890D02*
X4700Y-28890D01*
X4230Y-16509D02*
X4469Y-16509D01*
X4183Y-16652D02*
X4350Y-16152D01*
X4516Y-16652D01*
X112930Y-28890D02*
X112230Y-28890D01*
X112460Y-16509D02*
X112699Y-16509D01*
X112413Y-16652D02*
X112580Y-16152D01*
X112746Y-16652D01*
X4000Y-53780D02*
X4700Y-53780D01*
X4385Y-41280D02*
X4457Y-41304D01*
X4480Y-41328D01*
X4504Y-41375D01*
X4504Y-41447D01*
X4480Y-41494D01*
X4457Y-41518D01*
X4409Y-41542D01*
X4219Y-41542D01*
X4219Y-41042D01*
X4385Y-41042D01*
X4433Y-41066D01*
X4457Y-41090D01*
X4480Y-41137D01*
X4480Y-41185D01*
X4457Y-41232D01*
X4433Y-41256D01*
X4385Y-41280D01*
X4219Y-41280D01*
X112930Y-53780D02*
X112230Y-53780D01*
X112615Y-41280D02*
X112687Y-41304D01*
X112710Y-41328D01*
X112734Y-41375D01*
X112734Y-41447D01*
X112710Y-41494D01*
X112687Y-41518D01*
X112639Y-41542D01*
X112449Y-41542D01*
X112449Y-41042D01*
X112615Y-41042D01*
X112663Y-41066D01*
X112687Y-41090D01*
X112710Y-41137D01*
X112710Y-41185D01*
X112687Y-41232D01*
X112663Y-41256D01*
X112615Y-41280D01*
X112449Y-41280D01*
X4504Y-66384D02*
X4480Y-66408D01*
X4409Y-66432D01*
X4361Y-66432D01*
X4290Y-66408D01*
X4242Y-66360D01*
X4219Y-66313D01*
X4195Y-66218D01*
X4195Y-66146D01*
X4219Y-66051D01*
X4242Y-66003D01*
X4290Y-65956D01*
X4361Y-65932D01*
X4409Y-65932D01*
X4480Y-65956D01*
X4504Y-65980D01*
X112734Y-66384D02*
X112710Y-66408D01*
X112639Y-66432D01*
X112591Y-66432D01*
X112520Y-66408D01*
X112472Y-66360D01*
X112449Y-66313D01*
X112425Y-66218D01*
X112425Y-66146D01*
X112449Y-66051D01*
X112472Y-66003D01*
X112520Y-65956D01*
X112591Y-65932D01*
X112639Y-65932D01*
X112710Y-65956D01*
X112734Y-65980D01*
X79380Y-76422D02*
X79455Y-75822D01*
X79597Y-75822D01*
X79680Y-75851D01*
X79730Y-75908D01*
X79751Y-75965D01*
X79765Y-76080D01*
X79755Y-76165D01*
X79712Y-76280D01*
X79676Y-76337D01*
X79612Y-76394D01*
X79522Y-76422D01*
X79380Y-76422D01*
X80237Y-76422D02*
X80276Y-76108D01*
X80255Y-76051D01*
X80201Y-76022D01*
X80087Y-76022D01*
X80026Y-76051D01*
X80240Y-76394D02*
X80180Y-76422D01*
X80037Y-76422D01*
X79983Y-76394D01*
X79962Y-76337D01*
X79969Y-76280D01*
X80005Y-76222D01*
X80065Y-76194D01*
X80208Y-76194D01*
X80269Y-76165D01*
X80487Y-76022D02*
X80715Y-76022D01*
X80597Y-75822D02*
X80533Y-76337D01*
X80555Y-76394D01*
X80608Y-76422D01*
X80665Y-76422D01*
X81097Y-76394D02*
X81037Y-76422D01*
X80922Y-76422D01*
X80869Y-76394D01*
X80847Y-76337D01*
X80876Y-76108D01*
X80912Y-76051D01*
X80972Y-76022D01*
X81087Y-76022D01*
X81140Y-76051D01*
X81162Y-76108D01*
X81155Y-76165D01*
X80862Y-76222D01*
X81387Y-76365D02*
X81412Y-76394D01*
X81380Y-76422D01*
X81355Y-76394D01*
X81387Y-76365D01*
X81380Y-76422D01*
X81426Y-76051D02*
X81451Y-76080D01*
X81419Y-76108D01*
X81394Y-76080D01*
X81426Y-76051D01*
X81419Y-76108D01*
X82162Y-75880D02*
X82194Y-75851D01*
X82255Y-75822D01*
X82397Y-75822D01*
X82451Y-75851D01*
X82476Y-75880D01*
X82497Y-75937D01*
X82490Y-75994D01*
X82451Y-76080D01*
X82065Y-76422D01*
X82437Y-76422D01*
X83001Y-76022D02*
X82951Y-76422D01*
X82887Y-75794D02*
X82690Y-76222D01*
X83062Y-76222D01*
X83980Y-76422D02*
X84019Y-76108D01*
X83997Y-76051D01*
X83944Y-76022D01*
X83830Y-76022D01*
X83769Y-76051D01*
X83983Y-76394D02*
X83922Y-76422D01*
X83780Y-76422D01*
X83726Y-76394D01*
X83705Y-76337D01*
X83712Y-76280D01*
X83747Y-76222D01*
X83808Y-76194D01*
X83951Y-76194D01*
X84012Y-76165D01*
X84315Y-76022D02*
X84240Y-76622D01*
X84312Y-76051D02*
X84372Y-76022D01*
X84487Y-76022D01*
X84540Y-76051D01*
X84565Y-76080D01*
X84587Y-76137D01*
X84565Y-76308D01*
X84530Y-76365D01*
X84497Y-76394D01*
X84437Y-76422D01*
X84322Y-76422D01*
X84269Y-76394D01*
X84808Y-76422D02*
X84858Y-76022D01*
X84844Y-76137D02*
X84880Y-76080D01*
X84912Y-76051D01*
X84972Y-76022D01*
X85030Y-76022D01*
X85676Y-75880D02*
X85708Y-75851D01*
X85769Y-75822D01*
X85912Y-75822D01*
X85965Y-75851D01*
X85990Y-75880D01*
X86012Y-75937D01*
X86005Y-75994D01*
X85965Y-76080D01*
X85580Y-76422D01*
X85951Y-76422D01*
X86397Y-75822D02*
X86455Y-75822D01*
X86508Y-75851D01*
X86533Y-75880D01*
X86555Y-75937D01*
X86569Y-76051D01*
X86551Y-76194D01*
X86508Y-76308D01*
X86472Y-76365D01*
X86440Y-76394D01*
X86380Y-76422D01*
X86322Y-76422D01*
X86269Y-76394D01*
X86244Y-76365D01*
X86222Y-76308D01*
X86208Y-76194D01*
X86226Y-76051D01*
X86269Y-75937D01*
X86305Y-75880D01*
X86337Y-75851D01*
X86397Y-75822D01*
X87094Y-76422D02*
X86751Y-76422D01*
X86922Y-76422D02*
X86997Y-75822D01*
X86930Y-75908D01*
X86865Y-75965D01*
X86805Y-75994D01*
X87658Y-76022D02*
X87608Y-76422D01*
X87544Y-75794D02*
X87347Y-76222D01*
X87719Y-76222D01*
X70972Y-77622D02*
X70972Y-77022D01*
X71315Y-77622D02*
X71058Y-77280D01*
X71315Y-77022D02*
X70972Y-77365D01*
X71572Y-77622D02*
X71572Y-77222D01*
X71572Y-77022D02*
X71544Y-77051D01*
X71572Y-77080D01*
X71601Y-77051D01*
X71572Y-77022D01*
X71572Y-77080D01*
X72201Y-77565D02*
X72172Y-77594D01*
X72087Y-77622D01*
X72030Y-77622D01*
X71944Y-77594D01*
X71887Y-77537D01*
X71858Y-77480D01*
X71830Y-77365D01*
X71830Y-77280D01*
X71858Y-77165D01*
X71887Y-77108D01*
X71944Y-77051D01*
X72030Y-77022D01*
X72087Y-77022D01*
X72172Y-77051D01*
X72201Y-77080D01*
X72715Y-77622D02*
X72715Y-77308D01*
X72687Y-77251D01*
X72630Y-77222D01*
X72515Y-77222D01*
X72458Y-77251D01*
X72715Y-77594D02*
X72658Y-77622D01*
X72515Y-77622D01*
X72458Y-77594D01*
X72430Y-77537D01*
X72430Y-77480D01*
X72458Y-77422D01*
X72515Y-77394D01*
X72658Y-77394D01*
X72715Y-77365D01*
X73258Y-77622D02*
X73258Y-77022D01*
X73258Y-77594D02*
X73201Y-77622D01*
X73087Y-77622D01*
X73030Y-77594D01*
X73001Y-77565D01*
X72972Y-77508D01*
X72972Y-77337D01*
X73001Y-77280D01*
X73030Y-77251D01*
X73087Y-77222D01*
X73201Y-77222D01*
X73258Y-77251D01*
X74001Y-77308D02*
X74201Y-77308D01*
X74287Y-77622D02*
X74001Y-77622D01*
X74001Y-77022D01*
X74287Y-77022D01*
X74544Y-77565D02*
X74572Y-77594D01*
X74544Y-77622D01*
X74515Y-77594D01*
X74544Y-77565D01*
X74544Y-77622D01*
X74829Y-77622D02*
X74829Y-77022D01*
X74972Y-77022D01*
X75058Y-77051D01*
X75115Y-77108D01*
X75144Y-77165D01*
X75172Y-77280D01*
X75172Y-77365D01*
X75144Y-77480D01*
X75115Y-77537D01*
X75058Y-77594D01*
X74972Y-77622D01*
X74829Y-77622D01*
X75429Y-77565D02*
X75458Y-77594D01*
X75429Y-77622D01*
X75401Y-77594D01*
X75429Y-77565D01*
X75429Y-77622D01*
X75687Y-77451D02*
X75972Y-77451D01*
X75629Y-77622D02*
X75829Y-77022D01*
X76029Y-77622D01*
X76229Y-77565D02*
X76258Y-77594D01*
X76229Y-77622D01*
X76201Y-77594D01*
X76229Y-77565D01*
X76229Y-77622D01*
X104522Y-76422D02*
X104358Y-76137D01*
X104180Y-76422D02*
X104255Y-75822D01*
X104483Y-75822D01*
X104537Y-75851D01*
X104562Y-75880D01*
X104583Y-75937D01*
X104572Y-76022D01*
X104537Y-76080D01*
X104505Y-76108D01*
X104444Y-76137D01*
X104215Y-76137D01*
X105012Y-76394D02*
X104951Y-76422D01*
X104837Y-76422D01*
X104783Y-76394D01*
X104762Y-76337D01*
X104790Y-76108D01*
X104826Y-76051D01*
X104887Y-76022D01*
X105001Y-76022D01*
X105055Y-76051D01*
X105076Y-76108D01*
X105069Y-76165D01*
X104776Y-76222D01*
X105287Y-76022D02*
X105380Y-76422D01*
X105572Y-76022D01*
X105758Y-76365D02*
X105783Y-76394D01*
X105751Y-76422D01*
X105726Y-76394D01*
X105758Y-76365D01*
X105751Y-76422D01*
X105797Y-76051D02*
X105822Y-76080D01*
X105790Y-76108D01*
X105765Y-76080D01*
X105797Y-76051D01*
X105790Y-76108D01*
X106855Y-75822D02*
X106569Y-75822D01*
X106505Y-76108D01*
X106537Y-76080D01*
X106597Y-76051D01*
X106740Y-76051D01*
X106794Y-76080D01*
X106819Y-76108D01*
X106840Y-76165D01*
X106822Y-76308D01*
X106787Y-76365D01*
X106755Y-76394D01*
X106694Y-76422D01*
X106551Y-76422D01*
X106497Y-76394D01*
X106472Y-76365D01*
X70944Y-76394D02*
X71030Y-76422D01*
X71172Y-76422D01*
X71230Y-76394D01*
X71258Y-76365D01*
X71287Y-76308D01*
X71287Y-76251D01*
X71258Y-76194D01*
X71230Y-76165D01*
X71172Y-76137D01*
X71058Y-76108D01*
X71001Y-76080D01*
X70972Y-76051D01*
X70944Y-75994D01*
X70944Y-75937D01*
X70972Y-75880D01*
X71001Y-75851D01*
X71058Y-75822D01*
X71201Y-75822D01*
X71287Y-75851D01*
X71544Y-76422D02*
X71544Y-76022D01*
X71544Y-75822D02*
X71515Y-75851D01*
X71544Y-75880D01*
X71572Y-75851D01*
X71544Y-75822D01*
X71544Y-75880D01*
X71772Y-76022D02*
X72087Y-76022D01*
X71772Y-76422D01*
X72087Y-76422D01*
X72544Y-76394D02*
X72487Y-76422D01*
X72372Y-76422D01*
X72315Y-76394D01*
X72287Y-76337D01*
X72287Y-76108D01*
X72315Y-76051D01*
X72372Y-76022D01*
X72487Y-76022D01*
X72544Y-76051D01*
X72572Y-76108D01*
X72572Y-76165D01*
X72287Y-76222D01*
X72830Y-76365D02*
X72858Y-76394D01*
X72830Y-76422D01*
X72801Y-76394D01*
X72830Y-76365D01*
X72830Y-76422D01*
X72830Y-76051D02*
X72858Y-76080D01*
X72830Y-76108D01*
X72801Y-76080D01*
X72830Y-76051D01*
X72830Y-76108D01*
X73544Y-76251D02*
X73830Y-76251D01*
X73487Y-76422D02*
X73687Y-75822D01*
X73887Y-76422D01*
X74344Y-76022D02*
X74344Y-76422D01*
X74201Y-75794D02*
X74058Y-76222D01*
X74430Y-76222D01*
X104172Y-77622D02*
X104172Y-77022D01*
X104715Y-77622D02*
X104715Y-77022D01*
X104715Y-77594D02*
X104658Y-77622D01*
X104544Y-77622D01*
X104487Y-77594D01*
X104458Y-77565D01*
X104430Y-77508D01*
X104430Y-77337D01*
X104458Y-77280D01*
X104487Y-77251D01*
X104544Y-77222D01*
X104658Y-77222D01*
X104715Y-77251D01*
X105001Y-77565D02*
X105030Y-77594D01*
X105001Y-77622D01*
X104972Y-77594D01*
X105001Y-77565D01*
X105001Y-77622D01*
X105001Y-77251D02*
X105030Y-77280D01*
X105001Y-77308D01*
X104972Y-77280D01*
X105001Y-77251D01*
X105001Y-77308D01*
X106058Y-77622D02*
X105715Y-77622D01*
X105887Y-77622D02*
X105887Y-77022D01*
X105829Y-77108D01*
X105772Y-77165D01*
X105715Y-77194D01*
X106744Y-76994D02*
X106230Y-77765D01*
X107258Y-77622D02*
X106915Y-77622D01*
X107087Y-77622D02*
X107087Y-77022D01*
X107029Y-77108D01*
X106972Y-77165D01*
X106915Y-77194D01*
X70969Y-74622D02*
X71312Y-74622D01*
X71065Y-75222D02*
X71140Y-74622D01*
X71437Y-75222D02*
X71487Y-74822D01*
X71512Y-74622D02*
X71480Y-74651D01*
X71505Y-74680D01*
X71537Y-74651D01*
X71512Y-74622D01*
X71505Y-74680D01*
X71687Y-74822D02*
X71915Y-74822D01*
X71797Y-74622D02*
X71733Y-75137D01*
X71755Y-75194D01*
X71808Y-75222D01*
X71865Y-75222D01*
X72151Y-75222D02*
X72097Y-75194D01*
X72076Y-75137D01*
X72140Y-74622D01*
X72612Y-75194D02*
X72551Y-75222D01*
X72437Y-75222D01*
X72383Y-75194D01*
X72362Y-75137D01*
X72390Y-74908D01*
X72426Y-74851D01*
X72487Y-74822D01*
X72601Y-74822D01*
X72655Y-74851D01*
X72676Y-74908D01*
X72669Y-74965D01*
X72376Y-75022D01*
X72901Y-75165D02*
X72926Y-75194D01*
X72894Y-75222D01*
X72869Y-75194D01*
X72901Y-75165D01*
X72894Y-75222D01*
X72940Y-74851D02*
X72965Y-74880D01*
X72933Y-74908D01*
X72908Y-74880D01*
X72940Y-74851D01*
X72933Y-74908D01*
X73637Y-75222D02*
X73712Y-74622D01*
X73858Y-75051D01*
X74112Y-74622D01*
X74037Y-75222D01*
X74315Y-74822D02*
X74408Y-75222D01*
X74601Y-74822D02*
X74408Y-75222D01*
X74333Y-75365D01*
X74301Y-75394D01*
X74240Y-75422D01*
X74780Y-75222D02*
X74830Y-74822D01*
X74815Y-74937D02*
X74851Y-74880D01*
X74883Y-74851D01*
X74944Y-74822D01*
X75001Y-74822D01*
X75151Y-75222D02*
X75201Y-74822D01*
X75226Y-74622D02*
X75194Y-74651D01*
X75219Y-74680D01*
X75251Y-74651D01*
X75226Y-74622D01*
X75219Y-74680D01*
X75694Y-75222D02*
X75733Y-74908D01*
X75712Y-74851D01*
X75658Y-74822D01*
X75544Y-74822D01*
X75483Y-74851D01*
X75697Y-75194D02*
X75637Y-75222D01*
X75494Y-75222D01*
X75440Y-75194D01*
X75419Y-75137D01*
X75426Y-75080D01*
X75462Y-75022D01*
X75522Y-74994D01*
X75665Y-74994D01*
X75726Y-74965D01*
X76237Y-75222D02*
X76312Y-74622D01*
X76240Y-75194D02*
X76180Y-75222D01*
X76065Y-75222D01*
X76012Y-75194D01*
X75987Y-75165D01*
X75965Y-75108D01*
X75987Y-74937D01*
X76022Y-74880D01*
X76055Y-74851D01*
X76115Y-74822D01*
X76230Y-74822D01*
X76283Y-74851D01*
X77322Y-75222D02*
X77158Y-74937D01*
X76980Y-75222D02*
X77055Y-74622D01*
X77283Y-74622D01*
X77337Y-74651D01*
X77362Y-74680D01*
X77383Y-74737D01*
X77372Y-74822D01*
X77337Y-74880D01*
X77305Y-74908D01*
X77244Y-74937D01*
X77015Y-74937D01*
X77819Y-74908D02*
X77619Y-74908D01*
X77580Y-75222D02*
X77655Y-74622D01*
X77940Y-74622D01*
X79058Y-74594D02*
X78447Y-75365D01*
X79637Y-75222D02*
X79712Y-74622D01*
X79980Y-75222D01*
X80055Y-74622D01*
X80351Y-75222D02*
X80297Y-75194D01*
X80272Y-75165D01*
X80251Y-75108D01*
X80272Y-74937D01*
X80308Y-74880D01*
X80340Y-74851D01*
X80401Y-74822D01*
X80487Y-74822D01*
X80540Y-74851D01*
X80565Y-74880D01*
X80587Y-74937D01*
X80565Y-75108D01*
X80530Y-75165D01*
X80497Y-75194D01*
X80437Y-75222D01*
X80351Y-75222D01*
X80801Y-74822D02*
X80894Y-75222D01*
X81087Y-74822D01*
X81497Y-75194D02*
X81437Y-75222D01*
X81322Y-75222D01*
X81269Y-75194D01*
X81247Y-75137D01*
X81276Y-74908D01*
X81312Y-74851D01*
X81372Y-74822D01*
X81487Y-74822D01*
X81540Y-74851D01*
X81562Y-74908D01*
X81555Y-74965D01*
X81262Y-75022D01*
X81830Y-74822D02*
X81780Y-75222D01*
X81822Y-74880D02*
X81855Y-74851D01*
X81915Y-74822D01*
X82001Y-74822D01*
X82055Y-74851D01*
X82076Y-74908D01*
X82037Y-75222D01*
X82580Y-75222D02*
X82619Y-74908D01*
X82597Y-74851D01*
X82544Y-74822D01*
X82430Y-74822D01*
X82369Y-74851D01*
X82583Y-75194D02*
X82522Y-75222D01*
X82380Y-75222D01*
X82326Y-75194D01*
X82305Y-75137D01*
X82312Y-75080D01*
X82347Y-75022D01*
X82408Y-74994D01*
X82551Y-74994D01*
X82612Y-74965D01*
X83315Y-74822D02*
X83408Y-75222D01*
X83601Y-74822D01*
X83787Y-75165D02*
X83812Y-75194D01*
X83780Y-75222D01*
X83755Y-75194D01*
X83787Y-75165D01*
X83780Y-75222D01*
X84380Y-75222D02*
X84037Y-75222D01*
X84208Y-75222D02*
X84283Y-74622D01*
X84215Y-74708D01*
X84151Y-74765D01*
X84090Y-74794D01*
X71172Y-72508D02*
X70972Y-72508D01*
X70972Y-72822D02*
X70972Y-72222D01*
X71258Y-72222D01*
X71487Y-72822D02*
X71487Y-72422D01*
X71487Y-72222D02*
X71458Y-72251D01*
X71487Y-72280D01*
X71515Y-72251D01*
X71487Y-72222D01*
X71487Y-72280D01*
X71858Y-72822D02*
X71801Y-72794D01*
X71772Y-72737D01*
X71772Y-72222D01*
X72315Y-72794D02*
X72258Y-72822D01*
X72144Y-72822D01*
X72087Y-72794D01*
X72058Y-72737D01*
X72058Y-72508D01*
X72087Y-72451D01*
X72144Y-72422D01*
X72258Y-72422D01*
X72315Y-72451D01*
X72344Y-72508D01*
X72344Y-72565D01*
X72058Y-72622D01*
X72601Y-72765D02*
X72630Y-72794D01*
X72601Y-72822D01*
X72572Y-72794D01*
X72601Y-72765D01*
X72601Y-72822D01*
X72601Y-72451D02*
X72630Y-72480D01*
X72601Y-72508D01*
X72572Y-72480D01*
X72601Y-72451D01*
X72601Y-72508D01*
X73344Y-72822D02*
X73344Y-72222D01*
X73544Y-72651D01*
X73744Y-72222D01*
X73744Y-72822D01*
X74144Y-72537D02*
X74144Y-72822D01*
X73944Y-72222D02*
X74144Y-72537D01*
X74344Y-72222D01*
X74887Y-72822D02*
X74687Y-72537D01*
X74544Y-72822D02*
X74544Y-72222D01*
X74772Y-72222D01*
X74830Y-72251D01*
X74858Y-72280D01*
X74887Y-72337D01*
X74887Y-72422D01*
X74858Y-72480D01*
X74830Y-72508D01*
X74772Y-72537D01*
X74544Y-72537D01*
X75144Y-72822D02*
X75144Y-72222D01*
X75401Y-72651D02*
X75687Y-72651D01*
X75344Y-72822D02*
X75544Y-72222D01*
X75744Y-72822D01*
X75944Y-72822D02*
X75944Y-72222D01*
X76087Y-72222D01*
X76172Y-72251D01*
X76230Y-72308D01*
X76258Y-72365D01*
X76287Y-72480D01*
X76287Y-72565D01*
X76258Y-72680D01*
X76230Y-72737D01*
X76172Y-72794D01*
X76087Y-72822D01*
X75944Y-72822D01*
X76401Y-72880D02*
X76858Y-72880D01*
X77344Y-72822D02*
X77144Y-72537D01*
X77001Y-72822D02*
X77001Y-72222D01*
X77230Y-72222D01*
X77287Y-72251D01*
X77315Y-72280D01*
X77344Y-72337D01*
X77344Y-72422D01*
X77315Y-72480D01*
X77287Y-72508D01*
X77230Y-72537D01*
X77001Y-72537D01*
X77801Y-72508D02*
X77601Y-72508D01*
X77601Y-72822D02*
X77601Y-72222D01*
X77887Y-72222D01*
X78115Y-72765D02*
X78144Y-72794D01*
X78115Y-72822D01*
X78087Y-72794D01*
X78115Y-72765D01*
X78115Y-72822D01*
X78401Y-72822D02*
X78401Y-72222D01*
X78401Y-72451D02*
X78458Y-72422D01*
X78572Y-72422D01*
X78630Y-72451D01*
X78658Y-72480D01*
X78687Y-72537D01*
X78687Y-72708D01*
X78658Y-72765D01*
X78630Y-72794D01*
X78572Y-72822D01*
X78458Y-72822D01*
X78401Y-72794D01*
X78944Y-72822D02*
X78944Y-72422D01*
X78944Y-72537D02*
X78972Y-72480D01*
X79001Y-72451D01*
X79058Y-72422D01*
X79115Y-72422D01*
X79572Y-72822D02*
X79572Y-72222D01*
X79572Y-72794D02*
X79515Y-72822D01*
X79401Y-72822D01*
X79344Y-72794D01*
X79315Y-72765D01*
X79287Y-72708D01*
X79287Y-72537D01*
X79315Y-72480D01*
X79344Y-72451D01*
X79401Y-72422D01*
X79515Y-72422D01*
X79572Y-72451D01*
X70944Y-73994D02*
X71030Y-74022D01*
X71172Y-74022D01*
X71230Y-73994D01*
X71258Y-73965D01*
X71287Y-73908D01*
X71287Y-73851D01*
X71258Y-73794D01*
X71230Y-73765D01*
X71172Y-73737D01*
X71058Y-73708D01*
X71001Y-73680D01*
X70972Y-73651D01*
X70944Y-73594D01*
X70944Y-73537D01*
X70972Y-73480D01*
X71001Y-73451D01*
X71058Y-73422D01*
X71201Y-73422D01*
X71287Y-73451D01*
X71544Y-74022D02*
X71544Y-73422D01*
X71801Y-74022D02*
X71801Y-73708D01*
X71772Y-73651D01*
X71715Y-73622D01*
X71630Y-73622D01*
X71572Y-73651D01*
X71544Y-73680D01*
X72315Y-73994D02*
X72258Y-74022D01*
X72144Y-74022D01*
X72087Y-73994D01*
X72058Y-73937D01*
X72058Y-73708D01*
X72087Y-73651D01*
X72144Y-73622D01*
X72258Y-73622D01*
X72315Y-73651D01*
X72344Y-73708D01*
X72344Y-73765D01*
X72058Y-73822D01*
X72830Y-73994D02*
X72772Y-74022D01*
X72658Y-74022D01*
X72601Y-73994D01*
X72572Y-73937D01*
X72572Y-73708D01*
X72601Y-73651D01*
X72658Y-73622D01*
X72772Y-73622D01*
X72830Y-73651D01*
X72858Y-73708D01*
X72858Y-73765D01*
X72572Y-73822D01*
X73030Y-73622D02*
X73258Y-73622D01*
X73115Y-73422D02*
X73115Y-73937D01*
X73144Y-73994D01*
X73201Y-74022D01*
X73258Y-74022D01*
X73458Y-73965D02*
X73487Y-73994D01*
X73458Y-74022D01*
X73430Y-73994D01*
X73458Y-73965D01*
X73458Y-74022D01*
X73458Y-73651D02*
X73487Y-73680D01*
X73458Y-73708D01*
X73430Y-73680D01*
X73458Y-73651D01*
X73458Y-73708D01*
X70887Y-69822D02*
X71230Y-69822D01*
X71058Y-70422D02*
X71058Y-69822D01*
X71430Y-70422D02*
X71430Y-69822D01*
X71430Y-70108D02*
X71772Y-70108D01*
X71772Y-70422D02*
X71772Y-69822D01*
X72058Y-70422D02*
X72058Y-69822D01*
X72315Y-70394D02*
X72401Y-70422D01*
X72544Y-70422D01*
X72601Y-70394D01*
X72629Y-70365D01*
X72658Y-70308D01*
X72658Y-70251D01*
X72629Y-70194D01*
X72601Y-70165D01*
X72544Y-70137D01*
X72429Y-70108D01*
X72372Y-70080D01*
X72344Y-70051D01*
X72315Y-69994D01*
X72315Y-69937D01*
X72344Y-69880D01*
X72372Y-69851D01*
X72429Y-69822D01*
X72572Y-69822D01*
X72658Y-69851D01*
X73315Y-69822D02*
X73458Y-70422D01*
X73572Y-69994D01*
X73687Y-70422D01*
X73830Y-69822D01*
X74172Y-69822D02*
X74287Y-69822D01*
X74344Y-69851D01*
X74401Y-69908D01*
X74430Y-70022D01*
X74430Y-70222D01*
X74401Y-70337D01*
X74344Y-70394D01*
X74287Y-70422D01*
X74172Y-70422D01*
X74115Y-70394D01*
X74058Y-70337D01*
X74030Y-70222D01*
X74030Y-70022D01*
X74058Y-69908D01*
X74115Y-69851D01*
X74172Y-69822D01*
X75029Y-70422D02*
X74829Y-70137D01*
X74687Y-70422D02*
X74687Y-69822D01*
X74915Y-69822D01*
X74972Y-69851D01*
X75001Y-69880D01*
X75029Y-69937D01*
X75029Y-70022D01*
X75001Y-70080D01*
X74972Y-70108D01*
X74915Y-70137D01*
X74687Y-70137D01*
X75287Y-70422D02*
X75287Y-69822D01*
X75629Y-70422D02*
X75372Y-70080D01*
X75629Y-69822D02*
X75287Y-70165D01*
X76344Y-70422D02*
X76344Y-69822D01*
X76601Y-70394D02*
X76687Y-70422D01*
X76829Y-70422D01*
X76887Y-70394D01*
X76915Y-70365D01*
X76944Y-70308D01*
X76944Y-70251D01*
X76915Y-70194D01*
X76887Y-70165D01*
X76829Y-70137D01*
X76715Y-70108D01*
X76658Y-70080D01*
X76629Y-70051D01*
X76601Y-69994D01*
X76601Y-69937D01*
X76629Y-69880D01*
X76658Y-69851D01*
X76715Y-69822D01*
X76858Y-69822D01*
X76944Y-69851D01*
X78001Y-70365D02*
X77972Y-70394D01*
X77887Y-70422D01*
X77830Y-70422D01*
X77744Y-70394D01*
X77687Y-70337D01*
X77658Y-70280D01*
X77630Y-70165D01*
X77630Y-70080D01*
X77658Y-69965D01*
X77687Y-69908D01*
X77744Y-69851D01*
X77830Y-69822D01*
X77887Y-69822D01*
X77972Y-69851D01*
X78001Y-69880D01*
X78372Y-69822D02*
X78487Y-69822D01*
X78544Y-69851D01*
X78601Y-69908D01*
X78630Y-70022D01*
X78630Y-70222D01*
X78601Y-70337D01*
X78544Y-70394D01*
X78487Y-70422D01*
X78372Y-70422D01*
X78315Y-70394D01*
X78258Y-70337D01*
X78230Y-70222D01*
X78230Y-70022D01*
X78258Y-69908D01*
X78315Y-69851D01*
X78372Y-69822D01*
X78801Y-69822D02*
X79001Y-70422D01*
X79201Y-69822D01*
X79401Y-70108D02*
X79601Y-70108D01*
X79687Y-70422D02*
X79401Y-70422D01*
X79401Y-69822D01*
X79687Y-69822D01*
X80287Y-70422D02*
X80087Y-70137D01*
X79944Y-70422D02*
X79944Y-69822D01*
X80172Y-69822D01*
X80229Y-69851D01*
X80258Y-69880D01*
X80287Y-69937D01*
X80287Y-70022D01*
X80258Y-70080D01*
X80229Y-70108D01*
X80172Y-70137D01*
X79944Y-70137D01*
X80544Y-70108D02*
X80744Y-70108D01*
X80829Y-70422D02*
X80544Y-70422D01*
X80544Y-69822D01*
X80829Y-69822D01*
X81087Y-70422D02*
X81087Y-69822D01*
X81229Y-69822D01*
X81315Y-69851D01*
X81372Y-69908D01*
X81401Y-69965D01*
X81429Y-70080D01*
X81429Y-70165D01*
X81401Y-70280D01*
X81372Y-70337D01*
X81315Y-70394D01*
X81229Y-70422D01*
X81087Y-70422D01*
X82144Y-69822D02*
X82144Y-70308D01*
X82172Y-70365D01*
X82201Y-70394D01*
X82258Y-70422D01*
X82372Y-70422D01*
X82429Y-70394D01*
X82458Y-70365D01*
X82487Y-70308D01*
X82487Y-69822D01*
X82772Y-70422D02*
X82772Y-69822D01*
X83115Y-70422D01*
X83115Y-69822D01*
X83401Y-70422D02*
X83401Y-69822D01*
X83544Y-69822D01*
X83629Y-69851D01*
X83687Y-69908D01*
X83715Y-69965D01*
X83744Y-70080D01*
X83744Y-70165D01*
X83715Y-70280D01*
X83687Y-70337D01*
X83629Y-70394D01*
X83544Y-70422D01*
X83401Y-70422D01*
X84001Y-70108D02*
X84201Y-70108D01*
X84287Y-70422D02*
X84001Y-70422D01*
X84001Y-69822D01*
X84287Y-69822D01*
X84887Y-70422D02*
X84687Y-70137D01*
X84544Y-70422D02*
X84544Y-69822D01*
X84772Y-69822D01*
X84829Y-69851D01*
X84858Y-69880D01*
X84887Y-69937D01*
X84887Y-70022D01*
X84858Y-70080D01*
X84829Y-70108D01*
X84772Y-70137D01*
X84544Y-70137D01*
X85572Y-70251D02*
X85858Y-70251D01*
X85515Y-70422D02*
X85715Y-69822D01*
X85915Y-70422D01*
X86915Y-70365D02*
X86887Y-70394D01*
X86801Y-70422D01*
X86744Y-70422D01*
X86658Y-70394D01*
X86601Y-70337D01*
X86572Y-70280D01*
X86544Y-70165D01*
X86544Y-70080D01*
X86572Y-69965D01*
X86601Y-69908D01*
X86658Y-69851D01*
X86744Y-69822D01*
X86801Y-69822D01*
X86887Y-69851D01*
X86915Y-69880D01*
X87515Y-70422D02*
X87315Y-70137D01*
X87172Y-70422D02*
X87172Y-69822D01*
X87401Y-69822D01*
X87458Y-69851D01*
X87487Y-69880D01*
X87515Y-69937D01*
X87515Y-70022D01*
X87487Y-70080D01*
X87458Y-70108D01*
X87401Y-70137D01*
X87172Y-70137D01*
X87772Y-70108D02*
X87972Y-70108D01*
X88058Y-70422D02*
X87772Y-70422D01*
X87772Y-69822D01*
X88058Y-69822D01*
X88287Y-70251D02*
X88572Y-70251D01*
X88229Y-70422D02*
X88429Y-69822D01*
X88629Y-70422D01*
X88744Y-69822D02*
X89087Y-69822D01*
X88915Y-70422D02*
X88915Y-69822D01*
X89287Y-70422D02*
X89287Y-69822D01*
X89487Y-69822D02*
X89687Y-70422D01*
X89887Y-69822D01*
X90087Y-70108D02*
X90287Y-70108D01*
X90372Y-70422D02*
X90087Y-70422D01*
X90087Y-69822D01*
X90372Y-69822D01*
X91429Y-70365D02*
X91401Y-70394D01*
X91315Y-70422D01*
X91258Y-70422D01*
X91172Y-70394D01*
X91115Y-70337D01*
X91087Y-70280D01*
X91058Y-70165D01*
X91058Y-70080D01*
X91087Y-69965D01*
X91115Y-69908D01*
X91172Y-69851D01*
X91258Y-69822D01*
X91315Y-69822D01*
X91401Y-69851D01*
X91429Y-69880D01*
X91801Y-69822D02*
X91915Y-69822D01*
X91972Y-69851D01*
X92029Y-69908D01*
X92058Y-70022D01*
X92058Y-70222D01*
X92029Y-70337D01*
X91972Y-70394D01*
X91915Y-70422D01*
X91801Y-70422D01*
X91744Y-70394D01*
X91687Y-70337D01*
X91658Y-70222D01*
X91658Y-70022D01*
X91687Y-69908D01*
X91744Y-69851D01*
X91801Y-69822D01*
X92315Y-70422D02*
X92315Y-69822D01*
X92515Y-70251D01*
X92715Y-69822D01*
X92715Y-70422D01*
X93001Y-70422D02*
X93001Y-69822D01*
X93201Y-70251D01*
X93401Y-69822D01*
X93401Y-70422D01*
X93801Y-69822D02*
X93915Y-69822D01*
X93972Y-69851D01*
X94029Y-69908D01*
X94058Y-70022D01*
X94058Y-70222D01*
X94029Y-70337D01*
X93972Y-70394D01*
X93915Y-70422D01*
X93801Y-70422D01*
X93744Y-70394D01*
X93687Y-70337D01*
X93658Y-70222D01*
X93658Y-70022D01*
X93687Y-69908D01*
X93744Y-69851D01*
X93801Y-69822D01*
X94315Y-70422D02*
X94315Y-69822D01*
X94658Y-70422D01*
X94658Y-69822D01*
X94915Y-70394D02*
X95001Y-70422D01*
X95144Y-70422D01*
X95201Y-70394D01*
X95229Y-70365D01*
X95258Y-70308D01*
X95258Y-70251D01*
X95229Y-70194D01*
X95201Y-70165D01*
X95144Y-70137D01*
X95029Y-70108D01*
X94972Y-70080D01*
X94944Y-70051D01*
X94915Y-69994D01*
X94915Y-69937D01*
X94944Y-69880D01*
X94972Y-69851D01*
X95029Y-69822D01*
X95172Y-69822D01*
X95258Y-69851D01*
X96258Y-70422D02*
X95972Y-70422D01*
X95972Y-69822D01*
X96458Y-70422D02*
X96458Y-69822D01*
X97087Y-70365D02*
X97058Y-70394D01*
X96972Y-70422D01*
X96915Y-70422D01*
X96829Y-70394D01*
X96772Y-70337D01*
X96744Y-70280D01*
X96715Y-70165D01*
X96715Y-70080D01*
X96744Y-69965D01*
X96772Y-69908D01*
X96829Y-69851D01*
X96915Y-69822D01*
X96972Y-69822D01*
X97058Y-69851D01*
X97087Y-69880D01*
X97344Y-70108D02*
X97544Y-70108D01*
X97629Y-70422D02*
X97344Y-70422D01*
X97344Y-69822D01*
X97629Y-69822D01*
X97887Y-70422D02*
X97887Y-69822D01*
X98229Y-70422D01*
X98229Y-69822D01*
X98487Y-70394D02*
X98572Y-70422D01*
X98715Y-70422D01*
X98772Y-70394D01*
X98801Y-70365D01*
X98829Y-70308D01*
X98829Y-70251D01*
X98801Y-70194D01*
X98772Y-70165D01*
X98715Y-70137D01*
X98601Y-70108D01*
X98544Y-70080D01*
X98515Y-70051D01*
X98487Y-69994D01*
X98487Y-69937D01*
X98515Y-69880D01*
X98544Y-69851D01*
X98601Y-69822D01*
X98744Y-69822D01*
X98829Y-69851D01*
X99087Y-70108D02*
X99287Y-70108D01*
X99372Y-70422D02*
X99087Y-70422D01*
X99087Y-69822D01*
X99372Y-69822D01*
X100258Y-70651D02*
X100229Y-70622D01*
X100172Y-70537D01*
X100144Y-70480D01*
X100115Y-70394D01*
X100087Y-70251D01*
X100087Y-70137D01*
X100115Y-69994D01*
X100144Y-69908D01*
X100172Y-69851D01*
X100229Y-69765D01*
X100258Y-69737D01*
X100829Y-70365D02*
X100801Y-70394D01*
X100715Y-70422D01*
X100658Y-70422D01*
X100572Y-70394D01*
X100515Y-70337D01*
X100487Y-70280D01*
X100458Y-70165D01*
X100458Y-70080D01*
X100487Y-69965D01*
X100515Y-69908D01*
X100572Y-69851D01*
X100658Y-69822D01*
X100715Y-69822D01*
X100801Y-69851D01*
X100829Y-69880D01*
X101429Y-70365D02*
X101401Y-70394D01*
X101315Y-70422D01*
X101258Y-70422D01*
X101172Y-70394D01*
X101115Y-70337D01*
X101087Y-70280D01*
X101058Y-70165D01*
X101058Y-70080D01*
X101087Y-69965D01*
X101115Y-69908D01*
X101172Y-69851D01*
X101258Y-69822D01*
X101315Y-69822D01*
X101401Y-69851D01*
X101429Y-69880D01*
X102344Y-70108D02*
X102429Y-70137D01*
X102458Y-70165D01*
X102487Y-70222D01*
X102487Y-70308D01*
X102458Y-70365D01*
X102429Y-70394D01*
X102372Y-70422D01*
X102144Y-70422D01*
X102144Y-69822D01*
X102344Y-69822D01*
X102401Y-69851D01*
X102429Y-69880D01*
X102458Y-69937D01*
X102458Y-69994D01*
X102429Y-70051D01*
X102401Y-70080D01*
X102344Y-70108D01*
X102144Y-70108D01*
X102858Y-70137D02*
X102858Y-70422D01*
X102658Y-69822D02*
X102858Y-70137D01*
X103058Y-69822D01*
X103658Y-69822D02*
X104029Y-69822D01*
X103829Y-70051D01*
X103915Y-70051D01*
X103972Y-70080D01*
X104001Y-70108D01*
X104029Y-70165D01*
X104029Y-70308D01*
X104001Y-70365D01*
X103972Y-70394D01*
X103915Y-70422D01*
X103744Y-70422D01*
X103687Y-70394D01*
X103658Y-70365D01*
X104287Y-70365D02*
X104315Y-70394D01*
X104287Y-70422D01*
X104258Y-70394D01*
X104287Y-70365D01*
X104287Y-70422D01*
X104687Y-69822D02*
X104744Y-69822D01*
X104801Y-69851D01*
X104829Y-69880D01*
X104858Y-69937D01*
X104887Y-70051D01*
X104887Y-70194D01*
X104858Y-70308D01*
X104829Y-70365D01*
X104801Y-70394D01*
X104744Y-70422D01*
X104687Y-70422D01*
X104629Y-70394D01*
X104601Y-70365D01*
X104572Y-70308D01*
X104544Y-70194D01*
X104544Y-70051D01*
X104572Y-69937D01*
X104601Y-69880D01*
X104629Y-69851D01*
X104687Y-69822D01*
X105087Y-70651D02*
X105115Y-70622D01*
X105172Y-70537D01*
X105201Y-70480D01*
X105229Y-70394D01*
X105258Y-70251D01*
X105258Y-70137D01*
X105229Y-69994D01*
X105201Y-69908D01*
X105172Y-69851D01*
X105115Y-69765D01*
X105087Y-69737D01*
X71315Y-69165D02*
X71287Y-69194D01*
X71201Y-69222D01*
X71144Y-69222D01*
X71058Y-69194D01*
X71001Y-69137D01*
X70972Y-69080D01*
X70944Y-68965D01*
X70944Y-68880D01*
X70972Y-68765D01*
X71001Y-68708D01*
X71058Y-68651D01*
X71144Y-68622D01*
X71201Y-68622D01*
X71287Y-68651D01*
X71315Y-68680D01*
X71658Y-69222D02*
X71601Y-69194D01*
X71572Y-69165D01*
X71544Y-69108D01*
X71544Y-68937D01*
X71572Y-68880D01*
X71601Y-68851D01*
X71658Y-68822D01*
X71744Y-68822D01*
X71801Y-68851D01*
X71830Y-68880D01*
X71858Y-68937D01*
X71858Y-69108D01*
X71830Y-69165D01*
X71801Y-69194D01*
X71744Y-69222D01*
X71658Y-69222D01*
X72115Y-68822D02*
X72115Y-69422D01*
X72115Y-68851D02*
X72172Y-68822D01*
X72287Y-68822D01*
X72344Y-68851D01*
X72372Y-68880D01*
X72401Y-68937D01*
X72401Y-69108D01*
X72372Y-69165D01*
X72344Y-69194D01*
X72287Y-69222D01*
X72172Y-69222D01*
X72115Y-69194D01*
X72601Y-68822D02*
X72744Y-69222D01*
X72887Y-68822D02*
X72744Y-69222D01*
X72687Y-69365D01*
X72658Y-69394D01*
X72601Y-69422D01*
X73115Y-69222D02*
X73115Y-68822D01*
X73115Y-68937D02*
X73144Y-68880D01*
X73172Y-68851D01*
X73230Y-68822D01*
X73287Y-68822D01*
X73487Y-69222D02*
X73487Y-68822D01*
X73487Y-68622D02*
X73458Y-68651D01*
X73487Y-68680D01*
X73515Y-68651D01*
X73487Y-68622D01*
X73487Y-68680D01*
X74030Y-68822D02*
X74030Y-69308D01*
X74001Y-69365D01*
X73972Y-69394D01*
X73915Y-69422D01*
X73830Y-69422D01*
X73772Y-69394D01*
X74030Y-69194D02*
X73972Y-69222D01*
X73858Y-69222D01*
X73801Y-69194D01*
X73772Y-69165D01*
X73744Y-69108D01*
X73744Y-68937D01*
X73772Y-68880D01*
X73801Y-68851D01*
X73858Y-68822D01*
X73972Y-68822D01*
X74030Y-68851D01*
X74315Y-69222D02*
X74315Y-68622D01*
X74572Y-69222D02*
X74572Y-68908D01*
X74544Y-68851D01*
X74487Y-68822D01*
X74401Y-68822D01*
X74344Y-68851D01*
X74315Y-68880D01*
X74772Y-68822D02*
X75001Y-68822D01*
X74858Y-68622D02*
X74858Y-69137D01*
X74887Y-69194D01*
X74944Y-69222D01*
X75001Y-69222D01*
X75630Y-68680D02*
X75658Y-68651D01*
X75715Y-68622D01*
X75858Y-68622D01*
X75915Y-68651D01*
X75944Y-68680D01*
X75972Y-68737D01*
X75972Y-68794D01*
X75944Y-68880D01*
X75601Y-69222D01*
X75972Y-69222D01*
X76344Y-68622D02*
X76401Y-68622D01*
X76458Y-68651D01*
X76487Y-68680D01*
X76515Y-68737D01*
X76544Y-68851D01*
X76544Y-68994D01*
X76515Y-69108D01*
X76487Y-69165D01*
X76458Y-69194D01*
X76401Y-69222D01*
X76344Y-69222D01*
X76287Y-69194D01*
X76258Y-69165D01*
X76230Y-69108D01*
X76201Y-68994D01*
X76201Y-68851D01*
X76230Y-68737D01*
X76258Y-68680D01*
X76287Y-68651D01*
X76344Y-68622D01*
X77115Y-69222D02*
X76772Y-69222D01*
X76944Y-69222D02*
X76944Y-68622D01*
X76887Y-68708D01*
X76830Y-68765D01*
X76772Y-68794D01*
X77315Y-68622D02*
X77687Y-68622D01*
X77487Y-68851D01*
X77572Y-68851D01*
X77630Y-68880D01*
X77658Y-68908D01*
X77687Y-68965D01*
X77687Y-69108D01*
X77658Y-69165D01*
X77630Y-69194D01*
X77572Y-69222D01*
X77401Y-69222D01*
X77344Y-69194D01*
X77315Y-69165D01*
X78372Y-69051D02*
X78658Y-69051D01*
X78315Y-69222D02*
X78515Y-68622D01*
X78715Y-69222D01*
X78858Y-68622D02*
X79258Y-68622D01*
X78858Y-69222D01*
X79258Y-69222D01*
X79487Y-69222D02*
X79487Y-68622D01*
X79887Y-68622D02*
X80001Y-68622D01*
X80058Y-68651D01*
X80115Y-68708D01*
X80144Y-68822D01*
X80144Y-69022D01*
X80115Y-69137D01*
X80058Y-69194D01*
X80001Y-69222D01*
X79887Y-69222D01*
X79830Y-69194D01*
X79772Y-69137D01*
X79744Y-69022D01*
X79744Y-68822D01*
X79772Y-68708D01*
X79830Y-68651D01*
X79887Y-68622D01*
X80858Y-68908D02*
X81058Y-68908D01*
X81144Y-69222D02*
X80858Y-69222D01*
X80858Y-68622D01*
X81144Y-68622D01*
X81487Y-69222D02*
X81430Y-69194D01*
X81401Y-69137D01*
X81401Y-68622D01*
X81944Y-69194D02*
X81887Y-69222D01*
X81772Y-69222D01*
X81715Y-69194D01*
X81687Y-69137D01*
X81687Y-68908D01*
X81715Y-68851D01*
X81772Y-68822D01*
X81887Y-68822D01*
X81944Y-68851D01*
X81972Y-68908D01*
X81972Y-68965D01*
X81687Y-69022D01*
X82487Y-69194D02*
X82430Y-69222D01*
X82315Y-69222D01*
X82258Y-69194D01*
X82230Y-69165D01*
X82201Y-69108D01*
X82201Y-68937D01*
X82230Y-68880D01*
X82258Y-68851D01*
X82315Y-68822D01*
X82430Y-68822D01*
X82487Y-68851D01*
X82658Y-68822D02*
X82887Y-68822D01*
X82744Y-68622D02*
X82744Y-69137D01*
X82772Y-69194D01*
X82830Y-69222D01*
X82887Y-69222D01*
X83087Y-69222D02*
X83087Y-68822D01*
X83087Y-68937D02*
X83115Y-68880D01*
X83144Y-68851D01*
X83201Y-68822D01*
X83258Y-68822D01*
X83544Y-69222D02*
X83487Y-69194D01*
X83458Y-69165D01*
X83430Y-69108D01*
X83430Y-68937D01*
X83458Y-68880D01*
X83487Y-68851D01*
X83544Y-68822D01*
X83630Y-68822D01*
X83687Y-68851D01*
X83715Y-68880D01*
X83744Y-68937D01*
X83744Y-69108D01*
X83715Y-69165D01*
X83687Y-69194D01*
X83630Y-69222D01*
X83544Y-69222D01*
X84001Y-68822D02*
X84001Y-69222D01*
X84001Y-68880D02*
X84030Y-68851D01*
X84087Y-68822D01*
X84172Y-68822D01*
X84230Y-68851D01*
X84258Y-68908D01*
X84258Y-69222D01*
X84544Y-69222D02*
X84544Y-68822D01*
X84544Y-68622D02*
X84515Y-68651D01*
X84544Y-68680D01*
X84572Y-68651D01*
X84544Y-68622D01*
X84544Y-68680D01*
X85087Y-69194D02*
X85030Y-69222D01*
X84915Y-69222D01*
X84858Y-69194D01*
X84830Y-69165D01*
X84801Y-69108D01*
X84801Y-68937D01*
X84830Y-68880D01*
X84858Y-68851D01*
X84915Y-68822D01*
X85030Y-68822D01*
X85087Y-68851D01*
X85315Y-69194D02*
X85372Y-69222D01*
X85487Y-69222D01*
X85544Y-69194D01*
X85572Y-69137D01*
X85572Y-69108D01*
X85544Y-69051D01*
X85487Y-69022D01*
X85401Y-69022D01*
X85344Y-68994D01*
X85315Y-68937D01*
X85315Y-68908D01*
X85344Y-68851D01*
X85401Y-68822D01*
X85487Y-68822D01*
X85544Y-68851D01*
X86630Y-69165D02*
X86601Y-69194D01*
X86515Y-69222D01*
X86458Y-69222D01*
X86372Y-69194D01*
X86315Y-69137D01*
X86287Y-69080D01*
X86258Y-68965D01*
X86258Y-68880D01*
X86287Y-68765D01*
X86315Y-68708D01*
X86372Y-68651D01*
X86458Y-68622D01*
X86515Y-68622D01*
X86601Y-68651D01*
X86630Y-68680D01*
X86972Y-69222D02*
X86915Y-69194D01*
X86887Y-69165D01*
X86858Y-69108D01*
X86858Y-68937D01*
X86887Y-68880D01*
X86915Y-68851D01*
X86972Y-68822D01*
X87058Y-68822D01*
X87115Y-68851D01*
X87144Y-68880D01*
X87172Y-68937D01*
X87172Y-69108D01*
X87144Y-69165D01*
X87115Y-69194D01*
X87058Y-69222D01*
X86972Y-69222D01*
X87430Y-69165D02*
X87458Y-69194D01*
X87430Y-69222D01*
X87401Y-69194D01*
X87430Y-69165D01*
X87430Y-69222D01*
X87744Y-69194D02*
X87744Y-69222D01*
X87715Y-69280D01*
X87687Y-69308D01*
X88744Y-69222D02*
X88458Y-69222D01*
X88458Y-68622D01*
X88858Y-68822D02*
X89087Y-68822D01*
X88944Y-68622D02*
X88944Y-69137D01*
X88972Y-69194D01*
X89030Y-69222D01*
X89087Y-69222D01*
X89544Y-69222D02*
X89544Y-68622D01*
X89544Y-69194D02*
X89487Y-69222D01*
X89372Y-69222D01*
X89315Y-69194D01*
X89287Y-69165D01*
X89258Y-69108D01*
X89258Y-68937D01*
X89287Y-68880D01*
X89315Y-68851D01*
X89372Y-68822D01*
X89487Y-68822D01*
X89544Y-68851D01*
X89830Y-69165D02*
X89858Y-69194D01*
X89830Y-69222D01*
X89801Y-69194D01*
X89830Y-69165D01*
X89830Y-69222D01*
X70230Y-68380D02*
X70230Y-77980D01*
X70230Y-71980D02*
X112230Y-71980D01*
X70230Y-68380D02*
X112230Y-68380D01*
X70230Y-74380D02*
X112230Y-74380D01*
X103430Y-75580D02*
X103430Y-77980D01*
X70230Y-76780D02*
X112230Y-76780D01*
X70230Y-75580D02*
X112230Y-75580D01*
X76830Y-75580D02*
X76830Y-76780D01*
G54D11*
X46007Y-30019D02*
X48110Y-30019D01*
X48110Y-30019D02*
X48110Y-32834D01*
X48110Y-32834D02*
X56425Y-32834D01*
X46007Y-30019D02*
X46007Y-34570D01*
X41283Y-52483D02*
X41283Y-27680D01*
X67661Y-52483D02*
X41283Y-52483D01*
X67661Y-27680D02*
X67661Y-52483D01*
X41283Y-27680D02*
X67661Y-27680D01*
X64905Y-32834D02*
X64905Y-39492D01*
X57764Y-32834D02*
X64905Y-32834D01*
X57764Y-32677D02*
X57764Y-29648D01*
X65692Y-29650D02*
X57764Y-29650D01*
X65692Y-39492D02*
X65692Y-29650D01*
X64905Y-39492D02*
X65692Y-39492D01*
X57764Y-50515D02*
X57764Y-49728D01*
X65692Y-50515D02*
X57764Y-50515D01*
X65692Y-40948D02*
X65692Y-50515D01*
X64905Y-40948D02*
X65692Y-40948D01*
X64905Y-49728D02*
X64905Y-40948D01*
X57764Y-49728D02*
X64905Y-49728D01*
X45220Y-50515D02*
X45220Y-44413D01*
X56386Y-50515D02*
X45220Y-50515D01*
X56386Y-49728D02*
X56386Y-50515D01*
X46007Y-49728D02*
X56386Y-49728D01*
X46007Y-44413D02*
X46007Y-49728D01*
X46007Y-44413D02*
X45220Y-44413D01*
X45220Y-43390D02*
X45220Y-35555D01*
X46007Y-43390D02*
X45220Y-43390D01*
X46007Y-35555D02*
X46007Y-43390D01*
X46007Y-35555D02*
X45220Y-35555D01*
X46007Y-34570D02*
X45220Y-34570D01*
X45220Y-29648D02*
X45220Y-34570D01*
X45220Y-29648D02*
X56384Y-29648D01*
X56384Y-32834D02*
X56384Y-29648D01*
G54D12*
X63464Y-34153D03*
X63858Y-34153D03*
X64645Y-34881D03*
X63346Y-34704D03*
X64645Y-33740D03*
X64173Y-33661D03*
X63838Y-33818D03*
X63444Y-33818D03*
X63444Y-33129D03*
X64015Y-33149D03*
X58425Y-33267D03*
X59015Y-33307D03*
X63858Y-33464D03*
X63464Y-33464D03*
X64566Y-37696D03*
X62952Y-33275D03*
X63385Y-37696D03*
X63779Y-37696D03*
X62559Y-33275D03*
X62165Y-33275D03*
X61555Y-33799D03*
X64173Y-37696D03*
X64062Y-42602D03*
X64456Y-42602D03*
X63787Y-43003D03*
X64102Y-42996D03*
X63716Y-42606D03*
X64496Y-42996D03*
X64653Y-43744D03*
X64259Y-43744D03*
X63944Y-43751D03*
X62350Y-47901D03*
X64220Y-48429D03*
X62059Y-48488D03*
X64543Y-46566D03*
X62716Y-46909D03*
X61972Y-46921D03*
X60681Y-46791D03*
X47507Y-44417D03*
X46535Y-43897D03*
X47838Y-44417D03*
X47188Y-38653D03*
X47503Y-38653D03*
X47503Y-39047D03*
X47188Y-39047D03*
X50511Y-33031D03*
X52066Y-33681D03*
X53976Y-33740D03*
X47244Y-32283D03*
X51732Y-33681D03*
X47755Y-32165D03*
X46496Y-32145D03*
X47677Y-30314D03*
X48248Y-33149D03*
X55200Y-49358D03*
X55200Y-49043D03*
X54807Y-49043D03*
X54807Y-49358D03*
X56539Y-49358D03*
X56933Y-49043D03*
X56933Y-49358D03*
X56066Y-49358D03*
X55673Y-49358D03*
X49295Y-46720D03*
X48980Y-48492D03*
X49374Y-48492D03*
X49688Y-46720D03*
X50555Y-46720D03*
X50240Y-48492D03*
X49846Y-48492D03*
X50161Y-46720D03*
X48114Y-49358D03*
X48114Y-49043D03*
X48507Y-49043D03*
X48507Y-49358D03*
X58940Y-49240D03*
X58933Y-48818D03*
G54D13*
X51375Y-48500D03*
X51690Y-48500D03*
X52320Y-48500D03*
X52005Y-48500D03*
X52635Y-48500D03*
X52950Y-48500D03*
X53108Y-48815D03*
X52793Y-48815D03*
X52163Y-48815D03*
X52478Y-48815D03*
X51848Y-48815D03*
X51533Y-48815D03*
X52911Y-49091D03*
X52596Y-49091D03*
X51966Y-49091D03*
X52281Y-49091D03*
X51651Y-49091D03*
X51336Y-49091D03*
X51336Y-47871D03*
X51651Y-47871D03*
X52281Y-47871D03*
X51966Y-47871D03*
X52596Y-47871D03*
X52911Y-47871D03*
X53068Y-48185D03*
X52753Y-48185D03*
X52123Y-48185D03*
X52438Y-48185D03*
X51809Y-48185D03*
X51494Y-48185D03*
X51533Y-47595D03*
X51848Y-47595D03*
X52478Y-47595D03*
X52163Y-47595D03*
X52793Y-47595D03*
X53108Y-47595D03*
X52950Y-47280D03*
X52635Y-47280D03*
X52005Y-47280D03*
X52320Y-47280D03*
X51690Y-47280D03*
G54D12*
X48291Y-35232D03*
X51291Y-44267D03*
X51200Y-44602D03*
X51204Y-44925D03*
X51291Y-43874D03*
X51566Y-43716D03*
X51535Y-44736D03*
X51535Y-45066D03*
X51547Y-44413D03*
X51547Y-44082D03*
X48582Y-45511D03*
X48110Y-45866D03*
X48110Y-45472D03*
X48346Y-46771D03*
X48582Y-45905D03*
X48346Y-46417D03*
X47362Y-46141D03*
X46417Y-47322D03*
X46889Y-46889D03*
X47362Y-46889D03*
X47362Y-47322D03*
X46889Y-47322D03*
X46417Y-46496D03*
X46417Y-46889D03*
X47362Y-46496D03*
X64173Y-36909D03*
X63385Y-37303D03*
X63779Y-37303D03*
X64173Y-37303D03*
X63779Y-36909D03*
X64062Y-46303D03*
X63385Y-44291D03*
X64645Y-44094D03*
X47208Y-36555D03*
X48283Y-34952D03*
G54D13*
X51375Y-47280D03*
X48124Y-36145D03*
X48124Y-36421D03*
G54D12*
X54350Y-33720D03*
X63366Y-35964D03*
X51220Y-41417D03*
X48007Y-35212D03*
X47200Y-36862D03*
X47476Y-33153D03*
X47870Y-33153D03*
X52992Y-36181D03*
X55078Y-48464D03*
X58503Y-49409D03*
X61366Y-49437D03*
X64645Y-45196D03*
X57248Y-47539D03*
X64602Y-47311D03*
X64602Y-46996D03*
X63503Y-46732D03*
X64606Y-47637D03*
X64606Y-48425D03*
X64606Y-48897D03*
X64645Y-45511D03*
X63307Y-45551D03*
X64645Y-44409D03*
X63917Y-46893D03*
X63322Y-45913D03*
X63669Y-46303D03*
X63354Y-46311D03*
X64645Y-35708D03*
X64645Y-34547D03*
X58779Y-33779D03*
X64665Y-36003D03*
X62834Y-37500D03*
X59173Y-33779D03*
X63385Y-36909D03*
X64566Y-37303D03*
X64566Y-36909D03*
X64062Y-45909D03*
X63669Y-45909D03*
X56417Y-46299D03*
X57169Y-46870D03*
X57681Y-46870D03*
X56811Y-46299D03*
X59996Y-33263D03*
X59606Y-33267D03*
X61334Y-33263D03*
X61728Y-33263D03*
X60862Y-33263D03*
X60468Y-33263D03*
X61122Y-46311D03*
X62330Y-49421D03*
X57838Y-47460D03*
X61393Y-48484D03*
X56968Y-47834D03*
X58468Y-47578D03*
X58586Y-46870D03*
X52051Y-46326D03*
X58153Y-46870D03*
X51653Y-46338D03*
X61389Y-47940D03*
X61480Y-46314D03*
X62834Y-39862D03*
X63307Y-42559D03*
X52874Y-43464D03*
X52007Y-43149D03*
X49606Y-39330D03*
X63582Y-43740D03*
X52007Y-40826D03*
X51456Y-43149D03*
X50988Y-43157D03*
X50984Y-42716D03*
X62913Y-42204D03*
X63228Y-43818D03*
X62830Y-40255D03*
X46889Y-46496D03*
X63307Y-42992D03*
X62913Y-42637D03*
X46299Y-33877D03*
X46303Y-33511D03*
X49606Y-41535D03*
X49921Y-41338D03*
X53779Y-37795D03*
X54330Y-37795D03*
X54173Y-39133D03*
X54015Y-41338D03*
X47838Y-40023D03*
X47799Y-43708D03*
X47846Y-40444D03*
X49566Y-42362D03*
X54803Y-44094D03*
X55078Y-48031D03*
X55433Y-43464D03*
X54566Y-42362D03*
X47515Y-42799D03*
X47830Y-42799D03*
X46480Y-42669D03*
X46795Y-42669D03*
X46795Y-43062D03*
X46480Y-43062D03*
X47503Y-44047D03*
X47818Y-44047D03*
X47830Y-43271D03*
X47515Y-43271D03*
X48027Y-34964D03*
X46480Y-43456D03*
X46795Y-43456D03*
X47976Y-37669D03*
X47661Y-37669D03*
X46559Y-39047D03*
X46874Y-39047D03*
X46874Y-38653D03*
X46559Y-38653D03*
X49791Y-38086D03*
X47803Y-41759D03*
X47814Y-41500D03*
X49881Y-38976D03*
X47468Y-43708D03*
X47807Y-42094D03*
X47830Y-41137D03*
X47830Y-40807D03*
X48976Y-41299D03*
X47838Y-39535D03*
X47814Y-39251D03*
X52559Y-43700D03*
X52874Y-43976D03*
X52559Y-43228D03*
X46287Y-34224D03*
X49606Y-36732D03*
X61200Y-33799D03*
X56535Y-33799D03*
X62854Y-37874D03*
X46358Y-30354D03*
G54D13*
X56102Y-43975D03*
G54D12*
X61386Y-35540D03*
X61024Y-35536D03*
X61024Y-35198D03*
X61394Y-35193D03*
G54D14*
X46007Y-34630D03*
X46007Y-35063D03*
X46007Y-35496D03*
X46007Y-44335D03*
X46007Y-43902D03*
X46007Y-43469D03*
X64905Y-39571D03*
X64905Y-40004D03*
X64905Y-40437D03*
X64905Y-40870D03*
G54D12*
X58299Y-40354D03*
X58299Y-39921D03*
X58082Y-40138D03*
X58515Y-40138D03*
X61011Y-37386D03*
X61169Y-44732D03*
X61366Y-44913D03*
X58732Y-40354D03*
X57866Y-40354D03*
X57433Y-40354D03*
X57000Y-40354D03*
X56783Y-40571D03*
X57216Y-40571D03*
X57653Y-40571D03*
X58082Y-40571D03*
X58515Y-40571D03*
X58515Y-41004D03*
X58082Y-41004D03*
X57653Y-41004D03*
X57216Y-41004D03*
X56783Y-41004D03*
X57000Y-40787D03*
X57433Y-40787D03*
X58299Y-40787D03*
X57866Y-40787D03*
X58732Y-40787D03*
X58732Y-39921D03*
X57866Y-39921D03*
X57433Y-39921D03*
X57000Y-39921D03*
X56783Y-40138D03*
X57216Y-40138D03*
X57653Y-40138D03*
X58515Y-39705D03*
X58082Y-39705D03*
X57653Y-39705D03*
X57216Y-39705D03*
X56783Y-39705D03*
X57000Y-39488D03*
X57433Y-39488D03*
X58299Y-39488D03*
X57866Y-39488D03*
X58732Y-39488D03*
X58732Y-39055D03*
X57866Y-39055D03*
X58299Y-39055D03*
X57433Y-39055D03*
X57000Y-39055D03*
X56783Y-39272D03*
X57216Y-39272D03*
X57653Y-39272D03*
X58082Y-39272D03*
X58515Y-39272D03*
G54D13*
X48990Y-36401D03*
X48990Y-36106D03*
X56220Y-47676D03*
X56220Y-47243D03*
X55787Y-47242D03*
X55787Y-47676D03*
G54D15*
X57818Y-48523D03*
X47188Y-48523D03*
G54D13*
X56378Y-43975D03*
X55787Y-48109D03*
G54D14*
X56426Y-49768D03*
X56859Y-49768D03*
X57292Y-49768D03*
X57726Y-49768D03*
X56425Y-32755D03*
X56858Y-32755D03*
X57291Y-32755D03*
X57725Y-32755D03*
G54D16*
X46772Y-44821D03*
G54D17*
X46772Y-45821D03*
X59878Y-47641D03*
X60878Y-47641D03*
X61878Y-47641D03*
G54D16*
X63878Y-47661D03*
G54D17*
X62878Y-47641D03*
X63866Y-49212D03*
X62866Y-49212D03*
X61866Y-49212D03*
G54D16*
X59866Y-49192D03*
G54D17*
X60866Y-49212D03*
G54D18*
X47188Y-31200D03*
G54D19*
X57039Y-33251D03*
X56039Y-33251D03*
X55039Y-33251D03*
X54039Y-33251D03*
G54D20*
X52039Y-33231D03*
G54D19*
X53039Y-33251D03*
G54D21*
X49554Y-45454D03*
X49554Y-35062D03*
G54D13*
X56783Y-43173D03*
X61728Y-40646D03*
X61821Y-42018D03*
X61594Y-38083D03*
X55032Y-45276D03*
X55748Y-43512D03*
G54D22*
X58279Y-42751D03*
X57307Y-42228D03*
G54D12*
X59964Y-42188D03*
X59850Y-43614D03*
X60645Y-44980D03*
X60177Y-35130D03*
G54D13*
X54949Y-37343D03*
G54D12*
X52646Y-37508D03*
G54D13*
X54221Y-34441D03*
X51169Y-34244D03*
G54D12*
X55299Y-38228D03*
G54D13*
X62039Y-39803D03*
X59910Y-37815D03*
X62036Y-39500D03*
G54D22*
X50011Y-42476D03*
G54D12*
X53323Y-36453D03*
G54D22*
X61173Y-42181D03*
X61023Y-43511D03*
X57736Y-44220D03*
X58236Y-44590D03*
X60716Y-48362D03*
X63468Y-48342D03*
X62448Y-48370D03*
X59248Y-48452D03*
G54D12*
X54724Y-39173D03*
X60397Y-42381D03*
X60149Y-43614D03*
X61641Y-44440D03*
X61665Y-45185D03*
X59803Y-44988D03*
X59822Y-44641D03*
X59811Y-44299D03*
X48188Y-35551D03*
G54D22*
X60252Y-40763D03*
X61283Y-40799D03*
X61228Y-41854D03*
G54D12*
X61264Y-40071D03*
G54D23*
X60677Y-34807D03*
G54D13*
X50921Y-43799D03*
X51012Y-36701D03*
X48158Y-36717D03*
X48150Y-39079D03*
X48189Y-41437D03*
X48138Y-43807D03*
G54D12*
X59882Y-37386D03*
X58256Y-36228D03*
X57106Y-36587D03*
X52012Y-34799D03*
X54457Y-43477D03*
G54D13*
X53465Y-45815D03*
G54D12*
X54579Y-44225D03*
G54D13*
X54268Y-46508D03*
G54D12*
X61957Y-34823D03*
X60906Y-36260D03*
X61957Y-35933D03*
X62154Y-36559D03*
X60882Y-38087D03*
X60780Y-39406D03*
X59350Y-37213D03*
G54D24*
X56091Y-35378D03*
X55579Y-35130D03*
G54D12*
X59508Y-36051D03*
X59650Y-35925D03*
X57094Y-35291D03*
X58354Y-35528D03*
X58370Y-36783D03*
X48165Y-37402D03*
X60266Y-35482D03*
X48193Y-37205D03*
X60246Y-35719D03*
X60657Y-44641D03*
X49565Y-42918D03*
X49132Y-37012D03*
G54D25*
X59065Y-39144D03*
G54D12*
X55288Y-40421D03*
X55701Y-40618D03*
X55366Y-40819D03*
X55705Y-41839D03*
G54D25*
X59065Y-40325D03*
G54D12*
X51732Y-36461D03*
X53591Y-41236D03*
G54D25*
X56447Y-41309D03*
G54D12*
X59951Y-40876D03*
X51728Y-36957D03*
G54D25*
X59065Y-40522D03*
G54D12*
X52870Y-37327D03*
X51728Y-37240D03*
X52870Y-36752D03*
X59669Y-40425D03*
X55736Y-39831D03*
X48193Y-37984D03*
X53906Y-34843D03*
G54D22*
X50114Y-35279D03*
X49791Y-42476D03*
G54D12*
X60030Y-41211D03*
G54D25*
X59065Y-38947D03*
G54D12*
X59748Y-39020D03*
X60319Y-39984D03*
X52906Y-35095D03*
X52543Y-37827D03*
G54D22*
X51917Y-35578D03*
G54D12*
X46539Y-37393D03*
X49232Y-33897D03*
X57205Y-42071D03*
G54D23*
X60704Y-40582D03*
G54D25*
X59065Y-40915D03*
X59065Y-39341D03*
G54D12*
X60339Y-39244D03*
X57465Y-41937D03*
G54D25*
X57254Y-41339D03*
X59055Y-40128D03*
G54D12*
X56957Y-42059D03*
G54D25*
X56663Y-41339D03*
X59065Y-39931D03*
G54D12*
X55933Y-38528D03*
G54D25*
X56437Y-39734D03*
X56437Y-40325D03*
G54D12*
X56260Y-42953D03*
G54D25*
X57057Y-41339D03*
G54D12*
X55638Y-36756D03*
G54D25*
X57067Y-38720D03*
X56870Y-38720D03*
G54D12*
X55981Y-37386D03*
G54D25*
X58238Y-41339D03*
X56860Y-41339D03*
X59065Y-38750D03*
G54D12*
X55394Y-39638D03*
X53650Y-41536D03*
G54D25*
X56437Y-41112D03*
G54D12*
X53583Y-40201D03*
G54D25*
X56437Y-39931D03*
G54D12*
X55831Y-39047D03*
G54D25*
X56437Y-40915D03*
G54D12*
X53579Y-41925D03*
X53602Y-40559D03*
G54D25*
X56437Y-40128D03*
G54D12*
X55303Y-40032D03*
X53662Y-38355D03*
G54D25*
X56437Y-38750D03*
G54D12*
X55709Y-39445D03*
G54D25*
X59075Y-41112D03*
G54D12*
X60039Y-41437D03*
X52193Y-35890D03*
X59740Y-40740D03*
X54453Y-37319D03*
X51721Y-37508D03*
X54721Y-36075D03*
X59787Y-39870D03*
X55555Y-39028D03*
X59272Y-41807D03*
G54D25*
X56437Y-38947D03*
G54D12*
X53662Y-38555D03*
X60645Y-42460D03*
G54D25*
X59065Y-41309D03*
G54D12*
X53610Y-39571D03*
G54D25*
X56437Y-39537D03*
G54D12*
X53626Y-39370D03*
G54D25*
X56437Y-39341D03*
X57854Y-38720D03*
G54D12*
X59150Y-37972D03*
X53579Y-42122D03*
G54D25*
X56437Y-40719D03*
G54D12*
X55772Y-40232D03*
X55890Y-41016D03*
X55260Y-41209D03*
X55815Y-41406D03*
X55445Y-41846D03*
X56303Y-41937D03*
X53650Y-38981D03*
G54D25*
X56437Y-39144D03*
G54D12*
X53587Y-41040D03*
G54D25*
X56437Y-40522D03*
G54D12*
X54736Y-36331D03*
X59646Y-40225D03*
X49354Y-37402D03*
X53071Y-34862D03*
X52276Y-40847D03*
X52248Y-40394D03*
X48185Y-39965D03*
X48221Y-38386D03*
X52516Y-38162D03*
X48201Y-39768D03*
X52232Y-40016D03*
G54D25*
X48188Y-39547D03*
G54D12*
X52402Y-39815D03*
X48079Y-38783D03*
X52386Y-39181D03*
X48193Y-38591D03*
X52366Y-38772D03*
G54D25*
X59065Y-39734D03*
G54D12*
X51445Y-35929D03*
X52213Y-40654D03*
X48181Y-40355D03*
X55984Y-38016D03*
X56319Y-38122D03*
X56575Y-38130D03*
G54D25*
X56673Y-38711D03*
G54D12*
X49744Y-36425D03*
X49634Y-37205D03*
X49917Y-37012D03*
X49748Y-36225D03*
X51717Y-37992D03*
X52535Y-41732D03*
X52118Y-42354D03*
G54D25*
X48169Y-42125D03*
G54D12*
X54984Y-43063D03*
X48173Y-40748D03*
X55453Y-43067D03*
X51752Y-40748D03*
G54D25*
X48188Y-41929D03*
G54D12*
X51917Y-42355D03*
X48197Y-41732D03*
X51398Y-42355D03*
X48075Y-41142D03*
X51638Y-42355D03*
X48201Y-40949D03*
X54721Y-43055D03*
X55225Y-43067D03*
X51091Y-40949D03*
G54D25*
X59065Y-40719D03*
G54D12*
X51669Y-35288D03*
G54D25*
X58435Y-41339D03*
G54D12*
X58538Y-41932D03*
X59281Y-42067D03*
X58744Y-41909D03*
X52465Y-41043D03*
X49535Y-42618D03*
X48154Y-42725D03*
X49925Y-34925D03*
G54D26*
X61771Y-43169D02*
X61685Y-43255D01*
X61771Y-43169D02*
X61685Y-43255D01*
X61821Y-42018D02*
X61821Y-42167D01*
X61821Y-42167D02*
X61834Y-42181D01*
G54D10*
G36*
X64769Y-49592D02*
X64274Y-49592D01*
X64274Y-47941D01*
X64274Y-47344D01*
X64259Y-47308D01*
X64231Y-47280D01*
X64196Y-47265D01*
X64157Y-47265D01*
X63560Y-47265D01*
X63524Y-47280D01*
X63496Y-47308D01*
X63482Y-47343D01*
X63482Y-47382D01*
X63482Y-47979D01*
X63496Y-48015D01*
X63524Y-48042D01*
X63560Y-48057D01*
X63598Y-48057D01*
X64195Y-48057D01*
X64231Y-48043D01*
X64259Y-48015D01*
X64274Y-47979D01*
X64274Y-47941D01*
X64274Y-49592D01*
X63984Y-49592D01*
X64090Y-49548D01*
X64201Y-49437D01*
X64261Y-49291D01*
X64262Y-49134D01*
X64201Y-48988D01*
X64090Y-48876D01*
X63945Y-48816D01*
X63787Y-48816D01*
X63641Y-48876D01*
X63530Y-48987D01*
X63470Y-49133D01*
X63469Y-49290D01*
X63530Y-49436D01*
X63641Y-49547D01*
X63747Y-49592D01*
X63274Y-49592D01*
X63274Y-47563D01*
X63213Y-47417D01*
X63102Y-47306D01*
X62957Y-47245D01*
X62799Y-47245D01*
X62654Y-47305D01*
X62542Y-47417D01*
X62482Y-47562D01*
X62482Y-47720D01*
X62542Y-47865D01*
X62653Y-47977D01*
X62798Y-48037D01*
X62956Y-48037D01*
X63102Y-47977D01*
X63213Y-47866D01*
X63274Y-47720D01*
X63274Y-47563D01*
X63274Y-49592D01*
X62984Y-49592D01*
X63090Y-49548D01*
X63201Y-49437D01*
X63261Y-49291D01*
X63262Y-49134D01*
X63201Y-48988D01*
X63090Y-48876D01*
X62945Y-48816D01*
X62787Y-48816D01*
X62641Y-48876D01*
X62530Y-48987D01*
X62470Y-49133D01*
X62469Y-49290D01*
X62530Y-49436D01*
X62641Y-49547D01*
X62747Y-49592D01*
X62234Y-49592D01*
X62234Y-39764D01*
X62204Y-39692D01*
X62161Y-39649D01*
X62201Y-39610D01*
X62230Y-39538D01*
X62231Y-39461D01*
X62201Y-39389D01*
X62146Y-39334D01*
X62074Y-39305D01*
X61997Y-39304D01*
X61925Y-39334D01*
X61870Y-39389D01*
X61841Y-39461D01*
X61840Y-39538D01*
X61870Y-39610D01*
X61913Y-39653D01*
X61873Y-39692D01*
X61844Y-39764D01*
X61843Y-39841D01*
X61873Y-39913D01*
X61928Y-39968D01*
X62000Y-39997D01*
X62077Y-39998D01*
X62149Y-39968D01*
X62204Y-39913D01*
X62233Y-39841D01*
X62234Y-39764D01*
X62234Y-49592D01*
X62016Y-49592D01*
X62016Y-41979D01*
X61986Y-41907D01*
X61931Y-41852D01*
X61923Y-41849D01*
X61923Y-40607D01*
X61893Y-40535D01*
X61838Y-40480D01*
X61789Y-40460D01*
X61789Y-38044D01*
X61759Y-37972D01*
X61704Y-37917D01*
X61632Y-37888D01*
X61555Y-37887D01*
X61483Y-37917D01*
X61428Y-37972D01*
X61399Y-38044D01*
X61398Y-38121D01*
X61428Y-38193D01*
X61483Y-38248D01*
X61555Y-38277D01*
X61632Y-38278D01*
X61704Y-38248D01*
X61759Y-38193D01*
X61788Y-38121D01*
X61789Y-38044D01*
X61789Y-40460D01*
X61766Y-40451D01*
X61689Y-40450D01*
X61617Y-40480D01*
X61562Y-40535D01*
X61533Y-40607D01*
X61532Y-40684D01*
X61562Y-40756D01*
X61617Y-40811D01*
X61689Y-40840D01*
X61766Y-40841D01*
X61838Y-40811D01*
X61893Y-40756D01*
X61922Y-40684D01*
X61923Y-40607D01*
X61923Y-41849D01*
X61859Y-41823D01*
X61782Y-41822D01*
X61710Y-41852D01*
X61655Y-41907D01*
X61626Y-41979D01*
X61625Y-42056D01*
X61655Y-42128D01*
X61662Y-42135D01*
X61662Y-42167D01*
X61674Y-42228D01*
X61708Y-42279D01*
X61722Y-42293D01*
X61773Y-42327D01*
X61834Y-42339D01*
X61895Y-42327D01*
X61946Y-42293D01*
X61981Y-42241D01*
X61993Y-42181D01*
X61983Y-42131D01*
X61986Y-42128D01*
X62015Y-42056D01*
X62016Y-41979D01*
X62016Y-49592D01*
X61930Y-49592D01*
X61930Y-43169D01*
X61918Y-43108D01*
X61883Y-43057D01*
X61832Y-43022D01*
X61771Y-43010D01*
X61710Y-43022D01*
X61659Y-43057D01*
X61572Y-43143D01*
X61538Y-43195D01*
X61526Y-43255D01*
X61538Y-43316D01*
X61572Y-43367D01*
X61624Y-43402D01*
X61685Y-43414D01*
X61745Y-43402D01*
X61797Y-43367D01*
X61883Y-43281D01*
X61918Y-43229D01*
X61930Y-43169D01*
X61930Y-49592D01*
X61274Y-49592D01*
X61274Y-47563D01*
X61213Y-47417D01*
X61102Y-47306D01*
X60957Y-47245D01*
X60840Y-47245D01*
X60840Y-40555D01*
X60820Y-40505D01*
X60781Y-40467D01*
X60731Y-40446D01*
X60677Y-40446D01*
X60627Y-40467D01*
X60589Y-40505D01*
X60568Y-40555D01*
X60568Y-40609D01*
X60589Y-40659D01*
X60627Y-40697D01*
X60677Y-40718D01*
X60731Y-40718D01*
X60781Y-40698D01*
X60819Y-40659D01*
X60840Y-40609D01*
X60840Y-40555D01*
X60840Y-47245D01*
X60833Y-47245D01*
X60833Y-44606D01*
X60821Y-44578D01*
X60821Y-42425D01*
X60794Y-42361D01*
X60745Y-42311D01*
X60680Y-42284D01*
X60610Y-42284D01*
X60546Y-42311D01*
X60515Y-42342D01*
X60515Y-39209D01*
X60488Y-39144D01*
X60442Y-39098D01*
X60442Y-35447D01*
X60415Y-35382D01*
X60365Y-35332D01*
X60353Y-35327D01*
X60353Y-35095D01*
X60326Y-35030D01*
X60276Y-34980D01*
X60212Y-34954D01*
X60142Y-34953D01*
X60077Y-34980D01*
X60027Y-35030D01*
X60001Y-35094D01*
X60000Y-35164D01*
X60027Y-35229D01*
X60077Y-35279D01*
X60141Y-35305D01*
X60211Y-35306D01*
X60276Y-35279D01*
X60326Y-35229D01*
X60352Y-35165D01*
X60353Y-35095D01*
X60353Y-35327D01*
X60301Y-35306D01*
X60231Y-35305D01*
X60166Y-35332D01*
X60116Y-35382D01*
X60090Y-35446D01*
X60089Y-35516D01*
X60116Y-35581D01*
X60125Y-35590D01*
X60096Y-35619D01*
X60070Y-35683D01*
X60069Y-35753D01*
X60096Y-35818D01*
X60146Y-35868D01*
X60210Y-35894D01*
X60280Y-35895D01*
X60345Y-35868D01*
X60395Y-35818D01*
X60421Y-35754D01*
X60422Y-35684D01*
X60395Y-35619D01*
X60386Y-35610D01*
X60415Y-35581D01*
X60441Y-35517D01*
X60442Y-35447D01*
X60442Y-39098D01*
X60438Y-39094D01*
X60374Y-39068D01*
X60304Y-39067D01*
X60239Y-39094D01*
X60189Y-39144D01*
X60163Y-39208D01*
X60162Y-39278D01*
X60189Y-39343D01*
X60239Y-39393D01*
X60303Y-39419D01*
X60373Y-39420D01*
X60438Y-39393D01*
X60488Y-39343D01*
X60514Y-39279D01*
X60515Y-39209D01*
X60515Y-42342D01*
X60496Y-42360D01*
X60495Y-42364D01*
X60495Y-39949D01*
X60468Y-39884D01*
X60418Y-39834D01*
X60354Y-39808D01*
X60284Y-39807D01*
X60219Y-39834D01*
X60169Y-39884D01*
X60143Y-39948D01*
X60142Y-40018D01*
X60169Y-40083D01*
X60219Y-40133D01*
X60283Y-40159D01*
X60353Y-40160D01*
X60418Y-40133D01*
X60468Y-40083D01*
X60494Y-40019D01*
X60495Y-39949D01*
X60495Y-42364D01*
X60469Y-42425D01*
X60469Y-42495D01*
X60496Y-42560D01*
X60545Y-42609D01*
X60610Y-42636D01*
X60680Y-42636D01*
X60745Y-42609D01*
X60794Y-42560D01*
X60821Y-42495D01*
X60821Y-42425D01*
X60821Y-44578D01*
X60806Y-44542D01*
X60757Y-44492D01*
X60692Y-44465D01*
X60622Y-44465D01*
X60557Y-44492D01*
X60508Y-44541D01*
X60481Y-44606D01*
X60481Y-44676D01*
X60508Y-44741D01*
X60557Y-44790D01*
X60600Y-44808D01*
X60546Y-44831D01*
X60496Y-44880D01*
X60469Y-44945D01*
X60469Y-45015D01*
X60496Y-45079D01*
X60545Y-45129D01*
X60610Y-45156D01*
X60680Y-45156D01*
X60745Y-45129D01*
X60794Y-45080D01*
X60821Y-45015D01*
X60821Y-44945D01*
X60794Y-44880D01*
X60745Y-44831D01*
X60702Y-44813D01*
X60757Y-44791D01*
X60806Y-44741D01*
X60833Y-44676D01*
X60833Y-44606D01*
X60833Y-47245D01*
X60799Y-47245D01*
X60654Y-47305D01*
X60542Y-47417D01*
X60482Y-47562D01*
X60482Y-47720D01*
X60542Y-47865D01*
X60653Y-47977D01*
X60798Y-48037D01*
X60956Y-48037D01*
X61102Y-47977D01*
X61213Y-47866D01*
X61274Y-47720D01*
X61274Y-47563D01*
X61274Y-49592D01*
X60984Y-49592D01*
X61090Y-49548D01*
X61201Y-49437D01*
X61261Y-49291D01*
X61262Y-49134D01*
X61201Y-48988D01*
X61090Y-48876D01*
X60945Y-48816D01*
X60787Y-48816D01*
X60641Y-48876D01*
X60530Y-48987D01*
X60470Y-49133D01*
X60469Y-49290D01*
X60530Y-49436D01*
X60641Y-49547D01*
X60747Y-49592D01*
X60274Y-49592D01*
X60274Y-47563D01*
X60215Y-47420D01*
X60215Y-41402D01*
X60188Y-41337D01*
X60170Y-41319D01*
X60179Y-41310D01*
X60205Y-41246D01*
X60206Y-41176D01*
X60179Y-41111D01*
X60129Y-41061D01*
X60065Y-41035D01*
X60027Y-41034D01*
X60050Y-41025D01*
X60100Y-40975D01*
X60126Y-40911D01*
X60127Y-40841D01*
X60105Y-40787D01*
X60105Y-37776D01*
X60075Y-37704D01*
X60020Y-37649D01*
X59948Y-37620D01*
X59871Y-37619D01*
X59799Y-37649D01*
X59744Y-37704D01*
X59715Y-37776D01*
X59714Y-37853D01*
X59744Y-37925D01*
X59799Y-37980D01*
X59871Y-38009D01*
X59948Y-38010D01*
X60020Y-37980D01*
X60075Y-37925D01*
X60104Y-37853D01*
X60105Y-37776D01*
X60105Y-40787D01*
X60100Y-40776D01*
X60050Y-40726D01*
X59986Y-40700D01*
X59963Y-40700D01*
X59963Y-39835D01*
X59936Y-39770D01*
X59924Y-39758D01*
X59924Y-38985D01*
X59897Y-38920D01*
X59847Y-38870D01*
X59783Y-38844D01*
X59713Y-38843D01*
X59648Y-38870D01*
X59598Y-38920D01*
X59572Y-38984D01*
X59571Y-39054D01*
X59598Y-39119D01*
X59648Y-39169D01*
X59712Y-39195D01*
X59782Y-39196D01*
X59847Y-39169D01*
X59897Y-39119D01*
X59923Y-39055D01*
X59924Y-38985D01*
X59924Y-39758D01*
X59886Y-39720D01*
X59822Y-39694D01*
X59752Y-39693D01*
X59687Y-39720D01*
X59637Y-39770D01*
X59611Y-39834D01*
X59610Y-39904D01*
X59637Y-39969D01*
X59687Y-40019D01*
X59751Y-40045D01*
X59821Y-40046D01*
X59886Y-40019D01*
X59936Y-39969D01*
X59962Y-39905D01*
X59963Y-39835D01*
X59963Y-40700D01*
X59916Y-40699D01*
X59914Y-40700D01*
X59889Y-40640D01*
X59839Y-40590D01*
X59777Y-40565D01*
X59818Y-40524D01*
X59844Y-40460D01*
X59845Y-40390D01*
X59818Y-40325D01*
X59801Y-40308D01*
X59821Y-40260D01*
X59822Y-40190D01*
X59795Y-40125D01*
X59745Y-40075D01*
X59681Y-40049D01*
X59611Y-40048D01*
X59546Y-40075D01*
X59496Y-40125D01*
X59470Y-40189D01*
X59469Y-40259D01*
X59496Y-40324D01*
X59513Y-40341D01*
X59493Y-40389D01*
X59492Y-40459D01*
X59519Y-40524D01*
X59569Y-40574D01*
X59631Y-40599D01*
X59590Y-40640D01*
X59564Y-40704D01*
X59563Y-40774D01*
X59590Y-40839D01*
X59640Y-40889D01*
X59704Y-40915D01*
X59774Y-40916D01*
X59776Y-40915D01*
X59801Y-40975D01*
X59851Y-41025D01*
X59915Y-41051D01*
X59953Y-41052D01*
X59930Y-41061D01*
X59880Y-41111D01*
X59854Y-41175D01*
X59853Y-41245D01*
X59880Y-41310D01*
X59898Y-41328D01*
X59889Y-41337D01*
X59863Y-41401D01*
X59862Y-41471D01*
X59889Y-41536D01*
X59939Y-41586D01*
X60003Y-41612D01*
X60073Y-41613D01*
X60138Y-41586D01*
X60188Y-41536D01*
X60214Y-41472D01*
X60215Y-41402D01*
X60215Y-47420D01*
X60213Y-47417D01*
X60140Y-47344D01*
X60140Y-42154D01*
X60113Y-42089D01*
X60064Y-42039D01*
X59999Y-42013D01*
X59929Y-42012D01*
X59865Y-42039D01*
X59815Y-42089D01*
X59788Y-42153D01*
X59788Y-42223D01*
X59815Y-42288D01*
X59864Y-42338D01*
X59929Y-42364D01*
X59999Y-42365D01*
X60064Y-42338D01*
X60113Y-42288D01*
X60140Y-42224D01*
X60140Y-42154D01*
X60140Y-47344D01*
X60102Y-47306D01*
X60026Y-47274D01*
X60026Y-43579D01*
X59999Y-43514D01*
X59950Y-43465D01*
X59885Y-43438D01*
X59815Y-43438D01*
X59750Y-43464D01*
X59701Y-43514D01*
X59674Y-43579D01*
X59674Y-43649D01*
X59701Y-43713D01*
X59750Y-43763D01*
X59815Y-43790D01*
X59885Y-43790D01*
X59949Y-43763D01*
X59999Y-43713D01*
X60026Y-43649D01*
X60026Y-43579D01*
X60026Y-47274D01*
X59957Y-47245D01*
X59799Y-47245D01*
X59654Y-47305D01*
X59542Y-47417D01*
X59482Y-47562D01*
X59482Y-47720D01*
X59542Y-47865D01*
X59653Y-47977D01*
X59798Y-48037D01*
X59956Y-48037D01*
X60102Y-47977D01*
X60213Y-47866D01*
X60274Y-47720D01*
X60274Y-47563D01*
X60274Y-49592D01*
X60262Y-49592D01*
X60262Y-49471D01*
X60262Y-48874D01*
X60247Y-48838D01*
X60219Y-48811D01*
X60183Y-48796D01*
X60145Y-48796D01*
X59548Y-48796D01*
X59512Y-48811D01*
X59484Y-48838D01*
X59470Y-48874D01*
X59469Y-48913D01*
X59469Y-49510D01*
X59484Y-49546D01*
X59512Y-49573D01*
X59548Y-49588D01*
X59586Y-49588D01*
X60183Y-49588D01*
X60219Y-49573D01*
X60247Y-49546D01*
X60261Y-49510D01*
X60262Y-49471D01*
X60262Y-49592D01*
X59457Y-49592D01*
X59457Y-42032D01*
X59430Y-41967D01*
X59395Y-41932D01*
X59421Y-41906D01*
X59447Y-41842D01*
X59448Y-41772D01*
X59421Y-41707D01*
X59371Y-41657D01*
X59326Y-41638D01*
X59326Y-37937D01*
X59299Y-37872D01*
X59249Y-37822D01*
X59185Y-37796D01*
X59115Y-37795D01*
X59050Y-37822D01*
X59000Y-37872D01*
X58974Y-37936D01*
X58973Y-38006D01*
X59000Y-38071D01*
X59050Y-38121D01*
X59114Y-38147D01*
X59184Y-38148D01*
X59249Y-38121D01*
X59299Y-38071D01*
X59325Y-38007D01*
X59326Y-37937D01*
X59326Y-41638D01*
X59307Y-41631D01*
X59241Y-41630D01*
X59241Y-41079D01*
X59216Y-41017D01*
X59206Y-41008D01*
X59231Y-40948D01*
X59231Y-40882D01*
X59206Y-40820D01*
X59202Y-40817D01*
X59206Y-40813D01*
X59231Y-40752D01*
X59231Y-40686D01*
X59206Y-40624D01*
X59201Y-40620D01*
X59206Y-40616D01*
X59231Y-40555D01*
X59231Y-40489D01*
X59206Y-40427D01*
X59201Y-40423D01*
X59206Y-40419D01*
X59231Y-40358D01*
X59231Y-40292D01*
X59206Y-40230D01*
X59196Y-40221D01*
X59221Y-40161D01*
X59221Y-40095D01*
X59196Y-40034D01*
X59206Y-40025D01*
X59231Y-39964D01*
X59231Y-39898D01*
X59206Y-39836D01*
X59201Y-39832D01*
X59206Y-39828D01*
X59231Y-39767D01*
X59231Y-39701D01*
X59231Y-39308D01*
X59206Y-39246D01*
X59201Y-39242D01*
X59206Y-39238D01*
X59231Y-39177D01*
X59231Y-39111D01*
X59206Y-39049D01*
X59201Y-39045D01*
X59206Y-39041D01*
X59231Y-38980D01*
X59231Y-38914D01*
X59206Y-38852D01*
X59201Y-38848D01*
X59206Y-38844D01*
X59231Y-38783D01*
X59231Y-38717D01*
X59206Y-38655D01*
X59159Y-38608D01*
X59098Y-38583D01*
X59032Y-38583D01*
X58970Y-38608D01*
X58923Y-38655D01*
X58898Y-38716D01*
X58898Y-38782D01*
X58923Y-38844D01*
X58928Y-38848D01*
X58923Y-38852D01*
X58898Y-38913D01*
X58898Y-38979D01*
X58923Y-39041D01*
X58928Y-39045D01*
X58923Y-39049D01*
X58898Y-39110D01*
X58898Y-39176D01*
X58923Y-39238D01*
X58928Y-39242D01*
X58923Y-39246D01*
X58898Y-39307D01*
X58898Y-39373D01*
X58923Y-39435D01*
X58970Y-39482D01*
X59031Y-39507D01*
X59097Y-39507D01*
X59159Y-39482D01*
X59206Y-39435D01*
X59231Y-39374D01*
X59231Y-39308D01*
X59231Y-39701D01*
X59206Y-39639D01*
X59159Y-39592D01*
X59098Y-39567D01*
X59032Y-39567D01*
X58970Y-39592D01*
X58923Y-39639D01*
X58898Y-39700D01*
X58898Y-39766D01*
X58923Y-39828D01*
X58928Y-39832D01*
X58923Y-39836D01*
X58898Y-39897D01*
X58898Y-39963D01*
X58923Y-40024D01*
X58913Y-40033D01*
X58888Y-40094D01*
X58888Y-40160D01*
X58913Y-40222D01*
X58923Y-40231D01*
X58898Y-40291D01*
X58898Y-40357D01*
X58923Y-40419D01*
X58928Y-40423D01*
X58923Y-40427D01*
X58898Y-40488D01*
X58898Y-40554D01*
X58923Y-40616D01*
X58928Y-40620D01*
X58923Y-40624D01*
X58898Y-40685D01*
X58898Y-40751D01*
X58923Y-40813D01*
X58927Y-40816D01*
X58923Y-40820D01*
X58898Y-40881D01*
X58898Y-40947D01*
X58923Y-41009D01*
X58933Y-41018D01*
X58908Y-41078D01*
X58908Y-41144D01*
X58933Y-41205D01*
X58923Y-41214D01*
X58898Y-41275D01*
X58898Y-41341D01*
X58923Y-41403D01*
X58970Y-41450D01*
X59031Y-41475D01*
X59097Y-41475D01*
X59159Y-41450D01*
X59206Y-41403D01*
X59231Y-41342D01*
X59231Y-41276D01*
X59206Y-41215D01*
X59216Y-41206D01*
X59241Y-41145D01*
X59241Y-41079D01*
X59241Y-41630D01*
X59237Y-41630D01*
X59172Y-41657D01*
X59122Y-41707D01*
X59096Y-41771D01*
X59095Y-41841D01*
X59122Y-41906D01*
X59157Y-41941D01*
X59131Y-41967D01*
X59105Y-42031D01*
X59104Y-42101D01*
X59131Y-42166D01*
X59181Y-42216D01*
X59245Y-42242D01*
X59315Y-42243D01*
X59380Y-42216D01*
X59430Y-42166D01*
X59456Y-42102D01*
X59457Y-42032D01*
X59457Y-49592D01*
X58920Y-49592D01*
X58920Y-41874D01*
X58893Y-41809D01*
X58843Y-41760D01*
X58779Y-41733D01*
X58709Y-41733D01*
X58644Y-41760D01*
X58626Y-41778D01*
X58601Y-41767D01*
X58601Y-41306D01*
X58576Y-41244D01*
X58529Y-41197D01*
X58468Y-41172D01*
X58402Y-41172D01*
X58340Y-41197D01*
X58336Y-41202D01*
X58332Y-41197D01*
X58271Y-41172D01*
X58205Y-41172D01*
X58143Y-41197D01*
X58096Y-41244D01*
X58071Y-41305D01*
X58071Y-41371D01*
X58096Y-41433D01*
X58143Y-41480D01*
X58204Y-41505D01*
X58270Y-41505D01*
X58332Y-41480D01*
X58336Y-41475D01*
X58340Y-41480D01*
X58401Y-41505D01*
X58467Y-41505D01*
X58529Y-41480D01*
X58576Y-41433D01*
X58601Y-41372D01*
X58601Y-41306D01*
X58601Y-41767D01*
X58573Y-41756D01*
X58503Y-41756D01*
X58438Y-41782D01*
X58389Y-41832D01*
X58362Y-41896D01*
X58362Y-41966D01*
X58389Y-42031D01*
X58438Y-42081D01*
X58503Y-42108D01*
X58573Y-42108D01*
X58637Y-42081D01*
X58655Y-42063D01*
X58708Y-42085D01*
X58778Y-42085D01*
X58843Y-42058D01*
X58893Y-42009D01*
X58920Y-41944D01*
X58920Y-41874D01*
X58920Y-49592D01*
X58435Y-49592D01*
X58435Y-42721D01*
X58411Y-42663D01*
X58368Y-42619D01*
X58310Y-42595D01*
X58248Y-42595D01*
X58191Y-42619D01*
X58147Y-42663D01*
X58123Y-42720D01*
X58123Y-42782D01*
X58147Y-42840D01*
X58191Y-42884D01*
X58248Y-42907D01*
X58310Y-42907D01*
X58367Y-42884D01*
X58411Y-42840D01*
X58435Y-42783D01*
X58435Y-42721D01*
X58435Y-49592D01*
X58020Y-49592D01*
X58020Y-38687D01*
X57995Y-38625D01*
X57948Y-38578D01*
X57887Y-38553D01*
X57821Y-38553D01*
X57759Y-38578D01*
X57712Y-38625D01*
X57687Y-38686D01*
X57687Y-38752D01*
X57712Y-38814D01*
X57759Y-38861D01*
X57820Y-38886D01*
X57886Y-38886D01*
X57948Y-38861D01*
X57995Y-38814D01*
X58020Y-38753D01*
X58020Y-38687D01*
X58020Y-49592D01*
X57938Y-49592D01*
X57881Y-49535D01*
X57780Y-49493D01*
X57671Y-49493D01*
X57641Y-49506D01*
X57641Y-41902D01*
X57614Y-41837D01*
X57564Y-41787D01*
X57500Y-41761D01*
X57430Y-41760D01*
X57420Y-41764D01*
X57420Y-41306D01*
X57395Y-41244D01*
X57348Y-41197D01*
X57287Y-41172D01*
X57221Y-41172D01*
X57159Y-41197D01*
X57155Y-41202D01*
X57151Y-41197D01*
X57090Y-41172D01*
X57024Y-41172D01*
X56962Y-41197D01*
X56958Y-41202D01*
X56954Y-41197D01*
X56893Y-41172D01*
X56827Y-41172D01*
X56765Y-41197D01*
X56761Y-41202D01*
X56757Y-41197D01*
X56696Y-41172D01*
X56630Y-41172D01*
X56584Y-41191D01*
X56603Y-41145D01*
X56603Y-41079D01*
X56578Y-41017D01*
X56573Y-41013D01*
X56578Y-41009D01*
X56603Y-40948D01*
X56603Y-40882D01*
X56578Y-40820D01*
X56574Y-40817D01*
X56578Y-40813D01*
X56603Y-40752D01*
X56603Y-40686D01*
X56578Y-40624D01*
X56573Y-40620D01*
X56578Y-40616D01*
X56603Y-40555D01*
X56603Y-40489D01*
X56578Y-40427D01*
X56573Y-40423D01*
X56578Y-40419D01*
X56603Y-40358D01*
X56603Y-40292D01*
X56578Y-40230D01*
X56573Y-40226D01*
X56578Y-40222D01*
X56603Y-40161D01*
X56603Y-40095D01*
X56578Y-40033D01*
X56573Y-40029D01*
X56578Y-40025D01*
X56603Y-39964D01*
X56603Y-39898D01*
X56578Y-39836D01*
X56573Y-39832D01*
X56578Y-39828D01*
X56603Y-39767D01*
X56603Y-39701D01*
X56578Y-39639D01*
X56573Y-39635D01*
X56578Y-39631D01*
X56603Y-39570D01*
X56603Y-39504D01*
X56578Y-39442D01*
X56574Y-39439D01*
X56578Y-39435D01*
X56603Y-39374D01*
X56603Y-39308D01*
X56578Y-39246D01*
X56573Y-39242D01*
X56578Y-39238D01*
X56603Y-39177D01*
X56603Y-39111D01*
X56578Y-39049D01*
X56573Y-39045D01*
X56578Y-39041D01*
X56603Y-38980D01*
X56603Y-38914D01*
X56578Y-38852D01*
X56573Y-38848D01*
X56574Y-38848D01*
X56578Y-38852D01*
X56639Y-38877D01*
X56705Y-38877D01*
X56766Y-38852D01*
X56775Y-38861D01*
X56836Y-38886D01*
X56902Y-38886D01*
X56964Y-38861D01*
X56968Y-38856D01*
X56972Y-38861D01*
X57033Y-38886D01*
X57099Y-38886D01*
X57161Y-38861D01*
X57208Y-38814D01*
X57233Y-38753D01*
X57233Y-38687D01*
X57208Y-38625D01*
X57161Y-38578D01*
X57100Y-38553D01*
X57034Y-38553D01*
X56972Y-38578D01*
X56968Y-38583D01*
X56964Y-38578D01*
X56903Y-38553D01*
X56837Y-38553D01*
X56776Y-38578D01*
X56767Y-38569D01*
X56751Y-38563D01*
X56751Y-38095D01*
X56724Y-38030D01*
X56674Y-37980D01*
X56610Y-37954D01*
X56540Y-37953D01*
X56475Y-37980D01*
X56450Y-38005D01*
X56418Y-37972D01*
X56354Y-37946D01*
X56284Y-37945D01*
X56219Y-37972D01*
X56169Y-38022D01*
X56159Y-38046D01*
X56160Y-37981D01*
X56157Y-37973D01*
X56157Y-37351D01*
X56130Y-37286D01*
X56080Y-37236D01*
X56016Y-37210D01*
X55946Y-37209D01*
X55881Y-37236D01*
X55831Y-37286D01*
X55814Y-37329D01*
X55814Y-36721D01*
X55787Y-36656D01*
X55737Y-36606D01*
X55673Y-36580D01*
X55603Y-36579D01*
X55538Y-36606D01*
X55488Y-36656D01*
X55462Y-36720D01*
X55461Y-36790D01*
X55488Y-36855D01*
X55538Y-36905D01*
X55602Y-36931D01*
X55672Y-36932D01*
X55737Y-36905D01*
X55787Y-36855D01*
X55813Y-36791D01*
X55814Y-36721D01*
X55814Y-37329D01*
X55805Y-37350D01*
X55804Y-37420D01*
X55831Y-37485D01*
X55881Y-37535D01*
X55945Y-37561D01*
X56015Y-37562D01*
X56080Y-37535D01*
X56130Y-37485D01*
X56156Y-37421D01*
X56157Y-37351D01*
X56157Y-37973D01*
X56133Y-37916D01*
X56083Y-37866D01*
X56019Y-37840D01*
X55949Y-37839D01*
X55884Y-37866D01*
X55834Y-37916D01*
X55808Y-37980D01*
X55807Y-38050D01*
X55834Y-38115D01*
X55884Y-38165D01*
X55948Y-38191D01*
X56018Y-38192D01*
X56083Y-38165D01*
X56133Y-38115D01*
X56143Y-38091D01*
X56142Y-38156D01*
X56169Y-38221D01*
X56219Y-38271D01*
X56283Y-38297D01*
X56353Y-38298D01*
X56418Y-38271D01*
X56443Y-38246D01*
X56475Y-38279D01*
X56539Y-38305D01*
X56609Y-38306D01*
X56674Y-38279D01*
X56724Y-38229D01*
X56750Y-38165D01*
X56751Y-38095D01*
X56751Y-38563D01*
X56706Y-38544D01*
X56640Y-38544D01*
X56578Y-38569D01*
X56535Y-38612D01*
X56531Y-38608D01*
X56470Y-38583D01*
X56404Y-38583D01*
X56342Y-38608D01*
X56295Y-38655D01*
X56270Y-38716D01*
X56270Y-38782D01*
X56295Y-38844D01*
X56300Y-38848D01*
X56295Y-38852D01*
X56270Y-38913D01*
X56270Y-38979D01*
X56295Y-39041D01*
X56300Y-39045D01*
X56295Y-39049D01*
X56270Y-39110D01*
X56270Y-39176D01*
X56295Y-39238D01*
X56300Y-39242D01*
X56295Y-39246D01*
X56270Y-39307D01*
X56270Y-39373D01*
X56295Y-39435D01*
X56299Y-39438D01*
X56295Y-39442D01*
X56270Y-39503D01*
X56270Y-39569D01*
X56295Y-39631D01*
X56300Y-39635D01*
X56295Y-39639D01*
X56270Y-39700D01*
X56270Y-39766D01*
X56295Y-39828D01*
X56300Y-39832D01*
X56295Y-39836D01*
X56270Y-39897D01*
X56270Y-39963D01*
X56295Y-40025D01*
X56300Y-40029D01*
X56295Y-40033D01*
X56270Y-40094D01*
X56270Y-40160D01*
X56295Y-40222D01*
X56300Y-40226D01*
X56295Y-40230D01*
X56270Y-40291D01*
X56270Y-40357D01*
X56295Y-40419D01*
X56300Y-40423D01*
X56295Y-40427D01*
X56270Y-40488D01*
X56270Y-40554D01*
X56295Y-40616D01*
X56300Y-40620D01*
X56295Y-40624D01*
X56270Y-40685D01*
X56270Y-40751D01*
X56295Y-40813D01*
X56299Y-40816D01*
X56295Y-40820D01*
X56270Y-40881D01*
X56270Y-40947D01*
X56295Y-41009D01*
X56300Y-41013D01*
X56295Y-41017D01*
X56270Y-41078D01*
X56270Y-41144D01*
X56295Y-41206D01*
X56305Y-41215D01*
X56280Y-41275D01*
X56280Y-41341D01*
X56305Y-41403D01*
X56352Y-41450D01*
X56413Y-41475D01*
X56479Y-41475D01*
X56539Y-41450D01*
X56568Y-41480D01*
X56629Y-41505D01*
X56695Y-41505D01*
X56757Y-41480D01*
X56761Y-41475D01*
X56765Y-41480D01*
X56826Y-41505D01*
X56892Y-41505D01*
X56954Y-41480D01*
X56958Y-41475D01*
X56962Y-41480D01*
X57023Y-41505D01*
X57089Y-41505D01*
X57151Y-41480D01*
X57155Y-41475D01*
X57159Y-41480D01*
X57220Y-41505D01*
X57286Y-41505D01*
X57348Y-41480D01*
X57395Y-41433D01*
X57420Y-41372D01*
X57420Y-41306D01*
X57420Y-41764D01*
X57365Y-41787D01*
X57315Y-41837D01*
X57289Y-41901D01*
X57289Y-41915D01*
X57240Y-41895D01*
X57170Y-41894D01*
X57105Y-41921D01*
X57087Y-41940D01*
X57056Y-41909D01*
X56992Y-41883D01*
X56922Y-41882D01*
X56857Y-41909D01*
X56807Y-41959D01*
X56781Y-42023D01*
X56780Y-42093D01*
X56807Y-42158D01*
X56857Y-42208D01*
X56921Y-42234D01*
X56991Y-42235D01*
X57056Y-42208D01*
X57074Y-42189D01*
X57105Y-42220D01*
X57151Y-42239D01*
X57151Y-42259D01*
X57174Y-42316D01*
X57218Y-42360D01*
X57275Y-42384D01*
X57337Y-42384D01*
X57395Y-42360D01*
X57439Y-42316D01*
X57463Y-42259D01*
X57463Y-42197D01*
X57439Y-42140D01*
X57399Y-42100D01*
X57429Y-42112D01*
X57499Y-42113D01*
X57564Y-42086D01*
X57614Y-42036D01*
X57640Y-41972D01*
X57641Y-41902D01*
X57641Y-49506D01*
X57570Y-49535D01*
X57508Y-49596D01*
X57447Y-49535D01*
X57346Y-49493D01*
X57237Y-49493D01*
X57136Y-49535D01*
X57075Y-49596D01*
X57014Y-49535D01*
X56978Y-49520D01*
X56978Y-43134D01*
X56948Y-43062D01*
X56893Y-43007D01*
X56821Y-42978D01*
X56744Y-42977D01*
X56672Y-43007D01*
X56617Y-43062D01*
X56588Y-43134D01*
X56587Y-43211D01*
X56617Y-43283D01*
X56672Y-43338D01*
X56744Y-43367D01*
X56821Y-43368D01*
X56893Y-43338D01*
X56948Y-43283D01*
X56977Y-43211D01*
X56978Y-43134D01*
X56978Y-49520D01*
X56913Y-49493D01*
X56804Y-49493D01*
X56703Y-49535D01*
X56642Y-49596D01*
X56581Y-49535D01*
X56573Y-49531D01*
X56573Y-43936D01*
X56543Y-43864D01*
X56488Y-43809D01*
X56479Y-43805D01*
X56479Y-41902D01*
X56452Y-41837D01*
X56402Y-41787D01*
X56338Y-41761D01*
X56268Y-41760D01*
X56203Y-41787D01*
X56153Y-41837D01*
X56127Y-41901D01*
X56126Y-41971D01*
X56153Y-42036D01*
X56203Y-42086D01*
X56267Y-42112D01*
X56337Y-42113D01*
X56402Y-42086D01*
X56452Y-42036D01*
X56478Y-41972D01*
X56479Y-41902D01*
X56479Y-43805D01*
X56436Y-43787D01*
X56436Y-42918D01*
X56409Y-42853D01*
X56359Y-42803D01*
X56295Y-42777D01*
X56225Y-42776D01*
X56160Y-42803D01*
X56110Y-42853D01*
X56109Y-42857D01*
X56109Y-38493D01*
X56082Y-38428D01*
X56032Y-38378D01*
X55968Y-38352D01*
X55898Y-38351D01*
X55833Y-38378D01*
X55783Y-38428D01*
X55757Y-38492D01*
X55756Y-38562D01*
X55783Y-38627D01*
X55833Y-38677D01*
X55897Y-38703D01*
X55967Y-38704D01*
X56032Y-38677D01*
X56082Y-38627D01*
X56108Y-38563D01*
X56109Y-38493D01*
X56109Y-42857D01*
X56084Y-42917D01*
X56083Y-42987D01*
X56110Y-43052D01*
X56160Y-43102D01*
X56224Y-43128D01*
X56294Y-43129D01*
X56359Y-43102D01*
X56409Y-43052D01*
X56435Y-42988D01*
X56436Y-42918D01*
X56436Y-43787D01*
X56416Y-43780D01*
X56339Y-43779D01*
X56267Y-43809D01*
X56239Y-43837D01*
X56212Y-43809D01*
X56140Y-43780D01*
X56066Y-43779D01*
X56066Y-40981D01*
X56039Y-40916D01*
X56007Y-40884D01*
X56007Y-39012D01*
X55980Y-38947D01*
X55930Y-38897D01*
X55866Y-38871D01*
X55796Y-38870D01*
X55731Y-38897D01*
X55702Y-38926D01*
X55654Y-38878D01*
X55590Y-38852D01*
X55520Y-38851D01*
X55475Y-38870D01*
X55475Y-38193D01*
X55448Y-38128D01*
X55398Y-38078D01*
X55334Y-38052D01*
X55264Y-38051D01*
X55199Y-38078D01*
X55149Y-38128D01*
X55144Y-38142D01*
X55144Y-37304D01*
X55114Y-37232D01*
X55059Y-37177D01*
X54987Y-37148D01*
X54912Y-37147D01*
X54912Y-36296D01*
X54885Y-36231D01*
X54849Y-36195D01*
X54870Y-36174D01*
X54896Y-36110D01*
X54897Y-36040D01*
X54870Y-35975D01*
X54820Y-35925D01*
X54756Y-35899D01*
X54686Y-35898D01*
X54621Y-35925D01*
X54571Y-35975D01*
X54545Y-36039D01*
X54544Y-36109D01*
X54571Y-36174D01*
X54607Y-36210D01*
X54586Y-36231D01*
X54560Y-36295D01*
X54559Y-36365D01*
X54586Y-36430D01*
X54636Y-36480D01*
X54700Y-36506D01*
X54770Y-36507D01*
X54835Y-36480D01*
X54885Y-36430D01*
X54911Y-36366D01*
X54912Y-36296D01*
X54912Y-37147D01*
X54910Y-37147D01*
X54838Y-37177D01*
X54783Y-37232D01*
X54754Y-37304D01*
X54753Y-37381D01*
X54783Y-37453D01*
X54838Y-37508D01*
X54910Y-37537D01*
X54987Y-37538D01*
X55059Y-37508D01*
X55114Y-37453D01*
X55143Y-37381D01*
X55144Y-37304D01*
X55144Y-38142D01*
X55123Y-38192D01*
X55122Y-38262D01*
X55149Y-38327D01*
X55199Y-38377D01*
X55263Y-38403D01*
X55333Y-38404D01*
X55398Y-38377D01*
X55448Y-38327D01*
X55474Y-38263D01*
X55475Y-38193D01*
X55475Y-38870D01*
X55455Y-38878D01*
X55405Y-38928D01*
X55379Y-38992D01*
X55378Y-39062D01*
X55405Y-39127D01*
X55455Y-39177D01*
X55519Y-39203D01*
X55589Y-39204D01*
X55654Y-39177D01*
X55683Y-39148D01*
X55731Y-39196D01*
X55795Y-39222D01*
X55865Y-39223D01*
X55930Y-39196D01*
X55980Y-39146D01*
X56006Y-39082D01*
X56007Y-39012D01*
X56007Y-40884D01*
X55989Y-40866D01*
X55948Y-40849D01*
X55948Y-40197D01*
X55921Y-40132D01*
X55912Y-40123D01*
X55912Y-39796D01*
X55885Y-39731D01*
X55885Y-39731D01*
X55885Y-39410D01*
X55858Y-39345D01*
X55808Y-39295D01*
X55744Y-39269D01*
X55674Y-39268D01*
X55609Y-39295D01*
X55559Y-39345D01*
X55533Y-39409D01*
X55532Y-39479D01*
X55559Y-39544D01*
X55609Y-39594D01*
X55673Y-39620D01*
X55743Y-39621D01*
X55808Y-39594D01*
X55858Y-39544D01*
X55884Y-39480D01*
X55885Y-39410D01*
X55885Y-39731D01*
X55835Y-39681D01*
X55771Y-39655D01*
X55701Y-39654D01*
X55636Y-39681D01*
X55586Y-39731D01*
X55570Y-39771D01*
X55570Y-39603D01*
X55543Y-39538D01*
X55493Y-39488D01*
X55429Y-39462D01*
X55359Y-39461D01*
X55294Y-39488D01*
X55244Y-39538D01*
X55218Y-39602D01*
X55217Y-39672D01*
X55244Y-39737D01*
X55294Y-39787D01*
X55358Y-39813D01*
X55428Y-39814D01*
X55493Y-39787D01*
X55543Y-39737D01*
X55569Y-39673D01*
X55570Y-39603D01*
X55570Y-39771D01*
X55560Y-39795D01*
X55559Y-39865D01*
X55586Y-39930D01*
X55636Y-39980D01*
X55700Y-40006D01*
X55770Y-40007D01*
X55835Y-39980D01*
X55885Y-39930D01*
X55911Y-39866D01*
X55912Y-39796D01*
X55912Y-40123D01*
X55871Y-40082D01*
X55807Y-40056D01*
X55737Y-40055D01*
X55672Y-40082D01*
X55622Y-40132D01*
X55596Y-40196D01*
X55595Y-40266D01*
X55622Y-40331D01*
X55672Y-40381D01*
X55736Y-40407D01*
X55806Y-40408D01*
X55871Y-40381D01*
X55921Y-40331D01*
X55947Y-40267D01*
X55948Y-40197D01*
X55948Y-40849D01*
X55925Y-40840D01*
X55877Y-40839D01*
X55877Y-40583D01*
X55850Y-40518D01*
X55800Y-40468D01*
X55736Y-40442D01*
X55666Y-40441D01*
X55601Y-40468D01*
X55551Y-40518D01*
X55525Y-40582D01*
X55524Y-40652D01*
X55551Y-40717D01*
X55601Y-40767D01*
X55665Y-40793D01*
X55735Y-40794D01*
X55800Y-40767D01*
X55850Y-40717D01*
X55876Y-40653D01*
X55877Y-40583D01*
X55877Y-40839D01*
X55855Y-40839D01*
X55790Y-40866D01*
X55740Y-40916D01*
X55714Y-40980D01*
X55713Y-41050D01*
X55740Y-41115D01*
X55790Y-41165D01*
X55854Y-41191D01*
X55924Y-41192D01*
X55989Y-41165D01*
X56039Y-41115D01*
X56065Y-41051D01*
X56066Y-40981D01*
X56066Y-43779D01*
X56063Y-43779D01*
X55991Y-43809D01*
X55991Y-43810D01*
X55991Y-41371D01*
X55964Y-41306D01*
X55914Y-41256D01*
X55850Y-41230D01*
X55780Y-41229D01*
X55715Y-41256D01*
X55665Y-41306D01*
X55639Y-41370D01*
X55638Y-41440D01*
X55665Y-41505D01*
X55715Y-41555D01*
X55779Y-41581D01*
X55849Y-41582D01*
X55914Y-41555D01*
X55964Y-41505D01*
X55990Y-41441D01*
X55991Y-41371D01*
X55991Y-43810D01*
X55943Y-43858D01*
X55943Y-43473D01*
X55913Y-43401D01*
X55881Y-43369D01*
X55881Y-41804D01*
X55854Y-41739D01*
X55804Y-41689D01*
X55740Y-41663D01*
X55670Y-41662D01*
X55605Y-41689D01*
X55571Y-41723D01*
X55544Y-41696D01*
X55542Y-41695D01*
X55542Y-40784D01*
X55515Y-40719D01*
X55479Y-40683D01*
X55479Y-39997D01*
X55452Y-39932D01*
X55402Y-39882D01*
X55338Y-39856D01*
X55268Y-39855D01*
X55203Y-39882D01*
X55153Y-39932D01*
X55127Y-39996D01*
X55126Y-40066D01*
X55153Y-40131D01*
X55203Y-40181D01*
X55267Y-40207D01*
X55337Y-40208D01*
X55402Y-40181D01*
X55452Y-40131D01*
X55478Y-40067D01*
X55479Y-39997D01*
X55479Y-40683D01*
X55465Y-40669D01*
X55464Y-40669D01*
X55464Y-40386D01*
X55437Y-40321D01*
X55387Y-40271D01*
X55323Y-40245D01*
X55253Y-40244D01*
X55188Y-40271D01*
X55138Y-40321D01*
X55112Y-40385D01*
X55111Y-40455D01*
X55138Y-40520D01*
X55188Y-40570D01*
X55252Y-40596D01*
X55322Y-40597D01*
X55387Y-40570D01*
X55437Y-40520D01*
X55463Y-40456D01*
X55464Y-40386D01*
X55464Y-40669D01*
X55401Y-40643D01*
X55331Y-40642D01*
X55266Y-40669D01*
X55216Y-40719D01*
X55190Y-40783D01*
X55189Y-40853D01*
X55216Y-40918D01*
X55266Y-40968D01*
X55330Y-40994D01*
X55400Y-40995D01*
X55465Y-40968D01*
X55515Y-40918D01*
X55541Y-40854D01*
X55542Y-40784D01*
X55542Y-41695D01*
X55480Y-41670D01*
X55436Y-41669D01*
X55436Y-41174D01*
X55409Y-41109D01*
X55359Y-41059D01*
X55295Y-41033D01*
X55225Y-41032D01*
X55160Y-41059D01*
X55110Y-41109D01*
X55084Y-41173D01*
X55083Y-41243D01*
X55110Y-41308D01*
X55160Y-41358D01*
X55224Y-41384D01*
X55294Y-41385D01*
X55359Y-41358D01*
X55409Y-41308D01*
X55435Y-41244D01*
X55436Y-41174D01*
X55436Y-41669D01*
X55410Y-41669D01*
X55345Y-41696D01*
X55295Y-41746D01*
X55269Y-41810D01*
X55268Y-41880D01*
X55295Y-41945D01*
X55345Y-41995D01*
X55409Y-42021D01*
X55479Y-42022D01*
X55544Y-41995D01*
X55578Y-41961D01*
X55605Y-41988D01*
X55669Y-42014D01*
X55739Y-42015D01*
X55804Y-41988D01*
X55854Y-41938D01*
X55880Y-41874D01*
X55881Y-41804D01*
X55881Y-43369D01*
X55858Y-43346D01*
X55786Y-43317D01*
X55709Y-43316D01*
X55637Y-43346D01*
X55629Y-43355D01*
X55629Y-43032D01*
X55602Y-42967D01*
X55552Y-42917D01*
X55488Y-42891D01*
X55418Y-42890D01*
X55353Y-42917D01*
X55339Y-42932D01*
X55324Y-42917D01*
X55260Y-42891D01*
X55190Y-42890D01*
X55125Y-42917D01*
X55106Y-42936D01*
X55083Y-42913D01*
X55019Y-42887D01*
X54949Y-42886D01*
X54884Y-42913D01*
X54856Y-42941D01*
X54820Y-42905D01*
X54756Y-42879D01*
X54686Y-42878D01*
X54629Y-42902D01*
X54629Y-37284D01*
X54602Y-37219D01*
X54552Y-37169D01*
X54488Y-37143D01*
X54418Y-37142D01*
X54416Y-37143D01*
X54416Y-34402D01*
X54386Y-34330D01*
X54331Y-34275D01*
X54259Y-34246D01*
X54182Y-34245D01*
X54110Y-34275D01*
X54055Y-34330D01*
X54026Y-34402D01*
X54025Y-34479D01*
X54055Y-34551D01*
X54110Y-34606D01*
X54182Y-34635D01*
X54259Y-34636D01*
X54331Y-34606D01*
X54386Y-34551D01*
X54415Y-34479D01*
X54416Y-34402D01*
X54416Y-37143D01*
X54353Y-37169D01*
X54303Y-37219D01*
X54277Y-37283D01*
X54276Y-37353D01*
X54303Y-37418D01*
X54353Y-37468D01*
X54417Y-37494D01*
X54487Y-37495D01*
X54552Y-37468D01*
X54602Y-37418D01*
X54628Y-37354D01*
X54629Y-37284D01*
X54629Y-42902D01*
X54621Y-42905D01*
X54571Y-42955D01*
X54545Y-43019D01*
X54544Y-43089D01*
X54571Y-43154D01*
X54621Y-43204D01*
X54685Y-43230D01*
X54755Y-43231D01*
X54820Y-43204D01*
X54848Y-43176D01*
X54884Y-43212D01*
X54948Y-43238D01*
X55018Y-43239D01*
X55083Y-43212D01*
X55102Y-43193D01*
X55125Y-43216D01*
X55189Y-43242D01*
X55259Y-43243D01*
X55324Y-43216D01*
X55338Y-43201D01*
X55353Y-43216D01*
X55417Y-43242D01*
X55487Y-43243D01*
X55552Y-43216D01*
X55602Y-43166D01*
X55628Y-43102D01*
X55629Y-43032D01*
X55629Y-43355D01*
X55582Y-43401D01*
X55553Y-43473D01*
X55552Y-43550D01*
X55582Y-43622D01*
X55637Y-43677D01*
X55709Y-43706D01*
X55786Y-43707D01*
X55858Y-43677D01*
X55913Y-43622D01*
X55942Y-43550D01*
X55943Y-43473D01*
X55943Y-43858D01*
X55936Y-43864D01*
X55907Y-43936D01*
X55906Y-44013D01*
X55936Y-44085D01*
X55991Y-44140D01*
X56063Y-44169D01*
X56140Y-44170D01*
X56212Y-44140D01*
X56240Y-44112D01*
X56267Y-44140D01*
X56339Y-44169D01*
X56416Y-44170D01*
X56488Y-44140D01*
X56543Y-44085D01*
X56572Y-44013D01*
X56573Y-43936D01*
X56573Y-49531D01*
X56480Y-49493D01*
X56415Y-49493D01*
X56415Y-47637D01*
X56415Y-47204D01*
X56385Y-47132D01*
X56331Y-47077D01*
X56259Y-47048D01*
X56181Y-47048D01*
X56110Y-47077D01*
X56055Y-47132D01*
X56025Y-47204D01*
X56025Y-47281D01*
X56055Y-47353D01*
X56109Y-47408D01*
X56181Y-47438D01*
X56259Y-47438D01*
X56330Y-47408D01*
X56385Y-47353D01*
X56415Y-47282D01*
X56415Y-47204D01*
X56415Y-47637D01*
X56385Y-47565D01*
X56331Y-47510D01*
X56259Y-47481D01*
X56181Y-47481D01*
X56110Y-47510D01*
X56055Y-47565D01*
X56025Y-47637D01*
X56025Y-47714D01*
X56055Y-47786D01*
X56109Y-47841D01*
X56181Y-47871D01*
X56259Y-47871D01*
X56330Y-47841D01*
X56385Y-47786D01*
X56415Y-47715D01*
X56415Y-47637D01*
X56415Y-49493D01*
X56371Y-49493D01*
X56270Y-49535D01*
X56213Y-49592D01*
X55982Y-49592D01*
X55982Y-48070D01*
X55982Y-47637D01*
X55982Y-47203D01*
X55952Y-47131D01*
X55898Y-47076D01*
X55826Y-47047D01*
X55748Y-47047D01*
X55677Y-47076D01*
X55622Y-47131D01*
X55592Y-47203D01*
X55592Y-47280D01*
X55621Y-47352D01*
X55676Y-47407D01*
X55748Y-47437D01*
X55826Y-47437D01*
X55897Y-47407D01*
X55952Y-47352D01*
X55982Y-47281D01*
X55982Y-47203D01*
X55982Y-47637D01*
X55952Y-47565D01*
X55898Y-47510D01*
X55826Y-47481D01*
X55748Y-47481D01*
X55677Y-47510D01*
X55622Y-47565D01*
X55592Y-47637D01*
X55592Y-47714D01*
X55621Y-47786D01*
X55676Y-47841D01*
X55748Y-47871D01*
X55826Y-47871D01*
X55897Y-47841D01*
X55952Y-47786D01*
X55982Y-47715D01*
X55982Y-47637D01*
X55982Y-48070D01*
X55952Y-47998D01*
X55898Y-47944D01*
X55826Y-47914D01*
X55748Y-47914D01*
X55677Y-47943D01*
X55622Y-47998D01*
X55592Y-48070D01*
X55592Y-48147D01*
X55621Y-48219D01*
X55676Y-48274D01*
X55748Y-48304D01*
X55826Y-48304D01*
X55897Y-48274D01*
X55952Y-48219D01*
X55982Y-48148D01*
X55982Y-48070D01*
X55982Y-49592D01*
X55227Y-49592D01*
X55227Y-45237D01*
X55197Y-45165D01*
X55142Y-45110D01*
X55070Y-45081D01*
X54993Y-45080D01*
X54921Y-45110D01*
X54866Y-45165D01*
X54837Y-45237D01*
X54836Y-45314D01*
X54866Y-45386D01*
X54921Y-45441D01*
X54993Y-45470D01*
X55070Y-45471D01*
X55142Y-45441D01*
X55197Y-45386D01*
X55226Y-45314D01*
X55227Y-45237D01*
X55227Y-49592D01*
X54428Y-49592D01*
X54428Y-49586D01*
X54428Y-46830D01*
X54082Y-46830D01*
X54082Y-34808D01*
X54055Y-34743D01*
X54005Y-34693D01*
X53941Y-34667D01*
X53871Y-34666D01*
X53806Y-34693D01*
X53756Y-34743D01*
X53730Y-34807D01*
X53729Y-34877D01*
X53756Y-34942D01*
X53806Y-34992D01*
X53870Y-35018D01*
X53940Y-35019D01*
X54005Y-34992D01*
X54055Y-34942D01*
X54081Y-34878D01*
X54082Y-34808D01*
X54082Y-46830D01*
X53838Y-46830D01*
X53838Y-38520D01*
X53811Y-38455D01*
X53810Y-38455D01*
X53811Y-38454D01*
X53837Y-38390D01*
X53838Y-38320D01*
X53811Y-38255D01*
X53761Y-38205D01*
X53697Y-38179D01*
X53627Y-38178D01*
X53562Y-38205D01*
X53512Y-38255D01*
X53499Y-38288D01*
X53499Y-36418D01*
X53472Y-36353D01*
X53422Y-36303D01*
X53358Y-36277D01*
X53288Y-36276D01*
X53247Y-36293D01*
X53247Y-34827D01*
X53220Y-34762D01*
X53170Y-34712D01*
X53106Y-34686D01*
X53036Y-34685D01*
X52971Y-34712D01*
X52921Y-34762D01*
X52895Y-34826D01*
X52894Y-34896D01*
X52904Y-34918D01*
X52871Y-34918D01*
X52806Y-34945D01*
X52756Y-34995D01*
X52730Y-35059D01*
X52729Y-35129D01*
X52756Y-35194D01*
X52806Y-35244D01*
X52870Y-35270D01*
X52940Y-35271D01*
X53005Y-35244D01*
X53055Y-35194D01*
X53081Y-35130D01*
X53082Y-35060D01*
X53072Y-35038D01*
X53105Y-35038D01*
X53170Y-35011D01*
X53220Y-34961D01*
X53246Y-34897D01*
X53247Y-34827D01*
X53247Y-36293D01*
X53223Y-36303D01*
X53173Y-36353D01*
X53147Y-36417D01*
X53146Y-36487D01*
X53173Y-36552D01*
X53223Y-36602D01*
X53287Y-36628D01*
X53357Y-36629D01*
X53422Y-36602D01*
X53472Y-36552D01*
X53498Y-36488D01*
X53499Y-36418D01*
X53499Y-38288D01*
X53486Y-38319D01*
X53485Y-38389D01*
X53512Y-38454D01*
X53513Y-38454D01*
X53512Y-38455D01*
X53486Y-38519D01*
X53485Y-38589D01*
X53512Y-38654D01*
X53562Y-38704D01*
X53626Y-38730D01*
X53696Y-38731D01*
X53761Y-38704D01*
X53811Y-38654D01*
X53837Y-38590D01*
X53838Y-38520D01*
X53838Y-46830D01*
X53826Y-46830D01*
X53826Y-41501D01*
X53826Y-38946D01*
X53799Y-38881D01*
X53749Y-38831D01*
X53685Y-38805D01*
X53615Y-38804D01*
X53550Y-38831D01*
X53500Y-38881D01*
X53474Y-38945D01*
X53473Y-39015D01*
X53500Y-39080D01*
X53550Y-39130D01*
X53614Y-39156D01*
X53684Y-39157D01*
X53749Y-39130D01*
X53799Y-39080D01*
X53825Y-39016D01*
X53826Y-38946D01*
X53826Y-41501D01*
X53802Y-41443D01*
X53802Y-39335D01*
X53775Y-39270D01*
X53725Y-39220D01*
X53661Y-39194D01*
X53591Y-39193D01*
X53526Y-39220D01*
X53476Y-39270D01*
X53450Y-39334D01*
X53449Y-39404D01*
X53472Y-39459D01*
X53460Y-39471D01*
X53434Y-39535D01*
X53433Y-39605D01*
X53460Y-39670D01*
X53510Y-39720D01*
X53574Y-39746D01*
X53644Y-39747D01*
X53709Y-39720D01*
X53759Y-39670D01*
X53785Y-39606D01*
X53786Y-39536D01*
X53763Y-39481D01*
X53775Y-39469D01*
X53801Y-39405D01*
X53802Y-39335D01*
X53802Y-41443D01*
X53799Y-41436D01*
X53778Y-41415D01*
X53778Y-40524D01*
X53759Y-40478D01*
X53759Y-40166D01*
X53732Y-40101D01*
X53682Y-40051D01*
X53618Y-40025D01*
X53548Y-40024D01*
X53483Y-40051D01*
X53433Y-40101D01*
X53407Y-40165D01*
X53406Y-40235D01*
X53433Y-40300D01*
X53483Y-40350D01*
X53547Y-40376D01*
X53617Y-40377D01*
X53682Y-40350D01*
X53732Y-40300D01*
X53758Y-40236D01*
X53759Y-40166D01*
X53759Y-40478D01*
X53751Y-40459D01*
X53701Y-40409D01*
X53637Y-40383D01*
X53567Y-40382D01*
X53502Y-40409D01*
X53452Y-40459D01*
X53426Y-40523D01*
X53425Y-40593D01*
X53452Y-40658D01*
X53502Y-40708D01*
X53566Y-40734D01*
X53636Y-40735D01*
X53701Y-40708D01*
X53751Y-40658D01*
X53777Y-40594D01*
X53778Y-40524D01*
X53778Y-41415D01*
X53749Y-41386D01*
X53706Y-41369D01*
X53740Y-41335D01*
X53766Y-41271D01*
X53767Y-41201D01*
X53740Y-41136D01*
X53738Y-41134D01*
X53762Y-41075D01*
X53763Y-41005D01*
X53736Y-40940D01*
X53686Y-40890D01*
X53622Y-40864D01*
X53552Y-40863D01*
X53487Y-40890D01*
X53437Y-40940D01*
X53411Y-41004D01*
X53410Y-41074D01*
X53437Y-41139D01*
X53439Y-41141D01*
X53415Y-41200D01*
X53414Y-41270D01*
X53441Y-41335D01*
X53491Y-41385D01*
X53534Y-41402D01*
X53500Y-41436D01*
X53474Y-41500D01*
X53473Y-41570D01*
X53500Y-41635D01*
X53550Y-41685D01*
X53614Y-41711D01*
X53684Y-41712D01*
X53749Y-41685D01*
X53799Y-41635D01*
X53825Y-41571D01*
X53826Y-41501D01*
X53826Y-46830D01*
X53755Y-46830D01*
X53755Y-42087D01*
X53728Y-42023D01*
X53754Y-41960D01*
X53755Y-41890D01*
X53728Y-41825D01*
X53678Y-41775D01*
X53614Y-41749D01*
X53544Y-41748D01*
X53479Y-41775D01*
X53429Y-41825D01*
X53403Y-41889D01*
X53402Y-41959D01*
X53429Y-42023D01*
X53403Y-42086D01*
X53402Y-42156D01*
X53429Y-42221D01*
X53479Y-42271D01*
X53543Y-42297D01*
X53613Y-42298D01*
X53678Y-42271D01*
X53728Y-42221D01*
X53754Y-42157D01*
X53755Y-42087D01*
X53755Y-46830D01*
X53046Y-46830D01*
X53046Y-37292D01*
X53046Y-36717D01*
X53019Y-36652D01*
X52969Y-36602D01*
X52905Y-36576D01*
X52835Y-36575D01*
X52770Y-36602D01*
X52720Y-36652D01*
X52694Y-36716D01*
X52693Y-36786D01*
X52720Y-36851D01*
X52770Y-36901D01*
X52834Y-36927D01*
X52904Y-36928D01*
X52969Y-36901D01*
X53019Y-36851D01*
X53045Y-36787D01*
X53046Y-36717D01*
X53046Y-37292D01*
X53019Y-37227D01*
X52969Y-37177D01*
X52905Y-37151D01*
X52835Y-37150D01*
X52770Y-37177D01*
X52720Y-37227D01*
X52694Y-37291D01*
X52693Y-37337D01*
X52681Y-37332D01*
X52611Y-37331D01*
X52546Y-37358D01*
X52496Y-37408D01*
X52470Y-37472D01*
X52469Y-37542D01*
X52496Y-37607D01*
X52540Y-37650D01*
X52508Y-37650D01*
X52443Y-37677D01*
X52393Y-37727D01*
X52369Y-37787D01*
X52369Y-35855D01*
X52342Y-35790D01*
X52292Y-35740D01*
X52228Y-35714D01*
X52158Y-35713D01*
X52093Y-35740D01*
X52073Y-35760D01*
X52073Y-35547D01*
X52049Y-35490D01*
X52005Y-35446D01*
X51948Y-35422D01*
X51886Y-35422D01*
X51845Y-35439D01*
X51845Y-35253D01*
X51818Y-35188D01*
X51768Y-35138D01*
X51704Y-35112D01*
X51634Y-35111D01*
X51569Y-35138D01*
X51519Y-35188D01*
X51493Y-35252D01*
X51492Y-35322D01*
X51519Y-35387D01*
X51569Y-35437D01*
X51633Y-35463D01*
X51703Y-35464D01*
X51768Y-35437D01*
X51818Y-35387D01*
X51844Y-35323D01*
X51845Y-35253D01*
X51845Y-35439D01*
X51829Y-35446D01*
X51785Y-35490D01*
X51761Y-35547D01*
X51761Y-35609D01*
X51784Y-35666D01*
X51828Y-35710D01*
X51886Y-35734D01*
X51948Y-35734D01*
X52005Y-35711D01*
X52049Y-35667D01*
X52073Y-35609D01*
X52073Y-35547D01*
X52073Y-35760D01*
X52043Y-35790D01*
X52017Y-35854D01*
X52016Y-35924D01*
X52043Y-35989D01*
X52093Y-36039D01*
X52157Y-36065D01*
X52227Y-36066D01*
X52292Y-36039D01*
X52342Y-35989D01*
X52368Y-35925D01*
X52369Y-35855D01*
X52369Y-37787D01*
X52367Y-37791D01*
X52366Y-37861D01*
X52393Y-37926D01*
X52443Y-37976D01*
X52474Y-37988D01*
X52416Y-38012D01*
X52366Y-38062D01*
X52340Y-38126D01*
X52339Y-38196D01*
X52366Y-38261D01*
X52416Y-38311D01*
X52480Y-38337D01*
X52550Y-38338D01*
X52615Y-38311D01*
X52665Y-38261D01*
X52691Y-38197D01*
X52692Y-38127D01*
X52665Y-38062D01*
X52615Y-38012D01*
X52584Y-38000D01*
X52642Y-37976D01*
X52692Y-37926D01*
X52718Y-37862D01*
X52719Y-37792D01*
X52692Y-37727D01*
X52648Y-37684D01*
X52680Y-37684D01*
X52745Y-37657D01*
X52795Y-37607D01*
X52821Y-37543D01*
X52822Y-37497D01*
X52834Y-37502D01*
X52904Y-37503D01*
X52969Y-37476D01*
X53019Y-37426D01*
X53045Y-37362D01*
X53046Y-37292D01*
X53046Y-46830D01*
X52711Y-46830D01*
X52711Y-41697D01*
X52684Y-41632D01*
X52641Y-41589D01*
X52641Y-41008D01*
X52614Y-40943D01*
X52578Y-40907D01*
X52578Y-39780D01*
X52562Y-39741D01*
X52562Y-39146D01*
X52542Y-39097D01*
X52542Y-38737D01*
X52515Y-38672D01*
X52465Y-38622D01*
X52401Y-38596D01*
X52331Y-38595D01*
X52266Y-38622D01*
X52216Y-38672D01*
X52190Y-38736D01*
X52189Y-38806D01*
X52216Y-38871D01*
X52266Y-38921D01*
X52330Y-38947D01*
X52400Y-38948D01*
X52465Y-38921D01*
X52515Y-38871D01*
X52541Y-38807D01*
X52542Y-38737D01*
X52542Y-39097D01*
X52535Y-39081D01*
X52485Y-39031D01*
X52421Y-39005D01*
X52351Y-39004D01*
X52286Y-39031D01*
X52236Y-39081D01*
X52210Y-39145D01*
X52209Y-39215D01*
X52236Y-39280D01*
X52286Y-39330D01*
X52350Y-39356D01*
X52420Y-39357D01*
X52485Y-39330D01*
X52535Y-39280D01*
X52561Y-39216D01*
X52562Y-39146D01*
X52562Y-39741D01*
X52551Y-39715D01*
X52501Y-39665D01*
X52437Y-39639D01*
X52367Y-39638D01*
X52302Y-39665D01*
X52252Y-39715D01*
X52226Y-39779D01*
X52225Y-39839D01*
X52197Y-39839D01*
X52132Y-39866D01*
X52082Y-39916D01*
X52056Y-39980D01*
X52055Y-40050D01*
X52082Y-40115D01*
X52132Y-40165D01*
X52196Y-40191D01*
X52266Y-40192D01*
X52331Y-40165D01*
X52381Y-40115D01*
X52407Y-40051D01*
X52408Y-39991D01*
X52436Y-39991D01*
X52501Y-39964D01*
X52551Y-39914D01*
X52577Y-39850D01*
X52578Y-39780D01*
X52578Y-40907D01*
X52564Y-40893D01*
X52500Y-40867D01*
X52451Y-40866D01*
X52452Y-40812D01*
X52425Y-40747D01*
X52382Y-40704D01*
X52388Y-40689D01*
X52389Y-40619D01*
X52362Y-40554D01*
X52349Y-40541D01*
X52397Y-40493D01*
X52423Y-40429D01*
X52424Y-40359D01*
X52397Y-40294D01*
X52347Y-40244D01*
X52283Y-40218D01*
X52213Y-40217D01*
X52148Y-40244D01*
X52098Y-40294D01*
X52072Y-40358D01*
X52071Y-40428D01*
X52098Y-40493D01*
X52111Y-40506D01*
X52063Y-40554D01*
X52037Y-40618D01*
X52036Y-40688D01*
X52063Y-40753D01*
X52106Y-40796D01*
X52100Y-40811D01*
X52099Y-40881D01*
X52126Y-40946D01*
X52176Y-40996D01*
X52240Y-41022D01*
X52289Y-41023D01*
X52288Y-41077D01*
X52315Y-41142D01*
X52365Y-41192D01*
X52429Y-41218D01*
X52499Y-41219D01*
X52564Y-41192D01*
X52614Y-41142D01*
X52640Y-41078D01*
X52641Y-41008D01*
X52641Y-41589D01*
X52634Y-41582D01*
X52570Y-41556D01*
X52500Y-41555D01*
X52435Y-41582D01*
X52385Y-41632D01*
X52359Y-41696D01*
X52358Y-41766D01*
X52385Y-41831D01*
X52435Y-41881D01*
X52499Y-41907D01*
X52569Y-41908D01*
X52634Y-41881D01*
X52684Y-41831D01*
X52710Y-41767D01*
X52711Y-41697D01*
X52711Y-46830D01*
X52294Y-46830D01*
X52294Y-42319D01*
X52267Y-42254D01*
X52217Y-42204D01*
X52153Y-42178D01*
X52083Y-42177D01*
X52018Y-42204D01*
X52017Y-42206D01*
X52016Y-42205D01*
X51952Y-42179D01*
X51928Y-42179D01*
X51928Y-40713D01*
X51908Y-40664D01*
X51908Y-36426D01*
X51881Y-36361D01*
X51831Y-36311D01*
X51767Y-36285D01*
X51697Y-36284D01*
X51632Y-36311D01*
X51621Y-36323D01*
X51621Y-35894D01*
X51594Y-35829D01*
X51544Y-35779D01*
X51480Y-35753D01*
X51410Y-35752D01*
X51364Y-35772D01*
X51364Y-34205D01*
X51334Y-34133D01*
X51279Y-34078D01*
X51207Y-34049D01*
X51130Y-34048D01*
X51058Y-34078D01*
X51003Y-34133D01*
X50974Y-34205D01*
X50973Y-34282D01*
X51003Y-34354D01*
X51058Y-34409D01*
X51130Y-34438D01*
X51207Y-34439D01*
X51279Y-34409D01*
X51334Y-34354D01*
X51363Y-34282D01*
X51364Y-34205D01*
X51364Y-35772D01*
X51345Y-35779D01*
X51295Y-35829D01*
X51269Y-35893D01*
X51268Y-35963D01*
X51295Y-36028D01*
X51345Y-36078D01*
X51409Y-36104D01*
X51479Y-36105D01*
X51544Y-36078D01*
X51594Y-36028D01*
X51620Y-35964D01*
X51621Y-35894D01*
X51621Y-36323D01*
X51582Y-36361D01*
X51556Y-36425D01*
X51555Y-36495D01*
X51582Y-36560D01*
X51632Y-36610D01*
X51696Y-36636D01*
X51766Y-36637D01*
X51831Y-36610D01*
X51881Y-36560D01*
X51907Y-36496D01*
X51908Y-36426D01*
X51908Y-40664D01*
X51904Y-40655D01*
X51904Y-37205D01*
X51877Y-37140D01*
X51835Y-37098D01*
X51877Y-37056D01*
X51903Y-36992D01*
X51904Y-36922D01*
X51877Y-36857D01*
X51827Y-36807D01*
X51763Y-36781D01*
X51693Y-36780D01*
X51628Y-36807D01*
X51578Y-36857D01*
X51552Y-36921D01*
X51551Y-36991D01*
X51578Y-37056D01*
X51620Y-37098D01*
X51578Y-37140D01*
X51552Y-37204D01*
X51551Y-37274D01*
X51578Y-37339D01*
X51609Y-37370D01*
X51571Y-37408D01*
X51545Y-37472D01*
X51544Y-37542D01*
X51571Y-37607D01*
X51621Y-37657D01*
X51685Y-37683D01*
X51755Y-37684D01*
X51820Y-37657D01*
X51870Y-37607D01*
X51896Y-37543D01*
X51897Y-37473D01*
X51870Y-37408D01*
X51839Y-37377D01*
X51877Y-37339D01*
X51903Y-37275D01*
X51904Y-37205D01*
X51904Y-40655D01*
X51901Y-40648D01*
X51893Y-40640D01*
X51893Y-37957D01*
X51866Y-37892D01*
X51816Y-37842D01*
X51752Y-37816D01*
X51682Y-37815D01*
X51617Y-37842D01*
X51567Y-37892D01*
X51541Y-37956D01*
X51540Y-38026D01*
X51567Y-38091D01*
X51617Y-38141D01*
X51681Y-38167D01*
X51751Y-38168D01*
X51816Y-38141D01*
X51866Y-38091D01*
X51892Y-38027D01*
X51893Y-37957D01*
X51893Y-40640D01*
X51851Y-40598D01*
X51787Y-40572D01*
X51717Y-40571D01*
X51652Y-40598D01*
X51602Y-40648D01*
X51576Y-40712D01*
X51575Y-40782D01*
X51602Y-40847D01*
X51652Y-40897D01*
X51716Y-40923D01*
X51786Y-40924D01*
X51851Y-40897D01*
X51901Y-40847D01*
X51927Y-40783D01*
X51928Y-40713D01*
X51928Y-42179D01*
X51882Y-42178D01*
X51817Y-42205D01*
X51777Y-42245D01*
X51737Y-42205D01*
X51673Y-42179D01*
X51603Y-42178D01*
X51538Y-42205D01*
X51518Y-42226D01*
X51497Y-42205D01*
X51433Y-42179D01*
X51363Y-42178D01*
X51298Y-42205D01*
X51267Y-42237D01*
X51267Y-40914D01*
X51240Y-40849D01*
X51190Y-40799D01*
X51126Y-40773D01*
X51056Y-40772D01*
X50991Y-40799D01*
X50941Y-40849D01*
X50915Y-40913D01*
X50914Y-40983D01*
X50941Y-41048D01*
X50991Y-41098D01*
X51055Y-41124D01*
X51125Y-41125D01*
X51190Y-41098D01*
X51240Y-41048D01*
X51266Y-40984D01*
X51267Y-40914D01*
X51267Y-42237D01*
X51248Y-42255D01*
X51222Y-42319D01*
X51221Y-42389D01*
X51248Y-42454D01*
X51298Y-42504D01*
X51362Y-42530D01*
X51432Y-42531D01*
X51497Y-42504D01*
X51517Y-42483D01*
X51538Y-42504D01*
X51602Y-42530D01*
X51672Y-42531D01*
X51737Y-42504D01*
X51777Y-42464D01*
X51817Y-42504D01*
X51881Y-42530D01*
X51951Y-42531D01*
X52016Y-42504D01*
X52017Y-42502D01*
X52018Y-42503D01*
X52082Y-42529D01*
X52152Y-42530D01*
X52217Y-42503D01*
X52267Y-42453D01*
X52293Y-42389D01*
X52294Y-42319D01*
X52294Y-46830D01*
X51742Y-46830D01*
X51742Y-43681D01*
X51716Y-43616D01*
X51666Y-43567D01*
X51602Y-43540D01*
X51532Y-43540D01*
X51467Y-43567D01*
X51417Y-43616D01*
X51390Y-43681D01*
X51390Y-43724D01*
X51326Y-43698D01*
X51256Y-43697D01*
X51191Y-43724D01*
X51142Y-43774D01*
X51115Y-43838D01*
X51115Y-43908D01*
X51142Y-43973D01*
X51191Y-44023D01*
X51256Y-44049D01*
X51326Y-44050D01*
X51379Y-44028D01*
X51371Y-44047D01*
X51371Y-44110D01*
X51326Y-44091D01*
X51256Y-44091D01*
X51191Y-44118D01*
X51142Y-44167D01*
X51115Y-44232D01*
X51115Y-44302D01*
X51142Y-44367D01*
X51191Y-44416D01*
X51214Y-44426D01*
X51165Y-44426D01*
X51101Y-44453D01*
X51051Y-44502D01*
X51024Y-44567D01*
X51024Y-44637D01*
X51051Y-44701D01*
X51100Y-44751D01*
X51132Y-44764D01*
X51105Y-44775D01*
X51055Y-44825D01*
X51028Y-44890D01*
X51028Y-44960D01*
X51055Y-45024D01*
X51104Y-45074D01*
X51169Y-45101D01*
X51239Y-45101D01*
X51304Y-45074D01*
X51353Y-45025D01*
X51380Y-44960D01*
X51380Y-44890D01*
X51354Y-44825D01*
X51304Y-44776D01*
X51272Y-44762D01*
X51300Y-44751D01*
X51349Y-44702D01*
X51376Y-44637D01*
X51376Y-44567D01*
X51350Y-44502D01*
X51300Y-44453D01*
X51277Y-44443D01*
X51326Y-44443D01*
X51371Y-44425D01*
X51371Y-44448D01*
X51397Y-44512D01*
X51447Y-44562D01*
X51471Y-44572D01*
X51435Y-44586D01*
X51386Y-44636D01*
X51359Y-44701D01*
X51359Y-44771D01*
X51386Y-44835D01*
X51435Y-44885D01*
X51474Y-44901D01*
X51435Y-44917D01*
X51386Y-44967D01*
X51359Y-45031D01*
X51359Y-45101D01*
X51386Y-45166D01*
X51435Y-45216D01*
X51500Y-45242D01*
X51570Y-45242D01*
X51634Y-45216D01*
X51684Y-45166D01*
X51711Y-45102D01*
X51711Y-45032D01*
X51684Y-44967D01*
X51635Y-44917D01*
X51596Y-44901D01*
X51634Y-44885D01*
X51684Y-44836D01*
X51711Y-44771D01*
X51711Y-44701D01*
X51684Y-44636D01*
X51635Y-44587D01*
X51611Y-44577D01*
X51646Y-44562D01*
X51696Y-44513D01*
X51723Y-44448D01*
X51723Y-44378D01*
X51696Y-44313D01*
X51647Y-44264D01*
X51607Y-44248D01*
X51646Y-44231D01*
X51696Y-44182D01*
X51723Y-44117D01*
X51723Y-44047D01*
X51696Y-43983D01*
X51647Y-43933D01*
X51582Y-43906D01*
X51512Y-43906D01*
X51459Y-43928D01*
X51467Y-43909D01*
X51467Y-43865D01*
X51531Y-43892D01*
X51601Y-43892D01*
X51666Y-43865D01*
X51716Y-43816D01*
X51742Y-43751D01*
X51742Y-43681D01*
X51742Y-46830D01*
X51004Y-46830D01*
X51004Y-49586D01*
X54428Y-49586D01*
X54428Y-49592D01*
X50270Y-49592D01*
X50270Y-35248D01*
X50246Y-35191D01*
X50202Y-35147D01*
X50145Y-35123D01*
X50101Y-35123D01*
X50101Y-34890D01*
X50074Y-34825D01*
X50025Y-34776D01*
X49960Y-34749D01*
X49890Y-34749D01*
X49825Y-34775D01*
X49776Y-34825D01*
X49749Y-34890D01*
X49749Y-34960D01*
X49775Y-35024D01*
X49825Y-35074D01*
X49890Y-35101D01*
X49960Y-35101D01*
X50024Y-35074D01*
X50074Y-35025D01*
X50101Y-34960D01*
X50101Y-34890D01*
X50101Y-35123D01*
X50083Y-35123D01*
X50025Y-35147D01*
X49982Y-35191D01*
X49958Y-35248D01*
X49958Y-35310D01*
X49981Y-35367D01*
X50025Y-35411D01*
X50083Y-35435D01*
X50145Y-35435D01*
X50202Y-35411D01*
X50246Y-35368D01*
X50270Y-35310D01*
X50270Y-35248D01*
X50270Y-49592D01*
X50167Y-49592D01*
X50167Y-42445D01*
X50144Y-42388D01*
X50100Y-42344D01*
X50093Y-42341D01*
X50093Y-36977D01*
X50066Y-36912D01*
X50016Y-36862D01*
X49952Y-36836D01*
X49924Y-36836D01*
X49924Y-36190D01*
X49897Y-36125D01*
X49847Y-36075D01*
X49783Y-36049D01*
X49713Y-36048D01*
X49648Y-36075D01*
X49598Y-36125D01*
X49572Y-36189D01*
X49571Y-36259D01*
X49597Y-36322D01*
X49594Y-36325D01*
X49568Y-36389D01*
X49567Y-36459D01*
X49594Y-36524D01*
X49644Y-36574D01*
X49708Y-36600D01*
X49778Y-36601D01*
X49843Y-36574D01*
X49893Y-36524D01*
X49919Y-36460D01*
X49920Y-36390D01*
X49894Y-36327D01*
X49897Y-36324D01*
X49923Y-36260D01*
X49924Y-36190D01*
X49924Y-36836D01*
X49882Y-36835D01*
X49817Y-36862D01*
X49767Y-36912D01*
X49741Y-36976D01*
X49740Y-37046D01*
X49752Y-37074D01*
X49733Y-37055D01*
X49669Y-37029D01*
X49599Y-37028D01*
X49534Y-37055D01*
X49484Y-37105D01*
X49458Y-37169D01*
X49457Y-37239D01*
X49470Y-37269D01*
X49453Y-37252D01*
X49408Y-37233D01*
X49408Y-33862D01*
X49381Y-33798D01*
X49332Y-33748D01*
X49267Y-33721D01*
X49197Y-33721D01*
X49132Y-33748D01*
X49083Y-33797D01*
X49056Y-33862D01*
X49056Y-33932D01*
X49082Y-33997D01*
X49132Y-34046D01*
X49197Y-34073D01*
X49267Y-34073D01*
X49331Y-34046D01*
X49381Y-33997D01*
X49408Y-33932D01*
X49408Y-33862D01*
X49408Y-37233D01*
X49389Y-37226D01*
X49319Y-37225D01*
X49308Y-37230D01*
X49308Y-36977D01*
X49281Y-36912D01*
X49231Y-36862D01*
X49185Y-36843D01*
X49185Y-36362D01*
X49155Y-36291D01*
X49118Y-36253D01*
X49155Y-36216D01*
X49185Y-36145D01*
X49185Y-36067D01*
X49155Y-35995D01*
X49100Y-35940D01*
X49029Y-35911D01*
X48951Y-35911D01*
X48880Y-35940D01*
X48825Y-35995D01*
X48795Y-36067D01*
X48795Y-36144D01*
X48824Y-36216D01*
X48862Y-36253D01*
X48825Y-36290D01*
X48795Y-36362D01*
X48795Y-36439D01*
X48824Y-36511D01*
X48879Y-36566D01*
X48951Y-36596D01*
X49028Y-36596D01*
X49100Y-36566D01*
X49155Y-36511D01*
X49185Y-36440D01*
X49185Y-36362D01*
X49185Y-36843D01*
X49167Y-36836D01*
X49097Y-36835D01*
X49032Y-36862D01*
X48982Y-36912D01*
X48956Y-36976D01*
X48955Y-37046D01*
X48982Y-37111D01*
X49032Y-37161D01*
X49096Y-37187D01*
X49166Y-37188D01*
X49231Y-37161D01*
X49281Y-37111D01*
X49307Y-37047D01*
X49308Y-36977D01*
X49308Y-37230D01*
X49254Y-37252D01*
X49204Y-37302D01*
X49178Y-37366D01*
X49177Y-37436D01*
X49204Y-37501D01*
X49254Y-37551D01*
X49318Y-37577D01*
X49388Y-37578D01*
X49453Y-37551D01*
X49503Y-37501D01*
X49529Y-37437D01*
X49530Y-37367D01*
X49517Y-37337D01*
X49534Y-37354D01*
X49598Y-37380D01*
X49668Y-37381D01*
X49733Y-37354D01*
X49783Y-37304D01*
X49809Y-37240D01*
X49810Y-37170D01*
X49798Y-37142D01*
X49817Y-37161D01*
X49881Y-37187D01*
X49951Y-37188D01*
X50016Y-37161D01*
X50066Y-37111D01*
X50092Y-37047D01*
X50093Y-36977D01*
X50093Y-42341D01*
X50042Y-42320D01*
X49980Y-42320D01*
X49923Y-42344D01*
X49901Y-42365D01*
X49879Y-42344D01*
X49822Y-42320D01*
X49760Y-42320D01*
X49703Y-42344D01*
X49659Y-42387D01*
X49635Y-42445D01*
X49635Y-42469D01*
X49634Y-42468D01*
X49570Y-42442D01*
X49500Y-42441D01*
X49435Y-42468D01*
X49385Y-42518D01*
X49359Y-42582D01*
X49358Y-42652D01*
X49385Y-42717D01*
X49435Y-42767D01*
X49457Y-42776D01*
X49415Y-42818D01*
X49389Y-42882D01*
X49388Y-42952D01*
X49415Y-43017D01*
X49465Y-43067D01*
X49529Y-43093D01*
X49599Y-43094D01*
X49664Y-43067D01*
X49714Y-43017D01*
X49740Y-42953D01*
X49741Y-42883D01*
X49714Y-42818D01*
X49664Y-42768D01*
X49642Y-42759D01*
X49684Y-42717D01*
X49710Y-42653D01*
X49711Y-42611D01*
X49760Y-42632D01*
X49822Y-42632D01*
X49879Y-42608D01*
X49901Y-42586D01*
X49923Y-42608D01*
X49980Y-42632D01*
X50042Y-42632D01*
X50100Y-42608D01*
X50143Y-42564D01*
X50167Y-42507D01*
X50167Y-42445D01*
X50167Y-49592D01*
X48758Y-49592D01*
X48758Y-45870D01*
X48758Y-45476D01*
X48731Y-45412D01*
X48682Y-45362D01*
X48617Y-45335D01*
X48547Y-45335D01*
X48483Y-45362D01*
X48467Y-45378D01*
X48467Y-35197D01*
X48440Y-35132D01*
X48396Y-35088D01*
X48432Y-35052D01*
X48459Y-34987D01*
X48459Y-34917D01*
X48432Y-34853D01*
X48383Y-34803D01*
X48318Y-34776D01*
X48248Y-34776D01*
X48183Y-34803D01*
X48149Y-34837D01*
X48127Y-34815D01*
X48062Y-34788D01*
X47992Y-34788D01*
X47927Y-34815D01*
X47878Y-34864D01*
X47851Y-34929D01*
X47851Y-34999D01*
X47878Y-35064D01*
X47892Y-35078D01*
X47858Y-35112D01*
X47831Y-35177D01*
X47831Y-35247D01*
X47858Y-35312D01*
X47908Y-35361D01*
X47972Y-35388D01*
X48042Y-35388D01*
X48107Y-35361D01*
X48140Y-35328D01*
X48142Y-35331D01*
X48191Y-35381D01*
X48256Y-35408D01*
X48326Y-35408D01*
X48390Y-35381D01*
X48440Y-35332D01*
X48467Y-35267D01*
X48467Y-35197D01*
X48467Y-45378D01*
X48433Y-45411D01*
X48406Y-45476D01*
X48406Y-45546D01*
X48433Y-45611D01*
X48482Y-45660D01*
X48547Y-45687D01*
X48617Y-45687D01*
X48682Y-45661D01*
X48731Y-45611D01*
X48758Y-45546D01*
X48758Y-45476D01*
X48758Y-45870D01*
X48731Y-45805D01*
X48682Y-45756D01*
X48617Y-45729D01*
X48547Y-45729D01*
X48483Y-45756D01*
X48433Y-45805D01*
X48406Y-45870D01*
X48406Y-45940D01*
X48433Y-46005D01*
X48482Y-46054D01*
X48547Y-46081D01*
X48617Y-46081D01*
X48682Y-46054D01*
X48731Y-46005D01*
X48758Y-45940D01*
X48758Y-45870D01*
X48758Y-49592D01*
X48522Y-49592D01*
X48522Y-46736D01*
X48522Y-46382D01*
X48495Y-46317D01*
X48446Y-46268D01*
X48397Y-46247D01*
X48397Y-38351D01*
X48370Y-38286D01*
X48369Y-38285D01*
X48369Y-37949D01*
X48369Y-37170D01*
X48342Y-37105D01*
X48319Y-37082D01*
X48319Y-36382D01*
X48289Y-36310D01*
X48262Y-36283D01*
X48289Y-36256D01*
X48319Y-36184D01*
X48319Y-36106D01*
X48289Y-36035D01*
X48234Y-35980D01*
X48163Y-35950D01*
X48085Y-35950D01*
X48013Y-35980D01*
X47959Y-36034D01*
X47929Y-36106D01*
X47929Y-36184D01*
X47958Y-36255D01*
X47986Y-36283D01*
X47959Y-36310D01*
X47929Y-36382D01*
X47929Y-36459D01*
X47958Y-36531D01*
X48013Y-36586D01*
X48085Y-36615D01*
X48162Y-36616D01*
X48234Y-36586D01*
X48289Y-36531D01*
X48319Y-36459D01*
X48319Y-36382D01*
X48319Y-37082D01*
X48292Y-37055D01*
X48228Y-37029D01*
X48158Y-37028D01*
X48093Y-37055D01*
X48043Y-37105D01*
X48017Y-37169D01*
X48016Y-37239D01*
X48034Y-37283D01*
X48015Y-37302D01*
X47989Y-37366D01*
X47988Y-37436D01*
X48015Y-37501D01*
X48065Y-37551D01*
X48129Y-37577D01*
X48199Y-37578D01*
X48264Y-37551D01*
X48314Y-37501D01*
X48340Y-37437D01*
X48341Y-37367D01*
X48323Y-37323D01*
X48342Y-37304D01*
X48368Y-37240D01*
X48369Y-37170D01*
X48369Y-37949D01*
X48342Y-37884D01*
X48292Y-37834D01*
X48228Y-37808D01*
X48158Y-37807D01*
X48093Y-37834D01*
X48043Y-37884D01*
X48017Y-37948D01*
X48016Y-38018D01*
X48043Y-38083D01*
X48093Y-38133D01*
X48157Y-38159D01*
X48227Y-38160D01*
X48292Y-38133D01*
X48342Y-38083D01*
X48368Y-38019D01*
X48369Y-37949D01*
X48369Y-38285D01*
X48320Y-38236D01*
X48256Y-38210D01*
X48186Y-38209D01*
X48121Y-38236D01*
X48071Y-38286D01*
X48045Y-38350D01*
X48044Y-38420D01*
X48065Y-38469D01*
X48043Y-38491D01*
X48017Y-38555D01*
X48016Y-38618D01*
X47979Y-38633D01*
X47929Y-38683D01*
X47903Y-38747D01*
X47902Y-38817D01*
X47929Y-38882D01*
X47979Y-38932D01*
X48043Y-38958D01*
X48113Y-38959D01*
X48178Y-38932D01*
X48228Y-38882D01*
X48254Y-38818D01*
X48255Y-38755D01*
X48292Y-38740D01*
X48342Y-38690D01*
X48368Y-38626D01*
X48369Y-38556D01*
X48348Y-38507D01*
X48370Y-38485D01*
X48396Y-38421D01*
X48397Y-38351D01*
X48397Y-46247D01*
X48381Y-46241D01*
X48377Y-46241D01*
X48377Y-40914D01*
X48377Y-39733D01*
X48350Y-39668D01*
X48326Y-39644D01*
X48330Y-39641D01*
X48355Y-39580D01*
X48355Y-39514D01*
X48330Y-39453D01*
X48283Y-39406D01*
X48222Y-39380D01*
X48156Y-39380D01*
X48094Y-39406D01*
X48047Y-39452D01*
X48022Y-39513D01*
X48022Y-39580D01*
X48047Y-39641D01*
X48063Y-39656D01*
X48051Y-39668D01*
X48025Y-39732D01*
X48024Y-39802D01*
X48046Y-39854D01*
X48035Y-39865D01*
X48009Y-39929D01*
X48008Y-39999D01*
X48035Y-40064D01*
X48085Y-40114D01*
X48149Y-40140D01*
X48219Y-40141D01*
X48284Y-40114D01*
X48334Y-40064D01*
X48360Y-40000D01*
X48361Y-39930D01*
X48339Y-39878D01*
X48350Y-39867D01*
X48376Y-39803D01*
X48377Y-39733D01*
X48377Y-40914D01*
X48357Y-40865D01*
X48357Y-40320D01*
X48330Y-40255D01*
X48280Y-40205D01*
X48216Y-40179D01*
X48146Y-40178D01*
X48081Y-40205D01*
X48031Y-40255D01*
X48005Y-40319D01*
X48004Y-40389D01*
X48031Y-40454D01*
X48081Y-40504D01*
X48145Y-40530D01*
X48215Y-40531D01*
X48280Y-40504D01*
X48330Y-40454D01*
X48356Y-40390D01*
X48357Y-40320D01*
X48357Y-40865D01*
X48350Y-40849D01*
X48329Y-40829D01*
X48348Y-40783D01*
X48349Y-40713D01*
X48322Y-40648D01*
X48272Y-40598D01*
X48208Y-40572D01*
X48138Y-40571D01*
X48073Y-40598D01*
X48023Y-40648D01*
X47997Y-40712D01*
X47996Y-40782D01*
X48023Y-40847D01*
X48044Y-40867D01*
X48025Y-40913D01*
X48024Y-40972D01*
X47975Y-40992D01*
X47925Y-41042D01*
X47899Y-41106D01*
X47898Y-41176D01*
X47925Y-41241D01*
X47975Y-41291D01*
X48039Y-41317D01*
X48109Y-41318D01*
X48174Y-41291D01*
X48224Y-41241D01*
X48250Y-41177D01*
X48251Y-41118D01*
X48300Y-41098D01*
X48350Y-41048D01*
X48376Y-40984D01*
X48377Y-40914D01*
X48377Y-46241D01*
X48373Y-46241D01*
X48373Y-41697D01*
X48346Y-41632D01*
X48296Y-41582D01*
X48232Y-41556D01*
X48162Y-41555D01*
X48097Y-41582D01*
X48047Y-41632D01*
X48021Y-41696D01*
X48020Y-41766D01*
X48047Y-41831D01*
X48049Y-41833D01*
X48047Y-41834D01*
X48022Y-41895D01*
X48022Y-41962D01*
X48044Y-42015D01*
X48028Y-42031D01*
X48002Y-42092D01*
X48002Y-42158D01*
X48028Y-42220D01*
X48074Y-42267D01*
X48136Y-42292D01*
X48202Y-42292D01*
X48263Y-42267D01*
X48310Y-42220D01*
X48335Y-42159D01*
X48335Y-42093D01*
X48313Y-42039D01*
X48330Y-42023D01*
X48355Y-41962D01*
X48355Y-41896D01*
X48333Y-41843D01*
X48346Y-41831D01*
X48372Y-41767D01*
X48373Y-41697D01*
X48373Y-46241D01*
X48330Y-46241D01*
X48330Y-42690D01*
X48303Y-42625D01*
X48253Y-42575D01*
X48189Y-42549D01*
X48119Y-42548D01*
X48054Y-42575D01*
X48004Y-42625D01*
X47978Y-42689D01*
X47977Y-42759D01*
X48004Y-42824D01*
X48054Y-42874D01*
X48118Y-42900D01*
X48188Y-42901D01*
X48253Y-42874D01*
X48303Y-42824D01*
X48329Y-42760D01*
X48330Y-42690D01*
X48330Y-46241D01*
X48311Y-46241D01*
X48286Y-46251D01*
X48286Y-45831D01*
X48286Y-45437D01*
X48259Y-45372D01*
X48210Y-45323D01*
X48145Y-45296D01*
X48075Y-45296D01*
X48010Y-45323D01*
X47961Y-45372D01*
X47934Y-45437D01*
X47934Y-45507D01*
X47960Y-45572D01*
X48010Y-45621D01*
X48075Y-45648D01*
X48145Y-45648D01*
X48209Y-45621D01*
X48259Y-45572D01*
X48286Y-45507D01*
X48286Y-45437D01*
X48286Y-45831D01*
X48259Y-45766D01*
X48210Y-45717D01*
X48145Y-45690D01*
X48075Y-45690D01*
X48010Y-45716D01*
X47961Y-45766D01*
X47934Y-45830D01*
X47934Y-45900D01*
X47960Y-45965D01*
X48010Y-46015D01*
X48075Y-46042D01*
X48145Y-46042D01*
X48209Y-46015D01*
X48259Y-45965D01*
X48286Y-45901D01*
X48286Y-45831D01*
X48286Y-46251D01*
X48246Y-46268D01*
X48197Y-46317D01*
X48170Y-46382D01*
X48170Y-46452D01*
X48197Y-46516D01*
X48246Y-46566D01*
X48311Y-46593D01*
X48381Y-46593D01*
X48446Y-46566D01*
X48495Y-46517D01*
X48522Y-46452D01*
X48522Y-46382D01*
X48522Y-46736D01*
X48495Y-46672D01*
X48446Y-46622D01*
X48381Y-46595D01*
X48311Y-46595D01*
X48246Y-46622D01*
X48197Y-46671D01*
X48170Y-46736D01*
X48170Y-46806D01*
X48197Y-46871D01*
X48246Y-46920D01*
X48311Y-46947D01*
X48381Y-46947D01*
X48446Y-46920D01*
X48495Y-46871D01*
X48522Y-46806D01*
X48522Y-46736D01*
X48522Y-49592D01*
X47538Y-49592D01*
X47538Y-47287D01*
X47538Y-46854D01*
X47538Y-46461D01*
X47538Y-46106D01*
X47511Y-46042D01*
X47462Y-45992D01*
X47397Y-45965D01*
X47384Y-45965D01*
X47384Y-36520D01*
X47357Y-36455D01*
X47308Y-36405D01*
X47243Y-36379D01*
X47173Y-36379D01*
X47109Y-36405D01*
X47059Y-36455D01*
X47032Y-36519D01*
X47032Y-36589D01*
X47059Y-36654D01*
X47108Y-36704D01*
X47115Y-36707D01*
X47101Y-36712D01*
X47051Y-36762D01*
X47024Y-36827D01*
X47024Y-36897D01*
X47051Y-36961D01*
X47100Y-37011D01*
X47165Y-37038D01*
X47235Y-37038D01*
X47300Y-37011D01*
X47349Y-36962D01*
X47376Y-36897D01*
X47376Y-36827D01*
X47350Y-36762D01*
X47300Y-36713D01*
X47293Y-36710D01*
X47308Y-36704D01*
X47357Y-36654D01*
X47384Y-36590D01*
X47384Y-36520D01*
X47384Y-45965D01*
X47327Y-45965D01*
X47262Y-45992D01*
X47213Y-46041D01*
X47186Y-46106D01*
X47186Y-46176D01*
X47212Y-46241D01*
X47262Y-46290D01*
X47327Y-46317D01*
X47397Y-46317D01*
X47461Y-46291D01*
X47511Y-46241D01*
X47538Y-46176D01*
X47538Y-46106D01*
X47538Y-46461D01*
X47511Y-46396D01*
X47462Y-46346D01*
X47397Y-46320D01*
X47327Y-46320D01*
X47262Y-46346D01*
X47213Y-46396D01*
X47186Y-46460D01*
X47186Y-46530D01*
X47212Y-46595D01*
X47262Y-46645D01*
X47327Y-46672D01*
X47397Y-46672D01*
X47461Y-46645D01*
X47511Y-46595D01*
X47538Y-46531D01*
X47538Y-46461D01*
X47538Y-46854D01*
X47511Y-46790D01*
X47462Y-46740D01*
X47397Y-46713D01*
X47327Y-46713D01*
X47262Y-46740D01*
X47213Y-46789D01*
X47186Y-46854D01*
X47186Y-46924D01*
X47212Y-46989D01*
X47262Y-47038D01*
X47327Y-47065D01*
X47397Y-47065D01*
X47461Y-47039D01*
X47511Y-46989D01*
X47538Y-46924D01*
X47538Y-46854D01*
X47538Y-47287D01*
X47511Y-47223D01*
X47462Y-47173D01*
X47397Y-47146D01*
X47327Y-47146D01*
X47262Y-47173D01*
X47213Y-47223D01*
X47186Y-47287D01*
X47186Y-47357D01*
X47212Y-47422D01*
X47262Y-47471D01*
X47327Y-47498D01*
X47397Y-47498D01*
X47461Y-47472D01*
X47511Y-47422D01*
X47538Y-47357D01*
X47538Y-47287D01*
X47538Y-49592D01*
X47168Y-49592D01*
X47168Y-45742D01*
X47108Y-45597D01*
X46996Y-45485D01*
X46851Y-45425D01*
X46715Y-45425D01*
X46715Y-37358D01*
X46688Y-37294D01*
X46639Y-37244D01*
X46574Y-37217D01*
X46504Y-37217D01*
X46439Y-37244D01*
X46390Y-37293D01*
X46363Y-37358D01*
X46363Y-37428D01*
X46390Y-37493D01*
X46439Y-37542D01*
X46504Y-37569D01*
X46574Y-37569D01*
X46638Y-37542D01*
X46688Y-37493D01*
X46715Y-37428D01*
X46715Y-37358D01*
X46715Y-45425D01*
X46693Y-45425D01*
X46548Y-45485D01*
X46436Y-45596D01*
X46376Y-45742D01*
X46376Y-45899D01*
X46436Y-46045D01*
X46547Y-46156D01*
X46692Y-46217D01*
X46850Y-46217D01*
X46996Y-46157D01*
X47107Y-46045D01*
X47168Y-45900D01*
X47168Y-45742D01*
X47168Y-49592D01*
X47065Y-49592D01*
X47065Y-47287D01*
X47065Y-46854D01*
X47065Y-46461D01*
X47039Y-46396D01*
X46989Y-46346D01*
X46924Y-46320D01*
X46854Y-46320D01*
X46790Y-46346D01*
X46740Y-46396D01*
X46713Y-46460D01*
X46713Y-46530D01*
X46740Y-46595D01*
X46789Y-46645D01*
X46854Y-46672D01*
X46924Y-46672D01*
X46989Y-46645D01*
X47038Y-46595D01*
X47065Y-46531D01*
X47065Y-46461D01*
X47065Y-46854D01*
X47039Y-46790D01*
X46989Y-46740D01*
X46924Y-46713D01*
X46854Y-46713D01*
X46790Y-46740D01*
X46740Y-46789D01*
X46713Y-46854D01*
X46713Y-46924D01*
X46740Y-46989D01*
X46789Y-47038D01*
X46854Y-47065D01*
X46924Y-47065D01*
X46989Y-47039D01*
X47038Y-46989D01*
X47065Y-46924D01*
X47065Y-46854D01*
X47065Y-47287D01*
X47039Y-47223D01*
X46989Y-47173D01*
X46924Y-47146D01*
X46854Y-47146D01*
X46790Y-47173D01*
X46740Y-47223D01*
X46713Y-47287D01*
X46713Y-47357D01*
X46740Y-47422D01*
X46789Y-47471D01*
X46854Y-47498D01*
X46924Y-47498D01*
X46989Y-47472D01*
X47038Y-47422D01*
X47065Y-47357D01*
X47065Y-47287D01*
X47065Y-49592D01*
X46593Y-49592D01*
X46593Y-47287D01*
X46593Y-46854D01*
X46593Y-46461D01*
X46566Y-46396D01*
X46517Y-46346D01*
X46452Y-46320D01*
X46382Y-46320D01*
X46317Y-46346D01*
X46268Y-46396D01*
X46241Y-46460D01*
X46241Y-46530D01*
X46268Y-46595D01*
X46317Y-46645D01*
X46382Y-46672D01*
X46452Y-46672D01*
X46516Y-46645D01*
X46566Y-46595D01*
X46593Y-46531D01*
X46593Y-46461D01*
X46593Y-46854D01*
X46566Y-46790D01*
X46517Y-46740D01*
X46452Y-46713D01*
X46382Y-46713D01*
X46317Y-46740D01*
X46268Y-46789D01*
X46241Y-46854D01*
X46241Y-46924D01*
X46268Y-46989D01*
X46317Y-47038D01*
X46382Y-47065D01*
X46452Y-47065D01*
X46516Y-47039D01*
X46566Y-46989D01*
X46593Y-46924D01*
X46593Y-46854D01*
X46593Y-47287D01*
X46566Y-47223D01*
X46517Y-47173D01*
X46452Y-47146D01*
X46382Y-47146D01*
X46317Y-47173D01*
X46268Y-47223D01*
X46241Y-47287D01*
X46241Y-47357D01*
X46268Y-47422D01*
X46317Y-47471D01*
X46382Y-47498D01*
X46452Y-47498D01*
X46516Y-47472D01*
X46566Y-47422D01*
X46593Y-47357D01*
X46593Y-47287D01*
X46593Y-49592D01*
X46143Y-49592D01*
X46143Y-44575D01*
X46163Y-44567D01*
X46240Y-44490D01*
X46282Y-44389D01*
X46282Y-44280D01*
X46240Y-44179D01*
X46179Y-44118D01*
X46240Y-44057D01*
X46282Y-43956D01*
X46282Y-43847D01*
X46240Y-43746D01*
X46179Y-43685D01*
X46240Y-43624D01*
X46282Y-43523D01*
X46282Y-43414D01*
X46240Y-43313D01*
X46163Y-43236D01*
X46143Y-43228D01*
X46143Y-35736D01*
X46163Y-35728D01*
X46240Y-35651D01*
X46282Y-35550D01*
X46282Y-35441D01*
X46240Y-35340D01*
X46179Y-35279D01*
X46240Y-35218D01*
X46282Y-35117D01*
X46282Y-35008D01*
X46240Y-34907D01*
X46179Y-34846D01*
X46240Y-34785D01*
X46282Y-34684D01*
X46282Y-34575D01*
X46240Y-34474D01*
X46163Y-34397D01*
X46143Y-34389D01*
X46143Y-30155D01*
X47974Y-30155D01*
X47974Y-32834D01*
X47984Y-32886D01*
X48011Y-32927D01*
X48011Y-32932D01*
X48017Y-32932D01*
X48058Y-32960D01*
X48110Y-32970D01*
X52848Y-32970D01*
X52756Y-33062D01*
X52705Y-33185D01*
X52705Y-33317D01*
X52756Y-33440D01*
X52849Y-33534D01*
X52972Y-33585D01*
X53105Y-33585D01*
X53228Y-33534D01*
X53321Y-33441D01*
X53372Y-33318D01*
X53373Y-33185D01*
X53322Y-33063D01*
X53230Y-32970D01*
X53848Y-32970D01*
X53756Y-33062D01*
X53705Y-33185D01*
X53705Y-33317D01*
X53756Y-33440D01*
X53849Y-33534D01*
X53972Y-33585D01*
X54105Y-33585D01*
X54228Y-33534D01*
X54321Y-33441D01*
X54372Y-33318D01*
X54373Y-33185D01*
X54322Y-33063D01*
X54230Y-32970D01*
X54848Y-32970D01*
X54756Y-33062D01*
X54705Y-33185D01*
X54705Y-33317D01*
X54756Y-33440D01*
X54849Y-33534D01*
X54972Y-33585D01*
X55105Y-33585D01*
X55228Y-33534D01*
X55321Y-33441D01*
X55372Y-33318D01*
X55373Y-33185D01*
X55322Y-33063D01*
X55230Y-32970D01*
X55848Y-32970D01*
X55756Y-33062D01*
X55705Y-33185D01*
X55705Y-33317D01*
X55756Y-33440D01*
X55849Y-33534D01*
X55972Y-33585D01*
X56105Y-33585D01*
X56228Y-33534D01*
X56321Y-33441D01*
X56372Y-33318D01*
X56373Y-33185D01*
X56322Y-33063D01*
X56230Y-32970D01*
X56251Y-32970D01*
X56269Y-32988D01*
X56370Y-33030D01*
X56479Y-33030D01*
X56580Y-32988D01*
X56636Y-32932D01*
X56646Y-32932D01*
X56702Y-32988D01*
X56792Y-33026D01*
X56756Y-33062D01*
X56705Y-33185D01*
X56705Y-33317D01*
X56756Y-33440D01*
X56849Y-33534D01*
X56972Y-33585D01*
X57105Y-33585D01*
X57228Y-33534D01*
X57321Y-33441D01*
X57372Y-33318D01*
X57373Y-33185D01*
X57322Y-33063D01*
X57289Y-33030D01*
X57345Y-33030D01*
X57446Y-32988D01*
X57502Y-32932D01*
X57513Y-32932D01*
X57569Y-32988D01*
X57670Y-33030D01*
X57779Y-33030D01*
X57880Y-32988D01*
X57898Y-32970D01*
X64769Y-32970D01*
X64769Y-39330D01*
X64750Y-39338D01*
X64672Y-39415D01*
X64631Y-39516D01*
X64630Y-39625D01*
X64672Y-39726D01*
X64733Y-39787D01*
X64672Y-39848D01*
X64631Y-39949D01*
X64630Y-40058D01*
X64672Y-40159D01*
X64733Y-40220D01*
X64672Y-40281D01*
X64631Y-40382D01*
X64630Y-40491D01*
X64672Y-40592D01*
X64733Y-40653D01*
X64672Y-40714D01*
X64631Y-40815D01*
X64630Y-40924D01*
X64672Y-41025D01*
X64749Y-41102D01*
X64769Y-41110D01*
X64769Y-49592D01*
X64769Y-49592D01*
G37*
G54D27*
X64769Y-49592D02*
X64274Y-49592D01*
X64274Y-47941D01*
X64274Y-47344D01*
X64259Y-47308D01*
X64231Y-47280D01*
X64196Y-47265D01*
X64157Y-47265D01*
X63560Y-47265D01*
X63524Y-47280D01*
X63496Y-47308D01*
X63482Y-47343D01*
X63482Y-47382D01*
X63482Y-47979D01*
X63496Y-48015D01*
X63524Y-48042D01*
X63560Y-48057D01*
X63598Y-48057D01*
X64195Y-48057D01*
X64231Y-48043D01*
X64259Y-48015D01*
X64274Y-47979D01*
X64274Y-47941D01*
X64274Y-49592D01*
X63984Y-49592D01*
X64090Y-49548D01*
X64201Y-49437D01*
X64261Y-49291D01*
X64262Y-49134D01*
X64201Y-48988D01*
X64090Y-48876D01*
X63945Y-48816D01*
X63787Y-48816D01*
X63641Y-48876D01*
X63530Y-48987D01*
X63470Y-49133D01*
X63469Y-49290D01*
X63530Y-49436D01*
X63641Y-49547D01*
X63747Y-49592D01*
X63274Y-49592D01*
X63274Y-47563D01*
X63213Y-47417D01*
X63102Y-47306D01*
X62957Y-47245D01*
X62799Y-47245D01*
X62654Y-47305D01*
X62542Y-47417D01*
X62482Y-47562D01*
X62482Y-47720D01*
X62542Y-47865D01*
X62653Y-47977D01*
X62798Y-48037D01*
X62956Y-48037D01*
X63102Y-47977D01*
X63213Y-47866D01*
X63274Y-47720D01*
X63274Y-47563D01*
X63274Y-49592D01*
X62984Y-49592D01*
X63090Y-49548D01*
X63201Y-49437D01*
X63261Y-49291D01*
X63262Y-49134D01*
X63201Y-48988D01*
X63090Y-48876D01*
X62945Y-48816D01*
X62787Y-48816D01*
X62641Y-48876D01*
X62530Y-48987D01*
X62470Y-49133D01*
X62469Y-49290D01*
X62530Y-49436D01*
X62641Y-49547D01*
X62747Y-49592D01*
X62234Y-49592D01*
X62234Y-39764D01*
X62204Y-39692D01*
X62161Y-39649D01*
X62201Y-39610D01*
X62230Y-39538D01*
X62231Y-39461D01*
X62201Y-39389D01*
X62146Y-39334D01*
X62074Y-39305D01*
X61997Y-39304D01*
X61925Y-39334D01*
X61870Y-39389D01*
X61841Y-39461D01*
X61840Y-39538D01*
X61870Y-39610D01*
X61913Y-39653D01*
X61873Y-39692D01*
X61844Y-39764D01*
X61843Y-39841D01*
X61873Y-39913D01*
X61928Y-39968D01*
X62000Y-39997D01*
X62077Y-39998D01*
X62149Y-39968D01*
X62204Y-39913D01*
X62233Y-39841D01*
X62234Y-39764D01*
X62234Y-49592D01*
X62016Y-49592D01*
X62016Y-41979D01*
X61986Y-41907D01*
X61931Y-41852D01*
X61923Y-41849D01*
X61923Y-40607D01*
X61893Y-40535D01*
X61838Y-40480D01*
X61789Y-40460D01*
X61789Y-38044D01*
X61759Y-37972D01*
X61704Y-37917D01*
X61632Y-37888D01*
X61555Y-37887D01*
X61483Y-37917D01*
X61428Y-37972D01*
X61399Y-38044D01*
X61398Y-38121D01*
X61428Y-38193D01*
X61483Y-38248D01*
X61555Y-38277D01*
X61632Y-38278D01*
X61704Y-38248D01*
X61759Y-38193D01*
X61788Y-38121D01*
X61789Y-38044D01*
X61789Y-40460D01*
X61766Y-40451D01*
X61689Y-40450D01*
X61617Y-40480D01*
X61562Y-40535D01*
X61533Y-40607D01*
X61532Y-40684D01*
X61562Y-40756D01*
X61617Y-40811D01*
X61689Y-40840D01*
X61766Y-40841D01*
X61838Y-40811D01*
X61893Y-40756D01*
X61922Y-40684D01*
X61923Y-40607D01*
X61923Y-41849D01*
X61859Y-41823D01*
X61782Y-41822D01*
X61710Y-41852D01*
X61655Y-41907D01*
X61626Y-41979D01*
X61625Y-42056D01*
X61655Y-42128D01*
X61662Y-42135D01*
X61662Y-42167D01*
X61674Y-42228D01*
X61708Y-42279D01*
X61722Y-42293D01*
X61773Y-42327D01*
X61834Y-42339D01*
X61895Y-42327D01*
X61946Y-42293D01*
X61981Y-42241D01*
X61993Y-42181D01*
X61983Y-42131D01*
X61986Y-42128D01*
X62015Y-42056D01*
X62016Y-41979D01*
X62016Y-49592D01*
X61930Y-49592D01*
X61930Y-43169D01*
X61918Y-43108D01*
X61883Y-43057D01*
X61832Y-43022D01*
X61771Y-43010D01*
X61710Y-43022D01*
X61659Y-43057D01*
X61572Y-43143D01*
X61538Y-43195D01*
X61526Y-43255D01*
X61538Y-43316D01*
X61572Y-43367D01*
X61624Y-43402D01*
X61685Y-43414D01*
X61745Y-43402D01*
X61797Y-43367D01*
X61883Y-43281D01*
X61918Y-43229D01*
X61930Y-43169D01*
X61930Y-49592D01*
X61274Y-49592D01*
X61274Y-47563D01*
X61213Y-47417D01*
X61102Y-47306D01*
X60957Y-47245D01*
X60840Y-47245D01*
X60840Y-40555D01*
X60820Y-40505D01*
X60781Y-40467D01*
X60731Y-40446D01*
X60677Y-40446D01*
X60627Y-40467D01*
X60589Y-40505D01*
X60568Y-40555D01*
X60568Y-40609D01*
X60589Y-40659D01*
X60627Y-40697D01*
X60677Y-40718D01*
X60731Y-40718D01*
X60781Y-40698D01*
X60819Y-40659D01*
X60840Y-40609D01*
X60840Y-40555D01*
X60840Y-47245D01*
X60833Y-47245D01*
X60833Y-44606D01*
X60821Y-44578D01*
X60821Y-42425D01*
X60794Y-42361D01*
X60745Y-42311D01*
X60680Y-42284D01*
X60610Y-42284D01*
X60546Y-42311D01*
X60515Y-42342D01*
X60515Y-39209D01*
X60488Y-39144D01*
X60442Y-39098D01*
X60442Y-35447D01*
X60415Y-35382D01*
X60365Y-35332D01*
X60353Y-35327D01*
X60353Y-35095D01*
X60326Y-35030D01*
X60276Y-34980D01*
X60212Y-34954D01*
X60142Y-34953D01*
X60077Y-34980D01*
X60027Y-35030D01*
X60001Y-35094D01*
X60000Y-35164D01*
X60027Y-35229D01*
X60077Y-35279D01*
X60141Y-35305D01*
X60211Y-35306D01*
X60276Y-35279D01*
X60326Y-35229D01*
X60352Y-35165D01*
X60353Y-35095D01*
X60353Y-35327D01*
X60301Y-35306D01*
X60231Y-35305D01*
X60166Y-35332D01*
X60116Y-35382D01*
X60090Y-35446D01*
X60089Y-35516D01*
X60116Y-35581D01*
X60125Y-35590D01*
X60096Y-35619D01*
X60070Y-35683D01*
X60069Y-35753D01*
X60096Y-35818D01*
X60146Y-35868D01*
X60210Y-35894D01*
X60280Y-35895D01*
X60345Y-35868D01*
X60395Y-35818D01*
X60421Y-35754D01*
X60422Y-35684D01*
X60395Y-35619D01*
X60386Y-35610D01*
X60415Y-35581D01*
X60441Y-35517D01*
X60442Y-35447D01*
X60442Y-39098D01*
X60438Y-39094D01*
X60374Y-39068D01*
X60304Y-39067D01*
X60239Y-39094D01*
X60189Y-39144D01*
X60163Y-39208D01*
X60162Y-39278D01*
X60189Y-39343D01*
X60239Y-39393D01*
X60303Y-39419D01*
X60373Y-39420D01*
X60438Y-39393D01*
X60488Y-39343D01*
X60514Y-39279D01*
X60515Y-39209D01*
X60515Y-42342D01*
X60496Y-42360D01*
X60495Y-42364D01*
X60495Y-39949D01*
X60468Y-39884D01*
X60418Y-39834D01*
X60354Y-39808D01*
X60284Y-39807D01*
X60219Y-39834D01*
X60169Y-39884D01*
X60143Y-39948D01*
X60142Y-40018D01*
X60169Y-40083D01*
X60219Y-40133D01*
X60283Y-40159D01*
X60353Y-40160D01*
X60418Y-40133D01*
X60468Y-40083D01*
X60494Y-40019D01*
X60495Y-39949D01*
X60495Y-42364D01*
X60469Y-42425D01*
X60469Y-42495D01*
X60496Y-42560D01*
X60545Y-42609D01*
X60610Y-42636D01*
X60680Y-42636D01*
X60745Y-42609D01*
X60794Y-42560D01*
X60821Y-42495D01*
X60821Y-42425D01*
X60821Y-44578D01*
X60806Y-44542D01*
X60757Y-44492D01*
X60692Y-44465D01*
X60622Y-44465D01*
X60557Y-44492D01*
X60508Y-44541D01*
X60481Y-44606D01*
X60481Y-44676D01*
X60508Y-44741D01*
X60557Y-44790D01*
X60600Y-44808D01*
X60546Y-44831D01*
X60496Y-44880D01*
X60469Y-44945D01*
X60469Y-45015D01*
X60496Y-45079D01*
X60545Y-45129D01*
X60610Y-45156D01*
X60680Y-45156D01*
X60745Y-45129D01*
X60794Y-45080D01*
X60821Y-45015D01*
X60821Y-44945D01*
X60794Y-44880D01*
X60745Y-44831D01*
X60702Y-44813D01*
X60757Y-44791D01*
X60806Y-44741D01*
X60833Y-44676D01*
X60833Y-44606D01*
X60833Y-47245D01*
X60799Y-47245D01*
X60654Y-47305D01*
X60542Y-47417D01*
X60482Y-47562D01*
X60482Y-47720D01*
X60542Y-47865D01*
X60653Y-47977D01*
X60798Y-48037D01*
X60956Y-48037D01*
X61102Y-47977D01*
X61213Y-47866D01*
X61274Y-47720D01*
X61274Y-47563D01*
X61274Y-49592D01*
X60984Y-49592D01*
X61090Y-49548D01*
X61201Y-49437D01*
X61261Y-49291D01*
X61262Y-49134D01*
X61201Y-48988D01*
X61090Y-48876D01*
X60945Y-48816D01*
X60787Y-48816D01*
X60641Y-48876D01*
X60530Y-48987D01*
X60470Y-49133D01*
X60469Y-49290D01*
X60530Y-49436D01*
X60641Y-49547D01*
X60747Y-49592D01*
X60274Y-49592D01*
X60274Y-47563D01*
X60215Y-47420D01*
X60215Y-41402D01*
X60188Y-41337D01*
X60170Y-41319D01*
X60179Y-41310D01*
X60205Y-41246D01*
X60206Y-41176D01*
X60179Y-41111D01*
X60129Y-41061D01*
X60065Y-41035D01*
X60027Y-41034D01*
X60050Y-41025D01*
X60100Y-40975D01*
X60126Y-40911D01*
X60127Y-40841D01*
X60105Y-40787D01*
X60105Y-37776D01*
X60075Y-37704D01*
X60020Y-37649D01*
X59948Y-37620D01*
X59871Y-37619D01*
X59799Y-37649D01*
X59744Y-37704D01*
X59715Y-37776D01*
X59714Y-37853D01*
X59744Y-37925D01*
X59799Y-37980D01*
X59871Y-38009D01*
X59948Y-38010D01*
X60020Y-37980D01*
X60075Y-37925D01*
X60104Y-37853D01*
X60105Y-37776D01*
X60105Y-40787D01*
X60100Y-40776D01*
X60050Y-40726D01*
X59986Y-40700D01*
X59963Y-40700D01*
X59963Y-39835D01*
X59936Y-39770D01*
X59924Y-39758D01*
X59924Y-38985D01*
X59897Y-38920D01*
X59847Y-38870D01*
X59783Y-38844D01*
X59713Y-38843D01*
X59648Y-38870D01*
X59598Y-38920D01*
X59572Y-38984D01*
X59571Y-39054D01*
X59598Y-39119D01*
X59648Y-39169D01*
X59712Y-39195D01*
X59782Y-39196D01*
X59847Y-39169D01*
X59897Y-39119D01*
X59923Y-39055D01*
X59924Y-38985D01*
X59924Y-39758D01*
X59886Y-39720D01*
X59822Y-39694D01*
X59752Y-39693D01*
X59687Y-39720D01*
X59637Y-39770D01*
X59611Y-39834D01*
X59610Y-39904D01*
X59637Y-39969D01*
X59687Y-40019D01*
X59751Y-40045D01*
X59821Y-40046D01*
X59886Y-40019D01*
X59936Y-39969D01*
X59962Y-39905D01*
X59963Y-39835D01*
X59963Y-40700D01*
X59916Y-40699D01*
X59914Y-40700D01*
X59889Y-40640D01*
X59839Y-40590D01*
X59777Y-40565D01*
X59818Y-40524D01*
X59844Y-40460D01*
X59845Y-40390D01*
X59818Y-40325D01*
X59801Y-40308D01*
X59821Y-40260D01*
X59822Y-40190D01*
X59795Y-40125D01*
X59745Y-40075D01*
X59681Y-40049D01*
X59611Y-40048D01*
X59546Y-40075D01*
X59496Y-40125D01*
X59470Y-40189D01*
X59469Y-40259D01*
X59496Y-40324D01*
X59513Y-40341D01*
X59493Y-40389D01*
X59492Y-40459D01*
X59519Y-40524D01*
X59569Y-40574D01*
X59631Y-40599D01*
X59590Y-40640D01*
X59564Y-40704D01*
X59563Y-40774D01*
X59590Y-40839D01*
X59640Y-40889D01*
X59704Y-40915D01*
X59774Y-40916D01*
X59776Y-40915D01*
X59801Y-40975D01*
X59851Y-41025D01*
X59915Y-41051D01*
X59953Y-41052D01*
X59930Y-41061D01*
X59880Y-41111D01*
X59854Y-41175D01*
X59853Y-41245D01*
X59880Y-41310D01*
X59898Y-41328D01*
X59889Y-41337D01*
X59863Y-41401D01*
X59862Y-41471D01*
X59889Y-41536D01*
X59939Y-41586D01*
X60003Y-41612D01*
X60073Y-41613D01*
X60138Y-41586D01*
X60188Y-41536D01*
X60214Y-41472D01*
X60215Y-41402D01*
X60215Y-47420D01*
X60213Y-47417D01*
X60140Y-47344D01*
X60140Y-42154D01*
X60113Y-42089D01*
X60064Y-42039D01*
X59999Y-42013D01*
X59929Y-42012D01*
X59865Y-42039D01*
X59815Y-42089D01*
X59788Y-42153D01*
X59788Y-42223D01*
X59815Y-42288D01*
X59864Y-42338D01*
X59929Y-42364D01*
X59999Y-42365D01*
X60064Y-42338D01*
X60113Y-42288D01*
X60140Y-42224D01*
X60140Y-42154D01*
X60140Y-47344D01*
X60102Y-47306D01*
X60026Y-47274D01*
X60026Y-43579D01*
X59999Y-43514D01*
X59950Y-43465D01*
X59885Y-43438D01*
X59815Y-43438D01*
X59750Y-43464D01*
X59701Y-43514D01*
X59674Y-43579D01*
X59674Y-43649D01*
X59701Y-43713D01*
X59750Y-43763D01*
X59815Y-43790D01*
X59885Y-43790D01*
X59949Y-43763D01*
X59999Y-43713D01*
X60026Y-43649D01*
X60026Y-43579D01*
X60026Y-47274D01*
X59957Y-47245D01*
X59799Y-47245D01*
X59654Y-47305D01*
X59542Y-47417D01*
X59482Y-47562D01*
X59482Y-47720D01*
X59542Y-47865D01*
X59653Y-47977D01*
X59798Y-48037D01*
X59956Y-48037D01*
X60102Y-47977D01*
X60213Y-47866D01*
X60274Y-47720D01*
X60274Y-47563D01*
X60274Y-49592D01*
X60262Y-49592D01*
X60262Y-49471D01*
X60262Y-48874D01*
X60247Y-48838D01*
X60219Y-48811D01*
X60183Y-48796D01*
X60145Y-48796D01*
X59548Y-48796D01*
X59512Y-48811D01*
X59484Y-48838D01*
X59470Y-48874D01*
X59469Y-48913D01*
X59469Y-49510D01*
X59484Y-49546D01*
X59512Y-49573D01*
X59548Y-49588D01*
X59586Y-49588D01*
X60183Y-49588D01*
X60219Y-49573D01*
X60247Y-49546D01*
X60261Y-49510D01*
X60262Y-49471D01*
X60262Y-49592D01*
X59457Y-49592D01*
X59457Y-42032D01*
X59430Y-41967D01*
X59395Y-41932D01*
X59421Y-41906D01*
X59447Y-41842D01*
X59448Y-41772D01*
X59421Y-41707D01*
X59371Y-41657D01*
X59326Y-41638D01*
X59326Y-37937D01*
X59299Y-37872D01*
X59249Y-37822D01*
X59185Y-37796D01*
X59115Y-37795D01*
X59050Y-37822D01*
X59000Y-37872D01*
X58974Y-37936D01*
X58973Y-38006D01*
X59000Y-38071D01*
X59050Y-38121D01*
X59114Y-38147D01*
X59184Y-38148D01*
X59249Y-38121D01*
X59299Y-38071D01*
X59325Y-38007D01*
X59326Y-37937D01*
X59326Y-41638D01*
X59307Y-41631D01*
X59241Y-41630D01*
X59241Y-41079D01*
X59216Y-41017D01*
X59206Y-41008D01*
X59231Y-40948D01*
X59231Y-40882D01*
X59206Y-40820D01*
X59202Y-40817D01*
X59206Y-40813D01*
X59231Y-40752D01*
X59231Y-40686D01*
X59206Y-40624D01*
X59201Y-40620D01*
X59206Y-40616D01*
X59231Y-40555D01*
X59231Y-40489D01*
X59206Y-40427D01*
X59201Y-40423D01*
X59206Y-40419D01*
X59231Y-40358D01*
X59231Y-40292D01*
X59206Y-40230D01*
X59196Y-40221D01*
X59221Y-40161D01*
X59221Y-40095D01*
X59196Y-40034D01*
X59206Y-40025D01*
X59231Y-39964D01*
X59231Y-39898D01*
X59206Y-39836D01*
X59201Y-39832D01*
X59206Y-39828D01*
X59231Y-39767D01*
X59231Y-39701D01*
X59231Y-39308D01*
X59206Y-39246D01*
X59201Y-39242D01*
X59206Y-39238D01*
X59231Y-39177D01*
X59231Y-39111D01*
X59206Y-39049D01*
X59201Y-39045D01*
X59206Y-39041D01*
X59231Y-38980D01*
X59231Y-38914D01*
X59206Y-38852D01*
X59201Y-38848D01*
X59206Y-38844D01*
X59231Y-38783D01*
X59231Y-38717D01*
X59206Y-38655D01*
X59159Y-38608D01*
X59098Y-38583D01*
X59032Y-38583D01*
X58970Y-38608D01*
X58923Y-38655D01*
X58898Y-38716D01*
X58898Y-38782D01*
X58923Y-38844D01*
X58928Y-38848D01*
X58923Y-38852D01*
X58898Y-38913D01*
X58898Y-38979D01*
X58923Y-39041D01*
X58928Y-39045D01*
X58923Y-39049D01*
X58898Y-39110D01*
X58898Y-39176D01*
X58923Y-39238D01*
X58928Y-39242D01*
X58923Y-39246D01*
X58898Y-39307D01*
X58898Y-39373D01*
X58923Y-39435D01*
X58970Y-39482D01*
X59031Y-39507D01*
X59097Y-39507D01*
X59159Y-39482D01*
X59206Y-39435D01*
X59231Y-39374D01*
X59231Y-39308D01*
X59231Y-39701D01*
X59206Y-39639D01*
X59159Y-39592D01*
X59098Y-39567D01*
X59032Y-39567D01*
X58970Y-39592D01*
X58923Y-39639D01*
X58898Y-39700D01*
X58898Y-39766D01*
X58923Y-39828D01*
X58928Y-39832D01*
X58923Y-39836D01*
X58898Y-39897D01*
X58898Y-39963D01*
X58923Y-40024D01*
X58913Y-40033D01*
X58888Y-40094D01*
X58888Y-40160D01*
X58913Y-40222D01*
X58923Y-40231D01*
X58898Y-40291D01*
X58898Y-40357D01*
X58923Y-40419D01*
X58928Y-40423D01*
X58923Y-40427D01*
X58898Y-40488D01*
X58898Y-40554D01*
X58923Y-40616D01*
X58928Y-40620D01*
X58923Y-40624D01*
X58898Y-40685D01*
X58898Y-40751D01*
X58923Y-40813D01*
X58927Y-40816D01*
X58923Y-40820D01*
X58898Y-40881D01*
X58898Y-40947D01*
X58923Y-41009D01*
X58933Y-41018D01*
X58908Y-41078D01*
X58908Y-41144D01*
X58933Y-41205D01*
X58923Y-41214D01*
X58898Y-41275D01*
X58898Y-41341D01*
X58923Y-41403D01*
X58970Y-41450D01*
X59031Y-41475D01*
X59097Y-41475D01*
X59159Y-41450D01*
X59206Y-41403D01*
X59231Y-41342D01*
X59231Y-41276D01*
X59206Y-41215D01*
X59216Y-41206D01*
X59241Y-41145D01*
X59241Y-41079D01*
X59241Y-41630D01*
X59237Y-41630D01*
X59172Y-41657D01*
X59122Y-41707D01*
X59096Y-41771D01*
X59095Y-41841D01*
X59122Y-41906D01*
X59157Y-41941D01*
X59131Y-41967D01*
X59105Y-42031D01*
X59104Y-42101D01*
X59131Y-42166D01*
X59181Y-42216D01*
X59245Y-42242D01*
X59315Y-42243D01*
X59380Y-42216D01*
X59430Y-42166D01*
X59456Y-42102D01*
X59457Y-42032D01*
X59457Y-49592D01*
X58920Y-49592D01*
X58920Y-41874D01*
X58893Y-41809D01*
X58843Y-41760D01*
X58779Y-41733D01*
X58709Y-41733D01*
X58644Y-41760D01*
X58626Y-41778D01*
X58601Y-41767D01*
X58601Y-41306D01*
X58576Y-41244D01*
X58529Y-41197D01*
X58468Y-41172D01*
X58402Y-41172D01*
X58340Y-41197D01*
X58336Y-41202D01*
X58332Y-41197D01*
X58271Y-41172D01*
X58205Y-41172D01*
X58143Y-41197D01*
X58096Y-41244D01*
X58071Y-41305D01*
X58071Y-41371D01*
X58096Y-41433D01*
X58143Y-41480D01*
X58204Y-41505D01*
X58270Y-41505D01*
X58332Y-41480D01*
X58336Y-41475D01*
X58340Y-41480D01*
X58401Y-41505D01*
X58467Y-41505D01*
X58529Y-41480D01*
X58576Y-41433D01*
X58601Y-41372D01*
X58601Y-41306D01*
X58601Y-41767D01*
X58573Y-41756D01*
X58503Y-41756D01*
X58438Y-41782D01*
X58389Y-41832D01*
X58362Y-41896D01*
X58362Y-41966D01*
X58389Y-42031D01*
X58438Y-42081D01*
X58503Y-42108D01*
X58573Y-42108D01*
X58637Y-42081D01*
X58655Y-42063D01*
X58708Y-42085D01*
X58778Y-42085D01*
X58843Y-42058D01*
X58893Y-42009D01*
X58920Y-41944D01*
X58920Y-41874D01*
X58920Y-49592D01*
X58435Y-49592D01*
X58435Y-42721D01*
X58411Y-42663D01*
X58368Y-42619D01*
X58310Y-42595D01*
X58248Y-42595D01*
X58191Y-42619D01*
X58147Y-42663D01*
X58123Y-42720D01*
X58123Y-42782D01*
X58147Y-42840D01*
X58191Y-42884D01*
X58248Y-42907D01*
X58310Y-42907D01*
X58367Y-42884D01*
X58411Y-42840D01*
X58435Y-42783D01*
X58435Y-42721D01*
X58435Y-49592D01*
X58020Y-49592D01*
X58020Y-38687D01*
X57995Y-38625D01*
X57948Y-38578D01*
X57887Y-38553D01*
X57821Y-38553D01*
X57759Y-38578D01*
X57712Y-38625D01*
X57687Y-38686D01*
X57687Y-38752D01*
X57712Y-38814D01*
X57759Y-38861D01*
X57820Y-38886D01*
X57886Y-38886D01*
X57948Y-38861D01*
X57995Y-38814D01*
X58020Y-38753D01*
X58020Y-38687D01*
X58020Y-49592D01*
X57938Y-49592D01*
X57881Y-49535D01*
X57780Y-49493D01*
X57671Y-49493D01*
X57641Y-49506D01*
X57641Y-41902D01*
X57614Y-41837D01*
X57564Y-41787D01*
X57500Y-41761D01*
X57430Y-41760D01*
X57420Y-41764D01*
X57420Y-41306D01*
X57395Y-41244D01*
X57348Y-41197D01*
X57287Y-41172D01*
X57221Y-41172D01*
X57159Y-41197D01*
X57155Y-41202D01*
X57151Y-41197D01*
X57090Y-41172D01*
X57024Y-41172D01*
X56962Y-41197D01*
X56958Y-41202D01*
X56954Y-41197D01*
X56893Y-41172D01*
X56827Y-41172D01*
X56765Y-41197D01*
X56761Y-41202D01*
X56757Y-41197D01*
X56696Y-41172D01*
X56630Y-41172D01*
X56584Y-41191D01*
X56603Y-41145D01*
X56603Y-41079D01*
X56578Y-41017D01*
X56573Y-41013D01*
X56578Y-41009D01*
X56603Y-40948D01*
X56603Y-40882D01*
X56578Y-40820D01*
X56574Y-40817D01*
X56578Y-40813D01*
X56603Y-40752D01*
X56603Y-40686D01*
X56578Y-40624D01*
X56573Y-40620D01*
X56578Y-40616D01*
X56603Y-40555D01*
X56603Y-40489D01*
X56578Y-40427D01*
X56573Y-40423D01*
X56578Y-40419D01*
X56603Y-40358D01*
X56603Y-40292D01*
X56578Y-40230D01*
X56573Y-40226D01*
X56578Y-40222D01*
X56603Y-40161D01*
X56603Y-40095D01*
X56578Y-40033D01*
X56573Y-40029D01*
X56578Y-40025D01*
X56603Y-39964D01*
X56603Y-39898D01*
X56578Y-39836D01*
X56573Y-39832D01*
X56578Y-39828D01*
X56603Y-39767D01*
X56603Y-39701D01*
X56578Y-39639D01*
X56573Y-39635D01*
X56578Y-39631D01*
X56603Y-39570D01*
X56603Y-39504D01*
X56578Y-39442D01*
X56574Y-39439D01*
X56578Y-39435D01*
X56603Y-39374D01*
X56603Y-39308D01*
X56578Y-39246D01*
X56573Y-39242D01*
X56578Y-39238D01*
X56603Y-39177D01*
X56603Y-39111D01*
X56578Y-39049D01*
X56573Y-39045D01*
X56578Y-39041D01*
X56603Y-38980D01*
X56603Y-38914D01*
X56578Y-38852D01*
X56573Y-38848D01*
X56574Y-38848D01*
X56578Y-38852D01*
X56639Y-38877D01*
X56705Y-38877D01*
X56766Y-38852D01*
X56775Y-38861D01*
X56836Y-38886D01*
X56902Y-38886D01*
X56964Y-38861D01*
X56968Y-38856D01*
X56972Y-38861D01*
X57033Y-38886D01*
X57099Y-38886D01*
X57161Y-38861D01*
X57208Y-38814D01*
X57233Y-38753D01*
X57233Y-38687D01*
X57208Y-38625D01*
X57161Y-38578D01*
X57100Y-38553D01*
X57034Y-38553D01*
X56972Y-38578D01*
X56968Y-38583D01*
X56964Y-38578D01*
X56903Y-38553D01*
X56837Y-38553D01*
X56776Y-38578D01*
X56767Y-38569D01*
X56751Y-38563D01*
X56751Y-38095D01*
X56724Y-38030D01*
X56674Y-37980D01*
X56610Y-37954D01*
X56540Y-37953D01*
X56475Y-37980D01*
X56450Y-38005D01*
X56418Y-37972D01*
X56354Y-37946D01*
X56284Y-37945D01*
X56219Y-37972D01*
X56169Y-38022D01*
X56159Y-38046D01*
X56160Y-37981D01*
X56157Y-37973D01*
X56157Y-37351D01*
X56130Y-37286D01*
X56080Y-37236D01*
X56016Y-37210D01*
X55946Y-37209D01*
X55881Y-37236D01*
X55831Y-37286D01*
X55814Y-37329D01*
X55814Y-36721D01*
X55787Y-36656D01*
X55737Y-36606D01*
X55673Y-36580D01*
X55603Y-36579D01*
X55538Y-36606D01*
X55488Y-36656D01*
X55462Y-36720D01*
X55461Y-36790D01*
X55488Y-36855D01*
X55538Y-36905D01*
X55602Y-36931D01*
X55672Y-36932D01*
X55737Y-36905D01*
X55787Y-36855D01*
X55813Y-36791D01*
X55814Y-36721D01*
X55814Y-37329D01*
X55805Y-37350D01*
X55804Y-37420D01*
X55831Y-37485D01*
X55881Y-37535D01*
X55945Y-37561D01*
X56015Y-37562D01*
X56080Y-37535D01*
X56130Y-37485D01*
X56156Y-37421D01*
X56157Y-37351D01*
X56157Y-37973D01*
X56133Y-37916D01*
X56083Y-37866D01*
X56019Y-37840D01*
X55949Y-37839D01*
X55884Y-37866D01*
X55834Y-37916D01*
X55808Y-37980D01*
X55807Y-38050D01*
X55834Y-38115D01*
X55884Y-38165D01*
X55948Y-38191D01*
X56018Y-38192D01*
X56083Y-38165D01*
X56133Y-38115D01*
X56143Y-38091D01*
X56142Y-38156D01*
X56169Y-38221D01*
X56219Y-38271D01*
X56283Y-38297D01*
X56353Y-38298D01*
X56418Y-38271D01*
X56443Y-38246D01*
X56475Y-38279D01*
X56539Y-38305D01*
X56609Y-38306D01*
X56674Y-38279D01*
X56724Y-38229D01*
X56750Y-38165D01*
X56751Y-38095D01*
X56751Y-38563D01*
X56706Y-38544D01*
X56640Y-38544D01*
X56578Y-38569D01*
X56535Y-38612D01*
X56531Y-38608D01*
X56470Y-38583D01*
X56404Y-38583D01*
X56342Y-38608D01*
X56295Y-38655D01*
X56270Y-38716D01*
X56270Y-38782D01*
X56295Y-38844D01*
X56300Y-38848D01*
X56295Y-38852D01*
X56270Y-38913D01*
X56270Y-38979D01*
X56295Y-39041D01*
X56300Y-39045D01*
X56295Y-39049D01*
X56270Y-39110D01*
X56270Y-39176D01*
X56295Y-39238D01*
X56300Y-39242D01*
X56295Y-39246D01*
X56270Y-39307D01*
X56270Y-39373D01*
X56295Y-39435D01*
X56299Y-39438D01*
X56295Y-39442D01*
X56270Y-39503D01*
X56270Y-39569D01*
X56295Y-39631D01*
X56300Y-39635D01*
X56295Y-39639D01*
X56270Y-39700D01*
X56270Y-39766D01*
X56295Y-39828D01*
X56300Y-39832D01*
X56295Y-39836D01*
X56270Y-39897D01*
X56270Y-39963D01*
X56295Y-40025D01*
X56300Y-40029D01*
X56295Y-40033D01*
X56270Y-40094D01*
X56270Y-40160D01*
X56295Y-40222D01*
X56300Y-40226D01*
X56295Y-40230D01*
X56270Y-40291D01*
X56270Y-40357D01*
X56295Y-40419D01*
X56300Y-40423D01*
X56295Y-40427D01*
X56270Y-40488D01*
X56270Y-40554D01*
X56295Y-40616D01*
X56300Y-40620D01*
X56295Y-40624D01*
X56270Y-40685D01*
X56270Y-40751D01*
X56295Y-40813D01*
X56299Y-40816D01*
X56295Y-40820D01*
X56270Y-40881D01*
X56270Y-40947D01*
X56295Y-41009D01*
X56300Y-41013D01*
X56295Y-41017D01*
X56270Y-41078D01*
X56270Y-41144D01*
X56295Y-41206D01*
X56305Y-41215D01*
X56280Y-41275D01*
X56280Y-41341D01*
X56305Y-41403D01*
X56352Y-41450D01*
X56413Y-41475D01*
X56479Y-41475D01*
X56539Y-41450D01*
X56568Y-41480D01*
X56629Y-41505D01*
X56695Y-41505D01*
X56757Y-41480D01*
X56761Y-41475D01*
X56765Y-41480D01*
X56826Y-41505D01*
X56892Y-41505D01*
X56954Y-41480D01*
X56958Y-41475D01*
X56962Y-41480D01*
X57023Y-41505D01*
X57089Y-41505D01*
X57151Y-41480D01*
X57155Y-41475D01*
X57159Y-41480D01*
X57220Y-41505D01*
X57286Y-41505D01*
X57348Y-41480D01*
X57395Y-41433D01*
X57420Y-41372D01*
X57420Y-41306D01*
X57420Y-41764D01*
X57365Y-41787D01*
X57315Y-41837D01*
X57289Y-41901D01*
X57289Y-41915D01*
X57240Y-41895D01*
X57170Y-41894D01*
X57105Y-41921D01*
X57087Y-41940D01*
X57056Y-41909D01*
X56992Y-41883D01*
X56922Y-41882D01*
X56857Y-41909D01*
X56807Y-41959D01*
X56781Y-42023D01*
X56780Y-42093D01*
X56807Y-42158D01*
X56857Y-42208D01*
X56921Y-42234D01*
X56991Y-42235D01*
X57056Y-42208D01*
X57074Y-42189D01*
X57105Y-42220D01*
X57151Y-42239D01*
X57151Y-42259D01*
X57174Y-42316D01*
X57218Y-42360D01*
X57275Y-42384D01*
X57337Y-42384D01*
X57395Y-42360D01*
X57439Y-42316D01*
X57463Y-42259D01*
X57463Y-42197D01*
X57439Y-42140D01*
X57399Y-42100D01*
X57429Y-42112D01*
X57499Y-42113D01*
X57564Y-42086D01*
X57614Y-42036D01*
X57640Y-41972D01*
X57641Y-41902D01*
X57641Y-49506D01*
X57570Y-49535D01*
X57508Y-49596D01*
X57447Y-49535D01*
X57346Y-49493D01*
X57237Y-49493D01*
X57136Y-49535D01*
X57075Y-49596D01*
X57014Y-49535D01*
X56978Y-49520D01*
X56978Y-43134D01*
X56948Y-43062D01*
X56893Y-43007D01*
X56821Y-42978D01*
X56744Y-42977D01*
X56672Y-43007D01*
X56617Y-43062D01*
X56588Y-43134D01*
X56587Y-43211D01*
X56617Y-43283D01*
X56672Y-43338D01*
X56744Y-43367D01*
X56821Y-43368D01*
X56893Y-43338D01*
X56948Y-43283D01*
X56977Y-43211D01*
X56978Y-43134D01*
X56978Y-49520D01*
X56913Y-49493D01*
X56804Y-49493D01*
X56703Y-49535D01*
X56642Y-49596D01*
X56581Y-49535D01*
X56573Y-49531D01*
X56573Y-43936D01*
X56543Y-43864D01*
X56488Y-43809D01*
X56479Y-43805D01*
X56479Y-41902D01*
X56452Y-41837D01*
X56402Y-41787D01*
X56338Y-41761D01*
X56268Y-41760D01*
X56203Y-41787D01*
X56153Y-41837D01*
X56127Y-41901D01*
X56126Y-41971D01*
X56153Y-42036D01*
X56203Y-42086D01*
X56267Y-42112D01*
X56337Y-42113D01*
X56402Y-42086D01*
X56452Y-42036D01*
X56478Y-41972D01*
X56479Y-41902D01*
X56479Y-43805D01*
X56436Y-43787D01*
X56436Y-42918D01*
X56409Y-42853D01*
X56359Y-42803D01*
X56295Y-42777D01*
X56225Y-42776D01*
X56160Y-42803D01*
X56110Y-42853D01*
X56109Y-42857D01*
X56109Y-38493D01*
X56082Y-38428D01*
X56032Y-38378D01*
X55968Y-38352D01*
X55898Y-38351D01*
X55833Y-38378D01*
X55783Y-38428D01*
X55757Y-38492D01*
X55756Y-38562D01*
X55783Y-38627D01*
X55833Y-38677D01*
X55897Y-38703D01*
X55967Y-38704D01*
X56032Y-38677D01*
X56082Y-38627D01*
X56108Y-38563D01*
X56109Y-38493D01*
X56109Y-42857D01*
X56084Y-42917D01*
X56083Y-42987D01*
X56110Y-43052D01*
X56160Y-43102D01*
X56224Y-43128D01*
X56294Y-43129D01*
X56359Y-43102D01*
X56409Y-43052D01*
X56435Y-42988D01*
X56436Y-42918D01*
X56436Y-43787D01*
X56416Y-43780D01*
X56339Y-43779D01*
X56267Y-43809D01*
X56239Y-43837D01*
X56212Y-43809D01*
X56140Y-43780D01*
X56066Y-43779D01*
X56066Y-40981D01*
X56039Y-40916D01*
X56007Y-40884D01*
X56007Y-39012D01*
X55980Y-38947D01*
X55930Y-38897D01*
X55866Y-38871D01*
X55796Y-38870D01*
X55731Y-38897D01*
X55702Y-38926D01*
X55654Y-38878D01*
X55590Y-38852D01*
X55520Y-38851D01*
X55475Y-38870D01*
X55475Y-38193D01*
X55448Y-38128D01*
X55398Y-38078D01*
X55334Y-38052D01*
X55264Y-38051D01*
X55199Y-38078D01*
X55149Y-38128D01*
X55144Y-38142D01*
X55144Y-37304D01*
X55114Y-37232D01*
X55059Y-37177D01*
X54987Y-37148D01*
X54912Y-37147D01*
X54912Y-36296D01*
X54885Y-36231D01*
X54849Y-36195D01*
X54870Y-36174D01*
X54896Y-36110D01*
X54897Y-36040D01*
X54870Y-35975D01*
X54820Y-35925D01*
X54756Y-35899D01*
X54686Y-35898D01*
X54621Y-35925D01*
X54571Y-35975D01*
X54545Y-36039D01*
X54544Y-36109D01*
X54571Y-36174D01*
X54607Y-36210D01*
X54586Y-36231D01*
X54560Y-36295D01*
X54559Y-36365D01*
X54586Y-36430D01*
X54636Y-36480D01*
X54700Y-36506D01*
X54770Y-36507D01*
X54835Y-36480D01*
X54885Y-36430D01*
X54911Y-36366D01*
X54912Y-36296D01*
X54912Y-37147D01*
X54910Y-37147D01*
X54838Y-37177D01*
X54783Y-37232D01*
X54754Y-37304D01*
X54753Y-37381D01*
X54783Y-37453D01*
X54838Y-37508D01*
X54910Y-37537D01*
X54987Y-37538D01*
X55059Y-37508D01*
X55114Y-37453D01*
X55143Y-37381D01*
X55144Y-37304D01*
X55144Y-38142D01*
X55123Y-38192D01*
X55122Y-38262D01*
X55149Y-38327D01*
X55199Y-38377D01*
X55263Y-38403D01*
X55333Y-38404D01*
X55398Y-38377D01*
X55448Y-38327D01*
X55474Y-38263D01*
X55475Y-38193D01*
X55475Y-38870D01*
X55455Y-38878D01*
X55405Y-38928D01*
X55379Y-38992D01*
X55378Y-39062D01*
X55405Y-39127D01*
X55455Y-39177D01*
X55519Y-39203D01*
X55589Y-39204D01*
X55654Y-39177D01*
X55683Y-39148D01*
X55731Y-39196D01*
X55795Y-39222D01*
X55865Y-39223D01*
X55930Y-39196D01*
X55980Y-39146D01*
X56006Y-39082D01*
X56007Y-39012D01*
X56007Y-40884D01*
X55989Y-40866D01*
X55948Y-40849D01*
X55948Y-40197D01*
X55921Y-40132D01*
X55912Y-40123D01*
X55912Y-39796D01*
X55885Y-39731D01*
X55885Y-39731D01*
X55885Y-39410D01*
X55858Y-39345D01*
X55808Y-39295D01*
X55744Y-39269D01*
X55674Y-39268D01*
X55609Y-39295D01*
X55559Y-39345D01*
X55533Y-39409D01*
X55532Y-39479D01*
X55559Y-39544D01*
X55609Y-39594D01*
X55673Y-39620D01*
X55743Y-39621D01*
X55808Y-39594D01*
X55858Y-39544D01*
X55884Y-39480D01*
X55885Y-39410D01*
X55885Y-39731D01*
X55835Y-39681D01*
X55771Y-39655D01*
X55701Y-39654D01*
X55636Y-39681D01*
X55586Y-39731D01*
X55570Y-39771D01*
X55570Y-39603D01*
X55543Y-39538D01*
X55493Y-39488D01*
X55429Y-39462D01*
X55359Y-39461D01*
X55294Y-39488D01*
X55244Y-39538D01*
X55218Y-39602D01*
X55217Y-39672D01*
X55244Y-39737D01*
X55294Y-39787D01*
X55358Y-39813D01*
X55428Y-39814D01*
X55493Y-39787D01*
X55543Y-39737D01*
X55569Y-39673D01*
X55570Y-39603D01*
X55570Y-39771D01*
X55560Y-39795D01*
X55559Y-39865D01*
X55586Y-39930D01*
X55636Y-39980D01*
X55700Y-40006D01*
X55770Y-40007D01*
X55835Y-39980D01*
X55885Y-39930D01*
X55911Y-39866D01*
X55912Y-39796D01*
X55912Y-40123D01*
X55871Y-40082D01*
X55807Y-40056D01*
X55737Y-40055D01*
X55672Y-40082D01*
X55622Y-40132D01*
X55596Y-40196D01*
X55595Y-40266D01*
X55622Y-40331D01*
X55672Y-40381D01*
X55736Y-40407D01*
X55806Y-40408D01*
X55871Y-40381D01*
X55921Y-40331D01*
X55947Y-40267D01*
X55948Y-40197D01*
X55948Y-40849D01*
X55925Y-40840D01*
X55877Y-40839D01*
X55877Y-40583D01*
X55850Y-40518D01*
X55800Y-40468D01*
X55736Y-40442D01*
X55666Y-40441D01*
X55601Y-40468D01*
X55551Y-40518D01*
X55525Y-40582D01*
X55524Y-40652D01*
X55551Y-40717D01*
X55601Y-40767D01*
X55665Y-40793D01*
X55735Y-40794D01*
X55800Y-40767D01*
X55850Y-40717D01*
X55876Y-40653D01*
X55877Y-40583D01*
X55877Y-40839D01*
X55855Y-40839D01*
X55790Y-40866D01*
X55740Y-40916D01*
X55714Y-40980D01*
X55713Y-41050D01*
X55740Y-41115D01*
X55790Y-41165D01*
X55854Y-41191D01*
X55924Y-41192D01*
X55989Y-41165D01*
X56039Y-41115D01*
X56065Y-41051D01*
X56066Y-40981D01*
X56066Y-43779D01*
X56063Y-43779D01*
X55991Y-43809D01*
X55991Y-43810D01*
X55991Y-41371D01*
X55964Y-41306D01*
X55914Y-41256D01*
X55850Y-41230D01*
X55780Y-41229D01*
X55715Y-41256D01*
X55665Y-41306D01*
X55639Y-41370D01*
X55638Y-41440D01*
X55665Y-41505D01*
X55715Y-41555D01*
X55779Y-41581D01*
X55849Y-41582D01*
X55914Y-41555D01*
X55964Y-41505D01*
X55990Y-41441D01*
X55991Y-41371D01*
X55991Y-43810D01*
X55943Y-43858D01*
X55943Y-43473D01*
X55913Y-43401D01*
X55881Y-43369D01*
X55881Y-41804D01*
X55854Y-41739D01*
X55804Y-41689D01*
X55740Y-41663D01*
X55670Y-41662D01*
X55605Y-41689D01*
X55571Y-41723D01*
X55544Y-41696D01*
X55542Y-41695D01*
X55542Y-40784D01*
X55515Y-40719D01*
X55479Y-40683D01*
X55479Y-39997D01*
X55452Y-39932D01*
X55402Y-39882D01*
X55338Y-39856D01*
X55268Y-39855D01*
X55203Y-39882D01*
X55153Y-39932D01*
X55127Y-39996D01*
X55126Y-40066D01*
X55153Y-40131D01*
X55203Y-40181D01*
X55267Y-40207D01*
X55337Y-40208D01*
X55402Y-40181D01*
X55452Y-40131D01*
X55478Y-40067D01*
X55479Y-39997D01*
X55479Y-40683D01*
X55465Y-40669D01*
X55464Y-40669D01*
X55464Y-40386D01*
X55437Y-40321D01*
X55387Y-40271D01*
X55323Y-40245D01*
X55253Y-40244D01*
X55188Y-40271D01*
X55138Y-40321D01*
X55112Y-40385D01*
X55111Y-40455D01*
X55138Y-40520D01*
X55188Y-40570D01*
X55252Y-40596D01*
X55322Y-40597D01*
X55387Y-40570D01*
X55437Y-40520D01*
X55463Y-40456D01*
X55464Y-40386D01*
X55464Y-40669D01*
X55401Y-40643D01*
X55331Y-40642D01*
X55266Y-40669D01*
X55216Y-40719D01*
X55190Y-40783D01*
X55189Y-40853D01*
X55216Y-40918D01*
X55266Y-40968D01*
X55330Y-40994D01*
X55400Y-40995D01*
X55465Y-40968D01*
X55515Y-40918D01*
X55541Y-40854D01*
X55542Y-40784D01*
X55542Y-41695D01*
X55480Y-41670D01*
X55436Y-41669D01*
X55436Y-41174D01*
X55409Y-41109D01*
X55359Y-41059D01*
X55295Y-41033D01*
X55225Y-41032D01*
X55160Y-41059D01*
X55110Y-41109D01*
X55084Y-41173D01*
X55083Y-41243D01*
X55110Y-41308D01*
X55160Y-41358D01*
X55224Y-41384D01*
X55294Y-41385D01*
X55359Y-41358D01*
X55409Y-41308D01*
X55435Y-41244D01*
X55436Y-41174D01*
X55436Y-41669D01*
X55410Y-41669D01*
X55345Y-41696D01*
X55295Y-41746D01*
X55269Y-41810D01*
X55268Y-41880D01*
X55295Y-41945D01*
X55345Y-41995D01*
X55409Y-42021D01*
X55479Y-42022D01*
X55544Y-41995D01*
X55578Y-41961D01*
X55605Y-41988D01*
X55669Y-42014D01*
X55739Y-42015D01*
X55804Y-41988D01*
X55854Y-41938D01*
X55880Y-41874D01*
X55881Y-41804D01*
X55881Y-43369D01*
X55858Y-43346D01*
X55786Y-43317D01*
X55709Y-43316D01*
X55637Y-43346D01*
X55629Y-43355D01*
X55629Y-43032D01*
X55602Y-42967D01*
X55552Y-42917D01*
X55488Y-42891D01*
X55418Y-42890D01*
X55353Y-42917D01*
X55339Y-42932D01*
X55324Y-42917D01*
X55260Y-42891D01*
X55190Y-42890D01*
X55125Y-42917D01*
X55106Y-42936D01*
X55083Y-42913D01*
X55019Y-42887D01*
X54949Y-42886D01*
X54884Y-42913D01*
X54856Y-42941D01*
X54820Y-42905D01*
X54756Y-42879D01*
X54686Y-42878D01*
X54629Y-42902D01*
X54629Y-37284D01*
X54602Y-37219D01*
X54552Y-37169D01*
X54488Y-37143D01*
X54418Y-37142D01*
X54416Y-37143D01*
X54416Y-34402D01*
X54386Y-34330D01*
X54331Y-34275D01*
X54259Y-34246D01*
X54182Y-34245D01*
X54110Y-34275D01*
X54055Y-34330D01*
X54026Y-34402D01*
X54025Y-34479D01*
X54055Y-34551D01*
X54110Y-34606D01*
X54182Y-34635D01*
X54259Y-34636D01*
X54331Y-34606D01*
X54386Y-34551D01*
X54415Y-34479D01*
X54416Y-34402D01*
X54416Y-37143D01*
X54353Y-37169D01*
X54303Y-37219D01*
X54277Y-37283D01*
X54276Y-37353D01*
X54303Y-37418D01*
X54353Y-37468D01*
X54417Y-37494D01*
X54487Y-37495D01*
X54552Y-37468D01*
X54602Y-37418D01*
X54628Y-37354D01*
X54629Y-37284D01*
X54629Y-42902D01*
X54621Y-42905D01*
X54571Y-42955D01*
X54545Y-43019D01*
X54544Y-43089D01*
X54571Y-43154D01*
X54621Y-43204D01*
X54685Y-43230D01*
X54755Y-43231D01*
X54820Y-43204D01*
X54848Y-43176D01*
X54884Y-43212D01*
X54948Y-43238D01*
X55018Y-43239D01*
X55083Y-43212D01*
X55102Y-43193D01*
X55125Y-43216D01*
X55189Y-43242D01*
X55259Y-43243D01*
X55324Y-43216D01*
X55338Y-43201D01*
X55353Y-43216D01*
X55417Y-43242D01*
X55487Y-43243D01*
X55552Y-43216D01*
X55602Y-43166D01*
X55628Y-43102D01*
X55629Y-43032D01*
X55629Y-43355D01*
X55582Y-43401D01*
X55553Y-43473D01*
X55552Y-43550D01*
X55582Y-43622D01*
X55637Y-43677D01*
X55709Y-43706D01*
X55786Y-43707D01*
X55858Y-43677D01*
X55913Y-43622D01*
X55942Y-43550D01*
X55943Y-43473D01*
X55943Y-43858D01*
X55936Y-43864D01*
X55907Y-43936D01*
X55906Y-44013D01*
X55936Y-44085D01*
X55991Y-44140D01*
X56063Y-44169D01*
X56140Y-44170D01*
X56212Y-44140D01*
X56240Y-44112D01*
X56267Y-44140D01*
X56339Y-44169D01*
X56416Y-44170D01*
X56488Y-44140D01*
X56543Y-44085D01*
X56572Y-44013D01*
X56573Y-43936D01*
X56573Y-49531D01*
X56480Y-49493D01*
X56415Y-49493D01*
X56415Y-47637D01*
X56415Y-47204D01*
X56385Y-47132D01*
X56331Y-47077D01*
X56259Y-47048D01*
X56181Y-47048D01*
X56110Y-47077D01*
X56055Y-47132D01*
X56025Y-47204D01*
X56025Y-47281D01*
X56055Y-47353D01*
X56109Y-47408D01*
X56181Y-47438D01*
X56259Y-47438D01*
X56330Y-47408D01*
X56385Y-47353D01*
X56415Y-47282D01*
X56415Y-47204D01*
X56415Y-47637D01*
X56385Y-47565D01*
X56331Y-47510D01*
X56259Y-47481D01*
X56181Y-47481D01*
X56110Y-47510D01*
X56055Y-47565D01*
X56025Y-47637D01*
X56025Y-47714D01*
X56055Y-47786D01*
X56109Y-47841D01*
X56181Y-47871D01*
X56259Y-47871D01*
X56330Y-47841D01*
X56385Y-47786D01*
X56415Y-47715D01*
X56415Y-47637D01*
X56415Y-49493D01*
X56371Y-49493D01*
X56270Y-49535D01*
X56213Y-49592D01*
X55982Y-49592D01*
X55982Y-48070D01*
X55982Y-47637D01*
X55982Y-47203D01*
X55952Y-47131D01*
X55898Y-47076D01*
X55826Y-47047D01*
X55748Y-47047D01*
X55677Y-47076D01*
X55622Y-47131D01*
X55592Y-47203D01*
X55592Y-47280D01*
X55621Y-47352D01*
X55676Y-47407D01*
X55748Y-47437D01*
X55826Y-47437D01*
X55897Y-47407D01*
X55952Y-47352D01*
X55982Y-47281D01*
X55982Y-47203D01*
X55982Y-47637D01*
X55952Y-47565D01*
X55898Y-47510D01*
X55826Y-47481D01*
X55748Y-47481D01*
X55677Y-47510D01*
X55622Y-47565D01*
X55592Y-47637D01*
X55592Y-47714D01*
X55621Y-47786D01*
X55676Y-47841D01*
X55748Y-47871D01*
X55826Y-47871D01*
X55897Y-47841D01*
X55952Y-47786D01*
X55982Y-47715D01*
X55982Y-47637D01*
X55982Y-48070D01*
X55952Y-47998D01*
X55898Y-47944D01*
X55826Y-47914D01*
X55748Y-47914D01*
X55677Y-47943D01*
X55622Y-47998D01*
X55592Y-48070D01*
X55592Y-48147D01*
X55621Y-48219D01*
X55676Y-48274D01*
X55748Y-48304D01*
X55826Y-48304D01*
X55897Y-48274D01*
X55952Y-48219D01*
X55982Y-48148D01*
X55982Y-48070D01*
X55982Y-49592D01*
X55227Y-49592D01*
X55227Y-45237D01*
X55197Y-45165D01*
X55142Y-45110D01*
X55070Y-45081D01*
X54993Y-45080D01*
X54921Y-45110D01*
X54866Y-45165D01*
X54837Y-45237D01*
X54836Y-45314D01*
X54866Y-45386D01*
X54921Y-45441D01*
X54993Y-45470D01*
X55070Y-45471D01*
X55142Y-45441D01*
X55197Y-45386D01*
X55226Y-45314D01*
X55227Y-45237D01*
X55227Y-49592D01*
X54428Y-49592D01*
X54428Y-49586D01*
X54428Y-46830D01*
X54082Y-46830D01*
X54082Y-34808D01*
X54055Y-34743D01*
X54005Y-34693D01*
X53941Y-34667D01*
X53871Y-34666D01*
X53806Y-34693D01*
X53756Y-34743D01*
X53730Y-34807D01*
X53729Y-34877D01*
X53756Y-34942D01*
X53806Y-34992D01*
X53870Y-35018D01*
X53940Y-35019D01*
X54005Y-34992D01*
X54055Y-34942D01*
X54081Y-34878D01*
X54082Y-34808D01*
X54082Y-46830D01*
X53838Y-46830D01*
X53838Y-38520D01*
X53811Y-38455D01*
X53810Y-38455D01*
X53811Y-38454D01*
X53837Y-38390D01*
X53838Y-38320D01*
X53811Y-38255D01*
X53761Y-38205D01*
X53697Y-38179D01*
X53627Y-38178D01*
X53562Y-38205D01*
X53512Y-38255D01*
X53499Y-38288D01*
X53499Y-36418D01*
X53472Y-36353D01*
X53422Y-36303D01*
X53358Y-36277D01*
X53288Y-36276D01*
X53247Y-36293D01*
X53247Y-34827D01*
X53220Y-34762D01*
X53170Y-34712D01*
X53106Y-34686D01*
X53036Y-34685D01*
X52971Y-34712D01*
X52921Y-34762D01*
X52895Y-34826D01*
X52894Y-34896D01*
X52904Y-34918D01*
X52871Y-34918D01*
X52806Y-34945D01*
X52756Y-34995D01*
X52730Y-35059D01*
X52729Y-35129D01*
X52756Y-35194D01*
X52806Y-35244D01*
X52870Y-35270D01*
X52940Y-35271D01*
X53005Y-35244D01*
X53055Y-35194D01*
X53081Y-35130D01*
X53082Y-35060D01*
X53072Y-35038D01*
X53105Y-35038D01*
X53170Y-35011D01*
X53220Y-34961D01*
X53246Y-34897D01*
X53247Y-34827D01*
X53247Y-36293D01*
X53223Y-36303D01*
X53173Y-36353D01*
X53147Y-36417D01*
X53146Y-36487D01*
X53173Y-36552D01*
X53223Y-36602D01*
X53287Y-36628D01*
X53357Y-36629D01*
X53422Y-36602D01*
X53472Y-36552D01*
X53498Y-36488D01*
X53499Y-36418D01*
X53499Y-38288D01*
X53486Y-38319D01*
X53485Y-38389D01*
X53512Y-38454D01*
X53513Y-38454D01*
X53512Y-38455D01*
X53486Y-38519D01*
X53485Y-38589D01*
X53512Y-38654D01*
X53562Y-38704D01*
X53626Y-38730D01*
X53696Y-38731D01*
X53761Y-38704D01*
X53811Y-38654D01*
X53837Y-38590D01*
X53838Y-38520D01*
X53838Y-46830D01*
X53826Y-46830D01*
X53826Y-41501D01*
X53826Y-38946D01*
X53799Y-38881D01*
X53749Y-38831D01*
X53685Y-38805D01*
X53615Y-38804D01*
X53550Y-38831D01*
X53500Y-38881D01*
X53474Y-38945D01*
X53473Y-39015D01*
X53500Y-39080D01*
X53550Y-39130D01*
X53614Y-39156D01*
X53684Y-39157D01*
X53749Y-39130D01*
X53799Y-39080D01*
X53825Y-39016D01*
X53826Y-38946D01*
X53826Y-41501D01*
X53802Y-41443D01*
X53802Y-39335D01*
X53775Y-39270D01*
X53725Y-39220D01*
X53661Y-39194D01*
X53591Y-39193D01*
X53526Y-39220D01*
X53476Y-39270D01*
X53450Y-39334D01*
X53449Y-39404D01*
X53472Y-39459D01*
X53460Y-39471D01*
X53434Y-39535D01*
X53433Y-39605D01*
X53460Y-39670D01*
X53510Y-39720D01*
X53574Y-39746D01*
X53644Y-39747D01*
X53709Y-39720D01*
X53759Y-39670D01*
X53785Y-39606D01*
X53786Y-39536D01*
X53763Y-39481D01*
X53775Y-39469D01*
X53801Y-39405D01*
X53802Y-39335D01*
X53802Y-41443D01*
X53799Y-41436D01*
X53778Y-41415D01*
X53778Y-40524D01*
X53759Y-40478D01*
X53759Y-40166D01*
X53732Y-40101D01*
X53682Y-40051D01*
X53618Y-40025D01*
X53548Y-40024D01*
X53483Y-40051D01*
X53433Y-40101D01*
X53407Y-40165D01*
X53406Y-40235D01*
X53433Y-40300D01*
X53483Y-40350D01*
X53547Y-40376D01*
X53617Y-40377D01*
X53682Y-40350D01*
X53732Y-40300D01*
X53758Y-40236D01*
X53759Y-40166D01*
X53759Y-40478D01*
X53751Y-40459D01*
X53701Y-40409D01*
X53637Y-40383D01*
X53567Y-40382D01*
X53502Y-40409D01*
X53452Y-40459D01*
X53426Y-40523D01*
X53425Y-40593D01*
X53452Y-40658D01*
X53502Y-40708D01*
X53566Y-40734D01*
X53636Y-40735D01*
X53701Y-40708D01*
X53751Y-40658D01*
X53777Y-40594D01*
X53778Y-40524D01*
X53778Y-41415D01*
X53749Y-41386D01*
X53706Y-41369D01*
X53740Y-41335D01*
X53766Y-41271D01*
X53767Y-41201D01*
X53740Y-41136D01*
X53738Y-41134D01*
X53762Y-41075D01*
X53763Y-41005D01*
X53736Y-40940D01*
X53686Y-40890D01*
X53622Y-40864D01*
X53552Y-40863D01*
X53487Y-40890D01*
X53437Y-40940D01*
X53411Y-41004D01*
X53410Y-41074D01*
X53437Y-41139D01*
X53439Y-41141D01*
X53415Y-41200D01*
X53414Y-41270D01*
X53441Y-41335D01*
X53491Y-41385D01*
X53534Y-41402D01*
X53500Y-41436D01*
X53474Y-41500D01*
X53473Y-41570D01*
X53500Y-41635D01*
X53550Y-41685D01*
X53614Y-41711D01*
X53684Y-41712D01*
X53749Y-41685D01*
X53799Y-41635D01*
X53825Y-41571D01*
X53826Y-41501D01*
X53826Y-46830D01*
X53755Y-46830D01*
X53755Y-42087D01*
X53728Y-42023D01*
X53754Y-41960D01*
X53755Y-41890D01*
X53728Y-41825D01*
X53678Y-41775D01*
X53614Y-41749D01*
X53544Y-41748D01*
X53479Y-41775D01*
X53429Y-41825D01*
X53403Y-41889D01*
X53402Y-41959D01*
X53429Y-42023D01*
X53403Y-42086D01*
X53402Y-42156D01*
X53429Y-42221D01*
X53479Y-42271D01*
X53543Y-42297D01*
X53613Y-42298D01*
X53678Y-42271D01*
X53728Y-42221D01*
X53754Y-42157D01*
X53755Y-42087D01*
X53755Y-46830D01*
X53046Y-46830D01*
X53046Y-37292D01*
X53046Y-36717D01*
X53019Y-36652D01*
X52969Y-36602D01*
X52905Y-36576D01*
X52835Y-36575D01*
X52770Y-36602D01*
X52720Y-36652D01*
X52694Y-36716D01*
X52693Y-36786D01*
X52720Y-36851D01*
X52770Y-36901D01*
X52834Y-36927D01*
X52904Y-36928D01*
X52969Y-36901D01*
X53019Y-36851D01*
X53045Y-36787D01*
X53046Y-36717D01*
X53046Y-37292D01*
X53019Y-37227D01*
X52969Y-37177D01*
X52905Y-37151D01*
X52835Y-37150D01*
X52770Y-37177D01*
X52720Y-37227D01*
X52694Y-37291D01*
X52693Y-37337D01*
X52681Y-37332D01*
X52611Y-37331D01*
X52546Y-37358D01*
X52496Y-37408D01*
X52470Y-37472D01*
X52469Y-37542D01*
X52496Y-37607D01*
X52540Y-37650D01*
X52508Y-37650D01*
X52443Y-37677D01*
X52393Y-37727D01*
X52369Y-37787D01*
X52369Y-35855D01*
X52342Y-35790D01*
X52292Y-35740D01*
X52228Y-35714D01*
X52158Y-35713D01*
X52093Y-35740D01*
X52073Y-35760D01*
X52073Y-35547D01*
X52049Y-35490D01*
X52005Y-35446D01*
X51948Y-35422D01*
X51886Y-35422D01*
X51845Y-35439D01*
X51845Y-35253D01*
X51818Y-35188D01*
X51768Y-35138D01*
X51704Y-35112D01*
X51634Y-35111D01*
X51569Y-35138D01*
X51519Y-35188D01*
X51493Y-35252D01*
X51492Y-35322D01*
X51519Y-35387D01*
X51569Y-35437D01*
X51633Y-35463D01*
X51703Y-35464D01*
X51768Y-35437D01*
X51818Y-35387D01*
X51844Y-35323D01*
X51845Y-35253D01*
X51845Y-35439D01*
X51829Y-35446D01*
X51785Y-35490D01*
X51761Y-35547D01*
X51761Y-35609D01*
X51784Y-35666D01*
X51828Y-35710D01*
X51886Y-35734D01*
X51948Y-35734D01*
X52005Y-35711D01*
X52049Y-35667D01*
X52073Y-35609D01*
X52073Y-35547D01*
X52073Y-35760D01*
X52043Y-35790D01*
X52017Y-35854D01*
X52016Y-35924D01*
X52043Y-35989D01*
X52093Y-36039D01*
X52157Y-36065D01*
X52227Y-36066D01*
X52292Y-36039D01*
X52342Y-35989D01*
X52368Y-35925D01*
X52369Y-35855D01*
X52369Y-37787D01*
X52367Y-37791D01*
X52366Y-37861D01*
X52393Y-37926D01*
X52443Y-37976D01*
X52474Y-37988D01*
X52416Y-38012D01*
X52366Y-38062D01*
X52340Y-38126D01*
X52339Y-38196D01*
X52366Y-38261D01*
X52416Y-38311D01*
X52480Y-38337D01*
X52550Y-38338D01*
X52615Y-38311D01*
X52665Y-38261D01*
X52691Y-38197D01*
X52692Y-38127D01*
X52665Y-38062D01*
X52615Y-38012D01*
X52584Y-38000D01*
X52642Y-37976D01*
X52692Y-37926D01*
X52718Y-37862D01*
X52719Y-37792D01*
X52692Y-37727D01*
X52648Y-37684D01*
X52680Y-37684D01*
X52745Y-37657D01*
X52795Y-37607D01*
X52821Y-37543D01*
X52822Y-37497D01*
X52834Y-37502D01*
X52904Y-37503D01*
X52969Y-37476D01*
X53019Y-37426D01*
X53045Y-37362D01*
X53046Y-37292D01*
X53046Y-46830D01*
X52711Y-46830D01*
X52711Y-41697D01*
X52684Y-41632D01*
X52641Y-41589D01*
X52641Y-41008D01*
X52614Y-40943D01*
X52578Y-40907D01*
X52578Y-39780D01*
X52562Y-39741D01*
X52562Y-39146D01*
X52542Y-39097D01*
X52542Y-38737D01*
X52515Y-38672D01*
X52465Y-38622D01*
X52401Y-38596D01*
X52331Y-38595D01*
X52266Y-38622D01*
X52216Y-38672D01*
X52190Y-38736D01*
X52189Y-38806D01*
X52216Y-38871D01*
X52266Y-38921D01*
X52330Y-38947D01*
X52400Y-38948D01*
X52465Y-38921D01*
X52515Y-38871D01*
X52541Y-38807D01*
X52542Y-38737D01*
X52542Y-39097D01*
X52535Y-39081D01*
X52485Y-39031D01*
X52421Y-39005D01*
X52351Y-39004D01*
X52286Y-39031D01*
X52236Y-39081D01*
X52210Y-39145D01*
X52209Y-39215D01*
X52236Y-39280D01*
X52286Y-39330D01*
X52350Y-39356D01*
X52420Y-39357D01*
X52485Y-39330D01*
X52535Y-39280D01*
X52561Y-39216D01*
X52562Y-39146D01*
X52562Y-39741D01*
X52551Y-39715D01*
X52501Y-39665D01*
X52437Y-39639D01*
X52367Y-39638D01*
X52302Y-39665D01*
X52252Y-39715D01*
X52226Y-39779D01*
X52225Y-39839D01*
X52197Y-39839D01*
X52132Y-39866D01*
X52082Y-39916D01*
X52056Y-39980D01*
X52055Y-40050D01*
X52082Y-40115D01*
X52132Y-40165D01*
X52196Y-40191D01*
X52266Y-40192D01*
X52331Y-40165D01*
X52381Y-40115D01*
X52407Y-40051D01*
X52408Y-39991D01*
X52436Y-39991D01*
X52501Y-39964D01*
X52551Y-39914D01*
X52577Y-39850D01*
X52578Y-39780D01*
X52578Y-40907D01*
X52564Y-40893D01*
X52500Y-40867D01*
X52451Y-40866D01*
X52452Y-40812D01*
X52425Y-40747D01*
X52382Y-40704D01*
X52388Y-40689D01*
X52389Y-40619D01*
X52362Y-40554D01*
X52349Y-40541D01*
X52397Y-40493D01*
X52423Y-40429D01*
X52424Y-40359D01*
X52397Y-40294D01*
X52347Y-40244D01*
X52283Y-40218D01*
X52213Y-40217D01*
X52148Y-40244D01*
X52098Y-40294D01*
X52072Y-40358D01*
X52071Y-40428D01*
X52098Y-40493D01*
X52111Y-40506D01*
X52063Y-40554D01*
X52037Y-40618D01*
X52036Y-40688D01*
X52063Y-40753D01*
X52106Y-40796D01*
X52100Y-40811D01*
X52099Y-40881D01*
X52126Y-40946D01*
X52176Y-40996D01*
X52240Y-41022D01*
X52289Y-41023D01*
X52288Y-41077D01*
X52315Y-41142D01*
X52365Y-41192D01*
X52429Y-41218D01*
X52499Y-41219D01*
X52564Y-41192D01*
X52614Y-41142D01*
X52640Y-41078D01*
X52641Y-41008D01*
X52641Y-41589D01*
X52634Y-41582D01*
X52570Y-41556D01*
X52500Y-41555D01*
X52435Y-41582D01*
X52385Y-41632D01*
X52359Y-41696D01*
X52358Y-41766D01*
X52385Y-41831D01*
X52435Y-41881D01*
X52499Y-41907D01*
X52569Y-41908D01*
X52634Y-41881D01*
X52684Y-41831D01*
X52710Y-41767D01*
X52711Y-41697D01*
X52711Y-46830D01*
X52294Y-46830D01*
X52294Y-42319D01*
X52267Y-42254D01*
X52217Y-42204D01*
X52153Y-42178D01*
X52083Y-42177D01*
X52018Y-42204D01*
X52017Y-42206D01*
X52016Y-42205D01*
X51952Y-42179D01*
X51928Y-42179D01*
X51928Y-40713D01*
X51908Y-40664D01*
X51908Y-36426D01*
X51881Y-36361D01*
X51831Y-36311D01*
X51767Y-36285D01*
X51697Y-36284D01*
X51632Y-36311D01*
X51621Y-36323D01*
X51621Y-35894D01*
X51594Y-35829D01*
X51544Y-35779D01*
X51480Y-35753D01*
X51410Y-35752D01*
X51364Y-35772D01*
X51364Y-34205D01*
X51334Y-34133D01*
X51279Y-34078D01*
X51207Y-34049D01*
X51130Y-34048D01*
X51058Y-34078D01*
X51003Y-34133D01*
X50974Y-34205D01*
X50973Y-34282D01*
X51003Y-34354D01*
X51058Y-34409D01*
X51130Y-34438D01*
X51207Y-34439D01*
X51279Y-34409D01*
X51334Y-34354D01*
X51363Y-34282D01*
X51364Y-34205D01*
X51364Y-35772D01*
X51345Y-35779D01*
X51295Y-35829D01*
X51269Y-35893D01*
X51268Y-35963D01*
X51295Y-36028D01*
X51345Y-36078D01*
X51409Y-36104D01*
X51479Y-36105D01*
X51544Y-36078D01*
X51594Y-36028D01*
X51620Y-35964D01*
X51621Y-35894D01*
X51621Y-36323D01*
X51582Y-36361D01*
X51556Y-36425D01*
X51555Y-36495D01*
X51582Y-36560D01*
X51632Y-36610D01*
X51696Y-36636D01*
X51766Y-36637D01*
X51831Y-36610D01*
X51881Y-36560D01*
X51907Y-36496D01*
X51908Y-36426D01*
X51908Y-40664D01*
X51904Y-40655D01*
X51904Y-37205D01*
X51877Y-37140D01*
X51835Y-37098D01*
X51877Y-37056D01*
X51903Y-36992D01*
X51904Y-36922D01*
X51877Y-36857D01*
X51827Y-36807D01*
X51763Y-36781D01*
X51693Y-36780D01*
X51628Y-36807D01*
X51578Y-36857D01*
X51552Y-36921D01*
X51551Y-36991D01*
X51578Y-37056D01*
X51620Y-37098D01*
X51578Y-37140D01*
X51552Y-37204D01*
X51551Y-37274D01*
X51578Y-37339D01*
X51609Y-37370D01*
X51571Y-37408D01*
X51545Y-37472D01*
X51544Y-37542D01*
X51571Y-37607D01*
X51621Y-37657D01*
X51685Y-37683D01*
X51755Y-37684D01*
X51820Y-37657D01*
X51870Y-37607D01*
X51896Y-37543D01*
X51897Y-37473D01*
X51870Y-37408D01*
X51839Y-37377D01*
X51877Y-37339D01*
X51903Y-37275D01*
X51904Y-37205D01*
X51904Y-40655D01*
X51901Y-40648D01*
X51893Y-40640D01*
X51893Y-37957D01*
X51866Y-37892D01*
X51816Y-37842D01*
X51752Y-37816D01*
X51682Y-37815D01*
X51617Y-37842D01*
X51567Y-37892D01*
X51541Y-37956D01*
X51540Y-38026D01*
X51567Y-38091D01*
X51617Y-38141D01*
X51681Y-38167D01*
X51751Y-38168D01*
X51816Y-38141D01*
X51866Y-38091D01*
X51892Y-38027D01*
X51893Y-37957D01*
X51893Y-40640D01*
X51851Y-40598D01*
X51787Y-40572D01*
X51717Y-40571D01*
X51652Y-40598D01*
X51602Y-40648D01*
X51576Y-40712D01*
X51575Y-40782D01*
X51602Y-40847D01*
X51652Y-40897D01*
X51716Y-40923D01*
X51786Y-40924D01*
X51851Y-40897D01*
X51901Y-40847D01*
X51927Y-40783D01*
X51928Y-40713D01*
X51928Y-42179D01*
X51882Y-42178D01*
X51817Y-42205D01*
X51777Y-42245D01*
X51737Y-42205D01*
X51673Y-42179D01*
X51603Y-42178D01*
X51538Y-42205D01*
X51518Y-42226D01*
X51497Y-42205D01*
X51433Y-42179D01*
X51363Y-42178D01*
X51298Y-42205D01*
X51267Y-42237D01*
X51267Y-40914D01*
X51240Y-40849D01*
X51190Y-40799D01*
X51126Y-40773D01*
X51056Y-40772D01*
X50991Y-40799D01*
X50941Y-40849D01*
X50915Y-40913D01*
X50914Y-40983D01*
X50941Y-41048D01*
X50991Y-41098D01*
X51055Y-41124D01*
X51125Y-41125D01*
X51190Y-41098D01*
X51240Y-41048D01*
X51266Y-40984D01*
X51267Y-40914D01*
X51267Y-42237D01*
X51248Y-42255D01*
X51222Y-42319D01*
X51221Y-42389D01*
X51248Y-42454D01*
X51298Y-42504D01*
X51362Y-42530D01*
X51432Y-42531D01*
X51497Y-42504D01*
X51517Y-42483D01*
X51538Y-42504D01*
X51602Y-42530D01*
X51672Y-42531D01*
X51737Y-42504D01*
X51777Y-42464D01*
X51817Y-42504D01*
X51881Y-42530D01*
X51951Y-42531D01*
X52016Y-42504D01*
X52017Y-42502D01*
X52018Y-42503D01*
X52082Y-42529D01*
X52152Y-42530D01*
X52217Y-42503D01*
X52267Y-42453D01*
X52293Y-42389D01*
X52294Y-42319D01*
X52294Y-46830D01*
X51742Y-46830D01*
X51742Y-43681D01*
X51716Y-43616D01*
X51666Y-43567D01*
X51602Y-43540D01*
X51532Y-43540D01*
X51467Y-43567D01*
X51417Y-43616D01*
X51390Y-43681D01*
X51390Y-43724D01*
X51326Y-43698D01*
X51256Y-43697D01*
X51191Y-43724D01*
X51142Y-43774D01*
X51115Y-43838D01*
X51115Y-43908D01*
X51142Y-43973D01*
X51191Y-44023D01*
X51256Y-44049D01*
X51326Y-44050D01*
X51379Y-44028D01*
X51371Y-44047D01*
X51371Y-44110D01*
X51326Y-44091D01*
X51256Y-44091D01*
X51191Y-44118D01*
X51142Y-44167D01*
X51115Y-44232D01*
X51115Y-44302D01*
X51142Y-44367D01*
X51191Y-44416D01*
X51214Y-44426D01*
X51165Y-44426D01*
X51101Y-44453D01*
X51051Y-44502D01*
X51024Y-44567D01*
X51024Y-44637D01*
X51051Y-44701D01*
X51100Y-44751D01*
X51132Y-44764D01*
X51105Y-44775D01*
X51055Y-44825D01*
X51028Y-44890D01*
X51028Y-44960D01*
X51055Y-45024D01*
X51104Y-45074D01*
X51169Y-45101D01*
X51239Y-45101D01*
X51304Y-45074D01*
X51353Y-45025D01*
X51380Y-44960D01*
X51380Y-44890D01*
X51354Y-44825D01*
X51304Y-44776D01*
X51272Y-44762D01*
X51300Y-44751D01*
X51349Y-44702D01*
X51376Y-44637D01*
X51376Y-44567D01*
X51350Y-44502D01*
X51300Y-44453D01*
X51277Y-44443D01*
X51326Y-44443D01*
X51371Y-44425D01*
X51371Y-44448D01*
X51397Y-44512D01*
X51447Y-44562D01*
X51471Y-44572D01*
X51435Y-44586D01*
X51386Y-44636D01*
X51359Y-44701D01*
X51359Y-44771D01*
X51386Y-44835D01*
X51435Y-44885D01*
X51474Y-44901D01*
X51435Y-44917D01*
X51386Y-44967D01*
X51359Y-45031D01*
X51359Y-45101D01*
X51386Y-45166D01*
X51435Y-45216D01*
X51500Y-45242D01*
X51570Y-45242D01*
X51634Y-45216D01*
X51684Y-45166D01*
X51711Y-45102D01*
X51711Y-45032D01*
X51684Y-44967D01*
X51635Y-44917D01*
X51596Y-44901D01*
X51634Y-44885D01*
X51684Y-44836D01*
X51711Y-44771D01*
X51711Y-44701D01*
X51684Y-44636D01*
X51635Y-44587D01*
X51611Y-44577D01*
X51646Y-44562D01*
X51696Y-44513D01*
X51723Y-44448D01*
X51723Y-44378D01*
X51696Y-44313D01*
X51647Y-44264D01*
X51607Y-44248D01*
X51646Y-44231D01*
X51696Y-44182D01*
X51723Y-44117D01*
X51723Y-44047D01*
X51696Y-43983D01*
X51647Y-43933D01*
X51582Y-43906D01*
X51512Y-43906D01*
X51459Y-43928D01*
X51467Y-43909D01*
X51467Y-43865D01*
X51531Y-43892D01*
X51601Y-43892D01*
X51666Y-43865D01*
X51716Y-43816D01*
X51742Y-43751D01*
X51742Y-43681D01*
X51742Y-46830D01*
X51004Y-46830D01*
X51004Y-49586D01*
X54428Y-49586D01*
X54428Y-49592D01*
X50270Y-49592D01*
X50270Y-35248D01*
X50246Y-35191D01*
X50202Y-35147D01*
X50145Y-35123D01*
X50101Y-35123D01*
X50101Y-34890D01*
X50074Y-34825D01*
X50025Y-34776D01*
X49960Y-34749D01*
X49890Y-34749D01*
X49825Y-34775D01*
X49776Y-34825D01*
X49749Y-34890D01*
X49749Y-34960D01*
X49775Y-35024D01*
X49825Y-35074D01*
X49890Y-35101D01*
X49960Y-35101D01*
X50024Y-35074D01*
X50074Y-35025D01*
X50101Y-34960D01*
X50101Y-34890D01*
X50101Y-35123D01*
X50083Y-35123D01*
X50025Y-35147D01*
X49982Y-35191D01*
X49958Y-35248D01*
X49958Y-35310D01*
X49981Y-35367D01*
X50025Y-35411D01*
X50083Y-35435D01*
X50145Y-35435D01*
X50202Y-35411D01*
X50246Y-35368D01*
X50270Y-35310D01*
X50270Y-35248D01*
X50270Y-49592D01*
X50167Y-49592D01*
X50167Y-42445D01*
X50144Y-42388D01*
X50100Y-42344D01*
X50093Y-42341D01*
X50093Y-36977D01*
X50066Y-36912D01*
X50016Y-36862D01*
X49952Y-36836D01*
X49924Y-36836D01*
X49924Y-36190D01*
X49897Y-36125D01*
X49847Y-36075D01*
X49783Y-36049D01*
X49713Y-36048D01*
X49648Y-36075D01*
X49598Y-36125D01*
X49572Y-36189D01*
X49571Y-36259D01*
X49597Y-36322D01*
X49594Y-36325D01*
X49568Y-36389D01*
X49567Y-36459D01*
X49594Y-36524D01*
X49644Y-36574D01*
X49708Y-36600D01*
X49778Y-36601D01*
X49843Y-36574D01*
X49893Y-36524D01*
X49919Y-36460D01*
X49920Y-36390D01*
X49894Y-36327D01*
X49897Y-36324D01*
X49923Y-36260D01*
X49924Y-36190D01*
X49924Y-36836D01*
X49882Y-36835D01*
X49817Y-36862D01*
X49767Y-36912D01*
X49741Y-36976D01*
X49740Y-37046D01*
X49752Y-37074D01*
X49733Y-37055D01*
X49669Y-37029D01*
X49599Y-37028D01*
X49534Y-37055D01*
X49484Y-37105D01*
X49458Y-37169D01*
X49457Y-37239D01*
X49470Y-37269D01*
X49453Y-37252D01*
X49408Y-37233D01*
X49408Y-33862D01*
X49381Y-33798D01*
X49332Y-33748D01*
X49267Y-33721D01*
X49197Y-33721D01*
X49132Y-33748D01*
X49083Y-33797D01*
X49056Y-33862D01*
X49056Y-33932D01*
X49082Y-33997D01*
X49132Y-34046D01*
X49197Y-34073D01*
X49267Y-34073D01*
X49331Y-34046D01*
X49381Y-33997D01*
X49408Y-33932D01*
X49408Y-33862D01*
X49408Y-37233D01*
X49389Y-37226D01*
X49319Y-37225D01*
X49308Y-37230D01*
X49308Y-36977D01*
X49281Y-36912D01*
X49231Y-36862D01*
X49185Y-36843D01*
X49185Y-36362D01*
X49155Y-36291D01*
X49118Y-36253D01*
X49155Y-36216D01*
X49185Y-36145D01*
X49185Y-36067D01*
X49155Y-35995D01*
X49100Y-35940D01*
X49029Y-35911D01*
X48951Y-35911D01*
X48880Y-35940D01*
X48825Y-35995D01*
X48795Y-36067D01*
X48795Y-36144D01*
X48824Y-36216D01*
X48862Y-36253D01*
X48825Y-36290D01*
X48795Y-36362D01*
X48795Y-36439D01*
X48824Y-36511D01*
X48879Y-36566D01*
X48951Y-36596D01*
X49028Y-36596D01*
X49100Y-36566D01*
X49155Y-36511D01*
X49185Y-36440D01*
X49185Y-36362D01*
X49185Y-36843D01*
X49167Y-36836D01*
X49097Y-36835D01*
X49032Y-36862D01*
X48982Y-36912D01*
X48956Y-36976D01*
X48955Y-37046D01*
X48982Y-37111D01*
X49032Y-37161D01*
X49096Y-37187D01*
X49166Y-37188D01*
X49231Y-37161D01*
X49281Y-37111D01*
X49307Y-37047D01*
X49308Y-36977D01*
X49308Y-37230D01*
X49254Y-37252D01*
X49204Y-37302D01*
X49178Y-37366D01*
X49177Y-37436D01*
X49204Y-37501D01*
X49254Y-37551D01*
X49318Y-37577D01*
X49388Y-37578D01*
X49453Y-37551D01*
X49503Y-37501D01*
X49529Y-37437D01*
X49530Y-37367D01*
X49517Y-37337D01*
X49534Y-37354D01*
X49598Y-37380D01*
X49668Y-37381D01*
X49733Y-37354D01*
X49783Y-37304D01*
X49809Y-37240D01*
X49810Y-37170D01*
X49798Y-37142D01*
X49817Y-37161D01*
X49881Y-37187D01*
X49951Y-37188D01*
X50016Y-37161D01*
X50066Y-37111D01*
X50092Y-37047D01*
X50093Y-36977D01*
X50093Y-42341D01*
X50042Y-42320D01*
X49980Y-42320D01*
X49923Y-42344D01*
X49901Y-42365D01*
X49879Y-42344D01*
X49822Y-42320D01*
X49760Y-42320D01*
X49703Y-42344D01*
X49659Y-42387D01*
X49635Y-42445D01*
X49635Y-42469D01*
X49634Y-42468D01*
X49570Y-42442D01*
X49500Y-42441D01*
X49435Y-42468D01*
X49385Y-42518D01*
X49359Y-42582D01*
X49358Y-42652D01*
X49385Y-42717D01*
X49435Y-42767D01*
X49457Y-42776D01*
X49415Y-42818D01*
X49389Y-42882D01*
X49388Y-42952D01*
X49415Y-43017D01*
X49465Y-43067D01*
X49529Y-43093D01*
X49599Y-43094D01*
X49664Y-43067D01*
X49714Y-43017D01*
X49740Y-42953D01*
X49741Y-42883D01*
X49714Y-42818D01*
X49664Y-42768D01*
X49642Y-42759D01*
X49684Y-42717D01*
X49710Y-42653D01*
X49711Y-42611D01*
X49760Y-42632D01*
X49822Y-42632D01*
X49879Y-42608D01*
X49901Y-42586D01*
X49923Y-42608D01*
X49980Y-42632D01*
X50042Y-42632D01*
X50100Y-42608D01*
X50143Y-42564D01*
X50167Y-42507D01*
X50167Y-42445D01*
X50167Y-49592D01*
X48758Y-49592D01*
X48758Y-45870D01*
X48758Y-45476D01*
X48731Y-45412D01*
X48682Y-45362D01*
X48617Y-45335D01*
X48547Y-45335D01*
X48483Y-45362D01*
X48467Y-45378D01*
X48467Y-35197D01*
X48440Y-35132D01*
X48396Y-35088D01*
X48432Y-35052D01*
X48459Y-34987D01*
X48459Y-34917D01*
X48432Y-34853D01*
X48383Y-34803D01*
X48318Y-34776D01*
X48248Y-34776D01*
X48183Y-34803D01*
X48149Y-34837D01*
X48127Y-34815D01*
X48062Y-34788D01*
X47992Y-34788D01*
X47927Y-34815D01*
X47878Y-34864D01*
X47851Y-34929D01*
X47851Y-34999D01*
X47878Y-35064D01*
X47892Y-35078D01*
X47858Y-35112D01*
X47831Y-35177D01*
X47831Y-35247D01*
X47858Y-35312D01*
X47908Y-35361D01*
X47972Y-35388D01*
X48042Y-35388D01*
X48107Y-35361D01*
X48140Y-35328D01*
X48142Y-35331D01*
X48191Y-35381D01*
X48256Y-35408D01*
X48326Y-35408D01*
X48390Y-35381D01*
X48440Y-35332D01*
X48467Y-35267D01*
X48467Y-35197D01*
X48467Y-45378D01*
X48433Y-45411D01*
X48406Y-45476D01*
X48406Y-45546D01*
X48433Y-45611D01*
X48482Y-45660D01*
X48547Y-45687D01*
X48617Y-45687D01*
X48682Y-45661D01*
X48731Y-45611D01*
X48758Y-45546D01*
X48758Y-45476D01*
X48758Y-45870D01*
X48731Y-45805D01*
X48682Y-45756D01*
X48617Y-45729D01*
X48547Y-45729D01*
X48483Y-45756D01*
X48433Y-45805D01*
X48406Y-45870D01*
X48406Y-45940D01*
X48433Y-46005D01*
X48482Y-46054D01*
X48547Y-46081D01*
X48617Y-46081D01*
X48682Y-46054D01*
X48731Y-46005D01*
X48758Y-45940D01*
X48758Y-45870D01*
X48758Y-49592D01*
X48522Y-49592D01*
X48522Y-46736D01*
X48522Y-46382D01*
X48495Y-46317D01*
X48446Y-46268D01*
X48397Y-46247D01*
X48397Y-38351D01*
X48370Y-38286D01*
X48369Y-38285D01*
X48369Y-37949D01*
X48369Y-37170D01*
X48342Y-37105D01*
X48319Y-37082D01*
X48319Y-36382D01*
X48289Y-36310D01*
X48262Y-36283D01*
X48289Y-36256D01*
X48319Y-36184D01*
X48319Y-36106D01*
X48289Y-36035D01*
X48234Y-35980D01*
X48163Y-35950D01*
X48085Y-35950D01*
X48013Y-35980D01*
X47959Y-36034D01*
X47929Y-36106D01*
X47929Y-36184D01*
X47958Y-36255D01*
X47986Y-36283D01*
X47959Y-36310D01*
X47929Y-36382D01*
X47929Y-36459D01*
X47958Y-36531D01*
X48013Y-36586D01*
X48085Y-36615D01*
X48162Y-36616D01*
X48234Y-36586D01*
X48289Y-36531D01*
X48319Y-36459D01*
X48319Y-36382D01*
X48319Y-37082D01*
X48292Y-37055D01*
X48228Y-37029D01*
X48158Y-37028D01*
X48093Y-37055D01*
X48043Y-37105D01*
X48017Y-37169D01*
X48016Y-37239D01*
X48034Y-37283D01*
X48015Y-37302D01*
X47989Y-37366D01*
X47988Y-37436D01*
X48015Y-37501D01*
X48065Y-37551D01*
X48129Y-37577D01*
X48199Y-37578D01*
X48264Y-37551D01*
X48314Y-37501D01*
X48340Y-37437D01*
X48341Y-37367D01*
X48323Y-37323D01*
X48342Y-37304D01*
X48368Y-37240D01*
X48369Y-37170D01*
X48369Y-37949D01*
X48342Y-37884D01*
X48292Y-37834D01*
X48228Y-37808D01*
X48158Y-37807D01*
X48093Y-37834D01*
X48043Y-37884D01*
X48017Y-37948D01*
X48016Y-38018D01*
X48043Y-38083D01*
X48093Y-38133D01*
X48157Y-38159D01*
X48227Y-38160D01*
X48292Y-38133D01*
X48342Y-38083D01*
X48368Y-38019D01*
X48369Y-37949D01*
X48369Y-38285D01*
X48320Y-38236D01*
X48256Y-38210D01*
X48186Y-38209D01*
X48121Y-38236D01*
X48071Y-38286D01*
X48045Y-38350D01*
X48044Y-38420D01*
X48065Y-38469D01*
X48043Y-38491D01*
X48017Y-38555D01*
X48016Y-38618D01*
X47979Y-38633D01*
X47929Y-38683D01*
X47903Y-38747D01*
X47902Y-38817D01*
X47929Y-38882D01*
X47979Y-38932D01*
X48043Y-38958D01*
X48113Y-38959D01*
X48178Y-38932D01*
X48228Y-38882D01*
X48254Y-38818D01*
X48255Y-38755D01*
X48292Y-38740D01*
X48342Y-38690D01*
X48368Y-38626D01*
X48369Y-38556D01*
X48348Y-38507D01*
X48370Y-38485D01*
X48396Y-38421D01*
X48397Y-38351D01*
X48397Y-46247D01*
X48381Y-46241D01*
X48377Y-46241D01*
X48377Y-40914D01*
X48377Y-39733D01*
X48350Y-39668D01*
X48326Y-39644D01*
X48330Y-39641D01*
X48355Y-39580D01*
X48355Y-39514D01*
X48330Y-39453D01*
X48283Y-39406D01*
X48222Y-39380D01*
X48156Y-39380D01*
X48094Y-39406D01*
X48047Y-39452D01*
X48022Y-39513D01*
X48022Y-39580D01*
X48047Y-39641D01*
X48063Y-39656D01*
X48051Y-39668D01*
X48025Y-39732D01*
X48024Y-39802D01*
X48046Y-39854D01*
X48035Y-39865D01*
X48009Y-39929D01*
X48008Y-39999D01*
X48035Y-40064D01*
X48085Y-40114D01*
X48149Y-40140D01*
X48219Y-40141D01*
X48284Y-40114D01*
X48334Y-40064D01*
X48360Y-40000D01*
X48361Y-39930D01*
X48339Y-39878D01*
X48350Y-39867D01*
X48376Y-39803D01*
X48377Y-39733D01*
X48377Y-40914D01*
X48357Y-40865D01*
X48357Y-40320D01*
X48330Y-40255D01*
X48280Y-40205D01*
X48216Y-40179D01*
X48146Y-40178D01*
X48081Y-40205D01*
X48031Y-40255D01*
X48005Y-40319D01*
X48004Y-40389D01*
X48031Y-40454D01*
X48081Y-40504D01*
X48145Y-40530D01*
X48215Y-40531D01*
X48280Y-40504D01*
X48330Y-40454D01*
X48356Y-40390D01*
X48357Y-40320D01*
X48357Y-40865D01*
X48350Y-40849D01*
X48329Y-40829D01*
X48348Y-40783D01*
X48349Y-40713D01*
X48322Y-40648D01*
X48272Y-40598D01*
X48208Y-40572D01*
X48138Y-40571D01*
X48073Y-40598D01*
X48023Y-40648D01*
X47997Y-40712D01*
X47996Y-40782D01*
X48023Y-40847D01*
X48044Y-40867D01*
X48025Y-40913D01*
X48024Y-40972D01*
X47975Y-40992D01*
X47925Y-41042D01*
X47899Y-41106D01*
X47898Y-41176D01*
X47925Y-41241D01*
X47975Y-41291D01*
X48039Y-41317D01*
X48109Y-41318D01*
X48174Y-41291D01*
X48224Y-41241D01*
X48250Y-41177D01*
X48251Y-41118D01*
X48300Y-41098D01*
X48350Y-41048D01*
X48376Y-40984D01*
X48377Y-40914D01*
X48377Y-46241D01*
X48373Y-46241D01*
X48373Y-41697D01*
X48346Y-41632D01*
X48296Y-41582D01*
X48232Y-41556D01*
X48162Y-41555D01*
X48097Y-41582D01*
X48047Y-41632D01*
X48021Y-41696D01*
X48020Y-41766D01*
X48047Y-41831D01*
X48049Y-41833D01*
X48047Y-41834D01*
X48022Y-41895D01*
X48022Y-41962D01*
X48044Y-42015D01*
X48028Y-42031D01*
X48002Y-42092D01*
X48002Y-42158D01*
X48028Y-42220D01*
X48074Y-42267D01*
X48136Y-42292D01*
X48202Y-42292D01*
X48263Y-42267D01*
X48310Y-42220D01*
X48335Y-42159D01*
X48335Y-42093D01*
X48313Y-42039D01*
X48330Y-42023D01*
X48355Y-41962D01*
X48355Y-41896D01*
X48333Y-41843D01*
X48346Y-41831D01*
X48372Y-41767D01*
X48373Y-41697D01*
X48373Y-46241D01*
X48330Y-46241D01*
X48330Y-42690D01*
X48303Y-42625D01*
X48253Y-42575D01*
X48189Y-42549D01*
X48119Y-42548D01*
X48054Y-42575D01*
X48004Y-42625D01*
X47978Y-42689D01*
X47977Y-42759D01*
X48004Y-42824D01*
X48054Y-42874D01*
X48118Y-42900D01*
X48188Y-42901D01*
X48253Y-42874D01*
X48303Y-42824D01*
X48329Y-42760D01*
X48330Y-42690D01*
X48330Y-46241D01*
X48311Y-46241D01*
X48286Y-46251D01*
X48286Y-45831D01*
X48286Y-45437D01*
X48259Y-45372D01*
X48210Y-45323D01*
X48145Y-45296D01*
X48075Y-45296D01*
X48010Y-45323D01*
X47961Y-45372D01*
X47934Y-45437D01*
X47934Y-45507D01*
X47960Y-45572D01*
X48010Y-45621D01*
X48075Y-45648D01*
X48145Y-45648D01*
X48209Y-45621D01*
X48259Y-45572D01*
X48286Y-45507D01*
X48286Y-45437D01*
X48286Y-45831D01*
X48259Y-45766D01*
X48210Y-45717D01*
X48145Y-45690D01*
X48075Y-45690D01*
X48010Y-45716D01*
X47961Y-45766D01*
X47934Y-45830D01*
X47934Y-45900D01*
X47960Y-45965D01*
X48010Y-46015D01*
X48075Y-46042D01*
X48145Y-46042D01*
X48209Y-46015D01*
X48259Y-45965D01*
X48286Y-45901D01*
X48286Y-45831D01*
X48286Y-46251D01*
X48246Y-46268D01*
X48197Y-46317D01*
X48170Y-46382D01*
X48170Y-46452D01*
X48197Y-46516D01*
X48246Y-46566D01*
X48311Y-46593D01*
X48381Y-46593D01*
X48446Y-46566D01*
X48495Y-46517D01*
X48522Y-46452D01*
X48522Y-46382D01*
X48522Y-46736D01*
X48495Y-46672D01*
X48446Y-46622D01*
X48381Y-46595D01*
X48311Y-46595D01*
X48246Y-46622D01*
X48197Y-46671D01*
X48170Y-46736D01*
X48170Y-46806D01*
X48197Y-46871D01*
X48246Y-46920D01*
X48311Y-46947D01*
X48381Y-46947D01*
X48446Y-46920D01*
X48495Y-46871D01*
X48522Y-46806D01*
X48522Y-46736D01*
X48522Y-49592D01*
X47538Y-49592D01*
X47538Y-47287D01*
X47538Y-46854D01*
X47538Y-46461D01*
X47538Y-46106D01*
X47511Y-46042D01*
X47462Y-45992D01*
X47397Y-45965D01*
X47384Y-45965D01*
X47384Y-36520D01*
X47357Y-36455D01*
X47308Y-36405D01*
X47243Y-36379D01*
X47173Y-36379D01*
X47109Y-36405D01*
X47059Y-36455D01*
X47032Y-36519D01*
X47032Y-36589D01*
X47059Y-36654D01*
X47108Y-36704D01*
X47115Y-36707D01*
X47101Y-36712D01*
X47051Y-36762D01*
X47024Y-36827D01*
X47024Y-36897D01*
X47051Y-36961D01*
X47100Y-37011D01*
X47165Y-37038D01*
X47235Y-37038D01*
X47300Y-37011D01*
X47349Y-36962D01*
X47376Y-36897D01*
X47376Y-36827D01*
X47350Y-36762D01*
X47300Y-36713D01*
X47293Y-36710D01*
X47308Y-36704D01*
X47357Y-36654D01*
X47384Y-36590D01*
X47384Y-36520D01*
X47384Y-45965D01*
X47327Y-45965D01*
X47262Y-45992D01*
X47213Y-46041D01*
X47186Y-46106D01*
X47186Y-46176D01*
X47212Y-46241D01*
X47262Y-46290D01*
X47327Y-46317D01*
X47397Y-46317D01*
X47461Y-46291D01*
X47511Y-46241D01*
X47538Y-46176D01*
X47538Y-46106D01*
X47538Y-46461D01*
X47511Y-46396D01*
X47462Y-46346D01*
X47397Y-46320D01*
X47327Y-46320D01*
X47262Y-46346D01*
X47213Y-46396D01*
X47186Y-46460D01*
X47186Y-46530D01*
X47212Y-46595D01*
X47262Y-46645D01*
X47327Y-46672D01*
X47397Y-46672D01*
X47461Y-46645D01*
X47511Y-46595D01*
X47538Y-46531D01*
X47538Y-46461D01*
X47538Y-46854D01*
X47511Y-46790D01*
X47462Y-46740D01*
X47397Y-46713D01*
X47327Y-46713D01*
X47262Y-46740D01*
X47213Y-46789D01*
X47186Y-46854D01*
X47186Y-46924D01*
X47212Y-46989D01*
X47262Y-47038D01*
X47327Y-47065D01*
X47397Y-47065D01*
X47461Y-47039D01*
X47511Y-46989D01*
X47538Y-46924D01*
X47538Y-46854D01*
X47538Y-47287D01*
X47511Y-47223D01*
X47462Y-47173D01*
X47397Y-47146D01*
X47327Y-47146D01*
X47262Y-47173D01*
X47213Y-47223D01*
X47186Y-47287D01*
X47186Y-47357D01*
X47212Y-47422D01*
X47262Y-47471D01*
X47327Y-47498D01*
X47397Y-47498D01*
X47461Y-47472D01*
X47511Y-47422D01*
X47538Y-47357D01*
X47538Y-47287D01*
X47538Y-49592D01*
X47168Y-49592D01*
X47168Y-45742D01*
X47108Y-45597D01*
X46996Y-45485D01*
X46851Y-45425D01*
X46715Y-45425D01*
X46715Y-37358D01*
X46688Y-37294D01*
X46639Y-37244D01*
X46574Y-37217D01*
X46504Y-37217D01*
X46439Y-37244D01*
X46390Y-37293D01*
X46363Y-37358D01*
X46363Y-37428D01*
X46390Y-37493D01*
X46439Y-37542D01*
X46504Y-37569D01*
X46574Y-37569D01*
X46638Y-37542D01*
X46688Y-37493D01*
X46715Y-37428D01*
X46715Y-37358D01*
X46715Y-45425D01*
X46693Y-45425D01*
X46548Y-45485D01*
X46436Y-45596D01*
X46376Y-45742D01*
X46376Y-45899D01*
X46436Y-46045D01*
X46547Y-46156D01*
X46692Y-46217D01*
X46850Y-46217D01*
X46996Y-46157D01*
X47107Y-46045D01*
X47168Y-45900D01*
X47168Y-45742D01*
X47168Y-49592D01*
X47065Y-49592D01*
X47065Y-47287D01*
X47065Y-46854D01*
X47065Y-46461D01*
X47039Y-46396D01*
X46989Y-46346D01*
X46924Y-46320D01*
X46854Y-46320D01*
X46790Y-46346D01*
X46740Y-46396D01*
X46713Y-46460D01*
X46713Y-46530D01*
X46740Y-46595D01*
X46789Y-46645D01*
X46854Y-46672D01*
X46924Y-46672D01*
X46989Y-46645D01*
X47038Y-46595D01*
X47065Y-46531D01*
X47065Y-46461D01*
X47065Y-46854D01*
X47039Y-46790D01*
X46989Y-46740D01*
X46924Y-46713D01*
X46854Y-46713D01*
X46790Y-46740D01*
X46740Y-46789D01*
X46713Y-46854D01*
X46713Y-46924D01*
X46740Y-46989D01*
X46789Y-47038D01*
X46854Y-47065D01*
X46924Y-47065D01*
X46989Y-47039D01*
X47038Y-46989D01*
X47065Y-46924D01*
X47065Y-46854D01*
X47065Y-47287D01*
X47039Y-47223D01*
X46989Y-47173D01*
X46924Y-47146D01*
X46854Y-47146D01*
X46790Y-47173D01*
X46740Y-47223D01*
X46713Y-47287D01*
X46713Y-47357D01*
X46740Y-47422D01*
X46789Y-47471D01*
X46854Y-47498D01*
X46924Y-47498D01*
X46989Y-47472D01*
X47038Y-47422D01*
X47065Y-47357D01*
X47065Y-47287D01*
X47065Y-49592D01*
X46593Y-49592D01*
X46593Y-47287D01*
X46593Y-46854D01*
X46593Y-46461D01*
X46566Y-46396D01*
X46517Y-46346D01*
X46452Y-46320D01*
X46382Y-46320D01*
X46317Y-46346D01*
X46268Y-46396D01*
X46241Y-46460D01*
X46241Y-46530D01*
X46268Y-46595D01*
X46317Y-46645D01*
X46382Y-46672D01*
X46452Y-46672D01*
X46516Y-46645D01*
X46566Y-46595D01*
X46593Y-46531D01*
X46593Y-46461D01*
X46593Y-46854D01*
X46566Y-46790D01*
X46517Y-46740D01*
X46452Y-46713D01*
X46382Y-46713D01*
X46317Y-46740D01*
X46268Y-46789D01*
X46241Y-46854D01*
X46241Y-46924D01*
X46268Y-46989D01*
X46317Y-47038D01*
X46382Y-47065D01*
X46452Y-47065D01*
X46516Y-47039D01*
X46566Y-46989D01*
X46593Y-46924D01*
X46593Y-46854D01*
X46593Y-47287D01*
X46566Y-47223D01*
X46517Y-47173D01*
X46452Y-47146D01*
X46382Y-47146D01*
X46317Y-47173D01*
X46268Y-47223D01*
X46241Y-47287D01*
X46241Y-47357D01*
X46268Y-47422D01*
X46317Y-47471D01*
X46382Y-47498D01*
X46452Y-47498D01*
X46516Y-47472D01*
X46566Y-47422D01*
X46593Y-47357D01*
X46593Y-47287D01*
X46593Y-49592D01*
X46143Y-49592D01*
X46143Y-44575D01*
X46163Y-44567D01*
X46240Y-44490D01*
X46282Y-44389D01*
X46282Y-44280D01*
X46240Y-44179D01*
X46179Y-44118D01*
X46240Y-44057D01*
X46282Y-43956D01*
X46282Y-43847D01*
X46240Y-43746D01*
X46179Y-43685D01*
X46240Y-43624D01*
X46282Y-43523D01*
X46282Y-43414D01*
X46240Y-43313D01*
X46163Y-43236D01*
X46143Y-43228D01*
X46143Y-35736D01*
X46163Y-35728D01*
X46240Y-35651D01*
X46282Y-35550D01*
X46282Y-35441D01*
X46240Y-35340D01*
X46179Y-35279D01*
X46240Y-35218D01*
X46282Y-35117D01*
X46282Y-35008D01*
X46240Y-34907D01*
X46179Y-34846D01*
X46240Y-34785D01*
X46282Y-34684D01*
X46282Y-34575D01*
X46240Y-34474D01*
X46163Y-34397D01*
X46143Y-34389D01*
X46143Y-30155D01*
X47974Y-30155D01*
X47974Y-32834D01*
X47984Y-32886D01*
X48011Y-32927D01*
X48011Y-32932D01*
X48017Y-32932D01*
X48058Y-32960D01*
X48110Y-32970D01*
X52848Y-32970D01*
X52756Y-33062D01*
X52705Y-33185D01*
X52705Y-33317D01*
X52756Y-33440D01*
X52849Y-33534D01*
X52972Y-33585D01*
X53105Y-33585D01*
X53228Y-33534D01*
X53321Y-33441D01*
X53372Y-33318D01*
X53373Y-33185D01*
X53322Y-33063D01*
X53230Y-32970D01*
X53848Y-32970D01*
X53756Y-33062D01*
X53705Y-33185D01*
X53705Y-33317D01*
X53756Y-33440D01*
X53849Y-33534D01*
X53972Y-33585D01*
X54105Y-33585D01*
X54228Y-33534D01*
X54321Y-33441D01*
X54372Y-33318D01*
X54373Y-33185D01*
X54322Y-33063D01*
X54230Y-32970D01*
X54848Y-32970D01*
X54756Y-33062D01*
X54705Y-33185D01*
X54705Y-33317D01*
X54756Y-33440D01*
X54849Y-33534D01*
X54972Y-33585D01*
X55105Y-33585D01*
X55228Y-33534D01*
X55321Y-33441D01*
X55372Y-33318D01*
X55373Y-33185D01*
X55322Y-33063D01*
X55230Y-32970D01*
X55848Y-32970D01*
X55756Y-33062D01*
X55705Y-33185D01*
X55705Y-33317D01*
X55756Y-33440D01*
X55849Y-33534D01*
X55972Y-33585D01*
X56105Y-33585D01*
X56228Y-33534D01*
X56321Y-33441D01*
X56372Y-33318D01*
X56373Y-33185D01*
X56322Y-33063D01*
X56230Y-32970D01*
X56251Y-32970D01*
X56269Y-32988D01*
X56370Y-33030D01*
X56479Y-33030D01*
X56580Y-32988D01*
X56636Y-32932D01*
X56646Y-32932D01*
X56702Y-32988D01*
X56792Y-33026D01*
X56756Y-33062D01*
X56705Y-33185D01*
X56705Y-33317D01*
X56756Y-33440D01*
X56849Y-33534D01*
X56972Y-33585D01*
X57105Y-33585D01*
X57228Y-33534D01*
X57321Y-33441D01*
X57372Y-33318D01*
X57373Y-33185D01*
X57322Y-33063D01*
X57289Y-33030D01*
X57345Y-33030D01*
X57446Y-32988D01*
X57502Y-32932D01*
X57513Y-32932D01*
X57569Y-32988D01*
X57670Y-33030D01*
X57779Y-33030D01*
X57880Y-32988D01*
X57898Y-32970D01*
X64769Y-32970D01*
X64769Y-39330D01*
X64750Y-39338D01*
X64672Y-39415D01*
X64631Y-39516D01*
X64630Y-39625D01*
X64672Y-39726D01*
X64733Y-39787D01*
X64672Y-39848D01*
X64631Y-39949D01*
X64630Y-40058D01*
X64672Y-40159D01*
X64733Y-40220D01*
X64672Y-40281D01*
X64631Y-40382D01*
X64630Y-40491D01*
X64672Y-40592D01*
X64733Y-40653D01*
X64672Y-40714D01*
X64631Y-40815D01*
X64630Y-40924D01*
X64672Y-41025D01*
X64749Y-41102D01*
X64769Y-41110D01*
X64769Y-49592D01*
M02*
