M48
;DRILL file {Pcbnew (2013-05-31 BZR 4019)-stable} date 24/04/2014 12:04:16
;FORMAT={-:-/ absolute / metric / decimal}
FMAT,2
METRIC,TZ
T1C0.099
T2C0.196
T3C0.198
T4C0.201
T5C0.297
T6C0.300
T7C0.899
T8C1.097
T9C2.900
%
G90
G05
M71
T1
X154.12Y-88.41
X154.19Y-103.08
T2
X117.57Y-86.93
X117.6Y-86.05
X117.61Y-85.12
X117.75Y-77.1
X117.9Y-118.1
X117.9Y-119.1
X117.9Y-120.2
X118.06Y-108.38
X118.06Y-109.38
X118.06Y-110.38
X118.1Y-81.65
X118.2Y-111.5
X118.21Y-94.98
X118.26Y-98.18
X118.26Y-99.18
X118.86Y-108.38
X118.86Y-109.38
X118.86Y-110.38
X119.06Y-98.18
X119.06Y-99.18
X119.1Y-118.1
X119.1Y-119.1
X119.1Y-120.2
X119.86Y-98.18
X119.86Y-99.18
X119.89Y-93.63
X119.91Y-92.85
X120.Y-82.
X120.3Y-117.2
X120.3Y-118.1
X120.3Y-119.1
X120.3Y-120.2
X120.57Y-111.02
X120.59Y-84.21
X120.66Y-98.18
X120.66Y-99.18
X120.66Y-111.88
X120.67Y-112.82
X120.69Y-108.71
X120.69Y-109.91
X121.06Y-95.68
X121.1Y-77.
X121.3Y-81.7
X121.41Y-111.02
X121.42Y-106.07
X121.43Y-106.92
X121.45Y-99.7
X121.45Y-105.41
X121.46Y-111.88
X121.49Y-103.65
X121.49Y-104.49
X121.49Y-108.71
X121.49Y-109.91
X121.51Y-100.42
X121.51Y-101.66
X121.51Y-112.82
X121.53Y-102.73
X121.59Y-84.21
X121.86Y-95.68
X121.94Y-89.44
X121.99Y-88.81
X122.11Y-104.501
X122.121Y-98.509
X122.2Y-115.5
X122.2Y-116.5
X122.21Y-124.57
X122.21Y-125.37
X122.311Y-108.521
X122.339Y-95.001
X122.359Y-103.5
X122.38Y-102.502
X122.39Y-101.511
X122.4Y-90.3
X122.41Y-94.501
X122.41Y-96.479
X122.41Y-98.021
X122.42Y-105.999
X122.431Y-101.011
X122.431Y-104.01
X122.481Y-97.5
X122.55Y-84.2
X122.64Y-88.78
X122.66Y-89.49
X122.8Y-117.9
X122.8Y-118.8
X123.21Y-124.57
X123.21Y-125.37
X123.4Y-115.6
X123.4Y-116.6
X124.4Y-104.9
X124.41Y-123.17
X124.795Y-94.01
X125.05Y-86.1
X125.21Y-118.67
X125.359Y-95.001
X125.41Y-123.17
X125.819Y-108.25
X125.895Y-109.012
X125.9Y-107.6
X126.Y-93.3
X126.Y-99.9
X126.Y-105.5
X126.07Y-94.501
X126.21Y-118.67
X126.35Y-92.519
X126.36Y-92.011
X126.47Y-96.74
X126.47Y-107.89
X126.61Y-123.17
X126.7Y-99.
X126.789Y-94.01
X126.8Y-105.
X126.81Y-88.71
X127.03Y-107.89
X127.29Y-89.61
X127.41Y-118.67
X127.61Y-123.17
X128.3Y-83.9
X128.41Y-118.67
X129.5Y-108.5
X129.51Y-109.62
X129.771Y-104.01
X130.05Y-113.29
X130.06Y-114.11
X130.1Y-105.2
X130.28Y-111.44
X130.28Y-112.44
X130.551Y-107.582
X130.67Y-91.26
X130.7Y-109.6
X130.9Y-113.63
X130.9Y-114.47
X130.93Y-111.97
X130.93Y-112.81
X130.98Y-111.04
X131.161Y-107.582
X131.2Y-117.7
X131.239Y-89.632
X131.361Y-96.5
X131.371Y-95.27
X131.389Y-93.871
X131.389Y-94.59
X131.399Y-92.611
X131.4Y-85.55
X131.45Y-103.5
X131.869Y-107.582
X131.87Y-90.37
X132.1Y-103.7
X132.1Y-109.6
X132.11Y-88.389
X132.21Y-117.67
X132.25Y-85.55
X132.38Y-107.579
X132.57Y-91.161
X132.621Y-103.261
X132.669Y-101.641
X132.71Y-102.601
X132.781Y-103.751
X133.01Y-98.481
X133.06Y-99.52
X133.101Y-101.13
X133.261Y-104.249
X133.391Y-96.931
X133.439Y-105.999
X133.459Y-96.081
X133.5Y-109.8
X133.5Y-111.
X133.721Y-95.27
X134.29Y-93.35
X134.29Y-94.811
X134.3Y-110.4
X134.3Y-111.7
X134.381Y-89.141
X134.6Y-91.9
X134.8Y-88.549
X135.44Y-92.591
X136.091Y-106.489
X136.091Y-106.99
X136.101Y-102.111
X136.111Y-104.242
X136.121Y-104.739
X136.149Y-103.02
X136.169Y-100.51
X136.21Y-100.
X136.271Y-99.012
X136.271Y-105.501
X136.301Y-97.422
X136.301Y-97.93
X136.6Y-96.
X136.921Y-88.501
X137.1Y-85.7
X137.2Y-105.
X137.6Y-99.4
X138.Y-96.
X138.05Y-85.65
X138.311Y-94.79
X138.321Y-110.432
X138.6Y-107.6
X138.631Y-112.331
X138.991Y-91.63
X138.991Y-109.36
X139.Y-99.5
X139.029Y-92.281
X139.2Y-112.
X139.21Y-124.57
X139.21Y-125.37
X139.659Y-109.38
X139.9Y-122.
X139.9Y-123.1
X140.21Y-124.57
X140.21Y-125.37
X140.272Y-109.39
X140.36Y-104.671
X140.432Y-102.669
X140.459Y-97.099
X140.47Y-101.681
X140.63Y-103.68
X140.701Y-100.681
X140.8Y-110.4
X140.83Y-106.289
X140.851Y-109.39
X141.11Y-99.131
X141.321Y-93.36
X141.41Y-125.37
X141.481Y-103.17
X141.491Y-106.271
X141.501Y-100.19
X141.569Y-101.171
X141.661Y-102.189
X141.77Y-105.171
X141.811Y-99.179
X141.961Y-104.181
X142.07Y-97.861
X142.192Y-94.96
X142.199Y-96.561
X142.41Y-125.37
X142.9Y-109.101
X143.01Y-106.52
X143.05Y-96.83
X143.3Y-117.6
X143.6Y-85.85
X143.61Y-125.37
X143.701Y-96.85
X144.229Y-99.751
X144.229Y-100.851
X144.229Y-101.951
X144.229Y-103.05
X144.229Y-104.15
X144.3Y-117.6
X144.61Y-124.57
X144.61Y-125.37
X144.671Y-106.83
X144.7Y-121.5
X144.78Y-99.2
X144.78Y-100.3
X144.78Y-101.399
X144.78Y-102.499
X144.78Y-103.599
X145.019Y-89.639
X145.049Y-92.931
X145.21Y-119.05
X145.301Y-106.86
X145.329Y-99.751
X145.329Y-100.851
X145.329Y-101.951
X145.329Y-103.05
X145.329Y-104.15
X145.41Y-120.75
X145.56Y-107.26
X145.88Y-99.2
X145.88Y-100.3
X145.88Y-101.399
X145.88Y-102.499
X145.88Y-103.599
X145.961Y-106.52
X146.439Y-99.751
X146.439Y-100.851
X146.439Y-101.951
X146.439Y-103.05
X146.439Y-104.15
X146.51Y-119.05
X146.65Y-112.32
X146.91Y-120.55
X146.98Y-99.2
X146.98Y-100.3
X146.98Y-101.399
X146.98Y-102.499
X146.98Y-103.599
X147.528Y-99.751
X147.528Y-100.851
X147.528Y-101.951
X147.528Y-103.05
X147.528Y-104.15
X147.71Y-119.05
X147.92Y-113.26
X147.97Y-92.019
X148.03Y-108.59
X148.079Y-99.2
X148.079Y-100.3
X148.079Y-101.399
X148.079Y-102.499
X148.079Y-103.599
X148.219Y-90.241
X148.26Y-93.429
X148.4Y-84.5
X148.51Y-120.85
X148.6Y-125.5
X148.628Y-99.751
X148.628Y-100.851
X148.628Y-101.951
X148.628Y-103.05
X148.628Y-104.15
X148.687Y-106.507
X148.81Y-119.05
X149.179Y-99.2
X149.179Y-100.3
X149.179Y-101.399
X149.179Y-102.499
X149.179Y-103.599
X149.21Y-106.45
X149.3Y-85.8
X149.69Y-124.
X149.71Y-125.07
X149.9Y-84.6
X150.241Y-96.449
X150.3Y-85.8
X150.49Y-123.07
X150.551Y-106.19
X150.574Y-106.85
X151.15Y-91.57
X151.4Y-84.5
X151.501Y-102.171
X151.511Y-91.249
X151.559Y-102.679
X151.859Y-101.27
X151.9Y-114.27
X151.92Y-112.52
X151.95Y-113.39
X152.02Y-110.78
X152.276Y-103.825
X152.31Y-107.16
X152.39Y-84.49
X152.78Y-110.78
X152.85Y-89.23
X153.025Y-90.726
X153.04Y-103.54
X153.076Y-90.124
X153.41Y-107.65
X153.59Y-84.49
X154.04Y-107.85
X154.04Y-114.25
X154.07Y-113.39
X154.13Y-118.85
X154.22Y-122.84
X154.59Y-84.49
X154.64Y-96.741
X154.968Y-94.96
X155.Y-110.52
X155.001Y-89.403
X155.001Y-90.261
X155.25Y-117.63
X155.37Y-113.62
X155.38Y-107.14
X155.45Y-85.85
X155.521Y-106.311
X155.611Y-101.78
X155.659Y-103.63
X155.79Y-84.49
X155.87Y-114.08
X155.87Y-125.57
X155.92Y-90.272
X155.93Y-121.77
X155.94Y-123.15
X155.941Y-89.39
X156.16Y-117.64
X156.35Y-85.85
X156.57Y-112.88
X156.63Y-114.77
X156.79Y-84.49
X157.41Y-119.18
X157.63Y-123.16
X157.871Y-92.86
X157.9Y-84.52
X158.32Y-125.53
X158.37Y-121.67
X158.62Y-122.86
X158.9Y-84.52
X159.3Y-119.15
X159.59Y-102.25
X159.6Y-95.25
X159.6Y-101.25
X159.65Y-96.2
X159.8Y-107.2
X159.8Y-108.3
X159.9Y-84.52
X160.6Y-111.3
X160.8Y-108.1
X160.8Y-109.2
X160.8Y-115.7
X160.84Y-116.62
X160.9Y-88.15
X160.92Y-117.63
X160.95Y-91.35
X161.Y-93.75
X161.Y-94.75
X161.Y-95.75
X161.Y-112.5
X161.15Y-84.15
X161.15Y-85.9
X161.2Y-85.
X161.2Y-86.75
X161.21Y-122.79
X161.3Y-118.7
X161.5Y-111.1
X161.72Y-116.61
X161.72Y-117.61
X161.84Y-108.22
X162.Y-93.75
X162.Y-94.75
X162.Y-95.75
X162.02Y-109.23
X162.15Y-85.9
X162.2Y-85.
X162.2Y-86.75
X162.35Y-119.11
X162.42Y-111.13
X162.6Y-84.2
X162.72Y-108.21
X162.72Y-116.61
X162.72Y-117.61
X162.82Y-109.21
X163.Y-85.5
X163.Y-93.75
X163.Y-94.75
X163.Y-95.75
X163.12Y-123.01
X163.22Y-111.11
X163.72Y-108.21
X163.82Y-109.21
X163.94Y-118.28
X164.Y-93.75
X164.Y-94.75
X164.Y-95.75
X164.09Y-119.37
X164.09Y-120.17
X164.1Y-121.
X164.1Y-123.
X164.1Y-124.2
X164.2Y-85.7
X164.2Y-87.75
X164.2Y-88.6
X164.2Y-90.7
X164.2Y-112.
X164.2Y-112.8
X164.2Y-114.8
X164.2Y-115.6
X164.22Y-111.11
X164.25Y-91.45
T3
X150.749Y-94.521
X151.74Y-103.48
X151.76Y-99.111
X152.1Y-94.96
X152.476Y-104.676
X152.499Y-105.25
X153.21Y-101.559
X153.261Y-99.68
X154.381Y-100.091
X154.701Y-92.1
X157.371Y-88.45
X157.371Y-91.27
T4
X122.35Y-107.
X122.4Y-100.45
X122.4Y-106.5
X143.35Y-98.425
X143.35Y-98.925
X143.35Y-99.426
X143.35Y-99.926
X143.35Y-100.424
X143.35Y-100.924
X143.35Y-101.425
X143.35Y-101.925
X143.35Y-102.425
X143.35Y-102.926
X143.35Y-103.426
X143.35Y-103.924
X143.35Y-104.424
X143.375Y-104.925
X143.924Y-105.001
X143.949Y-98.326
X144.424Y-105.001
X144.45Y-98.349
X144.925Y-105.001
X144.95Y-98.349
X145.425Y-105.001
X146.949Y-98.349
X147.925Y-105.001
X148.425Y-105.001
X150.Y-101.925
X150.025Y-98.425
X150.025Y-98.925
X150.025Y-99.426
X150.025Y-99.926
X150.025Y-100.924
X150.025Y-101.425
X150.025Y-102.425
X150.025Y-102.926
X150.025Y-103.426
X150.025Y-103.924
X150.025Y-104.925
X150.05Y-104.424
T5
X122.236Y-91.809
X122.236Y-92.509
X122.271Y-111.27
X122.301Y-99.261
X122.321Y-93.261
X122.4Y-105.25
X124.436Y-91.709
X124.436Y-92.459
X129.339Y-111.249
X129.57Y-93.221
X129.969Y-86.98
X130.395Y-121.592
X130.395Y-124.692
X130.495Y-120.092
X130.495Y-123.192
X130.795Y-122.392
X130.895Y-120.892
X130.895Y-123.992
X131.195Y-121.592
X131.195Y-124.692
X131.295Y-120.092
X131.295Y-123.192
X131.595Y-122.392
X131.695Y-120.892
X131.695Y-123.992
X131.995Y-121.592
X131.995Y-124.692
X132.095Y-120.092
X132.095Y-123.192
X132.395Y-122.392
X132.495Y-120.892
X132.495Y-123.992
X132.795Y-121.592
X132.795Y-124.692
X132.895Y-120.092
X132.895Y-123.192
X133.195Y-122.392
X133.295Y-120.892
X133.295Y-123.992
X133.595Y-121.592
X133.595Y-124.692
X133.695Y-120.092
X133.695Y-123.192
X133.995Y-122.392
X134.095Y-120.892
X134.095Y-123.992
X134.395Y-121.592
X134.395Y-124.692
X134.495Y-120.092
X134.495Y-123.192
X134.795Y-122.392
X134.895Y-120.892
X134.895Y-123.992
X135.801Y-116.37
X137.721Y-87.48
X137.841Y-118.13
X139.57Y-94.851
X139.781Y-115.001
X141.6Y-110.52
X141.7Y-119.995
X141.7Y-121.097
X141.7Y-122.197
X142.499Y-111.697
X142.8Y-119.997
X142.8Y-121.097
X143.2Y-111.697
X144.229Y-109.659
X152.171Y-96.05
X156.449Y-96.731
X156.789Y-103.241
X157.025Y-106.726
X157.571Y-100.33
X157.579Y-101.1
T6
X141.171Y-89.23
X142.471Y-89.86
T7
X116.86Y-87.96
X116.86Y-89.06
X116.86Y-90.16
X116.86Y-110.411
X116.86Y-111.511
X116.86Y-112.611
X118.801Y-113.846
X118.801Y-116.386
X132.18Y-84.409
X134.72Y-84.46
X137.26Y-84.46
X139.8Y-84.46
X142.34Y-84.46
X143.32Y-83.2
X143.322Y-126.411
X144.419Y-83.2
X144.422Y-126.411
X144.88Y-84.46
X145.519Y-83.2
X145.522Y-126.411
X146.621Y-83.2
X146.624Y-126.411
X152.06Y-124.949
X152.09Y-121.01
X154.6Y-125.
X154.63Y-121.01
X157.14Y-125.
X157.17Y-121.01
X159.68Y-125.
X159.71Y-121.01
X162.22Y-125.
X162.25Y-121.061
X164.86Y-100.51
X164.86Y-101.61
X164.86Y-102.71
X164.86Y-103.81
T8
X125.867Y-89.057
X125.867Y-115.453
T9
X119.86Y-79.25
X119.86Y-123.25
X146.86Y-123.25
T0
M30
