G04 (created by PCBNEW (2013-05-31 BZR 4019)-stable) date 24/04/2014 12:04:12*
%MOIN*%
G04 Gerber Fmt 3.4, Leading zero omitted, Abs format*
%FSLAX34Y34*%
G01*
G70*
G90*
G04 APERTURE LIST*
%ADD10C,0.00590551*%
%ADD11C,0.0077*%
%ADD12C,0.0157*%
%ADD13C,0.0195*%
%ADD14C,0.0354*%
%ADD15C,0.173228*%
%ADD16R,0.0597X0.0597*%
%ADD17C,0.0597*%
%ADD18C,0.15748*%
%ADD19C,0.0472441*%
%ADD20R,0.0472441X0.0472441*%
%ADD21C,0.0432*%
%ADD22C,0.0117*%
%ADD23C,0.0077*%
%ADD24C,0.0196*%
%ADD25C,0.0138*%
%ADD26C,0.0195*%
%ADD27C,0.0039*%
%ADD28C,0.0117*%
G04 APERTURE END LIST*
G54D10*
X4000Y-4000D02*
X112930Y-4000D01*
X112930Y-78680D01*
X4000Y-78680D01*
X4000Y-4000D01*
X4700Y-4700D02*
X112230Y-4700D01*
X112230Y-77980D01*
X4700Y-77980D01*
X4700Y-4700D01*
X25780Y-4000D02*
X25780Y-4700D01*
X15032Y-4552D02*
X14747Y-4552D01*
X14890Y-4552D02*
X14890Y-4052D01*
X14842Y-4123D01*
X14794Y-4171D01*
X14747Y-4195D01*
X25780Y-78680D02*
X25780Y-77980D01*
X15032Y-78532D02*
X14747Y-78532D01*
X14890Y-78532D02*
X14890Y-78032D01*
X14842Y-78103D01*
X14794Y-78151D01*
X14747Y-78175D01*
X47560Y-4000D02*
X47560Y-4700D01*
X36527Y-4100D02*
X36550Y-4076D01*
X36598Y-4052D01*
X36717Y-4052D01*
X36765Y-4076D01*
X36789Y-4100D01*
X36812Y-4147D01*
X36812Y-4195D01*
X36789Y-4266D01*
X36503Y-4552D01*
X36812Y-4552D01*
X47560Y-78680D02*
X47560Y-77980D01*
X36527Y-78080D02*
X36550Y-78056D01*
X36598Y-78032D01*
X36717Y-78032D01*
X36765Y-78056D01*
X36789Y-78080D01*
X36812Y-78127D01*
X36812Y-78175D01*
X36789Y-78246D01*
X36503Y-78532D01*
X36812Y-78532D01*
X69340Y-4000D02*
X69340Y-4700D01*
X58283Y-4052D02*
X58592Y-4052D01*
X58426Y-4242D01*
X58497Y-4242D01*
X58545Y-4266D01*
X58569Y-4290D01*
X58592Y-4338D01*
X58592Y-4457D01*
X58569Y-4504D01*
X58545Y-4528D01*
X58497Y-4552D01*
X58354Y-4552D01*
X58307Y-4528D01*
X58283Y-4504D01*
X69340Y-78680D02*
X69340Y-77980D01*
X58283Y-78032D02*
X58592Y-78032D01*
X58426Y-78222D01*
X58497Y-78222D01*
X58545Y-78246D01*
X58569Y-78270D01*
X58592Y-78318D01*
X58592Y-78437D01*
X58569Y-78484D01*
X58545Y-78508D01*
X58497Y-78532D01*
X58354Y-78532D01*
X58307Y-78508D01*
X58283Y-78484D01*
X91120Y-4000D02*
X91120Y-4700D01*
X80325Y-4219D02*
X80325Y-4552D01*
X80206Y-4028D02*
X80087Y-4385D01*
X80396Y-4385D01*
X91120Y-78680D02*
X91120Y-77980D01*
X80325Y-78199D02*
X80325Y-78532D01*
X80206Y-78008D02*
X80087Y-78365D01*
X80396Y-78365D01*
X102129Y-4052D02*
X101890Y-4052D01*
X101867Y-4290D01*
X101890Y-4266D01*
X101938Y-4242D01*
X102057Y-4242D01*
X102105Y-4266D01*
X102129Y-4290D01*
X102152Y-4338D01*
X102152Y-4457D01*
X102129Y-4504D01*
X102105Y-4528D01*
X102057Y-4552D01*
X101938Y-4552D01*
X101890Y-4528D01*
X101867Y-4504D01*
X102129Y-78032D02*
X101890Y-78032D01*
X101867Y-78270D01*
X101890Y-78246D01*
X101938Y-78222D01*
X102057Y-78222D01*
X102105Y-78246D01*
X102129Y-78270D01*
X102152Y-78318D01*
X102152Y-78437D01*
X102129Y-78484D01*
X102105Y-78508D01*
X102057Y-78532D01*
X101938Y-78532D01*
X101890Y-78508D01*
X101867Y-78484D01*
X4000Y-28890D02*
X4700Y-28890D01*
X4230Y-16509D02*
X4469Y-16509D01*
X4183Y-16652D02*
X4350Y-16152D01*
X4516Y-16652D01*
X112930Y-28890D02*
X112230Y-28890D01*
X112460Y-16509D02*
X112699Y-16509D01*
X112413Y-16652D02*
X112580Y-16152D01*
X112746Y-16652D01*
X4000Y-53780D02*
X4700Y-53780D01*
X4385Y-41280D02*
X4457Y-41304D01*
X4480Y-41328D01*
X4504Y-41375D01*
X4504Y-41447D01*
X4480Y-41494D01*
X4457Y-41518D01*
X4409Y-41542D01*
X4219Y-41542D01*
X4219Y-41042D01*
X4385Y-41042D01*
X4433Y-41066D01*
X4457Y-41090D01*
X4480Y-41137D01*
X4480Y-41185D01*
X4457Y-41232D01*
X4433Y-41256D01*
X4385Y-41280D01*
X4219Y-41280D01*
X112930Y-53780D02*
X112230Y-53780D01*
X112615Y-41280D02*
X112687Y-41304D01*
X112710Y-41328D01*
X112734Y-41375D01*
X112734Y-41447D01*
X112710Y-41494D01*
X112687Y-41518D01*
X112639Y-41542D01*
X112449Y-41542D01*
X112449Y-41042D01*
X112615Y-41042D01*
X112663Y-41066D01*
X112687Y-41090D01*
X112710Y-41137D01*
X112710Y-41185D01*
X112687Y-41232D01*
X112663Y-41256D01*
X112615Y-41280D01*
X112449Y-41280D01*
X4504Y-66384D02*
X4480Y-66408D01*
X4409Y-66432D01*
X4361Y-66432D01*
X4290Y-66408D01*
X4242Y-66360D01*
X4219Y-66313D01*
X4195Y-66218D01*
X4195Y-66146D01*
X4219Y-66051D01*
X4242Y-66003D01*
X4290Y-65956D01*
X4361Y-65932D01*
X4409Y-65932D01*
X4480Y-65956D01*
X4504Y-65980D01*
X112734Y-66384D02*
X112710Y-66408D01*
X112639Y-66432D01*
X112591Y-66432D01*
X112520Y-66408D01*
X112472Y-66360D01*
X112449Y-66313D01*
X112425Y-66218D01*
X112425Y-66146D01*
X112449Y-66051D01*
X112472Y-66003D01*
X112520Y-65956D01*
X112591Y-65932D01*
X112639Y-65932D01*
X112710Y-65956D01*
X112734Y-65980D01*
X79380Y-76422D02*
X79455Y-75822D01*
X79597Y-75822D01*
X79680Y-75851D01*
X79730Y-75908D01*
X79751Y-75965D01*
X79765Y-76080D01*
X79755Y-76165D01*
X79712Y-76280D01*
X79676Y-76337D01*
X79612Y-76394D01*
X79522Y-76422D01*
X79380Y-76422D01*
X80237Y-76422D02*
X80276Y-76108D01*
X80255Y-76051D01*
X80201Y-76022D01*
X80087Y-76022D01*
X80026Y-76051D01*
X80240Y-76394D02*
X80180Y-76422D01*
X80037Y-76422D01*
X79983Y-76394D01*
X79962Y-76337D01*
X79969Y-76280D01*
X80005Y-76222D01*
X80065Y-76194D01*
X80208Y-76194D01*
X80269Y-76165D01*
X80487Y-76022D02*
X80715Y-76022D01*
X80597Y-75822D02*
X80533Y-76337D01*
X80555Y-76394D01*
X80608Y-76422D01*
X80665Y-76422D01*
X81097Y-76394D02*
X81037Y-76422D01*
X80922Y-76422D01*
X80869Y-76394D01*
X80847Y-76337D01*
X80876Y-76108D01*
X80912Y-76051D01*
X80972Y-76022D01*
X81087Y-76022D01*
X81140Y-76051D01*
X81162Y-76108D01*
X81155Y-76165D01*
X80862Y-76222D01*
X81387Y-76365D02*
X81412Y-76394D01*
X81380Y-76422D01*
X81355Y-76394D01*
X81387Y-76365D01*
X81380Y-76422D01*
X81426Y-76051D02*
X81451Y-76080D01*
X81419Y-76108D01*
X81394Y-76080D01*
X81426Y-76051D01*
X81419Y-76108D01*
X82162Y-75880D02*
X82194Y-75851D01*
X82255Y-75822D01*
X82397Y-75822D01*
X82451Y-75851D01*
X82476Y-75880D01*
X82497Y-75937D01*
X82490Y-75994D01*
X82451Y-76080D01*
X82065Y-76422D01*
X82437Y-76422D01*
X83001Y-76022D02*
X82951Y-76422D01*
X82887Y-75794D02*
X82690Y-76222D01*
X83062Y-76222D01*
X83980Y-76422D02*
X84019Y-76108D01*
X83997Y-76051D01*
X83944Y-76022D01*
X83830Y-76022D01*
X83769Y-76051D01*
X83983Y-76394D02*
X83922Y-76422D01*
X83780Y-76422D01*
X83726Y-76394D01*
X83705Y-76337D01*
X83712Y-76280D01*
X83747Y-76222D01*
X83808Y-76194D01*
X83951Y-76194D01*
X84012Y-76165D01*
X84315Y-76022D02*
X84240Y-76622D01*
X84312Y-76051D02*
X84372Y-76022D01*
X84487Y-76022D01*
X84540Y-76051D01*
X84565Y-76080D01*
X84587Y-76137D01*
X84565Y-76308D01*
X84530Y-76365D01*
X84497Y-76394D01*
X84437Y-76422D01*
X84322Y-76422D01*
X84269Y-76394D01*
X84808Y-76422D02*
X84858Y-76022D01*
X84844Y-76137D02*
X84880Y-76080D01*
X84912Y-76051D01*
X84972Y-76022D01*
X85030Y-76022D01*
X85676Y-75880D02*
X85708Y-75851D01*
X85769Y-75822D01*
X85912Y-75822D01*
X85965Y-75851D01*
X85990Y-75880D01*
X86012Y-75937D01*
X86005Y-75994D01*
X85965Y-76080D01*
X85580Y-76422D01*
X85951Y-76422D01*
X86397Y-75822D02*
X86455Y-75822D01*
X86508Y-75851D01*
X86533Y-75880D01*
X86555Y-75937D01*
X86569Y-76051D01*
X86551Y-76194D01*
X86508Y-76308D01*
X86472Y-76365D01*
X86440Y-76394D01*
X86380Y-76422D01*
X86322Y-76422D01*
X86269Y-76394D01*
X86244Y-76365D01*
X86222Y-76308D01*
X86208Y-76194D01*
X86226Y-76051D01*
X86269Y-75937D01*
X86305Y-75880D01*
X86337Y-75851D01*
X86397Y-75822D01*
X87094Y-76422D02*
X86751Y-76422D01*
X86922Y-76422D02*
X86997Y-75822D01*
X86930Y-75908D01*
X86865Y-75965D01*
X86805Y-75994D01*
X87658Y-76022D02*
X87608Y-76422D01*
X87544Y-75794D02*
X87347Y-76222D01*
X87719Y-76222D01*
X70972Y-77622D02*
X70972Y-77022D01*
X71315Y-77622D02*
X71058Y-77280D01*
X71315Y-77022D02*
X70972Y-77365D01*
X71572Y-77622D02*
X71572Y-77222D01*
X71572Y-77022D02*
X71544Y-77051D01*
X71572Y-77080D01*
X71601Y-77051D01*
X71572Y-77022D01*
X71572Y-77080D01*
X72201Y-77565D02*
X72172Y-77594D01*
X72087Y-77622D01*
X72030Y-77622D01*
X71944Y-77594D01*
X71887Y-77537D01*
X71858Y-77480D01*
X71830Y-77365D01*
X71830Y-77280D01*
X71858Y-77165D01*
X71887Y-77108D01*
X71944Y-77051D01*
X72030Y-77022D01*
X72087Y-77022D01*
X72172Y-77051D01*
X72201Y-77080D01*
X72715Y-77622D02*
X72715Y-77308D01*
X72687Y-77251D01*
X72630Y-77222D01*
X72515Y-77222D01*
X72458Y-77251D01*
X72715Y-77594D02*
X72658Y-77622D01*
X72515Y-77622D01*
X72458Y-77594D01*
X72430Y-77537D01*
X72430Y-77480D01*
X72458Y-77422D01*
X72515Y-77394D01*
X72658Y-77394D01*
X72715Y-77365D01*
X73258Y-77622D02*
X73258Y-77022D01*
X73258Y-77594D02*
X73201Y-77622D01*
X73087Y-77622D01*
X73030Y-77594D01*
X73001Y-77565D01*
X72972Y-77508D01*
X72972Y-77337D01*
X73001Y-77280D01*
X73030Y-77251D01*
X73087Y-77222D01*
X73201Y-77222D01*
X73258Y-77251D01*
X74001Y-77308D02*
X74201Y-77308D01*
X74287Y-77622D02*
X74001Y-77622D01*
X74001Y-77022D01*
X74287Y-77022D01*
X74544Y-77565D02*
X74572Y-77594D01*
X74544Y-77622D01*
X74515Y-77594D01*
X74544Y-77565D01*
X74544Y-77622D01*
X74829Y-77622D02*
X74829Y-77022D01*
X74972Y-77022D01*
X75058Y-77051D01*
X75115Y-77108D01*
X75144Y-77165D01*
X75172Y-77280D01*
X75172Y-77365D01*
X75144Y-77480D01*
X75115Y-77537D01*
X75058Y-77594D01*
X74972Y-77622D01*
X74829Y-77622D01*
X75429Y-77565D02*
X75458Y-77594D01*
X75429Y-77622D01*
X75401Y-77594D01*
X75429Y-77565D01*
X75429Y-77622D01*
X75687Y-77451D02*
X75972Y-77451D01*
X75629Y-77622D02*
X75829Y-77022D01*
X76029Y-77622D01*
X76229Y-77565D02*
X76258Y-77594D01*
X76229Y-77622D01*
X76201Y-77594D01*
X76229Y-77565D01*
X76229Y-77622D01*
X104522Y-76422D02*
X104358Y-76137D01*
X104180Y-76422D02*
X104255Y-75822D01*
X104483Y-75822D01*
X104537Y-75851D01*
X104562Y-75880D01*
X104583Y-75937D01*
X104572Y-76022D01*
X104537Y-76080D01*
X104505Y-76108D01*
X104444Y-76137D01*
X104215Y-76137D01*
X105012Y-76394D02*
X104951Y-76422D01*
X104837Y-76422D01*
X104783Y-76394D01*
X104762Y-76337D01*
X104790Y-76108D01*
X104826Y-76051D01*
X104887Y-76022D01*
X105001Y-76022D01*
X105055Y-76051D01*
X105076Y-76108D01*
X105069Y-76165D01*
X104776Y-76222D01*
X105287Y-76022D02*
X105380Y-76422D01*
X105572Y-76022D01*
X105758Y-76365D02*
X105783Y-76394D01*
X105751Y-76422D01*
X105726Y-76394D01*
X105758Y-76365D01*
X105751Y-76422D01*
X105797Y-76051D02*
X105822Y-76080D01*
X105790Y-76108D01*
X105765Y-76080D01*
X105797Y-76051D01*
X105790Y-76108D01*
X106855Y-75822D02*
X106569Y-75822D01*
X106505Y-76108D01*
X106537Y-76080D01*
X106597Y-76051D01*
X106740Y-76051D01*
X106794Y-76080D01*
X106819Y-76108D01*
X106840Y-76165D01*
X106822Y-76308D01*
X106787Y-76365D01*
X106755Y-76394D01*
X106694Y-76422D01*
X106551Y-76422D01*
X106497Y-76394D01*
X106472Y-76365D01*
X70944Y-76394D02*
X71030Y-76422D01*
X71172Y-76422D01*
X71230Y-76394D01*
X71258Y-76365D01*
X71287Y-76308D01*
X71287Y-76251D01*
X71258Y-76194D01*
X71230Y-76165D01*
X71172Y-76137D01*
X71058Y-76108D01*
X71001Y-76080D01*
X70972Y-76051D01*
X70944Y-75994D01*
X70944Y-75937D01*
X70972Y-75880D01*
X71001Y-75851D01*
X71058Y-75822D01*
X71201Y-75822D01*
X71287Y-75851D01*
X71544Y-76422D02*
X71544Y-76022D01*
X71544Y-75822D02*
X71515Y-75851D01*
X71544Y-75880D01*
X71572Y-75851D01*
X71544Y-75822D01*
X71544Y-75880D01*
X71772Y-76022D02*
X72087Y-76022D01*
X71772Y-76422D01*
X72087Y-76422D01*
X72544Y-76394D02*
X72487Y-76422D01*
X72372Y-76422D01*
X72315Y-76394D01*
X72287Y-76337D01*
X72287Y-76108D01*
X72315Y-76051D01*
X72372Y-76022D01*
X72487Y-76022D01*
X72544Y-76051D01*
X72572Y-76108D01*
X72572Y-76165D01*
X72287Y-76222D01*
X72830Y-76365D02*
X72858Y-76394D01*
X72830Y-76422D01*
X72801Y-76394D01*
X72830Y-76365D01*
X72830Y-76422D01*
X72830Y-76051D02*
X72858Y-76080D01*
X72830Y-76108D01*
X72801Y-76080D01*
X72830Y-76051D01*
X72830Y-76108D01*
X73544Y-76251D02*
X73830Y-76251D01*
X73487Y-76422D02*
X73687Y-75822D01*
X73887Y-76422D01*
X74344Y-76022D02*
X74344Y-76422D01*
X74201Y-75794D02*
X74058Y-76222D01*
X74430Y-76222D01*
X104172Y-77622D02*
X104172Y-77022D01*
X104715Y-77622D02*
X104715Y-77022D01*
X104715Y-77594D02*
X104658Y-77622D01*
X104544Y-77622D01*
X104487Y-77594D01*
X104458Y-77565D01*
X104430Y-77508D01*
X104430Y-77337D01*
X104458Y-77280D01*
X104487Y-77251D01*
X104544Y-77222D01*
X104658Y-77222D01*
X104715Y-77251D01*
X105001Y-77565D02*
X105030Y-77594D01*
X105001Y-77622D01*
X104972Y-77594D01*
X105001Y-77565D01*
X105001Y-77622D01*
X105001Y-77251D02*
X105030Y-77280D01*
X105001Y-77308D01*
X104972Y-77280D01*
X105001Y-77251D01*
X105001Y-77308D01*
X106058Y-77622D02*
X105715Y-77622D01*
X105887Y-77622D02*
X105887Y-77022D01*
X105829Y-77108D01*
X105772Y-77165D01*
X105715Y-77194D01*
X106744Y-76994D02*
X106230Y-77765D01*
X107258Y-77622D02*
X106915Y-77622D01*
X107087Y-77622D02*
X107087Y-77022D01*
X107029Y-77108D01*
X106972Y-77165D01*
X106915Y-77194D01*
X70969Y-74622D02*
X71312Y-74622D01*
X71065Y-75222D02*
X71140Y-74622D01*
X71437Y-75222D02*
X71487Y-74822D01*
X71512Y-74622D02*
X71480Y-74651D01*
X71505Y-74680D01*
X71537Y-74651D01*
X71512Y-74622D01*
X71505Y-74680D01*
X71687Y-74822D02*
X71915Y-74822D01*
X71797Y-74622D02*
X71733Y-75137D01*
X71755Y-75194D01*
X71808Y-75222D01*
X71865Y-75222D01*
X72151Y-75222D02*
X72097Y-75194D01*
X72076Y-75137D01*
X72140Y-74622D01*
X72612Y-75194D02*
X72551Y-75222D01*
X72437Y-75222D01*
X72383Y-75194D01*
X72362Y-75137D01*
X72390Y-74908D01*
X72426Y-74851D01*
X72487Y-74822D01*
X72601Y-74822D01*
X72655Y-74851D01*
X72676Y-74908D01*
X72669Y-74965D01*
X72376Y-75022D01*
X72901Y-75165D02*
X72926Y-75194D01*
X72894Y-75222D01*
X72869Y-75194D01*
X72901Y-75165D01*
X72894Y-75222D01*
X72940Y-74851D02*
X72965Y-74880D01*
X72933Y-74908D01*
X72908Y-74880D01*
X72940Y-74851D01*
X72933Y-74908D01*
X73637Y-75222D02*
X73712Y-74622D01*
X73858Y-75051D01*
X74112Y-74622D01*
X74037Y-75222D01*
X74315Y-74822D02*
X74408Y-75222D01*
X74601Y-74822D02*
X74408Y-75222D01*
X74333Y-75365D01*
X74301Y-75394D01*
X74240Y-75422D01*
X74780Y-75222D02*
X74830Y-74822D01*
X74815Y-74937D02*
X74851Y-74880D01*
X74883Y-74851D01*
X74944Y-74822D01*
X75001Y-74822D01*
X75151Y-75222D02*
X75201Y-74822D01*
X75226Y-74622D02*
X75194Y-74651D01*
X75219Y-74680D01*
X75251Y-74651D01*
X75226Y-74622D01*
X75219Y-74680D01*
X75694Y-75222D02*
X75733Y-74908D01*
X75712Y-74851D01*
X75658Y-74822D01*
X75544Y-74822D01*
X75483Y-74851D01*
X75697Y-75194D02*
X75637Y-75222D01*
X75494Y-75222D01*
X75440Y-75194D01*
X75419Y-75137D01*
X75426Y-75080D01*
X75462Y-75022D01*
X75522Y-74994D01*
X75665Y-74994D01*
X75726Y-74965D01*
X76237Y-75222D02*
X76312Y-74622D01*
X76240Y-75194D02*
X76180Y-75222D01*
X76065Y-75222D01*
X76012Y-75194D01*
X75987Y-75165D01*
X75965Y-75108D01*
X75987Y-74937D01*
X76022Y-74880D01*
X76055Y-74851D01*
X76115Y-74822D01*
X76230Y-74822D01*
X76283Y-74851D01*
X77322Y-75222D02*
X77158Y-74937D01*
X76980Y-75222D02*
X77055Y-74622D01*
X77283Y-74622D01*
X77337Y-74651D01*
X77362Y-74680D01*
X77383Y-74737D01*
X77372Y-74822D01*
X77337Y-74880D01*
X77305Y-74908D01*
X77244Y-74937D01*
X77015Y-74937D01*
X77819Y-74908D02*
X77619Y-74908D01*
X77580Y-75222D02*
X77655Y-74622D01*
X77940Y-74622D01*
X79058Y-74594D02*
X78447Y-75365D01*
X79637Y-75222D02*
X79712Y-74622D01*
X79980Y-75222D01*
X80055Y-74622D01*
X80351Y-75222D02*
X80297Y-75194D01*
X80272Y-75165D01*
X80251Y-75108D01*
X80272Y-74937D01*
X80308Y-74880D01*
X80340Y-74851D01*
X80401Y-74822D01*
X80487Y-74822D01*
X80540Y-74851D01*
X80565Y-74880D01*
X80587Y-74937D01*
X80565Y-75108D01*
X80530Y-75165D01*
X80497Y-75194D01*
X80437Y-75222D01*
X80351Y-75222D01*
X80801Y-74822D02*
X80894Y-75222D01*
X81087Y-74822D01*
X81497Y-75194D02*
X81437Y-75222D01*
X81322Y-75222D01*
X81269Y-75194D01*
X81247Y-75137D01*
X81276Y-74908D01*
X81312Y-74851D01*
X81372Y-74822D01*
X81487Y-74822D01*
X81540Y-74851D01*
X81562Y-74908D01*
X81555Y-74965D01*
X81262Y-75022D01*
X81830Y-74822D02*
X81780Y-75222D01*
X81822Y-74880D02*
X81855Y-74851D01*
X81915Y-74822D01*
X82001Y-74822D01*
X82055Y-74851D01*
X82076Y-74908D01*
X82037Y-75222D01*
X82580Y-75222D02*
X82619Y-74908D01*
X82597Y-74851D01*
X82544Y-74822D01*
X82430Y-74822D01*
X82369Y-74851D01*
X82583Y-75194D02*
X82522Y-75222D01*
X82380Y-75222D01*
X82326Y-75194D01*
X82305Y-75137D01*
X82312Y-75080D01*
X82347Y-75022D01*
X82408Y-74994D01*
X82551Y-74994D01*
X82612Y-74965D01*
X83315Y-74822D02*
X83408Y-75222D01*
X83601Y-74822D01*
X83787Y-75165D02*
X83812Y-75194D01*
X83780Y-75222D01*
X83755Y-75194D01*
X83787Y-75165D01*
X83780Y-75222D01*
X84380Y-75222D02*
X84037Y-75222D01*
X84208Y-75222D02*
X84283Y-74622D01*
X84215Y-74708D01*
X84151Y-74765D01*
X84090Y-74794D01*
X71172Y-72508D02*
X70972Y-72508D01*
X70972Y-72822D02*
X70972Y-72222D01*
X71258Y-72222D01*
X71487Y-72822D02*
X71487Y-72422D01*
X71487Y-72222D02*
X71458Y-72251D01*
X71487Y-72280D01*
X71515Y-72251D01*
X71487Y-72222D01*
X71487Y-72280D01*
X71858Y-72822D02*
X71801Y-72794D01*
X71772Y-72737D01*
X71772Y-72222D01*
X72315Y-72794D02*
X72258Y-72822D01*
X72144Y-72822D01*
X72087Y-72794D01*
X72058Y-72737D01*
X72058Y-72508D01*
X72087Y-72451D01*
X72144Y-72422D01*
X72258Y-72422D01*
X72315Y-72451D01*
X72344Y-72508D01*
X72344Y-72565D01*
X72058Y-72622D01*
X72601Y-72765D02*
X72630Y-72794D01*
X72601Y-72822D01*
X72572Y-72794D01*
X72601Y-72765D01*
X72601Y-72822D01*
X72601Y-72451D02*
X72630Y-72480D01*
X72601Y-72508D01*
X72572Y-72480D01*
X72601Y-72451D01*
X72601Y-72508D01*
X73344Y-72822D02*
X73344Y-72222D01*
X73544Y-72651D01*
X73744Y-72222D01*
X73744Y-72822D01*
X74144Y-72537D02*
X74144Y-72822D01*
X73944Y-72222D02*
X74144Y-72537D01*
X74344Y-72222D01*
X74887Y-72822D02*
X74687Y-72537D01*
X74544Y-72822D02*
X74544Y-72222D01*
X74772Y-72222D01*
X74830Y-72251D01*
X74858Y-72280D01*
X74887Y-72337D01*
X74887Y-72422D01*
X74858Y-72480D01*
X74830Y-72508D01*
X74772Y-72537D01*
X74544Y-72537D01*
X75144Y-72822D02*
X75144Y-72222D01*
X75401Y-72651D02*
X75687Y-72651D01*
X75344Y-72822D02*
X75544Y-72222D01*
X75744Y-72822D01*
X75944Y-72822D02*
X75944Y-72222D01*
X76087Y-72222D01*
X76172Y-72251D01*
X76230Y-72308D01*
X76258Y-72365D01*
X76287Y-72480D01*
X76287Y-72565D01*
X76258Y-72680D01*
X76230Y-72737D01*
X76172Y-72794D01*
X76087Y-72822D01*
X75944Y-72822D01*
X76401Y-72880D02*
X76858Y-72880D01*
X77344Y-72822D02*
X77144Y-72537D01*
X77001Y-72822D02*
X77001Y-72222D01*
X77230Y-72222D01*
X77287Y-72251D01*
X77315Y-72280D01*
X77344Y-72337D01*
X77344Y-72422D01*
X77315Y-72480D01*
X77287Y-72508D01*
X77230Y-72537D01*
X77001Y-72537D01*
X77801Y-72508D02*
X77601Y-72508D01*
X77601Y-72822D02*
X77601Y-72222D01*
X77887Y-72222D01*
X78115Y-72765D02*
X78144Y-72794D01*
X78115Y-72822D01*
X78087Y-72794D01*
X78115Y-72765D01*
X78115Y-72822D01*
X78401Y-72822D02*
X78401Y-72222D01*
X78401Y-72451D02*
X78458Y-72422D01*
X78572Y-72422D01*
X78630Y-72451D01*
X78658Y-72480D01*
X78687Y-72537D01*
X78687Y-72708D01*
X78658Y-72765D01*
X78630Y-72794D01*
X78572Y-72822D01*
X78458Y-72822D01*
X78401Y-72794D01*
X78944Y-72822D02*
X78944Y-72422D01*
X78944Y-72537D02*
X78972Y-72480D01*
X79001Y-72451D01*
X79058Y-72422D01*
X79115Y-72422D01*
X79572Y-72822D02*
X79572Y-72222D01*
X79572Y-72794D02*
X79515Y-72822D01*
X79401Y-72822D01*
X79344Y-72794D01*
X79315Y-72765D01*
X79287Y-72708D01*
X79287Y-72537D01*
X79315Y-72480D01*
X79344Y-72451D01*
X79401Y-72422D01*
X79515Y-72422D01*
X79572Y-72451D01*
X70944Y-73994D02*
X71030Y-74022D01*
X71172Y-74022D01*
X71230Y-73994D01*
X71258Y-73965D01*
X71287Y-73908D01*
X71287Y-73851D01*
X71258Y-73794D01*
X71230Y-73765D01*
X71172Y-73737D01*
X71058Y-73708D01*
X71001Y-73680D01*
X70972Y-73651D01*
X70944Y-73594D01*
X70944Y-73537D01*
X70972Y-73480D01*
X71001Y-73451D01*
X71058Y-73422D01*
X71201Y-73422D01*
X71287Y-73451D01*
X71544Y-74022D02*
X71544Y-73422D01*
X71801Y-74022D02*
X71801Y-73708D01*
X71772Y-73651D01*
X71715Y-73622D01*
X71630Y-73622D01*
X71572Y-73651D01*
X71544Y-73680D01*
X72315Y-73994D02*
X72258Y-74022D01*
X72144Y-74022D01*
X72087Y-73994D01*
X72058Y-73937D01*
X72058Y-73708D01*
X72087Y-73651D01*
X72144Y-73622D01*
X72258Y-73622D01*
X72315Y-73651D01*
X72344Y-73708D01*
X72344Y-73765D01*
X72058Y-73822D01*
X72830Y-73994D02*
X72772Y-74022D01*
X72658Y-74022D01*
X72601Y-73994D01*
X72572Y-73937D01*
X72572Y-73708D01*
X72601Y-73651D01*
X72658Y-73622D01*
X72772Y-73622D01*
X72830Y-73651D01*
X72858Y-73708D01*
X72858Y-73765D01*
X72572Y-73822D01*
X73030Y-73622D02*
X73258Y-73622D01*
X73115Y-73422D02*
X73115Y-73937D01*
X73144Y-73994D01*
X73201Y-74022D01*
X73258Y-74022D01*
X73458Y-73965D02*
X73487Y-73994D01*
X73458Y-74022D01*
X73430Y-73994D01*
X73458Y-73965D01*
X73458Y-74022D01*
X73458Y-73651D02*
X73487Y-73680D01*
X73458Y-73708D01*
X73430Y-73680D01*
X73458Y-73651D01*
X73458Y-73708D01*
X70887Y-69822D02*
X71230Y-69822D01*
X71058Y-70422D02*
X71058Y-69822D01*
X71430Y-70422D02*
X71430Y-69822D01*
X71430Y-70108D02*
X71772Y-70108D01*
X71772Y-70422D02*
X71772Y-69822D01*
X72058Y-70422D02*
X72058Y-69822D01*
X72315Y-70394D02*
X72401Y-70422D01*
X72544Y-70422D01*
X72601Y-70394D01*
X72629Y-70365D01*
X72658Y-70308D01*
X72658Y-70251D01*
X72629Y-70194D01*
X72601Y-70165D01*
X72544Y-70137D01*
X72429Y-70108D01*
X72372Y-70080D01*
X72344Y-70051D01*
X72315Y-69994D01*
X72315Y-69937D01*
X72344Y-69880D01*
X72372Y-69851D01*
X72429Y-69822D01*
X72572Y-69822D01*
X72658Y-69851D01*
X73315Y-69822D02*
X73458Y-70422D01*
X73572Y-69994D01*
X73687Y-70422D01*
X73830Y-69822D01*
X74172Y-69822D02*
X74287Y-69822D01*
X74344Y-69851D01*
X74401Y-69908D01*
X74430Y-70022D01*
X74430Y-70222D01*
X74401Y-70337D01*
X74344Y-70394D01*
X74287Y-70422D01*
X74172Y-70422D01*
X74115Y-70394D01*
X74058Y-70337D01*
X74030Y-70222D01*
X74030Y-70022D01*
X74058Y-69908D01*
X74115Y-69851D01*
X74172Y-69822D01*
X75029Y-70422D02*
X74829Y-70137D01*
X74687Y-70422D02*
X74687Y-69822D01*
X74915Y-69822D01*
X74972Y-69851D01*
X75001Y-69880D01*
X75029Y-69937D01*
X75029Y-70022D01*
X75001Y-70080D01*
X74972Y-70108D01*
X74915Y-70137D01*
X74687Y-70137D01*
X75287Y-70422D02*
X75287Y-69822D01*
X75629Y-70422D02*
X75372Y-70080D01*
X75629Y-69822D02*
X75287Y-70165D01*
X76344Y-70422D02*
X76344Y-69822D01*
X76601Y-70394D02*
X76687Y-70422D01*
X76829Y-70422D01*
X76887Y-70394D01*
X76915Y-70365D01*
X76944Y-70308D01*
X76944Y-70251D01*
X76915Y-70194D01*
X76887Y-70165D01*
X76829Y-70137D01*
X76715Y-70108D01*
X76658Y-70080D01*
X76629Y-70051D01*
X76601Y-69994D01*
X76601Y-69937D01*
X76629Y-69880D01*
X76658Y-69851D01*
X76715Y-69822D01*
X76858Y-69822D01*
X76944Y-69851D01*
X78001Y-70365D02*
X77972Y-70394D01*
X77887Y-70422D01*
X77830Y-70422D01*
X77744Y-70394D01*
X77687Y-70337D01*
X77658Y-70280D01*
X77630Y-70165D01*
X77630Y-70080D01*
X77658Y-69965D01*
X77687Y-69908D01*
X77744Y-69851D01*
X77830Y-69822D01*
X77887Y-69822D01*
X77972Y-69851D01*
X78001Y-69880D01*
X78372Y-69822D02*
X78487Y-69822D01*
X78544Y-69851D01*
X78601Y-69908D01*
X78630Y-70022D01*
X78630Y-70222D01*
X78601Y-70337D01*
X78544Y-70394D01*
X78487Y-70422D01*
X78372Y-70422D01*
X78315Y-70394D01*
X78258Y-70337D01*
X78230Y-70222D01*
X78230Y-70022D01*
X78258Y-69908D01*
X78315Y-69851D01*
X78372Y-69822D01*
X78801Y-69822D02*
X79001Y-70422D01*
X79201Y-69822D01*
X79401Y-70108D02*
X79601Y-70108D01*
X79687Y-70422D02*
X79401Y-70422D01*
X79401Y-69822D01*
X79687Y-69822D01*
X80287Y-70422D02*
X80087Y-70137D01*
X79944Y-70422D02*
X79944Y-69822D01*
X80172Y-69822D01*
X80229Y-69851D01*
X80258Y-69880D01*
X80287Y-69937D01*
X80287Y-70022D01*
X80258Y-70080D01*
X80229Y-70108D01*
X80172Y-70137D01*
X79944Y-70137D01*
X80544Y-70108D02*
X80744Y-70108D01*
X80829Y-70422D02*
X80544Y-70422D01*
X80544Y-69822D01*
X80829Y-69822D01*
X81087Y-70422D02*
X81087Y-69822D01*
X81229Y-69822D01*
X81315Y-69851D01*
X81372Y-69908D01*
X81401Y-69965D01*
X81429Y-70080D01*
X81429Y-70165D01*
X81401Y-70280D01*
X81372Y-70337D01*
X81315Y-70394D01*
X81229Y-70422D01*
X81087Y-70422D01*
X82144Y-69822D02*
X82144Y-70308D01*
X82172Y-70365D01*
X82201Y-70394D01*
X82258Y-70422D01*
X82372Y-70422D01*
X82429Y-70394D01*
X82458Y-70365D01*
X82487Y-70308D01*
X82487Y-69822D01*
X82772Y-70422D02*
X82772Y-69822D01*
X83115Y-70422D01*
X83115Y-69822D01*
X83401Y-70422D02*
X83401Y-69822D01*
X83544Y-69822D01*
X83629Y-69851D01*
X83687Y-69908D01*
X83715Y-69965D01*
X83744Y-70080D01*
X83744Y-70165D01*
X83715Y-70280D01*
X83687Y-70337D01*
X83629Y-70394D01*
X83544Y-70422D01*
X83401Y-70422D01*
X84001Y-70108D02*
X84201Y-70108D01*
X84287Y-70422D02*
X84001Y-70422D01*
X84001Y-69822D01*
X84287Y-69822D01*
X84887Y-70422D02*
X84687Y-70137D01*
X84544Y-70422D02*
X84544Y-69822D01*
X84772Y-69822D01*
X84829Y-69851D01*
X84858Y-69880D01*
X84887Y-69937D01*
X84887Y-70022D01*
X84858Y-70080D01*
X84829Y-70108D01*
X84772Y-70137D01*
X84544Y-70137D01*
X85572Y-70251D02*
X85858Y-70251D01*
X85515Y-70422D02*
X85715Y-69822D01*
X85915Y-70422D01*
X86915Y-70365D02*
X86887Y-70394D01*
X86801Y-70422D01*
X86744Y-70422D01*
X86658Y-70394D01*
X86601Y-70337D01*
X86572Y-70280D01*
X86544Y-70165D01*
X86544Y-70080D01*
X86572Y-69965D01*
X86601Y-69908D01*
X86658Y-69851D01*
X86744Y-69822D01*
X86801Y-69822D01*
X86887Y-69851D01*
X86915Y-69880D01*
X87515Y-70422D02*
X87315Y-70137D01*
X87172Y-70422D02*
X87172Y-69822D01*
X87401Y-69822D01*
X87458Y-69851D01*
X87487Y-69880D01*
X87515Y-69937D01*
X87515Y-70022D01*
X87487Y-70080D01*
X87458Y-70108D01*
X87401Y-70137D01*
X87172Y-70137D01*
X87772Y-70108D02*
X87972Y-70108D01*
X88058Y-70422D02*
X87772Y-70422D01*
X87772Y-69822D01*
X88058Y-69822D01*
X88287Y-70251D02*
X88572Y-70251D01*
X88229Y-70422D02*
X88429Y-69822D01*
X88629Y-70422D01*
X88744Y-69822D02*
X89087Y-69822D01*
X88915Y-70422D02*
X88915Y-69822D01*
X89287Y-70422D02*
X89287Y-69822D01*
X89487Y-69822D02*
X89687Y-70422D01*
X89887Y-69822D01*
X90087Y-70108D02*
X90287Y-70108D01*
X90372Y-70422D02*
X90087Y-70422D01*
X90087Y-69822D01*
X90372Y-69822D01*
X91429Y-70365D02*
X91401Y-70394D01*
X91315Y-70422D01*
X91258Y-70422D01*
X91172Y-70394D01*
X91115Y-70337D01*
X91087Y-70280D01*
X91058Y-70165D01*
X91058Y-70080D01*
X91087Y-69965D01*
X91115Y-69908D01*
X91172Y-69851D01*
X91258Y-69822D01*
X91315Y-69822D01*
X91401Y-69851D01*
X91429Y-69880D01*
X91801Y-69822D02*
X91915Y-69822D01*
X91972Y-69851D01*
X92029Y-69908D01*
X92058Y-70022D01*
X92058Y-70222D01*
X92029Y-70337D01*
X91972Y-70394D01*
X91915Y-70422D01*
X91801Y-70422D01*
X91744Y-70394D01*
X91687Y-70337D01*
X91658Y-70222D01*
X91658Y-70022D01*
X91687Y-69908D01*
X91744Y-69851D01*
X91801Y-69822D01*
X92315Y-70422D02*
X92315Y-69822D01*
X92515Y-70251D01*
X92715Y-69822D01*
X92715Y-70422D01*
X93001Y-70422D02*
X93001Y-69822D01*
X93201Y-70251D01*
X93401Y-69822D01*
X93401Y-70422D01*
X93801Y-69822D02*
X93915Y-69822D01*
X93972Y-69851D01*
X94029Y-69908D01*
X94058Y-70022D01*
X94058Y-70222D01*
X94029Y-70337D01*
X93972Y-70394D01*
X93915Y-70422D01*
X93801Y-70422D01*
X93744Y-70394D01*
X93687Y-70337D01*
X93658Y-70222D01*
X93658Y-70022D01*
X93687Y-69908D01*
X93744Y-69851D01*
X93801Y-69822D01*
X94315Y-70422D02*
X94315Y-69822D01*
X94658Y-70422D01*
X94658Y-69822D01*
X94915Y-70394D02*
X95001Y-70422D01*
X95144Y-70422D01*
X95201Y-70394D01*
X95229Y-70365D01*
X95258Y-70308D01*
X95258Y-70251D01*
X95229Y-70194D01*
X95201Y-70165D01*
X95144Y-70137D01*
X95029Y-70108D01*
X94972Y-70080D01*
X94944Y-70051D01*
X94915Y-69994D01*
X94915Y-69937D01*
X94944Y-69880D01*
X94972Y-69851D01*
X95029Y-69822D01*
X95172Y-69822D01*
X95258Y-69851D01*
X96258Y-70422D02*
X95972Y-70422D01*
X95972Y-69822D01*
X96458Y-70422D02*
X96458Y-69822D01*
X97087Y-70365D02*
X97058Y-70394D01*
X96972Y-70422D01*
X96915Y-70422D01*
X96829Y-70394D01*
X96772Y-70337D01*
X96744Y-70280D01*
X96715Y-70165D01*
X96715Y-70080D01*
X96744Y-69965D01*
X96772Y-69908D01*
X96829Y-69851D01*
X96915Y-69822D01*
X96972Y-69822D01*
X97058Y-69851D01*
X97087Y-69880D01*
X97344Y-70108D02*
X97544Y-70108D01*
X97629Y-70422D02*
X97344Y-70422D01*
X97344Y-69822D01*
X97629Y-69822D01*
X97887Y-70422D02*
X97887Y-69822D01*
X98229Y-70422D01*
X98229Y-69822D01*
X98487Y-70394D02*
X98572Y-70422D01*
X98715Y-70422D01*
X98772Y-70394D01*
X98801Y-70365D01*
X98829Y-70308D01*
X98829Y-70251D01*
X98801Y-70194D01*
X98772Y-70165D01*
X98715Y-70137D01*
X98601Y-70108D01*
X98544Y-70080D01*
X98515Y-70051D01*
X98487Y-69994D01*
X98487Y-69937D01*
X98515Y-69880D01*
X98544Y-69851D01*
X98601Y-69822D01*
X98744Y-69822D01*
X98829Y-69851D01*
X99087Y-70108D02*
X99287Y-70108D01*
X99372Y-70422D02*
X99087Y-70422D01*
X99087Y-69822D01*
X99372Y-69822D01*
X100258Y-70651D02*
X100229Y-70622D01*
X100172Y-70537D01*
X100144Y-70480D01*
X100115Y-70394D01*
X100087Y-70251D01*
X100087Y-70137D01*
X100115Y-69994D01*
X100144Y-69908D01*
X100172Y-69851D01*
X100229Y-69765D01*
X100258Y-69737D01*
X100829Y-70365D02*
X100801Y-70394D01*
X100715Y-70422D01*
X100658Y-70422D01*
X100572Y-70394D01*
X100515Y-70337D01*
X100487Y-70280D01*
X100458Y-70165D01*
X100458Y-70080D01*
X100487Y-69965D01*
X100515Y-69908D01*
X100572Y-69851D01*
X100658Y-69822D01*
X100715Y-69822D01*
X100801Y-69851D01*
X100829Y-69880D01*
X101429Y-70365D02*
X101401Y-70394D01*
X101315Y-70422D01*
X101258Y-70422D01*
X101172Y-70394D01*
X101115Y-70337D01*
X101087Y-70280D01*
X101058Y-70165D01*
X101058Y-70080D01*
X101087Y-69965D01*
X101115Y-69908D01*
X101172Y-69851D01*
X101258Y-69822D01*
X101315Y-69822D01*
X101401Y-69851D01*
X101429Y-69880D01*
X102344Y-70108D02*
X102429Y-70137D01*
X102458Y-70165D01*
X102487Y-70222D01*
X102487Y-70308D01*
X102458Y-70365D01*
X102429Y-70394D01*
X102372Y-70422D01*
X102144Y-70422D01*
X102144Y-69822D01*
X102344Y-69822D01*
X102401Y-69851D01*
X102429Y-69880D01*
X102458Y-69937D01*
X102458Y-69994D01*
X102429Y-70051D01*
X102401Y-70080D01*
X102344Y-70108D01*
X102144Y-70108D01*
X102858Y-70137D02*
X102858Y-70422D01*
X102658Y-69822D02*
X102858Y-70137D01*
X103058Y-69822D01*
X103658Y-69822D02*
X104029Y-69822D01*
X103829Y-70051D01*
X103915Y-70051D01*
X103972Y-70080D01*
X104001Y-70108D01*
X104029Y-70165D01*
X104029Y-70308D01*
X104001Y-70365D01*
X103972Y-70394D01*
X103915Y-70422D01*
X103744Y-70422D01*
X103687Y-70394D01*
X103658Y-70365D01*
X104287Y-70365D02*
X104315Y-70394D01*
X104287Y-70422D01*
X104258Y-70394D01*
X104287Y-70365D01*
X104287Y-70422D01*
X104687Y-69822D02*
X104744Y-69822D01*
X104801Y-69851D01*
X104829Y-69880D01*
X104858Y-69937D01*
X104887Y-70051D01*
X104887Y-70194D01*
X104858Y-70308D01*
X104829Y-70365D01*
X104801Y-70394D01*
X104744Y-70422D01*
X104687Y-70422D01*
X104629Y-70394D01*
X104601Y-70365D01*
X104572Y-70308D01*
X104544Y-70194D01*
X104544Y-70051D01*
X104572Y-69937D01*
X104601Y-69880D01*
X104629Y-69851D01*
X104687Y-69822D01*
X105087Y-70651D02*
X105115Y-70622D01*
X105172Y-70537D01*
X105201Y-70480D01*
X105229Y-70394D01*
X105258Y-70251D01*
X105258Y-70137D01*
X105229Y-69994D01*
X105201Y-69908D01*
X105172Y-69851D01*
X105115Y-69765D01*
X105087Y-69737D01*
X71315Y-69165D02*
X71287Y-69194D01*
X71201Y-69222D01*
X71144Y-69222D01*
X71058Y-69194D01*
X71001Y-69137D01*
X70972Y-69080D01*
X70944Y-68965D01*
X70944Y-68880D01*
X70972Y-68765D01*
X71001Y-68708D01*
X71058Y-68651D01*
X71144Y-68622D01*
X71201Y-68622D01*
X71287Y-68651D01*
X71315Y-68680D01*
X71658Y-69222D02*
X71601Y-69194D01*
X71572Y-69165D01*
X71544Y-69108D01*
X71544Y-68937D01*
X71572Y-68880D01*
X71601Y-68851D01*
X71658Y-68822D01*
X71744Y-68822D01*
X71801Y-68851D01*
X71830Y-68880D01*
X71858Y-68937D01*
X71858Y-69108D01*
X71830Y-69165D01*
X71801Y-69194D01*
X71744Y-69222D01*
X71658Y-69222D01*
X72115Y-68822D02*
X72115Y-69422D01*
X72115Y-68851D02*
X72172Y-68822D01*
X72287Y-68822D01*
X72344Y-68851D01*
X72372Y-68880D01*
X72401Y-68937D01*
X72401Y-69108D01*
X72372Y-69165D01*
X72344Y-69194D01*
X72287Y-69222D01*
X72172Y-69222D01*
X72115Y-69194D01*
X72601Y-68822D02*
X72744Y-69222D01*
X72887Y-68822D02*
X72744Y-69222D01*
X72687Y-69365D01*
X72658Y-69394D01*
X72601Y-69422D01*
X73115Y-69222D02*
X73115Y-68822D01*
X73115Y-68937D02*
X73144Y-68880D01*
X73172Y-68851D01*
X73230Y-68822D01*
X73287Y-68822D01*
X73487Y-69222D02*
X73487Y-68822D01*
X73487Y-68622D02*
X73458Y-68651D01*
X73487Y-68680D01*
X73515Y-68651D01*
X73487Y-68622D01*
X73487Y-68680D01*
X74030Y-68822D02*
X74030Y-69308D01*
X74001Y-69365D01*
X73972Y-69394D01*
X73915Y-69422D01*
X73830Y-69422D01*
X73772Y-69394D01*
X74030Y-69194D02*
X73972Y-69222D01*
X73858Y-69222D01*
X73801Y-69194D01*
X73772Y-69165D01*
X73744Y-69108D01*
X73744Y-68937D01*
X73772Y-68880D01*
X73801Y-68851D01*
X73858Y-68822D01*
X73972Y-68822D01*
X74030Y-68851D01*
X74315Y-69222D02*
X74315Y-68622D01*
X74572Y-69222D02*
X74572Y-68908D01*
X74544Y-68851D01*
X74487Y-68822D01*
X74401Y-68822D01*
X74344Y-68851D01*
X74315Y-68880D01*
X74772Y-68822D02*
X75001Y-68822D01*
X74858Y-68622D02*
X74858Y-69137D01*
X74887Y-69194D01*
X74944Y-69222D01*
X75001Y-69222D01*
X75630Y-68680D02*
X75658Y-68651D01*
X75715Y-68622D01*
X75858Y-68622D01*
X75915Y-68651D01*
X75944Y-68680D01*
X75972Y-68737D01*
X75972Y-68794D01*
X75944Y-68880D01*
X75601Y-69222D01*
X75972Y-69222D01*
X76344Y-68622D02*
X76401Y-68622D01*
X76458Y-68651D01*
X76487Y-68680D01*
X76515Y-68737D01*
X76544Y-68851D01*
X76544Y-68994D01*
X76515Y-69108D01*
X76487Y-69165D01*
X76458Y-69194D01*
X76401Y-69222D01*
X76344Y-69222D01*
X76287Y-69194D01*
X76258Y-69165D01*
X76230Y-69108D01*
X76201Y-68994D01*
X76201Y-68851D01*
X76230Y-68737D01*
X76258Y-68680D01*
X76287Y-68651D01*
X76344Y-68622D01*
X77115Y-69222D02*
X76772Y-69222D01*
X76944Y-69222D02*
X76944Y-68622D01*
X76887Y-68708D01*
X76830Y-68765D01*
X76772Y-68794D01*
X77315Y-68622D02*
X77687Y-68622D01*
X77487Y-68851D01*
X77572Y-68851D01*
X77630Y-68880D01*
X77658Y-68908D01*
X77687Y-68965D01*
X77687Y-69108D01*
X77658Y-69165D01*
X77630Y-69194D01*
X77572Y-69222D01*
X77401Y-69222D01*
X77344Y-69194D01*
X77315Y-69165D01*
X78372Y-69051D02*
X78658Y-69051D01*
X78315Y-69222D02*
X78515Y-68622D01*
X78715Y-69222D01*
X78858Y-68622D02*
X79258Y-68622D01*
X78858Y-69222D01*
X79258Y-69222D01*
X79487Y-69222D02*
X79487Y-68622D01*
X79887Y-68622D02*
X80001Y-68622D01*
X80058Y-68651D01*
X80115Y-68708D01*
X80144Y-68822D01*
X80144Y-69022D01*
X80115Y-69137D01*
X80058Y-69194D01*
X80001Y-69222D01*
X79887Y-69222D01*
X79830Y-69194D01*
X79772Y-69137D01*
X79744Y-69022D01*
X79744Y-68822D01*
X79772Y-68708D01*
X79830Y-68651D01*
X79887Y-68622D01*
X80858Y-68908D02*
X81058Y-68908D01*
X81144Y-69222D02*
X80858Y-69222D01*
X80858Y-68622D01*
X81144Y-68622D01*
X81487Y-69222D02*
X81430Y-69194D01*
X81401Y-69137D01*
X81401Y-68622D01*
X81944Y-69194D02*
X81887Y-69222D01*
X81772Y-69222D01*
X81715Y-69194D01*
X81687Y-69137D01*
X81687Y-68908D01*
X81715Y-68851D01*
X81772Y-68822D01*
X81887Y-68822D01*
X81944Y-68851D01*
X81972Y-68908D01*
X81972Y-68965D01*
X81687Y-69022D01*
X82487Y-69194D02*
X82430Y-69222D01*
X82315Y-69222D01*
X82258Y-69194D01*
X82230Y-69165D01*
X82201Y-69108D01*
X82201Y-68937D01*
X82230Y-68880D01*
X82258Y-68851D01*
X82315Y-68822D01*
X82430Y-68822D01*
X82487Y-68851D01*
X82658Y-68822D02*
X82887Y-68822D01*
X82744Y-68622D02*
X82744Y-69137D01*
X82772Y-69194D01*
X82830Y-69222D01*
X82887Y-69222D01*
X83087Y-69222D02*
X83087Y-68822D01*
X83087Y-68937D02*
X83115Y-68880D01*
X83144Y-68851D01*
X83201Y-68822D01*
X83258Y-68822D01*
X83544Y-69222D02*
X83487Y-69194D01*
X83458Y-69165D01*
X83430Y-69108D01*
X83430Y-68937D01*
X83458Y-68880D01*
X83487Y-68851D01*
X83544Y-68822D01*
X83630Y-68822D01*
X83687Y-68851D01*
X83715Y-68880D01*
X83744Y-68937D01*
X83744Y-69108D01*
X83715Y-69165D01*
X83687Y-69194D01*
X83630Y-69222D01*
X83544Y-69222D01*
X84001Y-68822D02*
X84001Y-69222D01*
X84001Y-68880D02*
X84030Y-68851D01*
X84087Y-68822D01*
X84172Y-68822D01*
X84230Y-68851D01*
X84258Y-68908D01*
X84258Y-69222D01*
X84544Y-69222D02*
X84544Y-68822D01*
X84544Y-68622D02*
X84515Y-68651D01*
X84544Y-68680D01*
X84572Y-68651D01*
X84544Y-68622D01*
X84544Y-68680D01*
X85087Y-69194D02*
X85030Y-69222D01*
X84915Y-69222D01*
X84858Y-69194D01*
X84830Y-69165D01*
X84801Y-69108D01*
X84801Y-68937D01*
X84830Y-68880D01*
X84858Y-68851D01*
X84915Y-68822D01*
X85030Y-68822D01*
X85087Y-68851D01*
X85315Y-69194D02*
X85372Y-69222D01*
X85487Y-69222D01*
X85544Y-69194D01*
X85572Y-69137D01*
X85572Y-69108D01*
X85544Y-69051D01*
X85487Y-69022D01*
X85401Y-69022D01*
X85344Y-68994D01*
X85315Y-68937D01*
X85315Y-68908D01*
X85344Y-68851D01*
X85401Y-68822D01*
X85487Y-68822D01*
X85544Y-68851D01*
X86630Y-69165D02*
X86601Y-69194D01*
X86515Y-69222D01*
X86458Y-69222D01*
X86372Y-69194D01*
X86315Y-69137D01*
X86287Y-69080D01*
X86258Y-68965D01*
X86258Y-68880D01*
X86287Y-68765D01*
X86315Y-68708D01*
X86372Y-68651D01*
X86458Y-68622D01*
X86515Y-68622D01*
X86601Y-68651D01*
X86630Y-68680D01*
X86972Y-69222D02*
X86915Y-69194D01*
X86887Y-69165D01*
X86858Y-69108D01*
X86858Y-68937D01*
X86887Y-68880D01*
X86915Y-68851D01*
X86972Y-68822D01*
X87058Y-68822D01*
X87115Y-68851D01*
X87144Y-68880D01*
X87172Y-68937D01*
X87172Y-69108D01*
X87144Y-69165D01*
X87115Y-69194D01*
X87058Y-69222D01*
X86972Y-69222D01*
X87430Y-69165D02*
X87458Y-69194D01*
X87430Y-69222D01*
X87401Y-69194D01*
X87430Y-69165D01*
X87430Y-69222D01*
X87744Y-69194D02*
X87744Y-69222D01*
X87715Y-69280D01*
X87687Y-69308D01*
X88744Y-69222D02*
X88458Y-69222D01*
X88458Y-68622D01*
X88858Y-68822D02*
X89087Y-68822D01*
X88944Y-68622D02*
X88944Y-69137D01*
X88972Y-69194D01*
X89030Y-69222D01*
X89087Y-69222D01*
X89544Y-69222D02*
X89544Y-68622D01*
X89544Y-69194D02*
X89487Y-69222D01*
X89372Y-69222D01*
X89315Y-69194D01*
X89287Y-69165D01*
X89258Y-69108D01*
X89258Y-68937D01*
X89287Y-68880D01*
X89315Y-68851D01*
X89372Y-68822D01*
X89487Y-68822D01*
X89544Y-68851D01*
X89830Y-69165D02*
X89858Y-69194D01*
X89830Y-69222D01*
X89801Y-69194D01*
X89830Y-69165D01*
X89830Y-69222D01*
X70230Y-68380D02*
X70230Y-77980D01*
X70230Y-71980D02*
X112230Y-71980D01*
X70230Y-68380D02*
X112230Y-68380D01*
X70230Y-74380D02*
X112230Y-74380D01*
X103430Y-75580D02*
X103430Y-77980D01*
X70230Y-76780D02*
X112230Y-76780D01*
X70230Y-75580D02*
X112230Y-75580D01*
X76830Y-75580D02*
X76830Y-76780D01*
G54D11*
X46007Y-30019D02*
X48110Y-30019D01*
X48110Y-30019D02*
X48110Y-32834D01*
X48110Y-32834D02*
X56425Y-32834D01*
X46007Y-30019D02*
X46007Y-34570D01*
X41283Y-52483D02*
X41283Y-27680D01*
X67661Y-52483D02*
X41283Y-52483D01*
X67661Y-27680D02*
X67661Y-52483D01*
X41283Y-27680D02*
X67661Y-27680D01*
X64905Y-32834D02*
X64905Y-39492D01*
X57764Y-32834D02*
X64905Y-32834D01*
X57764Y-32677D02*
X57764Y-29648D01*
X65692Y-29650D02*
X57764Y-29650D01*
X65692Y-39492D02*
X65692Y-29650D01*
X64905Y-39492D02*
X65692Y-39492D01*
X57764Y-50515D02*
X57764Y-49728D01*
X65692Y-50515D02*
X57764Y-50515D01*
X65692Y-40948D02*
X65692Y-50515D01*
X64905Y-40948D02*
X65692Y-40948D01*
X64905Y-49728D02*
X64905Y-40948D01*
X57764Y-49728D02*
X64905Y-49728D01*
X45220Y-50515D02*
X45220Y-44413D01*
X56386Y-50515D02*
X45220Y-50515D01*
X56386Y-49728D02*
X56386Y-50515D01*
X46007Y-49728D02*
X56386Y-49728D01*
X46007Y-44413D02*
X46007Y-49728D01*
X46007Y-44413D02*
X45220Y-44413D01*
X45220Y-43390D02*
X45220Y-35555D01*
X46007Y-43390D02*
X45220Y-43390D01*
X46007Y-35555D02*
X46007Y-43390D01*
X46007Y-35555D02*
X45220Y-35555D01*
X46007Y-34570D02*
X45220Y-34570D01*
X45220Y-29648D02*
X45220Y-34570D01*
X45220Y-29648D02*
X56384Y-29648D01*
X56384Y-32834D02*
X56384Y-29648D01*
G54D12*
X63464Y-34153D03*
X63858Y-34153D03*
X64645Y-34881D03*
X63346Y-34704D03*
X64645Y-33740D03*
X64173Y-33661D03*
X63838Y-33818D03*
X63444Y-33818D03*
X63444Y-33129D03*
X64015Y-33149D03*
X58425Y-33267D03*
X59015Y-33307D03*
X63858Y-33464D03*
X63464Y-33464D03*
X64566Y-37696D03*
X62952Y-33275D03*
X63385Y-37696D03*
X63779Y-37696D03*
X62559Y-33275D03*
X62165Y-33275D03*
X61555Y-33799D03*
X64173Y-37696D03*
X64062Y-42602D03*
X64456Y-42602D03*
X63787Y-43003D03*
X64102Y-42996D03*
X63716Y-42606D03*
X64496Y-42996D03*
X64653Y-43744D03*
X64259Y-43744D03*
X63944Y-43751D03*
X62350Y-47901D03*
X64220Y-48429D03*
X62059Y-48488D03*
X64543Y-46566D03*
X62716Y-46909D03*
X61972Y-46921D03*
X60681Y-46791D03*
X47507Y-44417D03*
X46535Y-43897D03*
X47838Y-44417D03*
X47188Y-38653D03*
X47503Y-38653D03*
X47503Y-39047D03*
X47188Y-39047D03*
X50511Y-33031D03*
X52066Y-33681D03*
X53976Y-33740D03*
X47244Y-32283D03*
X51732Y-33681D03*
X47755Y-32165D03*
X46496Y-32145D03*
X47677Y-30314D03*
X48248Y-33149D03*
X55200Y-49358D03*
X55200Y-49043D03*
X54807Y-49043D03*
X54807Y-49358D03*
X56539Y-49358D03*
X56933Y-49043D03*
X56933Y-49358D03*
X56066Y-49358D03*
X55673Y-49358D03*
X49295Y-46720D03*
X48980Y-48492D03*
X49374Y-48492D03*
X49688Y-46720D03*
X50555Y-46720D03*
X50240Y-48492D03*
X49846Y-48492D03*
X50161Y-46720D03*
X48114Y-49358D03*
X48114Y-49043D03*
X48507Y-49043D03*
X48507Y-49358D03*
X58940Y-49240D03*
X58933Y-48818D03*
G54D13*
X51375Y-48500D03*
X51690Y-48500D03*
X52320Y-48500D03*
X52005Y-48500D03*
X52635Y-48500D03*
X52950Y-48500D03*
X53108Y-48815D03*
X52793Y-48815D03*
X52163Y-48815D03*
X52478Y-48815D03*
X51848Y-48815D03*
X51533Y-48815D03*
X52911Y-49091D03*
X52596Y-49091D03*
X51966Y-49091D03*
X52281Y-49091D03*
X51651Y-49091D03*
X51336Y-49091D03*
X51336Y-47871D03*
X51651Y-47871D03*
X52281Y-47871D03*
X51966Y-47871D03*
X52596Y-47871D03*
X52911Y-47871D03*
X53068Y-48185D03*
X52753Y-48185D03*
X52123Y-48185D03*
X52438Y-48185D03*
X51809Y-48185D03*
X51494Y-48185D03*
X51533Y-47595D03*
X51848Y-47595D03*
X52478Y-47595D03*
X52163Y-47595D03*
X52793Y-47595D03*
X53108Y-47595D03*
X52950Y-47280D03*
X52635Y-47280D03*
X52005Y-47280D03*
X52320Y-47280D03*
X51690Y-47280D03*
G54D12*
X48291Y-35232D03*
X51291Y-44267D03*
X51200Y-44602D03*
X51204Y-44925D03*
X51291Y-43874D03*
X51566Y-43716D03*
X51535Y-44736D03*
X51535Y-45066D03*
X51547Y-44413D03*
X51547Y-44082D03*
X48582Y-45511D03*
X48110Y-45866D03*
X48110Y-45472D03*
X48346Y-46771D03*
X48582Y-45905D03*
X48346Y-46417D03*
X47362Y-46141D03*
X46417Y-47322D03*
X46889Y-46889D03*
X47362Y-46889D03*
X47362Y-47322D03*
X46889Y-47322D03*
X46417Y-46496D03*
X46417Y-46889D03*
X47362Y-46496D03*
X64173Y-36909D03*
X63385Y-37303D03*
X63779Y-37303D03*
X64173Y-37303D03*
X63779Y-36909D03*
X64062Y-46303D03*
X63385Y-44291D03*
X64645Y-44094D03*
X47208Y-36555D03*
X48283Y-34952D03*
G54D13*
X51375Y-47280D03*
X48124Y-36145D03*
X48124Y-36421D03*
G54D12*
X54350Y-33720D03*
X63366Y-35964D03*
X51220Y-41417D03*
X48007Y-35212D03*
X47200Y-36862D03*
X47476Y-33153D03*
X47870Y-33153D03*
X52992Y-36181D03*
X55078Y-48464D03*
X58503Y-49409D03*
X61366Y-49437D03*
X64645Y-45196D03*
X57248Y-47539D03*
X64602Y-47311D03*
X64602Y-46996D03*
X63503Y-46732D03*
X64606Y-47637D03*
X64606Y-48425D03*
X64606Y-48897D03*
X64645Y-45511D03*
X63307Y-45551D03*
X64645Y-44409D03*
X63917Y-46893D03*
X63322Y-45913D03*
X63669Y-46303D03*
X63354Y-46311D03*
X64645Y-35708D03*
X64645Y-34547D03*
X58779Y-33779D03*
X64665Y-36003D03*
X62834Y-37500D03*
X59173Y-33779D03*
X63385Y-36909D03*
X64566Y-37303D03*
X64566Y-36909D03*
X64062Y-45909D03*
X63669Y-45909D03*
X56417Y-46299D03*
X57169Y-46870D03*
X57681Y-46870D03*
X56811Y-46299D03*
X59996Y-33263D03*
X59606Y-33267D03*
X61334Y-33263D03*
X61728Y-33263D03*
X60862Y-33263D03*
X60468Y-33263D03*
X61122Y-46311D03*
X62330Y-49421D03*
X57838Y-47460D03*
X61393Y-48484D03*
X56968Y-47834D03*
X58468Y-47578D03*
X58586Y-46870D03*
X52051Y-46326D03*
X58153Y-46870D03*
X51653Y-46338D03*
X61389Y-47940D03*
X61480Y-46314D03*
X62834Y-39862D03*
X63307Y-42559D03*
X52874Y-43464D03*
X52007Y-43149D03*
X49606Y-39330D03*
X63582Y-43740D03*
X52007Y-40826D03*
X51456Y-43149D03*
X50988Y-43157D03*
X50984Y-42716D03*
X62913Y-42204D03*
X63228Y-43818D03*
X62830Y-40255D03*
X46889Y-46496D03*
X63307Y-42992D03*
X62913Y-42637D03*
X46299Y-33877D03*
X46303Y-33511D03*
X49606Y-41535D03*
X49921Y-41338D03*
X53779Y-37795D03*
X54330Y-37795D03*
X54173Y-39133D03*
X54015Y-41338D03*
X47838Y-40023D03*
X47799Y-43708D03*
X47846Y-40444D03*
X49566Y-42362D03*
X54803Y-44094D03*
X55078Y-48031D03*
X55433Y-43464D03*
X54566Y-42362D03*
X47515Y-42799D03*
X47830Y-42799D03*
X46480Y-42669D03*
X46795Y-42669D03*
X46795Y-43062D03*
X46480Y-43062D03*
X47503Y-44047D03*
X47818Y-44047D03*
X47830Y-43271D03*
X47515Y-43271D03*
X48027Y-34964D03*
X46480Y-43456D03*
X46795Y-43456D03*
X47976Y-37669D03*
X47661Y-37669D03*
X46559Y-39047D03*
X46874Y-39047D03*
X46874Y-38653D03*
X46559Y-38653D03*
X49791Y-38086D03*
X47803Y-41759D03*
X47814Y-41500D03*
X49881Y-38976D03*
X47468Y-43708D03*
X47807Y-42094D03*
X47830Y-41137D03*
X47830Y-40807D03*
X48976Y-41299D03*
X47838Y-39535D03*
X47814Y-39251D03*
X52559Y-43700D03*
X52874Y-43976D03*
X52559Y-43228D03*
X46287Y-34224D03*
X49606Y-36732D03*
X61200Y-33799D03*
X56535Y-33799D03*
X62854Y-37874D03*
X46358Y-30354D03*
G54D13*
X56102Y-43975D03*
G54D12*
X61386Y-35540D03*
X61024Y-35536D03*
X61024Y-35198D03*
X61394Y-35193D03*
G54D14*
X46007Y-34630D03*
X46007Y-35063D03*
X46007Y-35496D03*
X46007Y-44335D03*
X46007Y-43902D03*
X46007Y-43469D03*
X64905Y-39571D03*
X64905Y-40004D03*
X64905Y-40437D03*
X64905Y-40870D03*
G54D12*
X58299Y-40354D03*
X58299Y-39921D03*
X58082Y-40138D03*
X58515Y-40138D03*
X61011Y-37386D03*
X61169Y-44732D03*
X61366Y-44913D03*
X58732Y-40354D03*
X57866Y-40354D03*
X57433Y-40354D03*
X57000Y-40354D03*
X56783Y-40571D03*
X57216Y-40571D03*
X57653Y-40571D03*
X58082Y-40571D03*
X58515Y-40571D03*
X58515Y-41004D03*
X58082Y-41004D03*
X57653Y-41004D03*
X57216Y-41004D03*
X56783Y-41004D03*
X57000Y-40787D03*
X57433Y-40787D03*
X58299Y-40787D03*
X57866Y-40787D03*
X58732Y-40787D03*
X58732Y-39921D03*
X57866Y-39921D03*
X57433Y-39921D03*
X57000Y-39921D03*
X56783Y-40138D03*
X57216Y-40138D03*
X57653Y-40138D03*
X58515Y-39705D03*
X58082Y-39705D03*
X57653Y-39705D03*
X57216Y-39705D03*
X56783Y-39705D03*
X57000Y-39488D03*
X57433Y-39488D03*
X58299Y-39488D03*
X57866Y-39488D03*
X58732Y-39488D03*
X58732Y-39055D03*
X57866Y-39055D03*
X58299Y-39055D03*
X57433Y-39055D03*
X57000Y-39055D03*
X56783Y-39272D03*
X57216Y-39272D03*
X57653Y-39272D03*
X58082Y-39272D03*
X58515Y-39272D03*
G54D13*
X48990Y-36401D03*
X48990Y-36106D03*
X56220Y-47676D03*
X56220Y-47243D03*
X55787Y-47242D03*
X55787Y-47676D03*
G54D15*
X57818Y-48523D03*
X47188Y-48523D03*
G54D13*
X56378Y-43975D03*
X55787Y-48109D03*
G54D14*
X56426Y-49768D03*
X56859Y-49768D03*
X57292Y-49768D03*
X57726Y-49768D03*
X56425Y-32755D03*
X56858Y-32755D03*
X57291Y-32755D03*
X57725Y-32755D03*
G54D16*
X46772Y-44821D03*
G54D17*
X46772Y-45821D03*
X59878Y-47641D03*
X60878Y-47641D03*
X61878Y-47641D03*
G54D16*
X63878Y-47661D03*
G54D17*
X62878Y-47641D03*
X63866Y-49212D03*
X62866Y-49212D03*
X61866Y-49212D03*
G54D16*
X59866Y-49192D03*
G54D17*
X60866Y-49212D03*
G54D18*
X47188Y-31200D03*
G54D19*
X57039Y-33251D03*
X56039Y-33251D03*
X55039Y-33251D03*
X54039Y-33251D03*
G54D20*
X52039Y-33231D03*
G54D19*
X53039Y-33251D03*
G54D21*
X49554Y-45454D03*
X49554Y-35062D03*
G54D13*
X56783Y-43173D03*
X61728Y-40646D03*
X61821Y-42018D03*
X61594Y-38083D03*
X55032Y-45276D03*
X55748Y-43512D03*
G54D22*
X58279Y-42751D03*
X57307Y-42228D03*
G54D12*
X59964Y-42188D03*
X59850Y-43614D03*
X60645Y-44980D03*
X60177Y-35130D03*
G54D13*
X54949Y-37343D03*
G54D12*
X52646Y-37508D03*
G54D13*
X54221Y-34441D03*
X51169Y-34244D03*
G54D12*
X55299Y-38228D03*
G54D13*
X62039Y-39803D03*
X59910Y-37815D03*
X62036Y-39500D03*
G54D22*
X50011Y-42476D03*
G54D12*
X53323Y-36453D03*
G54D22*
X61173Y-42181D03*
X61023Y-43511D03*
X57736Y-44220D03*
X58236Y-44590D03*
X60716Y-48362D03*
X63468Y-48342D03*
X62448Y-48370D03*
X59248Y-48452D03*
G54D12*
X54724Y-39173D03*
X60397Y-42381D03*
X60149Y-43614D03*
X61641Y-44440D03*
X61665Y-45185D03*
X59803Y-44988D03*
X59822Y-44641D03*
X59811Y-44299D03*
X48188Y-35551D03*
G54D22*
X60252Y-40763D03*
X61283Y-40799D03*
X61228Y-41854D03*
G54D12*
X61264Y-40071D03*
G54D23*
X60677Y-34807D03*
G54D13*
X50921Y-43799D03*
X51012Y-36701D03*
X48158Y-36717D03*
X48150Y-39079D03*
X48189Y-41437D03*
X48138Y-43807D03*
G54D12*
X59882Y-37386D03*
X58256Y-36228D03*
X57106Y-36587D03*
X52012Y-34799D03*
X54457Y-43477D03*
G54D13*
X53465Y-45815D03*
G54D12*
X54579Y-44225D03*
G54D13*
X54268Y-46508D03*
G54D12*
X61957Y-34823D03*
X60906Y-36260D03*
X61957Y-35933D03*
X62154Y-36559D03*
X60882Y-38087D03*
X60780Y-39406D03*
X59350Y-37213D03*
G54D24*
X56091Y-35378D03*
X55579Y-35130D03*
G54D12*
X59508Y-36051D03*
X59650Y-35925D03*
X57094Y-35291D03*
X58354Y-35528D03*
X58370Y-36783D03*
X48165Y-37402D03*
X60266Y-35482D03*
X48193Y-37205D03*
X60246Y-35719D03*
X60657Y-44641D03*
X49565Y-42918D03*
X49132Y-37012D03*
G54D25*
X59065Y-39144D03*
G54D12*
X55288Y-40421D03*
X55701Y-40618D03*
X55366Y-40819D03*
X55705Y-41839D03*
G54D25*
X59065Y-40325D03*
G54D12*
X51732Y-36461D03*
X53591Y-41236D03*
G54D25*
X56447Y-41309D03*
G54D12*
X59951Y-40876D03*
X51728Y-36957D03*
G54D25*
X59065Y-40522D03*
G54D12*
X52870Y-37327D03*
X51728Y-37240D03*
X52870Y-36752D03*
X59669Y-40425D03*
X55736Y-39831D03*
X48193Y-37984D03*
X53906Y-34843D03*
G54D22*
X50114Y-35279D03*
X49791Y-42476D03*
G54D12*
X60030Y-41211D03*
G54D25*
X59065Y-38947D03*
G54D12*
X59748Y-39020D03*
X60319Y-39984D03*
X52906Y-35095D03*
X52543Y-37827D03*
G54D22*
X51917Y-35578D03*
G54D12*
X46539Y-37393D03*
X49232Y-33897D03*
X57205Y-42071D03*
G54D23*
X60704Y-40582D03*
G54D25*
X59065Y-40915D03*
X59065Y-39341D03*
G54D12*
X60339Y-39244D03*
X57465Y-41937D03*
G54D25*
X57254Y-41339D03*
X59055Y-40128D03*
G54D12*
X56957Y-42059D03*
G54D25*
X56663Y-41339D03*
X59065Y-39931D03*
G54D12*
X55933Y-38528D03*
G54D25*
X56437Y-39734D03*
X56437Y-40325D03*
G54D12*
X56260Y-42953D03*
G54D25*
X57057Y-41339D03*
G54D12*
X55638Y-36756D03*
G54D25*
X57067Y-38720D03*
X56870Y-38720D03*
G54D12*
X55981Y-37386D03*
G54D25*
X58238Y-41339D03*
X56860Y-41339D03*
X59065Y-38750D03*
G54D12*
X55394Y-39638D03*
X53650Y-41536D03*
G54D25*
X56437Y-41112D03*
G54D12*
X53583Y-40201D03*
G54D25*
X56437Y-39931D03*
G54D12*
X55831Y-39047D03*
G54D25*
X56437Y-40915D03*
G54D12*
X53579Y-41925D03*
X53602Y-40559D03*
G54D25*
X56437Y-40128D03*
G54D12*
X55303Y-40032D03*
X53662Y-38355D03*
G54D25*
X56437Y-38750D03*
G54D12*
X55709Y-39445D03*
G54D25*
X59075Y-41112D03*
G54D12*
X60039Y-41437D03*
X52193Y-35890D03*
X59740Y-40740D03*
X54453Y-37319D03*
X51721Y-37508D03*
X54721Y-36075D03*
X59787Y-39870D03*
X55555Y-39028D03*
X59272Y-41807D03*
G54D25*
X56437Y-38947D03*
G54D12*
X53662Y-38555D03*
X60645Y-42460D03*
G54D25*
X59065Y-41309D03*
G54D12*
X53610Y-39571D03*
G54D25*
X56437Y-39537D03*
G54D12*
X53626Y-39370D03*
G54D25*
X56437Y-39341D03*
X57854Y-38720D03*
G54D12*
X59150Y-37972D03*
X53579Y-42122D03*
G54D25*
X56437Y-40719D03*
G54D12*
X55772Y-40232D03*
X55890Y-41016D03*
X55260Y-41209D03*
X55815Y-41406D03*
X55445Y-41846D03*
X56303Y-41937D03*
X53650Y-38981D03*
G54D25*
X56437Y-39144D03*
G54D12*
X53587Y-41040D03*
G54D25*
X56437Y-40522D03*
G54D12*
X54736Y-36331D03*
X59646Y-40225D03*
X49354Y-37402D03*
X53071Y-34862D03*
X52276Y-40847D03*
X52248Y-40394D03*
X48185Y-39965D03*
X48221Y-38386D03*
X52516Y-38162D03*
X48201Y-39768D03*
X52232Y-40016D03*
G54D25*
X48188Y-39547D03*
G54D12*
X52402Y-39815D03*
X48079Y-38783D03*
X52386Y-39181D03*
X48193Y-38591D03*
X52366Y-38772D03*
G54D25*
X59065Y-39734D03*
G54D12*
X51445Y-35929D03*
X52213Y-40654D03*
X48181Y-40355D03*
X55984Y-38016D03*
X56319Y-38122D03*
X56575Y-38130D03*
G54D25*
X56673Y-38711D03*
G54D12*
X49744Y-36425D03*
X49634Y-37205D03*
X49917Y-37012D03*
X49748Y-36225D03*
X51717Y-37992D03*
X52535Y-41732D03*
X52118Y-42354D03*
G54D25*
X48169Y-42125D03*
G54D12*
X54984Y-43063D03*
X48173Y-40748D03*
X55453Y-43067D03*
X51752Y-40748D03*
G54D25*
X48188Y-41929D03*
G54D12*
X51917Y-42355D03*
X48197Y-41732D03*
X51398Y-42355D03*
X48075Y-41142D03*
X51638Y-42355D03*
X48201Y-40949D03*
X54721Y-43055D03*
X55225Y-43067D03*
X51091Y-40949D03*
G54D25*
X59065Y-40719D03*
G54D12*
X51669Y-35288D03*
G54D25*
X58435Y-41339D03*
G54D12*
X58538Y-41932D03*
X59281Y-42067D03*
X58744Y-41909D03*
X52465Y-41043D03*
X49535Y-42618D03*
X48154Y-42725D03*
X49925Y-34925D03*
G54D26*
X55032Y-45276D02*
X55032Y-45197D01*
X55748Y-44079D02*
X55748Y-43512D01*
X54965Y-44862D02*
X55748Y-44079D01*
X54965Y-45130D02*
X54965Y-44862D01*
X55032Y-45197D02*
X54965Y-45130D01*
G54D27*
X48165Y-37402D02*
X48887Y-37402D01*
X60148Y-35364D02*
X60266Y-35482D01*
X58236Y-35362D02*
X60148Y-35364D01*
X57965Y-35638D02*
X58236Y-35362D01*
X52594Y-35634D02*
X57965Y-35638D01*
X52000Y-35043D02*
X52594Y-35634D01*
X51355Y-35043D02*
X52000Y-35043D01*
X51185Y-35213D02*
X51355Y-35043D01*
X51185Y-37708D02*
X51185Y-35213D01*
X51098Y-37795D02*
X51185Y-37708D01*
X49280Y-37795D02*
X51098Y-37795D01*
X48887Y-37402D02*
X49280Y-37795D01*
X48193Y-37205D02*
X48894Y-37205D01*
X60413Y-35719D02*
X60246Y-35719D01*
X60587Y-35539D02*
X60413Y-35719D01*
X60587Y-35430D02*
X60587Y-35539D01*
X60429Y-35272D02*
X60587Y-35430D01*
X58134Y-35274D02*
X60429Y-35272D01*
X57852Y-35547D02*
X58134Y-35274D01*
X52681Y-35547D02*
X57852Y-35547D01*
X52083Y-34949D02*
X52681Y-35547D01*
X51291Y-34949D02*
X52083Y-34949D01*
X50843Y-35397D02*
X51291Y-34949D01*
X50843Y-37472D02*
X50843Y-35397D01*
X50677Y-37638D02*
X50843Y-37472D01*
X49327Y-37638D02*
X50677Y-37638D01*
X48894Y-37205D02*
X49327Y-37638D01*
X60657Y-44641D02*
X60523Y-44641D01*
X60523Y-44641D02*
X59624Y-45541D01*
X53899Y-45541D02*
X59624Y-45541D01*
X52642Y-42918D02*
X53201Y-43477D01*
X53201Y-43477D02*
X53201Y-44843D01*
X53201Y-44843D02*
X53899Y-45541D01*
X49565Y-42918D02*
X52642Y-42918D01*
X57197Y-38563D02*
X57197Y-37803D01*
X57197Y-37803D02*
X55988Y-36594D01*
X55461Y-36594D02*
X54894Y-37161D01*
X55988Y-36594D02*
X55461Y-36594D01*
X52433Y-37161D02*
X51732Y-36461D01*
X54894Y-37161D02*
X52433Y-37161D01*
X59065Y-40325D02*
X59087Y-40327D01*
X59087Y-40327D02*
X58878Y-40167D01*
X58878Y-40167D02*
X58878Y-38947D01*
X58878Y-38947D02*
X58819Y-38888D01*
X58819Y-38888D02*
X57490Y-38888D01*
X57490Y-38888D02*
X57197Y-38563D01*
X56280Y-41618D02*
X56447Y-41309D01*
X55689Y-42209D02*
X56280Y-41618D01*
X55689Y-42567D02*
X55689Y-42209D01*
X53591Y-41236D02*
X53261Y-41236D01*
X55535Y-42721D02*
X55689Y-42567D01*
X54508Y-42724D02*
X55535Y-42721D01*
X54335Y-42898D02*
X54508Y-42724D01*
X53469Y-42898D02*
X54335Y-42898D01*
X52972Y-42398D02*
X53469Y-42898D01*
X52972Y-41528D02*
X52972Y-42398D01*
X53261Y-41236D02*
X52972Y-41528D01*
X51555Y-36961D02*
X51287Y-36693D01*
X51287Y-36693D02*
X51287Y-35263D01*
X51287Y-35263D02*
X51429Y-35142D01*
X51429Y-35142D02*
X51921Y-35142D01*
X51921Y-35142D02*
X52499Y-35720D01*
X52499Y-35720D02*
X56480Y-35720D01*
X56480Y-35720D02*
X58284Y-37524D01*
X58284Y-37524D02*
X59276Y-37524D01*
X59276Y-37524D02*
X60508Y-38756D01*
X60508Y-38756D02*
X60512Y-40315D01*
X60512Y-40315D02*
X59951Y-40876D01*
X51555Y-36961D02*
X51728Y-36957D01*
X52870Y-36752D02*
X54768Y-36752D01*
X52732Y-37240D02*
X52870Y-37327D01*
X51728Y-37240D02*
X52732Y-37240D01*
X59547Y-40425D02*
X59669Y-40425D01*
X59453Y-40327D02*
X59547Y-40425D01*
X59453Y-39870D02*
X59453Y-40327D01*
X59512Y-39811D02*
X59453Y-39870D01*
X59512Y-38531D02*
X59512Y-39811D01*
X59220Y-38240D02*
X59512Y-38531D01*
X57683Y-38240D02*
X59220Y-38240D01*
X57583Y-38140D02*
X57683Y-38240D01*
X57583Y-37788D02*
X57583Y-38140D01*
X56118Y-36323D02*
X57583Y-37788D01*
X55197Y-36323D02*
X56118Y-36323D01*
X54768Y-36752D02*
X55197Y-36323D01*
G54D28*
X57465Y-41937D02*
X57465Y-41882D01*
X57252Y-41669D02*
X57254Y-41339D01*
X57465Y-41882D02*
X57252Y-41669D01*
X56957Y-42059D02*
X56961Y-41878D01*
X56665Y-41654D02*
X56663Y-41339D01*
X56961Y-41878D02*
X56665Y-41654D01*
X55638Y-36756D02*
X55941Y-36756D01*
X55941Y-36756D02*
X57063Y-37878D01*
X57063Y-37878D02*
X57067Y-38720D01*
X55981Y-37386D02*
X56303Y-37386D01*
X56866Y-37949D02*
X56870Y-38720D01*
X56303Y-37386D02*
X56866Y-37949D01*
G54D27*
X53650Y-41536D02*
X53295Y-41536D01*
X56075Y-41307D02*
X56437Y-41112D01*
X56075Y-41693D02*
X56075Y-41622D01*
X56075Y-41622D02*
X56075Y-41307D01*
X55146Y-42630D02*
X56075Y-41693D01*
X53395Y-42630D02*
X55146Y-42630D01*
X53102Y-42337D02*
X53395Y-42630D01*
X53102Y-41729D02*
X53102Y-42337D01*
X53295Y-41536D02*
X53102Y-41729D01*
X53583Y-40201D02*
X55547Y-40205D01*
X55913Y-39933D02*
X56437Y-39931D01*
X55547Y-40205D02*
X55913Y-39933D01*
X53579Y-41925D02*
X55000Y-41925D01*
X55989Y-41201D02*
X56437Y-40915D01*
X55724Y-41201D02*
X55989Y-41201D01*
X55000Y-41925D02*
X55724Y-41201D01*
X53602Y-40559D02*
X55505Y-40559D01*
X56118Y-40130D02*
X56437Y-40128D01*
X55854Y-40394D02*
X56118Y-40130D01*
X55670Y-40394D02*
X55854Y-40394D01*
X55505Y-40559D02*
X55670Y-40394D01*
X53662Y-38355D02*
X55194Y-38355D01*
X55587Y-38748D02*
X56437Y-38750D01*
X55194Y-38355D02*
X55587Y-38748D01*
X59740Y-40740D02*
X59740Y-40607D01*
X56193Y-35890D02*
X52193Y-35890D01*
X57917Y-37614D02*
X56193Y-35890D01*
X59185Y-37614D02*
X57917Y-37614D01*
X60161Y-38590D02*
X59185Y-37614D01*
X60161Y-40186D02*
X60161Y-38590D01*
X59740Y-40607D02*
X60161Y-40186D01*
X59787Y-39870D02*
X59787Y-39445D01*
X52178Y-37508D02*
X52336Y-37666D01*
X52336Y-37666D02*
X52799Y-37666D01*
X52799Y-37666D02*
X53146Y-37319D01*
X53146Y-37319D02*
X54453Y-37319D01*
X51721Y-37508D02*
X52178Y-37508D01*
X56217Y-36075D02*
X54721Y-36075D01*
X57902Y-37760D02*
X56217Y-36075D01*
X59193Y-37760D02*
X57902Y-37760D01*
X60051Y-38618D02*
X59193Y-37760D01*
X60051Y-39181D02*
X60051Y-38618D01*
X59787Y-39445D02*
X60051Y-39181D01*
X55244Y-38555D02*
X55539Y-38843D01*
X56173Y-38843D02*
X56437Y-38947D01*
X55539Y-38843D02*
X56173Y-38843D01*
X53662Y-38555D02*
X55244Y-38555D01*
G54D28*
X60645Y-42460D02*
X60645Y-42267D01*
X59586Y-41830D02*
X59065Y-41309D01*
X60208Y-41830D02*
X59586Y-41830D01*
X60645Y-42267D02*
X60208Y-41830D01*
G54D27*
X53610Y-39571D02*
X55086Y-39571D01*
X55913Y-39540D02*
X56437Y-39537D01*
X55555Y-39783D02*
X55913Y-39540D01*
X55299Y-39784D02*
X55555Y-39783D01*
X55086Y-39571D02*
X55299Y-39784D01*
X53626Y-39370D02*
X55449Y-39366D01*
X56083Y-39343D02*
X56437Y-39341D01*
X56032Y-39292D02*
X56083Y-39343D01*
X55524Y-39291D02*
X56032Y-39292D01*
X55449Y-39366D02*
X55524Y-39291D01*
X53579Y-42122D02*
X53401Y-42122D01*
X55945Y-40717D02*
X56437Y-40719D01*
X54984Y-41744D02*
X55945Y-40717D01*
X53421Y-41744D02*
X54984Y-41744D01*
X53307Y-41858D02*
X53421Y-41744D01*
X53307Y-42028D02*
X53307Y-41858D01*
X53401Y-42122D02*
X53307Y-42028D01*
X53650Y-38981D02*
X55308Y-38981D01*
X56111Y-39138D02*
X56437Y-39144D01*
X56048Y-39201D02*
X56111Y-39138D01*
X55528Y-39201D02*
X56048Y-39201D01*
X55308Y-38981D02*
X55528Y-39201D01*
X53587Y-41040D02*
X55488Y-41040D01*
X56004Y-40524D02*
X56437Y-40522D01*
X55488Y-41040D02*
X56004Y-40524D01*
G54D11*
X59646Y-39977D02*
X59622Y-39953D01*
X59622Y-39953D02*
X59622Y-39401D01*
X59622Y-39401D02*
X59949Y-39074D01*
X59949Y-39074D02*
X59949Y-38823D01*
X59949Y-38823D02*
X59260Y-38134D01*
X59260Y-38134D02*
X58095Y-38134D01*
X58095Y-38134D02*
X56166Y-36205D01*
X56166Y-36205D02*
X54862Y-36205D01*
X54862Y-36205D02*
X54736Y-36331D01*
X59646Y-40225D02*
X59646Y-39977D01*
G54D27*
X53039Y-33251D02*
X53039Y-33354D01*
X52751Y-33641D02*
X52543Y-33850D01*
X52543Y-33850D02*
X52291Y-33850D01*
X49354Y-37402D02*
X49354Y-36324D01*
X51130Y-33850D02*
X52291Y-33850D01*
X50264Y-34716D02*
X51130Y-33850D01*
X50264Y-35732D02*
X50264Y-34716D01*
X50027Y-35969D02*
X50264Y-35732D01*
X49709Y-35969D02*
X50027Y-35969D01*
X49354Y-36324D02*
X49709Y-35969D01*
X53039Y-33354D02*
X52751Y-33641D01*
X48185Y-39965D02*
X51819Y-39965D01*
X51819Y-39965D02*
X52248Y-40394D01*
X48221Y-38386D02*
X52292Y-38386D01*
X52292Y-38386D02*
X52516Y-38162D01*
X48201Y-39768D02*
X51984Y-39768D01*
X51984Y-39768D02*
X52232Y-40016D01*
X52374Y-39815D02*
X52106Y-39547D01*
X52106Y-39547D02*
X48188Y-39547D01*
X52402Y-39815D02*
X52374Y-39815D01*
X48079Y-38783D02*
X51989Y-38784D01*
X51989Y-38784D02*
X52386Y-39181D01*
X48193Y-38591D02*
X52185Y-38591D01*
X52185Y-38591D02*
X52366Y-38772D01*
X59065Y-39734D02*
X59299Y-39732D01*
X52524Y-37008D02*
X51445Y-35929D01*
X54873Y-37008D02*
X52524Y-37008D01*
X55377Y-36504D02*
X54873Y-37008D01*
X56039Y-36504D02*
X55377Y-36504D01*
X57319Y-37784D02*
X56039Y-36504D01*
X57319Y-38331D02*
X57319Y-37784D01*
X57421Y-38433D02*
X57319Y-38331D01*
X59149Y-38433D02*
X57421Y-38433D01*
X59350Y-38638D02*
X59149Y-38433D01*
X59350Y-39681D02*
X59350Y-38638D01*
X59299Y-39732D02*
X59350Y-39681D01*
X48181Y-40355D02*
X51914Y-40355D01*
X51914Y-40355D02*
X52213Y-40654D01*
X55039Y-33251D02*
X55039Y-33366D01*
X54751Y-33653D02*
X54282Y-34123D01*
X54282Y-34123D02*
X51545Y-34123D01*
X55039Y-33366D02*
X54751Y-33653D01*
X49744Y-36425D02*
X50248Y-36425D01*
X51545Y-34123D02*
X52385Y-34121D01*
X50484Y-35213D02*
X51545Y-34123D01*
X50484Y-36189D02*
X50484Y-35213D01*
X50248Y-36425D02*
X50484Y-36189D01*
X56039Y-33251D02*
X56039Y-33559D01*
X49634Y-36995D02*
X49806Y-36823D01*
X49806Y-36823D02*
X50433Y-36823D01*
X50433Y-36823D02*
X50606Y-36650D01*
X50606Y-36650D02*
X50606Y-35257D01*
X50606Y-35257D02*
X51335Y-34528D01*
X49634Y-37205D02*
X49634Y-36995D01*
X55751Y-33846D02*
X55346Y-34251D01*
X55346Y-34251D02*
X51611Y-34251D01*
X51611Y-34251D02*
X51335Y-34528D01*
X56039Y-33559D02*
X55751Y-33846D01*
X57039Y-33251D02*
X57039Y-33574D01*
X56751Y-33862D02*
X55953Y-34661D01*
X55953Y-34661D02*
X51358Y-34661D01*
X57039Y-33574D02*
X56751Y-33862D01*
X51358Y-34661D02*
X52283Y-34656D01*
X50713Y-35306D02*
X51358Y-34661D01*
X50713Y-36830D02*
X50713Y-35306D01*
X50531Y-37012D02*
X50713Y-36830D01*
X49917Y-37012D02*
X50531Y-37012D01*
X54039Y-33251D02*
X54039Y-33307D01*
X53751Y-33594D02*
X53381Y-33965D01*
X53381Y-33965D02*
X52366Y-33965D01*
X49748Y-36225D02*
X50086Y-36225D01*
X51149Y-33965D02*
X52366Y-33965D01*
X50386Y-34728D02*
X51149Y-33965D01*
X50386Y-35925D02*
X50386Y-34728D01*
X50086Y-36225D02*
X50386Y-35925D01*
X54039Y-33307D02*
X53751Y-33594D01*
X52898Y-37992D02*
X51717Y-37992D01*
X53063Y-38157D02*
X52898Y-37992D01*
X53063Y-41260D02*
X53063Y-38157D01*
X52591Y-41732D02*
X53063Y-41260D01*
X52535Y-41732D02*
X52591Y-41732D01*
X48169Y-42125D02*
X50680Y-42125D01*
X50886Y-42331D02*
X51197Y-42642D01*
X51197Y-42642D02*
X52004Y-42642D01*
X52004Y-42642D02*
X52118Y-42528D01*
X52118Y-42528D02*
X52118Y-42354D01*
X50680Y-42125D02*
X50886Y-42331D01*
X48173Y-40748D02*
X50792Y-40748D01*
X54834Y-42913D02*
X54984Y-43063D01*
X54631Y-42913D02*
X54834Y-42913D01*
X54461Y-43083D02*
X54631Y-42913D01*
X53410Y-43083D02*
X54461Y-43083D01*
X51921Y-41610D02*
X53410Y-43083D01*
X51921Y-41146D02*
X51921Y-41610D01*
X51422Y-40642D02*
X51921Y-41146D01*
X50898Y-40642D02*
X51422Y-40642D01*
X50792Y-40748D02*
X50898Y-40642D01*
X55201Y-42815D02*
X55453Y-43067D01*
X54579Y-42815D02*
X55201Y-42815D01*
X54410Y-42984D02*
X54579Y-42815D01*
X53441Y-42984D02*
X54410Y-42984D01*
X52028Y-41571D02*
X53441Y-42984D01*
X52028Y-41130D02*
X52028Y-41571D01*
X51752Y-40854D02*
X52028Y-41130D01*
X51752Y-40748D02*
X51752Y-40854D01*
X50870Y-42130D02*
X50669Y-41929D01*
X50669Y-41929D02*
X48188Y-41929D01*
X51725Y-42547D02*
X51917Y-42355D01*
X51288Y-42547D02*
X51725Y-42547D01*
X50871Y-42130D02*
X51288Y-42547D01*
X50871Y-42130D02*
X50870Y-42130D01*
X48197Y-41732D02*
X50941Y-41732D01*
X51398Y-42189D02*
X51398Y-42355D01*
X50941Y-41732D02*
X51398Y-42189D01*
X48075Y-41142D02*
X50673Y-41142D01*
X51638Y-42107D02*
X51638Y-42355D01*
X50673Y-41142D02*
X51638Y-42107D01*
X48201Y-40949D02*
X50862Y-40949D01*
X54571Y-43205D02*
X54721Y-43055D01*
X53323Y-43205D02*
X54571Y-43205D01*
X51760Y-41587D02*
X53323Y-43205D01*
X51764Y-41146D02*
X51760Y-41587D01*
X51366Y-40744D02*
X51764Y-41146D01*
X51067Y-40744D02*
X51366Y-40744D01*
X50862Y-40949D02*
X51067Y-40744D01*
X51323Y-40949D02*
X51547Y-41173D01*
X51547Y-41173D02*
X51547Y-41822D01*
X51547Y-41822D02*
X51926Y-42201D01*
X51926Y-42201D02*
X52236Y-42201D01*
X52236Y-42201D02*
X52350Y-42315D01*
X52350Y-42315D02*
X52350Y-42708D01*
X52350Y-42708D02*
X52457Y-42815D01*
X52457Y-42815D02*
X52796Y-42815D01*
X52796Y-42815D02*
X53304Y-43323D01*
X53304Y-43323D02*
X54969Y-43323D01*
X54969Y-43323D02*
X55225Y-43067D01*
X51091Y-40949D02*
X51323Y-40949D01*
X59065Y-40719D02*
X59303Y-40718D01*
X51669Y-35902D02*
X51669Y-35288D01*
X52669Y-36902D02*
X51669Y-35902D01*
X54802Y-36902D02*
X52669Y-36902D01*
X55283Y-36421D02*
X54802Y-36902D01*
X56102Y-36421D02*
X55283Y-36421D01*
X57441Y-37760D02*
X56102Y-36421D01*
X57441Y-38252D02*
X57441Y-37760D01*
X57520Y-38331D02*
X57441Y-38252D01*
X59193Y-38331D02*
X57520Y-38331D01*
X59429Y-38571D02*
X59193Y-38331D01*
X59429Y-39728D02*
X59429Y-38571D01*
X59362Y-39795D02*
X59429Y-39728D01*
X59364Y-40659D02*
X59362Y-39795D01*
X59303Y-40718D02*
X59364Y-40659D01*
X49428Y-42725D02*
X49535Y-42618D01*
X48154Y-42725D02*
X49428Y-42725D01*
G54D10*
G36*
X50493Y-36603D02*
X50386Y-36710D01*
X49806Y-36710D01*
X49762Y-36718D01*
X49726Y-36743D01*
X49726Y-36743D01*
X49554Y-36915D01*
X49529Y-36951D01*
X49521Y-36995D01*
X49521Y-37074D01*
X49488Y-37107D01*
X49467Y-37158D01*
X49467Y-36370D01*
X49576Y-36261D01*
X49602Y-36322D01*
X49602Y-36322D01*
X49598Y-36327D01*
X49572Y-36390D01*
X49571Y-36459D01*
X49598Y-36522D01*
X49646Y-36570D01*
X49709Y-36596D01*
X49778Y-36597D01*
X49841Y-36570D01*
X49874Y-36538D01*
X50248Y-36538D01*
X50291Y-36529D01*
X50327Y-36504D01*
X50493Y-36339D01*
X50493Y-36603D01*
X50493Y-36603D01*
G37*
G54D27*
X50493Y-36603D02*
X50386Y-36710D01*
X49806Y-36710D01*
X49762Y-36718D01*
X49726Y-36743D01*
X49726Y-36743D01*
X49554Y-36915D01*
X49529Y-36951D01*
X49521Y-36995D01*
X49521Y-37074D01*
X49488Y-37107D01*
X49467Y-37158D01*
X49467Y-36370D01*
X49576Y-36261D01*
X49602Y-36322D01*
X49602Y-36322D01*
X49598Y-36327D01*
X49572Y-36390D01*
X49571Y-36459D01*
X49598Y-36522D01*
X49646Y-36570D01*
X49709Y-36596D01*
X49778Y-36597D01*
X49841Y-36570D01*
X49874Y-36538D01*
X50248Y-36538D01*
X50291Y-36529D01*
X50327Y-36504D01*
X50493Y-36339D01*
X50493Y-36603D01*
G54D10*
G36*
X51072Y-37661D02*
X51051Y-37682D01*
X50792Y-37682D01*
X50922Y-37551D01*
X50947Y-37515D01*
X50956Y-37472D01*
X50956Y-35443D01*
X51072Y-35327D01*
X51072Y-37661D01*
X51072Y-37661D01*
G37*
G54D27*
X51072Y-37661D02*
X51051Y-37682D01*
X50792Y-37682D01*
X50922Y-37551D01*
X50947Y-37515D01*
X50956Y-37472D01*
X50956Y-35443D01*
X51072Y-35327D01*
X51072Y-37661D01*
G54D10*
G36*
X51434Y-41743D02*
X50752Y-41062D01*
X50752Y-41062D01*
X50862Y-41062D01*
X50905Y-41053D01*
X50938Y-41030D01*
X50945Y-41046D01*
X50993Y-41094D01*
X51056Y-41120D01*
X51125Y-41121D01*
X51188Y-41094D01*
X51221Y-41062D01*
X51276Y-41062D01*
X51434Y-41219D01*
X51434Y-41743D01*
X51434Y-41743D01*
G37*
G54D27*
X51434Y-41743D02*
X50752Y-41062D01*
X50752Y-41062D01*
X50862Y-41062D01*
X50905Y-41053D01*
X50938Y-41030D01*
X50945Y-41046D01*
X50993Y-41094D01*
X51056Y-41120D01*
X51125Y-41121D01*
X51188Y-41094D01*
X51221Y-41062D01*
X51276Y-41062D01*
X51434Y-41219D01*
X51434Y-41743D01*
G54D10*
G36*
X54866Y-32966D02*
X54852Y-32972D01*
X54759Y-33064D01*
X54709Y-33185D01*
X54709Y-33317D01*
X54759Y-33438D01*
X54783Y-33462D01*
X54671Y-33573D01*
X54671Y-33573D01*
X54235Y-34010D01*
X53496Y-34010D01*
X53831Y-33674D01*
X53831Y-33674D01*
X53831Y-33674D01*
X53939Y-33567D01*
X53973Y-33581D01*
X54104Y-33581D01*
X54225Y-33531D01*
X54318Y-33438D01*
X54368Y-33317D01*
X54369Y-33186D01*
X54318Y-33065D01*
X54226Y-32972D01*
X54212Y-32966D01*
X54866Y-32966D01*
X54866Y-32966D01*
G37*
G54D27*
X54866Y-32966D02*
X54852Y-32972D01*
X54759Y-33064D01*
X54709Y-33185D01*
X54709Y-33317D01*
X54759Y-33438D01*
X54783Y-33462D01*
X54671Y-33573D01*
X54671Y-33573D01*
X54235Y-34010D01*
X53496Y-34010D01*
X53831Y-33674D01*
X53831Y-33674D01*
X53831Y-33674D01*
X53939Y-33567D01*
X53973Y-33581D01*
X54104Y-33581D01*
X54225Y-33531D01*
X54318Y-33438D01*
X54368Y-33317D01*
X54369Y-33186D01*
X54318Y-33065D01*
X54226Y-32972D01*
X54212Y-32966D01*
X54866Y-32966D01*
G54D10*
G36*
X55023Y-36337D02*
X54721Y-36639D01*
X53495Y-36639D01*
X53495Y-36418D01*
X53468Y-36355D01*
X53420Y-36307D01*
X53357Y-36281D01*
X53288Y-36280D01*
X53225Y-36307D01*
X53177Y-36355D01*
X53151Y-36418D01*
X53150Y-36487D01*
X53177Y-36550D01*
X53225Y-36598D01*
X53288Y-36624D01*
X53357Y-36625D01*
X53420Y-36598D01*
X53468Y-36550D01*
X53494Y-36487D01*
X53495Y-36418D01*
X53495Y-36639D01*
X53000Y-36639D01*
X52967Y-36606D01*
X52904Y-36580D01*
X52835Y-36579D01*
X52772Y-36606D01*
X52724Y-36654D01*
X52698Y-36717D01*
X52697Y-36771D01*
X51782Y-35855D01*
X51782Y-35649D01*
X51788Y-35664D01*
X51831Y-35707D01*
X51886Y-35730D01*
X51947Y-35730D01*
X52003Y-35707D01*
X52046Y-35664D01*
X52069Y-35609D01*
X52069Y-35548D01*
X52046Y-35492D01*
X52003Y-35449D01*
X51947Y-35426D01*
X51887Y-35426D01*
X51831Y-35449D01*
X51788Y-35492D01*
X51782Y-35508D01*
X51782Y-35418D01*
X51814Y-35385D01*
X51840Y-35322D01*
X51841Y-35255D01*
X51874Y-35255D01*
X52396Y-35777D01*
X52323Y-35777D01*
X52290Y-35744D01*
X52227Y-35718D01*
X52158Y-35717D01*
X52095Y-35744D01*
X52047Y-35792D01*
X52021Y-35855D01*
X52020Y-35924D01*
X52047Y-35987D01*
X52095Y-36035D01*
X52158Y-36061D01*
X52227Y-36062D01*
X52290Y-36035D01*
X52323Y-36003D01*
X54564Y-36003D01*
X54549Y-36040D01*
X54548Y-36109D01*
X54575Y-36172D01*
X54613Y-36210D01*
X54590Y-36233D01*
X54564Y-36296D01*
X54563Y-36365D01*
X54590Y-36428D01*
X54638Y-36476D01*
X54701Y-36502D01*
X54770Y-36503D01*
X54833Y-36476D01*
X54881Y-36428D01*
X54907Y-36365D01*
X54907Y-36345D01*
X54916Y-36337D01*
X55023Y-36337D01*
X55023Y-36337D01*
G37*
G54D27*
X55023Y-36337D02*
X54721Y-36639D01*
X53495Y-36639D01*
X53495Y-36418D01*
X53468Y-36355D01*
X53420Y-36307D01*
X53357Y-36281D01*
X53288Y-36280D01*
X53225Y-36307D01*
X53177Y-36355D01*
X53151Y-36418D01*
X53150Y-36487D01*
X53177Y-36550D01*
X53225Y-36598D01*
X53288Y-36624D01*
X53357Y-36625D01*
X53420Y-36598D01*
X53468Y-36550D01*
X53494Y-36487D01*
X53495Y-36418D01*
X53495Y-36639D01*
X53000Y-36639D01*
X52967Y-36606D01*
X52904Y-36580D01*
X52835Y-36579D01*
X52772Y-36606D01*
X52724Y-36654D01*
X52698Y-36717D01*
X52697Y-36771D01*
X51782Y-35855D01*
X51782Y-35649D01*
X51788Y-35664D01*
X51831Y-35707D01*
X51886Y-35730D01*
X51947Y-35730D01*
X52003Y-35707D01*
X52046Y-35664D01*
X52069Y-35609D01*
X52069Y-35548D01*
X52046Y-35492D01*
X52003Y-35449D01*
X51947Y-35426D01*
X51887Y-35426D01*
X51831Y-35449D01*
X51788Y-35492D01*
X51782Y-35508D01*
X51782Y-35418D01*
X51814Y-35385D01*
X51840Y-35322D01*
X51841Y-35255D01*
X51874Y-35255D01*
X52396Y-35777D01*
X52323Y-35777D01*
X52290Y-35744D01*
X52227Y-35718D01*
X52158Y-35717D01*
X52095Y-35744D01*
X52047Y-35792D01*
X52021Y-35855D01*
X52020Y-35924D01*
X52047Y-35987D01*
X52095Y-36035D01*
X52158Y-36061D01*
X52227Y-36062D01*
X52290Y-36035D01*
X52323Y-36003D01*
X54564Y-36003D01*
X54549Y-36040D01*
X54548Y-36109D01*
X54575Y-36172D01*
X54613Y-36210D01*
X54590Y-36233D01*
X54564Y-36296D01*
X54563Y-36365D01*
X54590Y-36428D01*
X54638Y-36476D01*
X54701Y-36502D01*
X54770Y-36503D01*
X54833Y-36476D01*
X54881Y-36428D01*
X54907Y-36365D01*
X54907Y-36345D01*
X54916Y-36337D01*
X55023Y-36337D01*
G54D10*
G36*
X55184Y-41364D02*
X54934Y-41631D01*
X53796Y-41631D01*
X53821Y-41570D01*
X53822Y-41501D01*
X53795Y-41438D01*
X53747Y-41390D01*
X53699Y-41370D01*
X53736Y-41333D01*
X53762Y-41270D01*
X53763Y-41201D01*
X53742Y-41153D01*
X55097Y-41153D01*
X55088Y-41174D01*
X55087Y-41243D01*
X55114Y-41306D01*
X55162Y-41354D01*
X55184Y-41364D01*
X55184Y-41364D01*
G37*
G54D27*
X55184Y-41364D02*
X54934Y-41631D01*
X53796Y-41631D01*
X53821Y-41570D01*
X53822Y-41501D01*
X53795Y-41438D01*
X53747Y-41390D01*
X53699Y-41370D01*
X53736Y-41333D01*
X53762Y-41270D01*
X53763Y-41201D01*
X53742Y-41153D01*
X55097Y-41153D01*
X55088Y-41174D01*
X55087Y-41243D01*
X55114Y-41306D01*
X55162Y-41354D01*
X55184Y-41364D01*
G54D10*
G36*
X55621Y-41990D02*
X55098Y-42517D01*
X53441Y-42517D01*
X53215Y-42290D01*
X53215Y-42089D01*
X53227Y-42107D01*
X53321Y-42201D01*
X53321Y-42201D01*
X53357Y-42226D01*
X53401Y-42235D01*
X53448Y-42235D01*
X53481Y-42267D01*
X53544Y-42293D01*
X53613Y-42294D01*
X53676Y-42267D01*
X53724Y-42219D01*
X53750Y-42156D01*
X53751Y-42087D01*
X53730Y-42038D01*
X55000Y-42038D01*
X55043Y-42029D01*
X55079Y-42004D01*
X55273Y-41811D01*
X55272Y-41880D01*
X55299Y-41943D01*
X55347Y-41991D01*
X55410Y-42017D01*
X55479Y-42018D01*
X55542Y-41991D01*
X55578Y-41955D01*
X55607Y-41984D01*
X55621Y-41990D01*
X55621Y-41990D01*
G37*
G54D27*
X55621Y-41990D02*
X55098Y-42517D01*
X53441Y-42517D01*
X53215Y-42290D01*
X53215Y-42089D01*
X53227Y-42107D01*
X53321Y-42201D01*
X53321Y-42201D01*
X53357Y-42226D01*
X53401Y-42235D01*
X53448Y-42235D01*
X53481Y-42267D01*
X53544Y-42293D01*
X53613Y-42294D01*
X53676Y-42267D01*
X53724Y-42219D01*
X53750Y-42156D01*
X53751Y-42087D01*
X53730Y-42038D01*
X55000Y-42038D01*
X55043Y-42029D01*
X55079Y-42004D01*
X55273Y-41811D01*
X55272Y-41880D01*
X55299Y-41943D01*
X55347Y-41991D01*
X55410Y-42017D01*
X55479Y-42018D01*
X55542Y-41991D01*
X55578Y-41955D01*
X55607Y-41984D01*
X55621Y-41990D01*
G54D10*
G36*
X56717Y-38553D02*
X56705Y-38548D01*
X56640Y-38548D01*
X56581Y-38573D01*
X56535Y-38618D01*
X56529Y-38612D01*
X56469Y-38587D01*
X56404Y-38587D01*
X56345Y-38612D01*
X56320Y-38636D01*
X56068Y-38635D01*
X56078Y-38625D01*
X56104Y-38562D01*
X56105Y-38493D01*
X56078Y-38430D01*
X56030Y-38382D01*
X55967Y-38356D01*
X55898Y-38355D01*
X55835Y-38382D01*
X55787Y-38430D01*
X55761Y-38493D01*
X55760Y-38562D01*
X55787Y-38625D01*
X55797Y-38635D01*
X55633Y-38635D01*
X55379Y-38380D01*
X55396Y-38373D01*
X55444Y-38325D01*
X55470Y-38262D01*
X55471Y-38193D01*
X55444Y-38130D01*
X55396Y-38082D01*
X55333Y-38056D01*
X55264Y-38055D01*
X55201Y-38082D01*
X55153Y-38130D01*
X55127Y-38193D01*
X55126Y-38242D01*
X53792Y-38242D01*
X53759Y-38209D01*
X53696Y-38183D01*
X53627Y-38182D01*
X53564Y-38209D01*
X53516Y-38257D01*
X53490Y-38320D01*
X53489Y-38389D01*
X53516Y-38452D01*
X53518Y-38454D01*
X53516Y-38457D01*
X53490Y-38520D01*
X53489Y-38589D01*
X53516Y-38652D01*
X53564Y-38700D01*
X53627Y-38726D01*
X53696Y-38727D01*
X53759Y-38700D01*
X53792Y-38668D01*
X55198Y-38668D01*
X55437Y-38901D01*
X55413Y-38926D01*
X55387Y-38901D01*
X55351Y-38876D01*
X55308Y-38868D01*
X53780Y-38868D01*
X53747Y-38835D01*
X53684Y-38809D01*
X53615Y-38808D01*
X53552Y-38835D01*
X53504Y-38883D01*
X53478Y-38946D01*
X53477Y-39015D01*
X53504Y-39078D01*
X53552Y-39126D01*
X53615Y-39152D01*
X53684Y-39153D01*
X53747Y-39126D01*
X53780Y-39094D01*
X55261Y-39094D01*
X55411Y-39243D01*
X55401Y-39253D01*
X53756Y-39256D01*
X53723Y-39224D01*
X53660Y-39198D01*
X53591Y-39197D01*
X53528Y-39224D01*
X53480Y-39272D01*
X53454Y-39335D01*
X53453Y-39404D01*
X53477Y-39460D01*
X53464Y-39473D01*
X53438Y-39536D01*
X53437Y-39605D01*
X53464Y-39668D01*
X53512Y-39716D01*
X53575Y-39742D01*
X53644Y-39743D01*
X53707Y-39716D01*
X53740Y-39684D01*
X55039Y-39684D01*
X55219Y-39863D01*
X55219Y-39864D01*
X55219Y-39864D01*
X55234Y-39874D01*
X55205Y-39886D01*
X55157Y-39934D01*
X55131Y-39997D01*
X55130Y-40066D01*
X55141Y-40090D01*
X53713Y-40088D01*
X53680Y-40055D01*
X53617Y-40029D01*
X53548Y-40028D01*
X53485Y-40055D01*
X53437Y-40103D01*
X53411Y-40166D01*
X53410Y-40235D01*
X53437Y-40298D01*
X53485Y-40346D01*
X53548Y-40372D01*
X53617Y-40373D01*
X53680Y-40346D01*
X53713Y-40314D01*
X55148Y-40316D01*
X55142Y-40323D01*
X55116Y-40386D01*
X55115Y-40446D01*
X53732Y-40446D01*
X53699Y-40413D01*
X53636Y-40387D01*
X53567Y-40386D01*
X53504Y-40413D01*
X53456Y-40461D01*
X53430Y-40524D01*
X53429Y-40593D01*
X53456Y-40656D01*
X53504Y-40704D01*
X53567Y-40730D01*
X53636Y-40731D01*
X53699Y-40704D01*
X53732Y-40672D01*
X55271Y-40672D01*
X55268Y-40673D01*
X55220Y-40721D01*
X55194Y-40784D01*
X55193Y-40853D01*
X55220Y-40916D01*
X55230Y-40927D01*
X53717Y-40927D01*
X53684Y-40894D01*
X53621Y-40868D01*
X53552Y-40867D01*
X53489Y-40894D01*
X53441Y-40942D01*
X53415Y-41005D01*
X53414Y-41074D01*
X53435Y-41123D01*
X53261Y-41123D01*
X53260Y-41123D01*
X53260Y-41122D01*
X53234Y-41128D01*
X53217Y-41131D01*
X53217Y-41131D01*
X53217Y-41131D01*
X53194Y-41147D01*
X53181Y-41156D01*
X53180Y-41156D01*
X53180Y-41156D01*
X53176Y-41161D01*
X53176Y-38157D01*
X53175Y-38156D01*
X53176Y-38156D01*
X53174Y-38149D01*
X53167Y-38113D01*
X53142Y-38077D01*
X53142Y-38077D01*
X52977Y-37912D01*
X52941Y-37887D01*
X52898Y-37879D01*
X52707Y-37879D01*
X52714Y-37861D01*
X52715Y-37792D01*
X52709Y-37779D01*
X52799Y-37779D01*
X52842Y-37770D01*
X52878Y-37745D01*
X53192Y-37432D01*
X54322Y-37432D01*
X54355Y-37464D01*
X54418Y-37490D01*
X54487Y-37491D01*
X54550Y-37464D01*
X54598Y-37416D01*
X54624Y-37353D01*
X54625Y-37284D01*
X54620Y-37274D01*
X54770Y-37274D01*
X54758Y-37304D01*
X54757Y-37380D01*
X54786Y-37451D01*
X54840Y-37504D01*
X54910Y-37533D01*
X54986Y-37534D01*
X55057Y-37505D01*
X55110Y-37451D01*
X55139Y-37381D01*
X55140Y-37305D01*
X55111Y-37234D01*
X55057Y-37181D01*
X55040Y-37174D01*
X55466Y-36748D01*
X55465Y-36790D01*
X55492Y-36853D01*
X55540Y-36901D01*
X55603Y-36927D01*
X55672Y-36928D01*
X55720Y-36908D01*
X55878Y-36908D01*
X56204Y-37234D01*
X56063Y-37234D01*
X56015Y-37214D01*
X55946Y-37213D01*
X55883Y-37240D01*
X55835Y-37288D01*
X55809Y-37351D01*
X55808Y-37420D01*
X55835Y-37483D01*
X55883Y-37531D01*
X55946Y-37557D01*
X56015Y-37558D01*
X56063Y-37538D01*
X56240Y-37538D01*
X56714Y-38012D01*
X56714Y-38026D01*
X56672Y-37984D01*
X56609Y-37958D01*
X56540Y-37957D01*
X56477Y-37984D01*
X56450Y-38010D01*
X56416Y-37976D01*
X56353Y-37950D01*
X56284Y-37949D01*
X56221Y-37976D01*
X56173Y-38024D01*
X56156Y-38065D01*
X56156Y-37981D01*
X56129Y-37918D01*
X56081Y-37870D01*
X56018Y-37844D01*
X55949Y-37843D01*
X55886Y-37870D01*
X55838Y-37918D01*
X55812Y-37981D01*
X55811Y-38050D01*
X55838Y-38113D01*
X55886Y-38161D01*
X55949Y-38187D01*
X56018Y-38188D01*
X56081Y-38161D01*
X56129Y-38113D01*
X56155Y-38050D01*
X56156Y-37981D01*
X56156Y-38065D01*
X56147Y-38087D01*
X56146Y-38156D01*
X56173Y-38219D01*
X56221Y-38267D01*
X56284Y-38293D01*
X56353Y-38294D01*
X56416Y-38267D01*
X56443Y-38241D01*
X56477Y-38275D01*
X56540Y-38301D01*
X56609Y-38302D01*
X56672Y-38275D01*
X56715Y-38232D01*
X56717Y-38553D01*
X56717Y-38553D01*
G37*
G54D27*
X56717Y-38553D02*
X56705Y-38548D01*
X56640Y-38548D01*
X56581Y-38573D01*
X56535Y-38618D01*
X56529Y-38612D01*
X56469Y-38587D01*
X56404Y-38587D01*
X56345Y-38612D01*
X56320Y-38636D01*
X56068Y-38635D01*
X56078Y-38625D01*
X56104Y-38562D01*
X56105Y-38493D01*
X56078Y-38430D01*
X56030Y-38382D01*
X55967Y-38356D01*
X55898Y-38355D01*
X55835Y-38382D01*
X55787Y-38430D01*
X55761Y-38493D01*
X55760Y-38562D01*
X55787Y-38625D01*
X55797Y-38635D01*
X55633Y-38635D01*
X55379Y-38380D01*
X55396Y-38373D01*
X55444Y-38325D01*
X55470Y-38262D01*
X55471Y-38193D01*
X55444Y-38130D01*
X55396Y-38082D01*
X55333Y-38056D01*
X55264Y-38055D01*
X55201Y-38082D01*
X55153Y-38130D01*
X55127Y-38193D01*
X55126Y-38242D01*
X53792Y-38242D01*
X53759Y-38209D01*
X53696Y-38183D01*
X53627Y-38182D01*
X53564Y-38209D01*
X53516Y-38257D01*
X53490Y-38320D01*
X53489Y-38389D01*
X53516Y-38452D01*
X53518Y-38454D01*
X53516Y-38457D01*
X53490Y-38520D01*
X53489Y-38589D01*
X53516Y-38652D01*
X53564Y-38700D01*
X53627Y-38726D01*
X53696Y-38727D01*
X53759Y-38700D01*
X53792Y-38668D01*
X55198Y-38668D01*
X55437Y-38901D01*
X55413Y-38926D01*
X55387Y-38901D01*
X55351Y-38876D01*
X55308Y-38868D01*
X53780Y-38868D01*
X53747Y-38835D01*
X53684Y-38809D01*
X53615Y-38808D01*
X53552Y-38835D01*
X53504Y-38883D01*
X53478Y-38946D01*
X53477Y-39015D01*
X53504Y-39078D01*
X53552Y-39126D01*
X53615Y-39152D01*
X53684Y-39153D01*
X53747Y-39126D01*
X53780Y-39094D01*
X55261Y-39094D01*
X55411Y-39243D01*
X55401Y-39253D01*
X53756Y-39256D01*
X53723Y-39224D01*
X53660Y-39198D01*
X53591Y-39197D01*
X53528Y-39224D01*
X53480Y-39272D01*
X53454Y-39335D01*
X53453Y-39404D01*
X53477Y-39460D01*
X53464Y-39473D01*
X53438Y-39536D01*
X53437Y-39605D01*
X53464Y-39668D01*
X53512Y-39716D01*
X53575Y-39742D01*
X53644Y-39743D01*
X53707Y-39716D01*
X53740Y-39684D01*
X55039Y-39684D01*
X55219Y-39863D01*
X55219Y-39864D01*
X55219Y-39864D01*
X55234Y-39874D01*
X55205Y-39886D01*
X55157Y-39934D01*
X55131Y-39997D01*
X55130Y-40066D01*
X55141Y-40090D01*
X53713Y-40088D01*
X53680Y-40055D01*
X53617Y-40029D01*
X53548Y-40028D01*
X53485Y-40055D01*
X53437Y-40103D01*
X53411Y-40166D01*
X53410Y-40235D01*
X53437Y-40298D01*
X53485Y-40346D01*
X53548Y-40372D01*
X53617Y-40373D01*
X53680Y-40346D01*
X53713Y-40314D01*
X55148Y-40316D01*
X55142Y-40323D01*
X55116Y-40386D01*
X55115Y-40446D01*
X53732Y-40446D01*
X53699Y-40413D01*
X53636Y-40387D01*
X53567Y-40386D01*
X53504Y-40413D01*
X53456Y-40461D01*
X53430Y-40524D01*
X53429Y-40593D01*
X53456Y-40656D01*
X53504Y-40704D01*
X53567Y-40730D01*
X53636Y-40731D01*
X53699Y-40704D01*
X53732Y-40672D01*
X55271Y-40672D01*
X55268Y-40673D01*
X55220Y-40721D01*
X55194Y-40784D01*
X55193Y-40853D01*
X55220Y-40916D01*
X55230Y-40927D01*
X53717Y-40927D01*
X53684Y-40894D01*
X53621Y-40868D01*
X53552Y-40867D01*
X53489Y-40894D01*
X53441Y-40942D01*
X53415Y-41005D01*
X53414Y-41074D01*
X53435Y-41123D01*
X53261Y-41123D01*
X53260Y-41123D01*
X53260Y-41122D01*
X53234Y-41128D01*
X53217Y-41131D01*
X53217Y-41131D01*
X53217Y-41131D01*
X53194Y-41147D01*
X53181Y-41156D01*
X53180Y-41156D01*
X53180Y-41156D01*
X53176Y-41161D01*
X53176Y-38157D01*
X53175Y-38156D01*
X53176Y-38156D01*
X53174Y-38149D01*
X53167Y-38113D01*
X53142Y-38077D01*
X53142Y-38077D01*
X52977Y-37912D01*
X52941Y-37887D01*
X52898Y-37879D01*
X52707Y-37879D01*
X52714Y-37861D01*
X52715Y-37792D01*
X52709Y-37779D01*
X52799Y-37779D01*
X52842Y-37770D01*
X52878Y-37745D01*
X53192Y-37432D01*
X54322Y-37432D01*
X54355Y-37464D01*
X54418Y-37490D01*
X54487Y-37491D01*
X54550Y-37464D01*
X54598Y-37416D01*
X54624Y-37353D01*
X54625Y-37284D01*
X54620Y-37274D01*
X54770Y-37274D01*
X54758Y-37304D01*
X54757Y-37380D01*
X54786Y-37451D01*
X54840Y-37504D01*
X54910Y-37533D01*
X54986Y-37534D01*
X55057Y-37505D01*
X55110Y-37451D01*
X55139Y-37381D01*
X55140Y-37305D01*
X55111Y-37234D01*
X55057Y-37181D01*
X55040Y-37174D01*
X55466Y-36748D01*
X55465Y-36790D01*
X55492Y-36853D01*
X55540Y-36901D01*
X55603Y-36927D01*
X55672Y-36928D01*
X55720Y-36908D01*
X55878Y-36908D01*
X56204Y-37234D01*
X56063Y-37234D01*
X56015Y-37214D01*
X55946Y-37213D01*
X55883Y-37240D01*
X55835Y-37288D01*
X55809Y-37351D01*
X55808Y-37420D01*
X55835Y-37483D01*
X55883Y-37531D01*
X55946Y-37557D01*
X56015Y-37558D01*
X56063Y-37538D01*
X56240Y-37538D01*
X56714Y-38012D01*
X56714Y-38026D01*
X56672Y-37984D01*
X56609Y-37958D01*
X56540Y-37957D01*
X56477Y-37984D01*
X56450Y-38010D01*
X56416Y-37976D01*
X56353Y-37950D01*
X56284Y-37949D01*
X56221Y-37976D01*
X56173Y-38024D01*
X56156Y-38065D01*
X56156Y-37981D01*
X56129Y-37918D01*
X56081Y-37870D01*
X56018Y-37844D01*
X55949Y-37843D01*
X55886Y-37870D01*
X55838Y-37918D01*
X55812Y-37981D01*
X55811Y-38050D01*
X55838Y-38113D01*
X55886Y-38161D01*
X55949Y-38187D01*
X56018Y-38188D01*
X56081Y-38161D01*
X56129Y-38113D01*
X56155Y-38050D01*
X56156Y-37981D01*
X56156Y-38065D01*
X56147Y-38087D01*
X56146Y-38156D01*
X56173Y-38219D01*
X56221Y-38267D01*
X56284Y-38293D01*
X56353Y-38294D01*
X56416Y-38267D01*
X56443Y-38241D01*
X56477Y-38275D01*
X56540Y-38301D01*
X56609Y-38302D01*
X56672Y-38275D01*
X56715Y-38232D01*
X56717Y-38553D01*
G54D10*
G36*
X56902Y-33552D02*
X56671Y-33782D01*
X56671Y-33782D01*
X55906Y-34548D01*
X54383Y-34548D01*
X54411Y-34479D01*
X54412Y-34403D01*
X54396Y-34364D01*
X55346Y-34364D01*
X55389Y-34356D01*
X55426Y-34331D01*
X55831Y-33926D01*
X55831Y-33926D01*
X55831Y-33926D01*
X56119Y-33639D01*
X56119Y-33639D01*
X56119Y-33639D01*
X56143Y-33602D01*
X56143Y-33602D01*
X56150Y-33566D01*
X56151Y-33562D01*
X56151Y-33562D01*
X56225Y-33531D01*
X56318Y-33438D01*
X56368Y-33317D01*
X56369Y-33186D01*
X56318Y-33065D01*
X56226Y-32972D01*
X56212Y-32966D01*
X56253Y-32966D01*
X56271Y-32985D01*
X56370Y-33026D01*
X56478Y-33026D01*
X56578Y-32985D01*
X56630Y-32932D01*
X56652Y-32932D01*
X56704Y-32985D01*
X56800Y-33024D01*
X56759Y-33064D01*
X56709Y-33185D01*
X56709Y-33317D01*
X56759Y-33438D01*
X56852Y-33531D01*
X56902Y-33552D01*
X56902Y-33552D01*
G37*
G54D27*
X56902Y-33552D02*
X56671Y-33782D01*
X56671Y-33782D01*
X55906Y-34548D01*
X54383Y-34548D01*
X54411Y-34479D01*
X54412Y-34403D01*
X54396Y-34364D01*
X55346Y-34364D01*
X55389Y-34356D01*
X55426Y-34331D01*
X55831Y-33926D01*
X55831Y-33926D01*
X55831Y-33926D01*
X56119Y-33639D01*
X56119Y-33639D01*
X56119Y-33639D01*
X56143Y-33602D01*
X56143Y-33602D01*
X56150Y-33566D01*
X56151Y-33562D01*
X56151Y-33562D01*
X56225Y-33531D01*
X56318Y-33438D01*
X56368Y-33317D01*
X56369Y-33186D01*
X56318Y-33065D01*
X56226Y-32972D01*
X56212Y-32966D01*
X56253Y-32966D01*
X56271Y-32985D01*
X56370Y-33026D01*
X56478Y-33026D01*
X56578Y-32985D01*
X56630Y-32932D01*
X56652Y-32932D01*
X56704Y-32985D01*
X56800Y-33024D01*
X56759Y-33064D01*
X56709Y-33185D01*
X56709Y-33317D01*
X56759Y-33438D01*
X56852Y-33531D01*
X56902Y-33552D01*
G54D10*
G36*
X58101Y-37501D02*
X57963Y-37501D01*
X56295Y-35833D01*
X56433Y-35833D01*
X58101Y-37501D01*
X58101Y-37501D01*
G37*
G54D27*
X58101Y-37501D02*
X57963Y-37501D01*
X56295Y-35833D01*
X56433Y-35833D01*
X58101Y-37501D01*
G54D10*
G36*
X64773Y-49596D02*
X64270Y-49596D01*
X64270Y-47941D01*
X64270Y-47344D01*
X64255Y-47310D01*
X64229Y-47284D01*
X64195Y-47269D01*
X64158Y-47269D01*
X63561Y-47269D01*
X63526Y-47284D01*
X63500Y-47310D01*
X63486Y-47344D01*
X63486Y-47381D01*
X63486Y-47978D01*
X63500Y-48013D01*
X63526Y-48039D01*
X63560Y-48053D01*
X63598Y-48053D01*
X64195Y-48053D01*
X64229Y-48039D01*
X64255Y-48013D01*
X64270Y-47979D01*
X64270Y-47941D01*
X64270Y-49596D01*
X63964Y-49596D01*
X64087Y-49544D01*
X64198Y-49434D01*
X64257Y-49290D01*
X64258Y-49134D01*
X64198Y-48990D01*
X64088Y-48880D01*
X63944Y-48820D01*
X63788Y-48820D01*
X63644Y-48879D01*
X63533Y-48990D01*
X63474Y-49134D01*
X63473Y-49290D01*
X63533Y-49434D01*
X63643Y-49544D01*
X63767Y-49596D01*
X63270Y-49596D01*
X63270Y-47564D01*
X63210Y-47420D01*
X63100Y-47309D01*
X62956Y-47249D01*
X62800Y-47249D01*
X62656Y-47309D01*
X62545Y-47419D01*
X62486Y-47563D01*
X62486Y-47719D01*
X62545Y-47863D01*
X62655Y-47973D01*
X62799Y-48033D01*
X62955Y-48033D01*
X63099Y-47974D01*
X63210Y-47864D01*
X63270Y-47720D01*
X63270Y-47564D01*
X63270Y-49596D01*
X62964Y-49596D01*
X63087Y-49544D01*
X63198Y-49434D01*
X63257Y-49290D01*
X63258Y-49134D01*
X63198Y-48990D01*
X63088Y-48880D01*
X62944Y-48820D01*
X62788Y-48820D01*
X62644Y-48879D01*
X62533Y-48990D01*
X62474Y-49134D01*
X62473Y-49290D01*
X62533Y-49434D01*
X62643Y-49544D01*
X62767Y-49596D01*
X62230Y-49596D01*
X62230Y-39765D01*
X62201Y-39694D01*
X62156Y-39649D01*
X62197Y-39608D01*
X62226Y-39538D01*
X62227Y-39462D01*
X62198Y-39391D01*
X62144Y-39338D01*
X62074Y-39309D01*
X61998Y-39308D01*
X61927Y-39337D01*
X61874Y-39391D01*
X61845Y-39461D01*
X61844Y-39537D01*
X61873Y-39608D01*
X61918Y-39653D01*
X61877Y-39694D01*
X61848Y-39764D01*
X61847Y-39840D01*
X61876Y-39911D01*
X61930Y-39964D01*
X62000Y-39993D01*
X62076Y-39994D01*
X62147Y-39965D01*
X62200Y-39911D01*
X62229Y-39841D01*
X62230Y-39765D01*
X62230Y-49596D01*
X62012Y-49596D01*
X62012Y-41980D01*
X61983Y-41909D01*
X61929Y-41856D01*
X61919Y-41851D01*
X61919Y-40608D01*
X61890Y-40537D01*
X61836Y-40484D01*
X61785Y-40462D01*
X61785Y-38045D01*
X61756Y-37974D01*
X61702Y-37921D01*
X61632Y-37892D01*
X61556Y-37891D01*
X61485Y-37920D01*
X61432Y-37974D01*
X61403Y-38044D01*
X61402Y-38120D01*
X61431Y-38191D01*
X61485Y-38244D01*
X61555Y-38273D01*
X61631Y-38274D01*
X61702Y-38245D01*
X61755Y-38191D01*
X61784Y-38121D01*
X61785Y-38045D01*
X61785Y-40462D01*
X61766Y-40455D01*
X61690Y-40454D01*
X61619Y-40483D01*
X61566Y-40537D01*
X61537Y-40607D01*
X61536Y-40683D01*
X61565Y-40754D01*
X61619Y-40807D01*
X61689Y-40836D01*
X61765Y-40837D01*
X61836Y-40808D01*
X61889Y-40754D01*
X61918Y-40684D01*
X61919Y-40608D01*
X61919Y-41851D01*
X61859Y-41827D01*
X61783Y-41826D01*
X61712Y-41855D01*
X61659Y-41909D01*
X61630Y-41979D01*
X61629Y-42055D01*
X61658Y-42126D01*
X61712Y-42179D01*
X61782Y-42208D01*
X61858Y-42209D01*
X61929Y-42180D01*
X61982Y-42126D01*
X62011Y-42056D01*
X62012Y-41980D01*
X62012Y-49596D01*
X61270Y-49596D01*
X61270Y-47564D01*
X61210Y-47420D01*
X61100Y-47309D01*
X60956Y-47249D01*
X60836Y-47249D01*
X60836Y-40556D01*
X60816Y-40508D01*
X60779Y-40470D01*
X60731Y-40450D01*
X60678Y-40450D01*
X60630Y-40470D01*
X60592Y-40507D01*
X60572Y-40556D01*
X60572Y-40608D01*
X60592Y-40657D01*
X60629Y-40694D01*
X60678Y-40714D01*
X60730Y-40714D01*
X60779Y-40694D01*
X60816Y-40657D01*
X60836Y-40609D01*
X60836Y-40556D01*
X60836Y-47249D01*
X60800Y-47249D01*
X60656Y-47309D01*
X60545Y-47419D01*
X60486Y-47563D01*
X60486Y-47719D01*
X60545Y-47863D01*
X60655Y-47973D01*
X60799Y-48033D01*
X60955Y-48033D01*
X61099Y-47974D01*
X61210Y-47864D01*
X61270Y-47720D01*
X61270Y-47564D01*
X61270Y-49596D01*
X60964Y-49596D01*
X61087Y-49544D01*
X61198Y-49434D01*
X61257Y-49290D01*
X61258Y-49134D01*
X61198Y-48990D01*
X61088Y-48880D01*
X60944Y-48820D01*
X60788Y-48820D01*
X60644Y-48879D01*
X60533Y-48990D01*
X60474Y-49134D01*
X60473Y-49290D01*
X60533Y-49434D01*
X60643Y-49544D01*
X60767Y-49596D01*
X60270Y-49596D01*
X60270Y-47564D01*
X60210Y-47420D01*
X60100Y-47309D01*
X59956Y-47249D01*
X59800Y-47249D01*
X59656Y-47309D01*
X59545Y-47419D01*
X59486Y-47563D01*
X59486Y-47719D01*
X59545Y-47863D01*
X59655Y-47973D01*
X59799Y-48033D01*
X59955Y-48033D01*
X60099Y-47974D01*
X60210Y-47864D01*
X60270Y-47720D01*
X60270Y-47564D01*
X60270Y-49596D01*
X60258Y-49596D01*
X60258Y-49472D01*
X60258Y-48875D01*
X60243Y-48841D01*
X60217Y-48814D01*
X60183Y-48800D01*
X60145Y-48800D01*
X59548Y-48800D01*
X59514Y-48814D01*
X59488Y-48840D01*
X59474Y-48875D01*
X59474Y-48912D01*
X59474Y-49509D01*
X59488Y-49543D01*
X59514Y-49570D01*
X59548Y-49584D01*
X59586Y-49584D01*
X60183Y-49584D01*
X60217Y-49570D01*
X60243Y-49544D01*
X60257Y-49509D01*
X60258Y-49472D01*
X60258Y-49596D01*
X57936Y-49596D01*
X57879Y-49538D01*
X57780Y-49497D01*
X57672Y-49497D01*
X57572Y-49538D01*
X57508Y-49602D01*
X57445Y-49538D01*
X57346Y-49497D01*
X57238Y-49497D01*
X57138Y-49538D01*
X57075Y-49601D01*
X57012Y-49538D01*
X56913Y-49497D01*
X56805Y-49497D01*
X56705Y-49538D01*
X56642Y-49601D01*
X56579Y-49538D01*
X56480Y-49497D01*
X56411Y-49497D01*
X56411Y-47638D01*
X56411Y-47205D01*
X56382Y-47135D01*
X56328Y-47081D01*
X56258Y-47052D01*
X56182Y-47052D01*
X56112Y-47081D01*
X56058Y-47134D01*
X56029Y-47204D01*
X56029Y-47280D01*
X56058Y-47351D01*
X56112Y-47404D01*
X56182Y-47434D01*
X56258Y-47434D01*
X56328Y-47405D01*
X56382Y-47351D01*
X56411Y-47281D01*
X56411Y-47205D01*
X56411Y-47638D01*
X56382Y-47568D01*
X56328Y-47514D01*
X56258Y-47485D01*
X56182Y-47485D01*
X56112Y-47514D01*
X56058Y-47567D01*
X56029Y-47638D01*
X56029Y-47713D01*
X56058Y-47784D01*
X56112Y-47837D01*
X56182Y-47867D01*
X56258Y-47867D01*
X56328Y-47838D01*
X56382Y-47784D01*
X56411Y-47714D01*
X56411Y-47638D01*
X56411Y-49497D01*
X56372Y-49497D01*
X56272Y-49538D01*
X56215Y-49596D01*
X55978Y-49596D01*
X55978Y-48071D01*
X55978Y-47638D01*
X55978Y-47204D01*
X55949Y-47134D01*
X55895Y-47080D01*
X55825Y-47051D01*
X55749Y-47051D01*
X55679Y-47080D01*
X55625Y-47133D01*
X55596Y-47203D01*
X55596Y-47279D01*
X55625Y-47350D01*
X55679Y-47403D01*
X55749Y-47433D01*
X55825Y-47433D01*
X55895Y-47404D01*
X55949Y-47350D01*
X55978Y-47280D01*
X55978Y-47204D01*
X55978Y-47638D01*
X55949Y-47568D01*
X55895Y-47514D01*
X55825Y-47485D01*
X55749Y-47485D01*
X55679Y-47514D01*
X55625Y-47567D01*
X55596Y-47638D01*
X55596Y-47713D01*
X55625Y-47784D01*
X55679Y-47837D01*
X55749Y-47867D01*
X55825Y-47867D01*
X55895Y-47838D01*
X55949Y-47784D01*
X55978Y-47714D01*
X55978Y-47638D01*
X55978Y-48071D01*
X55949Y-48001D01*
X55895Y-47947D01*
X55825Y-47918D01*
X55749Y-47918D01*
X55679Y-47947D01*
X55625Y-48000D01*
X55596Y-48071D01*
X55596Y-48147D01*
X55625Y-48217D01*
X55679Y-48271D01*
X55749Y-48300D01*
X55825Y-48300D01*
X55895Y-48271D01*
X55949Y-48217D01*
X55978Y-48147D01*
X55978Y-48071D01*
X55978Y-49596D01*
X54428Y-49596D01*
X54428Y-49586D01*
X54428Y-46830D01*
X51738Y-46830D01*
X51738Y-43682D01*
X51712Y-43619D01*
X51664Y-43570D01*
X51601Y-43544D01*
X51532Y-43544D01*
X51469Y-43570D01*
X51421Y-43618D01*
X51394Y-43682D01*
X51394Y-43734D01*
X51388Y-43728D01*
X51325Y-43702D01*
X51257Y-43701D01*
X51194Y-43728D01*
X51145Y-43776D01*
X51119Y-43839D01*
X51119Y-43908D01*
X51145Y-43971D01*
X51193Y-44019D01*
X51256Y-44045D01*
X51325Y-44046D01*
X51386Y-44020D01*
X51375Y-44048D01*
X51375Y-44116D01*
X51325Y-44095D01*
X51257Y-44095D01*
X51194Y-44121D01*
X51145Y-44170D01*
X51119Y-44233D01*
X51119Y-44301D01*
X51145Y-44365D01*
X51193Y-44413D01*
X51234Y-44430D01*
X51166Y-44430D01*
X51103Y-44456D01*
X51055Y-44504D01*
X51028Y-44567D01*
X51028Y-44636D01*
X51054Y-44699D01*
X51103Y-44748D01*
X51142Y-44764D01*
X51107Y-44779D01*
X51058Y-44827D01*
X51032Y-44890D01*
X51032Y-44959D01*
X51058Y-45022D01*
X51107Y-45070D01*
X51170Y-45097D01*
X51238Y-45097D01*
X51302Y-45071D01*
X51350Y-45022D01*
X51376Y-44959D01*
X51376Y-44891D01*
X51350Y-44827D01*
X51302Y-44779D01*
X51262Y-44762D01*
X51298Y-44748D01*
X51346Y-44699D01*
X51372Y-44636D01*
X51372Y-44568D01*
X51346Y-44505D01*
X51298Y-44456D01*
X51257Y-44439D01*
X51325Y-44439D01*
X51375Y-44419D01*
X51375Y-44447D01*
X51401Y-44510D01*
X51449Y-44559D01*
X51481Y-44572D01*
X51438Y-44590D01*
X51389Y-44638D01*
X51363Y-44701D01*
X51363Y-44770D01*
X51389Y-44833D01*
X51437Y-44881D01*
X51485Y-44901D01*
X51438Y-44921D01*
X51389Y-44969D01*
X51363Y-45032D01*
X51363Y-45100D01*
X51389Y-45164D01*
X51437Y-45212D01*
X51501Y-45238D01*
X51569Y-45238D01*
X51632Y-45212D01*
X51681Y-45164D01*
X51707Y-45101D01*
X51707Y-45032D01*
X51681Y-44969D01*
X51632Y-44921D01*
X51585Y-44901D01*
X51632Y-44882D01*
X51681Y-44833D01*
X51707Y-44770D01*
X51707Y-44702D01*
X51681Y-44638D01*
X51632Y-44590D01*
X51601Y-44577D01*
X51644Y-44559D01*
X51692Y-44510D01*
X51719Y-44447D01*
X51719Y-44379D01*
X51693Y-44316D01*
X51644Y-44267D01*
X51597Y-44248D01*
X51644Y-44228D01*
X51692Y-44180D01*
X51719Y-44117D01*
X51719Y-44048D01*
X51693Y-43985D01*
X51644Y-43936D01*
X51581Y-43910D01*
X51513Y-43910D01*
X51451Y-43935D01*
X51463Y-43908D01*
X51463Y-43856D01*
X51469Y-43862D01*
X51532Y-43888D01*
X51600Y-43888D01*
X51664Y-43862D01*
X51712Y-43814D01*
X51738Y-43750D01*
X51738Y-43682D01*
X51738Y-46830D01*
X51004Y-46830D01*
X51004Y-49586D01*
X54428Y-49586D01*
X54428Y-49596D01*
X48754Y-49596D01*
X48754Y-45871D01*
X48754Y-45477D01*
X48728Y-45414D01*
X48680Y-45366D01*
X48617Y-45339D01*
X48548Y-45339D01*
X48485Y-45365D01*
X48436Y-45414D01*
X48410Y-45477D01*
X48410Y-45545D01*
X48436Y-45609D01*
X48485Y-45657D01*
X48548Y-45683D01*
X48616Y-45683D01*
X48679Y-45657D01*
X48728Y-45609D01*
X48754Y-45546D01*
X48754Y-45477D01*
X48754Y-45871D01*
X48728Y-45808D01*
X48680Y-45759D01*
X48617Y-45733D01*
X48548Y-45733D01*
X48485Y-45759D01*
X48436Y-45807D01*
X48410Y-45871D01*
X48410Y-45939D01*
X48436Y-46002D01*
X48485Y-46051D01*
X48548Y-46077D01*
X48616Y-46077D01*
X48679Y-46051D01*
X48728Y-46003D01*
X48754Y-45939D01*
X48754Y-45871D01*
X48754Y-49596D01*
X48518Y-49596D01*
X48518Y-46737D01*
X48518Y-46383D01*
X48492Y-46320D01*
X48444Y-46271D01*
X48380Y-46245D01*
X48312Y-46245D01*
X48282Y-46257D01*
X48282Y-45832D01*
X48282Y-45438D01*
X48256Y-45375D01*
X48207Y-45326D01*
X48144Y-45300D01*
X48076Y-45300D01*
X48012Y-45326D01*
X47964Y-45374D01*
X47938Y-45438D01*
X47938Y-45506D01*
X47964Y-45569D01*
X48012Y-45618D01*
X48075Y-45644D01*
X48144Y-45644D01*
X48207Y-45618D01*
X48255Y-45569D01*
X48282Y-45506D01*
X48282Y-45438D01*
X48282Y-45832D01*
X48256Y-45768D01*
X48207Y-45720D01*
X48144Y-45694D01*
X48076Y-45694D01*
X48012Y-45720D01*
X47964Y-45768D01*
X47938Y-45831D01*
X47938Y-45900D01*
X47964Y-45963D01*
X48012Y-46011D01*
X48075Y-46038D01*
X48144Y-46038D01*
X48207Y-46012D01*
X48255Y-45963D01*
X48282Y-45900D01*
X48282Y-45832D01*
X48282Y-46257D01*
X48249Y-46271D01*
X48200Y-46319D01*
X48174Y-46382D01*
X48174Y-46451D01*
X48200Y-46514D01*
X48248Y-46563D01*
X48312Y-46589D01*
X48380Y-46589D01*
X48443Y-46563D01*
X48492Y-46514D01*
X48518Y-46451D01*
X48518Y-46383D01*
X48518Y-46737D01*
X48492Y-46674D01*
X48444Y-46625D01*
X48380Y-46599D01*
X48312Y-46599D01*
X48249Y-46625D01*
X48200Y-46674D01*
X48174Y-46737D01*
X48174Y-46805D01*
X48200Y-46868D01*
X48248Y-46917D01*
X48312Y-46943D01*
X48380Y-46943D01*
X48443Y-46917D01*
X48492Y-46869D01*
X48518Y-46806D01*
X48518Y-46737D01*
X48518Y-49596D01*
X47534Y-49596D01*
X47534Y-47288D01*
X47534Y-46855D01*
X47534Y-46462D01*
X47534Y-46107D01*
X47508Y-46044D01*
X47459Y-45996D01*
X47396Y-45969D01*
X47380Y-45969D01*
X47380Y-36521D01*
X47354Y-36457D01*
X47306Y-36409D01*
X47243Y-36383D01*
X47174Y-36383D01*
X47111Y-36409D01*
X47062Y-36457D01*
X47036Y-36520D01*
X47036Y-36589D01*
X47062Y-36652D01*
X47111Y-36700D01*
X47125Y-36707D01*
X47103Y-36716D01*
X47055Y-36764D01*
X47028Y-36827D01*
X47028Y-36896D01*
X47054Y-36959D01*
X47103Y-37007D01*
X47166Y-37034D01*
X47234Y-37034D01*
X47298Y-37008D01*
X47346Y-36959D01*
X47372Y-36896D01*
X47372Y-36828D01*
X47346Y-36764D01*
X47298Y-36716D01*
X47283Y-36710D01*
X47305Y-36701D01*
X47354Y-36652D01*
X47380Y-36589D01*
X47380Y-36521D01*
X47380Y-45969D01*
X47328Y-45969D01*
X47264Y-45995D01*
X47216Y-46044D01*
X47190Y-46107D01*
X47190Y-46175D01*
X47216Y-46239D01*
X47264Y-46287D01*
X47327Y-46313D01*
X47396Y-46313D01*
X47459Y-46287D01*
X47507Y-46239D01*
X47534Y-46176D01*
X47534Y-46107D01*
X47534Y-46462D01*
X47508Y-46398D01*
X47459Y-46350D01*
X47396Y-46324D01*
X47328Y-46324D01*
X47264Y-46350D01*
X47216Y-46398D01*
X47190Y-46461D01*
X47190Y-46530D01*
X47216Y-46593D01*
X47264Y-46641D01*
X47327Y-46668D01*
X47396Y-46668D01*
X47459Y-46641D01*
X47507Y-46593D01*
X47534Y-46530D01*
X47534Y-46462D01*
X47534Y-46855D01*
X47508Y-46792D01*
X47459Y-46744D01*
X47396Y-46717D01*
X47328Y-46717D01*
X47264Y-46743D01*
X47216Y-46792D01*
X47190Y-46855D01*
X47190Y-46923D01*
X47216Y-46987D01*
X47264Y-47035D01*
X47327Y-47061D01*
X47396Y-47061D01*
X47459Y-47035D01*
X47507Y-46987D01*
X47534Y-46924D01*
X47534Y-46855D01*
X47534Y-47288D01*
X47508Y-47225D01*
X47459Y-47177D01*
X47396Y-47150D01*
X47328Y-47150D01*
X47264Y-47176D01*
X47216Y-47225D01*
X47190Y-47288D01*
X47190Y-47356D01*
X47216Y-47420D01*
X47264Y-47468D01*
X47327Y-47494D01*
X47396Y-47494D01*
X47459Y-47468D01*
X47507Y-47420D01*
X47534Y-47357D01*
X47534Y-47288D01*
X47534Y-49596D01*
X47164Y-49596D01*
X47164Y-45743D01*
X47104Y-45599D01*
X46994Y-45489D01*
X46850Y-45429D01*
X46711Y-45429D01*
X46711Y-37359D01*
X46685Y-37296D01*
X46636Y-37247D01*
X46573Y-37221D01*
X46505Y-37221D01*
X46442Y-37247D01*
X46393Y-37296D01*
X46367Y-37359D01*
X46367Y-37427D01*
X46393Y-37491D01*
X46441Y-37539D01*
X46505Y-37565D01*
X46573Y-37565D01*
X46636Y-37539D01*
X46685Y-37491D01*
X46711Y-37428D01*
X46711Y-37359D01*
X46711Y-45429D01*
X46694Y-45429D01*
X46550Y-45488D01*
X46439Y-45598D01*
X46380Y-45743D01*
X46380Y-45898D01*
X46439Y-46043D01*
X46549Y-46153D01*
X46693Y-46213D01*
X46849Y-46213D01*
X46993Y-46153D01*
X47104Y-46043D01*
X47164Y-45899D01*
X47164Y-45743D01*
X47164Y-49596D01*
X47061Y-49596D01*
X47061Y-47288D01*
X47061Y-46855D01*
X47061Y-46462D01*
X47035Y-46398D01*
X46987Y-46350D01*
X46924Y-46324D01*
X46855Y-46324D01*
X46792Y-46350D01*
X46744Y-46398D01*
X46717Y-46461D01*
X46717Y-46530D01*
X46743Y-46593D01*
X46792Y-46641D01*
X46855Y-46668D01*
X46923Y-46668D01*
X46987Y-46641D01*
X47035Y-46593D01*
X47061Y-46530D01*
X47061Y-46462D01*
X47061Y-46855D01*
X47035Y-46792D01*
X46987Y-46744D01*
X46924Y-46717D01*
X46855Y-46717D01*
X46792Y-46743D01*
X46744Y-46792D01*
X46717Y-46855D01*
X46717Y-46923D01*
X46743Y-46987D01*
X46792Y-47035D01*
X46855Y-47061D01*
X46923Y-47061D01*
X46987Y-47035D01*
X47035Y-46987D01*
X47061Y-46924D01*
X47061Y-46855D01*
X47061Y-47288D01*
X47035Y-47225D01*
X46987Y-47177D01*
X46924Y-47150D01*
X46855Y-47150D01*
X46792Y-47176D01*
X46744Y-47225D01*
X46717Y-47288D01*
X46717Y-47356D01*
X46743Y-47420D01*
X46792Y-47468D01*
X46855Y-47494D01*
X46923Y-47494D01*
X46987Y-47468D01*
X47035Y-47420D01*
X47061Y-47357D01*
X47061Y-47288D01*
X47061Y-49596D01*
X46589Y-49596D01*
X46589Y-47288D01*
X46589Y-46855D01*
X46589Y-46462D01*
X46563Y-46398D01*
X46514Y-46350D01*
X46451Y-46324D01*
X46383Y-46324D01*
X46320Y-46350D01*
X46271Y-46398D01*
X46245Y-46461D01*
X46245Y-46530D01*
X46271Y-46593D01*
X46319Y-46641D01*
X46382Y-46668D01*
X46451Y-46668D01*
X46514Y-46641D01*
X46563Y-46593D01*
X46589Y-46530D01*
X46589Y-46462D01*
X46589Y-46855D01*
X46563Y-46792D01*
X46514Y-46744D01*
X46451Y-46717D01*
X46383Y-46717D01*
X46320Y-46743D01*
X46271Y-46792D01*
X46245Y-46855D01*
X46245Y-46923D01*
X46271Y-46987D01*
X46319Y-47035D01*
X46382Y-47061D01*
X46451Y-47061D01*
X46514Y-47035D01*
X46563Y-46987D01*
X46589Y-46924D01*
X46589Y-46855D01*
X46589Y-47288D01*
X46563Y-47225D01*
X46514Y-47177D01*
X46451Y-47150D01*
X46383Y-47150D01*
X46320Y-47176D01*
X46271Y-47225D01*
X46245Y-47288D01*
X46245Y-47356D01*
X46271Y-47420D01*
X46319Y-47468D01*
X46382Y-47494D01*
X46451Y-47494D01*
X46514Y-47468D01*
X46563Y-47420D01*
X46589Y-47357D01*
X46589Y-47288D01*
X46589Y-49596D01*
X46139Y-49596D01*
X46139Y-44573D01*
X46160Y-44564D01*
X46237Y-44488D01*
X46278Y-44389D01*
X46278Y-44281D01*
X46237Y-44181D01*
X46173Y-44118D01*
X46237Y-44055D01*
X46278Y-43956D01*
X46278Y-43848D01*
X46237Y-43748D01*
X46173Y-43685D01*
X46237Y-43622D01*
X46278Y-43523D01*
X46278Y-43415D01*
X46237Y-43315D01*
X46161Y-43239D01*
X46139Y-43230D01*
X46139Y-35734D01*
X46160Y-35725D01*
X46237Y-35649D01*
X46278Y-35550D01*
X46278Y-35442D01*
X46237Y-35342D01*
X46173Y-35279D01*
X46237Y-35216D01*
X46278Y-35117D01*
X46278Y-35009D01*
X46237Y-34909D01*
X46173Y-34846D01*
X46237Y-34783D01*
X46278Y-34684D01*
X46278Y-34576D01*
X46237Y-34476D01*
X46161Y-34400D01*
X46139Y-34391D01*
X46139Y-30151D01*
X47978Y-30151D01*
X47978Y-32834D01*
X47988Y-32885D01*
X48011Y-32920D01*
X48011Y-32932D01*
X48024Y-32932D01*
X48059Y-32956D01*
X48110Y-32966D01*
X52866Y-32966D01*
X52852Y-32972D01*
X52759Y-33064D01*
X52709Y-33185D01*
X52709Y-33317D01*
X52759Y-33438D01*
X52777Y-33456D01*
X52671Y-33561D01*
X52671Y-33561D01*
X52496Y-33737D01*
X52291Y-33737D01*
X51130Y-33737D01*
X51129Y-33737D01*
X51086Y-33745D01*
X51050Y-33770D01*
X51050Y-33770D01*
X50184Y-34636D01*
X50159Y-34672D01*
X50151Y-34716D01*
X50151Y-35130D01*
X50144Y-35127D01*
X50097Y-35127D01*
X50097Y-34891D01*
X50071Y-34827D01*
X50022Y-34779D01*
X49959Y-34753D01*
X49891Y-34753D01*
X49827Y-34779D01*
X49779Y-34827D01*
X49753Y-34890D01*
X49753Y-34959D01*
X49779Y-35022D01*
X49827Y-35070D01*
X49890Y-35097D01*
X49959Y-35097D01*
X50022Y-35071D01*
X50070Y-35022D01*
X50097Y-34959D01*
X50097Y-34891D01*
X50097Y-35127D01*
X50084Y-35127D01*
X50028Y-35150D01*
X49985Y-35193D01*
X49962Y-35249D01*
X49962Y-35309D01*
X49985Y-35365D01*
X50027Y-35408D01*
X50083Y-35431D01*
X50144Y-35431D01*
X50151Y-35428D01*
X50151Y-35685D01*
X49980Y-35856D01*
X49709Y-35856D01*
X49665Y-35864D01*
X49629Y-35889D01*
X49404Y-36113D01*
X49404Y-33863D01*
X49378Y-33800D01*
X49329Y-33751D01*
X49266Y-33725D01*
X49198Y-33725D01*
X49134Y-33751D01*
X49086Y-33800D01*
X49060Y-33863D01*
X49060Y-33931D01*
X49086Y-33994D01*
X49134Y-34043D01*
X49197Y-34069D01*
X49266Y-34069D01*
X49329Y-34043D01*
X49378Y-33995D01*
X49404Y-33932D01*
X49404Y-33863D01*
X49404Y-36113D01*
X49274Y-36244D01*
X49249Y-36280D01*
X49241Y-36324D01*
X49241Y-36877D01*
X49229Y-36866D01*
X49181Y-36846D01*
X49181Y-36363D01*
X49152Y-36293D01*
X49112Y-36253D01*
X49152Y-36214D01*
X49181Y-36144D01*
X49181Y-36068D01*
X49152Y-35997D01*
X49098Y-35944D01*
X49028Y-35915D01*
X48952Y-35915D01*
X48882Y-35944D01*
X48828Y-35997D01*
X48799Y-36067D01*
X48799Y-36143D01*
X48828Y-36214D01*
X48867Y-36253D01*
X48828Y-36292D01*
X48799Y-36363D01*
X48799Y-36439D01*
X48828Y-36509D01*
X48882Y-36563D01*
X48952Y-36592D01*
X49028Y-36592D01*
X49098Y-36563D01*
X49152Y-36509D01*
X49181Y-36439D01*
X49181Y-36363D01*
X49181Y-36846D01*
X49166Y-36840D01*
X49097Y-36839D01*
X49034Y-36866D01*
X48986Y-36914D01*
X48960Y-36977D01*
X48959Y-37046D01*
X48986Y-37109D01*
X49034Y-37157D01*
X49097Y-37183D01*
X49166Y-37184D01*
X49229Y-37157D01*
X49241Y-37146D01*
X49241Y-37271D01*
X49208Y-37304D01*
X49192Y-37343D01*
X48973Y-37125D01*
X48937Y-37100D01*
X48894Y-37092D01*
X48463Y-37092D01*
X48463Y-35198D01*
X48437Y-35134D01*
X48390Y-35088D01*
X48429Y-35050D01*
X48455Y-34987D01*
X48455Y-34918D01*
X48429Y-34855D01*
X48381Y-34807D01*
X48317Y-34780D01*
X48249Y-34780D01*
X48186Y-34806D01*
X48149Y-34843D01*
X48125Y-34818D01*
X48061Y-34792D01*
X47993Y-34792D01*
X47930Y-34818D01*
X47881Y-34867D01*
X47855Y-34930D01*
X47855Y-34998D01*
X47881Y-35061D01*
X47898Y-35078D01*
X47862Y-35115D01*
X47835Y-35178D01*
X47835Y-35246D01*
X47861Y-35309D01*
X47910Y-35358D01*
X47973Y-35384D01*
X48041Y-35384D01*
X48105Y-35358D01*
X48142Y-35321D01*
X48145Y-35329D01*
X48193Y-35378D01*
X48256Y-35404D01*
X48325Y-35404D01*
X48388Y-35378D01*
X48437Y-35329D01*
X48463Y-35266D01*
X48463Y-35198D01*
X48463Y-37092D01*
X48323Y-37092D01*
X48315Y-37084D01*
X48315Y-36383D01*
X48286Y-36312D01*
X48256Y-36283D01*
X48286Y-36253D01*
X48315Y-36183D01*
X48315Y-36107D01*
X48286Y-36037D01*
X48232Y-35983D01*
X48162Y-35954D01*
X48086Y-35954D01*
X48016Y-35983D01*
X47962Y-36037D01*
X47933Y-36107D01*
X47933Y-36183D01*
X47962Y-36253D01*
X47991Y-36283D01*
X47962Y-36312D01*
X47933Y-36382D01*
X47933Y-36458D01*
X47962Y-36529D01*
X48015Y-36582D01*
X48086Y-36611D01*
X48162Y-36612D01*
X48232Y-36583D01*
X48286Y-36529D01*
X48315Y-36459D01*
X48315Y-36383D01*
X48315Y-37084D01*
X48290Y-37059D01*
X48227Y-37033D01*
X48158Y-37032D01*
X48095Y-37059D01*
X48047Y-37107D01*
X48021Y-37170D01*
X48020Y-37239D01*
X48039Y-37284D01*
X48019Y-37304D01*
X47993Y-37367D01*
X47992Y-37436D01*
X48019Y-37499D01*
X48067Y-37547D01*
X48130Y-37573D01*
X48199Y-37574D01*
X48262Y-37547D01*
X48295Y-37515D01*
X48840Y-37515D01*
X49200Y-37874D01*
X49236Y-37899D01*
X49280Y-37908D01*
X51098Y-37908D01*
X51141Y-37899D01*
X51177Y-37874D01*
X51264Y-37787D01*
X51264Y-37787D01*
X51264Y-37787D01*
X51289Y-37751D01*
X51289Y-37751D01*
X51296Y-37715D01*
X51298Y-37708D01*
X51297Y-37708D01*
X51298Y-37708D01*
X51298Y-36863D01*
X51475Y-37040D01*
X51476Y-37041D01*
X51476Y-37042D01*
X51494Y-37053D01*
X51511Y-37065D01*
X51513Y-37065D01*
X51514Y-37066D01*
X51534Y-37069D01*
X51555Y-37074D01*
X51556Y-37073D01*
X51557Y-37073D01*
X51600Y-37072D01*
X51626Y-37098D01*
X51582Y-37142D01*
X51556Y-37205D01*
X51555Y-37274D01*
X51582Y-37337D01*
X51615Y-37370D01*
X51575Y-37410D01*
X51549Y-37473D01*
X51548Y-37542D01*
X51575Y-37605D01*
X51623Y-37653D01*
X51686Y-37679D01*
X51755Y-37680D01*
X51818Y-37653D01*
X51851Y-37621D01*
X52131Y-37621D01*
X52256Y-37745D01*
X52292Y-37770D01*
X52336Y-37779D01*
X52376Y-37779D01*
X52371Y-37792D01*
X52370Y-37861D01*
X52378Y-37879D01*
X51847Y-37879D01*
X51814Y-37846D01*
X51751Y-37820D01*
X51682Y-37819D01*
X51619Y-37846D01*
X51571Y-37894D01*
X51545Y-37957D01*
X51544Y-38026D01*
X51571Y-38089D01*
X51619Y-38137D01*
X51682Y-38163D01*
X51751Y-38164D01*
X51814Y-38137D01*
X51847Y-38105D01*
X52353Y-38105D01*
X52344Y-38127D01*
X52343Y-38174D01*
X52245Y-38273D01*
X48365Y-38273D01*
X48365Y-37949D01*
X48338Y-37886D01*
X48290Y-37838D01*
X48227Y-37812D01*
X48158Y-37811D01*
X48095Y-37838D01*
X48047Y-37886D01*
X48021Y-37949D01*
X48020Y-38018D01*
X48047Y-38081D01*
X48095Y-38129D01*
X48158Y-38155D01*
X48227Y-38156D01*
X48290Y-38129D01*
X48338Y-38081D01*
X48364Y-38018D01*
X48365Y-37949D01*
X48365Y-38273D01*
X48351Y-38273D01*
X48318Y-38240D01*
X48255Y-38214D01*
X48186Y-38213D01*
X48123Y-38240D01*
X48075Y-38288D01*
X48049Y-38351D01*
X48048Y-38420D01*
X48069Y-38470D01*
X48047Y-38493D01*
X48021Y-38556D01*
X48020Y-38620D01*
X47981Y-38637D01*
X47933Y-38685D01*
X47907Y-38748D01*
X47906Y-38817D01*
X47933Y-38880D01*
X47981Y-38928D01*
X48044Y-38954D01*
X48113Y-38955D01*
X48176Y-38928D01*
X48209Y-38896D01*
X51941Y-38896D01*
X52214Y-39168D01*
X52213Y-39215D01*
X52240Y-39278D01*
X52288Y-39326D01*
X52351Y-39352D01*
X52420Y-39353D01*
X52483Y-39326D01*
X52531Y-39278D01*
X52557Y-39215D01*
X52558Y-39146D01*
X52531Y-39083D01*
X52483Y-39035D01*
X52420Y-39009D01*
X52373Y-39008D01*
X52292Y-38927D01*
X52331Y-38943D01*
X52400Y-38944D01*
X52463Y-38917D01*
X52511Y-38869D01*
X52537Y-38806D01*
X52538Y-38737D01*
X52511Y-38674D01*
X52463Y-38626D01*
X52400Y-38600D01*
X52353Y-38599D01*
X52264Y-38511D01*
X52246Y-38499D01*
X52292Y-38499D01*
X52335Y-38490D01*
X52371Y-38465D01*
X52503Y-38333D01*
X52550Y-38334D01*
X52613Y-38307D01*
X52661Y-38259D01*
X52687Y-38196D01*
X52688Y-38127D01*
X52678Y-38105D01*
X52851Y-38105D01*
X52950Y-38203D01*
X52950Y-41213D01*
X52637Y-41526D01*
X52637Y-41008D01*
X52610Y-40945D01*
X52562Y-40897D01*
X52499Y-40871D01*
X52447Y-40870D01*
X52448Y-40812D01*
X52421Y-40749D01*
X52377Y-40705D01*
X52384Y-40688D01*
X52385Y-40619D01*
X52358Y-40556D01*
X52343Y-40540D01*
X52345Y-40539D01*
X52393Y-40491D01*
X52419Y-40428D01*
X52420Y-40359D01*
X52393Y-40296D01*
X52345Y-40248D01*
X52282Y-40222D01*
X52235Y-40221D01*
X52201Y-40187D01*
X52266Y-40188D01*
X52329Y-40161D01*
X52377Y-40113D01*
X52403Y-40050D01*
X52404Y-39987D01*
X52436Y-39987D01*
X52499Y-39960D01*
X52547Y-39912D01*
X52573Y-39849D01*
X52574Y-39780D01*
X52547Y-39717D01*
X52499Y-39669D01*
X52436Y-39643D01*
X52367Y-39642D01*
X52363Y-39644D01*
X52186Y-39467D01*
X52149Y-39442D01*
X52106Y-39434D01*
X48305Y-39434D01*
X48281Y-39409D01*
X48221Y-39384D01*
X48156Y-39384D01*
X48097Y-39409D01*
X48051Y-39455D01*
X48026Y-39514D01*
X48026Y-39579D01*
X48051Y-39639D01*
X48068Y-39656D01*
X48055Y-39670D01*
X48029Y-39733D01*
X48028Y-39802D01*
X48051Y-39855D01*
X48039Y-39867D01*
X48013Y-39930D01*
X48012Y-39999D01*
X48039Y-40062D01*
X48087Y-40110D01*
X48150Y-40136D01*
X48219Y-40137D01*
X48282Y-40110D01*
X48315Y-40078D01*
X51772Y-40078D01*
X51941Y-40247D01*
X51914Y-40242D01*
X48311Y-40242D01*
X48278Y-40209D01*
X48215Y-40183D01*
X48146Y-40182D01*
X48083Y-40209D01*
X48035Y-40257D01*
X48009Y-40320D01*
X48008Y-40389D01*
X48035Y-40452D01*
X48083Y-40500D01*
X48146Y-40526D01*
X48215Y-40527D01*
X48278Y-40500D01*
X48311Y-40468D01*
X51867Y-40468D01*
X52041Y-40641D01*
X52040Y-40688D01*
X52067Y-40751D01*
X52111Y-40795D01*
X52104Y-40812D01*
X52103Y-40881D01*
X52130Y-40944D01*
X52178Y-40992D01*
X52241Y-41018D01*
X52293Y-41019D01*
X52292Y-41077D01*
X52319Y-41140D01*
X52367Y-41188D01*
X52430Y-41214D01*
X52499Y-41215D01*
X52562Y-41188D01*
X52610Y-41140D01*
X52636Y-41077D01*
X52637Y-41008D01*
X52637Y-41526D01*
X52593Y-41569D01*
X52569Y-41560D01*
X52500Y-41559D01*
X52437Y-41586D01*
X52389Y-41634D01*
X52363Y-41697D01*
X52362Y-41746D01*
X52141Y-41524D01*
X52141Y-41130D01*
X52132Y-41086D01*
X52107Y-41050D01*
X51899Y-40841D01*
X51923Y-40782D01*
X51924Y-40713D01*
X51897Y-40650D01*
X51849Y-40602D01*
X51786Y-40576D01*
X51717Y-40575D01*
X51654Y-40602D01*
X51606Y-40650D01*
X51601Y-40662D01*
X51502Y-40562D01*
X51502Y-40562D01*
X51501Y-40562D01*
X51483Y-40549D01*
X51465Y-40537D01*
X51465Y-40537D01*
X51465Y-40537D01*
X51443Y-40533D01*
X51422Y-40529D01*
X51422Y-40529D01*
X51422Y-40529D01*
X50898Y-40529D01*
X50897Y-40529D01*
X50854Y-40537D01*
X50818Y-40562D01*
X50818Y-40562D01*
X50745Y-40635D01*
X48303Y-40635D01*
X48270Y-40602D01*
X48207Y-40576D01*
X48138Y-40575D01*
X48075Y-40602D01*
X48027Y-40650D01*
X48001Y-40713D01*
X48000Y-40782D01*
X48027Y-40845D01*
X48048Y-40867D01*
X48029Y-40914D01*
X48028Y-40974D01*
X47977Y-40996D01*
X47929Y-41044D01*
X47903Y-41107D01*
X47902Y-41176D01*
X47929Y-41239D01*
X47977Y-41287D01*
X48040Y-41313D01*
X48109Y-41314D01*
X48172Y-41287D01*
X48205Y-41255D01*
X50626Y-41255D01*
X51525Y-42153D01*
X51525Y-42224D01*
X51518Y-42231D01*
X51511Y-42224D01*
X51511Y-42189D01*
X51510Y-42188D01*
X51511Y-42188D01*
X51502Y-42145D01*
X51477Y-42109D01*
X51477Y-42109D01*
X51020Y-41652D01*
X50984Y-41627D01*
X50941Y-41619D01*
X48327Y-41619D01*
X48294Y-41586D01*
X48231Y-41560D01*
X48162Y-41559D01*
X48099Y-41586D01*
X48051Y-41634D01*
X48025Y-41697D01*
X48024Y-41766D01*
X48051Y-41829D01*
X48055Y-41833D01*
X48051Y-41836D01*
X48026Y-41896D01*
X48026Y-41961D01*
X48049Y-42016D01*
X48031Y-42033D01*
X48006Y-42093D01*
X48006Y-42158D01*
X48031Y-42217D01*
X48077Y-42263D01*
X48136Y-42288D01*
X48201Y-42288D01*
X48261Y-42263D01*
X48286Y-42238D01*
X50634Y-42238D01*
X50806Y-42410D01*
X50806Y-42410D01*
X51117Y-42721D01*
X51117Y-42721D01*
X51153Y-42746D01*
X51196Y-42755D01*
X51196Y-42754D01*
X51197Y-42755D01*
X52004Y-42755D01*
X52047Y-42746D01*
X52083Y-42721D01*
X52197Y-42607D01*
X52197Y-42607D01*
X52197Y-42607D01*
X52222Y-42571D01*
X52231Y-42528D01*
X52231Y-42484D01*
X52237Y-42478D01*
X52237Y-42708D01*
X52245Y-42751D01*
X52270Y-42787D01*
X52287Y-42805D01*
X49695Y-42805D01*
X49662Y-42772D01*
X49635Y-42760D01*
X49680Y-42715D01*
X49706Y-42652D01*
X49707Y-42605D01*
X49760Y-42628D01*
X49821Y-42628D01*
X49877Y-42605D01*
X49901Y-42581D01*
X49925Y-42605D01*
X49981Y-42628D01*
X50041Y-42628D01*
X50097Y-42605D01*
X50140Y-42562D01*
X50163Y-42506D01*
X50163Y-42446D01*
X50140Y-42390D01*
X50098Y-42347D01*
X50042Y-42324D01*
X49981Y-42324D01*
X49925Y-42347D01*
X49901Y-42371D01*
X49877Y-42347D01*
X49821Y-42324D01*
X49761Y-42324D01*
X49705Y-42347D01*
X49662Y-42390D01*
X49639Y-42446D01*
X49639Y-42479D01*
X49632Y-42472D01*
X49569Y-42446D01*
X49500Y-42445D01*
X49437Y-42472D01*
X49389Y-42520D01*
X49363Y-42583D01*
X49363Y-42612D01*
X48284Y-42612D01*
X48251Y-42579D01*
X48188Y-42553D01*
X48119Y-42552D01*
X48056Y-42579D01*
X48008Y-42627D01*
X47982Y-42690D01*
X47981Y-42759D01*
X48008Y-42822D01*
X48056Y-42870D01*
X48119Y-42896D01*
X48188Y-42897D01*
X48251Y-42870D01*
X48284Y-42838D01*
X49411Y-42838D01*
X49393Y-42883D01*
X49392Y-42952D01*
X49419Y-43015D01*
X49467Y-43063D01*
X49530Y-43089D01*
X49599Y-43090D01*
X49662Y-43063D01*
X49695Y-43031D01*
X52595Y-43031D01*
X53088Y-43523D01*
X53088Y-44843D01*
X53096Y-44886D01*
X53121Y-44922D01*
X53819Y-45620D01*
X53819Y-45620D01*
X53855Y-45645D01*
X53899Y-45654D01*
X59624Y-45654D01*
X59667Y-45645D01*
X59704Y-45620D01*
X60548Y-44776D01*
X60559Y-44787D01*
X60610Y-44808D01*
X60548Y-44834D01*
X60499Y-44882D01*
X60473Y-44945D01*
X60473Y-45014D01*
X60499Y-45077D01*
X60548Y-45126D01*
X60611Y-45152D01*
X60679Y-45152D01*
X60742Y-45126D01*
X60791Y-45077D01*
X60817Y-45014D01*
X60817Y-44946D01*
X60791Y-44883D01*
X60743Y-44834D01*
X60692Y-44813D01*
X60754Y-44787D01*
X60803Y-44739D01*
X60829Y-44676D01*
X60829Y-44607D01*
X60803Y-44544D01*
X60755Y-44496D01*
X60691Y-44469D01*
X60623Y-44469D01*
X60560Y-44495D01*
X60527Y-44528D01*
X60523Y-44528D01*
X60523Y-44528D01*
X60480Y-44537D01*
X60443Y-44561D01*
X60443Y-44561D01*
X60136Y-44868D01*
X60136Y-42154D01*
X60110Y-42091D01*
X60062Y-42043D01*
X59998Y-42017D01*
X59930Y-42016D01*
X59867Y-42043D01*
X59818Y-42091D01*
X59792Y-42154D01*
X59792Y-42223D01*
X59818Y-42286D01*
X59867Y-42334D01*
X59930Y-42360D01*
X59998Y-42361D01*
X60061Y-42334D01*
X60110Y-42286D01*
X60136Y-42223D01*
X60136Y-42154D01*
X60136Y-44868D01*
X60022Y-44983D01*
X60022Y-43580D01*
X59996Y-43516D01*
X59947Y-43468D01*
X59884Y-43442D01*
X59816Y-43442D01*
X59753Y-43468D01*
X59704Y-43516D01*
X59678Y-43579D01*
X59678Y-43648D01*
X59704Y-43711D01*
X59752Y-43759D01*
X59816Y-43786D01*
X59884Y-43786D01*
X59947Y-43760D01*
X59996Y-43711D01*
X60022Y-43648D01*
X60022Y-43580D01*
X60022Y-44983D01*
X59577Y-45428D01*
X58916Y-45428D01*
X58916Y-41875D01*
X58889Y-41812D01*
X58841Y-41763D01*
X58778Y-41737D01*
X58710Y-41737D01*
X58646Y-41763D01*
X58627Y-41782D01*
X58597Y-41770D01*
X58597Y-41306D01*
X58572Y-41247D01*
X58527Y-41201D01*
X58467Y-41176D01*
X58402Y-41176D01*
X58343Y-41201D01*
X58336Y-41207D01*
X58330Y-41201D01*
X58270Y-41176D01*
X58205Y-41176D01*
X58146Y-41201D01*
X58100Y-41246D01*
X58075Y-41306D01*
X58075Y-41371D01*
X58100Y-41430D01*
X58145Y-41476D01*
X58205Y-41501D01*
X58270Y-41501D01*
X58329Y-41476D01*
X58336Y-41470D01*
X58342Y-41476D01*
X58402Y-41501D01*
X58467Y-41501D01*
X58526Y-41476D01*
X58572Y-41431D01*
X58597Y-41371D01*
X58597Y-41306D01*
X58597Y-41770D01*
X58572Y-41760D01*
X58504Y-41760D01*
X58441Y-41786D01*
X58392Y-41834D01*
X58366Y-41897D01*
X58366Y-41966D01*
X58392Y-42029D01*
X58440Y-42077D01*
X58504Y-42104D01*
X58572Y-42104D01*
X58635Y-42077D01*
X58654Y-42058D01*
X58709Y-42081D01*
X58778Y-42081D01*
X58841Y-42055D01*
X58889Y-42007D01*
X58916Y-41943D01*
X58916Y-41875D01*
X58916Y-45428D01*
X58431Y-45428D01*
X58431Y-42721D01*
X58408Y-42665D01*
X58365Y-42623D01*
X58309Y-42599D01*
X58249Y-42599D01*
X58193Y-42623D01*
X58150Y-42665D01*
X58127Y-42721D01*
X58127Y-42782D01*
X58150Y-42837D01*
X58193Y-42880D01*
X58249Y-42903D01*
X58309Y-42903D01*
X58365Y-42880D01*
X58408Y-42838D01*
X58431Y-42782D01*
X58431Y-42721D01*
X58431Y-45428D01*
X56974Y-45428D01*
X56974Y-43135D01*
X56945Y-43064D01*
X56891Y-43011D01*
X56821Y-42982D01*
X56745Y-42981D01*
X56674Y-43010D01*
X56621Y-43064D01*
X56592Y-43134D01*
X56591Y-43210D01*
X56620Y-43281D01*
X56674Y-43334D01*
X56744Y-43363D01*
X56820Y-43364D01*
X56891Y-43335D01*
X56944Y-43281D01*
X56973Y-43211D01*
X56974Y-43135D01*
X56974Y-45428D01*
X55150Y-45428D01*
X55167Y-45411D01*
X55167Y-45411D01*
X55167Y-45411D01*
X55193Y-45384D01*
X55208Y-45349D01*
X55208Y-45349D01*
X55208Y-45349D01*
X55222Y-45314D01*
X55222Y-45276D01*
X55223Y-45276D01*
X55223Y-45275D01*
X55223Y-45238D01*
X55223Y-45238D01*
X55223Y-45197D01*
X55222Y-45196D01*
X55223Y-45196D01*
X55220Y-45182D01*
X55208Y-45123D01*
X55208Y-45123D01*
X55167Y-45061D01*
X55167Y-45061D01*
X55156Y-45050D01*
X55156Y-44941D01*
X55883Y-44214D01*
X55924Y-44152D01*
X55938Y-44080D01*
X55939Y-44083D01*
X55993Y-44136D01*
X56063Y-44165D01*
X56139Y-44166D01*
X56210Y-44137D01*
X56240Y-44107D01*
X56269Y-44136D01*
X56339Y-44165D01*
X56415Y-44166D01*
X56486Y-44137D01*
X56539Y-44083D01*
X56568Y-44013D01*
X56569Y-43937D01*
X56540Y-43866D01*
X56486Y-43813D01*
X56432Y-43790D01*
X56432Y-42918D01*
X56405Y-42855D01*
X56357Y-42807D01*
X56294Y-42781D01*
X56225Y-42780D01*
X56162Y-42807D01*
X56114Y-42855D01*
X56088Y-42918D01*
X56087Y-42987D01*
X56114Y-43050D01*
X56162Y-43098D01*
X56225Y-43124D01*
X56294Y-43125D01*
X56357Y-43098D01*
X56405Y-43050D01*
X56431Y-42987D01*
X56432Y-42918D01*
X56432Y-43790D01*
X56416Y-43784D01*
X56340Y-43783D01*
X56269Y-43812D01*
X56239Y-43842D01*
X56210Y-43813D01*
X56140Y-43784D01*
X56064Y-43783D01*
X55993Y-43812D01*
X55940Y-43866D01*
X55939Y-43869D01*
X55939Y-43512D01*
X55938Y-43511D01*
X55939Y-43474D01*
X55924Y-43438D01*
X55924Y-43438D01*
X55924Y-43438D01*
X55910Y-43403D01*
X55883Y-43376D01*
X55883Y-43376D01*
X55883Y-43376D01*
X55856Y-43350D01*
X55821Y-43335D01*
X55821Y-43335D01*
X55821Y-43335D01*
X55786Y-43321D01*
X55748Y-43321D01*
X55747Y-43321D01*
X55710Y-43320D01*
X55674Y-43335D01*
X55674Y-43335D01*
X55674Y-43335D01*
X55639Y-43349D01*
X55612Y-43376D01*
X55612Y-43376D01*
X55612Y-43376D01*
X55586Y-43403D01*
X55571Y-43438D01*
X55571Y-43438D01*
X55571Y-43438D01*
X55557Y-43473D01*
X55557Y-43511D01*
X55557Y-43512D01*
X55557Y-43512D01*
X55556Y-43549D01*
X55557Y-43549D01*
X55557Y-43999D01*
X54829Y-44726D01*
X54788Y-44788D01*
X54774Y-44862D01*
X54774Y-45130D01*
X54788Y-45203D01*
X54829Y-45265D01*
X54840Y-45276D01*
X54840Y-45313D01*
X54855Y-45349D01*
X54855Y-45349D01*
X54855Y-45349D01*
X54869Y-45384D01*
X54896Y-45411D01*
X54896Y-45411D01*
X54896Y-45411D01*
X54913Y-45428D01*
X53945Y-45428D01*
X53314Y-44796D01*
X53314Y-43477D01*
X53305Y-43436D01*
X54969Y-43436D01*
X55012Y-43427D01*
X55048Y-43402D01*
X55212Y-43238D01*
X55259Y-43239D01*
X55322Y-43212D01*
X55338Y-43196D01*
X55355Y-43212D01*
X55418Y-43238D01*
X55487Y-43239D01*
X55550Y-43212D01*
X55598Y-43164D01*
X55624Y-43101D01*
X55625Y-43032D01*
X55598Y-42969D01*
X55550Y-42921D01*
X55487Y-42895D01*
X55440Y-42894D01*
X55379Y-42833D01*
X55532Y-42833D01*
X55535Y-42834D01*
X55578Y-42825D01*
X55614Y-42800D01*
X55768Y-42646D01*
X55768Y-42646D01*
X55768Y-42646D01*
X55793Y-42610D01*
X55802Y-42567D01*
X55801Y-42567D01*
X55802Y-42567D01*
X55802Y-42255D01*
X56131Y-41926D01*
X56130Y-41971D01*
X56157Y-42034D01*
X56205Y-42082D01*
X56268Y-42108D01*
X56337Y-42109D01*
X56400Y-42082D01*
X56448Y-42034D01*
X56474Y-41971D01*
X56475Y-41902D01*
X56448Y-41839D01*
X56400Y-41791D01*
X56337Y-41765D01*
X56292Y-41764D01*
X56359Y-41697D01*
X56368Y-41684D01*
X56379Y-41671D01*
X56490Y-41467D01*
X56511Y-41458D01*
X56513Y-41655D01*
X56515Y-41664D01*
X56514Y-41674D01*
X56521Y-41695D01*
X56525Y-41713D01*
X56530Y-41720D01*
X56533Y-41730D01*
X56547Y-41746D01*
X56558Y-41762D01*
X56566Y-41767D01*
X56573Y-41775D01*
X56807Y-41952D01*
X56806Y-41971D01*
X56785Y-42024D01*
X56784Y-42093D01*
X56811Y-42156D01*
X56859Y-42204D01*
X56922Y-42230D01*
X56991Y-42231D01*
X57054Y-42204D01*
X57075Y-42184D01*
X57107Y-42216D01*
X57155Y-42236D01*
X57155Y-42258D01*
X57178Y-42314D01*
X57220Y-42357D01*
X57276Y-42380D01*
X57337Y-42380D01*
X57393Y-42357D01*
X57435Y-42314D01*
X57459Y-42258D01*
X57459Y-42198D01*
X57436Y-42142D01*
X57393Y-42099D01*
X57376Y-42092D01*
X57376Y-42086D01*
X57430Y-42108D01*
X57499Y-42109D01*
X57562Y-42082D01*
X57610Y-42034D01*
X57636Y-41971D01*
X57637Y-41902D01*
X57610Y-41839D01*
X57608Y-41836D01*
X57608Y-41836D01*
X57605Y-41823D01*
X57605Y-41823D01*
X57572Y-41774D01*
X57572Y-41774D01*
X57404Y-41606D01*
X57405Y-41398D01*
X57416Y-41371D01*
X57416Y-41306D01*
X57391Y-41247D01*
X57346Y-41201D01*
X57286Y-41176D01*
X57221Y-41176D01*
X57162Y-41201D01*
X57155Y-41207D01*
X57149Y-41201D01*
X57089Y-41176D01*
X57024Y-41176D01*
X56965Y-41201D01*
X56958Y-41207D01*
X56952Y-41201D01*
X56892Y-41176D01*
X56827Y-41176D01*
X56768Y-41201D01*
X56761Y-41207D01*
X56755Y-41201D01*
X56695Y-41176D01*
X56630Y-41176D01*
X56576Y-41198D01*
X56599Y-41144D01*
X56599Y-41079D01*
X56574Y-41020D01*
X56568Y-41013D01*
X56574Y-41007D01*
X56599Y-40947D01*
X56599Y-40882D01*
X56574Y-40823D01*
X56568Y-40817D01*
X56574Y-40811D01*
X56599Y-40751D01*
X56599Y-40686D01*
X56574Y-40627D01*
X56568Y-40620D01*
X56574Y-40614D01*
X56599Y-40554D01*
X56599Y-40489D01*
X56574Y-40430D01*
X56568Y-40423D01*
X56574Y-40417D01*
X56599Y-40357D01*
X56599Y-40292D01*
X56574Y-40233D01*
X56568Y-40226D01*
X56574Y-40220D01*
X56599Y-40160D01*
X56599Y-40095D01*
X56574Y-40036D01*
X56568Y-40029D01*
X56574Y-40023D01*
X56599Y-39963D01*
X56599Y-39898D01*
X56574Y-39839D01*
X56568Y-39832D01*
X56574Y-39826D01*
X56599Y-39766D01*
X56599Y-39701D01*
X56574Y-39642D01*
X56568Y-39635D01*
X56574Y-39629D01*
X56599Y-39569D01*
X56599Y-39504D01*
X56574Y-39445D01*
X56568Y-39439D01*
X56574Y-39433D01*
X56599Y-39373D01*
X56599Y-39308D01*
X56574Y-39249D01*
X56568Y-39242D01*
X56574Y-39236D01*
X56599Y-39176D01*
X56599Y-39111D01*
X56574Y-39052D01*
X56568Y-39045D01*
X56574Y-39039D01*
X56599Y-38979D01*
X56599Y-38914D01*
X56574Y-38855D01*
X56568Y-38848D01*
X56574Y-38842D01*
X56580Y-38848D01*
X56640Y-38873D01*
X56705Y-38873D01*
X56764Y-38848D01*
X56766Y-38846D01*
X56777Y-38857D01*
X56837Y-38882D01*
X56902Y-38882D01*
X56961Y-38857D01*
X56968Y-38851D01*
X56974Y-38857D01*
X57034Y-38882D01*
X57099Y-38882D01*
X57158Y-38857D01*
X57204Y-38812D01*
X57225Y-38763D01*
X57405Y-38963D01*
X57408Y-38966D01*
X57410Y-38967D01*
X57421Y-38975D01*
X57441Y-38990D01*
X57444Y-38991D01*
X57446Y-38992D01*
X57461Y-38995D01*
X57483Y-39001D01*
X57487Y-39000D01*
X57490Y-39001D01*
X58765Y-39001D01*
X58765Y-40167D01*
X58766Y-40174D01*
X58765Y-40181D01*
X58770Y-40195D01*
X58773Y-40210D01*
X58777Y-40216D01*
X58780Y-40223D01*
X58789Y-40234D01*
X58798Y-40246D01*
X58804Y-40251D01*
X58809Y-40256D01*
X58902Y-40327D01*
X58902Y-40357D01*
X58927Y-40416D01*
X58933Y-40423D01*
X58927Y-40429D01*
X58902Y-40489D01*
X58902Y-40554D01*
X58927Y-40613D01*
X58933Y-40620D01*
X58927Y-40626D01*
X58902Y-40686D01*
X58902Y-40751D01*
X58927Y-40810D01*
X58933Y-40816D01*
X58927Y-40822D01*
X58902Y-40882D01*
X58902Y-40947D01*
X58927Y-41006D01*
X58938Y-41018D01*
X58937Y-41019D01*
X58912Y-41079D01*
X58912Y-41144D01*
X58937Y-41203D01*
X58938Y-41205D01*
X58927Y-41216D01*
X58902Y-41276D01*
X58902Y-41341D01*
X58927Y-41400D01*
X58972Y-41446D01*
X58998Y-41457D01*
X59194Y-41653D01*
X59174Y-41661D01*
X59126Y-41709D01*
X59100Y-41772D01*
X59099Y-41841D01*
X59126Y-41904D01*
X59163Y-41941D01*
X59135Y-41969D01*
X59109Y-42032D01*
X59108Y-42101D01*
X59135Y-42164D01*
X59183Y-42212D01*
X59246Y-42238D01*
X59315Y-42239D01*
X59378Y-42212D01*
X59426Y-42164D01*
X59452Y-42101D01*
X59453Y-42032D01*
X59426Y-41969D01*
X59389Y-41932D01*
X59417Y-41904D01*
X59425Y-41884D01*
X59479Y-41938D01*
X59479Y-41938D01*
X59528Y-41971D01*
X59528Y-41971D01*
X59575Y-41980D01*
X59586Y-41982D01*
X59586Y-41982D01*
X59586Y-41982D01*
X60145Y-41982D01*
X60493Y-42330D01*
X60493Y-42378D01*
X60473Y-42426D01*
X60473Y-42494D01*
X60499Y-42557D01*
X60548Y-42606D01*
X60611Y-42632D01*
X60679Y-42632D01*
X60742Y-42606D01*
X60791Y-42558D01*
X60817Y-42494D01*
X60817Y-42426D01*
X60797Y-42378D01*
X60797Y-42267D01*
X60786Y-42209D01*
X60753Y-42160D01*
X60316Y-41723D01*
X60266Y-41690D01*
X60208Y-41678D01*
X59649Y-41678D01*
X59213Y-41242D01*
X59202Y-41217D01*
X59201Y-41215D01*
X59212Y-41204D01*
X59237Y-41144D01*
X59237Y-41079D01*
X59212Y-41020D01*
X59201Y-41008D01*
X59202Y-41007D01*
X59227Y-40947D01*
X59227Y-40882D01*
X59206Y-40831D01*
X59303Y-40831D01*
X59331Y-40825D01*
X59344Y-40823D01*
X59345Y-40822D01*
X59346Y-40822D01*
X59369Y-40806D01*
X59381Y-40799D01*
X59382Y-40798D01*
X59383Y-40797D01*
X59383Y-40797D01*
X59442Y-40740D01*
X59467Y-40704D01*
X59477Y-40661D01*
X59476Y-40658D01*
X59476Y-40511D01*
X59483Y-40516D01*
X59501Y-40528D01*
X59502Y-40528D01*
X59503Y-40529D01*
X59523Y-40533D01*
X59537Y-40536D01*
X59571Y-40570D01*
X59629Y-40594D01*
X59627Y-40607D01*
X59627Y-40609D01*
X59594Y-40642D01*
X59568Y-40705D01*
X59567Y-40774D01*
X59594Y-40837D01*
X59642Y-40885D01*
X59705Y-40911D01*
X59774Y-40912D01*
X59778Y-40910D01*
X59778Y-40910D01*
X59805Y-40973D01*
X59853Y-41021D01*
X59916Y-41047D01*
X59974Y-41048D01*
X59932Y-41065D01*
X59884Y-41113D01*
X59858Y-41176D01*
X59857Y-41245D01*
X59884Y-41308D01*
X59904Y-41328D01*
X59893Y-41339D01*
X59867Y-41402D01*
X59866Y-41471D01*
X59893Y-41534D01*
X59941Y-41582D01*
X60004Y-41608D01*
X60073Y-41609D01*
X60136Y-41582D01*
X60184Y-41534D01*
X60210Y-41471D01*
X60211Y-41402D01*
X60184Y-41339D01*
X60164Y-41319D01*
X60175Y-41308D01*
X60201Y-41245D01*
X60202Y-41176D01*
X60175Y-41113D01*
X60127Y-41065D01*
X60064Y-41039D01*
X60006Y-41038D01*
X60048Y-41021D01*
X60096Y-40973D01*
X60122Y-40910D01*
X60123Y-40863D01*
X60591Y-40394D01*
X60616Y-40358D01*
X60625Y-40315D01*
X60623Y-40308D01*
X60621Y-38756D01*
X60621Y-38755D01*
X60616Y-38734D01*
X60612Y-38712D01*
X60612Y-38712D01*
X60612Y-38712D01*
X60600Y-38694D01*
X60587Y-38676D01*
X59917Y-38006D01*
X59947Y-38006D01*
X60018Y-37977D01*
X60071Y-37923D01*
X60100Y-37853D01*
X60101Y-37777D01*
X60072Y-37706D01*
X60018Y-37653D01*
X59948Y-37624D01*
X59872Y-37623D01*
X59801Y-37652D01*
X59748Y-37706D01*
X59719Y-37776D01*
X59719Y-37807D01*
X59355Y-37444D01*
X59319Y-37419D01*
X59276Y-37411D01*
X58330Y-37411D01*
X56666Y-35747D01*
X57944Y-35747D01*
X57965Y-35750D01*
X58009Y-35742D01*
X58045Y-35717D01*
X58283Y-35475D01*
X60094Y-35478D01*
X60093Y-35516D01*
X60120Y-35579D01*
X60131Y-35590D01*
X60100Y-35621D01*
X60074Y-35684D01*
X60073Y-35753D01*
X60100Y-35816D01*
X60148Y-35864D01*
X60211Y-35890D01*
X60280Y-35891D01*
X60343Y-35864D01*
X60376Y-35832D01*
X60413Y-35832D01*
X60413Y-35831D01*
X60414Y-35831D01*
X60435Y-35827D01*
X60456Y-35823D01*
X60457Y-35822D01*
X60458Y-35822D01*
X60475Y-35810D01*
X60492Y-35798D01*
X60493Y-35798D01*
X60494Y-35797D01*
X60666Y-35619D01*
X60666Y-35618D01*
X60667Y-35618D01*
X60668Y-35617D01*
X60675Y-35605D01*
X60691Y-35582D01*
X60691Y-35580D01*
X60692Y-35580D01*
X60694Y-35565D01*
X60700Y-35539D01*
X60700Y-35430D01*
X60691Y-35386D01*
X60666Y-35350D01*
X60508Y-35192D01*
X60472Y-35167D01*
X60429Y-35159D01*
X60418Y-35161D01*
X60348Y-35161D01*
X60349Y-35095D01*
X60322Y-35032D01*
X60274Y-34984D01*
X60211Y-34958D01*
X60142Y-34957D01*
X60079Y-34984D01*
X60031Y-35032D01*
X60005Y-35095D01*
X60004Y-35161D01*
X58136Y-35161D01*
X58135Y-35160D01*
X58134Y-35161D01*
X58134Y-35161D01*
X58123Y-35163D01*
X58092Y-35168D01*
X58091Y-35169D01*
X58090Y-35169D01*
X58083Y-35174D01*
X58055Y-35192D01*
X57806Y-35434D01*
X52727Y-35434D01*
X52162Y-34869D01*
X52126Y-34844D01*
X52083Y-34836D01*
X51342Y-34836D01*
X51404Y-34774D01*
X52921Y-34774D01*
X52899Y-34827D01*
X52898Y-34896D01*
X52910Y-34923D01*
X52871Y-34922D01*
X52808Y-34949D01*
X52760Y-34997D01*
X52734Y-35060D01*
X52733Y-35129D01*
X52760Y-35192D01*
X52808Y-35240D01*
X52871Y-35266D01*
X52940Y-35267D01*
X53003Y-35240D01*
X53051Y-35192D01*
X53077Y-35129D01*
X53078Y-35060D01*
X53066Y-35033D01*
X53105Y-35034D01*
X53168Y-35007D01*
X53216Y-34959D01*
X53242Y-34896D01*
X53243Y-34827D01*
X53220Y-34774D01*
X53748Y-34774D01*
X53734Y-34808D01*
X53733Y-34877D01*
X53760Y-34940D01*
X53808Y-34988D01*
X53871Y-35014D01*
X53940Y-35015D01*
X54003Y-34988D01*
X54051Y-34940D01*
X54077Y-34877D01*
X54078Y-34808D01*
X54063Y-34774D01*
X55953Y-34774D01*
X55996Y-34765D01*
X56033Y-34740D01*
X56831Y-33942D01*
X56831Y-33942D01*
X56831Y-33942D01*
X57119Y-33654D01*
X57119Y-33654D01*
X57119Y-33654D01*
X57143Y-33618D01*
X57143Y-33618D01*
X57150Y-33582D01*
X57152Y-33574D01*
X57152Y-33574D01*
X57152Y-33574D01*
X57152Y-33561D01*
X57225Y-33531D01*
X57318Y-33438D01*
X57368Y-33317D01*
X57369Y-33186D01*
X57318Y-33065D01*
X57280Y-33026D01*
X57344Y-33026D01*
X57444Y-32985D01*
X57496Y-32932D01*
X57519Y-32932D01*
X57571Y-32985D01*
X57670Y-33026D01*
X57778Y-33026D01*
X57878Y-32985D01*
X57896Y-32966D01*
X64773Y-32966D01*
X64773Y-39332D01*
X64752Y-39341D01*
X64676Y-39417D01*
X64635Y-39516D01*
X64634Y-39624D01*
X64676Y-39724D01*
X64739Y-39787D01*
X64676Y-39850D01*
X64635Y-39949D01*
X64634Y-40057D01*
X64676Y-40157D01*
X64739Y-40220D01*
X64676Y-40283D01*
X64635Y-40382D01*
X64634Y-40490D01*
X64676Y-40590D01*
X64739Y-40653D01*
X64676Y-40716D01*
X64635Y-40815D01*
X64634Y-40923D01*
X64676Y-41023D01*
X64752Y-41099D01*
X64773Y-41108D01*
X64773Y-49596D01*
X64773Y-49596D01*
G37*
G54D27*
X64773Y-49596D02*
X64270Y-49596D01*
X64270Y-47941D01*
X64270Y-47344D01*
X64255Y-47310D01*
X64229Y-47284D01*
X64195Y-47269D01*
X64158Y-47269D01*
X63561Y-47269D01*
X63526Y-47284D01*
X63500Y-47310D01*
X63486Y-47344D01*
X63486Y-47381D01*
X63486Y-47978D01*
X63500Y-48013D01*
X63526Y-48039D01*
X63560Y-48053D01*
X63598Y-48053D01*
X64195Y-48053D01*
X64229Y-48039D01*
X64255Y-48013D01*
X64270Y-47979D01*
X64270Y-47941D01*
X64270Y-49596D01*
X63964Y-49596D01*
X64087Y-49544D01*
X64198Y-49434D01*
X64257Y-49290D01*
X64258Y-49134D01*
X64198Y-48990D01*
X64088Y-48880D01*
X63944Y-48820D01*
X63788Y-48820D01*
X63644Y-48879D01*
X63533Y-48990D01*
X63474Y-49134D01*
X63473Y-49290D01*
X63533Y-49434D01*
X63643Y-49544D01*
X63767Y-49596D01*
X63270Y-49596D01*
X63270Y-47564D01*
X63210Y-47420D01*
X63100Y-47309D01*
X62956Y-47249D01*
X62800Y-47249D01*
X62656Y-47309D01*
X62545Y-47419D01*
X62486Y-47563D01*
X62486Y-47719D01*
X62545Y-47863D01*
X62655Y-47973D01*
X62799Y-48033D01*
X62955Y-48033D01*
X63099Y-47974D01*
X63210Y-47864D01*
X63270Y-47720D01*
X63270Y-47564D01*
X63270Y-49596D01*
X62964Y-49596D01*
X63087Y-49544D01*
X63198Y-49434D01*
X63257Y-49290D01*
X63258Y-49134D01*
X63198Y-48990D01*
X63088Y-48880D01*
X62944Y-48820D01*
X62788Y-48820D01*
X62644Y-48879D01*
X62533Y-48990D01*
X62474Y-49134D01*
X62473Y-49290D01*
X62533Y-49434D01*
X62643Y-49544D01*
X62767Y-49596D01*
X62230Y-49596D01*
X62230Y-39765D01*
X62201Y-39694D01*
X62156Y-39649D01*
X62197Y-39608D01*
X62226Y-39538D01*
X62227Y-39462D01*
X62198Y-39391D01*
X62144Y-39338D01*
X62074Y-39309D01*
X61998Y-39308D01*
X61927Y-39337D01*
X61874Y-39391D01*
X61845Y-39461D01*
X61844Y-39537D01*
X61873Y-39608D01*
X61918Y-39653D01*
X61877Y-39694D01*
X61848Y-39764D01*
X61847Y-39840D01*
X61876Y-39911D01*
X61930Y-39964D01*
X62000Y-39993D01*
X62076Y-39994D01*
X62147Y-39965D01*
X62200Y-39911D01*
X62229Y-39841D01*
X62230Y-39765D01*
X62230Y-49596D01*
X62012Y-49596D01*
X62012Y-41980D01*
X61983Y-41909D01*
X61929Y-41856D01*
X61919Y-41851D01*
X61919Y-40608D01*
X61890Y-40537D01*
X61836Y-40484D01*
X61785Y-40462D01*
X61785Y-38045D01*
X61756Y-37974D01*
X61702Y-37921D01*
X61632Y-37892D01*
X61556Y-37891D01*
X61485Y-37920D01*
X61432Y-37974D01*
X61403Y-38044D01*
X61402Y-38120D01*
X61431Y-38191D01*
X61485Y-38244D01*
X61555Y-38273D01*
X61631Y-38274D01*
X61702Y-38245D01*
X61755Y-38191D01*
X61784Y-38121D01*
X61785Y-38045D01*
X61785Y-40462D01*
X61766Y-40455D01*
X61690Y-40454D01*
X61619Y-40483D01*
X61566Y-40537D01*
X61537Y-40607D01*
X61536Y-40683D01*
X61565Y-40754D01*
X61619Y-40807D01*
X61689Y-40836D01*
X61765Y-40837D01*
X61836Y-40808D01*
X61889Y-40754D01*
X61918Y-40684D01*
X61919Y-40608D01*
X61919Y-41851D01*
X61859Y-41827D01*
X61783Y-41826D01*
X61712Y-41855D01*
X61659Y-41909D01*
X61630Y-41979D01*
X61629Y-42055D01*
X61658Y-42126D01*
X61712Y-42179D01*
X61782Y-42208D01*
X61858Y-42209D01*
X61929Y-42180D01*
X61982Y-42126D01*
X62011Y-42056D01*
X62012Y-41980D01*
X62012Y-49596D01*
X61270Y-49596D01*
X61270Y-47564D01*
X61210Y-47420D01*
X61100Y-47309D01*
X60956Y-47249D01*
X60836Y-47249D01*
X60836Y-40556D01*
X60816Y-40508D01*
X60779Y-40470D01*
X60731Y-40450D01*
X60678Y-40450D01*
X60630Y-40470D01*
X60592Y-40507D01*
X60572Y-40556D01*
X60572Y-40608D01*
X60592Y-40657D01*
X60629Y-40694D01*
X60678Y-40714D01*
X60730Y-40714D01*
X60779Y-40694D01*
X60816Y-40657D01*
X60836Y-40609D01*
X60836Y-40556D01*
X60836Y-47249D01*
X60800Y-47249D01*
X60656Y-47309D01*
X60545Y-47419D01*
X60486Y-47563D01*
X60486Y-47719D01*
X60545Y-47863D01*
X60655Y-47973D01*
X60799Y-48033D01*
X60955Y-48033D01*
X61099Y-47974D01*
X61210Y-47864D01*
X61270Y-47720D01*
X61270Y-47564D01*
X61270Y-49596D01*
X60964Y-49596D01*
X61087Y-49544D01*
X61198Y-49434D01*
X61257Y-49290D01*
X61258Y-49134D01*
X61198Y-48990D01*
X61088Y-48880D01*
X60944Y-48820D01*
X60788Y-48820D01*
X60644Y-48879D01*
X60533Y-48990D01*
X60474Y-49134D01*
X60473Y-49290D01*
X60533Y-49434D01*
X60643Y-49544D01*
X60767Y-49596D01*
X60270Y-49596D01*
X60270Y-47564D01*
X60210Y-47420D01*
X60100Y-47309D01*
X59956Y-47249D01*
X59800Y-47249D01*
X59656Y-47309D01*
X59545Y-47419D01*
X59486Y-47563D01*
X59486Y-47719D01*
X59545Y-47863D01*
X59655Y-47973D01*
X59799Y-48033D01*
X59955Y-48033D01*
X60099Y-47974D01*
X60210Y-47864D01*
X60270Y-47720D01*
X60270Y-47564D01*
X60270Y-49596D01*
X60258Y-49596D01*
X60258Y-49472D01*
X60258Y-48875D01*
X60243Y-48841D01*
X60217Y-48814D01*
X60183Y-48800D01*
X60145Y-48800D01*
X59548Y-48800D01*
X59514Y-48814D01*
X59488Y-48840D01*
X59474Y-48875D01*
X59474Y-48912D01*
X59474Y-49509D01*
X59488Y-49543D01*
X59514Y-49570D01*
X59548Y-49584D01*
X59586Y-49584D01*
X60183Y-49584D01*
X60217Y-49570D01*
X60243Y-49544D01*
X60257Y-49509D01*
X60258Y-49472D01*
X60258Y-49596D01*
X57936Y-49596D01*
X57879Y-49538D01*
X57780Y-49497D01*
X57672Y-49497D01*
X57572Y-49538D01*
X57508Y-49602D01*
X57445Y-49538D01*
X57346Y-49497D01*
X57238Y-49497D01*
X57138Y-49538D01*
X57075Y-49601D01*
X57012Y-49538D01*
X56913Y-49497D01*
X56805Y-49497D01*
X56705Y-49538D01*
X56642Y-49601D01*
X56579Y-49538D01*
X56480Y-49497D01*
X56411Y-49497D01*
X56411Y-47638D01*
X56411Y-47205D01*
X56382Y-47135D01*
X56328Y-47081D01*
X56258Y-47052D01*
X56182Y-47052D01*
X56112Y-47081D01*
X56058Y-47134D01*
X56029Y-47204D01*
X56029Y-47280D01*
X56058Y-47351D01*
X56112Y-47404D01*
X56182Y-47434D01*
X56258Y-47434D01*
X56328Y-47405D01*
X56382Y-47351D01*
X56411Y-47281D01*
X56411Y-47205D01*
X56411Y-47638D01*
X56382Y-47568D01*
X56328Y-47514D01*
X56258Y-47485D01*
X56182Y-47485D01*
X56112Y-47514D01*
X56058Y-47567D01*
X56029Y-47638D01*
X56029Y-47713D01*
X56058Y-47784D01*
X56112Y-47837D01*
X56182Y-47867D01*
X56258Y-47867D01*
X56328Y-47838D01*
X56382Y-47784D01*
X56411Y-47714D01*
X56411Y-47638D01*
X56411Y-49497D01*
X56372Y-49497D01*
X56272Y-49538D01*
X56215Y-49596D01*
X55978Y-49596D01*
X55978Y-48071D01*
X55978Y-47638D01*
X55978Y-47204D01*
X55949Y-47134D01*
X55895Y-47080D01*
X55825Y-47051D01*
X55749Y-47051D01*
X55679Y-47080D01*
X55625Y-47133D01*
X55596Y-47203D01*
X55596Y-47279D01*
X55625Y-47350D01*
X55679Y-47403D01*
X55749Y-47433D01*
X55825Y-47433D01*
X55895Y-47404D01*
X55949Y-47350D01*
X55978Y-47280D01*
X55978Y-47204D01*
X55978Y-47638D01*
X55949Y-47568D01*
X55895Y-47514D01*
X55825Y-47485D01*
X55749Y-47485D01*
X55679Y-47514D01*
X55625Y-47567D01*
X55596Y-47638D01*
X55596Y-47713D01*
X55625Y-47784D01*
X55679Y-47837D01*
X55749Y-47867D01*
X55825Y-47867D01*
X55895Y-47838D01*
X55949Y-47784D01*
X55978Y-47714D01*
X55978Y-47638D01*
X55978Y-48071D01*
X55949Y-48001D01*
X55895Y-47947D01*
X55825Y-47918D01*
X55749Y-47918D01*
X55679Y-47947D01*
X55625Y-48000D01*
X55596Y-48071D01*
X55596Y-48147D01*
X55625Y-48217D01*
X55679Y-48271D01*
X55749Y-48300D01*
X55825Y-48300D01*
X55895Y-48271D01*
X55949Y-48217D01*
X55978Y-48147D01*
X55978Y-48071D01*
X55978Y-49596D01*
X54428Y-49596D01*
X54428Y-49586D01*
X54428Y-46830D01*
X51738Y-46830D01*
X51738Y-43682D01*
X51712Y-43619D01*
X51664Y-43570D01*
X51601Y-43544D01*
X51532Y-43544D01*
X51469Y-43570D01*
X51421Y-43618D01*
X51394Y-43682D01*
X51394Y-43734D01*
X51388Y-43728D01*
X51325Y-43702D01*
X51257Y-43701D01*
X51194Y-43728D01*
X51145Y-43776D01*
X51119Y-43839D01*
X51119Y-43908D01*
X51145Y-43971D01*
X51193Y-44019D01*
X51256Y-44045D01*
X51325Y-44046D01*
X51386Y-44020D01*
X51375Y-44048D01*
X51375Y-44116D01*
X51325Y-44095D01*
X51257Y-44095D01*
X51194Y-44121D01*
X51145Y-44170D01*
X51119Y-44233D01*
X51119Y-44301D01*
X51145Y-44365D01*
X51193Y-44413D01*
X51234Y-44430D01*
X51166Y-44430D01*
X51103Y-44456D01*
X51055Y-44504D01*
X51028Y-44567D01*
X51028Y-44636D01*
X51054Y-44699D01*
X51103Y-44748D01*
X51142Y-44764D01*
X51107Y-44779D01*
X51058Y-44827D01*
X51032Y-44890D01*
X51032Y-44959D01*
X51058Y-45022D01*
X51107Y-45070D01*
X51170Y-45097D01*
X51238Y-45097D01*
X51302Y-45071D01*
X51350Y-45022D01*
X51376Y-44959D01*
X51376Y-44891D01*
X51350Y-44827D01*
X51302Y-44779D01*
X51262Y-44762D01*
X51298Y-44748D01*
X51346Y-44699D01*
X51372Y-44636D01*
X51372Y-44568D01*
X51346Y-44505D01*
X51298Y-44456D01*
X51257Y-44439D01*
X51325Y-44439D01*
X51375Y-44419D01*
X51375Y-44447D01*
X51401Y-44510D01*
X51449Y-44559D01*
X51481Y-44572D01*
X51438Y-44590D01*
X51389Y-44638D01*
X51363Y-44701D01*
X51363Y-44770D01*
X51389Y-44833D01*
X51437Y-44881D01*
X51485Y-44901D01*
X51438Y-44921D01*
X51389Y-44969D01*
X51363Y-45032D01*
X51363Y-45100D01*
X51389Y-45164D01*
X51437Y-45212D01*
X51501Y-45238D01*
X51569Y-45238D01*
X51632Y-45212D01*
X51681Y-45164D01*
X51707Y-45101D01*
X51707Y-45032D01*
X51681Y-44969D01*
X51632Y-44921D01*
X51585Y-44901D01*
X51632Y-44882D01*
X51681Y-44833D01*
X51707Y-44770D01*
X51707Y-44702D01*
X51681Y-44638D01*
X51632Y-44590D01*
X51601Y-44577D01*
X51644Y-44559D01*
X51692Y-44510D01*
X51719Y-44447D01*
X51719Y-44379D01*
X51693Y-44316D01*
X51644Y-44267D01*
X51597Y-44248D01*
X51644Y-44228D01*
X51692Y-44180D01*
X51719Y-44117D01*
X51719Y-44048D01*
X51693Y-43985D01*
X51644Y-43936D01*
X51581Y-43910D01*
X51513Y-43910D01*
X51451Y-43935D01*
X51463Y-43908D01*
X51463Y-43856D01*
X51469Y-43862D01*
X51532Y-43888D01*
X51600Y-43888D01*
X51664Y-43862D01*
X51712Y-43814D01*
X51738Y-43750D01*
X51738Y-43682D01*
X51738Y-46830D01*
X51004Y-46830D01*
X51004Y-49586D01*
X54428Y-49586D01*
X54428Y-49596D01*
X48754Y-49596D01*
X48754Y-45871D01*
X48754Y-45477D01*
X48728Y-45414D01*
X48680Y-45366D01*
X48617Y-45339D01*
X48548Y-45339D01*
X48485Y-45365D01*
X48436Y-45414D01*
X48410Y-45477D01*
X48410Y-45545D01*
X48436Y-45609D01*
X48485Y-45657D01*
X48548Y-45683D01*
X48616Y-45683D01*
X48679Y-45657D01*
X48728Y-45609D01*
X48754Y-45546D01*
X48754Y-45477D01*
X48754Y-45871D01*
X48728Y-45808D01*
X48680Y-45759D01*
X48617Y-45733D01*
X48548Y-45733D01*
X48485Y-45759D01*
X48436Y-45807D01*
X48410Y-45871D01*
X48410Y-45939D01*
X48436Y-46002D01*
X48485Y-46051D01*
X48548Y-46077D01*
X48616Y-46077D01*
X48679Y-46051D01*
X48728Y-46003D01*
X48754Y-45939D01*
X48754Y-45871D01*
X48754Y-49596D01*
X48518Y-49596D01*
X48518Y-46737D01*
X48518Y-46383D01*
X48492Y-46320D01*
X48444Y-46271D01*
X48380Y-46245D01*
X48312Y-46245D01*
X48282Y-46257D01*
X48282Y-45832D01*
X48282Y-45438D01*
X48256Y-45375D01*
X48207Y-45326D01*
X48144Y-45300D01*
X48076Y-45300D01*
X48012Y-45326D01*
X47964Y-45374D01*
X47938Y-45438D01*
X47938Y-45506D01*
X47964Y-45569D01*
X48012Y-45618D01*
X48075Y-45644D01*
X48144Y-45644D01*
X48207Y-45618D01*
X48255Y-45569D01*
X48282Y-45506D01*
X48282Y-45438D01*
X48282Y-45832D01*
X48256Y-45768D01*
X48207Y-45720D01*
X48144Y-45694D01*
X48076Y-45694D01*
X48012Y-45720D01*
X47964Y-45768D01*
X47938Y-45831D01*
X47938Y-45900D01*
X47964Y-45963D01*
X48012Y-46011D01*
X48075Y-46038D01*
X48144Y-46038D01*
X48207Y-46012D01*
X48255Y-45963D01*
X48282Y-45900D01*
X48282Y-45832D01*
X48282Y-46257D01*
X48249Y-46271D01*
X48200Y-46319D01*
X48174Y-46382D01*
X48174Y-46451D01*
X48200Y-46514D01*
X48248Y-46563D01*
X48312Y-46589D01*
X48380Y-46589D01*
X48443Y-46563D01*
X48492Y-46514D01*
X48518Y-46451D01*
X48518Y-46383D01*
X48518Y-46737D01*
X48492Y-46674D01*
X48444Y-46625D01*
X48380Y-46599D01*
X48312Y-46599D01*
X48249Y-46625D01*
X48200Y-46674D01*
X48174Y-46737D01*
X48174Y-46805D01*
X48200Y-46868D01*
X48248Y-46917D01*
X48312Y-46943D01*
X48380Y-46943D01*
X48443Y-46917D01*
X48492Y-46869D01*
X48518Y-46806D01*
X48518Y-46737D01*
X48518Y-49596D01*
X47534Y-49596D01*
X47534Y-47288D01*
X47534Y-46855D01*
X47534Y-46462D01*
X47534Y-46107D01*
X47508Y-46044D01*
X47459Y-45996D01*
X47396Y-45969D01*
X47380Y-45969D01*
X47380Y-36521D01*
X47354Y-36457D01*
X47306Y-36409D01*
X47243Y-36383D01*
X47174Y-36383D01*
X47111Y-36409D01*
X47062Y-36457D01*
X47036Y-36520D01*
X47036Y-36589D01*
X47062Y-36652D01*
X47111Y-36700D01*
X47125Y-36707D01*
X47103Y-36716D01*
X47055Y-36764D01*
X47028Y-36827D01*
X47028Y-36896D01*
X47054Y-36959D01*
X47103Y-37007D01*
X47166Y-37034D01*
X47234Y-37034D01*
X47298Y-37008D01*
X47346Y-36959D01*
X47372Y-36896D01*
X47372Y-36828D01*
X47346Y-36764D01*
X47298Y-36716D01*
X47283Y-36710D01*
X47305Y-36701D01*
X47354Y-36652D01*
X47380Y-36589D01*
X47380Y-36521D01*
X47380Y-45969D01*
X47328Y-45969D01*
X47264Y-45995D01*
X47216Y-46044D01*
X47190Y-46107D01*
X47190Y-46175D01*
X47216Y-46239D01*
X47264Y-46287D01*
X47327Y-46313D01*
X47396Y-46313D01*
X47459Y-46287D01*
X47507Y-46239D01*
X47534Y-46176D01*
X47534Y-46107D01*
X47534Y-46462D01*
X47508Y-46398D01*
X47459Y-46350D01*
X47396Y-46324D01*
X47328Y-46324D01*
X47264Y-46350D01*
X47216Y-46398D01*
X47190Y-46461D01*
X47190Y-46530D01*
X47216Y-46593D01*
X47264Y-46641D01*
X47327Y-46668D01*
X47396Y-46668D01*
X47459Y-46641D01*
X47507Y-46593D01*
X47534Y-46530D01*
X47534Y-46462D01*
X47534Y-46855D01*
X47508Y-46792D01*
X47459Y-46744D01*
X47396Y-46717D01*
X47328Y-46717D01*
X47264Y-46743D01*
X47216Y-46792D01*
X47190Y-46855D01*
X47190Y-46923D01*
X47216Y-46987D01*
X47264Y-47035D01*
X47327Y-47061D01*
X47396Y-47061D01*
X47459Y-47035D01*
X47507Y-46987D01*
X47534Y-46924D01*
X47534Y-46855D01*
X47534Y-47288D01*
X47508Y-47225D01*
X47459Y-47177D01*
X47396Y-47150D01*
X47328Y-47150D01*
X47264Y-47176D01*
X47216Y-47225D01*
X47190Y-47288D01*
X47190Y-47356D01*
X47216Y-47420D01*
X47264Y-47468D01*
X47327Y-47494D01*
X47396Y-47494D01*
X47459Y-47468D01*
X47507Y-47420D01*
X47534Y-47357D01*
X47534Y-47288D01*
X47534Y-49596D01*
X47164Y-49596D01*
X47164Y-45743D01*
X47104Y-45599D01*
X46994Y-45489D01*
X46850Y-45429D01*
X46711Y-45429D01*
X46711Y-37359D01*
X46685Y-37296D01*
X46636Y-37247D01*
X46573Y-37221D01*
X46505Y-37221D01*
X46442Y-37247D01*
X46393Y-37296D01*
X46367Y-37359D01*
X46367Y-37427D01*
X46393Y-37491D01*
X46441Y-37539D01*
X46505Y-37565D01*
X46573Y-37565D01*
X46636Y-37539D01*
X46685Y-37491D01*
X46711Y-37428D01*
X46711Y-37359D01*
X46711Y-45429D01*
X46694Y-45429D01*
X46550Y-45488D01*
X46439Y-45598D01*
X46380Y-45743D01*
X46380Y-45898D01*
X46439Y-46043D01*
X46549Y-46153D01*
X46693Y-46213D01*
X46849Y-46213D01*
X46993Y-46153D01*
X47104Y-46043D01*
X47164Y-45899D01*
X47164Y-45743D01*
X47164Y-49596D01*
X47061Y-49596D01*
X47061Y-47288D01*
X47061Y-46855D01*
X47061Y-46462D01*
X47035Y-46398D01*
X46987Y-46350D01*
X46924Y-46324D01*
X46855Y-46324D01*
X46792Y-46350D01*
X46744Y-46398D01*
X46717Y-46461D01*
X46717Y-46530D01*
X46743Y-46593D01*
X46792Y-46641D01*
X46855Y-46668D01*
X46923Y-46668D01*
X46987Y-46641D01*
X47035Y-46593D01*
X47061Y-46530D01*
X47061Y-46462D01*
X47061Y-46855D01*
X47035Y-46792D01*
X46987Y-46744D01*
X46924Y-46717D01*
X46855Y-46717D01*
X46792Y-46743D01*
X46744Y-46792D01*
X46717Y-46855D01*
X46717Y-46923D01*
X46743Y-46987D01*
X46792Y-47035D01*
X46855Y-47061D01*
X46923Y-47061D01*
X46987Y-47035D01*
X47035Y-46987D01*
X47061Y-46924D01*
X47061Y-46855D01*
X47061Y-47288D01*
X47035Y-47225D01*
X46987Y-47177D01*
X46924Y-47150D01*
X46855Y-47150D01*
X46792Y-47176D01*
X46744Y-47225D01*
X46717Y-47288D01*
X46717Y-47356D01*
X46743Y-47420D01*
X46792Y-47468D01*
X46855Y-47494D01*
X46923Y-47494D01*
X46987Y-47468D01*
X47035Y-47420D01*
X47061Y-47357D01*
X47061Y-47288D01*
X47061Y-49596D01*
X46589Y-49596D01*
X46589Y-47288D01*
X46589Y-46855D01*
X46589Y-46462D01*
X46563Y-46398D01*
X46514Y-46350D01*
X46451Y-46324D01*
X46383Y-46324D01*
X46320Y-46350D01*
X46271Y-46398D01*
X46245Y-46461D01*
X46245Y-46530D01*
X46271Y-46593D01*
X46319Y-46641D01*
X46382Y-46668D01*
X46451Y-46668D01*
X46514Y-46641D01*
X46563Y-46593D01*
X46589Y-46530D01*
X46589Y-46462D01*
X46589Y-46855D01*
X46563Y-46792D01*
X46514Y-46744D01*
X46451Y-46717D01*
X46383Y-46717D01*
X46320Y-46743D01*
X46271Y-46792D01*
X46245Y-46855D01*
X46245Y-46923D01*
X46271Y-46987D01*
X46319Y-47035D01*
X46382Y-47061D01*
X46451Y-47061D01*
X46514Y-47035D01*
X46563Y-46987D01*
X46589Y-46924D01*
X46589Y-46855D01*
X46589Y-47288D01*
X46563Y-47225D01*
X46514Y-47177D01*
X46451Y-47150D01*
X46383Y-47150D01*
X46320Y-47176D01*
X46271Y-47225D01*
X46245Y-47288D01*
X46245Y-47356D01*
X46271Y-47420D01*
X46319Y-47468D01*
X46382Y-47494D01*
X46451Y-47494D01*
X46514Y-47468D01*
X46563Y-47420D01*
X46589Y-47357D01*
X46589Y-47288D01*
X46589Y-49596D01*
X46139Y-49596D01*
X46139Y-44573D01*
X46160Y-44564D01*
X46237Y-44488D01*
X46278Y-44389D01*
X46278Y-44281D01*
X46237Y-44181D01*
X46173Y-44118D01*
X46237Y-44055D01*
X46278Y-43956D01*
X46278Y-43848D01*
X46237Y-43748D01*
X46173Y-43685D01*
X46237Y-43622D01*
X46278Y-43523D01*
X46278Y-43415D01*
X46237Y-43315D01*
X46161Y-43239D01*
X46139Y-43230D01*
X46139Y-35734D01*
X46160Y-35725D01*
X46237Y-35649D01*
X46278Y-35550D01*
X46278Y-35442D01*
X46237Y-35342D01*
X46173Y-35279D01*
X46237Y-35216D01*
X46278Y-35117D01*
X46278Y-35009D01*
X46237Y-34909D01*
X46173Y-34846D01*
X46237Y-34783D01*
X46278Y-34684D01*
X46278Y-34576D01*
X46237Y-34476D01*
X46161Y-34400D01*
X46139Y-34391D01*
X46139Y-30151D01*
X47978Y-30151D01*
X47978Y-32834D01*
X47988Y-32885D01*
X48011Y-32920D01*
X48011Y-32932D01*
X48024Y-32932D01*
X48059Y-32956D01*
X48110Y-32966D01*
X52866Y-32966D01*
X52852Y-32972D01*
X52759Y-33064D01*
X52709Y-33185D01*
X52709Y-33317D01*
X52759Y-33438D01*
X52777Y-33456D01*
X52671Y-33561D01*
X52671Y-33561D01*
X52496Y-33737D01*
X52291Y-33737D01*
X51130Y-33737D01*
X51129Y-33737D01*
X51086Y-33745D01*
X51050Y-33770D01*
X51050Y-33770D01*
X50184Y-34636D01*
X50159Y-34672D01*
X50151Y-34716D01*
X50151Y-35130D01*
X50144Y-35127D01*
X50097Y-35127D01*
X50097Y-34891D01*
X50071Y-34827D01*
X50022Y-34779D01*
X49959Y-34753D01*
X49891Y-34753D01*
X49827Y-34779D01*
X49779Y-34827D01*
X49753Y-34890D01*
X49753Y-34959D01*
X49779Y-35022D01*
X49827Y-35070D01*
X49890Y-35097D01*
X49959Y-35097D01*
X50022Y-35071D01*
X50070Y-35022D01*
X50097Y-34959D01*
X50097Y-34891D01*
X50097Y-35127D01*
X50084Y-35127D01*
X50028Y-35150D01*
X49985Y-35193D01*
X49962Y-35249D01*
X49962Y-35309D01*
X49985Y-35365D01*
X50027Y-35408D01*
X50083Y-35431D01*
X50144Y-35431D01*
X50151Y-35428D01*
X50151Y-35685D01*
X49980Y-35856D01*
X49709Y-35856D01*
X49665Y-35864D01*
X49629Y-35889D01*
X49404Y-36113D01*
X49404Y-33863D01*
X49378Y-33800D01*
X49329Y-33751D01*
X49266Y-33725D01*
X49198Y-33725D01*
X49134Y-33751D01*
X49086Y-33800D01*
X49060Y-33863D01*
X49060Y-33931D01*
X49086Y-33994D01*
X49134Y-34043D01*
X49197Y-34069D01*
X49266Y-34069D01*
X49329Y-34043D01*
X49378Y-33995D01*
X49404Y-33932D01*
X49404Y-33863D01*
X49404Y-36113D01*
X49274Y-36244D01*
X49249Y-36280D01*
X49241Y-36324D01*
X49241Y-36877D01*
X49229Y-36866D01*
X49181Y-36846D01*
X49181Y-36363D01*
X49152Y-36293D01*
X49112Y-36253D01*
X49152Y-36214D01*
X49181Y-36144D01*
X49181Y-36068D01*
X49152Y-35997D01*
X49098Y-35944D01*
X49028Y-35915D01*
X48952Y-35915D01*
X48882Y-35944D01*
X48828Y-35997D01*
X48799Y-36067D01*
X48799Y-36143D01*
X48828Y-36214D01*
X48867Y-36253D01*
X48828Y-36292D01*
X48799Y-36363D01*
X48799Y-36439D01*
X48828Y-36509D01*
X48882Y-36563D01*
X48952Y-36592D01*
X49028Y-36592D01*
X49098Y-36563D01*
X49152Y-36509D01*
X49181Y-36439D01*
X49181Y-36363D01*
X49181Y-36846D01*
X49166Y-36840D01*
X49097Y-36839D01*
X49034Y-36866D01*
X48986Y-36914D01*
X48960Y-36977D01*
X48959Y-37046D01*
X48986Y-37109D01*
X49034Y-37157D01*
X49097Y-37183D01*
X49166Y-37184D01*
X49229Y-37157D01*
X49241Y-37146D01*
X49241Y-37271D01*
X49208Y-37304D01*
X49192Y-37343D01*
X48973Y-37125D01*
X48937Y-37100D01*
X48894Y-37092D01*
X48463Y-37092D01*
X48463Y-35198D01*
X48437Y-35134D01*
X48390Y-35088D01*
X48429Y-35050D01*
X48455Y-34987D01*
X48455Y-34918D01*
X48429Y-34855D01*
X48381Y-34807D01*
X48317Y-34780D01*
X48249Y-34780D01*
X48186Y-34806D01*
X48149Y-34843D01*
X48125Y-34818D01*
X48061Y-34792D01*
X47993Y-34792D01*
X47930Y-34818D01*
X47881Y-34867D01*
X47855Y-34930D01*
X47855Y-34998D01*
X47881Y-35061D01*
X47898Y-35078D01*
X47862Y-35115D01*
X47835Y-35178D01*
X47835Y-35246D01*
X47861Y-35309D01*
X47910Y-35358D01*
X47973Y-35384D01*
X48041Y-35384D01*
X48105Y-35358D01*
X48142Y-35321D01*
X48145Y-35329D01*
X48193Y-35378D01*
X48256Y-35404D01*
X48325Y-35404D01*
X48388Y-35378D01*
X48437Y-35329D01*
X48463Y-35266D01*
X48463Y-35198D01*
X48463Y-37092D01*
X48323Y-37092D01*
X48315Y-37084D01*
X48315Y-36383D01*
X48286Y-36312D01*
X48256Y-36283D01*
X48286Y-36253D01*
X48315Y-36183D01*
X48315Y-36107D01*
X48286Y-36037D01*
X48232Y-35983D01*
X48162Y-35954D01*
X48086Y-35954D01*
X48016Y-35983D01*
X47962Y-36037D01*
X47933Y-36107D01*
X47933Y-36183D01*
X47962Y-36253D01*
X47991Y-36283D01*
X47962Y-36312D01*
X47933Y-36382D01*
X47933Y-36458D01*
X47962Y-36529D01*
X48015Y-36582D01*
X48086Y-36611D01*
X48162Y-36612D01*
X48232Y-36583D01*
X48286Y-36529D01*
X48315Y-36459D01*
X48315Y-36383D01*
X48315Y-37084D01*
X48290Y-37059D01*
X48227Y-37033D01*
X48158Y-37032D01*
X48095Y-37059D01*
X48047Y-37107D01*
X48021Y-37170D01*
X48020Y-37239D01*
X48039Y-37284D01*
X48019Y-37304D01*
X47993Y-37367D01*
X47992Y-37436D01*
X48019Y-37499D01*
X48067Y-37547D01*
X48130Y-37573D01*
X48199Y-37574D01*
X48262Y-37547D01*
X48295Y-37515D01*
X48840Y-37515D01*
X49200Y-37874D01*
X49236Y-37899D01*
X49280Y-37908D01*
X51098Y-37908D01*
X51141Y-37899D01*
X51177Y-37874D01*
X51264Y-37787D01*
X51264Y-37787D01*
X51264Y-37787D01*
X51289Y-37751D01*
X51289Y-37751D01*
X51296Y-37715D01*
X51298Y-37708D01*
X51297Y-37708D01*
X51298Y-37708D01*
X51298Y-36863D01*
X51475Y-37040D01*
X51476Y-37041D01*
X51476Y-37042D01*
X51494Y-37053D01*
X51511Y-37065D01*
X51513Y-37065D01*
X51514Y-37066D01*
X51534Y-37069D01*
X51555Y-37074D01*
X51556Y-37073D01*
X51557Y-37073D01*
X51600Y-37072D01*
X51626Y-37098D01*
X51582Y-37142D01*
X51556Y-37205D01*
X51555Y-37274D01*
X51582Y-37337D01*
X51615Y-37370D01*
X51575Y-37410D01*
X51549Y-37473D01*
X51548Y-37542D01*
X51575Y-37605D01*
X51623Y-37653D01*
X51686Y-37679D01*
X51755Y-37680D01*
X51818Y-37653D01*
X51851Y-37621D01*
X52131Y-37621D01*
X52256Y-37745D01*
X52292Y-37770D01*
X52336Y-37779D01*
X52376Y-37779D01*
X52371Y-37792D01*
X52370Y-37861D01*
X52378Y-37879D01*
X51847Y-37879D01*
X51814Y-37846D01*
X51751Y-37820D01*
X51682Y-37819D01*
X51619Y-37846D01*
X51571Y-37894D01*
X51545Y-37957D01*
X51544Y-38026D01*
X51571Y-38089D01*
X51619Y-38137D01*
X51682Y-38163D01*
X51751Y-38164D01*
X51814Y-38137D01*
X51847Y-38105D01*
X52353Y-38105D01*
X52344Y-38127D01*
X52343Y-38174D01*
X52245Y-38273D01*
X48365Y-38273D01*
X48365Y-37949D01*
X48338Y-37886D01*
X48290Y-37838D01*
X48227Y-37812D01*
X48158Y-37811D01*
X48095Y-37838D01*
X48047Y-37886D01*
X48021Y-37949D01*
X48020Y-38018D01*
X48047Y-38081D01*
X48095Y-38129D01*
X48158Y-38155D01*
X48227Y-38156D01*
X48290Y-38129D01*
X48338Y-38081D01*
X48364Y-38018D01*
X48365Y-37949D01*
X48365Y-38273D01*
X48351Y-38273D01*
X48318Y-38240D01*
X48255Y-38214D01*
X48186Y-38213D01*
X48123Y-38240D01*
X48075Y-38288D01*
X48049Y-38351D01*
X48048Y-38420D01*
X48069Y-38470D01*
X48047Y-38493D01*
X48021Y-38556D01*
X48020Y-38620D01*
X47981Y-38637D01*
X47933Y-38685D01*
X47907Y-38748D01*
X47906Y-38817D01*
X47933Y-38880D01*
X47981Y-38928D01*
X48044Y-38954D01*
X48113Y-38955D01*
X48176Y-38928D01*
X48209Y-38896D01*
X51941Y-38896D01*
X52214Y-39168D01*
X52213Y-39215D01*
X52240Y-39278D01*
X52288Y-39326D01*
X52351Y-39352D01*
X52420Y-39353D01*
X52483Y-39326D01*
X52531Y-39278D01*
X52557Y-39215D01*
X52558Y-39146D01*
X52531Y-39083D01*
X52483Y-39035D01*
X52420Y-39009D01*
X52373Y-39008D01*
X52292Y-38927D01*
X52331Y-38943D01*
X52400Y-38944D01*
X52463Y-38917D01*
X52511Y-38869D01*
X52537Y-38806D01*
X52538Y-38737D01*
X52511Y-38674D01*
X52463Y-38626D01*
X52400Y-38600D01*
X52353Y-38599D01*
X52264Y-38511D01*
X52246Y-38499D01*
X52292Y-38499D01*
X52335Y-38490D01*
X52371Y-38465D01*
X52503Y-38333D01*
X52550Y-38334D01*
X52613Y-38307D01*
X52661Y-38259D01*
X52687Y-38196D01*
X52688Y-38127D01*
X52678Y-38105D01*
X52851Y-38105D01*
X52950Y-38203D01*
X52950Y-41213D01*
X52637Y-41526D01*
X52637Y-41008D01*
X52610Y-40945D01*
X52562Y-40897D01*
X52499Y-40871D01*
X52447Y-40870D01*
X52448Y-40812D01*
X52421Y-40749D01*
X52377Y-40705D01*
X52384Y-40688D01*
X52385Y-40619D01*
X52358Y-40556D01*
X52343Y-40540D01*
X52345Y-40539D01*
X52393Y-40491D01*
X52419Y-40428D01*
X52420Y-40359D01*
X52393Y-40296D01*
X52345Y-40248D01*
X52282Y-40222D01*
X52235Y-40221D01*
X52201Y-40187D01*
X52266Y-40188D01*
X52329Y-40161D01*
X52377Y-40113D01*
X52403Y-40050D01*
X52404Y-39987D01*
X52436Y-39987D01*
X52499Y-39960D01*
X52547Y-39912D01*
X52573Y-39849D01*
X52574Y-39780D01*
X52547Y-39717D01*
X52499Y-39669D01*
X52436Y-39643D01*
X52367Y-39642D01*
X52363Y-39644D01*
X52186Y-39467D01*
X52149Y-39442D01*
X52106Y-39434D01*
X48305Y-39434D01*
X48281Y-39409D01*
X48221Y-39384D01*
X48156Y-39384D01*
X48097Y-39409D01*
X48051Y-39455D01*
X48026Y-39514D01*
X48026Y-39579D01*
X48051Y-39639D01*
X48068Y-39656D01*
X48055Y-39670D01*
X48029Y-39733D01*
X48028Y-39802D01*
X48051Y-39855D01*
X48039Y-39867D01*
X48013Y-39930D01*
X48012Y-39999D01*
X48039Y-40062D01*
X48087Y-40110D01*
X48150Y-40136D01*
X48219Y-40137D01*
X48282Y-40110D01*
X48315Y-40078D01*
X51772Y-40078D01*
X51941Y-40247D01*
X51914Y-40242D01*
X48311Y-40242D01*
X48278Y-40209D01*
X48215Y-40183D01*
X48146Y-40182D01*
X48083Y-40209D01*
X48035Y-40257D01*
X48009Y-40320D01*
X48008Y-40389D01*
X48035Y-40452D01*
X48083Y-40500D01*
X48146Y-40526D01*
X48215Y-40527D01*
X48278Y-40500D01*
X48311Y-40468D01*
X51867Y-40468D01*
X52041Y-40641D01*
X52040Y-40688D01*
X52067Y-40751D01*
X52111Y-40795D01*
X52104Y-40812D01*
X52103Y-40881D01*
X52130Y-40944D01*
X52178Y-40992D01*
X52241Y-41018D01*
X52293Y-41019D01*
X52292Y-41077D01*
X52319Y-41140D01*
X52367Y-41188D01*
X52430Y-41214D01*
X52499Y-41215D01*
X52562Y-41188D01*
X52610Y-41140D01*
X52636Y-41077D01*
X52637Y-41008D01*
X52637Y-41526D01*
X52593Y-41569D01*
X52569Y-41560D01*
X52500Y-41559D01*
X52437Y-41586D01*
X52389Y-41634D01*
X52363Y-41697D01*
X52362Y-41746D01*
X52141Y-41524D01*
X52141Y-41130D01*
X52132Y-41086D01*
X52107Y-41050D01*
X51899Y-40841D01*
X51923Y-40782D01*
X51924Y-40713D01*
X51897Y-40650D01*
X51849Y-40602D01*
X51786Y-40576D01*
X51717Y-40575D01*
X51654Y-40602D01*
X51606Y-40650D01*
X51601Y-40662D01*
X51502Y-40562D01*
X51502Y-40562D01*
X51501Y-40562D01*
X51483Y-40549D01*
X51465Y-40537D01*
X51465Y-40537D01*
X51465Y-40537D01*
X51443Y-40533D01*
X51422Y-40529D01*
X51422Y-40529D01*
X51422Y-40529D01*
X50898Y-40529D01*
X50897Y-40529D01*
X50854Y-40537D01*
X50818Y-40562D01*
X50818Y-40562D01*
X50745Y-40635D01*
X48303Y-40635D01*
X48270Y-40602D01*
X48207Y-40576D01*
X48138Y-40575D01*
X48075Y-40602D01*
X48027Y-40650D01*
X48001Y-40713D01*
X48000Y-40782D01*
X48027Y-40845D01*
X48048Y-40867D01*
X48029Y-40914D01*
X48028Y-40974D01*
X47977Y-40996D01*
X47929Y-41044D01*
X47903Y-41107D01*
X47902Y-41176D01*
X47929Y-41239D01*
X47977Y-41287D01*
X48040Y-41313D01*
X48109Y-41314D01*
X48172Y-41287D01*
X48205Y-41255D01*
X50626Y-41255D01*
X51525Y-42153D01*
X51525Y-42224D01*
X51518Y-42231D01*
X51511Y-42224D01*
X51511Y-42189D01*
X51510Y-42188D01*
X51511Y-42188D01*
X51502Y-42145D01*
X51477Y-42109D01*
X51477Y-42109D01*
X51020Y-41652D01*
X50984Y-41627D01*
X50941Y-41619D01*
X48327Y-41619D01*
X48294Y-41586D01*
X48231Y-41560D01*
X48162Y-41559D01*
X48099Y-41586D01*
X48051Y-41634D01*
X48025Y-41697D01*
X48024Y-41766D01*
X48051Y-41829D01*
X48055Y-41833D01*
X48051Y-41836D01*
X48026Y-41896D01*
X48026Y-41961D01*
X48049Y-42016D01*
X48031Y-42033D01*
X48006Y-42093D01*
X48006Y-42158D01*
X48031Y-42217D01*
X48077Y-42263D01*
X48136Y-42288D01*
X48201Y-42288D01*
X48261Y-42263D01*
X48286Y-42238D01*
X50634Y-42238D01*
X50806Y-42410D01*
X50806Y-42410D01*
X51117Y-42721D01*
X51117Y-42721D01*
X51153Y-42746D01*
X51196Y-42755D01*
X51196Y-42754D01*
X51197Y-42755D01*
X52004Y-42755D01*
X52047Y-42746D01*
X52083Y-42721D01*
X52197Y-42607D01*
X52197Y-42607D01*
X52197Y-42607D01*
X52222Y-42571D01*
X52231Y-42528D01*
X52231Y-42484D01*
X52237Y-42478D01*
X52237Y-42708D01*
X52245Y-42751D01*
X52270Y-42787D01*
X52287Y-42805D01*
X49695Y-42805D01*
X49662Y-42772D01*
X49635Y-42760D01*
X49680Y-42715D01*
X49706Y-42652D01*
X49707Y-42605D01*
X49760Y-42628D01*
X49821Y-42628D01*
X49877Y-42605D01*
X49901Y-42581D01*
X49925Y-42605D01*
X49981Y-42628D01*
X50041Y-42628D01*
X50097Y-42605D01*
X50140Y-42562D01*
X50163Y-42506D01*
X50163Y-42446D01*
X50140Y-42390D01*
X50098Y-42347D01*
X50042Y-42324D01*
X49981Y-42324D01*
X49925Y-42347D01*
X49901Y-42371D01*
X49877Y-42347D01*
X49821Y-42324D01*
X49761Y-42324D01*
X49705Y-42347D01*
X49662Y-42390D01*
X49639Y-42446D01*
X49639Y-42479D01*
X49632Y-42472D01*
X49569Y-42446D01*
X49500Y-42445D01*
X49437Y-42472D01*
X49389Y-42520D01*
X49363Y-42583D01*
X49363Y-42612D01*
X48284Y-42612D01*
X48251Y-42579D01*
X48188Y-42553D01*
X48119Y-42552D01*
X48056Y-42579D01*
X48008Y-42627D01*
X47982Y-42690D01*
X47981Y-42759D01*
X48008Y-42822D01*
X48056Y-42870D01*
X48119Y-42896D01*
X48188Y-42897D01*
X48251Y-42870D01*
X48284Y-42838D01*
X49411Y-42838D01*
X49393Y-42883D01*
X49392Y-42952D01*
X49419Y-43015D01*
X49467Y-43063D01*
X49530Y-43089D01*
X49599Y-43090D01*
X49662Y-43063D01*
X49695Y-43031D01*
X52595Y-43031D01*
X53088Y-43523D01*
X53088Y-44843D01*
X53096Y-44886D01*
X53121Y-44922D01*
X53819Y-45620D01*
X53819Y-45620D01*
X53855Y-45645D01*
X53899Y-45654D01*
X59624Y-45654D01*
X59667Y-45645D01*
X59704Y-45620D01*
X60548Y-44776D01*
X60559Y-44787D01*
X60610Y-44808D01*
X60548Y-44834D01*
X60499Y-44882D01*
X60473Y-44945D01*
X60473Y-45014D01*
X60499Y-45077D01*
X60548Y-45126D01*
X60611Y-45152D01*
X60679Y-45152D01*
X60742Y-45126D01*
X60791Y-45077D01*
X60817Y-45014D01*
X60817Y-44946D01*
X60791Y-44883D01*
X60743Y-44834D01*
X60692Y-44813D01*
X60754Y-44787D01*
X60803Y-44739D01*
X60829Y-44676D01*
X60829Y-44607D01*
X60803Y-44544D01*
X60755Y-44496D01*
X60691Y-44469D01*
X60623Y-44469D01*
X60560Y-44495D01*
X60527Y-44528D01*
X60523Y-44528D01*
X60523Y-44528D01*
X60480Y-44537D01*
X60443Y-44561D01*
X60443Y-44561D01*
X60136Y-44868D01*
X60136Y-42154D01*
X60110Y-42091D01*
X60062Y-42043D01*
X59998Y-42017D01*
X59930Y-42016D01*
X59867Y-42043D01*
X59818Y-42091D01*
X59792Y-42154D01*
X59792Y-42223D01*
X59818Y-42286D01*
X59867Y-42334D01*
X59930Y-42360D01*
X59998Y-42361D01*
X60061Y-42334D01*
X60110Y-42286D01*
X60136Y-42223D01*
X60136Y-42154D01*
X60136Y-44868D01*
X60022Y-44983D01*
X60022Y-43580D01*
X59996Y-43516D01*
X59947Y-43468D01*
X59884Y-43442D01*
X59816Y-43442D01*
X59753Y-43468D01*
X59704Y-43516D01*
X59678Y-43579D01*
X59678Y-43648D01*
X59704Y-43711D01*
X59752Y-43759D01*
X59816Y-43786D01*
X59884Y-43786D01*
X59947Y-43760D01*
X59996Y-43711D01*
X60022Y-43648D01*
X60022Y-43580D01*
X60022Y-44983D01*
X59577Y-45428D01*
X58916Y-45428D01*
X58916Y-41875D01*
X58889Y-41812D01*
X58841Y-41763D01*
X58778Y-41737D01*
X58710Y-41737D01*
X58646Y-41763D01*
X58627Y-41782D01*
X58597Y-41770D01*
X58597Y-41306D01*
X58572Y-41247D01*
X58527Y-41201D01*
X58467Y-41176D01*
X58402Y-41176D01*
X58343Y-41201D01*
X58336Y-41207D01*
X58330Y-41201D01*
X58270Y-41176D01*
X58205Y-41176D01*
X58146Y-41201D01*
X58100Y-41246D01*
X58075Y-41306D01*
X58075Y-41371D01*
X58100Y-41430D01*
X58145Y-41476D01*
X58205Y-41501D01*
X58270Y-41501D01*
X58329Y-41476D01*
X58336Y-41470D01*
X58342Y-41476D01*
X58402Y-41501D01*
X58467Y-41501D01*
X58526Y-41476D01*
X58572Y-41431D01*
X58597Y-41371D01*
X58597Y-41306D01*
X58597Y-41770D01*
X58572Y-41760D01*
X58504Y-41760D01*
X58441Y-41786D01*
X58392Y-41834D01*
X58366Y-41897D01*
X58366Y-41966D01*
X58392Y-42029D01*
X58440Y-42077D01*
X58504Y-42104D01*
X58572Y-42104D01*
X58635Y-42077D01*
X58654Y-42058D01*
X58709Y-42081D01*
X58778Y-42081D01*
X58841Y-42055D01*
X58889Y-42007D01*
X58916Y-41943D01*
X58916Y-41875D01*
X58916Y-45428D01*
X58431Y-45428D01*
X58431Y-42721D01*
X58408Y-42665D01*
X58365Y-42623D01*
X58309Y-42599D01*
X58249Y-42599D01*
X58193Y-42623D01*
X58150Y-42665D01*
X58127Y-42721D01*
X58127Y-42782D01*
X58150Y-42837D01*
X58193Y-42880D01*
X58249Y-42903D01*
X58309Y-42903D01*
X58365Y-42880D01*
X58408Y-42838D01*
X58431Y-42782D01*
X58431Y-42721D01*
X58431Y-45428D01*
X56974Y-45428D01*
X56974Y-43135D01*
X56945Y-43064D01*
X56891Y-43011D01*
X56821Y-42982D01*
X56745Y-42981D01*
X56674Y-43010D01*
X56621Y-43064D01*
X56592Y-43134D01*
X56591Y-43210D01*
X56620Y-43281D01*
X56674Y-43334D01*
X56744Y-43363D01*
X56820Y-43364D01*
X56891Y-43335D01*
X56944Y-43281D01*
X56973Y-43211D01*
X56974Y-43135D01*
X56974Y-45428D01*
X55150Y-45428D01*
X55167Y-45411D01*
X55167Y-45411D01*
X55167Y-45411D01*
X55193Y-45384D01*
X55208Y-45349D01*
X55208Y-45349D01*
X55208Y-45349D01*
X55222Y-45314D01*
X55222Y-45276D01*
X55223Y-45276D01*
X55223Y-45275D01*
X55223Y-45238D01*
X55223Y-45238D01*
X55223Y-45197D01*
X55222Y-45196D01*
X55223Y-45196D01*
X55220Y-45182D01*
X55208Y-45123D01*
X55208Y-45123D01*
X55167Y-45061D01*
X55167Y-45061D01*
X55156Y-45050D01*
X55156Y-44941D01*
X55883Y-44214D01*
X55924Y-44152D01*
X55938Y-44080D01*
X55939Y-44083D01*
X55993Y-44136D01*
X56063Y-44165D01*
X56139Y-44166D01*
X56210Y-44137D01*
X56240Y-44107D01*
X56269Y-44136D01*
X56339Y-44165D01*
X56415Y-44166D01*
X56486Y-44137D01*
X56539Y-44083D01*
X56568Y-44013D01*
X56569Y-43937D01*
X56540Y-43866D01*
X56486Y-43813D01*
X56432Y-43790D01*
X56432Y-42918D01*
X56405Y-42855D01*
X56357Y-42807D01*
X56294Y-42781D01*
X56225Y-42780D01*
X56162Y-42807D01*
X56114Y-42855D01*
X56088Y-42918D01*
X56087Y-42987D01*
X56114Y-43050D01*
X56162Y-43098D01*
X56225Y-43124D01*
X56294Y-43125D01*
X56357Y-43098D01*
X56405Y-43050D01*
X56431Y-42987D01*
X56432Y-42918D01*
X56432Y-43790D01*
X56416Y-43784D01*
X56340Y-43783D01*
X56269Y-43812D01*
X56239Y-43842D01*
X56210Y-43813D01*
X56140Y-43784D01*
X56064Y-43783D01*
X55993Y-43812D01*
X55940Y-43866D01*
X55939Y-43869D01*
X55939Y-43512D01*
X55938Y-43511D01*
X55939Y-43474D01*
X55924Y-43438D01*
X55924Y-43438D01*
X55924Y-43438D01*
X55910Y-43403D01*
X55883Y-43376D01*
X55883Y-43376D01*
X55883Y-43376D01*
X55856Y-43350D01*
X55821Y-43335D01*
X55821Y-43335D01*
X55821Y-43335D01*
X55786Y-43321D01*
X55748Y-43321D01*
X55747Y-43321D01*
X55710Y-43320D01*
X55674Y-43335D01*
X55674Y-43335D01*
X55674Y-43335D01*
X55639Y-43349D01*
X55612Y-43376D01*
X55612Y-43376D01*
X55612Y-43376D01*
X55586Y-43403D01*
X55571Y-43438D01*
X55571Y-43438D01*
X55571Y-43438D01*
X55557Y-43473D01*
X55557Y-43511D01*
X55557Y-43512D01*
X55557Y-43512D01*
X55556Y-43549D01*
X55557Y-43549D01*
X55557Y-43999D01*
X54829Y-44726D01*
X54788Y-44788D01*
X54774Y-44862D01*
X54774Y-45130D01*
X54788Y-45203D01*
X54829Y-45265D01*
X54840Y-45276D01*
X54840Y-45313D01*
X54855Y-45349D01*
X54855Y-45349D01*
X54855Y-45349D01*
X54869Y-45384D01*
X54896Y-45411D01*
X54896Y-45411D01*
X54896Y-45411D01*
X54913Y-45428D01*
X53945Y-45428D01*
X53314Y-44796D01*
X53314Y-43477D01*
X53305Y-43436D01*
X54969Y-43436D01*
X55012Y-43427D01*
X55048Y-43402D01*
X55212Y-43238D01*
X55259Y-43239D01*
X55322Y-43212D01*
X55338Y-43196D01*
X55355Y-43212D01*
X55418Y-43238D01*
X55487Y-43239D01*
X55550Y-43212D01*
X55598Y-43164D01*
X55624Y-43101D01*
X55625Y-43032D01*
X55598Y-42969D01*
X55550Y-42921D01*
X55487Y-42895D01*
X55440Y-42894D01*
X55379Y-42833D01*
X55532Y-42833D01*
X55535Y-42834D01*
X55578Y-42825D01*
X55614Y-42800D01*
X55768Y-42646D01*
X55768Y-42646D01*
X55768Y-42646D01*
X55793Y-42610D01*
X55802Y-42567D01*
X55801Y-42567D01*
X55802Y-42567D01*
X55802Y-42255D01*
X56131Y-41926D01*
X56130Y-41971D01*
X56157Y-42034D01*
X56205Y-42082D01*
X56268Y-42108D01*
X56337Y-42109D01*
X56400Y-42082D01*
X56448Y-42034D01*
X56474Y-41971D01*
X56475Y-41902D01*
X56448Y-41839D01*
X56400Y-41791D01*
X56337Y-41765D01*
X56292Y-41764D01*
X56359Y-41697D01*
X56368Y-41684D01*
X56379Y-41671D01*
X56490Y-41467D01*
X56511Y-41458D01*
X56513Y-41655D01*
X56515Y-41664D01*
X56514Y-41674D01*
X56521Y-41695D01*
X56525Y-41713D01*
X56530Y-41720D01*
X56533Y-41730D01*
X56547Y-41746D01*
X56558Y-41762D01*
X56566Y-41767D01*
X56573Y-41775D01*
X56807Y-41952D01*
X56806Y-41971D01*
X56785Y-42024D01*
X56784Y-42093D01*
X56811Y-42156D01*
X56859Y-42204D01*
X56922Y-42230D01*
X56991Y-42231D01*
X57054Y-42204D01*
X57075Y-42184D01*
X57107Y-42216D01*
X57155Y-42236D01*
X57155Y-42258D01*
X57178Y-42314D01*
X57220Y-42357D01*
X57276Y-42380D01*
X57337Y-42380D01*
X57393Y-42357D01*
X57435Y-42314D01*
X57459Y-42258D01*
X57459Y-42198D01*
X57436Y-42142D01*
X57393Y-42099D01*
X57376Y-42092D01*
X57376Y-42086D01*
X57430Y-42108D01*
X57499Y-42109D01*
X57562Y-42082D01*
X57610Y-42034D01*
X57636Y-41971D01*
X57637Y-41902D01*
X57610Y-41839D01*
X57608Y-41836D01*
X57608Y-41836D01*
X57605Y-41823D01*
X57605Y-41823D01*
X57572Y-41774D01*
X57572Y-41774D01*
X57404Y-41606D01*
X57405Y-41398D01*
X57416Y-41371D01*
X57416Y-41306D01*
X57391Y-41247D01*
X57346Y-41201D01*
X57286Y-41176D01*
X57221Y-41176D01*
X57162Y-41201D01*
X57155Y-41207D01*
X57149Y-41201D01*
X57089Y-41176D01*
X57024Y-41176D01*
X56965Y-41201D01*
X56958Y-41207D01*
X56952Y-41201D01*
X56892Y-41176D01*
X56827Y-41176D01*
X56768Y-41201D01*
X56761Y-41207D01*
X56755Y-41201D01*
X56695Y-41176D01*
X56630Y-41176D01*
X56576Y-41198D01*
X56599Y-41144D01*
X56599Y-41079D01*
X56574Y-41020D01*
X56568Y-41013D01*
X56574Y-41007D01*
X56599Y-40947D01*
X56599Y-40882D01*
X56574Y-40823D01*
X56568Y-40817D01*
X56574Y-40811D01*
X56599Y-40751D01*
X56599Y-40686D01*
X56574Y-40627D01*
X56568Y-40620D01*
X56574Y-40614D01*
X56599Y-40554D01*
X56599Y-40489D01*
X56574Y-40430D01*
X56568Y-40423D01*
X56574Y-40417D01*
X56599Y-40357D01*
X56599Y-40292D01*
X56574Y-40233D01*
X56568Y-40226D01*
X56574Y-40220D01*
X56599Y-40160D01*
X56599Y-40095D01*
X56574Y-40036D01*
X56568Y-40029D01*
X56574Y-40023D01*
X56599Y-39963D01*
X56599Y-39898D01*
X56574Y-39839D01*
X56568Y-39832D01*
X56574Y-39826D01*
X56599Y-39766D01*
X56599Y-39701D01*
X56574Y-39642D01*
X56568Y-39635D01*
X56574Y-39629D01*
X56599Y-39569D01*
X56599Y-39504D01*
X56574Y-39445D01*
X56568Y-39439D01*
X56574Y-39433D01*
X56599Y-39373D01*
X56599Y-39308D01*
X56574Y-39249D01*
X56568Y-39242D01*
X56574Y-39236D01*
X56599Y-39176D01*
X56599Y-39111D01*
X56574Y-39052D01*
X56568Y-39045D01*
X56574Y-39039D01*
X56599Y-38979D01*
X56599Y-38914D01*
X56574Y-38855D01*
X56568Y-38848D01*
X56574Y-38842D01*
X56580Y-38848D01*
X56640Y-38873D01*
X56705Y-38873D01*
X56764Y-38848D01*
X56766Y-38846D01*
X56777Y-38857D01*
X56837Y-38882D01*
X56902Y-38882D01*
X56961Y-38857D01*
X56968Y-38851D01*
X56974Y-38857D01*
X57034Y-38882D01*
X57099Y-38882D01*
X57158Y-38857D01*
X57204Y-38812D01*
X57225Y-38763D01*
X57405Y-38963D01*
X57408Y-38966D01*
X57410Y-38967D01*
X57421Y-38975D01*
X57441Y-38990D01*
X57444Y-38991D01*
X57446Y-38992D01*
X57461Y-38995D01*
X57483Y-39001D01*
X57487Y-39000D01*
X57490Y-39001D01*
X58765Y-39001D01*
X58765Y-40167D01*
X58766Y-40174D01*
X58765Y-40181D01*
X58770Y-40195D01*
X58773Y-40210D01*
X58777Y-40216D01*
X58780Y-40223D01*
X58789Y-40234D01*
X58798Y-40246D01*
X58804Y-40251D01*
X58809Y-40256D01*
X58902Y-40327D01*
X58902Y-40357D01*
X58927Y-40416D01*
X58933Y-40423D01*
X58927Y-40429D01*
X58902Y-40489D01*
X58902Y-40554D01*
X58927Y-40613D01*
X58933Y-40620D01*
X58927Y-40626D01*
X58902Y-40686D01*
X58902Y-40751D01*
X58927Y-40810D01*
X58933Y-40816D01*
X58927Y-40822D01*
X58902Y-40882D01*
X58902Y-40947D01*
X58927Y-41006D01*
X58938Y-41018D01*
X58937Y-41019D01*
X58912Y-41079D01*
X58912Y-41144D01*
X58937Y-41203D01*
X58938Y-41205D01*
X58927Y-41216D01*
X58902Y-41276D01*
X58902Y-41341D01*
X58927Y-41400D01*
X58972Y-41446D01*
X58998Y-41457D01*
X59194Y-41653D01*
X59174Y-41661D01*
X59126Y-41709D01*
X59100Y-41772D01*
X59099Y-41841D01*
X59126Y-41904D01*
X59163Y-41941D01*
X59135Y-41969D01*
X59109Y-42032D01*
X59108Y-42101D01*
X59135Y-42164D01*
X59183Y-42212D01*
X59246Y-42238D01*
X59315Y-42239D01*
X59378Y-42212D01*
X59426Y-42164D01*
X59452Y-42101D01*
X59453Y-42032D01*
X59426Y-41969D01*
X59389Y-41932D01*
X59417Y-41904D01*
X59425Y-41884D01*
X59479Y-41938D01*
X59479Y-41938D01*
X59528Y-41971D01*
X59528Y-41971D01*
X59575Y-41980D01*
X59586Y-41982D01*
X59586Y-41982D01*
X59586Y-41982D01*
X60145Y-41982D01*
X60493Y-42330D01*
X60493Y-42378D01*
X60473Y-42426D01*
X60473Y-42494D01*
X60499Y-42557D01*
X60548Y-42606D01*
X60611Y-42632D01*
X60679Y-42632D01*
X60742Y-42606D01*
X60791Y-42558D01*
X60817Y-42494D01*
X60817Y-42426D01*
X60797Y-42378D01*
X60797Y-42267D01*
X60786Y-42209D01*
X60753Y-42160D01*
X60316Y-41723D01*
X60266Y-41690D01*
X60208Y-41678D01*
X59649Y-41678D01*
X59213Y-41242D01*
X59202Y-41217D01*
X59201Y-41215D01*
X59212Y-41204D01*
X59237Y-41144D01*
X59237Y-41079D01*
X59212Y-41020D01*
X59201Y-41008D01*
X59202Y-41007D01*
X59227Y-40947D01*
X59227Y-40882D01*
X59206Y-40831D01*
X59303Y-40831D01*
X59331Y-40825D01*
X59344Y-40823D01*
X59345Y-40822D01*
X59346Y-40822D01*
X59369Y-40806D01*
X59381Y-40799D01*
X59382Y-40798D01*
X59383Y-40797D01*
X59383Y-40797D01*
X59442Y-40740D01*
X59467Y-40704D01*
X59477Y-40661D01*
X59476Y-40658D01*
X59476Y-40511D01*
X59483Y-40516D01*
X59501Y-40528D01*
X59502Y-40528D01*
X59503Y-40529D01*
X59523Y-40533D01*
X59537Y-40536D01*
X59571Y-40570D01*
X59629Y-40594D01*
X59627Y-40607D01*
X59627Y-40609D01*
X59594Y-40642D01*
X59568Y-40705D01*
X59567Y-40774D01*
X59594Y-40837D01*
X59642Y-40885D01*
X59705Y-40911D01*
X59774Y-40912D01*
X59778Y-40910D01*
X59778Y-40910D01*
X59805Y-40973D01*
X59853Y-41021D01*
X59916Y-41047D01*
X59974Y-41048D01*
X59932Y-41065D01*
X59884Y-41113D01*
X59858Y-41176D01*
X59857Y-41245D01*
X59884Y-41308D01*
X59904Y-41328D01*
X59893Y-41339D01*
X59867Y-41402D01*
X59866Y-41471D01*
X59893Y-41534D01*
X59941Y-41582D01*
X60004Y-41608D01*
X60073Y-41609D01*
X60136Y-41582D01*
X60184Y-41534D01*
X60210Y-41471D01*
X60211Y-41402D01*
X60184Y-41339D01*
X60164Y-41319D01*
X60175Y-41308D01*
X60201Y-41245D01*
X60202Y-41176D01*
X60175Y-41113D01*
X60127Y-41065D01*
X60064Y-41039D01*
X60006Y-41038D01*
X60048Y-41021D01*
X60096Y-40973D01*
X60122Y-40910D01*
X60123Y-40863D01*
X60591Y-40394D01*
X60616Y-40358D01*
X60625Y-40315D01*
X60623Y-40308D01*
X60621Y-38756D01*
X60621Y-38755D01*
X60616Y-38734D01*
X60612Y-38712D01*
X60612Y-38712D01*
X60612Y-38712D01*
X60600Y-38694D01*
X60587Y-38676D01*
X59917Y-38006D01*
X59947Y-38006D01*
X60018Y-37977D01*
X60071Y-37923D01*
X60100Y-37853D01*
X60101Y-37777D01*
X60072Y-37706D01*
X60018Y-37653D01*
X59948Y-37624D01*
X59872Y-37623D01*
X59801Y-37652D01*
X59748Y-37706D01*
X59719Y-37776D01*
X59719Y-37807D01*
X59355Y-37444D01*
X59319Y-37419D01*
X59276Y-37411D01*
X58330Y-37411D01*
X56666Y-35747D01*
X57944Y-35747D01*
X57965Y-35750D01*
X58009Y-35742D01*
X58045Y-35717D01*
X58283Y-35475D01*
X60094Y-35478D01*
X60093Y-35516D01*
X60120Y-35579D01*
X60131Y-35590D01*
X60100Y-35621D01*
X60074Y-35684D01*
X60073Y-35753D01*
X60100Y-35816D01*
X60148Y-35864D01*
X60211Y-35890D01*
X60280Y-35891D01*
X60343Y-35864D01*
X60376Y-35832D01*
X60413Y-35832D01*
X60413Y-35831D01*
X60414Y-35831D01*
X60435Y-35827D01*
X60456Y-35823D01*
X60457Y-35822D01*
X60458Y-35822D01*
X60475Y-35810D01*
X60492Y-35798D01*
X60493Y-35798D01*
X60494Y-35797D01*
X60666Y-35619D01*
X60666Y-35618D01*
X60667Y-35618D01*
X60668Y-35617D01*
X60675Y-35605D01*
X60691Y-35582D01*
X60691Y-35580D01*
X60692Y-35580D01*
X60694Y-35565D01*
X60700Y-35539D01*
X60700Y-35430D01*
X60691Y-35386D01*
X60666Y-35350D01*
X60508Y-35192D01*
X60472Y-35167D01*
X60429Y-35159D01*
X60418Y-35161D01*
X60348Y-35161D01*
X60349Y-35095D01*
X60322Y-35032D01*
X60274Y-34984D01*
X60211Y-34958D01*
X60142Y-34957D01*
X60079Y-34984D01*
X60031Y-35032D01*
X60005Y-35095D01*
X60004Y-35161D01*
X58136Y-35161D01*
X58135Y-35160D01*
X58134Y-35161D01*
X58134Y-35161D01*
X58123Y-35163D01*
X58092Y-35168D01*
X58091Y-35169D01*
X58090Y-35169D01*
X58083Y-35174D01*
X58055Y-35192D01*
X57806Y-35434D01*
X52727Y-35434D01*
X52162Y-34869D01*
X52126Y-34844D01*
X52083Y-34836D01*
X51342Y-34836D01*
X51404Y-34774D01*
X52921Y-34774D01*
X52899Y-34827D01*
X52898Y-34896D01*
X52910Y-34923D01*
X52871Y-34922D01*
X52808Y-34949D01*
X52760Y-34997D01*
X52734Y-35060D01*
X52733Y-35129D01*
X52760Y-35192D01*
X52808Y-35240D01*
X52871Y-35266D01*
X52940Y-35267D01*
X53003Y-35240D01*
X53051Y-35192D01*
X53077Y-35129D01*
X53078Y-35060D01*
X53066Y-35033D01*
X53105Y-35034D01*
X53168Y-35007D01*
X53216Y-34959D01*
X53242Y-34896D01*
X53243Y-34827D01*
X53220Y-34774D01*
X53748Y-34774D01*
X53734Y-34808D01*
X53733Y-34877D01*
X53760Y-34940D01*
X53808Y-34988D01*
X53871Y-35014D01*
X53940Y-35015D01*
X54003Y-34988D01*
X54051Y-34940D01*
X54077Y-34877D01*
X54078Y-34808D01*
X54063Y-34774D01*
X55953Y-34774D01*
X55996Y-34765D01*
X56033Y-34740D01*
X56831Y-33942D01*
X56831Y-33942D01*
X56831Y-33942D01*
X57119Y-33654D01*
X57119Y-33654D01*
X57119Y-33654D01*
X57143Y-33618D01*
X57143Y-33618D01*
X57150Y-33582D01*
X57152Y-33574D01*
X57152Y-33574D01*
X57152Y-33574D01*
X57152Y-33561D01*
X57225Y-33531D01*
X57318Y-33438D01*
X57368Y-33317D01*
X57369Y-33186D01*
X57318Y-33065D01*
X57280Y-33026D01*
X57344Y-33026D01*
X57444Y-32985D01*
X57496Y-32932D01*
X57519Y-32932D01*
X57571Y-32985D01*
X57670Y-33026D01*
X57778Y-33026D01*
X57878Y-32985D01*
X57896Y-32966D01*
X64773Y-32966D01*
X64773Y-39332D01*
X64752Y-39341D01*
X64676Y-39417D01*
X64635Y-39516D01*
X64634Y-39624D01*
X64676Y-39724D01*
X64739Y-39787D01*
X64676Y-39850D01*
X64635Y-39949D01*
X64634Y-40057D01*
X64676Y-40157D01*
X64739Y-40220D01*
X64676Y-40283D01*
X64635Y-40382D01*
X64634Y-40490D01*
X64676Y-40590D01*
X64739Y-40653D01*
X64676Y-40716D01*
X64635Y-40815D01*
X64634Y-40923D01*
X64676Y-41023D01*
X64752Y-41099D01*
X64773Y-41108D01*
X64773Y-49596D01*
M02*
