G04 (created by PCBNEW (2013-05-31 BZR 4019)-stable) date 24/04/2014 12:04:12*
%MOIN*%
G04 Gerber Fmt 3.4, Leading zero omitted, Abs format*
%FSLAX34Y34*%
G01*
G70*
G90*
G04 APERTURE LIST*
%ADD10C,0.00590551*%
%ADD11C,0.0077*%
%ADD12C,0.0078*%
%ADD13C,0.0117*%
%ADD14C,0.00787402*%
%ADD15C,0.00984252*%
G04 APERTURE END LIST*
G54D10*
X4000Y-4000D02*
X112930Y-4000D01*
X112930Y-78680D01*
X4000Y-78680D01*
X4000Y-4000D01*
X4700Y-4700D02*
X112230Y-4700D01*
X112230Y-77980D01*
X4700Y-77980D01*
X4700Y-4700D01*
X25780Y-4000D02*
X25780Y-4700D01*
X15032Y-4552D02*
X14747Y-4552D01*
X14890Y-4552D02*
X14890Y-4052D01*
X14842Y-4123D01*
X14794Y-4171D01*
X14747Y-4195D01*
X25780Y-78680D02*
X25780Y-77980D01*
X15032Y-78532D02*
X14747Y-78532D01*
X14890Y-78532D02*
X14890Y-78032D01*
X14842Y-78103D01*
X14794Y-78151D01*
X14747Y-78175D01*
X47560Y-4000D02*
X47560Y-4700D01*
X36527Y-4100D02*
X36550Y-4076D01*
X36598Y-4052D01*
X36717Y-4052D01*
X36765Y-4076D01*
X36789Y-4100D01*
X36812Y-4147D01*
X36812Y-4195D01*
X36789Y-4266D01*
X36503Y-4552D01*
X36812Y-4552D01*
X47560Y-78680D02*
X47560Y-77980D01*
X36527Y-78080D02*
X36550Y-78056D01*
X36598Y-78032D01*
X36717Y-78032D01*
X36765Y-78056D01*
X36789Y-78080D01*
X36812Y-78127D01*
X36812Y-78175D01*
X36789Y-78246D01*
X36503Y-78532D01*
X36812Y-78532D01*
X69340Y-4000D02*
X69340Y-4700D01*
X58283Y-4052D02*
X58592Y-4052D01*
X58426Y-4242D01*
X58497Y-4242D01*
X58545Y-4266D01*
X58569Y-4290D01*
X58592Y-4338D01*
X58592Y-4457D01*
X58569Y-4504D01*
X58545Y-4528D01*
X58497Y-4552D01*
X58354Y-4552D01*
X58307Y-4528D01*
X58283Y-4504D01*
X69340Y-78680D02*
X69340Y-77980D01*
X58283Y-78032D02*
X58592Y-78032D01*
X58426Y-78222D01*
X58497Y-78222D01*
X58545Y-78246D01*
X58569Y-78270D01*
X58592Y-78318D01*
X58592Y-78437D01*
X58569Y-78484D01*
X58545Y-78508D01*
X58497Y-78532D01*
X58354Y-78532D01*
X58307Y-78508D01*
X58283Y-78484D01*
X91120Y-4000D02*
X91120Y-4700D01*
X80325Y-4219D02*
X80325Y-4552D01*
X80206Y-4028D02*
X80087Y-4385D01*
X80396Y-4385D01*
X91120Y-78680D02*
X91120Y-77980D01*
X80325Y-78199D02*
X80325Y-78532D01*
X80206Y-78008D02*
X80087Y-78365D01*
X80396Y-78365D01*
X102129Y-4052D02*
X101890Y-4052D01*
X101867Y-4290D01*
X101890Y-4266D01*
X101938Y-4242D01*
X102057Y-4242D01*
X102105Y-4266D01*
X102129Y-4290D01*
X102152Y-4338D01*
X102152Y-4457D01*
X102129Y-4504D01*
X102105Y-4528D01*
X102057Y-4552D01*
X101938Y-4552D01*
X101890Y-4528D01*
X101867Y-4504D01*
X102129Y-78032D02*
X101890Y-78032D01*
X101867Y-78270D01*
X101890Y-78246D01*
X101938Y-78222D01*
X102057Y-78222D01*
X102105Y-78246D01*
X102129Y-78270D01*
X102152Y-78318D01*
X102152Y-78437D01*
X102129Y-78484D01*
X102105Y-78508D01*
X102057Y-78532D01*
X101938Y-78532D01*
X101890Y-78508D01*
X101867Y-78484D01*
X4000Y-28890D02*
X4700Y-28890D01*
X4230Y-16509D02*
X4469Y-16509D01*
X4183Y-16652D02*
X4350Y-16152D01*
X4516Y-16652D01*
X112930Y-28890D02*
X112230Y-28890D01*
X112460Y-16509D02*
X112699Y-16509D01*
X112413Y-16652D02*
X112580Y-16152D01*
X112746Y-16652D01*
X4000Y-53780D02*
X4700Y-53780D01*
X4385Y-41280D02*
X4457Y-41304D01*
X4480Y-41328D01*
X4504Y-41375D01*
X4504Y-41447D01*
X4480Y-41494D01*
X4457Y-41518D01*
X4409Y-41542D01*
X4219Y-41542D01*
X4219Y-41042D01*
X4385Y-41042D01*
X4433Y-41066D01*
X4457Y-41090D01*
X4480Y-41137D01*
X4480Y-41185D01*
X4457Y-41232D01*
X4433Y-41256D01*
X4385Y-41280D01*
X4219Y-41280D01*
X112930Y-53780D02*
X112230Y-53780D01*
X112615Y-41280D02*
X112687Y-41304D01*
X112710Y-41328D01*
X112734Y-41375D01*
X112734Y-41447D01*
X112710Y-41494D01*
X112687Y-41518D01*
X112639Y-41542D01*
X112449Y-41542D01*
X112449Y-41042D01*
X112615Y-41042D01*
X112663Y-41066D01*
X112687Y-41090D01*
X112710Y-41137D01*
X112710Y-41185D01*
X112687Y-41232D01*
X112663Y-41256D01*
X112615Y-41280D01*
X112449Y-41280D01*
X4504Y-66384D02*
X4480Y-66408D01*
X4409Y-66432D01*
X4361Y-66432D01*
X4290Y-66408D01*
X4242Y-66360D01*
X4219Y-66313D01*
X4195Y-66218D01*
X4195Y-66146D01*
X4219Y-66051D01*
X4242Y-66003D01*
X4290Y-65956D01*
X4361Y-65932D01*
X4409Y-65932D01*
X4480Y-65956D01*
X4504Y-65980D01*
X112734Y-66384D02*
X112710Y-66408D01*
X112639Y-66432D01*
X112591Y-66432D01*
X112520Y-66408D01*
X112472Y-66360D01*
X112449Y-66313D01*
X112425Y-66218D01*
X112425Y-66146D01*
X112449Y-66051D01*
X112472Y-66003D01*
X112520Y-65956D01*
X112591Y-65932D01*
X112639Y-65932D01*
X112710Y-65956D01*
X112734Y-65980D01*
X79380Y-76422D02*
X79455Y-75822D01*
X79597Y-75822D01*
X79680Y-75851D01*
X79730Y-75908D01*
X79751Y-75965D01*
X79765Y-76080D01*
X79755Y-76165D01*
X79712Y-76280D01*
X79676Y-76337D01*
X79612Y-76394D01*
X79522Y-76422D01*
X79380Y-76422D01*
X80237Y-76422D02*
X80276Y-76108D01*
X80255Y-76051D01*
X80201Y-76022D01*
X80087Y-76022D01*
X80026Y-76051D01*
X80240Y-76394D02*
X80180Y-76422D01*
X80037Y-76422D01*
X79983Y-76394D01*
X79962Y-76337D01*
X79969Y-76280D01*
X80005Y-76222D01*
X80065Y-76194D01*
X80208Y-76194D01*
X80269Y-76165D01*
X80487Y-76022D02*
X80715Y-76022D01*
X80597Y-75822D02*
X80533Y-76337D01*
X80555Y-76394D01*
X80608Y-76422D01*
X80665Y-76422D01*
X81097Y-76394D02*
X81037Y-76422D01*
X80922Y-76422D01*
X80869Y-76394D01*
X80847Y-76337D01*
X80876Y-76108D01*
X80912Y-76051D01*
X80972Y-76022D01*
X81087Y-76022D01*
X81140Y-76051D01*
X81162Y-76108D01*
X81155Y-76165D01*
X80862Y-76222D01*
X81387Y-76365D02*
X81412Y-76394D01*
X81380Y-76422D01*
X81355Y-76394D01*
X81387Y-76365D01*
X81380Y-76422D01*
X81426Y-76051D02*
X81451Y-76080D01*
X81419Y-76108D01*
X81394Y-76080D01*
X81426Y-76051D01*
X81419Y-76108D01*
X82162Y-75880D02*
X82194Y-75851D01*
X82255Y-75822D01*
X82397Y-75822D01*
X82451Y-75851D01*
X82476Y-75880D01*
X82497Y-75937D01*
X82490Y-75994D01*
X82451Y-76080D01*
X82065Y-76422D01*
X82437Y-76422D01*
X83001Y-76022D02*
X82951Y-76422D01*
X82887Y-75794D02*
X82690Y-76222D01*
X83062Y-76222D01*
X83980Y-76422D02*
X84019Y-76108D01*
X83997Y-76051D01*
X83944Y-76022D01*
X83830Y-76022D01*
X83769Y-76051D01*
X83983Y-76394D02*
X83922Y-76422D01*
X83780Y-76422D01*
X83726Y-76394D01*
X83705Y-76337D01*
X83712Y-76280D01*
X83747Y-76222D01*
X83808Y-76194D01*
X83951Y-76194D01*
X84012Y-76165D01*
X84315Y-76022D02*
X84240Y-76622D01*
X84312Y-76051D02*
X84372Y-76022D01*
X84487Y-76022D01*
X84540Y-76051D01*
X84565Y-76080D01*
X84587Y-76137D01*
X84565Y-76308D01*
X84530Y-76365D01*
X84497Y-76394D01*
X84437Y-76422D01*
X84322Y-76422D01*
X84269Y-76394D01*
X84808Y-76422D02*
X84858Y-76022D01*
X84844Y-76137D02*
X84880Y-76080D01*
X84912Y-76051D01*
X84972Y-76022D01*
X85030Y-76022D01*
X85676Y-75880D02*
X85708Y-75851D01*
X85769Y-75822D01*
X85912Y-75822D01*
X85965Y-75851D01*
X85990Y-75880D01*
X86012Y-75937D01*
X86005Y-75994D01*
X85965Y-76080D01*
X85580Y-76422D01*
X85951Y-76422D01*
X86397Y-75822D02*
X86455Y-75822D01*
X86508Y-75851D01*
X86533Y-75880D01*
X86555Y-75937D01*
X86569Y-76051D01*
X86551Y-76194D01*
X86508Y-76308D01*
X86472Y-76365D01*
X86440Y-76394D01*
X86380Y-76422D01*
X86322Y-76422D01*
X86269Y-76394D01*
X86244Y-76365D01*
X86222Y-76308D01*
X86208Y-76194D01*
X86226Y-76051D01*
X86269Y-75937D01*
X86305Y-75880D01*
X86337Y-75851D01*
X86397Y-75822D01*
X87094Y-76422D02*
X86751Y-76422D01*
X86922Y-76422D02*
X86997Y-75822D01*
X86930Y-75908D01*
X86865Y-75965D01*
X86805Y-75994D01*
X87658Y-76022D02*
X87608Y-76422D01*
X87544Y-75794D02*
X87347Y-76222D01*
X87719Y-76222D01*
X70972Y-77622D02*
X70972Y-77022D01*
X71315Y-77622D02*
X71058Y-77280D01*
X71315Y-77022D02*
X70972Y-77365D01*
X71572Y-77622D02*
X71572Y-77222D01*
X71572Y-77022D02*
X71544Y-77051D01*
X71572Y-77080D01*
X71601Y-77051D01*
X71572Y-77022D01*
X71572Y-77080D01*
X72201Y-77565D02*
X72172Y-77594D01*
X72087Y-77622D01*
X72030Y-77622D01*
X71944Y-77594D01*
X71887Y-77537D01*
X71858Y-77480D01*
X71830Y-77365D01*
X71830Y-77280D01*
X71858Y-77165D01*
X71887Y-77108D01*
X71944Y-77051D01*
X72030Y-77022D01*
X72087Y-77022D01*
X72172Y-77051D01*
X72201Y-77080D01*
X72715Y-77622D02*
X72715Y-77308D01*
X72687Y-77251D01*
X72630Y-77222D01*
X72515Y-77222D01*
X72458Y-77251D01*
X72715Y-77594D02*
X72658Y-77622D01*
X72515Y-77622D01*
X72458Y-77594D01*
X72430Y-77537D01*
X72430Y-77480D01*
X72458Y-77422D01*
X72515Y-77394D01*
X72658Y-77394D01*
X72715Y-77365D01*
X73258Y-77622D02*
X73258Y-77022D01*
X73258Y-77594D02*
X73201Y-77622D01*
X73087Y-77622D01*
X73030Y-77594D01*
X73001Y-77565D01*
X72972Y-77508D01*
X72972Y-77337D01*
X73001Y-77280D01*
X73030Y-77251D01*
X73087Y-77222D01*
X73201Y-77222D01*
X73258Y-77251D01*
X74001Y-77308D02*
X74201Y-77308D01*
X74287Y-77622D02*
X74001Y-77622D01*
X74001Y-77022D01*
X74287Y-77022D01*
X74544Y-77565D02*
X74572Y-77594D01*
X74544Y-77622D01*
X74515Y-77594D01*
X74544Y-77565D01*
X74544Y-77622D01*
X74829Y-77622D02*
X74829Y-77022D01*
X74972Y-77022D01*
X75058Y-77051D01*
X75115Y-77108D01*
X75144Y-77165D01*
X75172Y-77280D01*
X75172Y-77365D01*
X75144Y-77480D01*
X75115Y-77537D01*
X75058Y-77594D01*
X74972Y-77622D01*
X74829Y-77622D01*
X75429Y-77565D02*
X75458Y-77594D01*
X75429Y-77622D01*
X75401Y-77594D01*
X75429Y-77565D01*
X75429Y-77622D01*
X75687Y-77451D02*
X75972Y-77451D01*
X75629Y-77622D02*
X75829Y-77022D01*
X76029Y-77622D01*
X76229Y-77565D02*
X76258Y-77594D01*
X76229Y-77622D01*
X76201Y-77594D01*
X76229Y-77565D01*
X76229Y-77622D01*
X104522Y-76422D02*
X104358Y-76137D01*
X104180Y-76422D02*
X104255Y-75822D01*
X104483Y-75822D01*
X104537Y-75851D01*
X104562Y-75880D01*
X104583Y-75937D01*
X104572Y-76022D01*
X104537Y-76080D01*
X104505Y-76108D01*
X104444Y-76137D01*
X104215Y-76137D01*
X105012Y-76394D02*
X104951Y-76422D01*
X104837Y-76422D01*
X104783Y-76394D01*
X104762Y-76337D01*
X104790Y-76108D01*
X104826Y-76051D01*
X104887Y-76022D01*
X105001Y-76022D01*
X105055Y-76051D01*
X105076Y-76108D01*
X105069Y-76165D01*
X104776Y-76222D01*
X105287Y-76022D02*
X105380Y-76422D01*
X105572Y-76022D01*
X105758Y-76365D02*
X105783Y-76394D01*
X105751Y-76422D01*
X105726Y-76394D01*
X105758Y-76365D01*
X105751Y-76422D01*
X105797Y-76051D02*
X105822Y-76080D01*
X105790Y-76108D01*
X105765Y-76080D01*
X105797Y-76051D01*
X105790Y-76108D01*
X106855Y-75822D02*
X106569Y-75822D01*
X106505Y-76108D01*
X106537Y-76080D01*
X106597Y-76051D01*
X106740Y-76051D01*
X106794Y-76080D01*
X106819Y-76108D01*
X106840Y-76165D01*
X106822Y-76308D01*
X106787Y-76365D01*
X106755Y-76394D01*
X106694Y-76422D01*
X106551Y-76422D01*
X106497Y-76394D01*
X106472Y-76365D01*
X70944Y-76394D02*
X71030Y-76422D01*
X71172Y-76422D01*
X71230Y-76394D01*
X71258Y-76365D01*
X71287Y-76308D01*
X71287Y-76251D01*
X71258Y-76194D01*
X71230Y-76165D01*
X71172Y-76137D01*
X71058Y-76108D01*
X71001Y-76080D01*
X70972Y-76051D01*
X70944Y-75994D01*
X70944Y-75937D01*
X70972Y-75880D01*
X71001Y-75851D01*
X71058Y-75822D01*
X71201Y-75822D01*
X71287Y-75851D01*
X71544Y-76422D02*
X71544Y-76022D01*
X71544Y-75822D02*
X71515Y-75851D01*
X71544Y-75880D01*
X71572Y-75851D01*
X71544Y-75822D01*
X71544Y-75880D01*
X71772Y-76022D02*
X72087Y-76022D01*
X71772Y-76422D01*
X72087Y-76422D01*
X72544Y-76394D02*
X72487Y-76422D01*
X72372Y-76422D01*
X72315Y-76394D01*
X72287Y-76337D01*
X72287Y-76108D01*
X72315Y-76051D01*
X72372Y-76022D01*
X72487Y-76022D01*
X72544Y-76051D01*
X72572Y-76108D01*
X72572Y-76165D01*
X72287Y-76222D01*
X72830Y-76365D02*
X72858Y-76394D01*
X72830Y-76422D01*
X72801Y-76394D01*
X72830Y-76365D01*
X72830Y-76422D01*
X72830Y-76051D02*
X72858Y-76080D01*
X72830Y-76108D01*
X72801Y-76080D01*
X72830Y-76051D01*
X72830Y-76108D01*
X73544Y-76251D02*
X73830Y-76251D01*
X73487Y-76422D02*
X73687Y-75822D01*
X73887Y-76422D01*
X74344Y-76022D02*
X74344Y-76422D01*
X74201Y-75794D02*
X74058Y-76222D01*
X74430Y-76222D01*
X104172Y-77622D02*
X104172Y-77022D01*
X104715Y-77622D02*
X104715Y-77022D01*
X104715Y-77594D02*
X104658Y-77622D01*
X104544Y-77622D01*
X104487Y-77594D01*
X104458Y-77565D01*
X104430Y-77508D01*
X104430Y-77337D01*
X104458Y-77280D01*
X104487Y-77251D01*
X104544Y-77222D01*
X104658Y-77222D01*
X104715Y-77251D01*
X105001Y-77565D02*
X105030Y-77594D01*
X105001Y-77622D01*
X104972Y-77594D01*
X105001Y-77565D01*
X105001Y-77622D01*
X105001Y-77251D02*
X105030Y-77280D01*
X105001Y-77308D01*
X104972Y-77280D01*
X105001Y-77251D01*
X105001Y-77308D01*
X106058Y-77622D02*
X105715Y-77622D01*
X105887Y-77622D02*
X105887Y-77022D01*
X105829Y-77108D01*
X105772Y-77165D01*
X105715Y-77194D01*
X106744Y-76994D02*
X106230Y-77765D01*
X107258Y-77622D02*
X106915Y-77622D01*
X107087Y-77622D02*
X107087Y-77022D01*
X107029Y-77108D01*
X106972Y-77165D01*
X106915Y-77194D01*
X70969Y-74622D02*
X71312Y-74622D01*
X71065Y-75222D02*
X71140Y-74622D01*
X71437Y-75222D02*
X71487Y-74822D01*
X71512Y-74622D02*
X71480Y-74651D01*
X71505Y-74680D01*
X71537Y-74651D01*
X71512Y-74622D01*
X71505Y-74680D01*
X71687Y-74822D02*
X71915Y-74822D01*
X71797Y-74622D02*
X71733Y-75137D01*
X71755Y-75194D01*
X71808Y-75222D01*
X71865Y-75222D01*
X72151Y-75222D02*
X72097Y-75194D01*
X72076Y-75137D01*
X72140Y-74622D01*
X72612Y-75194D02*
X72551Y-75222D01*
X72437Y-75222D01*
X72383Y-75194D01*
X72362Y-75137D01*
X72390Y-74908D01*
X72426Y-74851D01*
X72487Y-74822D01*
X72601Y-74822D01*
X72655Y-74851D01*
X72676Y-74908D01*
X72669Y-74965D01*
X72376Y-75022D01*
X72901Y-75165D02*
X72926Y-75194D01*
X72894Y-75222D01*
X72869Y-75194D01*
X72901Y-75165D01*
X72894Y-75222D01*
X72940Y-74851D02*
X72965Y-74880D01*
X72933Y-74908D01*
X72908Y-74880D01*
X72940Y-74851D01*
X72933Y-74908D01*
X73637Y-75222D02*
X73712Y-74622D01*
X73858Y-75051D01*
X74112Y-74622D01*
X74037Y-75222D01*
X74315Y-74822D02*
X74408Y-75222D01*
X74601Y-74822D02*
X74408Y-75222D01*
X74333Y-75365D01*
X74301Y-75394D01*
X74240Y-75422D01*
X74780Y-75222D02*
X74830Y-74822D01*
X74815Y-74937D02*
X74851Y-74880D01*
X74883Y-74851D01*
X74944Y-74822D01*
X75001Y-74822D01*
X75151Y-75222D02*
X75201Y-74822D01*
X75226Y-74622D02*
X75194Y-74651D01*
X75219Y-74680D01*
X75251Y-74651D01*
X75226Y-74622D01*
X75219Y-74680D01*
X75694Y-75222D02*
X75733Y-74908D01*
X75712Y-74851D01*
X75658Y-74822D01*
X75544Y-74822D01*
X75483Y-74851D01*
X75697Y-75194D02*
X75637Y-75222D01*
X75494Y-75222D01*
X75440Y-75194D01*
X75419Y-75137D01*
X75426Y-75080D01*
X75462Y-75022D01*
X75522Y-74994D01*
X75665Y-74994D01*
X75726Y-74965D01*
X76237Y-75222D02*
X76312Y-74622D01*
X76240Y-75194D02*
X76180Y-75222D01*
X76065Y-75222D01*
X76012Y-75194D01*
X75987Y-75165D01*
X75965Y-75108D01*
X75987Y-74937D01*
X76022Y-74880D01*
X76055Y-74851D01*
X76115Y-74822D01*
X76230Y-74822D01*
X76283Y-74851D01*
X77322Y-75222D02*
X77158Y-74937D01*
X76980Y-75222D02*
X77055Y-74622D01*
X77283Y-74622D01*
X77337Y-74651D01*
X77362Y-74680D01*
X77383Y-74737D01*
X77372Y-74822D01*
X77337Y-74880D01*
X77305Y-74908D01*
X77244Y-74937D01*
X77015Y-74937D01*
X77819Y-74908D02*
X77619Y-74908D01*
X77580Y-75222D02*
X77655Y-74622D01*
X77940Y-74622D01*
X79058Y-74594D02*
X78447Y-75365D01*
X79637Y-75222D02*
X79712Y-74622D01*
X79980Y-75222D01*
X80055Y-74622D01*
X80351Y-75222D02*
X80297Y-75194D01*
X80272Y-75165D01*
X80251Y-75108D01*
X80272Y-74937D01*
X80308Y-74880D01*
X80340Y-74851D01*
X80401Y-74822D01*
X80487Y-74822D01*
X80540Y-74851D01*
X80565Y-74880D01*
X80587Y-74937D01*
X80565Y-75108D01*
X80530Y-75165D01*
X80497Y-75194D01*
X80437Y-75222D01*
X80351Y-75222D01*
X80801Y-74822D02*
X80894Y-75222D01*
X81087Y-74822D01*
X81497Y-75194D02*
X81437Y-75222D01*
X81322Y-75222D01*
X81269Y-75194D01*
X81247Y-75137D01*
X81276Y-74908D01*
X81312Y-74851D01*
X81372Y-74822D01*
X81487Y-74822D01*
X81540Y-74851D01*
X81562Y-74908D01*
X81555Y-74965D01*
X81262Y-75022D01*
X81830Y-74822D02*
X81780Y-75222D01*
X81822Y-74880D02*
X81855Y-74851D01*
X81915Y-74822D01*
X82001Y-74822D01*
X82055Y-74851D01*
X82076Y-74908D01*
X82037Y-75222D01*
X82580Y-75222D02*
X82619Y-74908D01*
X82597Y-74851D01*
X82544Y-74822D01*
X82430Y-74822D01*
X82369Y-74851D01*
X82583Y-75194D02*
X82522Y-75222D01*
X82380Y-75222D01*
X82326Y-75194D01*
X82305Y-75137D01*
X82312Y-75080D01*
X82347Y-75022D01*
X82408Y-74994D01*
X82551Y-74994D01*
X82612Y-74965D01*
X83315Y-74822D02*
X83408Y-75222D01*
X83601Y-74822D01*
X83787Y-75165D02*
X83812Y-75194D01*
X83780Y-75222D01*
X83755Y-75194D01*
X83787Y-75165D01*
X83780Y-75222D01*
X84380Y-75222D02*
X84037Y-75222D01*
X84208Y-75222D02*
X84283Y-74622D01*
X84215Y-74708D01*
X84151Y-74765D01*
X84090Y-74794D01*
X71172Y-72508D02*
X70972Y-72508D01*
X70972Y-72822D02*
X70972Y-72222D01*
X71258Y-72222D01*
X71487Y-72822D02*
X71487Y-72422D01*
X71487Y-72222D02*
X71458Y-72251D01*
X71487Y-72280D01*
X71515Y-72251D01*
X71487Y-72222D01*
X71487Y-72280D01*
X71858Y-72822D02*
X71801Y-72794D01*
X71772Y-72737D01*
X71772Y-72222D01*
X72315Y-72794D02*
X72258Y-72822D01*
X72144Y-72822D01*
X72087Y-72794D01*
X72058Y-72737D01*
X72058Y-72508D01*
X72087Y-72451D01*
X72144Y-72422D01*
X72258Y-72422D01*
X72315Y-72451D01*
X72344Y-72508D01*
X72344Y-72565D01*
X72058Y-72622D01*
X72601Y-72765D02*
X72630Y-72794D01*
X72601Y-72822D01*
X72572Y-72794D01*
X72601Y-72765D01*
X72601Y-72822D01*
X72601Y-72451D02*
X72630Y-72480D01*
X72601Y-72508D01*
X72572Y-72480D01*
X72601Y-72451D01*
X72601Y-72508D01*
X73344Y-72822D02*
X73344Y-72222D01*
X73544Y-72651D01*
X73744Y-72222D01*
X73744Y-72822D01*
X74144Y-72537D02*
X74144Y-72822D01*
X73944Y-72222D02*
X74144Y-72537D01*
X74344Y-72222D01*
X74887Y-72822D02*
X74687Y-72537D01*
X74544Y-72822D02*
X74544Y-72222D01*
X74772Y-72222D01*
X74830Y-72251D01*
X74858Y-72280D01*
X74887Y-72337D01*
X74887Y-72422D01*
X74858Y-72480D01*
X74830Y-72508D01*
X74772Y-72537D01*
X74544Y-72537D01*
X75144Y-72822D02*
X75144Y-72222D01*
X75401Y-72651D02*
X75687Y-72651D01*
X75344Y-72822D02*
X75544Y-72222D01*
X75744Y-72822D01*
X75944Y-72822D02*
X75944Y-72222D01*
X76087Y-72222D01*
X76172Y-72251D01*
X76230Y-72308D01*
X76258Y-72365D01*
X76287Y-72480D01*
X76287Y-72565D01*
X76258Y-72680D01*
X76230Y-72737D01*
X76172Y-72794D01*
X76087Y-72822D01*
X75944Y-72822D01*
X76401Y-72880D02*
X76858Y-72880D01*
X77344Y-72822D02*
X77144Y-72537D01*
X77001Y-72822D02*
X77001Y-72222D01*
X77230Y-72222D01*
X77287Y-72251D01*
X77315Y-72280D01*
X77344Y-72337D01*
X77344Y-72422D01*
X77315Y-72480D01*
X77287Y-72508D01*
X77230Y-72537D01*
X77001Y-72537D01*
X77801Y-72508D02*
X77601Y-72508D01*
X77601Y-72822D02*
X77601Y-72222D01*
X77887Y-72222D01*
X78115Y-72765D02*
X78144Y-72794D01*
X78115Y-72822D01*
X78087Y-72794D01*
X78115Y-72765D01*
X78115Y-72822D01*
X78401Y-72822D02*
X78401Y-72222D01*
X78401Y-72451D02*
X78458Y-72422D01*
X78572Y-72422D01*
X78630Y-72451D01*
X78658Y-72480D01*
X78687Y-72537D01*
X78687Y-72708D01*
X78658Y-72765D01*
X78630Y-72794D01*
X78572Y-72822D01*
X78458Y-72822D01*
X78401Y-72794D01*
X78944Y-72822D02*
X78944Y-72422D01*
X78944Y-72537D02*
X78972Y-72480D01*
X79001Y-72451D01*
X79058Y-72422D01*
X79115Y-72422D01*
X79572Y-72822D02*
X79572Y-72222D01*
X79572Y-72794D02*
X79515Y-72822D01*
X79401Y-72822D01*
X79344Y-72794D01*
X79315Y-72765D01*
X79287Y-72708D01*
X79287Y-72537D01*
X79315Y-72480D01*
X79344Y-72451D01*
X79401Y-72422D01*
X79515Y-72422D01*
X79572Y-72451D01*
X70944Y-73994D02*
X71030Y-74022D01*
X71172Y-74022D01*
X71230Y-73994D01*
X71258Y-73965D01*
X71287Y-73908D01*
X71287Y-73851D01*
X71258Y-73794D01*
X71230Y-73765D01*
X71172Y-73737D01*
X71058Y-73708D01*
X71001Y-73680D01*
X70972Y-73651D01*
X70944Y-73594D01*
X70944Y-73537D01*
X70972Y-73480D01*
X71001Y-73451D01*
X71058Y-73422D01*
X71201Y-73422D01*
X71287Y-73451D01*
X71544Y-74022D02*
X71544Y-73422D01*
X71801Y-74022D02*
X71801Y-73708D01*
X71772Y-73651D01*
X71715Y-73622D01*
X71630Y-73622D01*
X71572Y-73651D01*
X71544Y-73680D01*
X72315Y-73994D02*
X72258Y-74022D01*
X72144Y-74022D01*
X72087Y-73994D01*
X72058Y-73937D01*
X72058Y-73708D01*
X72087Y-73651D01*
X72144Y-73622D01*
X72258Y-73622D01*
X72315Y-73651D01*
X72344Y-73708D01*
X72344Y-73765D01*
X72058Y-73822D01*
X72830Y-73994D02*
X72772Y-74022D01*
X72658Y-74022D01*
X72601Y-73994D01*
X72572Y-73937D01*
X72572Y-73708D01*
X72601Y-73651D01*
X72658Y-73622D01*
X72772Y-73622D01*
X72830Y-73651D01*
X72858Y-73708D01*
X72858Y-73765D01*
X72572Y-73822D01*
X73030Y-73622D02*
X73258Y-73622D01*
X73115Y-73422D02*
X73115Y-73937D01*
X73144Y-73994D01*
X73201Y-74022D01*
X73258Y-74022D01*
X73458Y-73965D02*
X73487Y-73994D01*
X73458Y-74022D01*
X73430Y-73994D01*
X73458Y-73965D01*
X73458Y-74022D01*
X73458Y-73651D02*
X73487Y-73680D01*
X73458Y-73708D01*
X73430Y-73680D01*
X73458Y-73651D01*
X73458Y-73708D01*
X70887Y-69822D02*
X71230Y-69822D01*
X71058Y-70422D02*
X71058Y-69822D01*
X71430Y-70422D02*
X71430Y-69822D01*
X71430Y-70108D02*
X71772Y-70108D01*
X71772Y-70422D02*
X71772Y-69822D01*
X72058Y-70422D02*
X72058Y-69822D01*
X72315Y-70394D02*
X72401Y-70422D01*
X72544Y-70422D01*
X72601Y-70394D01*
X72629Y-70365D01*
X72658Y-70308D01*
X72658Y-70251D01*
X72629Y-70194D01*
X72601Y-70165D01*
X72544Y-70137D01*
X72429Y-70108D01*
X72372Y-70080D01*
X72344Y-70051D01*
X72315Y-69994D01*
X72315Y-69937D01*
X72344Y-69880D01*
X72372Y-69851D01*
X72429Y-69822D01*
X72572Y-69822D01*
X72658Y-69851D01*
X73315Y-69822D02*
X73458Y-70422D01*
X73572Y-69994D01*
X73687Y-70422D01*
X73830Y-69822D01*
X74172Y-69822D02*
X74287Y-69822D01*
X74344Y-69851D01*
X74401Y-69908D01*
X74430Y-70022D01*
X74430Y-70222D01*
X74401Y-70337D01*
X74344Y-70394D01*
X74287Y-70422D01*
X74172Y-70422D01*
X74115Y-70394D01*
X74058Y-70337D01*
X74030Y-70222D01*
X74030Y-70022D01*
X74058Y-69908D01*
X74115Y-69851D01*
X74172Y-69822D01*
X75029Y-70422D02*
X74829Y-70137D01*
X74687Y-70422D02*
X74687Y-69822D01*
X74915Y-69822D01*
X74972Y-69851D01*
X75001Y-69880D01*
X75029Y-69937D01*
X75029Y-70022D01*
X75001Y-70080D01*
X74972Y-70108D01*
X74915Y-70137D01*
X74687Y-70137D01*
X75287Y-70422D02*
X75287Y-69822D01*
X75629Y-70422D02*
X75372Y-70080D01*
X75629Y-69822D02*
X75287Y-70165D01*
X76344Y-70422D02*
X76344Y-69822D01*
X76601Y-70394D02*
X76687Y-70422D01*
X76829Y-70422D01*
X76887Y-70394D01*
X76915Y-70365D01*
X76944Y-70308D01*
X76944Y-70251D01*
X76915Y-70194D01*
X76887Y-70165D01*
X76829Y-70137D01*
X76715Y-70108D01*
X76658Y-70080D01*
X76629Y-70051D01*
X76601Y-69994D01*
X76601Y-69937D01*
X76629Y-69880D01*
X76658Y-69851D01*
X76715Y-69822D01*
X76858Y-69822D01*
X76944Y-69851D01*
X78001Y-70365D02*
X77972Y-70394D01*
X77887Y-70422D01*
X77830Y-70422D01*
X77744Y-70394D01*
X77687Y-70337D01*
X77658Y-70280D01*
X77630Y-70165D01*
X77630Y-70080D01*
X77658Y-69965D01*
X77687Y-69908D01*
X77744Y-69851D01*
X77830Y-69822D01*
X77887Y-69822D01*
X77972Y-69851D01*
X78001Y-69880D01*
X78372Y-69822D02*
X78487Y-69822D01*
X78544Y-69851D01*
X78601Y-69908D01*
X78630Y-70022D01*
X78630Y-70222D01*
X78601Y-70337D01*
X78544Y-70394D01*
X78487Y-70422D01*
X78372Y-70422D01*
X78315Y-70394D01*
X78258Y-70337D01*
X78230Y-70222D01*
X78230Y-70022D01*
X78258Y-69908D01*
X78315Y-69851D01*
X78372Y-69822D01*
X78801Y-69822D02*
X79001Y-70422D01*
X79201Y-69822D01*
X79401Y-70108D02*
X79601Y-70108D01*
X79687Y-70422D02*
X79401Y-70422D01*
X79401Y-69822D01*
X79687Y-69822D01*
X80287Y-70422D02*
X80087Y-70137D01*
X79944Y-70422D02*
X79944Y-69822D01*
X80172Y-69822D01*
X80229Y-69851D01*
X80258Y-69880D01*
X80287Y-69937D01*
X80287Y-70022D01*
X80258Y-70080D01*
X80229Y-70108D01*
X80172Y-70137D01*
X79944Y-70137D01*
X80544Y-70108D02*
X80744Y-70108D01*
X80829Y-70422D02*
X80544Y-70422D01*
X80544Y-69822D01*
X80829Y-69822D01*
X81087Y-70422D02*
X81087Y-69822D01*
X81229Y-69822D01*
X81315Y-69851D01*
X81372Y-69908D01*
X81401Y-69965D01*
X81429Y-70080D01*
X81429Y-70165D01*
X81401Y-70280D01*
X81372Y-70337D01*
X81315Y-70394D01*
X81229Y-70422D01*
X81087Y-70422D01*
X82144Y-69822D02*
X82144Y-70308D01*
X82172Y-70365D01*
X82201Y-70394D01*
X82258Y-70422D01*
X82372Y-70422D01*
X82429Y-70394D01*
X82458Y-70365D01*
X82487Y-70308D01*
X82487Y-69822D01*
X82772Y-70422D02*
X82772Y-69822D01*
X83115Y-70422D01*
X83115Y-69822D01*
X83401Y-70422D02*
X83401Y-69822D01*
X83544Y-69822D01*
X83629Y-69851D01*
X83687Y-69908D01*
X83715Y-69965D01*
X83744Y-70080D01*
X83744Y-70165D01*
X83715Y-70280D01*
X83687Y-70337D01*
X83629Y-70394D01*
X83544Y-70422D01*
X83401Y-70422D01*
X84001Y-70108D02*
X84201Y-70108D01*
X84287Y-70422D02*
X84001Y-70422D01*
X84001Y-69822D01*
X84287Y-69822D01*
X84887Y-70422D02*
X84687Y-70137D01*
X84544Y-70422D02*
X84544Y-69822D01*
X84772Y-69822D01*
X84829Y-69851D01*
X84858Y-69880D01*
X84887Y-69937D01*
X84887Y-70022D01*
X84858Y-70080D01*
X84829Y-70108D01*
X84772Y-70137D01*
X84544Y-70137D01*
X85572Y-70251D02*
X85858Y-70251D01*
X85515Y-70422D02*
X85715Y-69822D01*
X85915Y-70422D01*
X86915Y-70365D02*
X86887Y-70394D01*
X86801Y-70422D01*
X86744Y-70422D01*
X86658Y-70394D01*
X86601Y-70337D01*
X86572Y-70280D01*
X86544Y-70165D01*
X86544Y-70080D01*
X86572Y-69965D01*
X86601Y-69908D01*
X86658Y-69851D01*
X86744Y-69822D01*
X86801Y-69822D01*
X86887Y-69851D01*
X86915Y-69880D01*
X87515Y-70422D02*
X87315Y-70137D01*
X87172Y-70422D02*
X87172Y-69822D01*
X87401Y-69822D01*
X87458Y-69851D01*
X87487Y-69880D01*
X87515Y-69937D01*
X87515Y-70022D01*
X87487Y-70080D01*
X87458Y-70108D01*
X87401Y-70137D01*
X87172Y-70137D01*
X87772Y-70108D02*
X87972Y-70108D01*
X88058Y-70422D02*
X87772Y-70422D01*
X87772Y-69822D01*
X88058Y-69822D01*
X88287Y-70251D02*
X88572Y-70251D01*
X88229Y-70422D02*
X88429Y-69822D01*
X88629Y-70422D01*
X88744Y-69822D02*
X89087Y-69822D01*
X88915Y-70422D02*
X88915Y-69822D01*
X89287Y-70422D02*
X89287Y-69822D01*
X89487Y-69822D02*
X89687Y-70422D01*
X89887Y-69822D01*
X90087Y-70108D02*
X90287Y-70108D01*
X90372Y-70422D02*
X90087Y-70422D01*
X90087Y-69822D01*
X90372Y-69822D01*
X91429Y-70365D02*
X91401Y-70394D01*
X91315Y-70422D01*
X91258Y-70422D01*
X91172Y-70394D01*
X91115Y-70337D01*
X91087Y-70280D01*
X91058Y-70165D01*
X91058Y-70080D01*
X91087Y-69965D01*
X91115Y-69908D01*
X91172Y-69851D01*
X91258Y-69822D01*
X91315Y-69822D01*
X91401Y-69851D01*
X91429Y-69880D01*
X91801Y-69822D02*
X91915Y-69822D01*
X91972Y-69851D01*
X92029Y-69908D01*
X92058Y-70022D01*
X92058Y-70222D01*
X92029Y-70337D01*
X91972Y-70394D01*
X91915Y-70422D01*
X91801Y-70422D01*
X91744Y-70394D01*
X91687Y-70337D01*
X91658Y-70222D01*
X91658Y-70022D01*
X91687Y-69908D01*
X91744Y-69851D01*
X91801Y-69822D01*
X92315Y-70422D02*
X92315Y-69822D01*
X92515Y-70251D01*
X92715Y-69822D01*
X92715Y-70422D01*
X93001Y-70422D02*
X93001Y-69822D01*
X93201Y-70251D01*
X93401Y-69822D01*
X93401Y-70422D01*
X93801Y-69822D02*
X93915Y-69822D01*
X93972Y-69851D01*
X94029Y-69908D01*
X94058Y-70022D01*
X94058Y-70222D01*
X94029Y-70337D01*
X93972Y-70394D01*
X93915Y-70422D01*
X93801Y-70422D01*
X93744Y-70394D01*
X93687Y-70337D01*
X93658Y-70222D01*
X93658Y-70022D01*
X93687Y-69908D01*
X93744Y-69851D01*
X93801Y-69822D01*
X94315Y-70422D02*
X94315Y-69822D01*
X94658Y-70422D01*
X94658Y-69822D01*
X94915Y-70394D02*
X95001Y-70422D01*
X95144Y-70422D01*
X95201Y-70394D01*
X95229Y-70365D01*
X95258Y-70308D01*
X95258Y-70251D01*
X95229Y-70194D01*
X95201Y-70165D01*
X95144Y-70137D01*
X95029Y-70108D01*
X94972Y-70080D01*
X94944Y-70051D01*
X94915Y-69994D01*
X94915Y-69937D01*
X94944Y-69880D01*
X94972Y-69851D01*
X95029Y-69822D01*
X95172Y-69822D01*
X95258Y-69851D01*
X96258Y-70422D02*
X95972Y-70422D01*
X95972Y-69822D01*
X96458Y-70422D02*
X96458Y-69822D01*
X97087Y-70365D02*
X97058Y-70394D01*
X96972Y-70422D01*
X96915Y-70422D01*
X96829Y-70394D01*
X96772Y-70337D01*
X96744Y-70280D01*
X96715Y-70165D01*
X96715Y-70080D01*
X96744Y-69965D01*
X96772Y-69908D01*
X96829Y-69851D01*
X96915Y-69822D01*
X96972Y-69822D01*
X97058Y-69851D01*
X97087Y-69880D01*
X97344Y-70108D02*
X97544Y-70108D01*
X97629Y-70422D02*
X97344Y-70422D01*
X97344Y-69822D01*
X97629Y-69822D01*
X97887Y-70422D02*
X97887Y-69822D01*
X98229Y-70422D01*
X98229Y-69822D01*
X98487Y-70394D02*
X98572Y-70422D01*
X98715Y-70422D01*
X98772Y-70394D01*
X98801Y-70365D01*
X98829Y-70308D01*
X98829Y-70251D01*
X98801Y-70194D01*
X98772Y-70165D01*
X98715Y-70137D01*
X98601Y-70108D01*
X98544Y-70080D01*
X98515Y-70051D01*
X98487Y-69994D01*
X98487Y-69937D01*
X98515Y-69880D01*
X98544Y-69851D01*
X98601Y-69822D01*
X98744Y-69822D01*
X98829Y-69851D01*
X99087Y-70108D02*
X99287Y-70108D01*
X99372Y-70422D02*
X99087Y-70422D01*
X99087Y-69822D01*
X99372Y-69822D01*
X100258Y-70651D02*
X100229Y-70622D01*
X100172Y-70537D01*
X100144Y-70480D01*
X100115Y-70394D01*
X100087Y-70251D01*
X100087Y-70137D01*
X100115Y-69994D01*
X100144Y-69908D01*
X100172Y-69851D01*
X100229Y-69765D01*
X100258Y-69737D01*
X100829Y-70365D02*
X100801Y-70394D01*
X100715Y-70422D01*
X100658Y-70422D01*
X100572Y-70394D01*
X100515Y-70337D01*
X100487Y-70280D01*
X100458Y-70165D01*
X100458Y-70080D01*
X100487Y-69965D01*
X100515Y-69908D01*
X100572Y-69851D01*
X100658Y-69822D01*
X100715Y-69822D01*
X100801Y-69851D01*
X100829Y-69880D01*
X101429Y-70365D02*
X101401Y-70394D01*
X101315Y-70422D01*
X101258Y-70422D01*
X101172Y-70394D01*
X101115Y-70337D01*
X101087Y-70280D01*
X101058Y-70165D01*
X101058Y-70080D01*
X101087Y-69965D01*
X101115Y-69908D01*
X101172Y-69851D01*
X101258Y-69822D01*
X101315Y-69822D01*
X101401Y-69851D01*
X101429Y-69880D01*
X102344Y-70108D02*
X102429Y-70137D01*
X102458Y-70165D01*
X102487Y-70222D01*
X102487Y-70308D01*
X102458Y-70365D01*
X102429Y-70394D01*
X102372Y-70422D01*
X102144Y-70422D01*
X102144Y-69822D01*
X102344Y-69822D01*
X102401Y-69851D01*
X102429Y-69880D01*
X102458Y-69937D01*
X102458Y-69994D01*
X102429Y-70051D01*
X102401Y-70080D01*
X102344Y-70108D01*
X102144Y-70108D01*
X102858Y-70137D02*
X102858Y-70422D01*
X102658Y-69822D02*
X102858Y-70137D01*
X103058Y-69822D01*
X103658Y-69822D02*
X104029Y-69822D01*
X103829Y-70051D01*
X103915Y-70051D01*
X103972Y-70080D01*
X104001Y-70108D01*
X104029Y-70165D01*
X104029Y-70308D01*
X104001Y-70365D01*
X103972Y-70394D01*
X103915Y-70422D01*
X103744Y-70422D01*
X103687Y-70394D01*
X103658Y-70365D01*
X104287Y-70365D02*
X104315Y-70394D01*
X104287Y-70422D01*
X104258Y-70394D01*
X104287Y-70365D01*
X104287Y-70422D01*
X104687Y-69822D02*
X104744Y-69822D01*
X104801Y-69851D01*
X104829Y-69880D01*
X104858Y-69937D01*
X104887Y-70051D01*
X104887Y-70194D01*
X104858Y-70308D01*
X104829Y-70365D01*
X104801Y-70394D01*
X104744Y-70422D01*
X104687Y-70422D01*
X104629Y-70394D01*
X104601Y-70365D01*
X104572Y-70308D01*
X104544Y-70194D01*
X104544Y-70051D01*
X104572Y-69937D01*
X104601Y-69880D01*
X104629Y-69851D01*
X104687Y-69822D01*
X105087Y-70651D02*
X105115Y-70622D01*
X105172Y-70537D01*
X105201Y-70480D01*
X105229Y-70394D01*
X105258Y-70251D01*
X105258Y-70137D01*
X105229Y-69994D01*
X105201Y-69908D01*
X105172Y-69851D01*
X105115Y-69765D01*
X105087Y-69737D01*
X71315Y-69165D02*
X71287Y-69194D01*
X71201Y-69222D01*
X71144Y-69222D01*
X71058Y-69194D01*
X71001Y-69137D01*
X70972Y-69080D01*
X70944Y-68965D01*
X70944Y-68880D01*
X70972Y-68765D01*
X71001Y-68708D01*
X71058Y-68651D01*
X71144Y-68622D01*
X71201Y-68622D01*
X71287Y-68651D01*
X71315Y-68680D01*
X71658Y-69222D02*
X71601Y-69194D01*
X71572Y-69165D01*
X71544Y-69108D01*
X71544Y-68937D01*
X71572Y-68880D01*
X71601Y-68851D01*
X71658Y-68822D01*
X71744Y-68822D01*
X71801Y-68851D01*
X71830Y-68880D01*
X71858Y-68937D01*
X71858Y-69108D01*
X71830Y-69165D01*
X71801Y-69194D01*
X71744Y-69222D01*
X71658Y-69222D01*
X72115Y-68822D02*
X72115Y-69422D01*
X72115Y-68851D02*
X72172Y-68822D01*
X72287Y-68822D01*
X72344Y-68851D01*
X72372Y-68880D01*
X72401Y-68937D01*
X72401Y-69108D01*
X72372Y-69165D01*
X72344Y-69194D01*
X72287Y-69222D01*
X72172Y-69222D01*
X72115Y-69194D01*
X72601Y-68822D02*
X72744Y-69222D01*
X72887Y-68822D02*
X72744Y-69222D01*
X72687Y-69365D01*
X72658Y-69394D01*
X72601Y-69422D01*
X73115Y-69222D02*
X73115Y-68822D01*
X73115Y-68937D02*
X73144Y-68880D01*
X73172Y-68851D01*
X73230Y-68822D01*
X73287Y-68822D01*
X73487Y-69222D02*
X73487Y-68822D01*
X73487Y-68622D02*
X73458Y-68651D01*
X73487Y-68680D01*
X73515Y-68651D01*
X73487Y-68622D01*
X73487Y-68680D01*
X74030Y-68822D02*
X74030Y-69308D01*
X74001Y-69365D01*
X73972Y-69394D01*
X73915Y-69422D01*
X73830Y-69422D01*
X73772Y-69394D01*
X74030Y-69194D02*
X73972Y-69222D01*
X73858Y-69222D01*
X73801Y-69194D01*
X73772Y-69165D01*
X73744Y-69108D01*
X73744Y-68937D01*
X73772Y-68880D01*
X73801Y-68851D01*
X73858Y-68822D01*
X73972Y-68822D01*
X74030Y-68851D01*
X74315Y-69222D02*
X74315Y-68622D01*
X74572Y-69222D02*
X74572Y-68908D01*
X74544Y-68851D01*
X74487Y-68822D01*
X74401Y-68822D01*
X74344Y-68851D01*
X74315Y-68880D01*
X74772Y-68822D02*
X75001Y-68822D01*
X74858Y-68622D02*
X74858Y-69137D01*
X74887Y-69194D01*
X74944Y-69222D01*
X75001Y-69222D01*
X75630Y-68680D02*
X75658Y-68651D01*
X75715Y-68622D01*
X75858Y-68622D01*
X75915Y-68651D01*
X75944Y-68680D01*
X75972Y-68737D01*
X75972Y-68794D01*
X75944Y-68880D01*
X75601Y-69222D01*
X75972Y-69222D01*
X76344Y-68622D02*
X76401Y-68622D01*
X76458Y-68651D01*
X76487Y-68680D01*
X76515Y-68737D01*
X76544Y-68851D01*
X76544Y-68994D01*
X76515Y-69108D01*
X76487Y-69165D01*
X76458Y-69194D01*
X76401Y-69222D01*
X76344Y-69222D01*
X76287Y-69194D01*
X76258Y-69165D01*
X76230Y-69108D01*
X76201Y-68994D01*
X76201Y-68851D01*
X76230Y-68737D01*
X76258Y-68680D01*
X76287Y-68651D01*
X76344Y-68622D01*
X77115Y-69222D02*
X76772Y-69222D01*
X76944Y-69222D02*
X76944Y-68622D01*
X76887Y-68708D01*
X76830Y-68765D01*
X76772Y-68794D01*
X77315Y-68622D02*
X77687Y-68622D01*
X77487Y-68851D01*
X77572Y-68851D01*
X77630Y-68880D01*
X77658Y-68908D01*
X77687Y-68965D01*
X77687Y-69108D01*
X77658Y-69165D01*
X77630Y-69194D01*
X77572Y-69222D01*
X77401Y-69222D01*
X77344Y-69194D01*
X77315Y-69165D01*
X78372Y-69051D02*
X78658Y-69051D01*
X78315Y-69222D02*
X78515Y-68622D01*
X78715Y-69222D01*
X78858Y-68622D02*
X79258Y-68622D01*
X78858Y-69222D01*
X79258Y-69222D01*
X79487Y-69222D02*
X79487Y-68622D01*
X79887Y-68622D02*
X80001Y-68622D01*
X80058Y-68651D01*
X80115Y-68708D01*
X80144Y-68822D01*
X80144Y-69022D01*
X80115Y-69137D01*
X80058Y-69194D01*
X80001Y-69222D01*
X79887Y-69222D01*
X79830Y-69194D01*
X79772Y-69137D01*
X79744Y-69022D01*
X79744Y-68822D01*
X79772Y-68708D01*
X79830Y-68651D01*
X79887Y-68622D01*
X80858Y-68908D02*
X81058Y-68908D01*
X81144Y-69222D02*
X80858Y-69222D01*
X80858Y-68622D01*
X81144Y-68622D01*
X81487Y-69222D02*
X81430Y-69194D01*
X81401Y-69137D01*
X81401Y-68622D01*
X81944Y-69194D02*
X81887Y-69222D01*
X81772Y-69222D01*
X81715Y-69194D01*
X81687Y-69137D01*
X81687Y-68908D01*
X81715Y-68851D01*
X81772Y-68822D01*
X81887Y-68822D01*
X81944Y-68851D01*
X81972Y-68908D01*
X81972Y-68965D01*
X81687Y-69022D01*
X82487Y-69194D02*
X82430Y-69222D01*
X82315Y-69222D01*
X82258Y-69194D01*
X82230Y-69165D01*
X82201Y-69108D01*
X82201Y-68937D01*
X82230Y-68880D01*
X82258Y-68851D01*
X82315Y-68822D01*
X82430Y-68822D01*
X82487Y-68851D01*
X82658Y-68822D02*
X82887Y-68822D01*
X82744Y-68622D02*
X82744Y-69137D01*
X82772Y-69194D01*
X82830Y-69222D01*
X82887Y-69222D01*
X83087Y-69222D02*
X83087Y-68822D01*
X83087Y-68937D02*
X83115Y-68880D01*
X83144Y-68851D01*
X83201Y-68822D01*
X83258Y-68822D01*
X83544Y-69222D02*
X83487Y-69194D01*
X83458Y-69165D01*
X83430Y-69108D01*
X83430Y-68937D01*
X83458Y-68880D01*
X83487Y-68851D01*
X83544Y-68822D01*
X83630Y-68822D01*
X83687Y-68851D01*
X83715Y-68880D01*
X83744Y-68937D01*
X83744Y-69108D01*
X83715Y-69165D01*
X83687Y-69194D01*
X83630Y-69222D01*
X83544Y-69222D01*
X84001Y-68822D02*
X84001Y-69222D01*
X84001Y-68880D02*
X84030Y-68851D01*
X84087Y-68822D01*
X84172Y-68822D01*
X84230Y-68851D01*
X84258Y-68908D01*
X84258Y-69222D01*
X84544Y-69222D02*
X84544Y-68822D01*
X84544Y-68622D02*
X84515Y-68651D01*
X84544Y-68680D01*
X84572Y-68651D01*
X84544Y-68622D01*
X84544Y-68680D01*
X85087Y-69194D02*
X85030Y-69222D01*
X84915Y-69222D01*
X84858Y-69194D01*
X84830Y-69165D01*
X84801Y-69108D01*
X84801Y-68937D01*
X84830Y-68880D01*
X84858Y-68851D01*
X84915Y-68822D01*
X85030Y-68822D01*
X85087Y-68851D01*
X85315Y-69194D02*
X85372Y-69222D01*
X85487Y-69222D01*
X85544Y-69194D01*
X85572Y-69137D01*
X85572Y-69108D01*
X85544Y-69051D01*
X85487Y-69022D01*
X85401Y-69022D01*
X85344Y-68994D01*
X85315Y-68937D01*
X85315Y-68908D01*
X85344Y-68851D01*
X85401Y-68822D01*
X85487Y-68822D01*
X85544Y-68851D01*
X86630Y-69165D02*
X86601Y-69194D01*
X86515Y-69222D01*
X86458Y-69222D01*
X86372Y-69194D01*
X86315Y-69137D01*
X86287Y-69080D01*
X86258Y-68965D01*
X86258Y-68880D01*
X86287Y-68765D01*
X86315Y-68708D01*
X86372Y-68651D01*
X86458Y-68622D01*
X86515Y-68622D01*
X86601Y-68651D01*
X86630Y-68680D01*
X86972Y-69222D02*
X86915Y-69194D01*
X86887Y-69165D01*
X86858Y-69108D01*
X86858Y-68937D01*
X86887Y-68880D01*
X86915Y-68851D01*
X86972Y-68822D01*
X87058Y-68822D01*
X87115Y-68851D01*
X87144Y-68880D01*
X87172Y-68937D01*
X87172Y-69108D01*
X87144Y-69165D01*
X87115Y-69194D01*
X87058Y-69222D01*
X86972Y-69222D01*
X87430Y-69165D02*
X87458Y-69194D01*
X87430Y-69222D01*
X87401Y-69194D01*
X87430Y-69165D01*
X87430Y-69222D01*
X87744Y-69194D02*
X87744Y-69222D01*
X87715Y-69280D01*
X87687Y-69308D01*
X88744Y-69222D02*
X88458Y-69222D01*
X88458Y-68622D01*
X88858Y-68822D02*
X89087Y-68822D01*
X88944Y-68622D02*
X88944Y-69137D01*
X88972Y-69194D01*
X89030Y-69222D01*
X89087Y-69222D01*
X89544Y-69222D02*
X89544Y-68622D01*
X89544Y-69194D02*
X89487Y-69222D01*
X89372Y-69222D01*
X89315Y-69194D01*
X89287Y-69165D01*
X89258Y-69108D01*
X89258Y-68937D01*
X89287Y-68880D01*
X89315Y-68851D01*
X89372Y-68822D01*
X89487Y-68822D01*
X89544Y-68851D01*
X89830Y-69165D02*
X89858Y-69194D01*
X89830Y-69222D01*
X89801Y-69194D01*
X89830Y-69165D01*
X89830Y-69222D01*
X70230Y-68380D02*
X70230Y-77980D01*
X70230Y-71980D02*
X112230Y-71980D01*
X70230Y-68380D02*
X112230Y-68380D01*
X70230Y-74380D02*
X112230Y-74380D01*
X103430Y-75580D02*
X103430Y-77980D01*
X70230Y-76780D02*
X112230Y-76780D01*
X70230Y-75580D02*
X112230Y-75580D01*
X76830Y-75580D02*
X76830Y-76780D01*
G54D11*
X62086Y-37515D02*
X62086Y-36799D01*
X50622Y-40984D02*
X50618Y-40984D01*
X50622Y-42472D02*
X50622Y-40984D01*
X50830Y-42681D02*
X50622Y-42472D01*
X62086Y-36799D02*
X62090Y-36799D01*
X61866Y-37736D02*
X62086Y-37515D01*
X60291Y-37728D02*
X61877Y-37728D01*
X60157Y-37594D02*
X60291Y-37728D01*
X60157Y-36755D02*
X60157Y-37594D01*
X60011Y-36610D02*
X60157Y-36755D01*
X59732Y-36610D02*
X60011Y-36610D01*
X53614Y-42688D02*
X50838Y-42688D01*
X53984Y-42318D02*
X53614Y-42688D01*
X53984Y-38685D02*
X53984Y-42318D01*
X54622Y-38047D02*
X53984Y-38685D01*
X56759Y-38047D02*
X54622Y-38047D01*
X46007Y-30019D02*
X48110Y-30019D01*
X48110Y-30019D02*
X48110Y-32834D01*
X48110Y-32834D02*
X56425Y-32834D01*
X46007Y-30019D02*
X46007Y-34570D01*
X41283Y-52483D02*
X41283Y-27680D01*
X67661Y-52483D02*
X41283Y-52483D01*
X67661Y-27680D02*
X67661Y-52483D01*
X41283Y-27680D02*
X67661Y-27680D01*
X64905Y-32834D02*
X64905Y-39492D01*
X57764Y-32834D02*
X64905Y-32834D01*
X57764Y-32677D02*
X57764Y-29648D01*
X65692Y-29650D02*
X57764Y-29650D01*
X65692Y-39492D02*
X65692Y-29650D01*
X64905Y-39492D02*
X65692Y-39492D01*
X57764Y-50515D02*
X57764Y-49728D01*
X65692Y-50515D02*
X57764Y-50515D01*
X65692Y-40948D02*
X65692Y-50515D01*
X64905Y-40948D02*
X65692Y-40948D01*
X64905Y-49728D02*
X64905Y-40948D01*
X57764Y-49728D02*
X64905Y-49728D01*
X45220Y-50515D02*
X45220Y-44413D01*
X56386Y-50515D02*
X45220Y-50515D01*
X56386Y-49728D02*
X56386Y-50515D01*
X46007Y-49728D02*
X56386Y-49728D01*
X46007Y-44413D02*
X46007Y-49728D01*
X46007Y-44413D02*
X45220Y-44413D01*
X45220Y-43390D02*
X45220Y-35555D01*
X46007Y-43390D02*
X45220Y-43390D01*
X46007Y-35555D02*
X46007Y-43390D01*
X46007Y-35555D02*
X45220Y-35555D01*
X46007Y-34570D02*
X45220Y-34570D01*
X45220Y-29648D02*
X45220Y-34570D01*
X45220Y-29648D02*
X56384Y-29648D01*
X56384Y-32834D02*
X56384Y-29648D01*
G54D10*
X63203Y-43237D02*
X63383Y-43237D01*
X63293Y-43552D02*
X63293Y-43237D01*
X63458Y-43237D02*
X63668Y-43552D01*
X63668Y-43237D02*
X63458Y-43552D01*
X63743Y-43237D02*
X63923Y-43237D01*
X63833Y-43552D02*
X63833Y-43237D01*
X64028Y-43387D02*
X64133Y-43387D01*
X64178Y-43552D02*
X64028Y-43552D01*
X64028Y-43237D01*
X64178Y-43237D01*
X64298Y-43537D02*
X64343Y-43552D01*
X64418Y-43552D01*
X64448Y-43537D01*
X64463Y-43522D01*
X64478Y-43492D01*
X64478Y-43462D01*
X64463Y-43432D01*
X64448Y-43417D01*
X64418Y-43402D01*
X64358Y-43387D01*
X64328Y-43372D01*
X64313Y-43357D01*
X64298Y-43327D01*
X64298Y-43297D01*
X64313Y-43267D01*
X64328Y-43252D01*
X64358Y-43237D01*
X64433Y-43237D01*
X64478Y-43252D01*
X64568Y-43237D02*
X64748Y-43237D01*
X64658Y-43552D02*
X64658Y-43237D01*
X63371Y-36627D02*
X63266Y-36477D01*
X63191Y-36627D02*
X63191Y-36312D01*
X63311Y-36312D01*
X63341Y-36327D01*
X63356Y-36342D01*
X63371Y-36372D01*
X63371Y-36417D01*
X63356Y-36447D01*
X63341Y-36462D01*
X63311Y-36477D01*
X63191Y-36477D01*
X63476Y-36312D02*
X63686Y-36627D01*
X63686Y-36312D02*
X63476Y-36627D01*
X63761Y-36312D02*
X63941Y-36312D01*
X63851Y-36627D02*
X63851Y-36312D01*
X64046Y-36462D02*
X64151Y-36462D01*
X64196Y-36627D02*
X64046Y-36627D01*
X64046Y-36312D01*
X64196Y-36312D01*
X64316Y-36612D02*
X64361Y-36627D01*
X64436Y-36627D01*
X64466Y-36612D01*
X64481Y-36597D01*
X64496Y-36567D01*
X64496Y-36537D01*
X64481Y-36507D01*
X64466Y-36492D01*
X64436Y-36477D01*
X64376Y-36462D01*
X64346Y-36447D01*
X64331Y-36432D01*
X64316Y-36402D01*
X64316Y-36372D01*
X64331Y-36342D01*
X64346Y-36327D01*
X64376Y-36312D01*
X64451Y-36312D01*
X64496Y-36327D01*
X64586Y-36312D02*
X64766Y-36312D01*
X64676Y-36627D02*
X64676Y-36312D01*
G54D11*
X49566Y-33897D02*
X49410Y-33897D01*
X49955Y-33909D02*
X49799Y-33909D01*
X51523Y-35221D02*
X51367Y-35221D01*
X61685Y-36637D02*
X61685Y-36481D01*
X60438Y-41181D02*
X60594Y-41181D01*
X55377Y-38744D02*
X55221Y-38744D01*
X60960Y-41165D02*
X60804Y-41165D01*
X60540Y-38599D02*
X60696Y-38599D01*
X60342Y-38587D02*
X60186Y-38587D01*
X59587Y-37839D02*
X59743Y-37839D01*
X59681Y-43495D02*
X59681Y-43299D01*
X57923Y-36122D02*
X57727Y-36122D01*
X59673Y-42491D02*
X59673Y-42295D01*
X58630Y-35838D02*
X58630Y-35642D01*
X57272Y-36885D02*
X57272Y-36689D01*
X58374Y-36398D02*
X58570Y-36398D01*
X57264Y-35610D02*
X57264Y-35414D01*
X58787Y-37968D02*
X58787Y-37772D01*
X59350Y-36417D02*
X59154Y-36417D01*
X58090Y-42609D02*
X58090Y-42413D01*
X57401Y-42405D02*
X57401Y-42601D01*
X61075Y-42543D02*
X61271Y-42543D01*
X60633Y-43180D02*
X60633Y-42984D01*
X60079Y-42551D02*
X60275Y-42551D01*
X57067Y-38082D02*
X57067Y-37886D01*
X56398Y-36598D02*
X56398Y-36402D01*
X55720Y-36398D02*
X55720Y-36594D01*
X57874Y-38090D02*
X57874Y-37894D01*
X59193Y-35227D02*
X59193Y-35383D01*
X61625Y-43070D02*
X61469Y-43070D01*
X61251Y-43259D02*
X61095Y-43259D01*
X60677Y-42634D02*
X60677Y-42790D01*
X60227Y-43259D02*
X60071Y-43259D01*
X59677Y-43006D02*
X59677Y-43162D01*
X59677Y-42642D02*
X59677Y-42798D01*
X59123Y-42901D02*
X59279Y-42901D01*
X59499Y-36407D02*
X59655Y-36407D01*
X57409Y-45626D02*
X57409Y-45782D01*
X57799Y-34981D02*
X57799Y-35137D01*
X57999Y-43007D02*
X57843Y-43007D01*
X57648Y-43007D02*
X57492Y-43007D01*
X57744Y-42103D02*
X57744Y-42259D01*
X58934Y-37303D02*
X59090Y-37303D01*
X59425Y-35666D02*
X59425Y-35822D01*
X58721Y-36398D02*
X58877Y-36398D01*
X57363Y-36112D02*
X57519Y-36112D01*
X52153Y-36418D02*
X52153Y-36574D01*
X58002Y-35444D02*
X58002Y-35600D01*
X57993Y-37402D02*
X58149Y-37402D01*
X57599Y-37402D02*
X57755Y-37402D01*
X57182Y-37398D02*
X57338Y-37398D01*
X58002Y-36703D02*
X58002Y-36859D01*
X57941Y-34355D02*
X57941Y-34511D01*
X56796Y-37390D02*
X56952Y-37390D01*
X58469Y-37303D02*
X58625Y-37303D01*
X62362Y-35201D02*
X62362Y-35357D01*
X48454Y-36953D02*
X48610Y-36953D01*
X48610Y-37634D02*
X48454Y-37634D01*
X60441Y-38032D02*
X60441Y-38188D01*
X60445Y-39005D02*
X60445Y-39161D01*
X60441Y-39328D02*
X60441Y-39484D01*
X60705Y-40229D02*
X60705Y-40385D01*
X60693Y-41571D02*
X60693Y-41727D01*
X55106Y-39330D02*
X55106Y-39174D01*
X60713Y-40571D02*
X60713Y-40727D01*
X55382Y-48594D02*
X55538Y-48594D01*
G54D12*
X56878Y-45326D02*
X56940Y-45326D01*
X56940Y-43826D02*
X56878Y-43826D01*
X58610Y-43826D02*
X58532Y-43826D01*
X58610Y-43826D02*
X58610Y-45326D01*
X58610Y-45326D02*
X58532Y-45326D01*
X56878Y-43826D02*
X56878Y-45326D01*
G54D13*
X56936Y-34374D02*
X56874Y-34374D01*
X56874Y-35874D02*
X56936Y-35874D01*
X55202Y-35874D02*
X55280Y-35874D01*
X55202Y-35874D02*
X55202Y-34374D01*
X55202Y-34374D02*
X55280Y-34374D01*
X56936Y-35874D02*
X56936Y-34374D01*
G54D14*
X60956Y-45177D02*
G75*
G03X60956Y-45177I-39J0D01*
G74*
G01*
G54D13*
X60681Y-45145D02*
X60681Y-44240D01*
X60681Y-44240D02*
X61862Y-44240D01*
X61862Y-44240D02*
X61862Y-45421D01*
X61862Y-45421D02*
X60956Y-45421D01*
X60956Y-45421D02*
X60681Y-45145D01*
G54D11*
X62307Y-44748D02*
X62307Y-44904D01*
G54D12*
X56051Y-41580D02*
X56051Y-41742D01*
X56051Y-41742D02*
X56208Y-41742D01*
X59446Y-41739D02*
X59290Y-41739D01*
X59446Y-41577D02*
X59446Y-41739D01*
X59278Y-38330D02*
X59441Y-38330D01*
X59441Y-38330D02*
X59441Y-38487D01*
X56012Y-38502D02*
X56223Y-38291D01*
G54D11*
X47440Y-35629D02*
X47440Y-35473D01*
X46929Y-35906D02*
X46929Y-36062D01*
G54D13*
X47854Y-37972D02*
X46240Y-37972D01*
X46240Y-37972D02*
X46240Y-36299D01*
X46240Y-36299D02*
X47854Y-36299D01*
X47854Y-36299D02*
X47854Y-37972D01*
G54D11*
X49665Y-33400D02*
X49665Y-33244D01*
X48622Y-35473D02*
X48622Y-35629D01*
G54D12*
X47244Y-44291D02*
X46300Y-44291D01*
X47244Y-44291D02*
X47244Y-46325D01*
X47244Y-46325D02*
X46300Y-46325D01*
X46300Y-44291D02*
X46300Y-46325D01*
G54D15*
X46338Y-32874D02*
X46338Y-35314D01*
X46338Y-35314D02*
X49172Y-35314D01*
X49172Y-35314D02*
X49172Y-32874D01*
X49172Y-32874D02*
X46338Y-32874D01*
G54D14*
X48818Y-33385D02*
X48858Y-33385D01*
X48818Y-33385D02*
X46653Y-33385D01*
X46653Y-33385D02*
X46653Y-34803D01*
X46653Y-34803D02*
X48858Y-34803D01*
X48858Y-34803D02*
X48858Y-33385D01*
G54D12*
X64370Y-48133D02*
X64370Y-47149D01*
X64370Y-48133D02*
X59410Y-48133D01*
X59410Y-48133D02*
X59410Y-47149D01*
X64370Y-47149D02*
X59410Y-47149D01*
X59374Y-48720D02*
X59374Y-49704D01*
X59374Y-48720D02*
X64334Y-48720D01*
X64334Y-48720D02*
X64334Y-49704D01*
X59374Y-49704D02*
X64334Y-49704D01*
G54D13*
X56220Y-48779D02*
X56220Y-49094D01*
G54D14*
X57452Y-33507D02*
X57255Y-33507D01*
X57452Y-32956D02*
X57255Y-32956D01*
G54D12*
X51547Y-32956D02*
X51547Y-33507D01*
X51547Y-32956D02*
X51744Y-32956D01*
X57452Y-32956D02*
X57452Y-33507D01*
X51547Y-33507D02*
X51744Y-33507D01*
G54D13*
X61829Y-34750D02*
X61829Y-34887D01*
X61829Y-34750D02*
X61692Y-34750D01*
X61692Y-36008D02*
X61829Y-36008D01*
X61829Y-36008D02*
X61829Y-35871D01*
X60571Y-35871D02*
X60571Y-36008D01*
X60708Y-36008D02*
X60571Y-36008D01*
X60708Y-34750D02*
X60571Y-34887D01*
G54D14*
X63098Y-36185D02*
X63098Y-34846D01*
X63098Y-34846D02*
X63452Y-34374D01*
X64555Y-36185D02*
X64909Y-36185D01*
X64909Y-36185D02*
X64909Y-35948D01*
X64909Y-34374D02*
X63452Y-34374D01*
X63098Y-36185D02*
X64555Y-36185D01*
X64909Y-35948D02*
X64909Y-34374D01*
X63098Y-45732D02*
X63098Y-44393D01*
X63098Y-44393D02*
X63452Y-43921D01*
X64555Y-45732D02*
X64909Y-45732D01*
X64909Y-45732D02*
X64909Y-45496D01*
X64909Y-43921D02*
X63452Y-43921D01*
X63098Y-45732D02*
X64555Y-45732D01*
X64909Y-45496D02*
X64909Y-43921D01*
X49560Y-35717D02*
X49410Y-35822D01*
X49560Y-35897D02*
X49245Y-35897D01*
X49245Y-35777D01*
X49260Y-35747D01*
X49275Y-35732D01*
X49305Y-35717D01*
X49350Y-35717D01*
X49380Y-35732D01*
X49395Y-35747D01*
X49410Y-35777D01*
X49410Y-35897D01*
X49350Y-35447D02*
X49560Y-35447D01*
X49230Y-35522D02*
X49455Y-35597D01*
X49455Y-35402D01*
X49993Y-36005D02*
X49843Y-36110D01*
X49993Y-36185D02*
X49678Y-36185D01*
X49678Y-36065D01*
X49693Y-36035D01*
X49708Y-36020D01*
X49738Y-36005D01*
X49783Y-36005D01*
X49813Y-36020D01*
X49828Y-36035D01*
X49843Y-36065D01*
X49843Y-36185D01*
X49783Y-35735D02*
X49993Y-35735D01*
X49663Y-35810D02*
X49888Y-35885D01*
X49888Y-35690D01*
X49993Y-35555D02*
X49993Y-35495D01*
X49978Y-35465D01*
X49963Y-35450D01*
X49918Y-35420D01*
X49858Y-35405D01*
X49738Y-35405D01*
X49708Y-35420D01*
X49693Y-35435D01*
X49678Y-35465D01*
X49678Y-35525D01*
X49693Y-35555D01*
X49708Y-35570D01*
X49738Y-35585D01*
X49813Y-35585D01*
X49843Y-35570D01*
X49858Y-35555D01*
X49873Y-35525D01*
X49873Y-35465D01*
X49858Y-35435D01*
X49843Y-35420D01*
X49813Y-35405D01*
X51206Y-35419D02*
X51056Y-35523D01*
X51206Y-35598D02*
X50891Y-35598D01*
X50891Y-35479D01*
X50906Y-35449D01*
X50921Y-35434D01*
X50951Y-35419D01*
X50996Y-35419D01*
X51026Y-35434D01*
X51041Y-35449D01*
X51056Y-35479D01*
X51056Y-35598D01*
X51026Y-35239D02*
X51011Y-35269D01*
X50996Y-35284D01*
X50966Y-35299D01*
X50951Y-35299D01*
X50921Y-35284D01*
X50906Y-35269D01*
X50891Y-35239D01*
X50891Y-35179D01*
X50906Y-35149D01*
X50921Y-35134D01*
X50951Y-35119D01*
X50966Y-35119D01*
X50996Y-35134D01*
X51011Y-35149D01*
X51026Y-35179D01*
X51026Y-35239D01*
X51041Y-35269D01*
X51056Y-35284D01*
X51086Y-35299D01*
X51146Y-35299D01*
X51176Y-35284D01*
X51191Y-35269D01*
X51206Y-35239D01*
X51206Y-35179D01*
X51191Y-35149D01*
X51176Y-35134D01*
X51146Y-35119D01*
X51086Y-35119D01*
X51056Y-35134D01*
X51041Y-35149D01*
X51026Y-35179D01*
X50996Y-34849D02*
X51206Y-34849D01*
X50876Y-34924D02*
X51101Y-34999D01*
X51101Y-34804D01*
X60699Y-36611D02*
X60594Y-36461D01*
X60519Y-36611D02*
X60519Y-36296D01*
X60639Y-36296D01*
X60669Y-36311D01*
X60684Y-36326D01*
X60699Y-36356D01*
X60699Y-36401D01*
X60684Y-36431D01*
X60669Y-36446D01*
X60639Y-36461D01*
X60519Y-36461D01*
X60969Y-36296D02*
X60909Y-36296D01*
X60879Y-36311D01*
X60864Y-36326D01*
X60834Y-36371D01*
X60819Y-36431D01*
X60819Y-36551D01*
X60834Y-36581D01*
X60849Y-36596D01*
X60879Y-36611D01*
X60939Y-36611D01*
X60969Y-36596D01*
X60984Y-36581D01*
X60999Y-36551D01*
X60999Y-36476D01*
X60984Y-36446D01*
X60969Y-36431D01*
X60939Y-36416D01*
X60879Y-36416D01*
X60849Y-36431D01*
X60834Y-36446D01*
X60819Y-36476D01*
X61149Y-36611D02*
X61209Y-36611D01*
X61239Y-36596D01*
X61254Y-36581D01*
X61284Y-36536D01*
X61299Y-36476D01*
X61299Y-36356D01*
X61284Y-36326D01*
X61269Y-36311D01*
X61239Y-36296D01*
X61179Y-36296D01*
X61149Y-36311D01*
X61134Y-36326D01*
X61119Y-36356D01*
X61119Y-36431D01*
X61134Y-36461D01*
X61149Y-36476D01*
X61179Y-36491D01*
X61239Y-36491D01*
X61269Y-36476D01*
X61284Y-36461D01*
X61299Y-36431D01*
X60284Y-41068D02*
X60134Y-41173D01*
X60284Y-41248D02*
X59970Y-41248D01*
X59970Y-41128D01*
X59985Y-41098D01*
X60000Y-41083D01*
X60029Y-41068D01*
X60074Y-41068D01*
X60104Y-41083D01*
X60119Y-41098D01*
X60134Y-41128D01*
X60134Y-41248D01*
X59970Y-40963D02*
X59970Y-40768D01*
X60089Y-40873D01*
X60089Y-40828D01*
X60104Y-40798D01*
X60119Y-40783D01*
X60149Y-40768D01*
X60224Y-40768D01*
X60254Y-40783D01*
X60269Y-40798D01*
X60284Y-40828D01*
X60284Y-40918D01*
X60269Y-40948D01*
X60254Y-40963D01*
X59970Y-40573D02*
X59970Y-40543D01*
X59985Y-40513D01*
X60000Y-40498D01*
X60029Y-40483D01*
X60089Y-40468D01*
X60164Y-40468D01*
X60224Y-40483D01*
X60254Y-40498D01*
X60269Y-40513D01*
X60284Y-40543D01*
X60284Y-40573D01*
X60269Y-40603D01*
X60254Y-40618D01*
X60224Y-40633D01*
X60164Y-40648D01*
X60089Y-40648D01*
X60029Y-40633D01*
X60000Y-40618D01*
X59985Y-40603D01*
X59970Y-40573D01*
X55048Y-38820D02*
X54898Y-38925D01*
X55048Y-39000D02*
X54733Y-39000D01*
X54733Y-38880D01*
X54748Y-38850D01*
X54763Y-38835D01*
X54793Y-38820D01*
X54838Y-38820D01*
X54868Y-38835D01*
X54883Y-38850D01*
X54898Y-38880D01*
X54898Y-39000D01*
X55048Y-38520D02*
X55048Y-38700D01*
X55048Y-38610D02*
X54733Y-38610D01*
X54778Y-38640D01*
X54808Y-38670D01*
X54823Y-38700D01*
X54838Y-38250D02*
X55048Y-38250D01*
X54718Y-38325D02*
X54943Y-38400D01*
X54943Y-38205D01*
X61426Y-41226D02*
X61276Y-41331D01*
X61426Y-41406D02*
X61111Y-41406D01*
X61111Y-41286D01*
X61126Y-41256D01*
X61141Y-41241D01*
X61171Y-41226D01*
X61216Y-41226D01*
X61246Y-41241D01*
X61261Y-41256D01*
X61276Y-41286D01*
X61276Y-41406D01*
X61111Y-41121D02*
X61111Y-40926D01*
X61231Y-41031D01*
X61231Y-40986D01*
X61246Y-40956D01*
X61261Y-40941D01*
X61291Y-40926D01*
X61366Y-40926D01*
X61396Y-40941D01*
X61411Y-40956D01*
X61426Y-40986D01*
X61426Y-41076D01*
X61411Y-41106D01*
X61396Y-41121D01*
X61426Y-40626D02*
X61426Y-40806D01*
X61426Y-40716D02*
X61111Y-40716D01*
X61156Y-40746D01*
X61186Y-40776D01*
X61201Y-40806D01*
X61151Y-38667D02*
X61001Y-38772D01*
X61151Y-38847D02*
X60836Y-38847D01*
X60836Y-38727D01*
X60851Y-38697D01*
X60866Y-38682D01*
X60896Y-38667D01*
X60941Y-38667D01*
X60971Y-38682D01*
X60986Y-38697D01*
X61001Y-38727D01*
X61001Y-38847D01*
X60836Y-38562D02*
X60836Y-38367D01*
X60956Y-38472D01*
X60956Y-38427D01*
X60971Y-38397D01*
X60986Y-38382D01*
X61016Y-38367D01*
X61091Y-38367D01*
X61121Y-38382D01*
X61136Y-38397D01*
X61151Y-38427D01*
X61151Y-38517D01*
X61136Y-38547D01*
X61121Y-38562D01*
X60836Y-38262D02*
X60836Y-38067D01*
X60956Y-38172D01*
X60956Y-38127D01*
X60971Y-38097D01*
X60986Y-38082D01*
X61016Y-38067D01*
X61091Y-38067D01*
X61121Y-38082D01*
X61136Y-38097D01*
X61151Y-38127D01*
X61151Y-38217D01*
X61136Y-38247D01*
X61121Y-38262D01*
X60060Y-38785D02*
X59910Y-38890D01*
X60060Y-38965D02*
X59745Y-38965D01*
X59745Y-38845D01*
X59760Y-38815D01*
X59775Y-38800D01*
X59805Y-38785D01*
X59850Y-38785D01*
X59880Y-38800D01*
X59895Y-38815D01*
X59910Y-38845D01*
X59910Y-38965D01*
X59745Y-38680D02*
X59745Y-38485D01*
X59865Y-38590D01*
X59865Y-38545D01*
X59880Y-38515D01*
X59895Y-38500D01*
X59925Y-38485D01*
X60000Y-38485D01*
X60030Y-38500D01*
X60045Y-38515D01*
X60060Y-38545D01*
X60060Y-38635D01*
X60045Y-38665D01*
X60030Y-38680D01*
X59775Y-38365D02*
X59760Y-38350D01*
X59745Y-38320D01*
X59745Y-38245D01*
X59760Y-38215D01*
X59775Y-38200D01*
X59805Y-38185D01*
X59835Y-38185D01*
X59880Y-38200D01*
X60060Y-38380D01*
X60060Y-38185D01*
X59820Y-37320D02*
X59670Y-37425D01*
X59820Y-37500D02*
X59505Y-37500D01*
X59505Y-37380D01*
X59520Y-37350D01*
X59535Y-37335D01*
X59565Y-37320D01*
X59610Y-37320D01*
X59640Y-37335D01*
X59655Y-37350D01*
X59670Y-37380D01*
X59670Y-37500D01*
X59505Y-37215D02*
X59505Y-37020D01*
X59625Y-37125D01*
X59625Y-37080D01*
X59640Y-37050D01*
X59655Y-37035D01*
X59685Y-37020D01*
X59760Y-37020D01*
X59790Y-37035D01*
X59805Y-37050D01*
X59820Y-37080D01*
X59820Y-37170D01*
X59805Y-37200D01*
X59790Y-37215D01*
X59610Y-36750D02*
X59820Y-36750D01*
X59490Y-36825D02*
X59715Y-36900D01*
X59715Y-36705D01*
X59285Y-45481D02*
X59135Y-45481D01*
X59135Y-45166D01*
X59555Y-45481D02*
X59375Y-45481D01*
X59465Y-45481D02*
X59465Y-45166D01*
X59435Y-45211D01*
X59405Y-45241D01*
X59375Y-45256D01*
X59675Y-45196D02*
X59690Y-45181D01*
X59720Y-45166D01*
X59795Y-45166D01*
X59825Y-45181D01*
X59840Y-45196D01*
X59855Y-45226D01*
X59855Y-45256D01*
X59840Y-45301D01*
X59660Y-45481D01*
X59855Y-45481D01*
X52489Y-39958D02*
X52489Y-40108D01*
X52174Y-40108D01*
X52204Y-39868D02*
X52189Y-39853D01*
X52174Y-39823D01*
X52174Y-39748D01*
X52189Y-39718D01*
X52204Y-39703D01*
X52234Y-39688D01*
X52264Y-39688D01*
X52309Y-39703D01*
X52489Y-39883D01*
X52489Y-39688D01*
X52174Y-39583D02*
X52174Y-39373D01*
X52489Y-39508D01*
X59246Y-44064D02*
X59096Y-44064D01*
X59096Y-43749D01*
X59516Y-44064D02*
X59336Y-44064D01*
X59426Y-44064D02*
X59426Y-43749D01*
X59396Y-43794D01*
X59366Y-43824D01*
X59336Y-43839D01*
X59816Y-44064D02*
X59636Y-44064D01*
X59726Y-44064D02*
X59726Y-43749D01*
X59696Y-43794D01*
X59666Y-43824D01*
X59636Y-43839D01*
X58317Y-35344D02*
X58167Y-35344D01*
X58167Y-35029D01*
X58392Y-35029D02*
X58587Y-35029D01*
X58482Y-35149D01*
X58527Y-35149D01*
X58557Y-35164D01*
X58572Y-35179D01*
X58587Y-35209D01*
X58587Y-35284D01*
X58572Y-35314D01*
X58557Y-35329D01*
X58527Y-35344D01*
X58437Y-35344D01*
X58407Y-35329D01*
X58392Y-35314D01*
X58692Y-35029D02*
X58902Y-35029D01*
X58767Y-35344D01*
X51427Y-40595D02*
X51277Y-40595D01*
X51277Y-40281D01*
X51517Y-40311D02*
X51532Y-40296D01*
X51562Y-40281D01*
X51637Y-40281D01*
X51667Y-40296D01*
X51682Y-40311D01*
X51697Y-40341D01*
X51697Y-40371D01*
X51682Y-40416D01*
X51502Y-40595D01*
X51697Y-40595D01*
X51877Y-40416D02*
X51847Y-40401D01*
X51832Y-40386D01*
X51817Y-40356D01*
X51817Y-40341D01*
X51832Y-40311D01*
X51847Y-40296D01*
X51877Y-40281D01*
X51937Y-40281D01*
X51967Y-40296D01*
X51982Y-40311D01*
X51997Y-40341D01*
X51997Y-40356D01*
X51982Y-40386D01*
X51967Y-40401D01*
X51937Y-40416D01*
X51877Y-40416D01*
X51847Y-40431D01*
X51832Y-40446D01*
X51817Y-40476D01*
X51817Y-40535D01*
X51832Y-40565D01*
X51847Y-40580D01*
X51877Y-40595D01*
X51937Y-40595D01*
X51967Y-40580D01*
X51982Y-40565D01*
X51997Y-40535D01*
X51997Y-40476D01*
X51982Y-40446D01*
X51967Y-40431D01*
X51937Y-40416D01*
X60619Y-37371D02*
X60619Y-37521D01*
X60304Y-37521D01*
X60304Y-37296D02*
X60304Y-37101D01*
X60424Y-37206D01*
X60424Y-37161D01*
X60439Y-37131D01*
X60454Y-37116D01*
X60484Y-37101D01*
X60559Y-37101D01*
X60589Y-37116D01*
X60604Y-37131D01*
X60619Y-37161D01*
X60619Y-37251D01*
X60604Y-37281D01*
X60589Y-37296D01*
X60304Y-36831D02*
X60304Y-36891D01*
X60319Y-36921D01*
X60334Y-36936D01*
X60379Y-36966D01*
X60439Y-36981D01*
X60559Y-36981D01*
X60589Y-36966D01*
X60604Y-36951D01*
X60619Y-36921D01*
X60619Y-36861D01*
X60604Y-36831D01*
X60589Y-36816D01*
X60559Y-36801D01*
X60484Y-36801D01*
X60454Y-36816D01*
X60439Y-36831D01*
X60424Y-36861D01*
X60424Y-36921D01*
X60439Y-36951D01*
X60454Y-36966D01*
X60484Y-36981D01*
X51443Y-39194D02*
X51293Y-39194D01*
X51293Y-38879D01*
X51533Y-38909D02*
X51548Y-38894D01*
X51578Y-38879D01*
X51653Y-38879D01*
X51683Y-38894D01*
X51698Y-38909D01*
X51713Y-38939D01*
X51713Y-38969D01*
X51698Y-39014D01*
X51518Y-39194D01*
X51713Y-39194D01*
X51863Y-39194D02*
X51923Y-39194D01*
X51953Y-39179D01*
X51968Y-39164D01*
X51998Y-39119D01*
X52013Y-39059D01*
X52013Y-38939D01*
X51998Y-38909D01*
X51983Y-38894D01*
X51953Y-38879D01*
X51893Y-38879D01*
X51863Y-38894D01*
X51848Y-38909D01*
X51833Y-38939D01*
X51833Y-39014D01*
X51848Y-39044D01*
X51863Y-39059D01*
X51893Y-39074D01*
X51953Y-39074D01*
X51983Y-39059D01*
X51998Y-39044D01*
X52013Y-39014D01*
X53002Y-42410D02*
X52852Y-42410D01*
X52852Y-42095D01*
X53242Y-42200D02*
X53242Y-42410D01*
X53167Y-42080D02*
X53092Y-42305D01*
X53287Y-42305D01*
X53392Y-42125D02*
X53407Y-42110D01*
X53437Y-42095D01*
X53512Y-42095D01*
X53542Y-42110D01*
X53557Y-42125D01*
X53572Y-42155D01*
X53572Y-42185D01*
X53557Y-42230D01*
X53377Y-42410D01*
X53572Y-42410D01*
X61517Y-37359D02*
X61517Y-37509D01*
X61202Y-37509D01*
X61202Y-37284D02*
X61202Y-37089D01*
X61322Y-37194D01*
X61322Y-37149D01*
X61337Y-37119D01*
X61352Y-37104D01*
X61382Y-37089D01*
X61457Y-37089D01*
X61487Y-37104D01*
X61502Y-37119D01*
X61517Y-37149D01*
X61517Y-37239D01*
X61502Y-37269D01*
X61487Y-37284D01*
X61232Y-36970D02*
X61217Y-36955D01*
X61202Y-36925D01*
X61202Y-36850D01*
X61217Y-36820D01*
X61232Y-36805D01*
X61262Y-36790D01*
X61292Y-36790D01*
X61337Y-36805D01*
X61517Y-36985D01*
X61517Y-36790D01*
X55584Y-43001D02*
X55434Y-43001D01*
X55434Y-42686D01*
X55854Y-43001D02*
X55674Y-43001D01*
X55764Y-43001D02*
X55764Y-42686D01*
X55734Y-42731D01*
X55704Y-42761D01*
X55674Y-42776D01*
X55959Y-42686D02*
X56154Y-42686D01*
X56049Y-42806D01*
X56094Y-42806D01*
X56124Y-42821D01*
X56139Y-42836D01*
X56154Y-42866D01*
X56154Y-42941D01*
X56139Y-42971D01*
X56124Y-42986D01*
X56094Y-43001D01*
X56004Y-43001D01*
X55974Y-42986D01*
X55959Y-42971D01*
X54600Y-43001D02*
X54450Y-43001D01*
X54450Y-42686D01*
X54675Y-42686D02*
X54870Y-42686D01*
X54765Y-42806D01*
X54810Y-42806D01*
X54840Y-42821D01*
X54855Y-42836D01*
X54870Y-42866D01*
X54870Y-42941D01*
X54855Y-42971D01*
X54840Y-42986D01*
X54810Y-43001D01*
X54720Y-43001D01*
X54690Y-42986D01*
X54675Y-42971D01*
X54975Y-42686D02*
X55170Y-42686D01*
X55065Y-42806D01*
X55110Y-42806D01*
X55140Y-42821D01*
X55155Y-42836D01*
X55170Y-42866D01*
X55170Y-42941D01*
X55155Y-42971D01*
X55140Y-42986D01*
X55110Y-43001D01*
X55020Y-43001D01*
X54990Y-42986D01*
X54975Y-42971D01*
X62084Y-42777D02*
X62084Y-42927D01*
X61769Y-42927D01*
X61799Y-42687D02*
X61784Y-42672D01*
X61769Y-42642D01*
X61769Y-42567D01*
X61784Y-42537D01*
X61799Y-42522D01*
X61829Y-42507D01*
X61859Y-42507D01*
X61904Y-42522D01*
X62084Y-42702D01*
X62084Y-42507D01*
X61769Y-42237D02*
X61769Y-42297D01*
X61784Y-42327D01*
X61799Y-42342D01*
X61844Y-42372D01*
X61904Y-42387D01*
X62024Y-42387D01*
X62054Y-42372D01*
X62069Y-42357D01*
X62084Y-42327D01*
X62084Y-42267D01*
X62069Y-42237D01*
X62054Y-42222D01*
X62024Y-42207D01*
X61949Y-42207D01*
X61919Y-42222D01*
X61904Y-42237D01*
X61889Y-42267D01*
X61889Y-42327D01*
X61904Y-42357D01*
X61919Y-42372D01*
X61949Y-42387D01*
X60466Y-43710D02*
X60316Y-43710D01*
X60316Y-43395D01*
X60736Y-43710D02*
X60556Y-43710D01*
X60646Y-43710D02*
X60646Y-43395D01*
X60616Y-43440D01*
X60586Y-43470D01*
X60556Y-43485D01*
X60841Y-43395D02*
X61051Y-43395D01*
X60916Y-43710D01*
X60288Y-42064D02*
X60288Y-42214D01*
X59973Y-42214D01*
X60003Y-41974D02*
X59988Y-41959D01*
X59973Y-41929D01*
X59973Y-41854D01*
X59988Y-41824D01*
X60003Y-41809D01*
X60033Y-41794D01*
X60063Y-41794D01*
X60108Y-41809D01*
X60288Y-41989D01*
X60288Y-41794D01*
X60003Y-41674D02*
X59988Y-41659D01*
X59973Y-41629D01*
X59973Y-41554D01*
X59988Y-41524D01*
X60003Y-41509D01*
X60033Y-41494D01*
X60063Y-41494D01*
X60108Y-41509D01*
X60288Y-41689D01*
X60288Y-41494D01*
X50947Y-42351D02*
X50797Y-42351D01*
X50797Y-42036D01*
X51022Y-42036D02*
X51217Y-42036D01*
X51112Y-42156D01*
X51157Y-42156D01*
X51187Y-42171D01*
X51202Y-42186D01*
X51217Y-42216D01*
X51217Y-42291D01*
X51202Y-42321D01*
X51187Y-42336D01*
X51157Y-42351D01*
X51067Y-42351D01*
X51037Y-42336D01*
X51022Y-42321D01*
X51397Y-42171D02*
X51367Y-42156D01*
X51352Y-42141D01*
X51337Y-42111D01*
X51337Y-42096D01*
X51352Y-42066D01*
X51367Y-42051D01*
X51397Y-42036D01*
X51457Y-42036D01*
X51487Y-42051D01*
X51502Y-42066D01*
X51517Y-42096D01*
X51517Y-42111D01*
X51502Y-42141D01*
X51487Y-42156D01*
X51457Y-42171D01*
X51397Y-42171D01*
X51367Y-42186D01*
X51352Y-42201D01*
X51337Y-42231D01*
X51337Y-42291D01*
X51352Y-42321D01*
X51367Y-42336D01*
X51397Y-42351D01*
X51457Y-42351D01*
X51487Y-42336D01*
X51502Y-42321D01*
X51517Y-42291D01*
X51517Y-42231D01*
X51502Y-42201D01*
X51487Y-42186D01*
X51457Y-42171D01*
X56171Y-37056D02*
X56021Y-37056D01*
X56021Y-36741D01*
X56246Y-36741D02*
X56441Y-36741D01*
X56336Y-36861D01*
X56381Y-36861D01*
X56411Y-36876D01*
X56426Y-36891D01*
X56441Y-36921D01*
X56441Y-36996D01*
X56426Y-37026D01*
X56411Y-37041D01*
X56381Y-37056D01*
X56291Y-37056D01*
X56261Y-37041D01*
X56246Y-37026D01*
X56711Y-36846D02*
X56711Y-37056D01*
X56636Y-36726D02*
X56561Y-36951D01*
X56756Y-36951D01*
X55266Y-37068D02*
X55116Y-37068D01*
X55116Y-36753D01*
X55341Y-36753D02*
X55535Y-36753D01*
X55431Y-36873D01*
X55476Y-36873D01*
X55505Y-36888D01*
X55520Y-36903D01*
X55535Y-36933D01*
X55535Y-37008D01*
X55520Y-37038D01*
X55505Y-37053D01*
X55476Y-37068D01*
X55386Y-37068D01*
X55356Y-37053D01*
X55341Y-37038D01*
X55820Y-36753D02*
X55670Y-36753D01*
X55655Y-36903D01*
X55670Y-36888D01*
X55700Y-36873D01*
X55775Y-36873D01*
X55805Y-36888D01*
X55820Y-36903D01*
X55835Y-36933D01*
X55835Y-37008D01*
X55820Y-37038D01*
X55805Y-37053D01*
X55775Y-37068D01*
X55700Y-37068D01*
X55670Y-37053D01*
X55655Y-37038D01*
X51876Y-42095D02*
X51726Y-42095D01*
X51726Y-41781D01*
X52116Y-41886D02*
X52116Y-42095D01*
X52041Y-41766D02*
X51966Y-41991D01*
X52161Y-41991D01*
X52341Y-41781D02*
X52371Y-41781D01*
X52401Y-41796D01*
X52416Y-41811D01*
X52431Y-41841D01*
X52446Y-41901D01*
X52446Y-41976D01*
X52431Y-42035D01*
X52416Y-42065D01*
X52401Y-42080D01*
X52371Y-42095D01*
X52341Y-42095D01*
X52311Y-42080D01*
X52296Y-42065D01*
X52281Y-42035D01*
X52266Y-41976D01*
X52266Y-41901D01*
X52281Y-41841D01*
X52296Y-41811D01*
X52311Y-41796D01*
X52341Y-41781D01*
X59242Y-35050D02*
X59227Y-35065D01*
X59182Y-35080D01*
X59152Y-35080D01*
X59107Y-35065D01*
X59077Y-35035D01*
X59062Y-35005D01*
X59047Y-34945D01*
X59047Y-34900D01*
X59062Y-34840D01*
X59077Y-34810D01*
X59107Y-34780D01*
X59152Y-34765D01*
X59182Y-34765D01*
X59227Y-34780D01*
X59242Y-34795D01*
X59527Y-34765D02*
X59377Y-34765D01*
X59362Y-34915D01*
X59377Y-34900D01*
X59407Y-34885D01*
X59482Y-34885D01*
X59512Y-34900D01*
X59527Y-34915D01*
X59542Y-34945D01*
X59542Y-35020D01*
X59527Y-35050D01*
X59512Y-35065D01*
X59482Y-35080D01*
X59407Y-35080D01*
X59377Y-35065D01*
X59362Y-35050D01*
X59647Y-34765D02*
X59857Y-34765D01*
X59722Y-35080D01*
X62487Y-43368D02*
X62502Y-43383D01*
X62517Y-43428D01*
X62517Y-43458D01*
X62502Y-43503D01*
X62472Y-43533D01*
X62442Y-43548D01*
X62382Y-43563D01*
X62337Y-43563D01*
X62277Y-43548D01*
X62247Y-43533D01*
X62217Y-43503D01*
X62202Y-43458D01*
X62202Y-43428D01*
X62217Y-43383D01*
X62232Y-43368D01*
X62517Y-43068D02*
X62517Y-43248D01*
X62517Y-43158D02*
X62202Y-43158D01*
X62247Y-43188D01*
X62277Y-43218D01*
X62292Y-43248D01*
X62202Y-42873D02*
X62202Y-42843D01*
X62217Y-42813D01*
X62232Y-42798D01*
X62262Y-42783D01*
X62322Y-42768D01*
X62397Y-42768D01*
X62457Y-42783D01*
X62487Y-42798D01*
X62502Y-42813D01*
X62517Y-42843D01*
X62517Y-42873D01*
X62502Y-42903D01*
X62487Y-42918D01*
X62457Y-42933D01*
X62397Y-42948D01*
X62322Y-42948D01*
X62262Y-42933D01*
X62232Y-42918D01*
X62217Y-42903D01*
X62202Y-42873D01*
X62517Y-42468D02*
X62517Y-42648D01*
X62517Y-42558D02*
X62202Y-42558D01*
X62247Y-42588D01*
X62277Y-42618D01*
X62292Y-42648D01*
X62046Y-43694D02*
X62061Y-43709D01*
X62076Y-43754D01*
X62076Y-43784D01*
X62061Y-43829D01*
X62031Y-43859D01*
X62001Y-43874D01*
X61941Y-43889D01*
X61896Y-43889D01*
X61836Y-43874D01*
X61806Y-43859D01*
X61776Y-43829D01*
X61761Y-43784D01*
X61761Y-43754D01*
X61776Y-43709D01*
X61791Y-43694D01*
X61761Y-43589D02*
X61761Y-43394D01*
X61881Y-43499D01*
X61881Y-43454D01*
X61896Y-43424D01*
X61911Y-43409D01*
X61941Y-43394D01*
X62016Y-43394D01*
X62046Y-43409D01*
X62061Y-43424D01*
X62076Y-43454D01*
X62076Y-43544D01*
X62061Y-43574D01*
X62046Y-43589D01*
X61761Y-43289D02*
X61761Y-43094D01*
X61881Y-43199D01*
X61881Y-43154D01*
X61896Y-43124D01*
X61911Y-43109D01*
X61941Y-43094D01*
X62016Y-43094D01*
X62046Y-43109D01*
X62061Y-43124D01*
X62076Y-43154D01*
X62076Y-43244D01*
X62061Y-43274D01*
X62046Y-43289D01*
X60584Y-42184D02*
X60569Y-42199D01*
X60524Y-42214D01*
X60494Y-42214D01*
X60449Y-42199D01*
X60419Y-42169D01*
X60404Y-42139D01*
X60389Y-42079D01*
X60389Y-42034D01*
X60404Y-41974D01*
X60419Y-41944D01*
X60449Y-41914D01*
X60494Y-41899D01*
X60524Y-41899D01*
X60569Y-41914D01*
X60584Y-41929D01*
X60689Y-41899D02*
X60884Y-41899D01*
X60779Y-42019D01*
X60824Y-42019D01*
X60854Y-42034D01*
X60869Y-42049D01*
X60884Y-42079D01*
X60884Y-42154D01*
X60869Y-42184D01*
X60854Y-42199D01*
X60824Y-42214D01*
X60734Y-42214D01*
X60704Y-42199D01*
X60689Y-42184D01*
X61154Y-42004D02*
X61154Y-42214D01*
X61079Y-41884D02*
X61004Y-42109D01*
X61199Y-42109D01*
X60254Y-44434D02*
X60269Y-44449D01*
X60284Y-44494D01*
X60284Y-44524D01*
X60269Y-44569D01*
X60239Y-44599D01*
X60209Y-44614D01*
X60149Y-44629D01*
X60104Y-44629D01*
X60044Y-44614D01*
X60014Y-44599D01*
X59985Y-44569D01*
X59970Y-44524D01*
X59970Y-44494D01*
X59985Y-44449D01*
X60000Y-44434D01*
X59970Y-44329D02*
X59970Y-44119D01*
X60284Y-44254D01*
X60000Y-44014D02*
X59985Y-43999D01*
X59970Y-43969D01*
X59970Y-43894D01*
X59985Y-43864D01*
X60000Y-43849D01*
X60029Y-43834D01*
X60059Y-43834D01*
X60104Y-43849D01*
X60284Y-44029D01*
X60284Y-43834D01*
X59246Y-45018D02*
X59231Y-45033D01*
X59186Y-45048D01*
X59156Y-45048D01*
X59111Y-45033D01*
X59081Y-45003D01*
X59066Y-44973D01*
X59051Y-44913D01*
X59051Y-44868D01*
X59066Y-44808D01*
X59081Y-44778D01*
X59111Y-44748D01*
X59156Y-44733D01*
X59186Y-44733D01*
X59231Y-44748D01*
X59246Y-44763D01*
X59531Y-44733D02*
X59381Y-44733D01*
X59366Y-44883D01*
X59381Y-44868D01*
X59411Y-44853D01*
X59486Y-44853D01*
X59516Y-44868D01*
X59531Y-44883D01*
X59546Y-44913D01*
X59546Y-44988D01*
X59531Y-45018D01*
X59516Y-45033D01*
X59486Y-45048D01*
X59411Y-45048D01*
X59381Y-45033D01*
X59366Y-45018D01*
X59816Y-44838D02*
X59816Y-45048D01*
X59741Y-44718D02*
X59666Y-44943D01*
X59861Y-44943D01*
X59246Y-44506D02*
X59231Y-44521D01*
X59186Y-44536D01*
X59156Y-44536D01*
X59111Y-44521D01*
X59081Y-44491D01*
X59066Y-44461D01*
X59051Y-44401D01*
X59051Y-44356D01*
X59066Y-44296D01*
X59081Y-44266D01*
X59111Y-44236D01*
X59156Y-44221D01*
X59186Y-44221D01*
X59231Y-44236D01*
X59246Y-44251D01*
X59531Y-44221D02*
X59381Y-44221D01*
X59366Y-44371D01*
X59381Y-44356D01*
X59411Y-44341D01*
X59486Y-44341D01*
X59516Y-44356D01*
X59531Y-44371D01*
X59546Y-44401D01*
X59546Y-44476D01*
X59531Y-44506D01*
X59516Y-44521D01*
X59486Y-44536D01*
X59411Y-44536D01*
X59381Y-44521D01*
X59366Y-44506D01*
X59846Y-44536D02*
X59666Y-44536D01*
X59756Y-44536D02*
X59756Y-44221D01*
X59726Y-44266D01*
X59696Y-44296D01*
X59666Y-44311D01*
X58983Y-43234D02*
X58998Y-43249D01*
X59013Y-43294D01*
X59013Y-43324D01*
X58998Y-43369D01*
X58968Y-43399D01*
X58938Y-43414D01*
X58878Y-43429D01*
X58833Y-43429D01*
X58773Y-43414D01*
X58743Y-43399D01*
X58713Y-43369D01*
X58698Y-43324D01*
X58698Y-43294D01*
X58713Y-43249D01*
X58728Y-43234D01*
X59013Y-42934D02*
X59013Y-43114D01*
X59013Y-43024D02*
X58698Y-43024D01*
X58743Y-43054D01*
X58773Y-43084D01*
X58788Y-43114D01*
X58728Y-42814D02*
X58713Y-42799D01*
X58698Y-42769D01*
X58698Y-42694D01*
X58713Y-42664D01*
X58728Y-42649D01*
X58758Y-42634D01*
X58788Y-42634D01*
X58833Y-42649D01*
X59013Y-42829D01*
X59013Y-42634D01*
X58698Y-42439D02*
X58698Y-42409D01*
X58713Y-42379D01*
X58728Y-42364D01*
X58758Y-42349D01*
X58818Y-42334D01*
X58893Y-42334D01*
X58953Y-42349D01*
X58983Y-42364D01*
X58998Y-42379D01*
X59013Y-42409D01*
X59013Y-42439D01*
X58998Y-42469D01*
X58983Y-42484D01*
X58953Y-42499D01*
X58893Y-42514D01*
X58818Y-42514D01*
X58758Y-42499D01*
X58728Y-42484D01*
X58713Y-42469D01*
X58698Y-42439D01*
X61916Y-37379D02*
X61931Y-37394D01*
X61946Y-37439D01*
X61946Y-37469D01*
X61931Y-37514D01*
X61901Y-37544D01*
X61871Y-37559D01*
X61811Y-37574D01*
X61766Y-37574D01*
X61706Y-37559D01*
X61676Y-37544D01*
X61646Y-37514D01*
X61631Y-37469D01*
X61631Y-37439D01*
X61646Y-37394D01*
X61661Y-37379D01*
X61946Y-37229D02*
X61946Y-37169D01*
X61931Y-37139D01*
X61916Y-37124D01*
X61871Y-37094D01*
X61811Y-37079D01*
X61691Y-37079D01*
X61661Y-37094D01*
X61646Y-37109D01*
X61631Y-37139D01*
X61631Y-37199D01*
X61646Y-37229D01*
X61661Y-37244D01*
X61691Y-37259D01*
X61766Y-37259D01*
X61796Y-37244D01*
X61811Y-37229D01*
X61826Y-37199D01*
X61826Y-37139D01*
X61811Y-37109D01*
X61796Y-37094D01*
X61766Y-37079D01*
X61946Y-36779D02*
X61946Y-36959D01*
X61946Y-36869D02*
X61631Y-36869D01*
X61676Y-36899D01*
X61706Y-36929D01*
X61721Y-36959D01*
X56451Y-45845D02*
X56436Y-45860D01*
X56391Y-45875D01*
X56361Y-45875D01*
X56316Y-45860D01*
X56286Y-45830D01*
X56271Y-45800D01*
X56256Y-45740D01*
X56256Y-45695D01*
X56271Y-45635D01*
X56286Y-45605D01*
X56316Y-45575D01*
X56361Y-45560D01*
X56391Y-45560D01*
X56436Y-45575D01*
X56451Y-45590D01*
X56736Y-45560D02*
X56586Y-45560D01*
X56571Y-45710D01*
X56586Y-45695D01*
X56616Y-45680D01*
X56691Y-45680D01*
X56721Y-45695D01*
X56736Y-45710D01*
X56751Y-45740D01*
X56751Y-45815D01*
X56736Y-45845D01*
X56721Y-45860D01*
X56691Y-45875D01*
X56616Y-45875D01*
X56586Y-45860D01*
X56571Y-45845D01*
X56901Y-45875D02*
X56961Y-45875D01*
X56991Y-45860D01*
X57005Y-45845D01*
X57035Y-45800D01*
X57050Y-45740D01*
X57050Y-45620D01*
X57035Y-45590D01*
X57020Y-45575D01*
X56991Y-45560D01*
X56931Y-45560D01*
X56901Y-45575D01*
X56886Y-45590D01*
X56871Y-45620D01*
X56871Y-45695D01*
X56886Y-45725D01*
X56901Y-45740D01*
X56931Y-45755D01*
X56991Y-45755D01*
X57020Y-45740D01*
X57035Y-45725D01*
X57050Y-45695D01*
X51876Y-38703D02*
X51861Y-38718D01*
X51816Y-38733D01*
X51786Y-38733D01*
X51741Y-38718D01*
X51711Y-38688D01*
X51696Y-38658D01*
X51681Y-38598D01*
X51681Y-38553D01*
X51696Y-38493D01*
X51711Y-38463D01*
X51741Y-38433D01*
X51786Y-38418D01*
X51816Y-38418D01*
X51861Y-38433D01*
X51876Y-38448D01*
X51996Y-38448D02*
X52011Y-38433D01*
X52041Y-38418D01*
X52116Y-38418D01*
X52146Y-38433D01*
X52161Y-38448D01*
X52176Y-38478D01*
X52176Y-38508D01*
X52161Y-38553D01*
X51981Y-38733D01*
X52176Y-38733D01*
X52281Y-38418D02*
X52491Y-38418D01*
X52356Y-38733D01*
X55688Y-43785D02*
X55703Y-43800D01*
X55718Y-43845D01*
X55718Y-43875D01*
X55703Y-43920D01*
X55673Y-43950D01*
X55643Y-43965D01*
X55583Y-43980D01*
X55538Y-43980D01*
X55478Y-43965D01*
X55448Y-43950D01*
X55418Y-43920D01*
X55403Y-43875D01*
X55403Y-43845D01*
X55418Y-43800D01*
X55433Y-43785D01*
X55403Y-43515D02*
X55403Y-43575D01*
X55418Y-43605D01*
X55433Y-43620D01*
X55478Y-43650D01*
X55538Y-43665D01*
X55658Y-43665D01*
X55688Y-43650D01*
X55703Y-43635D01*
X55718Y-43605D01*
X55718Y-43545D01*
X55703Y-43515D01*
X55688Y-43500D01*
X55658Y-43485D01*
X55583Y-43485D01*
X55553Y-43500D01*
X55538Y-43515D01*
X55523Y-43545D01*
X55523Y-43605D01*
X55538Y-43635D01*
X55553Y-43650D01*
X55583Y-43665D01*
X55718Y-43185D02*
X55718Y-43365D01*
X55718Y-43275D02*
X55403Y-43275D01*
X55448Y-43305D01*
X55478Y-43335D01*
X55493Y-43365D01*
X55176Y-43785D02*
X55191Y-43800D01*
X55206Y-43845D01*
X55206Y-43875D01*
X55191Y-43920D01*
X55161Y-43950D01*
X55131Y-43965D01*
X55071Y-43980D01*
X55026Y-43980D01*
X54966Y-43965D01*
X54936Y-43950D01*
X54906Y-43920D01*
X54891Y-43875D01*
X54891Y-43845D01*
X54906Y-43800D01*
X54921Y-43785D01*
X54891Y-43515D02*
X54891Y-43575D01*
X54906Y-43605D01*
X54921Y-43620D01*
X54966Y-43650D01*
X55026Y-43665D01*
X55146Y-43665D01*
X55176Y-43650D01*
X55191Y-43635D01*
X55206Y-43605D01*
X55206Y-43545D01*
X55191Y-43515D01*
X55176Y-43500D01*
X55146Y-43485D01*
X55071Y-43485D01*
X55041Y-43500D01*
X55026Y-43515D01*
X55011Y-43545D01*
X55011Y-43605D01*
X55026Y-43635D01*
X55041Y-43650D01*
X55071Y-43665D01*
X54891Y-43380D02*
X54891Y-43185D01*
X55011Y-43290D01*
X55011Y-43245D01*
X55026Y-43215D01*
X55041Y-43200D01*
X55071Y-43185D01*
X55146Y-43185D01*
X55176Y-43200D01*
X55191Y-43215D01*
X55206Y-43245D01*
X55206Y-43335D01*
X55191Y-43365D01*
X55176Y-43380D01*
X55073Y-42459D02*
X55058Y-42474D01*
X55013Y-42489D01*
X54983Y-42489D01*
X54938Y-42474D01*
X54908Y-42444D01*
X54893Y-42414D01*
X54878Y-42354D01*
X54878Y-42309D01*
X54893Y-42249D01*
X54908Y-42219D01*
X54938Y-42189D01*
X54983Y-42174D01*
X55013Y-42174D01*
X55058Y-42189D01*
X55073Y-42204D01*
X55193Y-42204D02*
X55208Y-42189D01*
X55238Y-42174D01*
X55313Y-42174D01*
X55343Y-42189D01*
X55358Y-42204D01*
X55373Y-42234D01*
X55373Y-42264D01*
X55358Y-42309D01*
X55178Y-42489D01*
X55373Y-42489D01*
X55673Y-42489D02*
X55493Y-42489D01*
X55583Y-42489D02*
X55583Y-42174D01*
X55553Y-42219D01*
X55523Y-42249D01*
X55493Y-42264D01*
X53542Y-41706D02*
X53557Y-41721D01*
X53572Y-41766D01*
X53572Y-41796D01*
X53557Y-41841D01*
X53527Y-41871D01*
X53497Y-41886D01*
X53437Y-41901D01*
X53392Y-41901D01*
X53332Y-41886D01*
X53302Y-41871D01*
X53272Y-41841D01*
X53257Y-41796D01*
X53257Y-41766D01*
X53272Y-41721D01*
X53287Y-41706D01*
X53572Y-41556D02*
X53572Y-41496D01*
X53557Y-41466D01*
X53542Y-41451D01*
X53497Y-41421D01*
X53437Y-41406D01*
X53317Y-41406D01*
X53287Y-41421D01*
X53272Y-41436D01*
X53257Y-41466D01*
X53257Y-41526D01*
X53272Y-41556D01*
X53287Y-41571D01*
X53317Y-41586D01*
X53392Y-41586D01*
X53422Y-41571D01*
X53437Y-41556D01*
X53452Y-41526D01*
X53452Y-41466D01*
X53437Y-41436D01*
X53422Y-41421D01*
X53392Y-41406D01*
X53362Y-41136D02*
X53572Y-41136D01*
X53242Y-41211D02*
X53467Y-41286D01*
X53467Y-41091D01*
X59746Y-35530D02*
X59731Y-35545D01*
X59686Y-35560D01*
X59656Y-35560D01*
X59611Y-35545D01*
X59581Y-35515D01*
X59566Y-35485D01*
X59551Y-35425D01*
X59551Y-35380D01*
X59566Y-35320D01*
X59581Y-35290D01*
X59611Y-35260D01*
X59656Y-35245D01*
X59686Y-35245D01*
X59731Y-35260D01*
X59746Y-35275D01*
X59896Y-35560D02*
X59956Y-35560D01*
X59986Y-35545D01*
X60001Y-35530D01*
X60031Y-35485D01*
X60046Y-35425D01*
X60046Y-35305D01*
X60031Y-35275D01*
X60016Y-35260D01*
X59986Y-35245D01*
X59926Y-35245D01*
X59896Y-35260D01*
X59881Y-35275D01*
X59866Y-35305D01*
X59866Y-35380D01*
X59881Y-35410D01*
X59896Y-35425D01*
X59926Y-35440D01*
X59986Y-35440D01*
X60016Y-35425D01*
X60031Y-35410D01*
X60046Y-35380D01*
X60166Y-35275D02*
X60181Y-35260D01*
X60211Y-35245D01*
X60286Y-35245D01*
X60316Y-35260D01*
X60331Y-35275D01*
X60346Y-35305D01*
X60346Y-35335D01*
X60331Y-35380D01*
X60151Y-35560D01*
X60346Y-35560D01*
X61010Y-37399D02*
X61025Y-37414D01*
X61040Y-37459D01*
X61040Y-37489D01*
X61025Y-37534D01*
X60995Y-37564D01*
X60965Y-37579D01*
X60905Y-37594D01*
X60860Y-37594D01*
X60800Y-37579D01*
X60770Y-37564D01*
X60740Y-37534D01*
X60725Y-37489D01*
X60725Y-37459D01*
X60740Y-37414D01*
X60755Y-37399D01*
X61040Y-37249D02*
X61040Y-37189D01*
X61025Y-37159D01*
X61010Y-37144D01*
X60965Y-37114D01*
X60905Y-37099D01*
X60785Y-37099D01*
X60755Y-37114D01*
X60740Y-37129D01*
X60725Y-37159D01*
X60725Y-37219D01*
X60740Y-37249D01*
X60755Y-37264D01*
X60785Y-37279D01*
X60860Y-37279D01*
X60890Y-37264D01*
X60905Y-37249D01*
X60920Y-37219D01*
X60920Y-37159D01*
X60905Y-37129D01*
X60890Y-37114D01*
X60860Y-37099D01*
X60725Y-36994D02*
X60725Y-36799D01*
X60845Y-36904D01*
X60845Y-36859D01*
X60860Y-36829D01*
X60875Y-36814D01*
X60905Y-36799D01*
X60980Y-36799D01*
X61010Y-36814D01*
X61025Y-36829D01*
X61040Y-36859D01*
X61040Y-36949D01*
X61025Y-36979D01*
X61010Y-36994D01*
X51983Y-39938D02*
X51998Y-39953D01*
X52013Y-39998D01*
X52013Y-40028D01*
X51998Y-40073D01*
X51968Y-40103D01*
X51938Y-40118D01*
X51878Y-40133D01*
X51833Y-40133D01*
X51773Y-40118D01*
X51743Y-40103D01*
X51713Y-40073D01*
X51698Y-40028D01*
X51698Y-39998D01*
X51713Y-39953D01*
X51728Y-39938D01*
X51803Y-39668D02*
X52013Y-39668D01*
X51683Y-39743D02*
X51908Y-39818D01*
X51908Y-39623D01*
X52013Y-39488D02*
X52013Y-39428D01*
X51998Y-39398D01*
X51983Y-39383D01*
X51938Y-39353D01*
X51878Y-39338D01*
X51758Y-39338D01*
X51728Y-39353D01*
X51713Y-39368D01*
X51698Y-39398D01*
X51698Y-39458D01*
X51713Y-39488D01*
X51728Y-39503D01*
X51758Y-39518D01*
X51833Y-39518D01*
X51863Y-39503D01*
X51878Y-39488D01*
X51893Y-39458D01*
X51893Y-39398D01*
X51878Y-39368D01*
X51863Y-39353D01*
X51833Y-39338D01*
X51793Y-36282D02*
X51778Y-36297D01*
X51733Y-36312D01*
X51703Y-36312D01*
X51658Y-36297D01*
X51628Y-36267D01*
X51613Y-36237D01*
X51598Y-36177D01*
X51598Y-36132D01*
X51613Y-36072D01*
X51628Y-36042D01*
X51658Y-36012D01*
X51703Y-35997D01*
X51733Y-35997D01*
X51778Y-36012D01*
X51793Y-36027D01*
X51913Y-36027D02*
X51928Y-36012D01*
X51958Y-35997D01*
X52033Y-35997D01*
X52063Y-36012D01*
X52078Y-36027D01*
X52093Y-36057D01*
X52093Y-36087D01*
X52078Y-36132D01*
X51898Y-36312D01*
X52093Y-36312D01*
X52213Y-36027D02*
X52228Y-36012D01*
X52258Y-35997D01*
X52333Y-35997D01*
X52363Y-36012D01*
X52378Y-36027D01*
X52393Y-36057D01*
X52393Y-36087D01*
X52378Y-36132D01*
X52198Y-36312D01*
X52393Y-36312D01*
X52693Y-36312D02*
X52513Y-36312D01*
X52603Y-36312D02*
X52603Y-35997D01*
X52573Y-36042D01*
X52543Y-36072D01*
X52513Y-36087D01*
X52360Y-39188D02*
X52345Y-39203D01*
X52300Y-39218D01*
X52270Y-39218D01*
X52225Y-39203D01*
X52195Y-39173D01*
X52180Y-39143D01*
X52165Y-39083D01*
X52165Y-39038D01*
X52180Y-38978D01*
X52195Y-38948D01*
X52225Y-38918D01*
X52270Y-38903D01*
X52300Y-38903D01*
X52345Y-38918D01*
X52360Y-38933D01*
X52630Y-39008D02*
X52630Y-39218D01*
X52555Y-38888D02*
X52480Y-39113D01*
X52675Y-39113D01*
X52930Y-39008D02*
X52930Y-39218D01*
X52855Y-38888D02*
X52780Y-39113D01*
X52975Y-39113D01*
X52416Y-41332D02*
X52431Y-41347D01*
X52446Y-41392D01*
X52446Y-41422D01*
X52431Y-41467D01*
X52401Y-41497D01*
X52371Y-41512D01*
X52311Y-41527D01*
X52266Y-41527D01*
X52206Y-41512D01*
X52176Y-41497D01*
X52146Y-41467D01*
X52131Y-41422D01*
X52131Y-41392D01*
X52146Y-41347D01*
X52161Y-41332D01*
X52131Y-41227D02*
X52131Y-41032D01*
X52251Y-41137D01*
X52251Y-41092D01*
X52266Y-41062D01*
X52281Y-41047D01*
X52311Y-41032D01*
X52386Y-41032D01*
X52416Y-41047D01*
X52431Y-41062D01*
X52446Y-41092D01*
X52446Y-41182D01*
X52431Y-41212D01*
X52416Y-41227D01*
X52446Y-40732D02*
X52446Y-40912D01*
X52446Y-40822D02*
X52131Y-40822D01*
X52176Y-40852D01*
X52206Y-40882D01*
X52221Y-40912D01*
X51951Y-41363D02*
X51966Y-41378D01*
X51981Y-41423D01*
X51981Y-41453D01*
X51966Y-41498D01*
X51936Y-41528D01*
X51906Y-41543D01*
X51846Y-41558D01*
X51801Y-41558D01*
X51741Y-41543D01*
X51711Y-41528D01*
X51681Y-41498D01*
X51666Y-41453D01*
X51666Y-41423D01*
X51681Y-41378D01*
X51696Y-41363D01*
X51666Y-41093D02*
X51666Y-41153D01*
X51681Y-41183D01*
X51696Y-41198D01*
X51741Y-41228D01*
X51801Y-41243D01*
X51921Y-41243D01*
X51951Y-41228D01*
X51966Y-41213D01*
X51981Y-41183D01*
X51981Y-41123D01*
X51966Y-41093D01*
X51951Y-41078D01*
X51921Y-41063D01*
X51846Y-41063D01*
X51816Y-41078D01*
X51801Y-41093D01*
X51786Y-41123D01*
X51786Y-41183D01*
X51801Y-41213D01*
X51816Y-41228D01*
X51846Y-41243D01*
X51801Y-40883D02*
X51786Y-40913D01*
X51771Y-40928D01*
X51741Y-40943D01*
X51726Y-40943D01*
X51696Y-40928D01*
X51681Y-40913D01*
X51666Y-40883D01*
X51666Y-40823D01*
X51681Y-40793D01*
X51696Y-40778D01*
X51726Y-40763D01*
X51741Y-40763D01*
X51771Y-40778D01*
X51786Y-40793D01*
X51801Y-40823D01*
X51801Y-40883D01*
X51816Y-40913D01*
X51831Y-40928D01*
X51861Y-40943D01*
X51921Y-40943D01*
X51951Y-40928D01*
X51966Y-40913D01*
X51981Y-40883D01*
X51981Y-40823D01*
X51966Y-40793D01*
X51951Y-40778D01*
X51921Y-40763D01*
X51861Y-40763D01*
X51831Y-40778D01*
X51816Y-40793D01*
X51801Y-40823D01*
X51502Y-41615D02*
X51517Y-41630D01*
X51532Y-41675D01*
X51532Y-41705D01*
X51517Y-41750D01*
X51488Y-41780D01*
X51458Y-41795D01*
X51398Y-41810D01*
X51353Y-41810D01*
X51293Y-41795D01*
X51263Y-41780D01*
X51233Y-41750D01*
X51218Y-41705D01*
X51218Y-41675D01*
X51233Y-41630D01*
X51248Y-41615D01*
X51218Y-41345D02*
X51218Y-41405D01*
X51233Y-41435D01*
X51248Y-41450D01*
X51293Y-41480D01*
X51353Y-41495D01*
X51473Y-41495D01*
X51502Y-41480D01*
X51517Y-41465D01*
X51532Y-41435D01*
X51532Y-41375D01*
X51517Y-41345D01*
X51502Y-41330D01*
X51473Y-41315D01*
X51398Y-41315D01*
X51368Y-41330D01*
X51353Y-41345D01*
X51338Y-41375D01*
X51338Y-41435D01*
X51353Y-41465D01*
X51368Y-41480D01*
X51398Y-41495D01*
X51218Y-41120D02*
X51218Y-41090D01*
X51233Y-41060D01*
X51248Y-41045D01*
X51278Y-41030D01*
X51338Y-41015D01*
X51413Y-41015D01*
X51473Y-41030D01*
X51502Y-41045D01*
X51517Y-41060D01*
X51532Y-41090D01*
X51532Y-41120D01*
X51517Y-41150D01*
X51502Y-41165D01*
X51473Y-41180D01*
X51413Y-41195D01*
X51338Y-41195D01*
X51278Y-41180D01*
X51248Y-41165D01*
X51233Y-41150D01*
X51218Y-41120D01*
X52329Y-40554D02*
X52314Y-40569D01*
X52269Y-40584D01*
X52239Y-40584D01*
X52194Y-40569D01*
X52164Y-40539D01*
X52149Y-40509D01*
X52134Y-40449D01*
X52134Y-40404D01*
X52149Y-40344D01*
X52164Y-40314D01*
X52194Y-40284D01*
X52239Y-40269D01*
X52269Y-40269D01*
X52314Y-40284D01*
X52329Y-40299D01*
X52434Y-40269D02*
X52628Y-40269D01*
X52523Y-40389D01*
X52568Y-40389D01*
X52598Y-40404D01*
X52613Y-40419D01*
X52628Y-40449D01*
X52628Y-40524D01*
X52613Y-40554D01*
X52598Y-40569D01*
X52568Y-40584D01*
X52479Y-40584D01*
X52449Y-40569D01*
X52434Y-40554D01*
X52898Y-40269D02*
X52838Y-40269D01*
X52808Y-40284D01*
X52793Y-40299D01*
X52763Y-40344D01*
X52748Y-40404D01*
X52748Y-40524D01*
X52763Y-40554D01*
X52778Y-40569D01*
X52808Y-40584D01*
X52868Y-40584D01*
X52898Y-40569D01*
X52913Y-40554D01*
X52928Y-40524D01*
X52928Y-40449D01*
X52913Y-40419D01*
X52898Y-40404D01*
X52868Y-40389D01*
X52808Y-40389D01*
X52778Y-40404D01*
X52763Y-40419D01*
X52748Y-40449D01*
X58525Y-34565D02*
X58510Y-34580D01*
X58465Y-34595D01*
X58435Y-34595D01*
X58390Y-34580D01*
X58360Y-34550D01*
X58345Y-34520D01*
X58330Y-34461D01*
X58330Y-34416D01*
X58345Y-34356D01*
X58360Y-34326D01*
X58390Y-34296D01*
X58435Y-34281D01*
X58465Y-34281D01*
X58510Y-34296D01*
X58525Y-34311D01*
X58795Y-34281D02*
X58735Y-34281D01*
X58705Y-34296D01*
X58690Y-34311D01*
X58660Y-34356D01*
X58645Y-34416D01*
X58645Y-34535D01*
X58660Y-34565D01*
X58675Y-34580D01*
X58705Y-34595D01*
X58765Y-34595D01*
X58795Y-34580D01*
X58810Y-34565D01*
X58825Y-34535D01*
X58825Y-34461D01*
X58810Y-34431D01*
X58795Y-34416D01*
X58765Y-34401D01*
X58705Y-34401D01*
X58675Y-34416D01*
X58660Y-34431D01*
X58645Y-34461D01*
X58975Y-34595D02*
X59035Y-34595D01*
X59065Y-34580D01*
X59080Y-34565D01*
X59110Y-34520D01*
X59125Y-34461D01*
X59125Y-34341D01*
X59110Y-34311D01*
X59095Y-34296D01*
X59065Y-34281D01*
X59005Y-34281D01*
X58975Y-34296D01*
X58960Y-34311D01*
X58945Y-34341D01*
X58945Y-34416D01*
X58960Y-34446D01*
X58975Y-34461D01*
X59005Y-34476D01*
X59065Y-34476D01*
X59095Y-34461D01*
X59110Y-34446D01*
X59125Y-34416D01*
X51022Y-41604D02*
X51037Y-41619D01*
X51052Y-41664D01*
X51052Y-41694D01*
X51037Y-41739D01*
X51007Y-41769D01*
X50977Y-41784D01*
X50917Y-41799D01*
X50872Y-41799D01*
X50812Y-41784D01*
X50782Y-41769D01*
X50752Y-41739D01*
X50737Y-41694D01*
X50737Y-41664D01*
X50752Y-41619D01*
X50767Y-41604D01*
X50737Y-41319D02*
X50737Y-41469D01*
X50887Y-41484D01*
X50872Y-41469D01*
X50857Y-41439D01*
X50857Y-41364D01*
X50872Y-41334D01*
X50887Y-41319D01*
X50917Y-41304D01*
X50992Y-41304D01*
X51022Y-41319D01*
X51037Y-41334D01*
X51052Y-41364D01*
X51052Y-41439D01*
X51037Y-41469D01*
X51022Y-41484D01*
X50737Y-41034D02*
X50737Y-41094D01*
X50752Y-41124D01*
X50767Y-41139D01*
X50812Y-41169D01*
X50872Y-41184D01*
X50992Y-41184D01*
X51022Y-41169D01*
X51037Y-41154D01*
X51052Y-41124D01*
X51052Y-41064D01*
X51037Y-41034D01*
X51022Y-41019D01*
X50992Y-41004D01*
X50917Y-41004D01*
X50887Y-41019D01*
X50872Y-41034D01*
X50857Y-41064D01*
X50857Y-41124D01*
X50872Y-41154D01*
X50887Y-41169D01*
X50917Y-41184D01*
X53093Y-41737D02*
X53108Y-41752D01*
X53123Y-41797D01*
X53123Y-41827D01*
X53108Y-41872D01*
X53078Y-41902D01*
X53048Y-41917D01*
X52988Y-41932D01*
X52943Y-41932D01*
X52883Y-41917D01*
X52853Y-41902D01*
X52823Y-41872D01*
X52808Y-41827D01*
X52808Y-41797D01*
X52823Y-41752D01*
X52838Y-41737D01*
X53123Y-41587D02*
X53123Y-41527D01*
X53108Y-41497D01*
X53093Y-41482D01*
X53048Y-41452D01*
X52988Y-41437D01*
X52868Y-41437D01*
X52838Y-41452D01*
X52823Y-41467D01*
X52808Y-41497D01*
X52808Y-41557D01*
X52823Y-41587D01*
X52838Y-41602D01*
X52868Y-41617D01*
X52943Y-41617D01*
X52973Y-41602D01*
X52988Y-41587D01*
X53003Y-41557D01*
X53003Y-41497D01*
X52988Y-41467D01*
X52973Y-41452D01*
X52943Y-41437D01*
X52808Y-41152D02*
X52808Y-41302D01*
X52958Y-41317D01*
X52943Y-41302D01*
X52928Y-41272D01*
X52928Y-41197D01*
X52943Y-41167D01*
X52958Y-41152D01*
X52988Y-41137D01*
X53063Y-41137D01*
X53093Y-41152D01*
X53108Y-41167D01*
X53123Y-41197D01*
X53123Y-41272D01*
X53108Y-41302D01*
X53093Y-41317D01*
X61892Y-34565D02*
X61877Y-34580D01*
X61832Y-34595D01*
X61802Y-34595D01*
X61757Y-34580D01*
X61727Y-34550D01*
X61712Y-34520D01*
X61697Y-34461D01*
X61697Y-34416D01*
X61712Y-34356D01*
X61727Y-34326D01*
X61757Y-34296D01*
X61802Y-34281D01*
X61832Y-34281D01*
X61877Y-34296D01*
X61892Y-34311D01*
X61997Y-34281D02*
X62206Y-34281D01*
X62071Y-34595D01*
X62296Y-34281D02*
X62506Y-34281D01*
X62371Y-34595D01*
X48325Y-37249D02*
X48340Y-37264D01*
X48355Y-37309D01*
X48355Y-37339D01*
X48340Y-37384D01*
X48310Y-37414D01*
X48280Y-37429D01*
X48220Y-37444D01*
X48175Y-37444D01*
X48115Y-37429D01*
X48085Y-37414D01*
X48055Y-37384D01*
X48040Y-37339D01*
X48040Y-37309D01*
X48055Y-37264D01*
X48070Y-37249D01*
X48040Y-37144D02*
X48040Y-36934D01*
X48355Y-37069D01*
X48040Y-36664D02*
X48040Y-36814D01*
X48190Y-36829D01*
X48175Y-36814D01*
X48160Y-36784D01*
X48160Y-36709D01*
X48175Y-36679D01*
X48190Y-36664D01*
X48220Y-36649D01*
X48295Y-36649D01*
X48325Y-36664D01*
X48340Y-36679D01*
X48355Y-36709D01*
X48355Y-36784D01*
X48340Y-36814D01*
X48325Y-36829D01*
X48640Y-38627D02*
X48655Y-38642D01*
X48670Y-38687D01*
X48670Y-38717D01*
X48655Y-38762D01*
X48625Y-38792D01*
X48595Y-38807D01*
X48535Y-38822D01*
X48490Y-38822D01*
X48430Y-38807D01*
X48400Y-38792D01*
X48370Y-38762D01*
X48355Y-38717D01*
X48355Y-38687D01*
X48370Y-38642D01*
X48385Y-38627D01*
X48355Y-38522D02*
X48355Y-38312D01*
X48670Y-38447D01*
X48355Y-38057D02*
X48355Y-38117D01*
X48370Y-38147D01*
X48385Y-38162D01*
X48430Y-38192D01*
X48490Y-38207D01*
X48610Y-38207D01*
X48640Y-38192D01*
X48655Y-38177D01*
X48670Y-38147D01*
X48670Y-38087D01*
X48655Y-38057D01*
X48640Y-38042D01*
X48610Y-38027D01*
X48535Y-38027D01*
X48505Y-38042D01*
X48490Y-38057D01*
X48475Y-38087D01*
X48475Y-38147D01*
X48490Y-38177D01*
X48505Y-38192D01*
X48535Y-38207D01*
X61569Y-38215D02*
X61554Y-38230D01*
X61509Y-38245D01*
X61479Y-38245D01*
X61434Y-38230D01*
X61404Y-38200D01*
X61389Y-38170D01*
X61374Y-38110D01*
X61374Y-38065D01*
X61389Y-38005D01*
X61404Y-37975D01*
X61434Y-37945D01*
X61479Y-37930D01*
X61509Y-37930D01*
X61554Y-37945D01*
X61569Y-37960D01*
X61869Y-38245D02*
X61689Y-38245D01*
X61779Y-38245D02*
X61779Y-37930D01*
X61749Y-37975D01*
X61719Y-38005D01*
X61689Y-38020D01*
X62049Y-38065D02*
X62019Y-38050D01*
X62004Y-38035D01*
X61989Y-38005D01*
X61989Y-37990D01*
X62004Y-37960D01*
X62019Y-37945D01*
X62049Y-37930D01*
X62109Y-37930D01*
X62139Y-37945D01*
X62154Y-37960D01*
X62169Y-37990D01*
X62169Y-38005D01*
X62154Y-38035D01*
X62139Y-38050D01*
X62109Y-38065D01*
X62049Y-38065D01*
X62019Y-38080D01*
X62004Y-38095D01*
X61989Y-38125D01*
X61989Y-38185D01*
X62004Y-38215D01*
X62019Y-38230D01*
X62049Y-38245D01*
X62109Y-38245D01*
X62139Y-38230D01*
X62154Y-38215D01*
X62169Y-38185D01*
X62169Y-38125D01*
X62154Y-38095D01*
X62139Y-38080D01*
X62109Y-38065D01*
X61136Y-39231D02*
X61121Y-39246D01*
X61076Y-39261D01*
X61046Y-39261D01*
X61001Y-39246D01*
X60971Y-39216D01*
X60956Y-39186D01*
X60941Y-39126D01*
X60941Y-39081D01*
X60956Y-39021D01*
X60971Y-38991D01*
X61001Y-38961D01*
X61046Y-38946D01*
X61076Y-38946D01*
X61121Y-38961D01*
X61136Y-38976D01*
X61436Y-39261D02*
X61256Y-39261D01*
X61346Y-39261D02*
X61346Y-38946D01*
X61316Y-38991D01*
X61286Y-39021D01*
X61256Y-39036D01*
X61541Y-38946D02*
X61751Y-38946D01*
X61616Y-39261D01*
X61136Y-39625D02*
X61121Y-39640D01*
X61076Y-39655D01*
X61046Y-39655D01*
X61001Y-39640D01*
X60971Y-39610D01*
X60956Y-39580D01*
X60941Y-39520D01*
X60941Y-39475D01*
X60956Y-39415D01*
X60971Y-39385D01*
X61001Y-39355D01*
X61046Y-39340D01*
X61076Y-39340D01*
X61121Y-39355D01*
X61136Y-39370D01*
X61436Y-39655D02*
X61256Y-39655D01*
X61346Y-39655D02*
X61346Y-39340D01*
X61316Y-39385D01*
X61286Y-39415D01*
X61256Y-39430D01*
X61706Y-39340D02*
X61646Y-39340D01*
X61616Y-39355D01*
X61601Y-39370D01*
X61571Y-39415D01*
X61556Y-39475D01*
X61556Y-39595D01*
X61571Y-39625D01*
X61586Y-39640D01*
X61616Y-39655D01*
X61676Y-39655D01*
X61706Y-39640D01*
X61721Y-39625D01*
X61736Y-39595D01*
X61736Y-39520D01*
X61721Y-39490D01*
X61706Y-39475D01*
X61676Y-39460D01*
X61616Y-39460D01*
X61586Y-39475D01*
X61571Y-39490D01*
X61556Y-39520D01*
X61293Y-40058D02*
X61278Y-40073D01*
X61233Y-40088D01*
X61203Y-40088D01*
X61158Y-40073D01*
X61128Y-40043D01*
X61113Y-40013D01*
X61098Y-39953D01*
X61098Y-39908D01*
X61113Y-39848D01*
X61128Y-39818D01*
X61158Y-39788D01*
X61203Y-39773D01*
X61233Y-39773D01*
X61278Y-39788D01*
X61293Y-39803D01*
X61593Y-40088D02*
X61413Y-40088D01*
X61503Y-40088D02*
X61503Y-39773D01*
X61473Y-39818D01*
X61443Y-39848D01*
X61413Y-39863D01*
X61698Y-39773D02*
X61893Y-39773D01*
X61788Y-39893D01*
X61833Y-39893D01*
X61863Y-39908D01*
X61878Y-39923D01*
X61893Y-39953D01*
X61893Y-40028D01*
X61878Y-40058D01*
X61863Y-40073D01*
X61833Y-40088D01*
X61743Y-40088D01*
X61713Y-40073D01*
X61698Y-40058D01*
X61293Y-41790D02*
X61278Y-41805D01*
X61233Y-41820D01*
X61203Y-41820D01*
X61158Y-41805D01*
X61128Y-41775D01*
X61113Y-41745D01*
X61098Y-41685D01*
X61098Y-41640D01*
X61113Y-41580D01*
X61128Y-41550D01*
X61158Y-41520D01*
X61203Y-41505D01*
X61233Y-41505D01*
X61278Y-41520D01*
X61293Y-41535D01*
X61593Y-41820D02*
X61413Y-41820D01*
X61503Y-41820D02*
X61503Y-41505D01*
X61473Y-41550D01*
X61443Y-41580D01*
X61413Y-41595D01*
X61878Y-41505D02*
X61728Y-41505D01*
X61713Y-41655D01*
X61728Y-41640D01*
X61758Y-41625D01*
X61833Y-41625D01*
X61863Y-41640D01*
X61878Y-41655D01*
X61893Y-41685D01*
X61893Y-41760D01*
X61878Y-41790D01*
X61863Y-41805D01*
X61833Y-41820D01*
X61758Y-41820D01*
X61728Y-41805D01*
X61713Y-41790D01*
X54325Y-39416D02*
X54310Y-39431D01*
X54265Y-39446D01*
X54235Y-39446D01*
X54190Y-39431D01*
X54160Y-39401D01*
X54145Y-39371D01*
X54130Y-39311D01*
X54130Y-39266D01*
X54145Y-39206D01*
X54160Y-39176D01*
X54190Y-39146D01*
X54235Y-39131D01*
X54265Y-39131D01*
X54310Y-39146D01*
X54325Y-39161D01*
X54610Y-39131D02*
X54460Y-39131D01*
X54445Y-39281D01*
X54460Y-39266D01*
X54490Y-39251D01*
X54565Y-39251D01*
X54595Y-39266D01*
X54610Y-39281D01*
X54625Y-39311D01*
X54625Y-39386D01*
X54610Y-39416D01*
X54595Y-39431D01*
X54565Y-39446D01*
X54490Y-39446D01*
X54460Y-39431D01*
X54445Y-39416D01*
X61332Y-40491D02*
X61317Y-40506D01*
X61272Y-40521D01*
X61242Y-40521D01*
X61197Y-40506D01*
X61167Y-40476D01*
X61152Y-40446D01*
X61137Y-40386D01*
X61137Y-40341D01*
X61152Y-40281D01*
X61167Y-40251D01*
X61197Y-40221D01*
X61242Y-40206D01*
X61272Y-40206D01*
X61317Y-40221D01*
X61332Y-40236D01*
X61632Y-40521D02*
X61452Y-40521D01*
X61542Y-40521D02*
X61542Y-40206D01*
X61512Y-40251D01*
X61482Y-40281D01*
X61452Y-40296D01*
X61902Y-40311D02*
X61902Y-40521D01*
X61827Y-40191D02*
X61752Y-40416D01*
X61947Y-40416D01*
X55265Y-48796D02*
X55115Y-48901D01*
X55265Y-48976D02*
X54950Y-48976D01*
X54950Y-48856D01*
X54965Y-48826D01*
X54980Y-48811D01*
X55010Y-48796D01*
X55055Y-48796D01*
X55085Y-48811D01*
X55100Y-48826D01*
X55115Y-48856D01*
X55115Y-48976D01*
X55055Y-48526D02*
X55265Y-48526D01*
X54935Y-48601D02*
X55160Y-48676D01*
X55160Y-48482D01*
X54950Y-48392D02*
X54950Y-48197D01*
X55070Y-48302D01*
X55070Y-48257D01*
X55085Y-48227D01*
X55100Y-48212D01*
X55130Y-48197D01*
X55205Y-48197D01*
X55235Y-48212D01*
X55250Y-48227D01*
X55265Y-48257D01*
X55265Y-48347D01*
X55250Y-48377D01*
X55235Y-48392D01*
X56319Y-44391D02*
X56499Y-44391D01*
X56409Y-44706D02*
X56409Y-44391D01*
X56769Y-44706D02*
X56589Y-44706D01*
X56679Y-44706D02*
X56679Y-44391D01*
X56649Y-44436D01*
X56619Y-44466D01*
X56589Y-44481D01*
G54D12*
X56866Y-43411D02*
X56866Y-43505D01*
X56791Y-43467D02*
X56866Y-43505D01*
X56940Y-43467D01*
X56821Y-43580D02*
X56866Y-43505D01*
X56910Y-43580D01*
G54D14*
X54634Y-35060D02*
X54814Y-35060D01*
X54724Y-35375D02*
X54724Y-35060D01*
X54903Y-35090D02*
X54918Y-35075D01*
X54948Y-35060D01*
X55023Y-35060D01*
X55053Y-35075D01*
X55068Y-35090D01*
X55083Y-35120D01*
X55083Y-35150D01*
X55068Y-35195D01*
X54888Y-35375D01*
X55083Y-35375D01*
G54D12*
X56821Y-36282D02*
X56821Y-36375D01*
X56746Y-36338D02*
X56821Y-36375D01*
X56895Y-36338D01*
X56776Y-36450D02*
X56821Y-36375D01*
X56865Y-36450D01*
G54D14*
X60644Y-44123D02*
X60644Y-43808D01*
X60719Y-43808D01*
X60764Y-43823D01*
X60794Y-43853D01*
X60809Y-43883D01*
X60824Y-43943D01*
X60824Y-43988D01*
X60809Y-44048D01*
X60794Y-44078D01*
X60764Y-44108D01*
X60719Y-44123D01*
X60644Y-44123D01*
X60944Y-44033D02*
X61094Y-44033D01*
X60914Y-44123D02*
X61019Y-43808D01*
X61124Y-44123D01*
X61364Y-43808D02*
X61304Y-43808D01*
X61274Y-43823D01*
X61259Y-43838D01*
X61229Y-43883D01*
X61214Y-43943D01*
X61214Y-44063D01*
X61229Y-44093D01*
X61244Y-44108D01*
X61274Y-44123D01*
X61334Y-44123D01*
X61364Y-44108D01*
X61379Y-44093D01*
X61394Y-44063D01*
X61394Y-43988D01*
X61379Y-43958D01*
X61364Y-43943D01*
X61334Y-43928D01*
X61274Y-43928D01*
X61244Y-43943D01*
X61229Y-43958D01*
X61214Y-43988D01*
X60966Y-45602D02*
X61060Y-45602D01*
X61022Y-45677D02*
X61060Y-45602D01*
X61022Y-45527D01*
X61135Y-45647D02*
X61060Y-45602D01*
X61135Y-45557D01*
X61852Y-45857D02*
X61837Y-45872D01*
X61792Y-45887D01*
X61762Y-45887D01*
X61717Y-45872D01*
X61687Y-45842D01*
X61672Y-45812D01*
X61657Y-45752D01*
X61657Y-45707D01*
X61672Y-45647D01*
X61687Y-45617D01*
X61717Y-45587D01*
X61762Y-45572D01*
X61792Y-45572D01*
X61837Y-45587D01*
X61852Y-45602D01*
X61972Y-45602D02*
X61987Y-45587D01*
X62017Y-45572D01*
X62092Y-45572D01*
X62122Y-45587D01*
X62137Y-45602D01*
X62152Y-45632D01*
X62152Y-45662D01*
X62137Y-45707D01*
X61957Y-45887D01*
X62152Y-45887D01*
X62422Y-45572D02*
X62362Y-45572D01*
X62332Y-45587D01*
X62317Y-45602D01*
X62287Y-45647D01*
X62272Y-45707D01*
X62272Y-45827D01*
X62287Y-45857D01*
X62302Y-45872D01*
X62332Y-45887D01*
X62392Y-45887D01*
X62422Y-45872D01*
X62437Y-45857D01*
X62452Y-45827D01*
X62452Y-45752D01*
X62437Y-45722D01*
X62422Y-45707D01*
X62392Y-45692D01*
X62332Y-45692D01*
X62302Y-45707D01*
X62287Y-45722D01*
X62272Y-45752D01*
X55884Y-37887D02*
X55884Y-37572D01*
X55959Y-37572D01*
X56004Y-37587D01*
X56034Y-37617D01*
X56049Y-37647D01*
X56064Y-37707D01*
X56064Y-37752D01*
X56049Y-37812D01*
X56034Y-37842D01*
X56004Y-37872D01*
X55959Y-37887D01*
X55884Y-37887D01*
X56184Y-37797D02*
X56334Y-37797D01*
X56154Y-37887D02*
X56259Y-37572D01*
X56364Y-37887D01*
X56439Y-37572D02*
X56634Y-37572D01*
X56529Y-37692D01*
X56574Y-37692D01*
X56604Y-37707D01*
X56619Y-37722D01*
X56634Y-37752D01*
X56634Y-37827D01*
X56619Y-37857D01*
X56604Y-37872D01*
X56574Y-37887D01*
X56484Y-37887D01*
X56454Y-37872D01*
X56439Y-37857D01*
X46462Y-35711D02*
X46447Y-35726D01*
X46402Y-35741D01*
X46372Y-35741D01*
X46327Y-35726D01*
X46297Y-35696D01*
X46282Y-35666D01*
X46267Y-35606D01*
X46267Y-35561D01*
X46282Y-35501D01*
X46297Y-35471D01*
X46327Y-35441D01*
X46372Y-35426D01*
X46402Y-35426D01*
X46447Y-35441D01*
X46462Y-35456D01*
X46582Y-35456D02*
X46597Y-35441D01*
X46627Y-35426D01*
X46702Y-35426D01*
X46732Y-35441D01*
X46747Y-35456D01*
X46762Y-35486D01*
X46762Y-35516D01*
X46747Y-35561D01*
X46567Y-35741D01*
X46762Y-35741D01*
X46942Y-35561D02*
X46912Y-35546D01*
X46897Y-35531D01*
X46882Y-35501D01*
X46882Y-35486D01*
X46897Y-35456D01*
X46912Y-35441D01*
X46942Y-35426D01*
X47002Y-35426D01*
X47032Y-35441D01*
X47047Y-35456D01*
X47062Y-35486D01*
X47062Y-35501D01*
X47047Y-35531D01*
X47032Y-35546D01*
X47002Y-35561D01*
X46942Y-35561D01*
X46912Y-35576D01*
X46897Y-35591D01*
X46882Y-35621D01*
X46882Y-35681D01*
X46897Y-35711D01*
X46912Y-35726D01*
X46942Y-35741D01*
X47002Y-35741D01*
X47032Y-35726D01*
X47047Y-35711D01*
X47062Y-35681D01*
X47062Y-35621D01*
X47047Y-35591D01*
X47032Y-35576D01*
X47002Y-35561D01*
X47490Y-36097D02*
X47475Y-36112D01*
X47430Y-36127D01*
X47400Y-36127D01*
X47355Y-36112D01*
X47325Y-36082D01*
X47310Y-36052D01*
X47295Y-35992D01*
X47295Y-35947D01*
X47310Y-35887D01*
X47325Y-35857D01*
X47355Y-35827D01*
X47400Y-35812D01*
X47430Y-35812D01*
X47475Y-35827D01*
X47490Y-35842D01*
X47610Y-35842D02*
X47625Y-35827D01*
X47655Y-35812D01*
X47730Y-35812D01*
X47760Y-35827D01*
X47775Y-35842D01*
X47790Y-35872D01*
X47790Y-35902D01*
X47775Y-35947D01*
X47595Y-36127D01*
X47790Y-36127D01*
X47940Y-36127D02*
X48000Y-36127D01*
X48030Y-36112D01*
X48045Y-36097D01*
X48075Y-36052D01*
X48090Y-35992D01*
X48090Y-35872D01*
X48075Y-35842D01*
X48060Y-35827D01*
X48030Y-35812D01*
X47970Y-35812D01*
X47940Y-35827D01*
X47925Y-35842D01*
X47910Y-35872D01*
X47910Y-35947D01*
X47925Y-35977D01*
X47940Y-35992D01*
X47970Y-36007D01*
X48030Y-36007D01*
X48060Y-35992D01*
X48075Y-35977D01*
X48090Y-35947D01*
X46481Y-38434D02*
X46376Y-38284D01*
X46301Y-38434D02*
X46301Y-38119D01*
X46421Y-38119D01*
X46451Y-38134D01*
X46466Y-38149D01*
X46481Y-38179D01*
X46481Y-38224D01*
X46466Y-38254D01*
X46451Y-38269D01*
X46421Y-38284D01*
X46301Y-38284D01*
X46571Y-38119D02*
X46751Y-38119D01*
X46661Y-38434D02*
X46661Y-38119D01*
X47020Y-38434D02*
X46841Y-38434D01*
X46931Y-38434D02*
X46931Y-38119D01*
X46901Y-38164D01*
X46871Y-38194D01*
X46841Y-38209D01*
X50226Y-33412D02*
X50211Y-33427D01*
X50166Y-33442D01*
X50136Y-33442D01*
X50091Y-33427D01*
X50061Y-33397D01*
X50046Y-33367D01*
X50031Y-33307D01*
X50031Y-33262D01*
X50046Y-33202D01*
X50061Y-33172D01*
X50091Y-33142D01*
X50136Y-33127D01*
X50166Y-33127D01*
X50211Y-33142D01*
X50226Y-33157D01*
X50331Y-33127D02*
X50526Y-33127D01*
X50421Y-33247D01*
X50466Y-33247D01*
X50496Y-33262D01*
X50511Y-33277D01*
X50526Y-33307D01*
X50526Y-33382D01*
X50511Y-33412D01*
X50496Y-33427D01*
X50466Y-33442D01*
X50376Y-33442D01*
X50346Y-33427D01*
X50331Y-33412D01*
X50721Y-33127D02*
X50751Y-33127D01*
X50781Y-33142D01*
X50796Y-33157D01*
X50811Y-33187D01*
X50826Y-33247D01*
X50826Y-33322D01*
X50811Y-33382D01*
X50796Y-33412D01*
X50781Y-33427D01*
X50751Y-33442D01*
X50721Y-33442D01*
X50691Y-33427D01*
X50676Y-33412D01*
X50661Y-33382D01*
X50646Y-33322D01*
X50646Y-33247D01*
X50661Y-33187D01*
X50676Y-33157D01*
X50691Y-33142D01*
X50721Y-33127D01*
X48466Y-36069D02*
X48451Y-36084D01*
X48406Y-36099D01*
X48376Y-36099D01*
X48331Y-36084D01*
X48301Y-36054D01*
X48286Y-36024D01*
X48271Y-35964D01*
X48271Y-35919D01*
X48286Y-35859D01*
X48301Y-35829D01*
X48331Y-35799D01*
X48376Y-35784D01*
X48406Y-35784D01*
X48451Y-35799D01*
X48466Y-35814D01*
X48571Y-35784D02*
X48766Y-35784D01*
X48661Y-35904D01*
X48706Y-35904D01*
X48736Y-35919D01*
X48751Y-35934D01*
X48766Y-35964D01*
X48766Y-36039D01*
X48751Y-36069D01*
X48736Y-36084D01*
X48706Y-36099D01*
X48616Y-36099D01*
X48586Y-36084D01*
X48571Y-36069D01*
X48886Y-35814D02*
X48901Y-35799D01*
X48931Y-35784D01*
X49006Y-35784D01*
X49036Y-35799D01*
X49051Y-35814D01*
X49066Y-35844D01*
X49066Y-35874D01*
X49051Y-35919D01*
X48871Y-36099D01*
X49066Y-36099D01*
X46867Y-44144D02*
X47182Y-43934D01*
X46867Y-43934D02*
X47182Y-44144D01*
X46897Y-43829D02*
X46882Y-43814D01*
X46867Y-43784D01*
X46867Y-43709D01*
X46882Y-43679D01*
X46897Y-43664D01*
X46927Y-43649D01*
X46957Y-43649D01*
X47002Y-43664D01*
X47182Y-43844D01*
X47182Y-43649D01*
G54D12*
X47763Y-46591D02*
X47763Y-46352D01*
X47883Y-46472D02*
X47643Y-46472D01*
X47568Y-46247D02*
X47883Y-46143D01*
X47568Y-46038D01*
X47853Y-45754D02*
X47868Y-45769D01*
X47883Y-45814D01*
X47883Y-45844D01*
X47868Y-45889D01*
X47838Y-45918D01*
X47808Y-45933D01*
X47748Y-45948D01*
X47703Y-45948D01*
X47643Y-45933D01*
X47613Y-45918D01*
X47583Y-45889D01*
X47568Y-45844D01*
X47568Y-45814D01*
X47583Y-45769D01*
X47598Y-45754D01*
X47853Y-45440D02*
X47868Y-45455D01*
X47883Y-45500D01*
X47883Y-45530D01*
X47868Y-45575D01*
X47838Y-45604D01*
X47808Y-45619D01*
X47748Y-45634D01*
X47703Y-45634D01*
X47643Y-45619D01*
X47613Y-45604D01*
X47583Y-45575D01*
X47568Y-45530D01*
X47568Y-45500D01*
X47583Y-45455D01*
X47598Y-45440D01*
G54D14*
X46194Y-32410D02*
X46404Y-32725D01*
X46404Y-32410D02*
X46194Y-32725D01*
X46584Y-32410D02*
X46644Y-32410D01*
X46674Y-32425D01*
X46704Y-32455D01*
X46719Y-32515D01*
X46719Y-32620D01*
X46704Y-32680D01*
X46674Y-32710D01*
X46644Y-32725D01*
X46584Y-32725D01*
X46554Y-32710D01*
X46524Y-32680D01*
X46509Y-32620D01*
X46509Y-32515D01*
X46524Y-32455D01*
X46554Y-32425D01*
X46584Y-32410D01*
X47019Y-32725D02*
X46839Y-32725D01*
X46929Y-32725D02*
X46929Y-32410D01*
X46899Y-32455D01*
X46869Y-32485D01*
X46839Y-32500D01*
G54D10*
X49370Y-32915D02*
X49370Y-33008D01*
X49276Y-32971D02*
X49370Y-33008D01*
X49463Y-32971D01*
X49313Y-33083D02*
X49370Y-33008D01*
X49426Y-33083D01*
G54D14*
X47178Y-32410D02*
X47388Y-32725D01*
X47388Y-32410D02*
X47178Y-32725D01*
X47568Y-32410D02*
X47628Y-32410D01*
X47658Y-32425D01*
X47688Y-32455D01*
X47703Y-32515D01*
X47703Y-32620D01*
X47688Y-32680D01*
X47658Y-32710D01*
X47628Y-32725D01*
X47568Y-32725D01*
X47538Y-32710D01*
X47508Y-32680D01*
X47493Y-32620D01*
X47493Y-32515D01*
X47508Y-32455D01*
X47538Y-32425D01*
X47568Y-32410D01*
X47823Y-32440D02*
X47838Y-32425D01*
X47868Y-32410D01*
X47943Y-32410D01*
X47973Y-32425D01*
X47988Y-32440D01*
X48003Y-32470D01*
X48003Y-32500D01*
X47988Y-32545D01*
X47808Y-32725D01*
X48003Y-32725D01*
G54D10*
X49015Y-33599D02*
X49015Y-33655D01*
X48959Y-33633D02*
X49015Y-33655D01*
X49071Y-33633D01*
X48982Y-33700D02*
X49015Y-33655D01*
X49049Y-33700D01*
G54D14*
X59508Y-46702D02*
X59718Y-47017D01*
X59718Y-46702D02*
X59508Y-47017D01*
X59988Y-46702D02*
X59838Y-46702D01*
X59823Y-46852D01*
X59838Y-46837D01*
X59868Y-46822D01*
X59943Y-46822D01*
X59973Y-46837D01*
X59988Y-46852D01*
X60003Y-46882D01*
X60003Y-46957D01*
X59988Y-46987D01*
X59973Y-47002D01*
X59943Y-47017D01*
X59868Y-47017D01*
X59838Y-47002D01*
X59823Y-46987D01*
G54D10*
X64656Y-48119D02*
X64476Y-48119D01*
X64566Y-48119D02*
X64566Y-47804D01*
X64536Y-47849D01*
X64506Y-47879D01*
X64476Y-47894D01*
G54D14*
X59414Y-48281D02*
X59624Y-48595D01*
X59624Y-48281D02*
X59414Y-48595D01*
X59879Y-48386D02*
X59879Y-48595D01*
X59804Y-48266D02*
X59729Y-48491D01*
X59924Y-48491D01*
G54D10*
X59262Y-49576D02*
X59083Y-49576D01*
X59173Y-49576D02*
X59173Y-49261D01*
X59143Y-49306D01*
X59113Y-49336D01*
X59083Y-49351D01*
G54D14*
X56049Y-48670D02*
X55899Y-48670D01*
X55899Y-48355D01*
X56154Y-48670D02*
X56154Y-48355D01*
X56229Y-48355D01*
X56274Y-48370D01*
X56304Y-48400D01*
X56319Y-48430D01*
X56334Y-48490D01*
X56334Y-48535D01*
X56319Y-48595D01*
X56304Y-48625D01*
X56274Y-48655D01*
X56229Y-48670D01*
X56154Y-48670D01*
X56634Y-48670D02*
X56454Y-48670D01*
X56544Y-48670D02*
X56544Y-48355D01*
X56514Y-48400D01*
X56484Y-48430D01*
X56454Y-48445D01*
X57579Y-33080D02*
X57789Y-33395D01*
X57789Y-33080D02*
X57579Y-33395D01*
X57924Y-33395D02*
X57984Y-33395D01*
X58014Y-33380D01*
X58029Y-33365D01*
X58059Y-33320D01*
X58074Y-33260D01*
X58074Y-33140D01*
X58059Y-33110D01*
X58044Y-33095D01*
X58014Y-33080D01*
X57954Y-33080D01*
X57924Y-33095D01*
X57909Y-33110D01*
X57894Y-33140D01*
X57894Y-33215D01*
X57909Y-33245D01*
X57924Y-33260D01*
X57954Y-33275D01*
X58014Y-33275D01*
X58044Y-33260D01*
X58059Y-33245D01*
X58074Y-33215D01*
G54D12*
X51467Y-33426D02*
X51288Y-33426D01*
X51377Y-33426D02*
X51377Y-33033D01*
X51348Y-33089D01*
X51318Y-33127D01*
X51288Y-33146D01*
G54D14*
X60471Y-34485D02*
X60471Y-34170D01*
X60546Y-34170D01*
X60591Y-34185D01*
X60621Y-34215D01*
X60636Y-34245D01*
X60651Y-34305D01*
X60651Y-34350D01*
X60636Y-34410D01*
X60621Y-34440D01*
X60591Y-34470D01*
X60546Y-34485D01*
X60471Y-34485D01*
X60771Y-34395D02*
X60921Y-34395D01*
X60741Y-34485D02*
X60846Y-34170D01*
X60951Y-34485D01*
X61206Y-34170D02*
X61056Y-34170D01*
X61041Y-34320D01*
X61056Y-34305D01*
X61086Y-34290D01*
X61161Y-34290D01*
X61191Y-34305D01*
X61206Y-34320D01*
X61221Y-34350D01*
X61221Y-34425D01*
X61206Y-34455D01*
X61191Y-34470D01*
X61161Y-34485D01*
X61086Y-34485D01*
X61056Y-34470D01*
X61041Y-34455D01*
G54D12*
X60256Y-34825D02*
X60256Y-34918D01*
X60181Y-34881D02*
X60256Y-34918D01*
X60330Y-34881D01*
X60211Y-34993D02*
X60256Y-34918D01*
X60300Y-34993D01*
G54D14*
X64221Y-33954D02*
X64431Y-34269D01*
X64431Y-33954D02*
X64221Y-34269D01*
X64686Y-33954D02*
X64626Y-33954D01*
X64596Y-33969D01*
X64581Y-33984D01*
X64551Y-34029D01*
X64536Y-34089D01*
X64536Y-34209D01*
X64551Y-34239D01*
X64566Y-34254D01*
X64596Y-34269D01*
X64656Y-34269D01*
X64686Y-34254D01*
X64701Y-34239D01*
X64716Y-34209D01*
X64716Y-34134D01*
X64701Y-34104D01*
X64686Y-34089D01*
X64656Y-34074D01*
X64596Y-34074D01*
X64566Y-34089D01*
X64551Y-34104D01*
X64536Y-34134D01*
X64221Y-43501D02*
X64431Y-43816D01*
X64431Y-43501D02*
X64221Y-43816D01*
X64521Y-43501D02*
X64731Y-43501D01*
X64596Y-43816D01*
X50688Y-34293D02*
X50793Y-34293D01*
X50838Y-34458D02*
X50688Y-34458D01*
X50688Y-34143D01*
X50838Y-34143D01*
X50973Y-34458D02*
X50973Y-34143D01*
X51152Y-34458D02*
X51017Y-34278D01*
X51152Y-34143D02*
X50973Y-34323D01*
X51452Y-34458D02*
X51272Y-34458D01*
X51362Y-34458D02*
X51362Y-34143D01*
X51332Y-34188D01*
X51302Y-34218D01*
X51272Y-34233D01*
M02*
