M48
;DRILL file {Pcbnew (2013-07-07 BZR 4022)-stable} date 09/07/2014 14:33:08
;FORMAT={-:-/ absolute / metric / decimal}
FMAT,2
METRIC,TZ
T1C0.196
T2C0.198
T3C0.201
T4C0.297
T5C0.300
T6C0.899
T7C1.097
T8C2.900
%
G90
G05
M71
T1
X117.46Y-93.2
X117.57Y-86.93
X117.6Y-77.9
X117.6Y-86.05
X117.61Y-85.12
X117.9Y-118.1
X117.9Y-119.1
X117.9Y-120.2
X118.06Y-108.78
X118.06Y-109.78
X118.1Y-81.65
X118.21Y-94.98
X118.26Y-97.98
X118.26Y-98.98
X118.3Y-77.
X118.4Y-85.5
X118.59Y-113.87
X118.76Y-83.52
X118.77Y-93.2
X118.8Y-113.7
X118.8Y-113.9
X118.86Y-108.78
X118.86Y-109.78
X118.87Y-113.79
X119.06Y-97.98
X119.06Y-98.98
X119.1Y-110.9
X119.1Y-111.8
X119.1Y-118.1
X119.1Y-119.1
X119.1Y-120.2
X119.7Y-79.
X119.74Y-84.4
X119.8Y-109.3
X119.82Y-110.27
X119.86Y-97.98
X119.86Y-98.98
X119.89Y-93.63
X119.91Y-92.85
X120.Y-82.
X120.2Y-114.88
X120.2Y-122.99
X120.3Y-117.2
X120.3Y-118.1
X120.3Y-119.1
X120.3Y-120.2
X120.59Y-84.21
X120.6Y-111.8
X120.63Y-110.96
X120.66Y-97.98
X120.66Y-98.98
X120.67Y-112.82
X120.69Y-108.71
X121.Y-114.61
X121.06Y-95.68
X121.3Y-81.7
X121.42Y-106.07
X121.43Y-106.92
X121.45Y-99.7
X121.45Y-105.41
X121.45Y-107.82
X121.46Y-111.88
X121.49Y-82.95
X121.49Y-103.65
X121.49Y-104.49
X121.49Y-108.71
X121.5Y-77.
X121.51Y-100.42
X121.51Y-101.66
X121.51Y-112.82
X121.53Y-102.73
X121.59Y-84.21
X121.61Y-114.75
X121.86Y-95.68
X121.94Y-89.44
X121.99Y-88.81
X122.1Y-77.9
X122.1Y-80.9
X122.2Y-115.5
X122.2Y-116.5
X122.21Y-124.57
X122.21Y-125.37
X122.339Y-95.001
X122.359Y-103.5
X122.38Y-122.94
X122.41Y-94.501
X122.41Y-96.479
X122.47Y-110.5
X122.481Y-97.5
X122.55Y-84.2
X122.64Y-88.78
X122.66Y-89.49
X122.74Y-123.78
X122.8Y-117.9
X122.8Y-118.8
X123.21Y-124.57
X123.21Y-125.37
X123.4Y-115.6
X123.4Y-116.6
X123.7Y-122.93
X123.89Y-123.59
X124.17Y-106.51
X124.19Y-107.86
X124.2Y-104.
X124.21Y-96.33
X124.22Y-102.01
X124.22Y-108.51
X124.23Y-113.01
X124.24Y-95.63
X124.24Y-97.
X124.24Y-98.01
X124.25Y-100.49
X124.26Y-101.01
X124.26Y-107.09
X124.33Y-102.5
X124.34Y-103.
X124.34Y-104.51
X124.44Y-98.51
X124.44Y-106.01
X124.6Y-111.26
X124.795Y-94.01
X125.14Y-109.
X125.21Y-118.67
X125.359Y-95.001
X125.7Y-110.2
X125.7Y-111.4
X125.85Y-115.48
X125.895Y-109.012
X125.9Y-107.4
X126.Y-113.8
X126.07Y-94.501
X126.14Y-93.22
X126.21Y-118.67
X126.35Y-92.519
X126.36Y-92.011
X126.47Y-107.89
X126.57Y-104.53
X126.6Y-98.7
X126.6Y-99.8
X126.789Y-94.01
X126.81Y-88.71
X126.81Y-101.82
X126.83Y-96.5
X126.85Y-101.
X126.86Y-95.
X127.1Y-113.8
X127.2Y-107.4
X127.32Y-89.61
X127.41Y-118.67
X127.45Y-102.11
X127.66Y-122.72
X128.27Y-124.01
X128.3Y-123.27
X128.3Y-124.79
X128.3Y-125.59
X128.32Y-122.08
X128.41Y-118.67
X128.5Y-83.9
X129.34Y-116.51
X129.36Y-110.01
X129.39Y-99.27
X129.4Y-83.9
X129.5Y-93.26
X129.55Y-105.14
X129.77Y-107.02
X129.78Y-104.
X129.9Y-109.6
X130.05Y-113.29
X130.06Y-114.11
X130.28Y-111.44
X130.28Y-112.44
X130.551Y-107.582
X130.67Y-91.26
X130.7Y-116.51
X130.8Y-102.88
X130.9Y-113.63
X130.9Y-114.47
X130.93Y-111.97
X130.93Y-112.81
X130.98Y-111.04
X131.161Y-107.582
X131.2Y-117.7
X131.239Y-89.632
X131.35Y-95.53
X131.36Y-92.7
X131.361Y-96.5
X131.38Y-94.68
X131.39Y-93.86
X131.4Y-85.55
X131.5Y-109.6
X131.62Y-99.
X131.869Y-107.582
X131.87Y-90.37
X131.91Y-103.31
X132.11Y-88.389
X132.21Y-117.67
X132.25Y-85.55
X132.38Y-107.579
X132.57Y-91.161
X132.669Y-101.641
X132.71Y-102.601
X132.99Y-99.45
X133.01Y-98.481
X133.101Y-101.13
X133.391Y-96.931
X133.439Y-105.999
X133.459Y-96.081
X133.5Y-111.
X133.54Y-104.32
X133.59Y-94.37
X133.6Y-111.96
X133.93Y-118.32
X134.02Y-103.82
X134.15Y-111.7
X134.29Y-94.811
X134.29Y-93.04
X134.3Y-110.4
X134.381Y-89.141
X134.6Y-91.9
X134.62Y-111.36
X134.8Y-88.549
X135.28Y-118.31
X135.44Y-92.591
X135.72Y-103.32
X136.091Y-106.489
X136.091Y-106.99
X136.101Y-102.111
X136.271Y-105.501
X136.301Y-97.422
X136.301Y-97.93
X136.6Y-96.
X136.921Y-88.501
X137.04Y-105.31
X137.2Y-85.7
X138.Y-96.
X138.06Y-104.32
X138.12Y-99.99
X138.2Y-85.7
X138.27Y-103.32
X138.311Y-94.79
X138.321Y-110.432
X138.45Y-100.45
X138.53Y-98.95
X138.631Y-112.331
X138.991Y-91.63
X138.991Y-109.36
X139.Y-99.5
X139.029Y-92.281
X139.07Y-95.16
X139.2Y-112.
X139.21Y-124.57
X139.21Y-125.37
X139.51Y-122.4
X139.659Y-109.38
X139.9Y-122.
X139.9Y-123.1
X140.21Y-124.57
X140.21Y-125.37
X140.22Y-116.09
X140.272Y-109.39
X140.36Y-104.671
X140.432Y-102.669
X140.47Y-101.681
X140.55Y-97.12
X140.61Y-88.91
X140.63Y-103.68
X140.701Y-100.681
X140.83Y-106.289
X140.851Y-109.39
X140.88Y-112.17
X141.Y-93.7
X141.11Y-99.131
X141.17Y-86.93
X141.27Y-94.68
X141.29Y-96.4
X141.41Y-125.37
X141.45Y-97.14
X141.481Y-103.17
X141.491Y-106.271
X141.501Y-100.19
X141.569Y-101.171
X141.661Y-102.189
X141.71Y-87.23
X141.77Y-105.171
X141.8Y-87.69
X141.811Y-99.179
X141.82Y-88.49
X141.87Y-89.84
X141.961Y-104.181
X141.97Y-105.66
X142.07Y-97.861
X142.41Y-125.37
X142.5Y-97.43
X142.63Y-109.43
X142.91Y-107.29
X142.99Y-97.98
X143.01Y-106.52
X143.07Y-89.85
X143.19Y-96.87
X143.3Y-85.8
X143.5Y-117.56
X143.61Y-125.37
X143.701Y-96.85
X144.229Y-99.751
X144.229Y-100.851
X144.229Y-101.951
X144.229Y-103.05
X144.229Y-104.15
X144.27Y-112.68
X144.3Y-117.6
X144.43Y-109.58
X144.61Y-124.57
X144.61Y-125.37
X144.66Y-106.51
X144.7Y-121.5
X144.78Y-99.2
X144.78Y-100.3
X144.78Y-101.399
X144.78Y-102.499
X144.78Y-103.599
X144.99Y-107.96
X145.15Y-90.89
X145.17Y-106.53
X145.21Y-93.47
X145.21Y-119.05
X145.329Y-99.751
X145.329Y-100.851
X145.329Y-101.951
X145.329Y-103.05
X145.329Y-104.15
X145.41Y-120.75
X145.56Y-108.63
X145.88Y-99.2
X145.88Y-100.3
X145.88Y-101.399
X145.88Y-102.499
X145.88Y-103.599
X146.2Y-112.39
X146.439Y-99.751
X146.439Y-100.851
X146.439Y-101.951
X146.439Y-103.05
X146.439Y-104.15
X146.51Y-119.05
X146.65Y-112.32
X146.7Y-110.38
X146.8Y-84.5
X146.91Y-120.55
X146.98Y-99.2
X146.98Y-100.3
X146.98Y-101.399
X146.98Y-102.499
X146.98Y-103.599
X147.06Y-112.37
X147.1Y-123.22
X147.27Y-115.36
X147.29Y-114.5
X147.528Y-99.751
X147.528Y-100.851
X147.528Y-101.951
X147.528Y-103.05
X147.528Y-104.15
X147.71Y-119.05
X147.92Y-113.26
X147.92Y-115.58
X148.03Y-108.59
X148.079Y-99.2
X148.079Y-100.3
X148.079Y-101.399
X148.079Y-102.499
X148.079Y-103.599
X148.4Y-84.5
X148.46Y-107.89
X148.51Y-120.85
X148.55Y-113.77
X148.56Y-114.5
X148.6Y-83.2
X148.6Y-125.5
X148.628Y-99.751
X148.628Y-100.851
X148.628Y-101.951
X148.628Y-103.05
X148.628Y-104.15
X148.687Y-106.507
X148.8Y-90.9
X148.81Y-119.05
X148.85Y-93.45
X148.94Y-110.46
X149.175Y-105.106
X149.179Y-99.2
X149.179Y-100.3
X149.179Y-101.399
X149.179Y-102.499
X149.179Y-103.599
X149.21Y-106.45
X149.3Y-85.8
X149.39Y-92.08
X149.4Y-83.2
X149.4Y-89.36
X149.69Y-124.
X149.71Y-125.07
X149.882Y-100.442
X149.9Y-84.6
X150.2Y-83.2
X150.241Y-96.449
X150.3Y-85.8
X150.4Y-88.14
X150.4Y-91.09
X150.551Y-106.19
X150.574Y-106.85
X150.75Y-96.88
X151.Y-83.2
X151.1Y-89.1
X151.1Y-90.
X151.24Y-91.85
X151.4Y-84.5
X151.501Y-102.171
X151.52Y-92.31
X151.53Y-114.37
X151.55Y-104.24
X151.559Y-102.679
X151.57Y-113.49
X151.59Y-112.68
X151.66Y-107.03
X151.7Y-100.37
X151.859Y-101.27
X151.9Y-83.2
X152.Y-89.1
X152.Y-90.
X152.01Y-91.85
X152.02Y-110.78
X152.18Y-95.49
X152.276Y-103.825
X152.39Y-84.49
X152.51Y-122.9
X152.61Y-95.26
X152.67Y-91.09
X152.7Y-83.2
X152.72Y-88.13
X152.87Y-110.73
X153.16Y-103.5
X153.41Y-107.65
X153.44Y-114.36
X153.45Y-113.39
X153.5Y-83.2
X153.59Y-84.49
X153.59Y-88.88
X153.71Y-90.36
X154.04Y-107.85
X154.13Y-118.85
X154.15Y-92.31
X154.15Y-95.81
X154.17Y-112.86
X154.3Y-83.2
X154.45Y-115.29
X154.5Y-91.1
X154.59Y-84.49
X154.64Y-96.741
X154.69Y-114.1
X154.84Y-106.84
X154.91Y-110.48
X155.14Y-122.87
X155.2Y-83.2
X155.22Y-113.55
X155.27Y-105.46
X155.3Y-117.7
X155.37Y-98.92
X155.38Y-107.14
X155.41Y-98.13
X155.44Y-97.36
X155.45Y-85.85
X155.521Y-106.311
X155.611Y-101.78
X155.659Y-103.63
X155.79Y-84.49
X155.87Y-125.57
X155.93Y-121.77
X155.94Y-123.15
X155.95Y-88.44
X155.95Y-95.62
X155.95Y-112.97
X155.95Y-114.77
X156.Y-83.2
X156.2Y-117.7
X156.22Y-108.14
X156.3Y-98.96
X156.35Y-85.85
X156.79Y-84.49
X156.8Y-83.2
X157.03Y-104.88
X157.41Y-119.18
X157.6Y-83.2
X157.63Y-123.16
X157.9Y-84.52
X158.32Y-125.53
X158.37Y-121.67
X158.5Y-83.2
X158.9Y-84.52
X159.3Y-83.2
X159.3Y-119.15
X159.8Y-95.3
X159.8Y-96.2
X159.8Y-101.2
X159.8Y-102.3
X159.8Y-107.2
X159.8Y-108.3
X159.9Y-84.52
X160.1Y-83.2
X160.15Y-122.67
X160.6Y-111.3
X160.8Y-108.1
X160.8Y-109.2
X160.8Y-115.7
X160.84Y-116.62
X160.9Y-83.2
X160.9Y-88.15
X160.92Y-117.63
X160.95Y-91.35
X161.Y-93.75
X161.Y-94.75
X161.Y-95.75
X161.Y-112.5
X161.15Y-85.9
X161.2Y-85.
X161.2Y-86.75
X161.3Y-118.7
X161.5Y-111.1
X161.7Y-83.2
X161.7Y-84.1
X161.72Y-116.61
X161.72Y-117.61
X161.84Y-108.22
X162.Y-93.75
X162.Y-94.75
X162.Y-95.75
X162.02Y-109.23
X162.1Y-85.
X162.15Y-85.9
X162.2Y-86.75
X162.35Y-119.11
X162.42Y-111.13
X162.6Y-83.2
X162.72Y-108.21
X162.72Y-116.61
X162.72Y-117.61
X162.78Y-122.69
X162.82Y-109.21
X163.Y-84.3
X163.Y-93.75
X163.Y-94.75
X163.Y-95.75
X163.1Y-85.7
X163.16Y-123.2
X163.22Y-111.11
X163.7Y-85.
X163.72Y-108.21
X163.82Y-109.21
X163.94Y-118.28
X164.Y-93.75
X164.Y-94.75
X164.Y-95.75
X164.09Y-119.37
X164.09Y-120.17
X164.1Y-121.
X164.1Y-123.
X164.1Y-124.2
X164.2Y-85.7
X164.2Y-87.75
X164.2Y-88.6
X164.2Y-90.7
X164.2Y-112.
X164.2Y-112.8
X164.2Y-114.8
X164.2Y-115.6
X164.22Y-111.11
X164.25Y-91.45
T2
X151.74Y-103.48
X151.76Y-99.111
X152.476Y-104.676
X152.499Y-105.25
X153.21Y-101.559
X153.261Y-99.68
X154.381Y-100.091
T3
X143.35Y-98.425
X143.35Y-98.925
X143.35Y-99.426
X143.35Y-99.926
X143.35Y-100.424
X143.35Y-100.924
X143.35Y-101.425
X143.35Y-101.925
X143.35Y-102.425
X143.35Y-102.926
X143.35Y-103.426
X143.35Y-103.924
X143.35Y-104.424
X143.375Y-104.925
X143.924Y-105.001
X143.949Y-98.326
X144.424Y-105.001
X144.45Y-98.349
X144.925Y-105.001
X144.95Y-98.349
X145.425Y-105.001
X146.949Y-98.349
X147.925Y-105.001
X148.425Y-105.001
X150.Y-101.925
X150.025Y-98.425
X150.025Y-98.925
X150.025Y-99.426
X150.025Y-99.926
X150.025Y-100.924
X150.025Y-101.425
X150.025Y-102.425
X150.025Y-102.926
X150.025Y-103.426
X150.025Y-103.924
X150.025Y-104.925
X150.05Y-104.424
T4
X121.1Y-90.31
X122.236Y-91.109
X122.236Y-91.809
X122.236Y-92.509
X122.301Y-99.261
X122.321Y-93.261
X122.4Y-105.25
X124.436Y-91.009
X124.436Y-91.709
X124.436Y-92.459
X125.6Y-85.24
X126.07Y-85.84
X129.339Y-111.249
X129.969Y-86.98
X130.395Y-121.592
X130.395Y-124.692
X130.495Y-120.092
X130.495Y-123.192
X130.795Y-122.392
X130.895Y-120.892
X130.895Y-123.992
X131.195Y-121.592
X131.195Y-124.692
X131.295Y-120.092
X131.295Y-123.192
X131.595Y-122.392
X131.695Y-120.892
X131.695Y-123.992
X131.995Y-121.592
X131.995Y-124.692
X132.095Y-120.092
X132.095Y-123.192
X132.395Y-122.392
X132.495Y-120.892
X132.495Y-123.992
X132.795Y-121.592
X132.795Y-124.692
X132.895Y-120.092
X132.895Y-123.192
X133.195Y-122.392
X133.295Y-120.892
X133.295Y-123.992
X133.51Y-91.87
X133.595Y-121.592
X133.595Y-124.692
X133.695Y-120.092
X133.695Y-123.192
X133.721Y-95.27
X133.73Y-93.07
X133.995Y-122.392
X134.095Y-120.892
X134.095Y-123.992
X134.395Y-121.592
X134.395Y-124.692
X134.495Y-120.092
X134.495Y-123.192
X134.795Y-122.392
X134.895Y-120.892
X134.895Y-123.992
X137.721Y-87.48
X140.21Y-116.55
X141.7Y-119.995
X141.7Y-121.097
X141.7Y-122.197
X141.79Y-115.43
X141.81Y-109.79
X142.22Y-116.5
X142.499Y-111.697
X142.8Y-119.997
X142.8Y-121.097
X143.2Y-111.697
X156.449Y-96.731
X156.789Y-103.241
X157.025Y-106.726
X157.571Y-100.33
X157.579Y-101.1
T5
X141.171Y-89.23
X142.471Y-89.86
T6
X116.86Y-87.96
X116.86Y-89.06
X116.86Y-90.16
X116.86Y-110.411
X116.86Y-111.511
X116.86Y-112.611
X118.801Y-113.846
X118.801Y-116.386
X132.15Y-83.799
X134.69Y-83.85
X137.23Y-83.85
X139.77Y-83.85
X142.31Y-83.85
X143.32Y-82.3
X143.322Y-126.411
X144.419Y-82.3
X144.422Y-126.411
X144.85Y-83.85
X145.519Y-82.3
X145.522Y-126.411
X146.621Y-82.3
X146.624Y-126.411
X152.06Y-124.949
X152.09Y-121.01
X154.6Y-125.
X154.63Y-121.01
X157.14Y-125.
X157.17Y-121.01
X159.68Y-125.
X159.71Y-121.01
X162.22Y-125.
X162.25Y-121.061
X164.86Y-100.51
X164.86Y-101.61
X164.86Y-102.71
X164.86Y-103.81
T7
X125.867Y-89.057
X125.867Y-115.453
T8
X119.86Y-79.25
X119.86Y-123.25
X146.89Y-123.25
T0
M30
