G04 (created by PCBNEW (2013-07-07 BZR 4022)-stable) date 09/07/2014 14:33:08*
%MOIN*%
G04 Gerber Fmt 3.4, Leading zero omitted, Abs format*
%FSLAX34Y34*%
G01*
G70*
G90*
G04 APERTURE LIST*
%ADD10C,0.005*%
%ADD11C,0.0077*%
%ADD12C,0.00787402*%
%ADD13C,0.011811*%
G04 APERTURE END LIST*
G54D10*
G54D11*
X46007Y-30019D02*
X48370Y-30019D01*
X48370Y-30019D02*
X48370Y-32401D01*
X48370Y-32401D02*
X56384Y-32401D01*
X46007Y-30019D02*
X46007Y-34570D01*
X41283Y-52483D02*
X41283Y-27680D01*
X67661Y-52483D02*
X41283Y-52483D01*
X67661Y-27680D02*
X67661Y-52483D01*
X41283Y-27680D02*
X67661Y-27680D01*
X64905Y-32401D02*
X64905Y-39492D01*
X57764Y-32401D02*
X64905Y-32401D01*
X57764Y-32401D02*
X57764Y-29648D01*
X65692Y-29650D02*
X57764Y-29650D01*
X65692Y-39492D02*
X65692Y-29650D01*
X64905Y-39492D02*
X65692Y-39492D01*
X57764Y-50515D02*
X57764Y-49728D01*
X65692Y-50515D02*
X57764Y-50515D01*
X65692Y-40948D02*
X65692Y-50515D01*
X64905Y-40948D02*
X65692Y-40948D01*
X64905Y-49728D02*
X64905Y-40948D01*
X57764Y-49728D02*
X64905Y-49728D01*
X45220Y-50515D02*
X45220Y-44413D01*
X56386Y-50515D02*
X45220Y-50515D01*
X56386Y-49728D02*
X56386Y-50515D01*
X46007Y-49728D02*
X56386Y-49728D01*
X46007Y-44413D02*
X46007Y-49728D01*
X46007Y-44413D02*
X45220Y-44413D01*
X45220Y-43390D02*
X45220Y-35555D01*
X46007Y-43390D02*
X45220Y-43390D01*
X46007Y-35555D02*
X46007Y-43390D01*
X46007Y-35555D02*
X45220Y-35555D01*
X46007Y-34570D02*
X45220Y-34570D01*
X45220Y-29648D02*
X45220Y-34570D01*
X45220Y-29648D02*
X56384Y-29648D01*
X56384Y-32401D02*
X56384Y-29648D01*
G54D12*
X46205Y-36654D02*
X46282Y-36731D01*
X46282Y-36654D02*
X46205Y-36731D01*
X46248Y-34185D02*
X46325Y-34262D01*
X46325Y-34185D02*
X46248Y-34262D01*
X46260Y-30630D02*
X46337Y-30707D01*
X46337Y-30630D02*
X46260Y-30707D01*
X46260Y-33839D02*
X46337Y-33916D01*
X46337Y-33839D02*
X46260Y-33916D01*
X46264Y-33473D02*
X46341Y-33550D01*
X46341Y-33473D02*
X46264Y-33550D01*
X46378Y-46457D02*
X46455Y-46534D01*
X46455Y-46457D02*
X46378Y-46534D01*
X46378Y-46851D02*
X46455Y-46928D01*
X46455Y-46851D02*
X46378Y-46928D01*
X46378Y-47284D02*
X46455Y-47361D01*
X46455Y-47284D02*
X46378Y-47361D01*
X46441Y-42788D02*
X46518Y-42865D01*
X46518Y-42788D02*
X46441Y-42865D01*
X46441Y-43181D02*
X46518Y-43258D01*
X46518Y-43181D02*
X46441Y-43258D01*
X46457Y-32107D02*
X46534Y-32184D01*
X46534Y-32107D02*
X46457Y-32184D01*
X46500Y-37355D02*
X46577Y-37432D01*
X46577Y-37355D02*
X46500Y-37432D01*
X46520Y-38536D02*
X46597Y-38613D01*
X46597Y-38536D02*
X46520Y-38613D01*
X46520Y-38930D02*
X46597Y-39007D01*
X46597Y-38930D02*
X46520Y-39007D01*
X46536Y-30276D02*
X46613Y-30353D01*
X46613Y-30276D02*
X46536Y-30353D01*
X46575Y-33622D02*
X46652Y-33699D01*
X46652Y-33622D02*
X46575Y-33699D01*
X46650Y-44792D02*
X46727Y-44869D01*
X46727Y-44792D02*
X46650Y-44869D01*
X46717Y-32843D02*
X46794Y-32920D01*
X46794Y-32843D02*
X46717Y-32920D01*
X46721Y-36654D02*
X46798Y-36731D01*
X46798Y-36654D02*
X46721Y-36731D01*
X46733Y-44725D02*
X46810Y-44802D01*
X46810Y-44725D02*
X46733Y-44802D01*
X46733Y-44804D02*
X46810Y-44881D01*
X46810Y-44804D02*
X46733Y-44881D01*
X46756Y-42788D02*
X46833Y-42865D01*
X46833Y-42788D02*
X46756Y-42865D01*
X46756Y-43181D02*
X46833Y-43258D01*
X46833Y-43181D02*
X46756Y-43258D01*
X46760Y-44760D02*
X46837Y-44837D01*
X46837Y-44760D02*
X46760Y-44837D01*
X46835Y-38536D02*
X46912Y-38613D01*
X46912Y-38536D02*
X46835Y-38613D01*
X46835Y-38930D02*
X46912Y-39007D01*
X46912Y-38930D02*
X46835Y-39007D01*
X46851Y-43622D02*
X46928Y-43699D01*
X46928Y-43622D02*
X46851Y-43699D01*
X46851Y-43977D02*
X46928Y-44054D01*
X46928Y-43977D02*
X46851Y-44054D01*
X46851Y-46457D02*
X46928Y-46534D01*
X46928Y-46457D02*
X46851Y-46534D01*
X46851Y-46851D02*
X46928Y-46928D01*
X46928Y-46851D02*
X46851Y-46928D01*
X46851Y-47284D02*
X46928Y-47361D01*
X46928Y-47284D02*
X46851Y-47361D01*
X47087Y-31063D02*
X47164Y-31140D01*
X47164Y-31063D02*
X47087Y-31140D01*
X47103Y-33189D02*
X47180Y-33266D01*
X47180Y-33189D02*
X47103Y-33266D01*
X47126Y-42992D02*
X47203Y-43069D01*
X47203Y-42992D02*
X47126Y-43069D01*
X47134Y-43374D02*
X47211Y-43451D01*
X47211Y-43374D02*
X47134Y-43451D01*
X47150Y-38536D02*
X47227Y-38613D01*
X47227Y-38536D02*
X47150Y-38613D01*
X47150Y-38930D02*
X47227Y-39007D01*
X47227Y-38930D02*
X47150Y-39007D01*
X47162Y-36823D02*
X47239Y-36900D01*
X47239Y-36823D02*
X47162Y-36900D01*
X47170Y-36516D02*
X47247Y-36593D01*
X47247Y-36516D02*
X47170Y-36593D01*
X47205Y-32244D02*
X47282Y-32321D01*
X47282Y-32244D02*
X47205Y-32321D01*
X47284Y-45189D02*
X47361Y-45266D01*
X47361Y-45189D02*
X47284Y-45266D01*
X47284Y-48382D02*
X47361Y-48459D01*
X47361Y-48382D02*
X47284Y-48459D01*
X47323Y-46103D02*
X47400Y-46180D01*
X47400Y-46103D02*
X47323Y-46180D01*
X47323Y-46457D02*
X47400Y-46534D01*
X47400Y-46457D02*
X47323Y-46534D01*
X47323Y-46851D02*
X47400Y-46928D01*
X47400Y-46851D02*
X47323Y-46928D01*
X47323Y-47284D02*
X47400Y-47361D01*
X47400Y-47284D02*
X47323Y-47361D01*
X47437Y-33115D02*
X47514Y-33192D01*
X47514Y-33115D02*
X47437Y-33192D01*
X47441Y-43977D02*
X47518Y-44054D01*
X47518Y-43977D02*
X47441Y-44054D01*
X47453Y-43646D02*
X47530Y-43723D01*
X47530Y-43646D02*
X47453Y-43723D01*
X47465Y-38536D02*
X47542Y-38613D01*
X47542Y-38536D02*
X47465Y-38613D01*
X47465Y-38930D02*
X47542Y-39007D01*
X47542Y-38930D02*
X47465Y-39007D01*
X47469Y-44378D02*
X47546Y-44455D01*
X47546Y-44378D02*
X47469Y-44455D01*
X47477Y-42760D02*
X47554Y-42837D01*
X47554Y-42760D02*
X47477Y-42837D01*
X47599Y-45083D02*
X47676Y-45160D01*
X47676Y-45083D02*
X47599Y-45160D01*
X47622Y-37630D02*
X47699Y-37707D01*
X47699Y-37630D02*
X47622Y-37707D01*
X47717Y-32126D02*
X47794Y-32203D01*
X47794Y-32126D02*
X47717Y-32203D01*
X47764Y-41721D02*
X47841Y-41798D01*
X47841Y-41721D02*
X47764Y-41798D01*
X47768Y-42055D02*
X47845Y-42132D01*
X47845Y-42055D02*
X47768Y-42132D01*
X47776Y-39213D02*
X47853Y-39290D01*
X47853Y-39213D02*
X47776Y-39290D01*
X47776Y-41461D02*
X47853Y-41538D01*
X47853Y-41461D02*
X47776Y-41538D01*
X47776Y-42410D02*
X47853Y-42487D01*
X47853Y-42410D02*
X47776Y-42487D01*
X47780Y-44008D02*
X47857Y-44085D01*
X47857Y-44008D02*
X47780Y-44085D01*
X47792Y-32618D02*
X47869Y-32695D01*
X47869Y-32618D02*
X47792Y-32695D01*
X47792Y-40768D02*
X47869Y-40845D01*
X47869Y-40768D02*
X47792Y-40845D01*
X47792Y-41099D02*
X47869Y-41176D01*
X47869Y-41099D02*
X47792Y-41176D01*
X47792Y-42760D02*
X47869Y-42837D01*
X47869Y-42760D02*
X47792Y-42837D01*
X47796Y-30276D02*
X47873Y-30353D01*
X47873Y-30276D02*
X47796Y-30353D01*
X47800Y-39496D02*
X47877Y-39573D01*
X47877Y-39496D02*
X47800Y-39573D01*
X47800Y-39985D02*
X47877Y-40062D01*
X47877Y-39985D02*
X47800Y-40062D01*
X47800Y-44378D02*
X47877Y-44455D01*
X47877Y-44378D02*
X47800Y-44455D01*
X47807Y-40406D02*
X47884Y-40483D01*
X47884Y-40406D02*
X47807Y-40483D01*
X47831Y-33115D02*
X47908Y-33192D01*
X47908Y-33115D02*
X47831Y-33192D01*
X47839Y-45138D02*
X47916Y-45215D01*
X47916Y-45138D02*
X47839Y-45215D01*
X47937Y-37630D02*
X48014Y-37707D01*
X48014Y-37630D02*
X47937Y-37707D01*
X47969Y-35174D02*
X48046Y-35251D01*
X48046Y-35174D02*
X47969Y-35251D01*
X47989Y-34926D02*
X48066Y-35003D01*
X48066Y-34926D02*
X47989Y-35003D01*
X48032Y-30630D02*
X48109Y-30707D01*
X48109Y-30630D02*
X48032Y-30707D01*
X48032Y-31811D02*
X48109Y-31888D01*
X48109Y-31811D02*
X48032Y-31888D01*
X48071Y-45433D02*
X48148Y-45510D01*
X48148Y-45433D02*
X48071Y-45510D01*
X48071Y-45827D02*
X48148Y-45904D01*
X48148Y-45827D02*
X48071Y-45904D01*
X48075Y-49004D02*
X48152Y-49081D01*
X48152Y-49004D02*
X48075Y-49081D01*
X48075Y-49319D02*
X48152Y-49396D01*
X48152Y-49319D02*
X48075Y-49396D01*
X48126Y-37363D02*
X48203Y-37440D01*
X48203Y-37363D02*
X48126Y-37440D01*
X48134Y-40709D02*
X48211Y-40786D01*
X48211Y-40709D02*
X48134Y-40786D01*
X48142Y-48363D02*
X48219Y-48440D01*
X48219Y-48363D02*
X48142Y-48440D01*
X48154Y-37166D02*
X48231Y-37243D01*
X48231Y-37166D02*
X48154Y-37243D01*
X48154Y-37945D02*
X48231Y-38022D01*
X48231Y-37945D02*
X48154Y-38022D01*
X48178Y-43465D02*
X48255Y-43542D01*
X48255Y-43465D02*
X48178Y-43542D01*
X48182Y-38347D02*
X48259Y-38424D01*
X48259Y-38347D02*
X48182Y-38424D01*
X48209Y-33111D02*
X48286Y-33188D01*
X48286Y-33111D02*
X48209Y-33188D01*
X48244Y-34914D02*
X48321Y-34991D01*
X48321Y-34914D02*
X48244Y-34991D01*
X48252Y-35193D02*
X48329Y-35270D01*
X48329Y-35193D02*
X48252Y-35270D01*
X48284Y-48693D02*
X48361Y-48770D01*
X48361Y-48693D02*
X48284Y-48770D01*
X48307Y-46378D02*
X48384Y-46455D01*
X48384Y-46378D02*
X48307Y-46455D01*
X48307Y-46733D02*
X48384Y-46810D01*
X48384Y-46733D02*
X48307Y-46810D01*
X48469Y-49004D02*
X48546Y-49081D01*
X48546Y-49004D02*
X48469Y-49081D01*
X48469Y-49319D02*
X48546Y-49396D01*
X48546Y-49319D02*
X48469Y-49396D01*
X48544Y-45473D02*
X48621Y-45550D01*
X48621Y-45473D02*
X48544Y-45550D01*
X48544Y-45867D02*
X48621Y-45944D01*
X48621Y-45867D02*
X48544Y-45944D01*
X48662Y-48359D02*
X48739Y-48436D01*
X48739Y-48359D02*
X48662Y-48436D01*
X48737Y-48618D02*
X48814Y-48695D01*
X48814Y-48618D02*
X48737Y-48695D01*
X48847Y-41894D02*
X48924Y-41971D01*
X48924Y-41894D02*
X48847Y-41971D01*
X48855Y-42426D02*
X48932Y-42503D01*
X48932Y-42426D02*
X48855Y-42503D01*
X48859Y-40906D02*
X48936Y-40983D01*
X48936Y-40906D02*
X48859Y-40983D01*
X48863Y-37886D02*
X48940Y-37963D01*
X48940Y-37886D02*
X48863Y-37963D01*
X48867Y-40122D02*
X48944Y-40199D01*
X48944Y-40122D02*
X48867Y-40199D01*
X48867Y-42681D02*
X48944Y-42758D01*
X48944Y-42681D02*
X48867Y-42758D01*
X48870Y-44453D02*
X48947Y-44530D01*
X48947Y-44453D02*
X48870Y-44530D01*
X48874Y-37611D02*
X48951Y-37688D01*
X48951Y-37611D02*
X48874Y-37688D01*
X48874Y-38150D02*
X48951Y-38227D01*
X48951Y-38150D02*
X48874Y-38227D01*
X48874Y-38548D02*
X48951Y-38625D01*
X48951Y-38548D02*
X48874Y-38625D01*
X48878Y-39524D02*
X48955Y-39601D01*
X48955Y-39524D02*
X48878Y-39601D01*
X48882Y-39729D02*
X48959Y-39806D01*
X48959Y-39729D02*
X48882Y-39806D01*
X48882Y-42122D02*
X48959Y-42199D01*
X48959Y-42122D02*
X48882Y-42199D01*
X48910Y-40315D02*
X48987Y-40392D01*
X48987Y-40315D02*
X48910Y-40392D01*
X48914Y-40512D02*
X48991Y-40589D01*
X48991Y-40512D02*
X48914Y-40589D01*
X48914Y-41107D02*
X48991Y-41184D01*
X48991Y-41107D02*
X48914Y-41184D01*
X48953Y-38744D02*
X49030Y-38821D01*
X49030Y-38744D02*
X48953Y-38821D01*
X48953Y-41697D02*
X49030Y-41774D01*
X49030Y-41697D02*
X48953Y-41774D01*
X49016Y-43764D02*
X49093Y-43841D01*
X49093Y-43764D02*
X49016Y-43841D01*
X49093Y-36973D02*
X49170Y-37050D01*
X49170Y-36973D02*
X49093Y-37050D01*
X49229Y-42874D02*
X49306Y-42951D01*
X49306Y-42874D02*
X49229Y-42951D01*
X49256Y-46681D02*
X49333Y-46758D01*
X49333Y-46681D02*
X49256Y-46758D01*
X49315Y-37363D02*
X49392Y-37440D01*
X49392Y-37363D02*
X49315Y-37440D01*
X49449Y-43347D02*
X49526Y-43424D01*
X49526Y-43347D02*
X49449Y-43424D01*
X49449Y-43819D02*
X49526Y-43896D01*
X49526Y-43819D02*
X49449Y-43896D01*
X49508Y-45426D02*
X49585Y-45503D01*
X49585Y-45426D02*
X49508Y-45503D01*
X49526Y-42879D02*
X49603Y-42956D01*
X49603Y-42879D02*
X49526Y-42956D01*
X49528Y-42244D02*
X49605Y-42321D01*
X49605Y-42244D02*
X49528Y-42321D01*
X49567Y-44764D02*
X49644Y-44841D01*
X49644Y-44764D02*
X49567Y-44841D01*
X49595Y-37166D02*
X49672Y-37243D01*
X49672Y-37166D02*
X49595Y-37243D01*
X49622Y-36662D02*
X49699Y-36739D01*
X49699Y-36662D02*
X49622Y-36739D01*
X49650Y-46681D02*
X49727Y-46758D01*
X49727Y-46681D02*
X49650Y-46758D01*
X49705Y-36386D02*
X49782Y-36463D01*
X49782Y-36386D02*
X49705Y-36463D01*
X49709Y-36186D02*
X49786Y-36263D01*
X49786Y-36186D02*
X49709Y-36263D01*
X49752Y-42437D02*
X49829Y-42514D01*
X49829Y-42437D02*
X49752Y-42514D01*
X49792Y-41115D02*
X49869Y-41192D01*
X49869Y-41115D02*
X49792Y-41192D01*
X49804Y-38819D02*
X49881Y-38896D01*
X49881Y-38819D02*
X49804Y-38896D01*
X49804Y-39252D02*
X49881Y-39329D01*
X49881Y-39252D02*
X49804Y-39329D01*
X49878Y-36973D02*
X49955Y-37050D01*
X49955Y-36973D02*
X49878Y-37050D01*
X49886Y-34886D02*
X49963Y-34963D01*
X49963Y-34886D02*
X49886Y-34963D01*
X49886Y-40048D02*
X49963Y-40125D01*
X49963Y-40048D02*
X49886Y-40125D01*
X49894Y-37953D02*
X49971Y-38030D01*
X49971Y-37953D02*
X49894Y-38030D01*
X49902Y-39725D02*
X49979Y-39802D01*
X49979Y-39725D02*
X49902Y-39802D01*
X49906Y-37363D02*
X49983Y-37440D01*
X49983Y-37363D02*
X49906Y-37440D01*
X50000Y-44764D02*
X50077Y-44841D01*
X50077Y-44764D02*
X50000Y-44841D01*
X50040Y-42244D02*
X50117Y-42321D01*
X50117Y-42244D02*
X50040Y-42321D01*
X50087Y-35241D02*
X50164Y-35318D01*
X50164Y-35241D02*
X50087Y-35318D01*
X50122Y-46681D02*
X50199Y-46758D01*
X50199Y-46681D02*
X50122Y-46758D01*
X50138Y-40162D02*
X50215Y-40239D01*
X50215Y-40162D02*
X50138Y-40239D01*
X50221Y-48276D02*
X50298Y-48353D01*
X50298Y-48276D02*
X50221Y-48353D01*
X50461Y-48784D02*
X50538Y-48861D01*
X50538Y-48784D02*
X50461Y-48861D01*
X50473Y-48492D02*
X50550Y-48569D01*
X50550Y-48492D02*
X50473Y-48569D01*
X50473Y-49091D02*
X50550Y-49168D01*
X50550Y-49091D02*
X50473Y-49168D01*
X50473Y-49406D02*
X50550Y-49483D01*
X50550Y-49406D02*
X50473Y-49483D01*
X50481Y-48024D02*
X50558Y-48101D01*
X50558Y-48024D02*
X50481Y-48101D01*
X50516Y-46681D02*
X50593Y-46758D01*
X50593Y-46681D02*
X50516Y-46758D01*
X50552Y-32992D02*
X50629Y-33069D01*
X50629Y-32992D02*
X50552Y-33069D01*
X50882Y-45831D02*
X50959Y-45908D01*
X50959Y-45831D02*
X50882Y-45908D01*
X50890Y-43272D02*
X50967Y-43349D01*
X50967Y-43272D02*
X50890Y-43349D01*
X50902Y-39044D02*
X50979Y-39121D01*
X50979Y-39044D02*
X50902Y-39121D01*
X50906Y-32992D02*
X50983Y-33069D01*
X50983Y-32992D02*
X50906Y-33069D01*
X50945Y-36678D02*
X51022Y-36755D01*
X51022Y-36678D02*
X50945Y-36755D01*
X50965Y-41355D02*
X51042Y-41432D01*
X51042Y-41355D02*
X50965Y-41432D01*
X51052Y-42095D02*
X51129Y-42172D01*
X51129Y-42095D02*
X51052Y-42172D01*
X51055Y-40906D02*
X51132Y-40983D01*
X51132Y-40906D02*
X51055Y-40983D01*
X51103Y-43111D02*
X51180Y-43188D01*
X51180Y-43111D02*
X51103Y-43188D01*
X51162Y-44563D02*
X51239Y-44640D01*
X51239Y-44563D02*
X51162Y-44640D01*
X51166Y-44886D02*
X51243Y-44963D01*
X51243Y-44886D02*
X51166Y-44963D01*
X51252Y-43835D02*
X51329Y-43912D01*
X51329Y-43835D02*
X51252Y-43912D01*
X51252Y-44229D02*
X51329Y-44306D01*
X51329Y-44229D02*
X51252Y-44306D01*
X51359Y-42316D02*
X51436Y-42393D01*
X51436Y-42316D02*
X51359Y-42393D01*
X51406Y-35890D02*
X51483Y-35967D01*
X51483Y-35890D02*
X51406Y-35967D01*
X51418Y-45831D02*
X51495Y-45908D01*
X51495Y-45831D02*
X51418Y-45908D01*
X51457Y-40465D02*
X51534Y-40542D01*
X51534Y-40465D02*
X51457Y-40542D01*
X51496Y-44697D02*
X51573Y-44774D01*
X51573Y-44697D02*
X51496Y-44774D01*
X51496Y-45028D02*
X51573Y-45105D01*
X51573Y-45028D02*
X51496Y-45105D01*
X51508Y-44044D02*
X51585Y-44121D01*
X51585Y-44044D02*
X51508Y-44121D01*
X51508Y-44374D02*
X51585Y-44451D01*
X51585Y-44374D02*
X51508Y-44451D01*
X51528Y-43678D02*
X51605Y-43755D01*
X51605Y-43678D02*
X51528Y-43755D01*
X51599Y-42316D02*
X51676Y-42393D01*
X51676Y-42316D02*
X51599Y-42393D01*
X51615Y-46300D02*
X51692Y-46377D01*
X51692Y-46300D02*
X51615Y-46377D01*
X51630Y-35249D02*
X51707Y-35326D01*
X51707Y-35249D02*
X51630Y-35326D01*
X51674Y-37571D02*
X51751Y-37648D01*
X51751Y-37571D02*
X51674Y-37648D01*
X51678Y-36457D02*
X51755Y-36534D01*
X51755Y-36457D02*
X51678Y-36534D01*
X51678Y-37953D02*
X51755Y-38030D01*
X51755Y-37953D02*
X51678Y-38030D01*
X51685Y-37237D02*
X51762Y-37314D01*
X51762Y-37237D02*
X51685Y-37314D01*
X51689Y-36914D02*
X51766Y-36991D01*
X51766Y-36914D02*
X51689Y-36991D01*
X51693Y-33642D02*
X51770Y-33719D01*
X51770Y-33642D02*
X51693Y-33719D01*
X51733Y-43111D02*
X51810Y-43188D01*
X51810Y-43111D02*
X51733Y-43188D01*
X51780Y-38937D02*
X51857Y-39014D01*
X51857Y-38937D02*
X51780Y-39014D01*
X51878Y-42316D02*
X51955Y-42393D01*
X51955Y-42316D02*
X51878Y-42393D01*
X51878Y-35540D02*
X51955Y-35617D01*
X51955Y-35540D02*
X51878Y-35617D01*
X51894Y-40634D02*
X51971Y-40711D01*
X51971Y-40634D02*
X51894Y-40711D01*
X51973Y-34760D02*
X52050Y-34837D01*
X52050Y-34760D02*
X51973Y-34837D01*
X52012Y-46288D02*
X52089Y-46365D01*
X52089Y-46288D02*
X52012Y-46365D01*
X52028Y-33642D02*
X52105Y-33719D01*
X52105Y-33642D02*
X52028Y-33719D01*
X52079Y-42315D02*
X52156Y-42392D01*
X52156Y-42315D02*
X52079Y-42392D01*
X52154Y-35851D02*
X52231Y-35928D01*
X52231Y-35851D02*
X52154Y-35928D01*
X52193Y-39977D02*
X52270Y-40054D01*
X52270Y-39977D02*
X52193Y-40054D01*
X52209Y-40355D02*
X52286Y-40432D01*
X52286Y-40355D02*
X52209Y-40432D01*
X52319Y-39115D02*
X52396Y-39192D01*
X52396Y-39115D02*
X52319Y-39192D01*
X52327Y-38733D02*
X52404Y-38810D01*
X52404Y-38733D02*
X52327Y-38810D01*
X52363Y-39776D02*
X52440Y-39853D01*
X52440Y-39776D02*
X52363Y-39853D01*
X52477Y-38123D02*
X52554Y-38200D01*
X52554Y-38123D02*
X52477Y-38200D01*
X52496Y-41693D02*
X52573Y-41770D01*
X52573Y-41693D02*
X52496Y-41770D01*
X52504Y-37788D02*
X52581Y-37865D01*
X52581Y-37788D02*
X52504Y-37865D01*
X52520Y-43662D02*
X52597Y-43739D01*
X52597Y-43662D02*
X52520Y-43739D01*
X52536Y-41032D02*
X52613Y-41109D01*
X52613Y-41032D02*
X52536Y-41109D01*
X52555Y-37115D02*
X52632Y-37192D01*
X52632Y-37115D02*
X52555Y-37192D01*
X52559Y-44040D02*
X52636Y-44117D01*
X52636Y-44040D02*
X52559Y-44117D01*
X52689Y-46544D02*
X52766Y-46621D01*
X52766Y-46544D02*
X52689Y-46621D01*
X52725Y-40835D02*
X52802Y-40912D01*
X52802Y-40835D02*
X52725Y-40912D01*
X52776Y-43937D02*
X52853Y-44014D01*
X52853Y-43937D02*
X52776Y-44014D01*
X52831Y-37288D02*
X52908Y-37365D01*
X52908Y-37288D02*
X52831Y-37365D01*
X52831Y-36591D02*
X52908Y-36668D01*
X52908Y-36591D02*
X52831Y-36668D01*
X52835Y-43426D02*
X52912Y-43503D01*
X52912Y-43426D02*
X52835Y-43503D01*
X52867Y-35056D02*
X52944Y-35133D01*
X52944Y-35056D02*
X52867Y-35133D01*
X52953Y-36142D02*
X53030Y-36219D01*
X53030Y-36142D02*
X52953Y-36219D01*
X52961Y-43804D02*
X53038Y-43881D01*
X53038Y-43804D02*
X52961Y-43881D01*
X53032Y-34823D02*
X53109Y-34900D01*
X53109Y-34823D02*
X53032Y-34900D01*
X53221Y-46540D02*
X53298Y-46617D01*
X53298Y-46540D02*
X53221Y-46617D01*
X53284Y-36414D02*
X53361Y-36491D01*
X53361Y-36414D02*
X53284Y-36491D01*
X53394Y-40638D02*
X53471Y-40715D01*
X53471Y-40638D02*
X53394Y-40715D01*
X53540Y-41886D02*
X53617Y-41963D01*
X53617Y-41886D02*
X53540Y-41963D01*
X53540Y-42083D02*
X53617Y-42160D01*
X53617Y-42083D02*
X53540Y-42160D01*
X53544Y-40162D02*
X53621Y-40239D01*
X53621Y-40162D02*
X53544Y-40239D01*
X53611Y-41497D02*
X53688Y-41574D01*
X53688Y-41497D02*
X53611Y-41574D01*
X53623Y-38316D02*
X53700Y-38393D01*
X53700Y-38316D02*
X53623Y-38393D01*
X53623Y-38516D02*
X53700Y-38593D01*
X53700Y-38516D02*
X53623Y-38593D01*
X53741Y-37756D02*
X53818Y-37833D01*
X53818Y-37756D02*
X53741Y-37833D01*
X53867Y-34804D02*
X53944Y-34881D01*
X53944Y-34804D02*
X53867Y-34881D01*
X53914Y-41422D02*
X53991Y-41499D01*
X53991Y-41422D02*
X53914Y-41499D01*
X53977Y-33701D02*
X54054Y-33778D01*
X54054Y-33701D02*
X53977Y-33778D01*
X54292Y-37756D02*
X54369Y-37833D01*
X54369Y-37756D02*
X54292Y-37833D01*
X54315Y-41032D02*
X54392Y-41109D01*
X54392Y-41032D02*
X54315Y-41109D01*
X54339Y-39327D02*
X54416Y-39404D01*
X54416Y-39327D02*
X54339Y-39404D01*
X54370Y-33701D02*
X54447Y-33778D01*
X54447Y-33701D02*
X54370Y-33778D01*
X54398Y-40638D02*
X54475Y-40715D01*
X54475Y-40638D02*
X54398Y-40715D01*
X54414Y-37280D02*
X54491Y-37357D01*
X54491Y-37280D02*
X54414Y-37357D01*
X54418Y-43438D02*
X54495Y-43515D01*
X54495Y-43438D02*
X54418Y-43515D01*
X54469Y-39508D02*
X54546Y-39585D01*
X54546Y-39508D02*
X54469Y-39585D01*
X54500Y-38918D02*
X54577Y-38995D01*
X54577Y-38918D02*
X54500Y-38995D01*
X54540Y-44186D02*
X54617Y-44263D01*
X54617Y-44186D02*
X54540Y-44263D01*
X54682Y-36036D02*
X54759Y-36113D01*
X54759Y-36036D02*
X54682Y-36113D01*
X54682Y-43016D02*
X54759Y-43093D01*
X54759Y-43016D02*
X54682Y-43093D01*
X54685Y-39134D02*
X54762Y-39211D01*
X54762Y-39134D02*
X54685Y-39211D01*
X54697Y-36292D02*
X54774Y-36369D01*
X54774Y-36292D02*
X54697Y-36369D01*
X54713Y-37426D02*
X54790Y-37503D01*
X54790Y-37426D02*
X54713Y-37503D01*
X54764Y-44055D02*
X54841Y-44132D01*
X54841Y-44055D02*
X54764Y-44132D01*
X54768Y-49004D02*
X54845Y-49081D01*
X54845Y-49004D02*
X54768Y-49081D01*
X54768Y-49319D02*
X54845Y-49396D01*
X54845Y-49319D02*
X54768Y-49396D01*
X54886Y-48150D02*
X54963Y-48227D01*
X54963Y-48150D02*
X54886Y-48227D01*
X54945Y-43024D02*
X55022Y-43101D01*
X55022Y-43024D02*
X54945Y-43101D01*
X55040Y-47992D02*
X55117Y-48069D01*
X55117Y-47992D02*
X55040Y-48069D01*
X55040Y-48426D02*
X55117Y-48503D01*
X55117Y-48426D02*
X55040Y-48503D01*
X55162Y-49004D02*
X55239Y-49081D01*
X55239Y-49004D02*
X55162Y-49081D01*
X55162Y-49319D02*
X55239Y-49396D01*
X55239Y-49319D02*
X55162Y-49396D01*
X55166Y-45666D02*
X55243Y-45743D01*
X55243Y-45666D02*
X55166Y-45743D01*
X55186Y-43028D02*
X55263Y-43105D01*
X55263Y-43028D02*
X55186Y-43105D01*
X55221Y-41170D02*
X55298Y-41247D01*
X55298Y-41170D02*
X55221Y-41247D01*
X55249Y-40382D02*
X55326Y-40459D01*
X55326Y-40382D02*
X55249Y-40459D01*
X55264Y-39993D02*
X55341Y-40070D01*
X55341Y-39993D02*
X55264Y-40070D01*
X55296Y-38197D02*
X55373Y-38274D01*
X55373Y-38197D02*
X55296Y-38274D01*
X55319Y-34965D02*
X55396Y-35042D01*
X55396Y-34965D02*
X55319Y-35042D01*
X55327Y-40780D02*
X55404Y-40857D01*
X55404Y-40780D02*
X55327Y-40857D01*
X55355Y-39599D02*
X55432Y-39676D01*
X55432Y-39599D02*
X55355Y-39676D01*
X55406Y-41807D02*
X55483Y-41884D01*
X55483Y-41807D02*
X55406Y-41884D01*
X55414Y-43028D02*
X55491Y-43105D01*
X55491Y-43028D02*
X55414Y-43105D01*
X55426Y-44122D02*
X55503Y-44199D01*
X55503Y-44122D02*
X55426Y-44199D01*
X55473Y-36851D02*
X55550Y-36928D01*
X55550Y-36851D02*
X55473Y-36928D01*
X55516Y-38989D02*
X55593Y-39066D01*
X55593Y-38989D02*
X55516Y-39066D01*
X55540Y-34185D02*
X55617Y-34262D01*
X55617Y-34185D02*
X55540Y-34262D01*
X55579Y-37237D02*
X55656Y-37314D01*
X55656Y-37237D02*
X55579Y-37314D01*
X55587Y-37914D02*
X55664Y-37991D01*
X55664Y-37914D02*
X55587Y-37991D01*
X55634Y-49319D02*
X55711Y-49396D01*
X55711Y-49319D02*
X55634Y-49396D01*
X55650Y-38205D02*
X55727Y-38282D01*
X55727Y-38205D02*
X55650Y-38282D01*
X55662Y-40579D02*
X55739Y-40656D01*
X55739Y-40579D02*
X55662Y-40656D01*
X55666Y-41800D02*
X55743Y-41877D01*
X55743Y-41800D02*
X55666Y-41877D01*
X55670Y-39406D02*
X55747Y-39483D01*
X55747Y-39406D02*
X55670Y-39483D01*
X55697Y-39792D02*
X55774Y-39869D01*
X55774Y-39792D02*
X55697Y-39869D01*
X55733Y-40193D02*
X55810Y-40270D01*
X55810Y-40193D02*
X55733Y-40270D01*
X55752Y-34304D02*
X55829Y-34381D01*
X55829Y-34304D02*
X55752Y-34381D01*
X55776Y-41367D02*
X55853Y-41444D01*
X55853Y-41367D02*
X55776Y-41444D01*
X55788Y-34485D02*
X55865Y-34562D01*
X55865Y-34485D02*
X55788Y-34562D01*
X55792Y-39008D02*
X55869Y-39085D01*
X55869Y-39008D02*
X55792Y-39085D01*
X55796Y-34800D02*
X55873Y-34877D01*
X55873Y-34800D02*
X55796Y-34877D01*
X55815Y-35331D02*
X55892Y-35408D01*
X55892Y-35331D02*
X55815Y-35408D01*
X55851Y-40977D02*
X55928Y-41054D01*
X55928Y-40977D02*
X55851Y-41054D01*
X55855Y-41559D02*
X55932Y-41636D01*
X55932Y-41559D02*
X55855Y-41636D01*
X55894Y-38489D02*
X55971Y-38566D01*
X55971Y-38489D02*
X55894Y-38566D01*
X56028Y-49319D02*
X56105Y-49396D01*
X56105Y-49319D02*
X56028Y-49396D01*
X56063Y-38319D02*
X56140Y-38396D01*
X56140Y-38319D02*
X56063Y-38396D01*
X56115Y-43044D02*
X56192Y-43121D01*
X56192Y-43044D02*
X56115Y-43121D01*
X56225Y-42201D02*
X56302Y-42278D01*
X56302Y-42201D02*
X56225Y-42278D01*
X56256Y-38536D02*
X56333Y-38613D01*
X56333Y-38536D02*
X56256Y-38613D01*
X56264Y-41898D02*
X56341Y-41975D01*
X56341Y-41898D02*
X56264Y-41975D01*
X56288Y-35335D02*
X56365Y-35412D01*
X56365Y-35335D02*
X56288Y-35412D01*
X56335Y-38099D02*
X56412Y-38176D01*
X56412Y-38099D02*
X56335Y-38176D01*
X56378Y-33741D02*
X56455Y-33818D01*
X56455Y-33741D02*
X56378Y-33818D01*
X56457Y-46244D02*
X56534Y-46321D01*
X56534Y-46244D02*
X56457Y-46321D01*
X56500Y-49319D02*
X56577Y-49396D01*
X56577Y-49319D02*
X56500Y-49396D01*
X56536Y-38091D02*
X56613Y-38168D01*
X56613Y-38091D02*
X56536Y-38168D01*
X56744Y-39233D02*
X56821Y-39310D01*
X56821Y-39233D02*
X56744Y-39310D01*
X56744Y-39666D02*
X56821Y-39743D01*
X56821Y-39666D02*
X56744Y-39743D01*
X56744Y-40099D02*
X56821Y-40176D01*
X56821Y-40099D02*
X56744Y-40176D01*
X56744Y-40532D02*
X56821Y-40609D01*
X56821Y-40532D02*
X56744Y-40609D01*
X56744Y-40965D02*
X56821Y-41042D01*
X56821Y-40965D02*
X56744Y-41042D01*
X56760Y-44323D02*
X56837Y-44400D01*
X56837Y-44323D02*
X56760Y-44400D01*
X56772Y-46260D02*
X56849Y-46337D01*
X56849Y-46260D02*
X56772Y-46337D01*
X56823Y-43103D02*
X56900Y-43180D01*
X56900Y-43103D02*
X56823Y-43180D01*
X56894Y-49004D02*
X56971Y-49081D01*
X56971Y-49004D02*
X56894Y-49081D01*
X56894Y-49319D02*
X56971Y-49396D01*
X56971Y-49319D02*
X56894Y-49396D01*
X56914Y-41894D02*
X56991Y-41971D01*
X56991Y-41894D02*
X56914Y-41971D01*
X56930Y-47796D02*
X57007Y-47873D01*
X57007Y-47796D02*
X56930Y-47873D01*
X56961Y-39016D02*
X57038Y-39093D01*
X57038Y-39016D02*
X56961Y-39093D01*
X56961Y-39449D02*
X57038Y-39526D01*
X57038Y-39449D02*
X56961Y-39526D01*
X56961Y-39882D02*
X57038Y-39959D01*
X57038Y-39882D02*
X56961Y-39959D01*
X56961Y-40315D02*
X57038Y-40392D01*
X57038Y-40315D02*
X56961Y-40392D01*
X56961Y-40748D02*
X57038Y-40825D01*
X57038Y-40748D02*
X56961Y-40825D01*
X57044Y-42465D02*
X57121Y-42542D01*
X57121Y-42465D02*
X57044Y-42542D01*
X57107Y-35744D02*
X57184Y-35821D01*
X57184Y-35744D02*
X57107Y-35821D01*
X57115Y-41902D02*
X57192Y-41979D01*
X57192Y-41902D02*
X57115Y-41979D01*
X57130Y-36760D02*
X57207Y-36837D01*
X57207Y-36760D02*
X57130Y-36837D01*
X57130Y-46831D02*
X57207Y-46908D01*
X57207Y-46831D02*
X57130Y-46908D01*
X57177Y-39233D02*
X57254Y-39310D01*
X57254Y-39233D02*
X57177Y-39310D01*
X57177Y-39666D02*
X57254Y-39743D01*
X57254Y-39666D02*
X57177Y-39743D01*
X57177Y-40099D02*
X57254Y-40176D01*
X57254Y-40099D02*
X57177Y-40176D01*
X57177Y-40532D02*
X57254Y-40609D01*
X57254Y-40532D02*
X57177Y-40609D01*
X57177Y-40965D02*
X57254Y-41042D01*
X57254Y-40965D02*
X57177Y-41042D01*
X57209Y-47500D02*
X57286Y-47577D01*
X57286Y-47500D02*
X57209Y-47577D01*
X57268Y-42729D02*
X57345Y-42806D01*
X57345Y-42729D02*
X57268Y-42806D01*
X57394Y-39016D02*
X57471Y-39093D01*
X57471Y-39016D02*
X57394Y-39093D01*
X57394Y-39449D02*
X57471Y-39526D01*
X57471Y-39449D02*
X57394Y-39526D01*
X57394Y-39882D02*
X57471Y-39959D01*
X57471Y-39882D02*
X57394Y-39959D01*
X57394Y-40315D02*
X57471Y-40392D01*
X57471Y-40315D02*
X57394Y-40392D01*
X57394Y-40748D02*
X57471Y-40825D01*
X57471Y-40748D02*
X57394Y-40825D01*
X57520Y-44209D02*
X57597Y-44286D01*
X57597Y-44209D02*
X57520Y-44286D01*
X57614Y-39233D02*
X57691Y-39310D01*
X57691Y-39233D02*
X57614Y-39310D01*
X57614Y-39666D02*
X57691Y-39743D01*
X57691Y-39666D02*
X57614Y-39743D01*
X57614Y-40099D02*
X57691Y-40176D01*
X57691Y-40099D02*
X57614Y-40176D01*
X57614Y-40532D02*
X57691Y-40609D01*
X57691Y-40532D02*
X57614Y-40609D01*
X57614Y-40965D02*
X57691Y-41042D01*
X57691Y-40965D02*
X57614Y-41042D01*
X57642Y-46831D02*
X57719Y-46908D01*
X57719Y-46831D02*
X57642Y-46908D01*
X57697Y-44181D02*
X57774Y-44258D01*
X57774Y-44181D02*
X57697Y-44258D01*
X57717Y-43418D02*
X57794Y-43495D01*
X57794Y-43418D02*
X57717Y-43495D01*
X57756Y-33229D02*
X57833Y-33306D01*
X57833Y-33229D02*
X57756Y-33306D01*
X57800Y-47422D02*
X57877Y-47499D01*
X57877Y-47422D02*
X57800Y-47499D01*
X57827Y-39016D02*
X57904Y-39093D01*
X57904Y-39016D02*
X57827Y-39093D01*
X57827Y-39449D02*
X57904Y-39526D01*
X57904Y-39449D02*
X57827Y-39526D01*
X57827Y-39882D02*
X57904Y-39959D01*
X57904Y-39882D02*
X57827Y-39959D01*
X57827Y-40315D02*
X57904Y-40392D01*
X57904Y-40315D02*
X57827Y-40392D01*
X57827Y-40748D02*
X57904Y-40825D01*
X57904Y-40748D02*
X57827Y-40825D01*
X57859Y-44201D02*
X57936Y-44278D01*
X57936Y-44201D02*
X57859Y-44278D01*
X57874Y-48473D02*
X57951Y-48550D01*
X57951Y-48473D02*
X57874Y-48550D01*
X57941Y-45378D02*
X58018Y-45455D01*
X58018Y-45378D02*
X57941Y-45455D01*
X57949Y-45040D02*
X58026Y-45117D01*
X58026Y-45040D02*
X57949Y-45117D01*
X58043Y-39233D02*
X58120Y-39310D01*
X58120Y-39233D02*
X58043Y-39310D01*
X58043Y-39666D02*
X58120Y-39743D01*
X58120Y-39666D02*
X58043Y-39743D01*
X58043Y-40099D02*
X58120Y-40176D01*
X58120Y-40099D02*
X58043Y-40176D01*
X58043Y-40532D02*
X58120Y-40609D01*
X58120Y-40532D02*
X58043Y-40609D01*
X58043Y-40965D02*
X58120Y-41042D01*
X58120Y-40965D02*
X58043Y-41042D01*
X58115Y-46831D02*
X58192Y-46908D01*
X58192Y-46831D02*
X58115Y-46908D01*
X58197Y-44552D02*
X58274Y-44629D01*
X58274Y-44552D02*
X58197Y-44629D01*
X58197Y-45465D02*
X58274Y-45542D01*
X58274Y-45465D02*
X58197Y-45542D01*
X58241Y-42713D02*
X58318Y-42790D01*
X58318Y-42713D02*
X58241Y-42790D01*
X58260Y-39016D02*
X58337Y-39093D01*
X58337Y-39016D02*
X58260Y-39093D01*
X58260Y-39449D02*
X58337Y-39526D01*
X58337Y-39449D02*
X58260Y-39526D01*
X58260Y-39882D02*
X58337Y-39959D01*
X58337Y-39882D02*
X58260Y-39959D01*
X58260Y-40315D02*
X58337Y-40392D01*
X58337Y-40315D02*
X58260Y-40392D01*
X58260Y-40748D02*
X58337Y-40825D01*
X58337Y-40748D02*
X58260Y-40825D01*
X58386Y-33229D02*
X58463Y-33306D01*
X58463Y-33229D02*
X58386Y-33306D01*
X58410Y-42437D02*
X58487Y-42514D01*
X58487Y-42437D02*
X58410Y-42514D01*
X58430Y-47540D02*
X58507Y-47617D01*
X58507Y-47540D02*
X58430Y-47617D01*
X58445Y-44752D02*
X58522Y-44829D01*
X58522Y-44752D02*
X58445Y-44829D01*
X58449Y-45040D02*
X58526Y-45117D01*
X58526Y-45040D02*
X58449Y-45117D01*
X58465Y-32717D02*
X58542Y-32794D01*
X58542Y-32717D02*
X58465Y-32794D01*
X58465Y-49370D02*
X58542Y-49447D01*
X58542Y-49370D02*
X58465Y-49447D01*
X58476Y-39233D02*
X58553Y-39310D01*
X58553Y-39233D02*
X58476Y-39310D01*
X58476Y-39666D02*
X58553Y-39743D01*
X58553Y-39666D02*
X58476Y-39743D01*
X58476Y-40099D02*
X58553Y-40176D01*
X58553Y-40099D02*
X58476Y-40176D01*
X58476Y-40532D02*
X58553Y-40609D01*
X58553Y-40532D02*
X58476Y-40609D01*
X58476Y-40965D02*
X58553Y-41042D01*
X58553Y-40965D02*
X58476Y-41042D01*
X58499Y-41893D02*
X58576Y-41970D01*
X58576Y-41893D02*
X58499Y-41970D01*
X58544Y-35748D02*
X58621Y-35825D01*
X58621Y-35748D02*
X58544Y-35825D01*
X58548Y-46831D02*
X58625Y-46908D01*
X58625Y-46831D02*
X58548Y-46908D01*
X58563Y-36752D02*
X58640Y-36829D01*
X58640Y-36752D02*
X58563Y-36829D01*
X58599Y-43449D02*
X58676Y-43526D01*
X58676Y-43449D02*
X58599Y-43526D01*
X58691Y-41341D02*
X58768Y-41418D01*
X58768Y-41341D02*
X58691Y-41418D01*
X58693Y-39016D02*
X58770Y-39093D01*
X58770Y-39016D02*
X58693Y-39093D01*
X58693Y-39449D02*
X58770Y-39526D01*
X58770Y-39449D02*
X58693Y-39526D01*
X58693Y-39882D02*
X58770Y-39959D01*
X58770Y-39882D02*
X58693Y-39959D01*
X58693Y-40315D02*
X58770Y-40392D01*
X58770Y-40315D02*
X58693Y-40392D01*
X58693Y-40748D02*
X58770Y-40825D01*
X58770Y-40748D02*
X58693Y-40825D01*
X58705Y-41870D02*
X58782Y-41947D01*
X58782Y-41870D02*
X58705Y-41947D01*
X58741Y-33741D02*
X58818Y-33818D01*
X58818Y-33741D02*
X58741Y-33818D01*
X58776Y-36213D02*
X58853Y-36290D01*
X58853Y-36213D02*
X58776Y-36290D01*
X58780Y-32717D02*
X58857Y-32794D01*
X58857Y-32717D02*
X58780Y-32794D01*
X58780Y-35142D02*
X58857Y-35219D01*
X58857Y-35142D02*
X58780Y-35219D01*
X58894Y-48780D02*
X58971Y-48857D01*
X58971Y-48780D02*
X58894Y-48857D01*
X58902Y-49201D02*
X58979Y-49278D01*
X58979Y-49201D02*
X58902Y-49278D01*
X58970Y-39505D02*
X59047Y-39582D01*
X59047Y-39505D02*
X58970Y-39582D01*
X58977Y-33268D02*
X59054Y-33345D01*
X59054Y-33268D02*
X58977Y-33345D01*
X59095Y-32717D02*
X59172Y-32794D01*
X59172Y-32717D02*
X59095Y-32794D01*
X59111Y-37933D02*
X59188Y-38010D01*
X59188Y-37933D02*
X59111Y-38010D01*
X59134Y-33741D02*
X59211Y-33818D01*
X59211Y-33741D02*
X59134Y-33818D01*
X59174Y-34662D02*
X59251Y-34739D01*
X59251Y-34662D02*
X59174Y-34739D01*
X59174Y-35823D02*
X59251Y-35900D01*
X59251Y-35823D02*
X59174Y-35900D01*
X59233Y-41768D02*
X59310Y-41845D01*
X59310Y-41768D02*
X59233Y-41845D01*
X59242Y-42028D02*
X59319Y-42105D01*
X59319Y-42028D02*
X59242Y-42105D01*
X59311Y-38103D02*
X59388Y-38180D01*
X59388Y-38103D02*
X59311Y-38180D01*
X59410Y-32717D02*
X59487Y-32794D01*
X59487Y-32717D02*
X59410Y-32794D01*
X59449Y-35040D02*
X59526Y-35117D01*
X59526Y-35040D02*
X59449Y-35117D01*
X59449Y-35394D02*
X59526Y-35471D01*
X59526Y-35394D02*
X59449Y-35471D01*
X59504Y-36122D02*
X59581Y-36199D01*
X59581Y-36122D02*
X59504Y-36199D01*
X59567Y-33229D02*
X59644Y-33306D01*
X59644Y-33229D02*
X59567Y-33306D01*
X59607Y-40186D02*
X59684Y-40263D01*
X59684Y-40186D02*
X59607Y-40263D01*
X59615Y-36304D02*
X59692Y-36381D01*
X59692Y-36304D02*
X59615Y-36381D01*
X59618Y-44989D02*
X59695Y-45066D01*
X59695Y-44989D02*
X59618Y-45066D01*
X59626Y-41000D02*
X59703Y-41077D01*
X59703Y-41000D02*
X59626Y-41077D01*
X59630Y-40386D02*
X59707Y-40463D01*
X59707Y-40386D02*
X59630Y-40463D01*
X59634Y-44642D02*
X59711Y-44719D01*
X59711Y-44642D02*
X59634Y-44719D01*
X59642Y-44323D02*
X59719Y-44400D01*
X59719Y-44323D02*
X59642Y-44400D01*
X59670Y-42099D02*
X59747Y-42176D01*
X59747Y-42099D02*
X59670Y-42176D01*
X59685Y-39477D02*
X59762Y-39554D01*
X59762Y-39477D02*
X59685Y-39554D01*
X59748Y-39831D02*
X59825Y-39908D01*
X59825Y-39831D02*
X59748Y-39908D01*
X59764Y-32717D02*
X59841Y-32794D01*
X59841Y-32717D02*
X59764Y-32794D01*
X59804Y-35040D02*
X59881Y-35117D01*
X59881Y-35040D02*
X59804Y-35117D01*
X59804Y-35394D02*
X59881Y-35471D01*
X59881Y-35394D02*
X59804Y-35471D01*
X59807Y-36122D02*
X59884Y-36199D01*
X59884Y-36122D02*
X59807Y-36199D01*
X59811Y-43575D02*
X59888Y-43652D01*
X59888Y-43575D02*
X59811Y-43652D01*
X59874Y-37555D02*
X59951Y-37632D01*
X59951Y-37555D02*
X59874Y-37632D01*
X59912Y-40837D02*
X59989Y-40914D01*
X59989Y-40837D02*
X59912Y-40914D01*
X59957Y-33225D02*
X60034Y-33302D01*
X60034Y-33225D02*
X59957Y-33302D01*
X60004Y-48347D02*
X60081Y-48424D01*
X60081Y-48347D02*
X60004Y-48424D01*
X60044Y-37465D02*
X60121Y-37542D01*
X60121Y-37465D02*
X60044Y-37542D01*
X60067Y-35823D02*
X60144Y-35900D01*
X60144Y-35823D02*
X60067Y-35900D01*
X60079Y-32717D02*
X60156Y-32794D01*
X60156Y-32717D02*
X60079Y-32794D01*
X60087Y-34658D02*
X60164Y-34735D01*
X60164Y-34658D02*
X60087Y-34735D01*
X60146Y-43555D02*
X60223Y-43632D01*
X60223Y-43555D02*
X60146Y-43632D01*
X60260Y-40709D02*
X60337Y-40786D01*
X60337Y-40709D02*
X60260Y-40786D01*
X60359Y-42343D02*
X60436Y-42420D01*
X60436Y-42343D02*
X60359Y-42420D01*
X60370Y-44985D02*
X60447Y-45062D01*
X60447Y-44985D02*
X60370Y-45062D01*
X60374Y-44603D02*
X60451Y-44680D01*
X60451Y-44603D02*
X60374Y-44680D01*
X60394Y-32717D02*
X60471Y-32794D01*
X60471Y-32717D02*
X60394Y-32794D01*
X60430Y-33225D02*
X60507Y-33302D01*
X60507Y-33225D02*
X60430Y-33302D01*
X60430Y-34953D02*
X60507Y-35030D01*
X60507Y-34953D02*
X60430Y-35030D01*
X60477Y-35536D02*
X60554Y-35613D01*
X60554Y-35536D02*
X60477Y-35613D01*
X60607Y-42422D02*
X60684Y-42499D01*
X60684Y-42422D02*
X60607Y-42499D01*
X60642Y-46752D02*
X60719Y-46829D01*
X60719Y-46752D02*
X60642Y-46829D01*
X60650Y-36304D02*
X60727Y-36381D01*
X60727Y-36304D02*
X60650Y-36381D01*
X60650Y-37681D02*
X60727Y-37758D01*
X60727Y-37681D02*
X60650Y-37758D01*
X60658Y-44394D02*
X60735Y-44471D01*
X60735Y-44394D02*
X60658Y-44471D01*
X60709Y-32717D02*
X60786Y-32794D01*
X60786Y-32717D02*
X60709Y-32794D01*
X60768Y-45351D02*
X60845Y-45428D01*
X60845Y-45351D02*
X60768Y-45428D01*
X60788Y-35827D02*
X60865Y-35904D01*
X60865Y-35827D02*
X60788Y-35904D01*
X60823Y-33225D02*
X60900Y-33302D01*
X60900Y-33225D02*
X60823Y-33302D01*
X60843Y-38048D02*
X60920Y-38125D01*
X60920Y-38048D02*
X60843Y-38125D01*
X60863Y-44882D02*
X60940Y-44959D01*
X60940Y-44882D02*
X60863Y-44959D01*
X60922Y-42024D02*
X60999Y-42101D01*
X60999Y-42024D02*
X60922Y-42101D01*
X60949Y-43457D02*
X61026Y-43534D01*
X61026Y-43457D02*
X60949Y-43534D01*
X61040Y-48335D02*
X61117Y-48412D01*
X61117Y-48335D02*
X61040Y-48412D01*
X61063Y-32717D02*
X61140Y-32794D01*
X61140Y-32717D02*
X61063Y-32794D01*
X61071Y-44666D02*
X61148Y-44743D01*
X61148Y-44666D02*
X61071Y-44743D01*
X61091Y-41481D02*
X61168Y-41558D01*
X61168Y-41481D02*
X61091Y-41558D01*
X61103Y-46300D02*
X61180Y-46377D01*
X61180Y-46300D02*
X61103Y-46377D01*
X61130Y-38906D02*
X61207Y-38983D01*
X61207Y-38906D02*
X61130Y-38983D01*
X61134Y-42142D02*
X61211Y-42219D01*
X61211Y-42142D02*
X61134Y-42219D01*
X61146Y-38595D02*
X61223Y-38672D01*
X61223Y-38595D02*
X61146Y-38672D01*
X61158Y-38292D02*
X61235Y-38369D01*
X61235Y-38292D02*
X61158Y-38369D01*
X61162Y-33760D02*
X61239Y-33837D01*
X61239Y-33760D02*
X61162Y-33837D01*
X61190Y-41816D02*
X61267Y-41893D01*
X61267Y-41816D02*
X61190Y-41893D01*
X61225Y-40032D02*
X61302Y-40109D01*
X61302Y-40032D02*
X61225Y-40109D01*
X61244Y-40760D02*
X61321Y-40837D01*
X61321Y-40760D02*
X61244Y-40837D01*
X61296Y-33225D02*
X61373Y-33302D01*
X61373Y-33225D02*
X61296Y-33302D01*
X61327Y-49398D02*
X61404Y-49475D01*
X61404Y-49398D02*
X61327Y-49475D01*
X61351Y-47902D02*
X61428Y-47979D01*
X61428Y-47902D02*
X61351Y-47979D01*
X61355Y-48445D02*
X61432Y-48522D01*
X61432Y-48445D02*
X61355Y-48522D01*
X61359Y-34780D02*
X61436Y-34857D01*
X61436Y-34780D02*
X61359Y-34857D01*
X61359Y-37607D02*
X61436Y-37684D01*
X61436Y-37607D02*
X61359Y-37684D01*
X61359Y-44437D02*
X61436Y-44514D01*
X61436Y-44437D02*
X61359Y-44514D01*
X61359Y-45146D02*
X61436Y-45223D01*
X61436Y-45146D02*
X61359Y-45223D01*
X61378Y-32717D02*
X61455Y-32794D01*
X61455Y-32717D02*
X61378Y-32794D01*
X61457Y-46300D02*
X61534Y-46377D01*
X61534Y-46300D02*
X61457Y-46377D01*
X61465Y-42536D02*
X61542Y-42613D01*
X61542Y-42536D02*
X61465Y-42613D01*
X61496Y-38922D02*
X61573Y-38999D01*
X61573Y-38922D02*
X61496Y-38999D01*
X61516Y-33760D02*
X61593Y-33837D01*
X61593Y-33760D02*
X61516Y-33837D01*
X61689Y-33225D02*
X61766Y-33302D01*
X61766Y-33225D02*
X61689Y-33302D01*
X61693Y-32717D02*
X61770Y-32794D01*
X61770Y-32717D02*
X61693Y-32794D01*
X61784Y-41252D02*
X61861Y-41329D01*
X61861Y-41252D02*
X61784Y-41329D01*
X61933Y-46882D02*
X62010Y-46959D01*
X62010Y-46882D02*
X61933Y-46959D01*
X62008Y-32717D02*
X62085Y-32794D01*
X62085Y-32717D02*
X62008Y-32794D01*
X62020Y-48449D02*
X62097Y-48526D01*
X62097Y-48449D02*
X62020Y-48526D01*
X62126Y-33237D02*
X62203Y-33314D01*
X62203Y-33237D02*
X62126Y-33314D01*
X62292Y-49382D02*
X62369Y-49459D01*
X62369Y-49382D02*
X62292Y-49459D01*
X62311Y-47863D02*
X62388Y-47940D01*
X62388Y-47863D02*
X62311Y-47940D01*
X62363Y-32717D02*
X62440Y-32794D01*
X62440Y-32717D02*
X62363Y-32794D01*
X62520Y-33237D02*
X62597Y-33314D01*
X62597Y-33237D02*
X62520Y-33314D01*
X62678Y-32717D02*
X62755Y-32794D01*
X62755Y-32717D02*
X62678Y-32794D01*
X62678Y-46870D02*
X62755Y-46947D01*
X62755Y-46870D02*
X62678Y-46947D01*
X62874Y-37481D02*
X62951Y-37558D01*
X62951Y-37481D02*
X62874Y-37558D01*
X62874Y-37835D02*
X62951Y-37912D01*
X62951Y-37835D02*
X62874Y-37912D01*
X62874Y-39804D02*
X62951Y-39881D01*
X62951Y-39804D02*
X62874Y-39881D01*
X62874Y-40237D02*
X62951Y-40314D01*
X62951Y-40237D02*
X62874Y-40314D01*
X62874Y-42166D02*
X62951Y-42243D01*
X62951Y-42166D02*
X62874Y-42243D01*
X62874Y-42599D02*
X62951Y-42676D01*
X62951Y-42599D02*
X62874Y-42676D01*
X62914Y-33237D02*
X62991Y-33314D01*
X62991Y-33237D02*
X62914Y-33314D01*
X62992Y-32717D02*
X63069Y-32794D01*
X63069Y-32717D02*
X62992Y-32794D01*
X63012Y-48256D02*
X63089Y-48333D01*
X63089Y-48256D02*
X63012Y-48333D01*
X63189Y-43780D02*
X63266Y-43857D01*
X63266Y-43780D02*
X63189Y-43857D01*
X63268Y-42520D02*
X63345Y-42597D01*
X63345Y-42520D02*
X63268Y-42597D01*
X63268Y-42953D02*
X63345Y-43030D01*
X63345Y-42953D02*
X63268Y-43030D01*
X63268Y-45512D02*
X63345Y-45589D01*
X63345Y-45512D02*
X63268Y-45589D01*
X63284Y-45874D02*
X63361Y-45951D01*
X63361Y-45874D02*
X63284Y-45951D01*
X63307Y-32717D02*
X63384Y-32794D01*
X63384Y-32717D02*
X63307Y-32794D01*
X63307Y-34666D02*
X63384Y-34743D01*
X63384Y-34666D02*
X63307Y-34743D01*
X63315Y-46272D02*
X63392Y-46349D01*
X63392Y-46272D02*
X63315Y-46349D01*
X63327Y-35926D02*
X63404Y-36003D01*
X63404Y-35926D02*
X63327Y-36003D01*
X63347Y-36870D02*
X63424Y-36947D01*
X63424Y-36870D02*
X63347Y-36947D01*
X63347Y-37264D02*
X63424Y-37341D01*
X63424Y-37264D02*
X63347Y-37341D01*
X63347Y-37658D02*
X63424Y-37735D01*
X63424Y-37658D02*
X63347Y-37735D01*
X63347Y-44252D02*
X63424Y-44329D01*
X63424Y-44252D02*
X63347Y-44329D01*
X63406Y-33780D02*
X63483Y-33857D01*
X63483Y-33780D02*
X63406Y-33857D01*
X63426Y-33426D02*
X63503Y-33503D01*
X63503Y-33426D02*
X63426Y-33503D01*
X63426Y-34115D02*
X63503Y-34192D01*
X63503Y-34115D02*
X63426Y-34192D01*
X63465Y-46693D02*
X63542Y-46770D01*
X63542Y-46693D02*
X63465Y-46770D01*
X63544Y-43701D02*
X63621Y-43778D01*
X63621Y-43701D02*
X63544Y-43778D01*
X63622Y-32717D02*
X63699Y-32794D01*
X63699Y-32717D02*
X63622Y-32794D01*
X63622Y-33071D02*
X63699Y-33148D01*
X63699Y-33071D02*
X63622Y-33148D01*
X63630Y-45870D02*
X63707Y-45947D01*
X63707Y-45870D02*
X63630Y-45947D01*
X63630Y-46264D02*
X63707Y-46341D01*
X63707Y-46264D02*
X63630Y-46341D01*
X63678Y-42567D02*
X63755Y-42644D01*
X63755Y-42567D02*
X63678Y-42644D01*
X63741Y-36870D02*
X63818Y-36947D01*
X63818Y-36870D02*
X63741Y-36947D01*
X63741Y-37264D02*
X63818Y-37341D01*
X63818Y-37264D02*
X63741Y-37341D01*
X63741Y-37658D02*
X63818Y-37735D01*
X63818Y-37658D02*
X63741Y-37735D01*
X63748Y-42965D02*
X63825Y-43042D01*
X63825Y-42965D02*
X63748Y-43042D01*
X63780Y-33426D02*
X63857Y-33503D01*
X63857Y-33426D02*
X63780Y-33503D01*
X63800Y-33780D02*
X63877Y-33857D01*
X63877Y-33780D02*
X63800Y-33857D01*
X63819Y-34115D02*
X63896Y-34192D01*
X63896Y-34115D02*
X63819Y-34192D01*
X63878Y-46855D02*
X63955Y-46932D01*
X63955Y-46855D02*
X63878Y-46932D01*
X63906Y-43713D02*
X63983Y-43790D01*
X63983Y-43713D02*
X63906Y-43790D01*
X63977Y-32717D02*
X64054Y-32794D01*
X64054Y-32717D02*
X63977Y-32794D01*
X64024Y-42563D02*
X64101Y-42640D01*
X64101Y-42563D02*
X64024Y-42640D01*
X64024Y-45870D02*
X64101Y-45947D01*
X64101Y-45870D02*
X64024Y-45947D01*
X64024Y-46264D02*
X64101Y-46341D01*
X64101Y-46264D02*
X64024Y-46341D01*
X64048Y-48264D02*
X64125Y-48341D01*
X64125Y-48264D02*
X64048Y-48341D01*
X64063Y-42957D02*
X64140Y-43034D01*
X64140Y-42957D02*
X64063Y-43034D01*
X64134Y-33150D02*
X64211Y-33227D01*
X64211Y-33150D02*
X64134Y-33227D01*
X64134Y-36870D02*
X64211Y-36947D01*
X64211Y-36870D02*
X64134Y-36947D01*
X64134Y-37264D02*
X64211Y-37341D01*
X64211Y-37264D02*
X64134Y-37341D01*
X64134Y-37658D02*
X64211Y-37735D01*
X64211Y-37658D02*
X64134Y-37735D01*
X64174Y-33701D02*
X64251Y-33778D01*
X64251Y-33701D02*
X64174Y-33778D01*
X64197Y-48465D02*
X64274Y-48542D01*
X64274Y-48465D02*
X64197Y-48542D01*
X64221Y-43705D02*
X64298Y-43782D01*
X64298Y-43705D02*
X64221Y-43782D01*
X64410Y-33426D02*
X64487Y-33503D01*
X64487Y-33426D02*
X64410Y-33503D01*
X64418Y-42563D02*
X64495Y-42640D01*
X64495Y-42563D02*
X64418Y-42640D01*
X64457Y-42957D02*
X64534Y-43034D01*
X64534Y-42957D02*
X64457Y-43034D01*
X64504Y-46528D02*
X64581Y-46605D01*
X64581Y-46528D02*
X64504Y-46605D01*
X64528Y-36870D02*
X64605Y-36947D01*
X64605Y-36870D02*
X64528Y-36947D01*
X64528Y-37264D02*
X64605Y-37341D01*
X64605Y-37264D02*
X64528Y-37341D01*
X64528Y-37658D02*
X64605Y-37735D01*
X64605Y-37658D02*
X64528Y-37735D01*
X64563Y-46957D02*
X64640Y-47034D01*
X64640Y-46957D02*
X64563Y-47034D01*
X64563Y-47272D02*
X64640Y-47349D01*
X64640Y-47272D02*
X64563Y-47349D01*
X64567Y-47599D02*
X64644Y-47676D01*
X64644Y-47599D02*
X64567Y-47676D01*
X64567Y-48386D02*
X64644Y-48463D01*
X64644Y-48386D02*
X64567Y-48463D01*
X64567Y-48859D02*
X64644Y-48936D01*
X64644Y-48859D02*
X64567Y-48936D01*
X64607Y-33701D02*
X64684Y-33778D01*
X64684Y-33701D02*
X64607Y-33778D01*
X64607Y-34508D02*
X64684Y-34585D01*
X64684Y-34508D02*
X64607Y-34585D01*
X64607Y-34843D02*
X64684Y-34920D01*
X64684Y-34843D02*
X64607Y-34920D01*
X64607Y-35670D02*
X64684Y-35747D01*
X64684Y-35670D02*
X64607Y-35747D01*
X64607Y-44055D02*
X64684Y-44132D01*
X64684Y-44055D02*
X64607Y-44132D01*
X64607Y-44370D02*
X64684Y-44447D01*
X64684Y-44370D02*
X64607Y-44447D01*
X64607Y-45158D02*
X64684Y-45235D01*
X64684Y-45158D02*
X64607Y-45235D01*
X64607Y-45473D02*
X64684Y-45550D01*
X64684Y-45473D02*
X64607Y-45550D01*
X64615Y-43705D02*
X64692Y-43782D01*
X64692Y-43705D02*
X64615Y-43782D01*
X64626Y-35965D02*
X64703Y-36042D01*
X64703Y-35965D02*
X64626Y-36042D01*
X59779Y-40740D02*
G75*
G03X59779Y-40740I-39J0D01*
G74*
G01*
X59787Y-39020D02*
G75*
G03X59787Y-39020I-39J0D01*
G74*
G01*
X60069Y-41211D02*
G75*
G03X60069Y-41211I-39J0D01*
G74*
G01*
X60078Y-41437D02*
G75*
G03X60078Y-41437I-39J0D01*
G74*
G01*
X60358Y-39984D02*
G75*
G03X60358Y-39984I-39J0D01*
G74*
G01*
X60378Y-39244D02*
G75*
G03X60378Y-39244I-39J0D01*
G74*
G01*
X60819Y-39406D02*
G75*
G03X60819Y-39406I-39J0D01*
G74*
G01*
X56437Y-38710D02*
X56437Y-38789D01*
X56397Y-38750D02*
X56476Y-38750D01*
X56437Y-38907D02*
X56437Y-38986D01*
X56397Y-38947D02*
X56476Y-38947D01*
X56437Y-39104D02*
X56437Y-39183D01*
X56397Y-39144D02*
X56476Y-39144D01*
X56437Y-39301D02*
X56437Y-39380D01*
X56397Y-39341D02*
X56476Y-39341D01*
X56437Y-39497D02*
X56437Y-39576D01*
X56397Y-39537D02*
X56476Y-39537D01*
X56437Y-39694D02*
X56437Y-39773D01*
X56397Y-39734D02*
X56476Y-39734D01*
X56437Y-39891D02*
X56437Y-39970D01*
X56397Y-39931D02*
X56476Y-39931D01*
X56437Y-40088D02*
X56437Y-40167D01*
X56397Y-40128D02*
X56476Y-40128D01*
X56437Y-40285D02*
X56437Y-40364D01*
X56397Y-40325D02*
X56476Y-40325D01*
X56437Y-40482D02*
X56437Y-40561D01*
X56397Y-40522D02*
X56476Y-40522D01*
X56437Y-40679D02*
X56437Y-40758D01*
X56397Y-40719D02*
X56476Y-40719D01*
X56437Y-40875D02*
X56437Y-40954D01*
X56397Y-40915D02*
X56476Y-40915D01*
X56437Y-41072D02*
X56437Y-41151D01*
X56397Y-41112D02*
X56476Y-41112D01*
X56447Y-41269D02*
X56447Y-41348D01*
X56407Y-41309D02*
X56486Y-41309D01*
X56663Y-41299D02*
X56663Y-41378D01*
X56623Y-41339D02*
X56702Y-41339D01*
X56673Y-38671D02*
X56673Y-38750D01*
X56633Y-38711D02*
X56712Y-38711D01*
X56860Y-41299D02*
X56860Y-41378D01*
X56820Y-41339D02*
X56899Y-41339D01*
X56870Y-38680D02*
X56870Y-38759D01*
X56830Y-38720D02*
X56909Y-38720D01*
X57057Y-41299D02*
X57057Y-41378D01*
X57017Y-41339D02*
X57096Y-41339D01*
X57067Y-38680D02*
X57067Y-38759D01*
X57027Y-38720D02*
X57106Y-38720D01*
X57254Y-41299D02*
X57254Y-41378D01*
X57214Y-41339D02*
X57293Y-41339D01*
X57854Y-38680D02*
X57854Y-38759D01*
X57814Y-38720D02*
X57893Y-38720D01*
X58238Y-41299D02*
X58238Y-41378D01*
X58198Y-41339D02*
X58277Y-41339D01*
X58435Y-41299D02*
X58435Y-41378D01*
X58395Y-41339D02*
X58474Y-41339D01*
X59055Y-40088D02*
X59055Y-40167D01*
X59015Y-40128D02*
X59094Y-40128D01*
X59065Y-38710D02*
X59065Y-38789D01*
X59025Y-38750D02*
X59104Y-38750D01*
X59065Y-38907D02*
X59065Y-38986D01*
X59025Y-38947D02*
X59104Y-38947D01*
X59065Y-39104D02*
X59065Y-39183D01*
X59025Y-39144D02*
X59104Y-39144D01*
X59065Y-39301D02*
X59065Y-39380D01*
X59025Y-39341D02*
X59104Y-39341D01*
X59065Y-39694D02*
X59065Y-39773D01*
X59025Y-39734D02*
X59104Y-39734D01*
X59065Y-39891D02*
X59065Y-39970D01*
X59025Y-39931D02*
X59104Y-39931D01*
X59065Y-40285D02*
X59065Y-40364D01*
X59025Y-40325D02*
X59104Y-40325D01*
X59065Y-40482D02*
X59065Y-40561D01*
X59025Y-40522D02*
X59104Y-40522D01*
X59065Y-40679D02*
X59065Y-40758D01*
X59025Y-40719D02*
X59104Y-40719D01*
X59065Y-40875D02*
X59065Y-40954D01*
X59025Y-40915D02*
X59104Y-40915D01*
X59065Y-41269D02*
X59065Y-41348D01*
X59025Y-41309D02*
X59104Y-41309D01*
X59075Y-41072D02*
X59075Y-41151D01*
X59035Y-41112D02*
X59114Y-41112D01*
X47718Y-35596D02*
X47718Y-35513D01*
X47635Y-35513D01*
X47635Y-35596D01*
X47718Y-35596D01*
X48165Y-35911D02*
X48165Y-35828D01*
X48082Y-35828D01*
X48082Y-35911D01*
X48165Y-35911D01*
X48165Y-36186D02*
X48165Y-36104D01*
X48082Y-36104D01*
X48082Y-36186D01*
X48165Y-36186D01*
X48165Y-36462D02*
X48165Y-36379D01*
X48082Y-36379D01*
X48082Y-36462D01*
X48165Y-36462D01*
X48191Y-39120D02*
X48191Y-39037D01*
X48108Y-39037D01*
X48108Y-39120D01*
X48191Y-39120D01*
X48199Y-36758D02*
X48199Y-36675D01*
X48116Y-36675D01*
X48116Y-36758D01*
X48199Y-36758D01*
X48230Y-41478D02*
X48230Y-41395D01*
X48147Y-41395D01*
X48147Y-41478D01*
X48230Y-41478D01*
X49031Y-35871D02*
X49031Y-35789D01*
X48949Y-35789D01*
X48949Y-35871D01*
X49031Y-35871D01*
X49031Y-36147D02*
X49031Y-36064D01*
X48949Y-36064D01*
X48949Y-36147D01*
X49031Y-36147D01*
X49031Y-36442D02*
X49031Y-36359D01*
X48949Y-36359D01*
X48949Y-36442D01*
X49031Y-36442D01*
X49490Y-33600D02*
X49490Y-33517D01*
X49407Y-33517D01*
X49407Y-33600D01*
X49490Y-33600D01*
X49675Y-33836D02*
X49675Y-33753D01*
X49592Y-33753D01*
X49592Y-33836D01*
X49675Y-33836D01*
X50962Y-43840D02*
X50962Y-43757D01*
X50879Y-43757D01*
X50879Y-43840D01*
X50962Y-43840D01*
X51210Y-34285D02*
X51210Y-34202D01*
X51127Y-34202D01*
X51127Y-34285D01*
X51210Y-34285D01*
X51377Y-47912D02*
X51377Y-47829D01*
X51295Y-47829D01*
X51295Y-47912D01*
X51377Y-47912D01*
X51377Y-49132D02*
X51377Y-49050D01*
X51295Y-49050D01*
X51295Y-49132D01*
X51377Y-49132D01*
X51417Y-47321D02*
X51417Y-47239D01*
X51334Y-47239D01*
X51334Y-47321D01*
X51417Y-47321D01*
X51417Y-48542D02*
X51417Y-48459D01*
X51334Y-48459D01*
X51334Y-48542D01*
X51417Y-48542D01*
X51535Y-48227D02*
X51535Y-48144D01*
X51452Y-48144D01*
X51452Y-48227D01*
X51535Y-48227D01*
X51574Y-47636D02*
X51574Y-47554D01*
X51492Y-47554D01*
X51492Y-47636D01*
X51574Y-47636D01*
X51574Y-48857D02*
X51574Y-48774D01*
X51492Y-48774D01*
X51492Y-48857D01*
X51574Y-48857D01*
X51692Y-47912D02*
X51692Y-47829D01*
X51610Y-47829D01*
X51610Y-47912D01*
X51692Y-47912D01*
X51692Y-49132D02*
X51692Y-49050D01*
X51610Y-49050D01*
X51610Y-49132D01*
X51692Y-49132D01*
X51732Y-47321D02*
X51732Y-47239D01*
X51649Y-47239D01*
X51649Y-47321D01*
X51732Y-47321D01*
X51732Y-48542D02*
X51732Y-48459D01*
X51649Y-48459D01*
X51649Y-48542D01*
X51732Y-48542D01*
X51850Y-48227D02*
X51850Y-48144D01*
X51767Y-48144D01*
X51767Y-48227D01*
X51850Y-48227D01*
X51889Y-47636D02*
X51889Y-47554D01*
X51807Y-47554D01*
X51807Y-47636D01*
X51889Y-47636D01*
X51889Y-48857D02*
X51889Y-48774D01*
X51807Y-48774D01*
X51807Y-48857D01*
X51889Y-48857D01*
X52007Y-47912D02*
X52007Y-47829D01*
X51925Y-47829D01*
X51925Y-47912D01*
X52007Y-47912D01*
X52007Y-49132D02*
X52007Y-49050D01*
X51925Y-49050D01*
X51925Y-49132D01*
X52007Y-49132D01*
X52047Y-47321D02*
X52047Y-47239D01*
X51964Y-47239D01*
X51964Y-47321D01*
X52047Y-47321D01*
X52047Y-48542D02*
X52047Y-48459D01*
X51964Y-48459D01*
X51964Y-48542D01*
X52047Y-48542D01*
X52165Y-48227D02*
X52165Y-48144D01*
X52082Y-48144D01*
X52082Y-48227D01*
X52165Y-48227D01*
X52204Y-47636D02*
X52204Y-47554D01*
X52121Y-47554D01*
X52121Y-47636D01*
X52204Y-47636D01*
X52204Y-48857D02*
X52204Y-48774D01*
X52121Y-48774D01*
X52121Y-48857D01*
X52204Y-48857D01*
X52322Y-47912D02*
X52322Y-47829D01*
X52240Y-47829D01*
X52240Y-47912D01*
X52322Y-47912D01*
X52322Y-49132D02*
X52322Y-49050D01*
X52240Y-49050D01*
X52240Y-49132D01*
X52322Y-49132D01*
X52362Y-47321D02*
X52362Y-47239D01*
X52279Y-47239D01*
X52279Y-47321D01*
X52362Y-47321D01*
X52362Y-48542D02*
X52362Y-48459D01*
X52279Y-48459D01*
X52279Y-48542D01*
X52362Y-48542D01*
X52480Y-48227D02*
X52480Y-48144D01*
X52397Y-48144D01*
X52397Y-48227D01*
X52480Y-48227D01*
X52519Y-47636D02*
X52519Y-47554D01*
X52436Y-47554D01*
X52436Y-47636D01*
X52519Y-47636D01*
X52519Y-48857D02*
X52519Y-48774D01*
X52436Y-48774D01*
X52436Y-48857D01*
X52519Y-48857D01*
X52604Y-36210D02*
X52604Y-36127D01*
X52521Y-36127D01*
X52521Y-36210D01*
X52604Y-36210D01*
X52637Y-47912D02*
X52637Y-47829D01*
X52555Y-47829D01*
X52555Y-47912D01*
X52637Y-47912D01*
X52637Y-49132D02*
X52637Y-49050D01*
X52555Y-49050D01*
X52555Y-49132D01*
X52637Y-49132D01*
X52677Y-47321D02*
X52677Y-47239D01*
X52594Y-47239D01*
X52594Y-47321D01*
X52677Y-47321D01*
X52677Y-48542D02*
X52677Y-48459D01*
X52594Y-48459D01*
X52594Y-48542D01*
X52677Y-48542D01*
X52687Y-37549D02*
X52687Y-37466D01*
X52604Y-37466D01*
X52604Y-37549D01*
X52687Y-37549D01*
X52690Y-36683D02*
X52690Y-36600D01*
X52608Y-36600D01*
X52608Y-36683D01*
X52690Y-36683D01*
X52795Y-48227D02*
X52795Y-48144D01*
X52712Y-48144D01*
X52712Y-48227D01*
X52795Y-48227D01*
X52834Y-47636D02*
X52834Y-47554D01*
X52751Y-47554D01*
X52751Y-47636D01*
X52834Y-47636D01*
X52834Y-48857D02*
X52834Y-48774D01*
X52751Y-48774D01*
X52751Y-48857D01*
X52834Y-48857D01*
X52952Y-47912D02*
X52952Y-47829D01*
X52870Y-47829D01*
X52870Y-47912D01*
X52952Y-47912D01*
X52952Y-49132D02*
X52952Y-49050D01*
X52870Y-49050D01*
X52870Y-49132D01*
X52952Y-49132D01*
X52992Y-47321D02*
X52992Y-47239D01*
X52909Y-47239D01*
X52909Y-47321D01*
X52992Y-47321D01*
X52992Y-48542D02*
X52992Y-48459D01*
X52909Y-48459D01*
X52909Y-48542D01*
X52992Y-48542D01*
X53110Y-48227D02*
X53110Y-48144D01*
X53027Y-48144D01*
X53027Y-48227D01*
X53110Y-48227D01*
X53149Y-47636D02*
X53149Y-47554D01*
X53066Y-47554D01*
X53066Y-47636D01*
X53149Y-47636D01*
X53149Y-48857D02*
X53149Y-48774D01*
X53066Y-48774D01*
X53066Y-48857D01*
X53149Y-48857D01*
X54262Y-34482D02*
X54262Y-34399D01*
X54179Y-34399D01*
X54179Y-34482D01*
X54262Y-34482D01*
X55242Y-45927D02*
X55242Y-45844D01*
X55159Y-45844D01*
X55159Y-45927D01*
X55242Y-45927D01*
X55828Y-47283D02*
X55828Y-47200D01*
X55746Y-47200D01*
X55746Y-47283D01*
X55828Y-47283D01*
X55828Y-47717D02*
X55828Y-47634D01*
X55746Y-47634D01*
X55746Y-47717D01*
X55828Y-47717D01*
X55828Y-48150D02*
X55828Y-48067D01*
X55746Y-48067D01*
X55746Y-48150D01*
X55828Y-48150D01*
X55864Y-45486D02*
X55864Y-45403D01*
X55781Y-45403D01*
X55781Y-45486D01*
X55864Y-45486D01*
X55872Y-43265D02*
X55872Y-43183D01*
X55789Y-43183D01*
X55789Y-43265D01*
X55872Y-43265D01*
X56033Y-45907D02*
X56033Y-45824D01*
X55950Y-45824D01*
X55950Y-45907D01*
X56033Y-45907D01*
X56143Y-44016D02*
X56143Y-43933D01*
X56060Y-43933D01*
X56060Y-44016D01*
X56143Y-44016D01*
X56261Y-47284D02*
X56261Y-47201D01*
X56179Y-47201D01*
X56179Y-47284D01*
X56261Y-47284D01*
X56261Y-47717D02*
X56261Y-47634D01*
X56179Y-47634D01*
X56179Y-47717D01*
X56261Y-47717D01*
X56419Y-44016D02*
X56419Y-43933D01*
X56336Y-43933D01*
X56336Y-44016D01*
X56419Y-44016D01*
X61635Y-38124D02*
X61635Y-38041D01*
X61552Y-38041D01*
X61552Y-38124D01*
X61635Y-38124D01*
X61769Y-40687D02*
X61769Y-40604D01*
X61686Y-40604D01*
X61686Y-40687D01*
X61769Y-40687D01*
X61862Y-42059D02*
X61862Y-41976D01*
X61779Y-41976D01*
X61779Y-42059D01*
X61862Y-42059D01*
X62077Y-39541D02*
X62077Y-39458D01*
X61994Y-39458D01*
X61994Y-39541D01*
X62077Y-39541D01*
X62080Y-39844D02*
X62080Y-39761D01*
X61997Y-39761D01*
X61997Y-39844D01*
X62080Y-39844D01*
X55579Y-35189D02*
X55638Y-35130D01*
X55579Y-35071D01*
X55520Y-35130D01*
X55579Y-35189D01*
X56091Y-35437D02*
X56150Y-35378D01*
X56091Y-35319D01*
X56032Y-35378D01*
X56091Y-35437D01*
X45830Y-34453D02*
X46184Y-34807D01*
X46184Y-34453D02*
X45830Y-34807D01*
X46184Y-34630D02*
G75*
G03X46184Y-34630I-177J0D01*
G74*
G01*
X45830Y-34886D02*
X46184Y-35240D01*
X46184Y-34886D02*
X45830Y-35240D01*
X46184Y-35063D02*
G75*
G03X46184Y-35063I-177J0D01*
G74*
G01*
X45830Y-35319D02*
X46184Y-35673D01*
X46184Y-35319D02*
X45830Y-35673D01*
X46184Y-35496D02*
G75*
G03X46184Y-35496I-177J0D01*
G74*
G01*
X45830Y-43292D02*
X46184Y-43646D01*
X46184Y-43292D02*
X45830Y-43646D01*
X46184Y-43469D02*
G75*
G03X46184Y-43469I-177J0D01*
G74*
G01*
X45830Y-43725D02*
X46184Y-44079D01*
X46184Y-43725D02*
X45830Y-44079D01*
X46184Y-43902D02*
G75*
G03X46184Y-43902I-177J0D01*
G74*
G01*
X45830Y-44158D02*
X46184Y-44512D01*
X46184Y-44158D02*
X45830Y-44512D01*
X46184Y-44335D02*
G75*
G03X46184Y-44335I-177J0D01*
G74*
G01*
X46595Y-44644D02*
X46949Y-44998D01*
X46949Y-44644D02*
X46595Y-44998D01*
X46949Y-44821D02*
G75*
G03X46949Y-44821I-177J0D01*
G74*
G01*
X46595Y-45644D02*
X46949Y-45998D01*
X46949Y-45644D02*
X46595Y-45998D01*
X46949Y-45821D02*
G75*
G03X46949Y-45821I-177J0D01*
G74*
G01*
X51850Y-32814D02*
X52204Y-33168D01*
X52204Y-32814D02*
X51850Y-33168D01*
X52204Y-32991D02*
G75*
G03X52204Y-32991I-177J0D01*
G74*
G01*
X52850Y-32834D02*
X53204Y-33188D01*
X53204Y-32834D02*
X52850Y-33188D01*
X53204Y-33011D02*
G75*
G03X53204Y-33011I-177J0D01*
G74*
G01*
X53850Y-32834D02*
X54204Y-33188D01*
X54204Y-32834D02*
X53850Y-33188D01*
X54204Y-33011D02*
G75*
G03X54204Y-33011I-177J0D01*
G74*
G01*
X54850Y-32834D02*
X55204Y-33188D01*
X55204Y-32834D02*
X54850Y-33188D01*
X55204Y-33011D02*
G75*
G03X55204Y-33011I-177J0D01*
G74*
G01*
X55850Y-32834D02*
X56204Y-33188D01*
X56204Y-32834D02*
X55850Y-33188D01*
X56204Y-33011D02*
G75*
G03X56204Y-33011I-177J0D01*
G74*
G01*
X56248Y-32224D02*
X56602Y-32578D01*
X56602Y-32224D02*
X56248Y-32578D01*
X56602Y-32401D02*
G75*
G03X56602Y-32401I-177J0D01*
G74*
G01*
X56249Y-49591D02*
X56603Y-49945D01*
X56603Y-49591D02*
X56249Y-49945D01*
X56603Y-49768D02*
G75*
G03X56603Y-49768I-177J0D01*
G74*
G01*
X56681Y-32224D02*
X57035Y-32578D01*
X57035Y-32224D02*
X56681Y-32578D01*
X57035Y-32401D02*
G75*
G03X57035Y-32401I-177J0D01*
G74*
G01*
X56682Y-49591D02*
X57036Y-49945D01*
X57036Y-49591D02*
X56682Y-49945D01*
X57036Y-49768D02*
G75*
G03X57036Y-49768I-177J0D01*
G74*
G01*
X56850Y-32834D02*
X57204Y-33188D01*
X57204Y-32834D02*
X56850Y-33188D01*
X57204Y-33011D02*
G75*
G03X57204Y-33011I-177J0D01*
G74*
G01*
X57114Y-32224D02*
X57468Y-32578D01*
X57468Y-32224D02*
X57114Y-32578D01*
X57468Y-32401D02*
G75*
G03X57468Y-32401I-177J0D01*
G74*
G01*
X57115Y-49591D02*
X57469Y-49945D01*
X57469Y-49591D02*
X57115Y-49945D01*
X57469Y-49768D02*
G75*
G03X57469Y-49768I-177J0D01*
G74*
G01*
X57548Y-32224D02*
X57902Y-32578D01*
X57902Y-32224D02*
X57548Y-32578D01*
X57902Y-32401D02*
G75*
G03X57902Y-32401I-177J0D01*
G74*
G01*
X57549Y-49591D02*
X57903Y-49945D01*
X57903Y-49591D02*
X57549Y-49945D01*
X57903Y-49768D02*
G75*
G03X57903Y-49768I-177J0D01*
G74*
G01*
X59689Y-49015D02*
X60043Y-49369D01*
X60043Y-49015D02*
X59689Y-49369D01*
X60043Y-49192D02*
G75*
G03X60043Y-49192I-177J0D01*
G74*
G01*
X59701Y-47464D02*
X60055Y-47818D01*
X60055Y-47464D02*
X59701Y-47818D01*
X60055Y-47641D02*
G75*
G03X60055Y-47641I-177J0D01*
G74*
G01*
X60689Y-49035D02*
X61043Y-49389D01*
X61043Y-49035D02*
X60689Y-49389D01*
X61043Y-49212D02*
G75*
G03X61043Y-49212I-177J0D01*
G74*
G01*
X60701Y-47464D02*
X61055Y-47818D01*
X61055Y-47464D02*
X60701Y-47818D01*
X61055Y-47641D02*
G75*
G03X61055Y-47641I-177J0D01*
G74*
G01*
X61689Y-49035D02*
X62043Y-49389D01*
X62043Y-49035D02*
X61689Y-49389D01*
X62043Y-49212D02*
G75*
G03X62043Y-49212I-177J0D01*
G74*
G01*
X61701Y-47464D02*
X62055Y-47818D01*
X62055Y-47464D02*
X61701Y-47818D01*
X62055Y-47641D02*
G75*
G03X62055Y-47641I-177J0D01*
G74*
G01*
X62689Y-49035D02*
X63043Y-49389D01*
X63043Y-49035D02*
X62689Y-49389D01*
X63043Y-49212D02*
G75*
G03X63043Y-49212I-177J0D01*
G74*
G01*
X62701Y-47464D02*
X63055Y-47818D01*
X63055Y-47464D02*
X62701Y-47818D01*
X63055Y-47641D02*
G75*
G03X63055Y-47641I-177J0D01*
G74*
G01*
X63689Y-49035D02*
X64043Y-49389D01*
X64043Y-49035D02*
X63689Y-49389D01*
X64043Y-49212D02*
G75*
G03X64043Y-49212I-177J0D01*
G74*
G01*
X63701Y-47484D02*
X64055Y-47838D01*
X64055Y-47484D02*
X63701Y-47838D01*
X64055Y-47661D02*
G75*
G03X64055Y-47661I-177J0D01*
G74*
G01*
X64728Y-39394D02*
X65082Y-39748D01*
X65082Y-39394D02*
X64728Y-39748D01*
X65082Y-39571D02*
G75*
G03X65082Y-39571I-177J0D01*
G74*
G01*
X64728Y-39827D02*
X65082Y-40181D01*
X65082Y-39827D02*
X64728Y-40181D01*
X65082Y-40004D02*
G75*
G03X65082Y-40004I-177J0D01*
G74*
G01*
X64728Y-40260D02*
X65082Y-40614D01*
X65082Y-40260D02*
X64728Y-40614D01*
X65082Y-40437D02*
G75*
G03X65082Y-40437I-177J0D01*
G74*
G01*
X64728Y-40693D02*
X65082Y-41047D01*
X65082Y-40693D02*
X64728Y-41047D01*
X65082Y-40870D02*
G75*
G03X65082Y-40870I-177J0D01*
G74*
G01*
X49338Y-34846D02*
X49770Y-35278D01*
X49770Y-34846D02*
X49338Y-35278D01*
X49554Y-34846D02*
X49554Y-35278D01*
X49338Y-35062D02*
X49770Y-35062D01*
X49338Y-45238D02*
X49770Y-45670D01*
X49770Y-45238D02*
X49338Y-45670D01*
X49554Y-45238D02*
X49554Y-45670D01*
X49338Y-45454D02*
X49770Y-45454D01*
X46618Y-30629D02*
X47759Y-31771D01*
X47759Y-30629D02*
X46618Y-31771D01*
X47592Y-31604D02*
X47592Y-30797D01*
X46785Y-30797D01*
X46785Y-31604D01*
X47592Y-31604D01*
X46618Y-47952D02*
X47759Y-49094D01*
X47759Y-47952D02*
X46618Y-49094D01*
X47592Y-48927D02*
X47592Y-48119D01*
X46785Y-48119D01*
X46785Y-48927D01*
X47592Y-48927D01*
X57259Y-47952D02*
X58401Y-49094D01*
X58401Y-47952D02*
X57259Y-49094D01*
X58234Y-48927D02*
X58234Y-48119D01*
X57427Y-48119D01*
X57427Y-48927D01*
X58234Y-48927D01*
G54D13*
X42313Y-54298D02*
X42313Y-53117D01*
X42594Y-53117D01*
X42763Y-53173D01*
X42876Y-53286D01*
X42932Y-53398D01*
X42988Y-53623D01*
X42988Y-53792D01*
X42932Y-54017D01*
X42876Y-54130D01*
X42763Y-54242D01*
X42594Y-54298D01*
X42313Y-54298D01*
X43494Y-54298D02*
X43494Y-53511D01*
X43494Y-53736D02*
X43550Y-53623D01*
X43607Y-53567D01*
X43719Y-53511D01*
X43832Y-53511D01*
X44225Y-54298D02*
X44225Y-53511D01*
X44225Y-53117D02*
X44169Y-53173D01*
X44225Y-53230D01*
X44282Y-53173D01*
X44225Y-53117D01*
X44225Y-53230D01*
X44957Y-54298D02*
X44844Y-54242D01*
X44788Y-54130D01*
X44788Y-53117D01*
X45575Y-54298D02*
X45463Y-54242D01*
X45406Y-54130D01*
X45406Y-53117D01*
X46925Y-54298D02*
X46925Y-53117D01*
X47319Y-53961D01*
X47712Y-53117D01*
X47712Y-54298D01*
X48781Y-54298D02*
X48781Y-53680D01*
X48725Y-53567D01*
X48612Y-53511D01*
X48387Y-53511D01*
X48275Y-53567D01*
X48781Y-54242D02*
X48669Y-54298D01*
X48387Y-54298D01*
X48275Y-54242D01*
X48219Y-54130D01*
X48219Y-54017D01*
X48275Y-53905D01*
X48387Y-53848D01*
X48669Y-53848D01*
X48781Y-53792D01*
X49343Y-53511D02*
X49343Y-54692D01*
X49343Y-53567D02*
X49456Y-53511D01*
X49681Y-53511D01*
X49793Y-53567D01*
X49850Y-53623D01*
X49906Y-53736D01*
X49906Y-54073D01*
X49850Y-54186D01*
X49793Y-54242D01*
X49681Y-54298D01*
X49456Y-54298D01*
X49343Y-54242D01*
X50412Y-54186D02*
X50468Y-54242D01*
X50412Y-54298D01*
X50356Y-54242D01*
X50412Y-54186D01*
X50412Y-54298D01*
X50412Y-53567D02*
X50468Y-53623D01*
X50412Y-53680D01*
X50356Y-53623D01*
X50412Y-53567D01*
X50412Y-53680D01*
X41167Y-56262D02*
X41244Y-56339D01*
X41244Y-56262D02*
X41167Y-56339D01*
X42538Y-55597D02*
X42651Y-55597D01*
X42763Y-55654D01*
X42819Y-55710D01*
X42876Y-55822D01*
X42932Y-56047D01*
X42932Y-56329D01*
X42876Y-56554D01*
X42819Y-56666D01*
X42763Y-56722D01*
X42651Y-56779D01*
X42538Y-56779D01*
X42426Y-56722D01*
X42369Y-56666D01*
X42313Y-56554D01*
X42257Y-56329D01*
X42257Y-56047D01*
X42313Y-55822D01*
X42369Y-55710D01*
X42426Y-55654D01*
X42538Y-55597D01*
X43438Y-56666D02*
X43494Y-56722D01*
X43438Y-56779D01*
X43382Y-56722D01*
X43438Y-56666D01*
X43438Y-56779D01*
X43944Y-55710D02*
X44000Y-55654D01*
X44113Y-55597D01*
X44394Y-55597D01*
X44507Y-55654D01*
X44563Y-55710D01*
X44619Y-55822D01*
X44619Y-55935D01*
X44563Y-56104D01*
X43888Y-56779D01*
X44619Y-56779D01*
X45350Y-55597D02*
X45463Y-55597D01*
X45575Y-55654D01*
X45631Y-55710D01*
X45688Y-55822D01*
X45744Y-56047D01*
X45744Y-56329D01*
X45688Y-56554D01*
X45631Y-56666D01*
X45575Y-56722D01*
X45463Y-56779D01*
X45350Y-56779D01*
X45238Y-56722D01*
X45181Y-56666D01*
X45125Y-56554D01*
X45069Y-56329D01*
X45069Y-56047D01*
X45125Y-55822D01*
X45181Y-55710D01*
X45238Y-55654D01*
X45350Y-55597D01*
X46250Y-56779D02*
X46250Y-55991D01*
X46250Y-56104D02*
X46306Y-56047D01*
X46419Y-55991D01*
X46588Y-55991D01*
X46700Y-56047D01*
X46756Y-56160D01*
X46756Y-56779D01*
X46756Y-56160D02*
X46813Y-56047D01*
X46925Y-55991D01*
X47094Y-55991D01*
X47206Y-56047D01*
X47262Y-56160D01*
X47262Y-56779D01*
X47825Y-56779D02*
X47825Y-55991D01*
X47825Y-56104D02*
X47881Y-56047D01*
X47994Y-55991D01*
X48162Y-55991D01*
X48275Y-56047D01*
X48331Y-56160D01*
X48331Y-56779D01*
X48331Y-56160D02*
X48387Y-56047D01*
X48500Y-55991D01*
X48669Y-55991D01*
X48781Y-56047D01*
X48837Y-56160D01*
X48837Y-56779D01*
X51143Y-55541D02*
X50131Y-57060D01*
X52662Y-55597D02*
X52774Y-55597D01*
X52887Y-55654D01*
X52943Y-55710D01*
X52999Y-55822D01*
X53055Y-56047D01*
X53055Y-56329D01*
X52999Y-56554D01*
X52943Y-56666D01*
X52887Y-56722D01*
X52774Y-56779D01*
X52662Y-56779D01*
X52549Y-56722D01*
X52493Y-56666D01*
X52437Y-56554D01*
X52381Y-56329D01*
X52381Y-56047D01*
X52437Y-55822D01*
X52493Y-55710D01*
X52549Y-55654D01*
X52662Y-55597D01*
X53562Y-56666D02*
X53618Y-56722D01*
X53562Y-56779D01*
X53505Y-56722D01*
X53562Y-56666D01*
X53562Y-56779D01*
X54349Y-55597D02*
X54462Y-55597D01*
X54574Y-55654D01*
X54630Y-55710D01*
X54687Y-55822D01*
X54743Y-56047D01*
X54743Y-56329D01*
X54687Y-56554D01*
X54630Y-56666D01*
X54574Y-56722D01*
X54462Y-56779D01*
X54349Y-56779D01*
X54237Y-56722D01*
X54180Y-56666D01*
X54124Y-56554D01*
X54068Y-56329D01*
X54068Y-56047D01*
X54124Y-55822D01*
X54180Y-55710D01*
X54237Y-55654D01*
X54349Y-55597D01*
X55474Y-55597D02*
X55586Y-55597D01*
X55699Y-55654D01*
X55755Y-55710D01*
X55811Y-55822D01*
X55868Y-56047D01*
X55868Y-56329D01*
X55811Y-56554D01*
X55755Y-56666D01*
X55699Y-56722D01*
X55586Y-56779D01*
X55474Y-56779D01*
X55361Y-56722D01*
X55305Y-56666D01*
X55249Y-56554D01*
X55193Y-56329D01*
X55193Y-56047D01*
X55249Y-55822D01*
X55305Y-55710D01*
X55361Y-55654D01*
X55474Y-55597D01*
X56543Y-56104D02*
X56430Y-56047D01*
X56374Y-55991D01*
X56318Y-55879D01*
X56318Y-55822D01*
X56374Y-55710D01*
X56430Y-55654D01*
X56543Y-55597D01*
X56768Y-55597D01*
X56880Y-55654D01*
X56936Y-55710D01*
X56992Y-55822D01*
X56992Y-55879D01*
X56936Y-55991D01*
X56880Y-56047D01*
X56768Y-56104D01*
X56543Y-56104D01*
X56430Y-56160D01*
X56374Y-56216D01*
X56318Y-56329D01*
X56318Y-56554D01*
X56374Y-56666D01*
X56430Y-56722D01*
X56543Y-56779D01*
X56768Y-56779D01*
X56880Y-56722D01*
X56936Y-56666D01*
X56992Y-56554D01*
X56992Y-56329D01*
X56936Y-56216D01*
X56880Y-56160D01*
X56768Y-56104D01*
X57442Y-55597D02*
X57442Y-55822D01*
X57892Y-55597D02*
X57892Y-55822D01*
X59636Y-57229D02*
X59580Y-57172D01*
X59467Y-57004D01*
X59411Y-56891D01*
X59355Y-56722D01*
X59298Y-56441D01*
X59298Y-56216D01*
X59355Y-55935D01*
X59411Y-55766D01*
X59467Y-55654D01*
X59580Y-55485D01*
X59636Y-55429D01*
X60648Y-55597D02*
X60086Y-55597D01*
X60030Y-56160D01*
X60086Y-56104D01*
X60198Y-56047D01*
X60480Y-56047D01*
X60592Y-56104D01*
X60648Y-56160D01*
X60705Y-56272D01*
X60705Y-56554D01*
X60648Y-56666D01*
X60592Y-56722D01*
X60480Y-56779D01*
X60198Y-56779D01*
X60086Y-56722D01*
X60030Y-56666D01*
X61098Y-55597D02*
X61886Y-55597D01*
X61379Y-56779D01*
X62842Y-55597D02*
X62617Y-55597D01*
X62504Y-55654D01*
X62448Y-55710D01*
X62336Y-55879D01*
X62279Y-56104D01*
X62279Y-56554D01*
X62336Y-56666D01*
X62392Y-56722D01*
X62504Y-56779D01*
X62729Y-56779D01*
X62842Y-56722D01*
X62898Y-56666D01*
X62954Y-56554D01*
X62954Y-56272D01*
X62898Y-56160D01*
X62842Y-56104D01*
X62729Y-56047D01*
X62504Y-56047D01*
X62392Y-56104D01*
X62336Y-56160D01*
X62279Y-56272D01*
X64360Y-56779D02*
X64360Y-55597D01*
X64867Y-56779D02*
X64867Y-56160D01*
X64810Y-56047D01*
X64698Y-55991D01*
X64529Y-55991D01*
X64417Y-56047D01*
X64360Y-56104D01*
X65598Y-56779D02*
X65485Y-56722D01*
X65429Y-56666D01*
X65373Y-56554D01*
X65373Y-56216D01*
X65429Y-56104D01*
X65485Y-56047D01*
X65598Y-55991D01*
X65766Y-55991D01*
X65879Y-56047D01*
X65935Y-56104D01*
X65991Y-56216D01*
X65991Y-56554D01*
X65935Y-56666D01*
X65879Y-56722D01*
X65766Y-56779D01*
X65598Y-56779D01*
X66666Y-56779D02*
X66554Y-56722D01*
X66498Y-56610D01*
X66498Y-55597D01*
X67566Y-56722D02*
X67454Y-56779D01*
X67229Y-56779D01*
X67116Y-56722D01*
X67060Y-56610D01*
X67060Y-56160D01*
X67116Y-56047D01*
X67229Y-55991D01*
X67454Y-55991D01*
X67566Y-56047D01*
X67622Y-56160D01*
X67622Y-56272D01*
X67060Y-56385D01*
X68072Y-56722D02*
X68185Y-56779D01*
X68410Y-56779D01*
X68522Y-56722D01*
X68579Y-56610D01*
X68579Y-56554D01*
X68522Y-56441D01*
X68410Y-56385D01*
X68241Y-56385D01*
X68129Y-56329D01*
X68072Y-56216D01*
X68072Y-56160D01*
X68129Y-56047D01*
X68241Y-55991D01*
X68410Y-55991D01*
X68522Y-56047D01*
X68972Y-57229D02*
X69028Y-57172D01*
X69141Y-57004D01*
X69197Y-56891D01*
X69253Y-56722D01*
X69310Y-56441D01*
X69310Y-56216D01*
X69253Y-55935D01*
X69197Y-55766D01*
X69141Y-55654D01*
X69028Y-55485D01*
X68972Y-55429D01*
G54D12*
X41244Y-57860D02*
G75*
G03X41244Y-57860I-39J0D01*
G74*
G01*
G54D13*
X42538Y-57157D02*
X42651Y-57157D01*
X42763Y-57213D01*
X42819Y-57269D01*
X42876Y-57382D01*
X42932Y-57606D01*
X42932Y-57888D01*
X42876Y-58113D01*
X42819Y-58225D01*
X42763Y-58281D01*
X42651Y-58338D01*
X42538Y-58338D01*
X42426Y-58281D01*
X42369Y-58225D01*
X42313Y-58113D01*
X42257Y-57888D01*
X42257Y-57606D01*
X42313Y-57382D01*
X42369Y-57269D01*
X42426Y-57213D01*
X42538Y-57157D01*
X43438Y-58225D02*
X43494Y-58281D01*
X43438Y-58338D01*
X43382Y-58281D01*
X43438Y-58225D01*
X43438Y-58338D01*
X43944Y-57269D02*
X44000Y-57213D01*
X44113Y-57157D01*
X44394Y-57157D01*
X44507Y-57213D01*
X44563Y-57269D01*
X44619Y-57382D01*
X44619Y-57494D01*
X44563Y-57663D01*
X43888Y-58338D01*
X44619Y-58338D01*
X45350Y-57157D02*
X45463Y-57157D01*
X45575Y-57213D01*
X45631Y-57269D01*
X45688Y-57382D01*
X45744Y-57606D01*
X45744Y-57888D01*
X45688Y-58113D01*
X45631Y-58225D01*
X45575Y-58281D01*
X45463Y-58338D01*
X45350Y-58338D01*
X45238Y-58281D01*
X45181Y-58225D01*
X45125Y-58113D01*
X45069Y-57888D01*
X45069Y-57606D01*
X45125Y-57382D01*
X45181Y-57269D01*
X45238Y-57213D01*
X45350Y-57157D01*
X46250Y-58338D02*
X46250Y-57550D01*
X46250Y-57663D02*
X46306Y-57606D01*
X46419Y-57550D01*
X46588Y-57550D01*
X46700Y-57606D01*
X46756Y-57719D01*
X46756Y-58338D01*
X46756Y-57719D02*
X46813Y-57606D01*
X46925Y-57550D01*
X47094Y-57550D01*
X47206Y-57606D01*
X47262Y-57719D01*
X47262Y-58338D01*
X47825Y-58338D02*
X47825Y-57550D01*
X47825Y-57663D02*
X47881Y-57606D01*
X47994Y-57550D01*
X48162Y-57550D01*
X48275Y-57606D01*
X48331Y-57719D01*
X48331Y-58338D01*
X48331Y-57719D02*
X48387Y-57606D01*
X48500Y-57550D01*
X48669Y-57550D01*
X48781Y-57606D01*
X48837Y-57719D01*
X48837Y-58338D01*
X51143Y-57100D02*
X50131Y-58619D01*
X52662Y-57157D02*
X52774Y-57157D01*
X52887Y-57213D01*
X52943Y-57269D01*
X52999Y-57382D01*
X53055Y-57606D01*
X53055Y-57888D01*
X52999Y-58113D01*
X52943Y-58225D01*
X52887Y-58281D01*
X52774Y-58338D01*
X52662Y-58338D01*
X52549Y-58281D01*
X52493Y-58225D01*
X52437Y-58113D01*
X52381Y-57888D01*
X52381Y-57606D01*
X52437Y-57382D01*
X52493Y-57269D01*
X52549Y-57213D01*
X52662Y-57157D01*
X53562Y-58225D02*
X53618Y-58281D01*
X53562Y-58338D01*
X53505Y-58281D01*
X53562Y-58225D01*
X53562Y-58338D01*
X54349Y-57157D02*
X54462Y-57157D01*
X54574Y-57213D01*
X54630Y-57269D01*
X54687Y-57382D01*
X54743Y-57606D01*
X54743Y-57888D01*
X54687Y-58113D01*
X54630Y-58225D01*
X54574Y-58281D01*
X54462Y-58338D01*
X54349Y-58338D01*
X54237Y-58281D01*
X54180Y-58225D01*
X54124Y-58113D01*
X54068Y-57888D01*
X54068Y-57606D01*
X54124Y-57382D01*
X54180Y-57269D01*
X54237Y-57213D01*
X54349Y-57157D01*
X55474Y-57157D02*
X55586Y-57157D01*
X55699Y-57213D01*
X55755Y-57269D01*
X55811Y-57382D01*
X55868Y-57606D01*
X55868Y-57888D01*
X55811Y-58113D01*
X55755Y-58225D01*
X55699Y-58281D01*
X55586Y-58338D01*
X55474Y-58338D01*
X55361Y-58281D01*
X55305Y-58225D01*
X55249Y-58113D01*
X55193Y-57888D01*
X55193Y-57606D01*
X55249Y-57382D01*
X55305Y-57269D01*
X55361Y-57213D01*
X55474Y-57157D01*
X56543Y-57663D02*
X56430Y-57606D01*
X56374Y-57550D01*
X56318Y-57438D01*
X56318Y-57382D01*
X56374Y-57269D01*
X56430Y-57213D01*
X56543Y-57157D01*
X56768Y-57157D01*
X56880Y-57213D01*
X56936Y-57269D01*
X56992Y-57382D01*
X56992Y-57438D01*
X56936Y-57550D01*
X56880Y-57606D01*
X56768Y-57663D01*
X56543Y-57663D01*
X56430Y-57719D01*
X56374Y-57775D01*
X56318Y-57888D01*
X56318Y-58113D01*
X56374Y-58225D01*
X56430Y-58281D01*
X56543Y-58338D01*
X56768Y-58338D01*
X56880Y-58281D01*
X56936Y-58225D01*
X56992Y-58113D01*
X56992Y-57888D01*
X56936Y-57775D01*
X56880Y-57719D01*
X56768Y-57663D01*
X57442Y-57157D02*
X57442Y-57382D01*
X57892Y-57157D02*
X57892Y-57382D01*
X59636Y-58788D02*
X59580Y-58731D01*
X59467Y-58563D01*
X59411Y-58450D01*
X59355Y-58281D01*
X59298Y-58000D01*
X59298Y-57775D01*
X59355Y-57494D01*
X59411Y-57325D01*
X59467Y-57213D01*
X59580Y-57044D01*
X59636Y-56988D01*
X59973Y-57157D02*
X60761Y-57157D01*
X60255Y-58338D01*
X62111Y-58338D02*
X62111Y-57157D01*
X62617Y-58338D02*
X62617Y-57719D01*
X62561Y-57606D01*
X62448Y-57550D01*
X62279Y-57550D01*
X62167Y-57606D01*
X62111Y-57663D01*
X63348Y-58338D02*
X63235Y-58281D01*
X63179Y-58225D01*
X63123Y-58113D01*
X63123Y-57775D01*
X63179Y-57663D01*
X63235Y-57606D01*
X63348Y-57550D01*
X63517Y-57550D01*
X63629Y-57606D01*
X63685Y-57663D01*
X63742Y-57775D01*
X63742Y-58113D01*
X63685Y-58225D01*
X63629Y-58281D01*
X63517Y-58338D01*
X63348Y-58338D01*
X64417Y-58338D02*
X64304Y-58281D01*
X64248Y-58169D01*
X64248Y-57157D01*
X65316Y-58281D02*
X65204Y-58338D01*
X64979Y-58338D01*
X64867Y-58281D01*
X64810Y-58169D01*
X64810Y-57719D01*
X64867Y-57606D01*
X64979Y-57550D01*
X65204Y-57550D01*
X65316Y-57606D01*
X65373Y-57719D01*
X65373Y-57831D01*
X64810Y-57944D01*
X65823Y-58281D02*
X65935Y-58338D01*
X66160Y-58338D01*
X66273Y-58281D01*
X66329Y-58169D01*
X66329Y-58113D01*
X66273Y-58000D01*
X66160Y-57944D01*
X65991Y-57944D01*
X65879Y-57888D01*
X65823Y-57775D01*
X65823Y-57719D01*
X65879Y-57606D01*
X65991Y-57550D01*
X66160Y-57550D01*
X66273Y-57606D01*
X66723Y-58788D02*
X66779Y-58731D01*
X66891Y-58563D01*
X66948Y-58450D01*
X67004Y-58281D01*
X67060Y-58000D01*
X67060Y-57775D01*
X67004Y-57494D01*
X66948Y-57325D01*
X66891Y-57213D01*
X66779Y-57044D01*
X66723Y-56988D01*
X41205Y-59379D02*
X41205Y-59458D01*
X41165Y-59419D02*
X41244Y-59419D01*
X42538Y-58716D02*
X42651Y-58716D01*
X42763Y-58772D01*
X42819Y-58828D01*
X42876Y-58941D01*
X42932Y-59166D01*
X42932Y-59447D01*
X42876Y-59672D01*
X42819Y-59784D01*
X42763Y-59840D01*
X42651Y-59897D01*
X42538Y-59897D01*
X42426Y-59840D01*
X42369Y-59784D01*
X42313Y-59672D01*
X42257Y-59447D01*
X42257Y-59166D01*
X42313Y-58941D01*
X42369Y-58828D01*
X42426Y-58772D01*
X42538Y-58716D01*
X43438Y-59784D02*
X43494Y-59840D01*
X43438Y-59897D01*
X43382Y-59840D01*
X43438Y-59784D01*
X43438Y-59897D01*
X43944Y-58828D02*
X44000Y-58772D01*
X44113Y-58716D01*
X44394Y-58716D01*
X44507Y-58772D01*
X44563Y-58828D01*
X44619Y-58941D01*
X44619Y-59053D01*
X44563Y-59222D01*
X43888Y-59897D01*
X44619Y-59897D01*
X45350Y-58716D02*
X45463Y-58716D01*
X45575Y-58772D01*
X45631Y-58828D01*
X45688Y-58941D01*
X45744Y-59166D01*
X45744Y-59447D01*
X45688Y-59672D01*
X45631Y-59784D01*
X45575Y-59840D01*
X45463Y-59897D01*
X45350Y-59897D01*
X45238Y-59840D01*
X45181Y-59784D01*
X45125Y-59672D01*
X45069Y-59447D01*
X45069Y-59166D01*
X45125Y-58941D01*
X45181Y-58828D01*
X45238Y-58772D01*
X45350Y-58716D01*
X46250Y-59897D02*
X46250Y-59109D01*
X46250Y-59222D02*
X46306Y-59166D01*
X46419Y-59109D01*
X46588Y-59109D01*
X46700Y-59166D01*
X46756Y-59278D01*
X46756Y-59897D01*
X46756Y-59278D02*
X46813Y-59166D01*
X46925Y-59109D01*
X47094Y-59109D01*
X47206Y-59166D01*
X47262Y-59278D01*
X47262Y-59897D01*
X47825Y-59897D02*
X47825Y-59109D01*
X47825Y-59222D02*
X47881Y-59166D01*
X47994Y-59109D01*
X48162Y-59109D01*
X48275Y-59166D01*
X48331Y-59278D01*
X48331Y-59897D01*
X48331Y-59278D02*
X48387Y-59166D01*
X48500Y-59109D01*
X48669Y-59109D01*
X48781Y-59166D01*
X48837Y-59278D01*
X48837Y-59897D01*
X51143Y-58659D02*
X50131Y-60178D01*
X52662Y-58716D02*
X52774Y-58716D01*
X52887Y-58772D01*
X52943Y-58828D01*
X52999Y-58941D01*
X53055Y-59166D01*
X53055Y-59447D01*
X52999Y-59672D01*
X52943Y-59784D01*
X52887Y-59840D01*
X52774Y-59897D01*
X52662Y-59897D01*
X52549Y-59840D01*
X52493Y-59784D01*
X52437Y-59672D01*
X52381Y-59447D01*
X52381Y-59166D01*
X52437Y-58941D01*
X52493Y-58828D01*
X52549Y-58772D01*
X52662Y-58716D01*
X53562Y-59784D02*
X53618Y-59840D01*
X53562Y-59897D01*
X53505Y-59840D01*
X53562Y-59784D01*
X53562Y-59897D01*
X54349Y-58716D02*
X54462Y-58716D01*
X54574Y-58772D01*
X54630Y-58828D01*
X54687Y-58941D01*
X54743Y-59166D01*
X54743Y-59447D01*
X54687Y-59672D01*
X54630Y-59784D01*
X54574Y-59840D01*
X54462Y-59897D01*
X54349Y-59897D01*
X54237Y-59840D01*
X54180Y-59784D01*
X54124Y-59672D01*
X54068Y-59447D01*
X54068Y-59166D01*
X54124Y-58941D01*
X54180Y-58828D01*
X54237Y-58772D01*
X54349Y-58716D01*
X55474Y-58716D02*
X55586Y-58716D01*
X55699Y-58772D01*
X55755Y-58828D01*
X55811Y-58941D01*
X55868Y-59166D01*
X55868Y-59447D01*
X55811Y-59672D01*
X55755Y-59784D01*
X55699Y-59840D01*
X55586Y-59897D01*
X55474Y-59897D01*
X55361Y-59840D01*
X55305Y-59784D01*
X55249Y-59672D01*
X55193Y-59447D01*
X55193Y-59166D01*
X55249Y-58941D01*
X55305Y-58828D01*
X55361Y-58772D01*
X55474Y-58716D01*
X56543Y-59222D02*
X56430Y-59166D01*
X56374Y-59109D01*
X56318Y-58997D01*
X56318Y-58941D01*
X56374Y-58828D01*
X56430Y-58772D01*
X56543Y-58716D01*
X56768Y-58716D01*
X56880Y-58772D01*
X56936Y-58828D01*
X56992Y-58941D01*
X56992Y-58997D01*
X56936Y-59109D01*
X56880Y-59166D01*
X56768Y-59222D01*
X56543Y-59222D01*
X56430Y-59278D01*
X56374Y-59334D01*
X56318Y-59447D01*
X56318Y-59672D01*
X56374Y-59784D01*
X56430Y-59840D01*
X56543Y-59897D01*
X56768Y-59897D01*
X56880Y-59840D01*
X56936Y-59784D01*
X56992Y-59672D01*
X56992Y-59447D01*
X56936Y-59334D01*
X56880Y-59278D01*
X56768Y-59222D01*
X57442Y-58716D02*
X57442Y-58941D01*
X57892Y-58716D02*
X57892Y-58941D01*
X59636Y-60347D02*
X59580Y-60290D01*
X59467Y-60122D01*
X59411Y-60009D01*
X59355Y-59840D01*
X59298Y-59559D01*
X59298Y-59334D01*
X59355Y-59053D01*
X59411Y-58884D01*
X59467Y-58772D01*
X59580Y-58603D01*
X59636Y-58547D01*
X59973Y-58716D02*
X60705Y-58716D01*
X60311Y-59166D01*
X60480Y-59166D01*
X60592Y-59222D01*
X60648Y-59278D01*
X60705Y-59391D01*
X60705Y-59672D01*
X60648Y-59784D01*
X60592Y-59840D01*
X60480Y-59897D01*
X60142Y-59897D01*
X60030Y-59840D01*
X59973Y-59784D01*
X61098Y-58716D02*
X61886Y-58716D01*
X61379Y-59897D01*
X63235Y-59897D02*
X63235Y-58716D01*
X63742Y-59897D02*
X63742Y-59278D01*
X63685Y-59166D01*
X63573Y-59109D01*
X63404Y-59109D01*
X63292Y-59166D01*
X63235Y-59222D01*
X64473Y-59897D02*
X64360Y-59840D01*
X64304Y-59784D01*
X64248Y-59672D01*
X64248Y-59334D01*
X64304Y-59222D01*
X64360Y-59166D01*
X64473Y-59109D01*
X64642Y-59109D01*
X64754Y-59166D01*
X64810Y-59222D01*
X64867Y-59334D01*
X64867Y-59672D01*
X64810Y-59784D01*
X64754Y-59840D01*
X64642Y-59897D01*
X64473Y-59897D01*
X65541Y-59897D02*
X65429Y-59840D01*
X65373Y-59728D01*
X65373Y-58716D01*
X66441Y-59840D02*
X66329Y-59897D01*
X66104Y-59897D01*
X65991Y-59840D01*
X65935Y-59728D01*
X65935Y-59278D01*
X65991Y-59166D01*
X66104Y-59109D01*
X66329Y-59109D01*
X66441Y-59166D01*
X66498Y-59278D01*
X66498Y-59391D01*
X65935Y-59503D01*
X66948Y-59840D02*
X67060Y-59897D01*
X67285Y-59897D01*
X67397Y-59840D01*
X67454Y-59728D01*
X67454Y-59672D01*
X67397Y-59559D01*
X67285Y-59503D01*
X67116Y-59503D01*
X67004Y-59447D01*
X66948Y-59334D01*
X66948Y-59278D01*
X67004Y-59166D01*
X67116Y-59109D01*
X67285Y-59109D01*
X67397Y-59166D01*
X67847Y-60347D02*
X67904Y-60290D01*
X68016Y-60122D01*
X68072Y-60009D01*
X68129Y-59840D01*
X68185Y-59559D01*
X68185Y-59334D01*
X68129Y-59053D01*
X68072Y-58884D01*
X68016Y-58772D01*
X67904Y-58603D01*
X67847Y-58547D01*
G54D12*
X41227Y-61019D02*
X41227Y-60936D01*
X41145Y-60936D01*
X41145Y-61019D01*
X41227Y-61019D01*
G54D13*
X42538Y-60275D02*
X42651Y-60275D01*
X42763Y-60331D01*
X42819Y-60387D01*
X42876Y-60500D01*
X42932Y-60725D01*
X42932Y-61006D01*
X42876Y-61231D01*
X42819Y-61343D01*
X42763Y-61400D01*
X42651Y-61456D01*
X42538Y-61456D01*
X42426Y-61400D01*
X42369Y-61343D01*
X42313Y-61231D01*
X42257Y-61006D01*
X42257Y-60725D01*
X42313Y-60500D01*
X42369Y-60387D01*
X42426Y-60331D01*
X42538Y-60275D01*
X43438Y-61343D02*
X43494Y-61400D01*
X43438Y-61456D01*
X43382Y-61400D01*
X43438Y-61343D01*
X43438Y-61456D01*
X43888Y-60275D02*
X44619Y-60275D01*
X44225Y-60725D01*
X44394Y-60725D01*
X44507Y-60781D01*
X44563Y-60837D01*
X44619Y-60950D01*
X44619Y-61231D01*
X44563Y-61343D01*
X44507Y-61400D01*
X44394Y-61456D01*
X44057Y-61456D01*
X43944Y-61400D01*
X43888Y-61343D01*
X45350Y-60275D02*
X45463Y-60275D01*
X45575Y-60331D01*
X45631Y-60387D01*
X45688Y-60500D01*
X45744Y-60725D01*
X45744Y-61006D01*
X45688Y-61231D01*
X45631Y-61343D01*
X45575Y-61400D01*
X45463Y-61456D01*
X45350Y-61456D01*
X45238Y-61400D01*
X45181Y-61343D01*
X45125Y-61231D01*
X45069Y-61006D01*
X45069Y-60725D01*
X45125Y-60500D01*
X45181Y-60387D01*
X45238Y-60331D01*
X45350Y-60275D01*
X46250Y-61456D02*
X46250Y-60668D01*
X46250Y-60781D02*
X46306Y-60725D01*
X46419Y-60668D01*
X46588Y-60668D01*
X46700Y-60725D01*
X46756Y-60837D01*
X46756Y-61456D01*
X46756Y-60837D02*
X46813Y-60725D01*
X46925Y-60668D01*
X47094Y-60668D01*
X47206Y-60725D01*
X47262Y-60837D01*
X47262Y-61456D01*
X47825Y-61456D02*
X47825Y-60668D01*
X47825Y-60781D02*
X47881Y-60725D01*
X47994Y-60668D01*
X48162Y-60668D01*
X48275Y-60725D01*
X48331Y-60837D01*
X48331Y-61456D01*
X48331Y-60837D02*
X48387Y-60725D01*
X48500Y-60668D01*
X48669Y-60668D01*
X48781Y-60725D01*
X48837Y-60837D01*
X48837Y-61456D01*
X51143Y-60218D02*
X50131Y-61737D01*
X52662Y-60275D02*
X52774Y-60275D01*
X52887Y-60331D01*
X52943Y-60387D01*
X52999Y-60500D01*
X53055Y-60725D01*
X53055Y-61006D01*
X52999Y-61231D01*
X52943Y-61343D01*
X52887Y-61400D01*
X52774Y-61456D01*
X52662Y-61456D01*
X52549Y-61400D01*
X52493Y-61343D01*
X52437Y-61231D01*
X52381Y-61006D01*
X52381Y-60725D01*
X52437Y-60500D01*
X52493Y-60387D01*
X52549Y-60331D01*
X52662Y-60275D01*
X53562Y-61343D02*
X53618Y-61400D01*
X53562Y-61456D01*
X53505Y-61400D01*
X53562Y-61343D01*
X53562Y-61456D01*
X54349Y-60275D02*
X54462Y-60275D01*
X54574Y-60331D01*
X54630Y-60387D01*
X54687Y-60500D01*
X54743Y-60725D01*
X54743Y-61006D01*
X54687Y-61231D01*
X54630Y-61343D01*
X54574Y-61400D01*
X54462Y-61456D01*
X54349Y-61456D01*
X54237Y-61400D01*
X54180Y-61343D01*
X54124Y-61231D01*
X54068Y-61006D01*
X54068Y-60725D01*
X54124Y-60500D01*
X54180Y-60387D01*
X54237Y-60331D01*
X54349Y-60275D01*
X55868Y-61456D02*
X55193Y-61456D01*
X55530Y-61456D02*
X55530Y-60275D01*
X55418Y-60443D01*
X55305Y-60556D01*
X55193Y-60612D01*
X56318Y-60387D02*
X56374Y-60331D01*
X56486Y-60275D01*
X56768Y-60275D01*
X56880Y-60331D01*
X56936Y-60387D01*
X56992Y-60500D01*
X56992Y-60612D01*
X56936Y-60781D01*
X56261Y-61456D01*
X56992Y-61456D01*
X57442Y-60275D02*
X57442Y-60500D01*
X57892Y-60275D02*
X57892Y-60500D01*
X59636Y-61906D02*
X59580Y-61849D01*
X59467Y-61681D01*
X59411Y-61568D01*
X59355Y-61400D01*
X59298Y-61118D01*
X59298Y-60893D01*
X59355Y-60612D01*
X59411Y-60443D01*
X59467Y-60331D01*
X59580Y-60162D01*
X59636Y-60106D01*
X59973Y-60275D02*
X60761Y-60275D01*
X60255Y-61456D01*
X61717Y-60275D02*
X61492Y-60275D01*
X61379Y-60331D01*
X61323Y-60387D01*
X61211Y-60556D01*
X61154Y-60781D01*
X61154Y-61231D01*
X61211Y-61343D01*
X61267Y-61400D01*
X61379Y-61456D01*
X61604Y-61456D01*
X61717Y-61400D01*
X61773Y-61343D01*
X61829Y-61231D01*
X61829Y-60950D01*
X61773Y-60837D01*
X61717Y-60781D01*
X61604Y-60725D01*
X61379Y-60725D01*
X61267Y-60781D01*
X61211Y-60837D01*
X61154Y-60950D01*
X63235Y-61456D02*
X63235Y-60275D01*
X63742Y-61456D02*
X63742Y-60837D01*
X63685Y-60725D01*
X63573Y-60668D01*
X63404Y-60668D01*
X63292Y-60725D01*
X63235Y-60781D01*
X64473Y-61456D02*
X64360Y-61400D01*
X64304Y-61343D01*
X64248Y-61231D01*
X64248Y-60893D01*
X64304Y-60781D01*
X64360Y-60725D01*
X64473Y-60668D01*
X64642Y-60668D01*
X64754Y-60725D01*
X64810Y-60781D01*
X64867Y-60893D01*
X64867Y-61231D01*
X64810Y-61343D01*
X64754Y-61400D01*
X64642Y-61456D01*
X64473Y-61456D01*
X65541Y-61456D02*
X65429Y-61400D01*
X65373Y-61287D01*
X65373Y-60275D01*
X66441Y-61400D02*
X66329Y-61456D01*
X66104Y-61456D01*
X65991Y-61400D01*
X65935Y-61287D01*
X65935Y-60837D01*
X65991Y-60725D01*
X66104Y-60668D01*
X66329Y-60668D01*
X66441Y-60725D01*
X66498Y-60837D01*
X66498Y-60950D01*
X65935Y-61062D01*
X66948Y-61400D02*
X67060Y-61456D01*
X67285Y-61456D01*
X67397Y-61400D01*
X67454Y-61287D01*
X67454Y-61231D01*
X67397Y-61118D01*
X67285Y-61062D01*
X67116Y-61062D01*
X67004Y-61006D01*
X66948Y-60893D01*
X66948Y-60837D01*
X67004Y-60725D01*
X67116Y-60668D01*
X67285Y-60668D01*
X67397Y-60725D01*
X67847Y-61906D02*
X67904Y-61849D01*
X68016Y-61681D01*
X68072Y-61568D01*
X68129Y-61400D01*
X68185Y-61118D01*
X68185Y-60893D01*
X68129Y-60612D01*
X68072Y-60443D01*
X68016Y-60331D01*
X67904Y-60162D01*
X67847Y-60106D01*
G54D12*
X41185Y-62596D02*
X41244Y-62537D01*
X41185Y-62478D01*
X41126Y-62537D01*
X41185Y-62596D01*
G54D13*
X42538Y-61834D02*
X42651Y-61834D01*
X42763Y-61890D01*
X42819Y-61946D01*
X42876Y-62059D01*
X42932Y-62284D01*
X42932Y-62565D01*
X42876Y-62790D01*
X42819Y-62902D01*
X42763Y-62959D01*
X42651Y-63015D01*
X42538Y-63015D01*
X42426Y-62959D01*
X42369Y-62902D01*
X42313Y-62790D01*
X42257Y-62565D01*
X42257Y-62284D01*
X42313Y-62059D01*
X42369Y-61946D01*
X42426Y-61890D01*
X42538Y-61834D01*
X43438Y-62902D02*
X43494Y-62959D01*
X43438Y-63015D01*
X43382Y-62959D01*
X43438Y-62902D01*
X43438Y-63015D01*
X43888Y-61834D02*
X44619Y-61834D01*
X44225Y-62284D01*
X44394Y-62284D01*
X44507Y-62340D01*
X44563Y-62396D01*
X44619Y-62509D01*
X44619Y-62790D01*
X44563Y-62902D01*
X44507Y-62959D01*
X44394Y-63015D01*
X44057Y-63015D01*
X43944Y-62959D01*
X43888Y-62902D01*
X45350Y-61834D02*
X45463Y-61834D01*
X45575Y-61890D01*
X45631Y-61946D01*
X45688Y-62059D01*
X45744Y-62284D01*
X45744Y-62565D01*
X45688Y-62790D01*
X45631Y-62902D01*
X45575Y-62959D01*
X45463Y-63015D01*
X45350Y-63015D01*
X45238Y-62959D01*
X45181Y-62902D01*
X45125Y-62790D01*
X45069Y-62565D01*
X45069Y-62284D01*
X45125Y-62059D01*
X45181Y-61946D01*
X45238Y-61890D01*
X45350Y-61834D01*
X46250Y-63015D02*
X46250Y-62227D01*
X46250Y-62340D02*
X46306Y-62284D01*
X46419Y-62227D01*
X46588Y-62227D01*
X46700Y-62284D01*
X46756Y-62396D01*
X46756Y-63015D01*
X46756Y-62396D02*
X46813Y-62284D01*
X46925Y-62227D01*
X47094Y-62227D01*
X47206Y-62284D01*
X47262Y-62396D01*
X47262Y-63015D01*
X47825Y-63015D02*
X47825Y-62227D01*
X47825Y-62340D02*
X47881Y-62284D01*
X47994Y-62227D01*
X48162Y-62227D01*
X48275Y-62284D01*
X48331Y-62396D01*
X48331Y-63015D01*
X48331Y-62396D02*
X48387Y-62284D01*
X48500Y-62227D01*
X48669Y-62227D01*
X48781Y-62284D01*
X48837Y-62396D01*
X48837Y-63015D01*
X51143Y-61777D02*
X50131Y-63296D01*
X52662Y-61834D02*
X52774Y-61834D01*
X52887Y-61890D01*
X52943Y-61946D01*
X52999Y-62059D01*
X53055Y-62284D01*
X53055Y-62565D01*
X52999Y-62790D01*
X52943Y-62902D01*
X52887Y-62959D01*
X52774Y-63015D01*
X52662Y-63015D01*
X52549Y-62959D01*
X52493Y-62902D01*
X52437Y-62790D01*
X52381Y-62565D01*
X52381Y-62284D01*
X52437Y-62059D01*
X52493Y-61946D01*
X52549Y-61890D01*
X52662Y-61834D01*
X53562Y-62902D02*
X53618Y-62959D01*
X53562Y-63015D01*
X53505Y-62959D01*
X53562Y-62902D01*
X53562Y-63015D01*
X54349Y-61834D02*
X54462Y-61834D01*
X54574Y-61890D01*
X54630Y-61946D01*
X54687Y-62059D01*
X54743Y-62284D01*
X54743Y-62565D01*
X54687Y-62790D01*
X54630Y-62902D01*
X54574Y-62959D01*
X54462Y-63015D01*
X54349Y-63015D01*
X54237Y-62959D01*
X54180Y-62902D01*
X54124Y-62790D01*
X54068Y-62565D01*
X54068Y-62284D01*
X54124Y-62059D01*
X54180Y-61946D01*
X54237Y-61890D01*
X54349Y-61834D01*
X55868Y-63015D02*
X55193Y-63015D01*
X55530Y-63015D02*
X55530Y-61834D01*
X55418Y-62002D01*
X55305Y-62115D01*
X55193Y-62171D01*
X56318Y-61946D02*
X56374Y-61890D01*
X56486Y-61834D01*
X56768Y-61834D01*
X56880Y-61890D01*
X56936Y-61946D01*
X56992Y-62059D01*
X56992Y-62171D01*
X56936Y-62340D01*
X56261Y-63015D01*
X56992Y-63015D01*
X57442Y-61834D02*
X57442Y-62059D01*
X57892Y-61834D02*
X57892Y-62059D01*
X59636Y-63465D02*
X59580Y-63409D01*
X59467Y-63240D01*
X59411Y-63127D01*
X59355Y-62959D01*
X59298Y-62677D01*
X59298Y-62452D01*
X59355Y-62171D01*
X59411Y-62002D01*
X59467Y-61890D01*
X59580Y-61721D01*
X59636Y-61665D01*
X60030Y-61946D02*
X60086Y-61890D01*
X60198Y-61834D01*
X60480Y-61834D01*
X60592Y-61890D01*
X60648Y-61946D01*
X60705Y-62059D01*
X60705Y-62171D01*
X60648Y-62340D01*
X59973Y-63015D01*
X60705Y-63015D01*
X62111Y-63015D02*
X62111Y-61834D01*
X62617Y-63015D02*
X62617Y-62396D01*
X62561Y-62284D01*
X62448Y-62227D01*
X62279Y-62227D01*
X62167Y-62284D01*
X62111Y-62340D01*
X63348Y-63015D02*
X63235Y-62959D01*
X63179Y-62902D01*
X63123Y-62790D01*
X63123Y-62452D01*
X63179Y-62340D01*
X63235Y-62284D01*
X63348Y-62227D01*
X63517Y-62227D01*
X63629Y-62284D01*
X63685Y-62340D01*
X63742Y-62452D01*
X63742Y-62790D01*
X63685Y-62902D01*
X63629Y-62959D01*
X63517Y-63015D01*
X63348Y-63015D01*
X64417Y-63015D02*
X64304Y-62959D01*
X64248Y-62846D01*
X64248Y-61834D01*
X65316Y-62959D02*
X65204Y-63015D01*
X64979Y-63015D01*
X64867Y-62959D01*
X64810Y-62846D01*
X64810Y-62396D01*
X64867Y-62284D01*
X64979Y-62227D01*
X65204Y-62227D01*
X65316Y-62284D01*
X65373Y-62396D01*
X65373Y-62509D01*
X64810Y-62621D01*
X65823Y-62959D02*
X65935Y-63015D01*
X66160Y-63015D01*
X66273Y-62959D01*
X66329Y-62846D01*
X66329Y-62790D01*
X66273Y-62677D01*
X66160Y-62621D01*
X65991Y-62621D01*
X65879Y-62565D01*
X65823Y-62452D01*
X65823Y-62396D01*
X65879Y-62284D01*
X65991Y-62227D01*
X66160Y-62227D01*
X66273Y-62284D01*
X66723Y-63465D02*
X66779Y-63409D01*
X66891Y-63240D01*
X66948Y-63127D01*
X67004Y-62959D01*
X67060Y-62677D01*
X67060Y-62452D01*
X67004Y-62171D01*
X66948Y-62002D01*
X66891Y-61890D01*
X66779Y-61721D01*
X66723Y-61665D01*
X40890Y-63919D02*
X41244Y-64273D01*
X41244Y-63919D02*
X40890Y-64273D01*
G54D12*
X41244Y-64096D02*
G75*
G03X41244Y-64096I-177J0D01*
G74*
G01*
G54D13*
X42538Y-63393D02*
X42651Y-63393D01*
X42763Y-63449D01*
X42819Y-63505D01*
X42876Y-63618D01*
X42932Y-63843D01*
X42932Y-64124D01*
X42876Y-64349D01*
X42819Y-64461D01*
X42763Y-64518D01*
X42651Y-64574D01*
X42538Y-64574D01*
X42426Y-64518D01*
X42369Y-64461D01*
X42313Y-64349D01*
X42257Y-64124D01*
X42257Y-63843D01*
X42313Y-63618D01*
X42369Y-63505D01*
X42426Y-63449D01*
X42538Y-63393D01*
X43438Y-64461D02*
X43494Y-64518D01*
X43438Y-64574D01*
X43382Y-64518D01*
X43438Y-64461D01*
X43438Y-64574D01*
X44057Y-64574D02*
X44282Y-64574D01*
X44394Y-64518D01*
X44450Y-64461D01*
X44563Y-64293D01*
X44619Y-64068D01*
X44619Y-63618D01*
X44563Y-63505D01*
X44507Y-63449D01*
X44394Y-63393D01*
X44169Y-63393D01*
X44057Y-63449D01*
X44000Y-63505D01*
X43944Y-63618D01*
X43944Y-63899D01*
X44000Y-64011D01*
X44057Y-64068D01*
X44169Y-64124D01*
X44394Y-64124D01*
X44507Y-64068D01*
X44563Y-64011D01*
X44619Y-63899D01*
X45350Y-63393D02*
X45463Y-63393D01*
X45575Y-63449D01*
X45631Y-63505D01*
X45688Y-63618D01*
X45744Y-63843D01*
X45744Y-64124D01*
X45688Y-64349D01*
X45631Y-64461D01*
X45575Y-64518D01*
X45463Y-64574D01*
X45350Y-64574D01*
X45238Y-64518D01*
X45181Y-64461D01*
X45125Y-64349D01*
X45069Y-64124D01*
X45069Y-63843D01*
X45125Y-63618D01*
X45181Y-63505D01*
X45238Y-63449D01*
X45350Y-63393D01*
X46250Y-64574D02*
X46250Y-63786D01*
X46250Y-63899D02*
X46306Y-63843D01*
X46419Y-63786D01*
X46588Y-63786D01*
X46700Y-63843D01*
X46756Y-63955D01*
X46756Y-64574D01*
X46756Y-63955D02*
X46813Y-63843D01*
X46925Y-63786D01*
X47094Y-63786D01*
X47206Y-63843D01*
X47262Y-63955D01*
X47262Y-64574D01*
X47825Y-64574D02*
X47825Y-63786D01*
X47825Y-63899D02*
X47881Y-63843D01*
X47994Y-63786D01*
X48162Y-63786D01*
X48275Y-63843D01*
X48331Y-63955D01*
X48331Y-64574D01*
X48331Y-63955D02*
X48387Y-63843D01*
X48500Y-63786D01*
X48669Y-63786D01*
X48781Y-63843D01*
X48837Y-63955D01*
X48837Y-64574D01*
X51143Y-63337D02*
X50131Y-64855D01*
X52662Y-63393D02*
X52774Y-63393D01*
X52887Y-63449D01*
X52943Y-63505D01*
X52999Y-63618D01*
X53055Y-63843D01*
X53055Y-64124D01*
X52999Y-64349D01*
X52943Y-64461D01*
X52887Y-64518D01*
X52774Y-64574D01*
X52662Y-64574D01*
X52549Y-64518D01*
X52493Y-64461D01*
X52437Y-64349D01*
X52381Y-64124D01*
X52381Y-63843D01*
X52437Y-63618D01*
X52493Y-63505D01*
X52549Y-63449D01*
X52662Y-63393D01*
X53562Y-64461D02*
X53618Y-64518D01*
X53562Y-64574D01*
X53505Y-64518D01*
X53562Y-64461D01*
X53562Y-64574D01*
X54349Y-63393D02*
X54462Y-63393D01*
X54574Y-63449D01*
X54630Y-63505D01*
X54687Y-63618D01*
X54743Y-63843D01*
X54743Y-64124D01*
X54687Y-64349D01*
X54630Y-64461D01*
X54574Y-64518D01*
X54462Y-64574D01*
X54349Y-64574D01*
X54237Y-64518D01*
X54180Y-64461D01*
X54124Y-64349D01*
X54068Y-64124D01*
X54068Y-63843D01*
X54124Y-63618D01*
X54180Y-63505D01*
X54237Y-63449D01*
X54349Y-63393D01*
X55136Y-63393D02*
X55868Y-63393D01*
X55474Y-63843D01*
X55643Y-63843D01*
X55755Y-63899D01*
X55811Y-63955D01*
X55868Y-64068D01*
X55868Y-64349D01*
X55811Y-64461D01*
X55755Y-64518D01*
X55643Y-64574D01*
X55305Y-64574D01*
X55193Y-64518D01*
X55136Y-64461D01*
X56936Y-63393D02*
X56374Y-63393D01*
X56318Y-63955D01*
X56374Y-63899D01*
X56486Y-63843D01*
X56768Y-63843D01*
X56880Y-63899D01*
X56936Y-63955D01*
X56992Y-64068D01*
X56992Y-64349D01*
X56936Y-64461D01*
X56880Y-64518D01*
X56768Y-64574D01*
X56486Y-64574D01*
X56374Y-64518D01*
X56318Y-64461D01*
X57442Y-63393D02*
X57442Y-63618D01*
X57892Y-63393D02*
X57892Y-63618D01*
X59636Y-65024D02*
X59580Y-64968D01*
X59467Y-64799D01*
X59411Y-64686D01*
X59355Y-64518D01*
X59298Y-64236D01*
X59298Y-64011D01*
X59355Y-63730D01*
X59411Y-63561D01*
X59467Y-63449D01*
X59580Y-63280D01*
X59636Y-63224D01*
X59973Y-63393D02*
X60705Y-63393D01*
X60311Y-63843D01*
X60480Y-63843D01*
X60592Y-63899D01*
X60648Y-63955D01*
X60705Y-64068D01*
X60705Y-64349D01*
X60648Y-64461D01*
X60592Y-64518D01*
X60480Y-64574D01*
X60142Y-64574D01*
X60030Y-64518D01*
X59973Y-64461D01*
X61717Y-63393D02*
X61492Y-63393D01*
X61379Y-63449D01*
X61323Y-63505D01*
X61211Y-63674D01*
X61154Y-63899D01*
X61154Y-64349D01*
X61211Y-64461D01*
X61267Y-64518D01*
X61379Y-64574D01*
X61604Y-64574D01*
X61717Y-64518D01*
X61773Y-64461D01*
X61829Y-64349D01*
X61829Y-64068D01*
X61773Y-63955D01*
X61717Y-63899D01*
X61604Y-63843D01*
X61379Y-63843D01*
X61267Y-63899D01*
X61211Y-63955D01*
X61154Y-64068D01*
X63235Y-64574D02*
X63235Y-63393D01*
X63742Y-64574D02*
X63742Y-63955D01*
X63685Y-63843D01*
X63573Y-63786D01*
X63404Y-63786D01*
X63292Y-63843D01*
X63235Y-63899D01*
X64473Y-64574D02*
X64360Y-64518D01*
X64304Y-64461D01*
X64248Y-64349D01*
X64248Y-64011D01*
X64304Y-63899D01*
X64360Y-63843D01*
X64473Y-63786D01*
X64642Y-63786D01*
X64754Y-63843D01*
X64810Y-63899D01*
X64867Y-64011D01*
X64867Y-64349D01*
X64810Y-64461D01*
X64754Y-64518D01*
X64642Y-64574D01*
X64473Y-64574D01*
X65541Y-64574D02*
X65429Y-64518D01*
X65373Y-64405D01*
X65373Y-63393D01*
X66441Y-64518D02*
X66329Y-64574D01*
X66104Y-64574D01*
X65991Y-64518D01*
X65935Y-64405D01*
X65935Y-63955D01*
X65991Y-63843D01*
X66104Y-63786D01*
X66329Y-63786D01*
X66441Y-63843D01*
X66498Y-63955D01*
X66498Y-64068D01*
X65935Y-64180D01*
X66948Y-64518D02*
X67060Y-64574D01*
X67285Y-64574D01*
X67397Y-64518D01*
X67454Y-64405D01*
X67454Y-64349D01*
X67397Y-64236D01*
X67285Y-64180D01*
X67116Y-64180D01*
X67004Y-64124D01*
X66948Y-64011D01*
X66948Y-63955D01*
X67004Y-63843D01*
X67116Y-63786D01*
X67285Y-63786D01*
X67397Y-63843D01*
X67847Y-65024D02*
X67904Y-64968D01*
X68016Y-64799D01*
X68072Y-64686D01*
X68129Y-64518D01*
X68185Y-64236D01*
X68185Y-64011D01*
X68129Y-63730D01*
X68072Y-63561D01*
X68016Y-63449D01*
X67904Y-63280D01*
X67847Y-63224D01*
X40812Y-65439D02*
X41244Y-65871D01*
X41244Y-65439D02*
X40812Y-65871D01*
X41028Y-65439D02*
X41028Y-65871D01*
X40812Y-65655D02*
X41244Y-65655D01*
X42932Y-66133D02*
X42257Y-66133D01*
X42594Y-66133D02*
X42594Y-64952D01*
X42482Y-65121D01*
X42369Y-65233D01*
X42257Y-65289D01*
X43438Y-66020D02*
X43494Y-66077D01*
X43438Y-66133D01*
X43382Y-66077D01*
X43438Y-66020D01*
X43438Y-66133D01*
X44619Y-66133D02*
X43944Y-66133D01*
X44282Y-66133D02*
X44282Y-64952D01*
X44169Y-65121D01*
X44057Y-65233D01*
X43944Y-65289D01*
X45350Y-64952D02*
X45463Y-64952D01*
X45575Y-65008D01*
X45631Y-65064D01*
X45688Y-65177D01*
X45744Y-65402D01*
X45744Y-65683D01*
X45688Y-65908D01*
X45631Y-66020D01*
X45575Y-66077D01*
X45463Y-66133D01*
X45350Y-66133D01*
X45238Y-66077D01*
X45181Y-66020D01*
X45125Y-65908D01*
X45069Y-65683D01*
X45069Y-65402D01*
X45125Y-65177D01*
X45181Y-65064D01*
X45238Y-65008D01*
X45350Y-64952D01*
X46250Y-66133D02*
X46250Y-65346D01*
X46250Y-65458D02*
X46306Y-65402D01*
X46419Y-65346D01*
X46588Y-65346D01*
X46700Y-65402D01*
X46756Y-65514D01*
X46756Y-66133D01*
X46756Y-65514D02*
X46813Y-65402D01*
X46925Y-65346D01*
X47094Y-65346D01*
X47206Y-65402D01*
X47262Y-65514D01*
X47262Y-66133D01*
X47825Y-66133D02*
X47825Y-65346D01*
X47825Y-65458D02*
X47881Y-65402D01*
X47994Y-65346D01*
X48162Y-65346D01*
X48275Y-65402D01*
X48331Y-65514D01*
X48331Y-66133D01*
X48331Y-65514D02*
X48387Y-65402D01*
X48500Y-65346D01*
X48669Y-65346D01*
X48781Y-65402D01*
X48837Y-65514D01*
X48837Y-66133D01*
X51143Y-64896D02*
X50131Y-66414D01*
X52662Y-64952D02*
X52774Y-64952D01*
X52887Y-65008D01*
X52943Y-65064D01*
X52999Y-65177D01*
X53055Y-65402D01*
X53055Y-65683D01*
X52999Y-65908D01*
X52943Y-66020D01*
X52887Y-66077D01*
X52774Y-66133D01*
X52662Y-66133D01*
X52549Y-66077D01*
X52493Y-66020D01*
X52437Y-65908D01*
X52381Y-65683D01*
X52381Y-65402D01*
X52437Y-65177D01*
X52493Y-65064D01*
X52549Y-65008D01*
X52662Y-64952D01*
X53562Y-66020D02*
X53618Y-66077D01*
X53562Y-66133D01*
X53505Y-66077D01*
X53562Y-66020D01*
X53562Y-66133D01*
X54349Y-64952D02*
X54462Y-64952D01*
X54574Y-65008D01*
X54630Y-65064D01*
X54687Y-65177D01*
X54743Y-65402D01*
X54743Y-65683D01*
X54687Y-65908D01*
X54630Y-66020D01*
X54574Y-66077D01*
X54462Y-66133D01*
X54349Y-66133D01*
X54237Y-66077D01*
X54180Y-66020D01*
X54124Y-65908D01*
X54068Y-65683D01*
X54068Y-65402D01*
X54124Y-65177D01*
X54180Y-65064D01*
X54237Y-65008D01*
X54349Y-64952D01*
X55755Y-65346D02*
X55755Y-66133D01*
X55474Y-64896D02*
X55193Y-65739D01*
X55924Y-65739D01*
X56261Y-64952D02*
X56992Y-64952D01*
X56599Y-65402D01*
X56768Y-65402D01*
X56880Y-65458D01*
X56936Y-65514D01*
X56992Y-65627D01*
X56992Y-65908D01*
X56936Y-66020D01*
X56880Y-66077D01*
X56768Y-66133D01*
X56430Y-66133D01*
X56318Y-66077D01*
X56261Y-66020D01*
X57442Y-64952D02*
X57442Y-65177D01*
X57892Y-64952D02*
X57892Y-65177D01*
X59636Y-66583D02*
X59580Y-66527D01*
X59467Y-66358D01*
X59411Y-66245D01*
X59355Y-66077D01*
X59298Y-65795D01*
X59298Y-65570D01*
X59355Y-65289D01*
X59411Y-65121D01*
X59467Y-65008D01*
X59580Y-64839D01*
X59636Y-64783D01*
X60030Y-65064D02*
X60086Y-65008D01*
X60198Y-64952D01*
X60480Y-64952D01*
X60592Y-65008D01*
X60648Y-65064D01*
X60705Y-65177D01*
X60705Y-65289D01*
X60648Y-65458D01*
X59973Y-66133D01*
X60705Y-66133D01*
X62111Y-66133D02*
X62111Y-64952D01*
X62617Y-66133D02*
X62617Y-65514D01*
X62561Y-65402D01*
X62448Y-65346D01*
X62279Y-65346D01*
X62167Y-65402D01*
X62111Y-65458D01*
X63348Y-66133D02*
X63235Y-66077D01*
X63179Y-66020D01*
X63123Y-65908D01*
X63123Y-65570D01*
X63179Y-65458D01*
X63235Y-65402D01*
X63348Y-65346D01*
X63517Y-65346D01*
X63629Y-65402D01*
X63685Y-65458D01*
X63742Y-65570D01*
X63742Y-65908D01*
X63685Y-66020D01*
X63629Y-66077D01*
X63517Y-66133D01*
X63348Y-66133D01*
X64417Y-66133D02*
X64304Y-66077D01*
X64248Y-65964D01*
X64248Y-64952D01*
X65316Y-66077D02*
X65204Y-66133D01*
X64979Y-66133D01*
X64867Y-66077D01*
X64810Y-65964D01*
X64810Y-65514D01*
X64867Y-65402D01*
X64979Y-65346D01*
X65204Y-65346D01*
X65316Y-65402D01*
X65373Y-65514D01*
X65373Y-65627D01*
X64810Y-65739D01*
X65823Y-66077D02*
X65935Y-66133D01*
X66160Y-66133D01*
X66273Y-66077D01*
X66329Y-65964D01*
X66329Y-65908D01*
X66273Y-65795D01*
X66160Y-65739D01*
X65991Y-65739D01*
X65879Y-65683D01*
X65823Y-65570D01*
X65823Y-65514D01*
X65879Y-65402D01*
X65991Y-65346D01*
X66160Y-65346D01*
X66273Y-65402D01*
X66723Y-66583D02*
X66779Y-66527D01*
X66891Y-66358D01*
X66948Y-66245D01*
X67004Y-66077D01*
X67060Y-65795D01*
X67060Y-65570D01*
X67004Y-65289D01*
X66948Y-65121D01*
X66891Y-65008D01*
X66779Y-64839D01*
X66723Y-64783D01*
X40103Y-66643D02*
X41244Y-67785D01*
X41244Y-66643D02*
X40103Y-67785D01*
G54D12*
X41077Y-67618D02*
X41077Y-66810D01*
X40270Y-66810D01*
X40270Y-67618D01*
X41077Y-67618D01*
G54D13*
X42257Y-66623D02*
X42313Y-66567D01*
X42426Y-66511D01*
X42707Y-66511D01*
X42819Y-66567D01*
X42876Y-66623D01*
X42932Y-66736D01*
X42932Y-66848D01*
X42876Y-67017D01*
X42201Y-67692D01*
X42932Y-67692D01*
X43438Y-67579D02*
X43494Y-67636D01*
X43438Y-67692D01*
X43382Y-67636D01*
X43438Y-67579D01*
X43438Y-67692D01*
X44057Y-67692D02*
X44282Y-67692D01*
X44394Y-67636D01*
X44450Y-67579D01*
X44563Y-67411D01*
X44619Y-67186D01*
X44619Y-66736D01*
X44563Y-66623D01*
X44507Y-66567D01*
X44394Y-66511D01*
X44169Y-66511D01*
X44057Y-66567D01*
X44000Y-66623D01*
X43944Y-66736D01*
X43944Y-67017D01*
X44000Y-67130D01*
X44057Y-67186D01*
X44169Y-67242D01*
X44394Y-67242D01*
X44507Y-67186D01*
X44563Y-67130D01*
X44619Y-67017D01*
X45350Y-66511D02*
X45463Y-66511D01*
X45575Y-66567D01*
X45631Y-66623D01*
X45688Y-66736D01*
X45744Y-66961D01*
X45744Y-67242D01*
X45688Y-67467D01*
X45631Y-67579D01*
X45575Y-67636D01*
X45463Y-67692D01*
X45350Y-67692D01*
X45238Y-67636D01*
X45181Y-67579D01*
X45125Y-67467D01*
X45069Y-67242D01*
X45069Y-66961D01*
X45125Y-66736D01*
X45181Y-66623D01*
X45238Y-66567D01*
X45350Y-66511D01*
X46250Y-67692D02*
X46250Y-66905D01*
X46250Y-67017D02*
X46306Y-66961D01*
X46419Y-66905D01*
X46588Y-66905D01*
X46700Y-66961D01*
X46756Y-67073D01*
X46756Y-67692D01*
X46756Y-67073D02*
X46813Y-66961D01*
X46925Y-66905D01*
X47094Y-66905D01*
X47206Y-66961D01*
X47262Y-67073D01*
X47262Y-67692D01*
X47825Y-67692D02*
X47825Y-66905D01*
X47825Y-67017D02*
X47881Y-66961D01*
X47994Y-66905D01*
X48162Y-66905D01*
X48275Y-66961D01*
X48331Y-67073D01*
X48331Y-67692D01*
X48331Y-67073D02*
X48387Y-66961D01*
X48500Y-66905D01*
X48669Y-66905D01*
X48781Y-66961D01*
X48837Y-67073D01*
X48837Y-67692D01*
X51143Y-66455D02*
X50131Y-67973D01*
X52662Y-66511D02*
X52774Y-66511D01*
X52887Y-66567D01*
X52943Y-66623D01*
X52999Y-66736D01*
X53055Y-66961D01*
X53055Y-67242D01*
X52999Y-67467D01*
X52943Y-67579D01*
X52887Y-67636D01*
X52774Y-67692D01*
X52662Y-67692D01*
X52549Y-67636D01*
X52493Y-67579D01*
X52437Y-67467D01*
X52381Y-67242D01*
X52381Y-66961D01*
X52437Y-66736D01*
X52493Y-66623D01*
X52549Y-66567D01*
X52662Y-66511D01*
X53562Y-67579D02*
X53618Y-67636D01*
X53562Y-67692D01*
X53505Y-67636D01*
X53562Y-67579D01*
X53562Y-67692D01*
X54743Y-67692D02*
X54068Y-67692D01*
X54405Y-67692D02*
X54405Y-66511D01*
X54293Y-66680D01*
X54180Y-66792D01*
X54068Y-66848D01*
X55868Y-67692D02*
X55193Y-67692D01*
X55530Y-67692D02*
X55530Y-66511D01*
X55418Y-66680D01*
X55305Y-66792D01*
X55193Y-66848D01*
X56880Y-66905D02*
X56880Y-67692D01*
X56599Y-66455D02*
X56318Y-67298D01*
X57049Y-67298D01*
X57442Y-66511D02*
X57442Y-66736D01*
X57892Y-66511D02*
X57892Y-66736D01*
X59636Y-68142D02*
X59580Y-68086D01*
X59467Y-67917D01*
X59411Y-67804D01*
X59355Y-67636D01*
X59298Y-67355D01*
X59298Y-67130D01*
X59355Y-66848D01*
X59411Y-66680D01*
X59467Y-66567D01*
X59580Y-66398D01*
X59636Y-66342D01*
X59973Y-66511D02*
X60705Y-66511D01*
X60311Y-66961D01*
X60480Y-66961D01*
X60592Y-67017D01*
X60648Y-67073D01*
X60705Y-67186D01*
X60705Y-67467D01*
X60648Y-67579D01*
X60592Y-67636D01*
X60480Y-67692D01*
X60142Y-67692D01*
X60030Y-67636D01*
X59973Y-67579D01*
X62111Y-67692D02*
X62111Y-66511D01*
X62617Y-67692D02*
X62617Y-67073D01*
X62561Y-66961D01*
X62448Y-66905D01*
X62279Y-66905D01*
X62167Y-66961D01*
X62111Y-67017D01*
X63348Y-67692D02*
X63235Y-67636D01*
X63179Y-67579D01*
X63123Y-67467D01*
X63123Y-67130D01*
X63179Y-67017D01*
X63235Y-66961D01*
X63348Y-66905D01*
X63517Y-66905D01*
X63629Y-66961D01*
X63685Y-67017D01*
X63742Y-67130D01*
X63742Y-67467D01*
X63685Y-67579D01*
X63629Y-67636D01*
X63517Y-67692D01*
X63348Y-67692D01*
X64417Y-67692D02*
X64304Y-67636D01*
X64248Y-67523D01*
X64248Y-66511D01*
X65316Y-67636D02*
X65204Y-67692D01*
X64979Y-67692D01*
X64867Y-67636D01*
X64810Y-67523D01*
X64810Y-67073D01*
X64867Y-66961D01*
X64979Y-66905D01*
X65204Y-66905D01*
X65316Y-66961D01*
X65373Y-67073D01*
X65373Y-67186D01*
X64810Y-67298D01*
X65823Y-67636D02*
X65935Y-67692D01*
X66160Y-67692D01*
X66273Y-67636D01*
X66329Y-67523D01*
X66329Y-67467D01*
X66273Y-67355D01*
X66160Y-67298D01*
X65991Y-67298D01*
X65879Y-67242D01*
X65823Y-67130D01*
X65823Y-67073D01*
X65879Y-66961D01*
X65991Y-66905D01*
X66160Y-66905D01*
X66273Y-66961D01*
X66723Y-68142D02*
X66779Y-68086D01*
X66891Y-67917D01*
X66948Y-67804D01*
X67004Y-67636D01*
X67060Y-67355D01*
X67060Y-67130D01*
X67004Y-66848D01*
X66948Y-66680D01*
X66891Y-66567D01*
X66779Y-66398D01*
X66723Y-66342D01*
M02*
