G04 (created by PCBNEW (2013-07-07 BZR 4022)-stable) date 09/07/2014 14:33:10*
%MOIN*%
G04 Gerber Fmt 3.4, Leading zero omitted, Abs format*
%FSLAX34Y34*%
G01*
G70*
G90*
G04 APERTURE LIST*
%ADD10C,0.00590551*%
%ADD11C,0.0077*%
%ADD12C,0.0078*%
%ADD13C,0.0117*%
%ADD14C,0.00787402*%
%ADD15C,0.00984252*%
%ADD16C,0.00688976*%
G04 APERTURE END LIST*
G54D10*
X4000Y-4000D02*
X112930Y-4000D01*
X112930Y-78680D01*
X4000Y-78680D01*
X4000Y-4000D01*
X4700Y-4700D02*
X112230Y-4700D01*
X112230Y-77980D01*
X4700Y-77980D01*
X4700Y-4700D01*
X25780Y-4000D02*
X25780Y-4700D01*
X15032Y-4552D02*
X14747Y-4552D01*
X14890Y-4552D02*
X14890Y-4052D01*
X14842Y-4123D01*
X14794Y-4171D01*
X14747Y-4195D01*
X25780Y-78680D02*
X25780Y-77980D01*
X15032Y-78532D02*
X14747Y-78532D01*
X14890Y-78532D02*
X14890Y-78032D01*
X14842Y-78103D01*
X14794Y-78151D01*
X14747Y-78175D01*
X47560Y-4000D02*
X47560Y-4700D01*
X36527Y-4100D02*
X36550Y-4076D01*
X36598Y-4052D01*
X36717Y-4052D01*
X36765Y-4076D01*
X36789Y-4100D01*
X36812Y-4147D01*
X36812Y-4195D01*
X36789Y-4266D01*
X36503Y-4552D01*
X36812Y-4552D01*
X47560Y-78680D02*
X47560Y-77980D01*
X36527Y-78080D02*
X36550Y-78056D01*
X36598Y-78032D01*
X36717Y-78032D01*
X36765Y-78056D01*
X36789Y-78080D01*
X36812Y-78127D01*
X36812Y-78175D01*
X36789Y-78246D01*
X36503Y-78532D01*
X36812Y-78532D01*
X69340Y-4000D02*
X69340Y-4700D01*
X58283Y-4052D02*
X58592Y-4052D01*
X58426Y-4242D01*
X58497Y-4242D01*
X58545Y-4266D01*
X58569Y-4290D01*
X58592Y-4338D01*
X58592Y-4457D01*
X58569Y-4504D01*
X58545Y-4528D01*
X58497Y-4552D01*
X58354Y-4552D01*
X58307Y-4528D01*
X58283Y-4504D01*
X69340Y-78680D02*
X69340Y-77980D01*
X58283Y-78032D02*
X58592Y-78032D01*
X58426Y-78222D01*
X58497Y-78222D01*
X58545Y-78246D01*
X58569Y-78270D01*
X58592Y-78318D01*
X58592Y-78437D01*
X58569Y-78484D01*
X58545Y-78508D01*
X58497Y-78532D01*
X58354Y-78532D01*
X58307Y-78508D01*
X58283Y-78484D01*
X91120Y-4000D02*
X91120Y-4700D01*
X80325Y-4219D02*
X80325Y-4552D01*
X80206Y-4028D02*
X80087Y-4385D01*
X80396Y-4385D01*
X91120Y-78680D02*
X91120Y-77980D01*
X80325Y-78199D02*
X80325Y-78532D01*
X80206Y-78008D02*
X80087Y-78365D01*
X80396Y-78365D01*
X102129Y-4052D02*
X101890Y-4052D01*
X101867Y-4290D01*
X101890Y-4266D01*
X101938Y-4242D01*
X102057Y-4242D01*
X102105Y-4266D01*
X102129Y-4290D01*
X102152Y-4338D01*
X102152Y-4457D01*
X102129Y-4504D01*
X102105Y-4528D01*
X102057Y-4552D01*
X101938Y-4552D01*
X101890Y-4528D01*
X101867Y-4504D01*
X102129Y-78032D02*
X101890Y-78032D01*
X101867Y-78270D01*
X101890Y-78246D01*
X101938Y-78222D01*
X102057Y-78222D01*
X102105Y-78246D01*
X102129Y-78270D01*
X102152Y-78318D01*
X102152Y-78437D01*
X102129Y-78484D01*
X102105Y-78508D01*
X102057Y-78532D01*
X101938Y-78532D01*
X101890Y-78508D01*
X101867Y-78484D01*
X4000Y-28890D02*
X4700Y-28890D01*
X4230Y-16509D02*
X4469Y-16509D01*
X4183Y-16652D02*
X4350Y-16152D01*
X4516Y-16652D01*
X112930Y-28890D02*
X112230Y-28890D01*
X112460Y-16509D02*
X112699Y-16509D01*
X112413Y-16652D02*
X112580Y-16152D01*
X112746Y-16652D01*
X4000Y-53780D02*
X4700Y-53780D01*
X4385Y-41280D02*
X4457Y-41304D01*
X4480Y-41328D01*
X4504Y-41375D01*
X4504Y-41447D01*
X4480Y-41494D01*
X4457Y-41518D01*
X4409Y-41542D01*
X4219Y-41542D01*
X4219Y-41042D01*
X4385Y-41042D01*
X4433Y-41066D01*
X4457Y-41090D01*
X4480Y-41137D01*
X4480Y-41185D01*
X4457Y-41232D01*
X4433Y-41256D01*
X4385Y-41280D01*
X4219Y-41280D01*
X112930Y-53780D02*
X112230Y-53780D01*
X112615Y-41280D02*
X112687Y-41304D01*
X112710Y-41328D01*
X112734Y-41375D01*
X112734Y-41447D01*
X112710Y-41494D01*
X112687Y-41518D01*
X112639Y-41542D01*
X112449Y-41542D01*
X112449Y-41042D01*
X112615Y-41042D01*
X112663Y-41066D01*
X112687Y-41090D01*
X112710Y-41137D01*
X112710Y-41185D01*
X112687Y-41232D01*
X112663Y-41256D01*
X112615Y-41280D01*
X112449Y-41280D01*
X4504Y-66384D02*
X4480Y-66408D01*
X4409Y-66432D01*
X4361Y-66432D01*
X4290Y-66408D01*
X4242Y-66360D01*
X4219Y-66313D01*
X4195Y-66218D01*
X4195Y-66146D01*
X4219Y-66051D01*
X4242Y-66003D01*
X4290Y-65956D01*
X4361Y-65932D01*
X4409Y-65932D01*
X4480Y-65956D01*
X4504Y-65980D01*
X112734Y-66384D02*
X112710Y-66408D01*
X112639Y-66432D01*
X112591Y-66432D01*
X112520Y-66408D01*
X112472Y-66360D01*
X112449Y-66313D01*
X112425Y-66218D01*
X112425Y-66146D01*
X112449Y-66051D01*
X112472Y-66003D01*
X112520Y-65956D01*
X112591Y-65932D01*
X112639Y-65932D01*
X112710Y-65956D01*
X112734Y-65980D01*
X79380Y-76422D02*
X79455Y-75822D01*
X79597Y-75822D01*
X79680Y-75851D01*
X79730Y-75908D01*
X79751Y-75965D01*
X79765Y-76080D01*
X79755Y-76165D01*
X79712Y-76280D01*
X79676Y-76337D01*
X79612Y-76394D01*
X79522Y-76422D01*
X79380Y-76422D01*
X80237Y-76422D02*
X80276Y-76108D01*
X80255Y-76051D01*
X80201Y-76022D01*
X80087Y-76022D01*
X80026Y-76051D01*
X80240Y-76394D02*
X80180Y-76422D01*
X80037Y-76422D01*
X79983Y-76394D01*
X79962Y-76337D01*
X79969Y-76280D01*
X80005Y-76222D01*
X80065Y-76194D01*
X80208Y-76194D01*
X80269Y-76165D01*
X80487Y-76022D02*
X80715Y-76022D01*
X80597Y-75822D02*
X80533Y-76337D01*
X80555Y-76394D01*
X80608Y-76422D01*
X80665Y-76422D01*
X81097Y-76394D02*
X81037Y-76422D01*
X80922Y-76422D01*
X80869Y-76394D01*
X80847Y-76337D01*
X80876Y-76108D01*
X80912Y-76051D01*
X80972Y-76022D01*
X81087Y-76022D01*
X81140Y-76051D01*
X81162Y-76108D01*
X81155Y-76165D01*
X80862Y-76222D01*
X81387Y-76365D02*
X81412Y-76394D01*
X81380Y-76422D01*
X81355Y-76394D01*
X81387Y-76365D01*
X81380Y-76422D01*
X81426Y-76051D02*
X81451Y-76080D01*
X81419Y-76108D01*
X81394Y-76080D01*
X81426Y-76051D01*
X81419Y-76108D01*
X82151Y-76422D02*
X82265Y-76422D01*
X82326Y-76394D01*
X82358Y-76365D01*
X82426Y-76280D01*
X82469Y-76165D01*
X82497Y-75937D01*
X82476Y-75880D01*
X82451Y-75851D01*
X82397Y-75822D01*
X82283Y-75822D01*
X82222Y-75851D01*
X82190Y-75880D01*
X82155Y-75937D01*
X82137Y-76080D01*
X82158Y-76137D01*
X82183Y-76165D01*
X82237Y-76194D01*
X82351Y-76194D01*
X82412Y-76165D01*
X82444Y-76137D01*
X82480Y-76080D01*
X83201Y-76022D02*
X83137Y-76537D01*
X83101Y-76594D01*
X83040Y-76622D01*
X83012Y-76622D01*
X83226Y-75822D02*
X83194Y-75851D01*
X83219Y-75880D01*
X83251Y-75851D01*
X83226Y-75822D01*
X83219Y-75880D01*
X83744Y-76022D02*
X83694Y-76422D01*
X83487Y-76022D02*
X83447Y-76337D01*
X83469Y-76394D01*
X83522Y-76422D01*
X83608Y-76422D01*
X83669Y-76394D01*
X83701Y-76365D01*
X84065Y-76422D02*
X84012Y-76394D01*
X83990Y-76337D01*
X84055Y-75822D01*
X84790Y-75880D02*
X84822Y-75851D01*
X84883Y-75822D01*
X85026Y-75822D01*
X85080Y-75851D01*
X85105Y-75880D01*
X85126Y-75937D01*
X85119Y-75994D01*
X85080Y-76080D01*
X84694Y-76422D01*
X85065Y-76422D01*
X85512Y-75822D02*
X85569Y-75822D01*
X85622Y-75851D01*
X85647Y-75880D01*
X85669Y-75937D01*
X85683Y-76051D01*
X85665Y-76194D01*
X85622Y-76308D01*
X85587Y-76365D01*
X85555Y-76394D01*
X85494Y-76422D01*
X85437Y-76422D01*
X85383Y-76394D01*
X85358Y-76365D01*
X85337Y-76308D01*
X85322Y-76194D01*
X85340Y-76051D01*
X85383Y-75937D01*
X85419Y-75880D01*
X85451Y-75851D01*
X85512Y-75822D01*
X86208Y-76422D02*
X85865Y-76422D01*
X86037Y-76422D02*
X86112Y-75822D01*
X86044Y-75908D01*
X85980Y-75965D01*
X85919Y-75994D01*
X86772Y-76022D02*
X86722Y-76422D01*
X86658Y-75794D02*
X86462Y-76222D01*
X86833Y-76222D01*
X70972Y-77622D02*
X70972Y-77022D01*
X71315Y-77622D02*
X71058Y-77280D01*
X71315Y-77022D02*
X70972Y-77365D01*
X71572Y-77622D02*
X71572Y-77222D01*
X71572Y-77022D02*
X71544Y-77051D01*
X71572Y-77080D01*
X71601Y-77051D01*
X71572Y-77022D01*
X71572Y-77080D01*
X72201Y-77565D02*
X72172Y-77594D01*
X72087Y-77622D01*
X72030Y-77622D01*
X71944Y-77594D01*
X71887Y-77537D01*
X71858Y-77480D01*
X71830Y-77365D01*
X71830Y-77280D01*
X71858Y-77165D01*
X71887Y-77108D01*
X71944Y-77051D01*
X72030Y-77022D01*
X72087Y-77022D01*
X72172Y-77051D01*
X72201Y-77080D01*
X72715Y-77622D02*
X72715Y-77308D01*
X72687Y-77251D01*
X72630Y-77222D01*
X72515Y-77222D01*
X72458Y-77251D01*
X72715Y-77594D02*
X72658Y-77622D01*
X72515Y-77622D01*
X72458Y-77594D01*
X72430Y-77537D01*
X72430Y-77480D01*
X72458Y-77422D01*
X72515Y-77394D01*
X72658Y-77394D01*
X72715Y-77365D01*
X73258Y-77622D02*
X73258Y-77022D01*
X73258Y-77594D02*
X73201Y-77622D01*
X73087Y-77622D01*
X73030Y-77594D01*
X73001Y-77565D01*
X72972Y-77508D01*
X72972Y-77337D01*
X73001Y-77280D01*
X73030Y-77251D01*
X73087Y-77222D01*
X73201Y-77222D01*
X73258Y-77251D01*
X74001Y-77308D02*
X74201Y-77308D01*
X74287Y-77622D02*
X74001Y-77622D01*
X74001Y-77022D01*
X74287Y-77022D01*
X74544Y-77565D02*
X74572Y-77594D01*
X74544Y-77622D01*
X74515Y-77594D01*
X74544Y-77565D01*
X74544Y-77622D01*
X74829Y-77622D02*
X74829Y-77022D01*
X74972Y-77022D01*
X75058Y-77051D01*
X75115Y-77108D01*
X75144Y-77165D01*
X75172Y-77280D01*
X75172Y-77365D01*
X75144Y-77480D01*
X75115Y-77537D01*
X75058Y-77594D01*
X74972Y-77622D01*
X74829Y-77622D01*
X75429Y-77565D02*
X75458Y-77594D01*
X75429Y-77622D01*
X75401Y-77594D01*
X75429Y-77565D01*
X75429Y-77622D01*
X75687Y-77451D02*
X75972Y-77451D01*
X75629Y-77622D02*
X75829Y-77022D01*
X76029Y-77622D01*
X76229Y-77565D02*
X76258Y-77594D01*
X76229Y-77622D01*
X76201Y-77594D01*
X76229Y-77565D01*
X76229Y-77622D01*
X104522Y-76422D02*
X104358Y-76137D01*
X104180Y-76422D02*
X104255Y-75822D01*
X104483Y-75822D01*
X104537Y-75851D01*
X104562Y-75880D01*
X104583Y-75937D01*
X104572Y-76022D01*
X104537Y-76080D01*
X104505Y-76108D01*
X104444Y-76137D01*
X104215Y-76137D01*
X105012Y-76394D02*
X104951Y-76422D01*
X104837Y-76422D01*
X104783Y-76394D01*
X104762Y-76337D01*
X104790Y-76108D01*
X104826Y-76051D01*
X104887Y-76022D01*
X105001Y-76022D01*
X105055Y-76051D01*
X105076Y-76108D01*
X105069Y-76165D01*
X104776Y-76222D01*
X105287Y-76022D02*
X105380Y-76422D01*
X105572Y-76022D01*
X105758Y-76365D02*
X105783Y-76394D01*
X105751Y-76422D01*
X105726Y-76394D01*
X105758Y-76365D01*
X105751Y-76422D01*
X105797Y-76051D02*
X105822Y-76080D01*
X105790Y-76108D01*
X105765Y-76080D01*
X105797Y-76051D01*
X105790Y-76108D01*
X106808Y-76422D02*
X106465Y-76422D01*
X106637Y-76422D02*
X106712Y-75822D01*
X106644Y-75908D01*
X106580Y-75965D01*
X106519Y-75994D01*
X107255Y-75822D02*
X107312Y-75822D01*
X107365Y-75851D01*
X107390Y-75880D01*
X107412Y-75937D01*
X107426Y-76051D01*
X107408Y-76194D01*
X107365Y-76308D01*
X107330Y-76365D01*
X107297Y-76394D01*
X107237Y-76422D01*
X107180Y-76422D01*
X107126Y-76394D01*
X107101Y-76365D01*
X107080Y-76308D01*
X107065Y-76194D01*
X107083Y-76051D01*
X107126Y-75937D01*
X107162Y-75880D01*
X107194Y-75851D01*
X107255Y-75822D01*
X70944Y-76394D02*
X71030Y-76422D01*
X71172Y-76422D01*
X71230Y-76394D01*
X71258Y-76365D01*
X71287Y-76308D01*
X71287Y-76251D01*
X71258Y-76194D01*
X71230Y-76165D01*
X71172Y-76137D01*
X71058Y-76108D01*
X71001Y-76080D01*
X70972Y-76051D01*
X70944Y-75994D01*
X70944Y-75937D01*
X70972Y-75880D01*
X71001Y-75851D01*
X71058Y-75822D01*
X71201Y-75822D01*
X71287Y-75851D01*
X71544Y-76422D02*
X71544Y-76022D01*
X71544Y-75822D02*
X71515Y-75851D01*
X71544Y-75880D01*
X71572Y-75851D01*
X71544Y-75822D01*
X71544Y-75880D01*
X71772Y-76022D02*
X72087Y-76022D01*
X71772Y-76422D01*
X72087Y-76422D01*
X72544Y-76394D02*
X72487Y-76422D01*
X72372Y-76422D01*
X72315Y-76394D01*
X72287Y-76337D01*
X72287Y-76108D01*
X72315Y-76051D01*
X72372Y-76022D01*
X72487Y-76022D01*
X72544Y-76051D01*
X72572Y-76108D01*
X72572Y-76165D01*
X72287Y-76222D01*
X72830Y-76365D02*
X72858Y-76394D01*
X72830Y-76422D01*
X72801Y-76394D01*
X72830Y-76365D01*
X72830Y-76422D01*
X72830Y-76051D02*
X72858Y-76080D01*
X72830Y-76108D01*
X72801Y-76080D01*
X72830Y-76051D01*
X72830Y-76108D01*
X73544Y-76251D02*
X73830Y-76251D01*
X73487Y-76422D02*
X73687Y-75822D01*
X73887Y-76422D01*
X74344Y-76022D02*
X74344Y-76422D01*
X74201Y-75794D02*
X74058Y-76222D01*
X74430Y-76222D01*
X104172Y-77622D02*
X104172Y-77022D01*
X104715Y-77622D02*
X104715Y-77022D01*
X104715Y-77594D02*
X104658Y-77622D01*
X104544Y-77622D01*
X104487Y-77594D01*
X104458Y-77565D01*
X104430Y-77508D01*
X104430Y-77337D01*
X104458Y-77280D01*
X104487Y-77251D01*
X104544Y-77222D01*
X104658Y-77222D01*
X104715Y-77251D01*
X105001Y-77565D02*
X105030Y-77594D01*
X105001Y-77622D01*
X104972Y-77594D01*
X105001Y-77565D01*
X105001Y-77622D01*
X105001Y-77251D02*
X105030Y-77280D01*
X105001Y-77308D01*
X104972Y-77280D01*
X105001Y-77251D01*
X105001Y-77308D01*
X106058Y-77622D02*
X105715Y-77622D01*
X105887Y-77622D02*
X105887Y-77022D01*
X105829Y-77108D01*
X105772Y-77165D01*
X105715Y-77194D01*
X106744Y-76994D02*
X106230Y-77765D01*
X107258Y-77622D02*
X106915Y-77622D01*
X107087Y-77622D02*
X107087Y-77022D01*
X107029Y-77108D01*
X106972Y-77165D01*
X106915Y-77194D01*
X70969Y-74622D02*
X71312Y-74622D01*
X71065Y-75222D02*
X71140Y-74622D01*
X71437Y-75222D02*
X71487Y-74822D01*
X71512Y-74622D02*
X71480Y-74651D01*
X71505Y-74680D01*
X71537Y-74651D01*
X71512Y-74622D01*
X71505Y-74680D01*
X71687Y-74822D02*
X71915Y-74822D01*
X71797Y-74622D02*
X71733Y-75137D01*
X71755Y-75194D01*
X71808Y-75222D01*
X71865Y-75222D01*
X72151Y-75222D02*
X72097Y-75194D01*
X72076Y-75137D01*
X72140Y-74622D01*
X72612Y-75194D02*
X72551Y-75222D01*
X72437Y-75222D01*
X72383Y-75194D01*
X72362Y-75137D01*
X72390Y-74908D01*
X72426Y-74851D01*
X72487Y-74822D01*
X72601Y-74822D01*
X72655Y-74851D01*
X72676Y-74908D01*
X72669Y-74965D01*
X72376Y-75022D01*
X72901Y-75165D02*
X72926Y-75194D01*
X72894Y-75222D01*
X72869Y-75194D01*
X72901Y-75165D01*
X72894Y-75222D01*
X72940Y-74851D02*
X72965Y-74880D01*
X72933Y-74908D01*
X72908Y-74880D01*
X72940Y-74851D01*
X72933Y-74908D01*
X73637Y-75222D02*
X73712Y-74622D01*
X73858Y-75051D01*
X74112Y-74622D01*
X74037Y-75222D01*
X74315Y-74822D02*
X74408Y-75222D01*
X74601Y-74822D02*
X74408Y-75222D01*
X74333Y-75365D01*
X74301Y-75394D01*
X74240Y-75422D01*
X74780Y-75222D02*
X74830Y-74822D01*
X74815Y-74937D02*
X74851Y-74880D01*
X74883Y-74851D01*
X74944Y-74822D01*
X75001Y-74822D01*
X75151Y-75222D02*
X75201Y-74822D01*
X75226Y-74622D02*
X75194Y-74651D01*
X75219Y-74680D01*
X75251Y-74651D01*
X75226Y-74622D01*
X75219Y-74680D01*
X75694Y-75222D02*
X75733Y-74908D01*
X75712Y-74851D01*
X75658Y-74822D01*
X75544Y-74822D01*
X75483Y-74851D01*
X75697Y-75194D02*
X75637Y-75222D01*
X75494Y-75222D01*
X75440Y-75194D01*
X75419Y-75137D01*
X75426Y-75080D01*
X75462Y-75022D01*
X75522Y-74994D01*
X75665Y-74994D01*
X75726Y-74965D01*
X76237Y-75222D02*
X76312Y-74622D01*
X76240Y-75194D02*
X76180Y-75222D01*
X76065Y-75222D01*
X76012Y-75194D01*
X75987Y-75165D01*
X75965Y-75108D01*
X75987Y-74937D01*
X76022Y-74880D01*
X76055Y-74851D01*
X76115Y-74822D01*
X76230Y-74822D01*
X76283Y-74851D01*
X77322Y-75222D02*
X77158Y-74937D01*
X76980Y-75222D02*
X77055Y-74622D01*
X77283Y-74622D01*
X77337Y-74651D01*
X77362Y-74680D01*
X77383Y-74737D01*
X77372Y-74822D01*
X77337Y-74880D01*
X77305Y-74908D01*
X77244Y-74937D01*
X77015Y-74937D01*
X77819Y-74908D02*
X77619Y-74908D01*
X77580Y-75222D02*
X77655Y-74622D01*
X77940Y-74622D01*
X79058Y-74594D02*
X78447Y-75365D01*
X79637Y-75222D02*
X79712Y-74622D01*
X79980Y-75222D01*
X80055Y-74622D01*
X80351Y-75222D02*
X80297Y-75194D01*
X80272Y-75165D01*
X80251Y-75108D01*
X80272Y-74937D01*
X80308Y-74880D01*
X80340Y-74851D01*
X80401Y-74822D01*
X80487Y-74822D01*
X80540Y-74851D01*
X80565Y-74880D01*
X80587Y-74937D01*
X80565Y-75108D01*
X80530Y-75165D01*
X80497Y-75194D01*
X80437Y-75222D01*
X80351Y-75222D01*
X80801Y-74822D02*
X80894Y-75222D01*
X81087Y-74822D01*
X81497Y-75194D02*
X81437Y-75222D01*
X81322Y-75222D01*
X81269Y-75194D01*
X81247Y-75137D01*
X81276Y-74908D01*
X81312Y-74851D01*
X81372Y-74822D01*
X81487Y-74822D01*
X81540Y-74851D01*
X81562Y-74908D01*
X81555Y-74965D01*
X81262Y-75022D01*
X81830Y-74822D02*
X81780Y-75222D01*
X81822Y-74880D02*
X81855Y-74851D01*
X81915Y-74822D01*
X82001Y-74822D01*
X82055Y-74851D01*
X82076Y-74908D01*
X82037Y-75222D01*
X82580Y-75222D02*
X82619Y-74908D01*
X82597Y-74851D01*
X82544Y-74822D01*
X82430Y-74822D01*
X82369Y-74851D01*
X82583Y-75194D02*
X82522Y-75222D01*
X82380Y-75222D01*
X82326Y-75194D01*
X82305Y-75137D01*
X82312Y-75080D01*
X82347Y-75022D01*
X82408Y-74994D01*
X82551Y-74994D01*
X82612Y-74965D01*
X83315Y-74822D02*
X83408Y-75222D01*
X83601Y-74822D01*
X83787Y-75165D02*
X83812Y-75194D01*
X83780Y-75222D01*
X83755Y-75194D01*
X83787Y-75165D01*
X83780Y-75222D01*
X84380Y-75222D02*
X84037Y-75222D01*
X84208Y-75222D02*
X84283Y-74622D01*
X84215Y-74708D01*
X84151Y-74765D01*
X84090Y-74794D01*
X71172Y-72508D02*
X70972Y-72508D01*
X70972Y-72822D02*
X70972Y-72222D01*
X71258Y-72222D01*
X71487Y-72822D02*
X71487Y-72422D01*
X71487Y-72222D02*
X71458Y-72251D01*
X71487Y-72280D01*
X71515Y-72251D01*
X71487Y-72222D01*
X71487Y-72280D01*
X71858Y-72822D02*
X71801Y-72794D01*
X71772Y-72737D01*
X71772Y-72222D01*
X72315Y-72794D02*
X72258Y-72822D01*
X72144Y-72822D01*
X72087Y-72794D01*
X72058Y-72737D01*
X72058Y-72508D01*
X72087Y-72451D01*
X72144Y-72422D01*
X72258Y-72422D01*
X72315Y-72451D01*
X72344Y-72508D01*
X72344Y-72565D01*
X72058Y-72622D01*
X72601Y-72765D02*
X72630Y-72794D01*
X72601Y-72822D01*
X72572Y-72794D01*
X72601Y-72765D01*
X72601Y-72822D01*
X72601Y-72451D02*
X72630Y-72480D01*
X72601Y-72508D01*
X72572Y-72480D01*
X72601Y-72451D01*
X72601Y-72508D01*
X73344Y-72822D02*
X73344Y-72222D01*
X73544Y-72651D01*
X73744Y-72222D01*
X73744Y-72822D01*
X74144Y-72537D02*
X74144Y-72822D01*
X73944Y-72222D02*
X74144Y-72537D01*
X74344Y-72222D01*
X74887Y-72822D02*
X74687Y-72537D01*
X74544Y-72822D02*
X74544Y-72222D01*
X74772Y-72222D01*
X74830Y-72251D01*
X74858Y-72280D01*
X74887Y-72337D01*
X74887Y-72422D01*
X74858Y-72480D01*
X74830Y-72508D01*
X74772Y-72537D01*
X74544Y-72537D01*
X75144Y-72822D02*
X75144Y-72222D01*
X75401Y-72651D02*
X75687Y-72651D01*
X75344Y-72822D02*
X75544Y-72222D01*
X75744Y-72822D01*
X75944Y-72822D02*
X75944Y-72222D01*
X76087Y-72222D01*
X76172Y-72251D01*
X76230Y-72308D01*
X76258Y-72365D01*
X76287Y-72480D01*
X76287Y-72565D01*
X76258Y-72680D01*
X76230Y-72737D01*
X76172Y-72794D01*
X76087Y-72822D01*
X75944Y-72822D01*
X76401Y-72880D02*
X76858Y-72880D01*
X77344Y-72822D02*
X77144Y-72537D01*
X77001Y-72822D02*
X77001Y-72222D01*
X77230Y-72222D01*
X77287Y-72251D01*
X77315Y-72280D01*
X77344Y-72337D01*
X77344Y-72422D01*
X77315Y-72480D01*
X77287Y-72508D01*
X77230Y-72537D01*
X77001Y-72537D01*
X77801Y-72508D02*
X77601Y-72508D01*
X77601Y-72822D02*
X77601Y-72222D01*
X77887Y-72222D01*
X78115Y-72765D02*
X78144Y-72794D01*
X78115Y-72822D01*
X78087Y-72794D01*
X78115Y-72765D01*
X78115Y-72822D01*
X78401Y-72822D02*
X78401Y-72222D01*
X78401Y-72451D02*
X78458Y-72422D01*
X78572Y-72422D01*
X78630Y-72451D01*
X78658Y-72480D01*
X78687Y-72537D01*
X78687Y-72708D01*
X78658Y-72765D01*
X78630Y-72794D01*
X78572Y-72822D01*
X78458Y-72822D01*
X78401Y-72794D01*
X78944Y-72822D02*
X78944Y-72422D01*
X78944Y-72537D02*
X78972Y-72480D01*
X79001Y-72451D01*
X79058Y-72422D01*
X79115Y-72422D01*
X79572Y-72822D02*
X79572Y-72222D01*
X79572Y-72794D02*
X79515Y-72822D01*
X79401Y-72822D01*
X79344Y-72794D01*
X79315Y-72765D01*
X79287Y-72708D01*
X79287Y-72537D01*
X79315Y-72480D01*
X79344Y-72451D01*
X79401Y-72422D01*
X79515Y-72422D01*
X79572Y-72451D01*
X70944Y-73994D02*
X71030Y-74022D01*
X71172Y-74022D01*
X71230Y-73994D01*
X71258Y-73965D01*
X71287Y-73908D01*
X71287Y-73851D01*
X71258Y-73794D01*
X71230Y-73765D01*
X71172Y-73737D01*
X71058Y-73708D01*
X71001Y-73680D01*
X70972Y-73651D01*
X70944Y-73594D01*
X70944Y-73537D01*
X70972Y-73480D01*
X71001Y-73451D01*
X71058Y-73422D01*
X71201Y-73422D01*
X71287Y-73451D01*
X71544Y-74022D02*
X71544Y-73422D01*
X71801Y-74022D02*
X71801Y-73708D01*
X71772Y-73651D01*
X71715Y-73622D01*
X71630Y-73622D01*
X71572Y-73651D01*
X71544Y-73680D01*
X72315Y-73994D02*
X72258Y-74022D01*
X72144Y-74022D01*
X72087Y-73994D01*
X72058Y-73937D01*
X72058Y-73708D01*
X72087Y-73651D01*
X72144Y-73622D01*
X72258Y-73622D01*
X72315Y-73651D01*
X72344Y-73708D01*
X72344Y-73765D01*
X72058Y-73822D01*
X72830Y-73994D02*
X72772Y-74022D01*
X72658Y-74022D01*
X72601Y-73994D01*
X72572Y-73937D01*
X72572Y-73708D01*
X72601Y-73651D01*
X72658Y-73622D01*
X72772Y-73622D01*
X72830Y-73651D01*
X72858Y-73708D01*
X72858Y-73765D01*
X72572Y-73822D01*
X73030Y-73622D02*
X73258Y-73622D01*
X73115Y-73422D02*
X73115Y-73937D01*
X73144Y-73994D01*
X73201Y-74022D01*
X73258Y-74022D01*
X73458Y-73965D02*
X73487Y-73994D01*
X73458Y-74022D01*
X73430Y-73994D01*
X73458Y-73965D01*
X73458Y-74022D01*
X73458Y-73651D02*
X73487Y-73680D01*
X73458Y-73708D01*
X73430Y-73680D01*
X73458Y-73651D01*
X73458Y-73708D01*
X70887Y-69822D02*
X71230Y-69822D01*
X71058Y-70422D02*
X71058Y-69822D01*
X71430Y-70422D02*
X71430Y-69822D01*
X71430Y-70108D02*
X71772Y-70108D01*
X71772Y-70422D02*
X71772Y-69822D01*
X72058Y-70422D02*
X72058Y-69822D01*
X72315Y-70394D02*
X72401Y-70422D01*
X72544Y-70422D01*
X72601Y-70394D01*
X72629Y-70365D01*
X72658Y-70308D01*
X72658Y-70251D01*
X72629Y-70194D01*
X72601Y-70165D01*
X72544Y-70137D01*
X72429Y-70108D01*
X72372Y-70080D01*
X72344Y-70051D01*
X72315Y-69994D01*
X72315Y-69937D01*
X72344Y-69880D01*
X72372Y-69851D01*
X72429Y-69822D01*
X72572Y-69822D01*
X72658Y-69851D01*
X73315Y-69822D02*
X73458Y-70422D01*
X73572Y-69994D01*
X73687Y-70422D01*
X73830Y-69822D01*
X74172Y-69822D02*
X74287Y-69822D01*
X74344Y-69851D01*
X74401Y-69908D01*
X74430Y-70022D01*
X74430Y-70222D01*
X74401Y-70337D01*
X74344Y-70394D01*
X74287Y-70422D01*
X74172Y-70422D01*
X74115Y-70394D01*
X74058Y-70337D01*
X74030Y-70222D01*
X74030Y-70022D01*
X74058Y-69908D01*
X74115Y-69851D01*
X74172Y-69822D01*
X75029Y-70422D02*
X74829Y-70137D01*
X74687Y-70422D02*
X74687Y-69822D01*
X74915Y-69822D01*
X74972Y-69851D01*
X75001Y-69880D01*
X75029Y-69937D01*
X75029Y-70022D01*
X75001Y-70080D01*
X74972Y-70108D01*
X74915Y-70137D01*
X74687Y-70137D01*
X75287Y-70422D02*
X75287Y-69822D01*
X75629Y-70422D02*
X75372Y-70080D01*
X75629Y-69822D02*
X75287Y-70165D01*
X76344Y-70422D02*
X76344Y-69822D01*
X76601Y-70394D02*
X76687Y-70422D01*
X76829Y-70422D01*
X76887Y-70394D01*
X76915Y-70365D01*
X76944Y-70308D01*
X76944Y-70251D01*
X76915Y-70194D01*
X76887Y-70165D01*
X76829Y-70137D01*
X76715Y-70108D01*
X76658Y-70080D01*
X76629Y-70051D01*
X76601Y-69994D01*
X76601Y-69937D01*
X76629Y-69880D01*
X76658Y-69851D01*
X76715Y-69822D01*
X76858Y-69822D01*
X76944Y-69851D01*
X78001Y-70365D02*
X77972Y-70394D01*
X77887Y-70422D01*
X77830Y-70422D01*
X77744Y-70394D01*
X77687Y-70337D01*
X77658Y-70280D01*
X77630Y-70165D01*
X77630Y-70080D01*
X77658Y-69965D01*
X77687Y-69908D01*
X77744Y-69851D01*
X77830Y-69822D01*
X77887Y-69822D01*
X77972Y-69851D01*
X78001Y-69880D01*
X78372Y-69822D02*
X78487Y-69822D01*
X78544Y-69851D01*
X78601Y-69908D01*
X78630Y-70022D01*
X78630Y-70222D01*
X78601Y-70337D01*
X78544Y-70394D01*
X78487Y-70422D01*
X78372Y-70422D01*
X78315Y-70394D01*
X78258Y-70337D01*
X78230Y-70222D01*
X78230Y-70022D01*
X78258Y-69908D01*
X78315Y-69851D01*
X78372Y-69822D01*
X78801Y-69822D02*
X79001Y-70422D01*
X79201Y-69822D01*
X79401Y-70108D02*
X79601Y-70108D01*
X79687Y-70422D02*
X79401Y-70422D01*
X79401Y-69822D01*
X79687Y-69822D01*
X80287Y-70422D02*
X80087Y-70137D01*
X79944Y-70422D02*
X79944Y-69822D01*
X80172Y-69822D01*
X80229Y-69851D01*
X80258Y-69880D01*
X80287Y-69937D01*
X80287Y-70022D01*
X80258Y-70080D01*
X80229Y-70108D01*
X80172Y-70137D01*
X79944Y-70137D01*
X80544Y-70108D02*
X80744Y-70108D01*
X80829Y-70422D02*
X80544Y-70422D01*
X80544Y-69822D01*
X80829Y-69822D01*
X81087Y-70422D02*
X81087Y-69822D01*
X81229Y-69822D01*
X81315Y-69851D01*
X81372Y-69908D01*
X81401Y-69965D01*
X81429Y-70080D01*
X81429Y-70165D01*
X81401Y-70280D01*
X81372Y-70337D01*
X81315Y-70394D01*
X81229Y-70422D01*
X81087Y-70422D01*
X82144Y-69822D02*
X82144Y-70308D01*
X82172Y-70365D01*
X82201Y-70394D01*
X82258Y-70422D01*
X82372Y-70422D01*
X82429Y-70394D01*
X82458Y-70365D01*
X82487Y-70308D01*
X82487Y-69822D01*
X82772Y-70422D02*
X82772Y-69822D01*
X83115Y-70422D01*
X83115Y-69822D01*
X83401Y-70422D02*
X83401Y-69822D01*
X83544Y-69822D01*
X83629Y-69851D01*
X83687Y-69908D01*
X83715Y-69965D01*
X83744Y-70080D01*
X83744Y-70165D01*
X83715Y-70280D01*
X83687Y-70337D01*
X83629Y-70394D01*
X83544Y-70422D01*
X83401Y-70422D01*
X84001Y-70108D02*
X84201Y-70108D01*
X84287Y-70422D02*
X84001Y-70422D01*
X84001Y-69822D01*
X84287Y-69822D01*
X84887Y-70422D02*
X84687Y-70137D01*
X84544Y-70422D02*
X84544Y-69822D01*
X84772Y-69822D01*
X84829Y-69851D01*
X84858Y-69880D01*
X84887Y-69937D01*
X84887Y-70022D01*
X84858Y-70080D01*
X84829Y-70108D01*
X84772Y-70137D01*
X84544Y-70137D01*
X85572Y-70251D02*
X85858Y-70251D01*
X85515Y-70422D02*
X85715Y-69822D01*
X85915Y-70422D01*
X86915Y-70365D02*
X86887Y-70394D01*
X86801Y-70422D01*
X86744Y-70422D01*
X86658Y-70394D01*
X86601Y-70337D01*
X86572Y-70280D01*
X86544Y-70165D01*
X86544Y-70080D01*
X86572Y-69965D01*
X86601Y-69908D01*
X86658Y-69851D01*
X86744Y-69822D01*
X86801Y-69822D01*
X86887Y-69851D01*
X86915Y-69880D01*
X87515Y-70422D02*
X87315Y-70137D01*
X87172Y-70422D02*
X87172Y-69822D01*
X87401Y-69822D01*
X87458Y-69851D01*
X87487Y-69880D01*
X87515Y-69937D01*
X87515Y-70022D01*
X87487Y-70080D01*
X87458Y-70108D01*
X87401Y-70137D01*
X87172Y-70137D01*
X87772Y-70108D02*
X87972Y-70108D01*
X88058Y-70422D02*
X87772Y-70422D01*
X87772Y-69822D01*
X88058Y-69822D01*
X88287Y-70251D02*
X88572Y-70251D01*
X88229Y-70422D02*
X88429Y-69822D01*
X88629Y-70422D01*
X88744Y-69822D02*
X89087Y-69822D01*
X88915Y-70422D02*
X88915Y-69822D01*
X89287Y-70422D02*
X89287Y-69822D01*
X89487Y-69822D02*
X89687Y-70422D01*
X89887Y-69822D01*
X90087Y-70108D02*
X90287Y-70108D01*
X90372Y-70422D02*
X90087Y-70422D01*
X90087Y-69822D01*
X90372Y-69822D01*
X91429Y-70365D02*
X91401Y-70394D01*
X91315Y-70422D01*
X91258Y-70422D01*
X91172Y-70394D01*
X91115Y-70337D01*
X91087Y-70280D01*
X91058Y-70165D01*
X91058Y-70080D01*
X91087Y-69965D01*
X91115Y-69908D01*
X91172Y-69851D01*
X91258Y-69822D01*
X91315Y-69822D01*
X91401Y-69851D01*
X91429Y-69880D01*
X91801Y-69822D02*
X91915Y-69822D01*
X91972Y-69851D01*
X92029Y-69908D01*
X92058Y-70022D01*
X92058Y-70222D01*
X92029Y-70337D01*
X91972Y-70394D01*
X91915Y-70422D01*
X91801Y-70422D01*
X91744Y-70394D01*
X91687Y-70337D01*
X91658Y-70222D01*
X91658Y-70022D01*
X91687Y-69908D01*
X91744Y-69851D01*
X91801Y-69822D01*
X92315Y-70422D02*
X92315Y-69822D01*
X92515Y-70251D01*
X92715Y-69822D01*
X92715Y-70422D01*
X93001Y-70422D02*
X93001Y-69822D01*
X93201Y-70251D01*
X93401Y-69822D01*
X93401Y-70422D01*
X93801Y-69822D02*
X93915Y-69822D01*
X93972Y-69851D01*
X94029Y-69908D01*
X94058Y-70022D01*
X94058Y-70222D01*
X94029Y-70337D01*
X93972Y-70394D01*
X93915Y-70422D01*
X93801Y-70422D01*
X93744Y-70394D01*
X93687Y-70337D01*
X93658Y-70222D01*
X93658Y-70022D01*
X93687Y-69908D01*
X93744Y-69851D01*
X93801Y-69822D01*
X94315Y-70422D02*
X94315Y-69822D01*
X94658Y-70422D01*
X94658Y-69822D01*
X94915Y-70394D02*
X95001Y-70422D01*
X95144Y-70422D01*
X95201Y-70394D01*
X95229Y-70365D01*
X95258Y-70308D01*
X95258Y-70251D01*
X95229Y-70194D01*
X95201Y-70165D01*
X95144Y-70137D01*
X95029Y-70108D01*
X94972Y-70080D01*
X94944Y-70051D01*
X94915Y-69994D01*
X94915Y-69937D01*
X94944Y-69880D01*
X94972Y-69851D01*
X95029Y-69822D01*
X95172Y-69822D01*
X95258Y-69851D01*
X96258Y-70422D02*
X95972Y-70422D01*
X95972Y-69822D01*
X96458Y-70422D02*
X96458Y-69822D01*
X97087Y-70365D02*
X97058Y-70394D01*
X96972Y-70422D01*
X96915Y-70422D01*
X96829Y-70394D01*
X96772Y-70337D01*
X96744Y-70280D01*
X96715Y-70165D01*
X96715Y-70080D01*
X96744Y-69965D01*
X96772Y-69908D01*
X96829Y-69851D01*
X96915Y-69822D01*
X96972Y-69822D01*
X97058Y-69851D01*
X97087Y-69880D01*
X97344Y-70108D02*
X97544Y-70108D01*
X97629Y-70422D02*
X97344Y-70422D01*
X97344Y-69822D01*
X97629Y-69822D01*
X97887Y-70422D02*
X97887Y-69822D01*
X98229Y-70422D01*
X98229Y-69822D01*
X98487Y-70394D02*
X98572Y-70422D01*
X98715Y-70422D01*
X98772Y-70394D01*
X98801Y-70365D01*
X98829Y-70308D01*
X98829Y-70251D01*
X98801Y-70194D01*
X98772Y-70165D01*
X98715Y-70137D01*
X98601Y-70108D01*
X98544Y-70080D01*
X98515Y-70051D01*
X98487Y-69994D01*
X98487Y-69937D01*
X98515Y-69880D01*
X98544Y-69851D01*
X98601Y-69822D01*
X98744Y-69822D01*
X98829Y-69851D01*
X99087Y-70108D02*
X99287Y-70108D01*
X99372Y-70422D02*
X99087Y-70422D01*
X99087Y-69822D01*
X99372Y-69822D01*
X100258Y-70651D02*
X100229Y-70622D01*
X100172Y-70537D01*
X100144Y-70480D01*
X100115Y-70394D01*
X100087Y-70251D01*
X100087Y-70137D01*
X100115Y-69994D01*
X100144Y-69908D01*
X100172Y-69851D01*
X100229Y-69765D01*
X100258Y-69737D01*
X100829Y-70365D02*
X100801Y-70394D01*
X100715Y-70422D01*
X100658Y-70422D01*
X100572Y-70394D01*
X100515Y-70337D01*
X100487Y-70280D01*
X100458Y-70165D01*
X100458Y-70080D01*
X100487Y-69965D01*
X100515Y-69908D01*
X100572Y-69851D01*
X100658Y-69822D01*
X100715Y-69822D01*
X100801Y-69851D01*
X100829Y-69880D01*
X101429Y-70365D02*
X101401Y-70394D01*
X101315Y-70422D01*
X101258Y-70422D01*
X101172Y-70394D01*
X101115Y-70337D01*
X101087Y-70280D01*
X101058Y-70165D01*
X101058Y-70080D01*
X101087Y-69965D01*
X101115Y-69908D01*
X101172Y-69851D01*
X101258Y-69822D01*
X101315Y-69822D01*
X101401Y-69851D01*
X101429Y-69880D01*
X102344Y-70108D02*
X102429Y-70137D01*
X102458Y-70165D01*
X102487Y-70222D01*
X102487Y-70308D01*
X102458Y-70365D01*
X102429Y-70394D01*
X102372Y-70422D01*
X102144Y-70422D01*
X102144Y-69822D01*
X102344Y-69822D01*
X102401Y-69851D01*
X102429Y-69880D01*
X102458Y-69937D01*
X102458Y-69994D01*
X102429Y-70051D01*
X102401Y-70080D01*
X102344Y-70108D01*
X102144Y-70108D01*
X102858Y-70137D02*
X102858Y-70422D01*
X102658Y-69822D02*
X102858Y-70137D01*
X103058Y-69822D01*
X103658Y-69822D02*
X104029Y-69822D01*
X103829Y-70051D01*
X103915Y-70051D01*
X103972Y-70080D01*
X104001Y-70108D01*
X104029Y-70165D01*
X104029Y-70308D01*
X104001Y-70365D01*
X103972Y-70394D01*
X103915Y-70422D01*
X103744Y-70422D01*
X103687Y-70394D01*
X103658Y-70365D01*
X104287Y-70365D02*
X104315Y-70394D01*
X104287Y-70422D01*
X104258Y-70394D01*
X104287Y-70365D01*
X104287Y-70422D01*
X104687Y-69822D02*
X104744Y-69822D01*
X104801Y-69851D01*
X104829Y-69880D01*
X104858Y-69937D01*
X104887Y-70051D01*
X104887Y-70194D01*
X104858Y-70308D01*
X104829Y-70365D01*
X104801Y-70394D01*
X104744Y-70422D01*
X104687Y-70422D01*
X104629Y-70394D01*
X104601Y-70365D01*
X104572Y-70308D01*
X104544Y-70194D01*
X104544Y-70051D01*
X104572Y-69937D01*
X104601Y-69880D01*
X104629Y-69851D01*
X104687Y-69822D01*
X105087Y-70651D02*
X105115Y-70622D01*
X105172Y-70537D01*
X105201Y-70480D01*
X105229Y-70394D01*
X105258Y-70251D01*
X105258Y-70137D01*
X105229Y-69994D01*
X105201Y-69908D01*
X105172Y-69851D01*
X105115Y-69765D01*
X105087Y-69737D01*
X71315Y-69165D02*
X71287Y-69194D01*
X71201Y-69222D01*
X71144Y-69222D01*
X71058Y-69194D01*
X71001Y-69137D01*
X70972Y-69080D01*
X70944Y-68965D01*
X70944Y-68880D01*
X70972Y-68765D01*
X71001Y-68708D01*
X71058Y-68651D01*
X71144Y-68622D01*
X71201Y-68622D01*
X71287Y-68651D01*
X71315Y-68680D01*
X71658Y-69222D02*
X71601Y-69194D01*
X71572Y-69165D01*
X71544Y-69108D01*
X71544Y-68937D01*
X71572Y-68880D01*
X71601Y-68851D01*
X71658Y-68822D01*
X71744Y-68822D01*
X71801Y-68851D01*
X71830Y-68880D01*
X71858Y-68937D01*
X71858Y-69108D01*
X71830Y-69165D01*
X71801Y-69194D01*
X71744Y-69222D01*
X71658Y-69222D01*
X72115Y-68822D02*
X72115Y-69422D01*
X72115Y-68851D02*
X72172Y-68822D01*
X72287Y-68822D01*
X72344Y-68851D01*
X72372Y-68880D01*
X72401Y-68937D01*
X72401Y-69108D01*
X72372Y-69165D01*
X72344Y-69194D01*
X72287Y-69222D01*
X72172Y-69222D01*
X72115Y-69194D01*
X72601Y-68822D02*
X72744Y-69222D01*
X72887Y-68822D02*
X72744Y-69222D01*
X72687Y-69365D01*
X72658Y-69394D01*
X72601Y-69422D01*
X73115Y-69222D02*
X73115Y-68822D01*
X73115Y-68937D02*
X73144Y-68880D01*
X73172Y-68851D01*
X73230Y-68822D01*
X73287Y-68822D01*
X73487Y-69222D02*
X73487Y-68822D01*
X73487Y-68622D02*
X73458Y-68651D01*
X73487Y-68680D01*
X73515Y-68651D01*
X73487Y-68622D01*
X73487Y-68680D01*
X74030Y-68822D02*
X74030Y-69308D01*
X74001Y-69365D01*
X73972Y-69394D01*
X73915Y-69422D01*
X73830Y-69422D01*
X73772Y-69394D01*
X74030Y-69194D02*
X73972Y-69222D01*
X73858Y-69222D01*
X73801Y-69194D01*
X73772Y-69165D01*
X73744Y-69108D01*
X73744Y-68937D01*
X73772Y-68880D01*
X73801Y-68851D01*
X73858Y-68822D01*
X73972Y-68822D01*
X74030Y-68851D01*
X74315Y-69222D02*
X74315Y-68622D01*
X74572Y-69222D02*
X74572Y-68908D01*
X74544Y-68851D01*
X74487Y-68822D01*
X74401Y-68822D01*
X74344Y-68851D01*
X74315Y-68880D01*
X74772Y-68822D02*
X75001Y-68822D01*
X74858Y-68622D02*
X74858Y-69137D01*
X74887Y-69194D01*
X74944Y-69222D01*
X75001Y-69222D01*
X75630Y-68680D02*
X75658Y-68651D01*
X75715Y-68622D01*
X75858Y-68622D01*
X75915Y-68651D01*
X75944Y-68680D01*
X75972Y-68737D01*
X75972Y-68794D01*
X75944Y-68880D01*
X75601Y-69222D01*
X75972Y-69222D01*
X76344Y-68622D02*
X76401Y-68622D01*
X76458Y-68651D01*
X76487Y-68680D01*
X76515Y-68737D01*
X76544Y-68851D01*
X76544Y-68994D01*
X76515Y-69108D01*
X76487Y-69165D01*
X76458Y-69194D01*
X76401Y-69222D01*
X76344Y-69222D01*
X76287Y-69194D01*
X76258Y-69165D01*
X76230Y-69108D01*
X76201Y-68994D01*
X76201Y-68851D01*
X76230Y-68737D01*
X76258Y-68680D01*
X76287Y-68651D01*
X76344Y-68622D01*
X77115Y-69222D02*
X76772Y-69222D01*
X76944Y-69222D02*
X76944Y-68622D01*
X76887Y-68708D01*
X76830Y-68765D01*
X76772Y-68794D01*
X77315Y-68622D02*
X77687Y-68622D01*
X77487Y-68851D01*
X77572Y-68851D01*
X77630Y-68880D01*
X77658Y-68908D01*
X77687Y-68965D01*
X77687Y-69108D01*
X77658Y-69165D01*
X77630Y-69194D01*
X77572Y-69222D01*
X77401Y-69222D01*
X77344Y-69194D01*
X77315Y-69165D01*
X78372Y-69051D02*
X78658Y-69051D01*
X78315Y-69222D02*
X78515Y-68622D01*
X78715Y-69222D01*
X78858Y-68622D02*
X79258Y-68622D01*
X78858Y-69222D01*
X79258Y-69222D01*
X79487Y-69222D02*
X79487Y-68622D01*
X79887Y-68622D02*
X80001Y-68622D01*
X80058Y-68651D01*
X80115Y-68708D01*
X80144Y-68822D01*
X80144Y-69022D01*
X80115Y-69137D01*
X80058Y-69194D01*
X80001Y-69222D01*
X79887Y-69222D01*
X79830Y-69194D01*
X79772Y-69137D01*
X79744Y-69022D01*
X79744Y-68822D01*
X79772Y-68708D01*
X79830Y-68651D01*
X79887Y-68622D01*
X80858Y-68908D02*
X81058Y-68908D01*
X81144Y-69222D02*
X80858Y-69222D01*
X80858Y-68622D01*
X81144Y-68622D01*
X81487Y-69222D02*
X81430Y-69194D01*
X81401Y-69137D01*
X81401Y-68622D01*
X81944Y-69194D02*
X81887Y-69222D01*
X81772Y-69222D01*
X81715Y-69194D01*
X81687Y-69137D01*
X81687Y-68908D01*
X81715Y-68851D01*
X81772Y-68822D01*
X81887Y-68822D01*
X81944Y-68851D01*
X81972Y-68908D01*
X81972Y-68965D01*
X81687Y-69022D01*
X82487Y-69194D02*
X82430Y-69222D01*
X82315Y-69222D01*
X82258Y-69194D01*
X82230Y-69165D01*
X82201Y-69108D01*
X82201Y-68937D01*
X82230Y-68880D01*
X82258Y-68851D01*
X82315Y-68822D01*
X82430Y-68822D01*
X82487Y-68851D01*
X82658Y-68822D02*
X82887Y-68822D01*
X82744Y-68622D02*
X82744Y-69137D01*
X82772Y-69194D01*
X82830Y-69222D01*
X82887Y-69222D01*
X83087Y-69222D02*
X83087Y-68822D01*
X83087Y-68937D02*
X83115Y-68880D01*
X83144Y-68851D01*
X83201Y-68822D01*
X83258Y-68822D01*
X83544Y-69222D02*
X83487Y-69194D01*
X83458Y-69165D01*
X83430Y-69108D01*
X83430Y-68937D01*
X83458Y-68880D01*
X83487Y-68851D01*
X83544Y-68822D01*
X83630Y-68822D01*
X83687Y-68851D01*
X83715Y-68880D01*
X83744Y-68937D01*
X83744Y-69108D01*
X83715Y-69165D01*
X83687Y-69194D01*
X83630Y-69222D01*
X83544Y-69222D01*
X84001Y-68822D02*
X84001Y-69222D01*
X84001Y-68880D02*
X84030Y-68851D01*
X84087Y-68822D01*
X84172Y-68822D01*
X84230Y-68851D01*
X84258Y-68908D01*
X84258Y-69222D01*
X84544Y-69222D02*
X84544Y-68822D01*
X84544Y-68622D02*
X84515Y-68651D01*
X84544Y-68680D01*
X84572Y-68651D01*
X84544Y-68622D01*
X84544Y-68680D01*
X85087Y-69194D02*
X85030Y-69222D01*
X84915Y-69222D01*
X84858Y-69194D01*
X84830Y-69165D01*
X84801Y-69108D01*
X84801Y-68937D01*
X84830Y-68880D01*
X84858Y-68851D01*
X84915Y-68822D01*
X85030Y-68822D01*
X85087Y-68851D01*
X85315Y-69194D02*
X85372Y-69222D01*
X85487Y-69222D01*
X85544Y-69194D01*
X85572Y-69137D01*
X85572Y-69108D01*
X85544Y-69051D01*
X85487Y-69022D01*
X85401Y-69022D01*
X85344Y-68994D01*
X85315Y-68937D01*
X85315Y-68908D01*
X85344Y-68851D01*
X85401Y-68822D01*
X85487Y-68822D01*
X85544Y-68851D01*
X86630Y-69165D02*
X86601Y-69194D01*
X86515Y-69222D01*
X86458Y-69222D01*
X86372Y-69194D01*
X86315Y-69137D01*
X86287Y-69080D01*
X86258Y-68965D01*
X86258Y-68880D01*
X86287Y-68765D01*
X86315Y-68708D01*
X86372Y-68651D01*
X86458Y-68622D01*
X86515Y-68622D01*
X86601Y-68651D01*
X86630Y-68680D01*
X86972Y-69222D02*
X86915Y-69194D01*
X86887Y-69165D01*
X86858Y-69108D01*
X86858Y-68937D01*
X86887Y-68880D01*
X86915Y-68851D01*
X86972Y-68822D01*
X87058Y-68822D01*
X87115Y-68851D01*
X87144Y-68880D01*
X87172Y-68937D01*
X87172Y-69108D01*
X87144Y-69165D01*
X87115Y-69194D01*
X87058Y-69222D01*
X86972Y-69222D01*
X87430Y-69165D02*
X87458Y-69194D01*
X87430Y-69222D01*
X87401Y-69194D01*
X87430Y-69165D01*
X87430Y-69222D01*
X87744Y-69194D02*
X87744Y-69222D01*
X87715Y-69280D01*
X87687Y-69308D01*
X88744Y-69222D02*
X88458Y-69222D01*
X88458Y-68622D01*
X88858Y-68822D02*
X89087Y-68822D01*
X88944Y-68622D02*
X88944Y-69137D01*
X88972Y-69194D01*
X89030Y-69222D01*
X89087Y-69222D01*
X89544Y-69222D02*
X89544Y-68622D01*
X89544Y-69194D02*
X89487Y-69222D01*
X89372Y-69222D01*
X89315Y-69194D01*
X89287Y-69165D01*
X89258Y-69108D01*
X89258Y-68937D01*
X89287Y-68880D01*
X89315Y-68851D01*
X89372Y-68822D01*
X89487Y-68822D01*
X89544Y-68851D01*
X89830Y-69165D02*
X89858Y-69194D01*
X89830Y-69222D01*
X89801Y-69194D01*
X89830Y-69165D01*
X89830Y-69222D01*
X70230Y-68380D02*
X70230Y-77980D01*
X70230Y-71980D02*
X112230Y-71980D01*
X70230Y-68380D02*
X112230Y-68380D01*
X70230Y-74380D02*
X112230Y-74380D01*
X103430Y-75580D02*
X103430Y-77980D01*
X70230Y-76780D02*
X112230Y-76780D01*
X70230Y-75580D02*
X112230Y-75580D01*
X76830Y-75580D02*
X76830Y-76780D01*
G54D11*
X53267Y-36456D02*
X53267Y-35433D01*
X53818Y-36456D02*
X53267Y-36456D01*
X53818Y-35433D02*
X53818Y-36456D01*
X53267Y-35433D02*
X53818Y-35433D01*
X53267Y-35236D02*
X53267Y-34212D01*
X53818Y-35236D02*
X53267Y-35236D01*
X53818Y-34212D02*
X53818Y-35236D01*
X53267Y-34212D02*
X53818Y-34212D01*
X53110Y-35393D02*
X53110Y-35944D01*
X53110Y-35944D02*
X52086Y-35944D01*
X52086Y-35944D02*
X52086Y-35393D01*
X52086Y-35393D02*
X53110Y-35393D01*
X53110Y-34685D02*
X53110Y-35236D01*
X53110Y-35236D02*
X52086Y-35236D01*
X52086Y-35236D02*
X52086Y-34685D01*
X52086Y-34685D02*
X53110Y-34685D01*
X52716Y-42244D02*
X52716Y-42795D01*
X52716Y-42795D02*
X51692Y-42795D01*
X51692Y-42795D02*
X51692Y-42244D01*
X51692Y-42244D02*
X52716Y-42244D01*
X52283Y-42125D02*
X52283Y-41102D01*
X52834Y-42125D02*
X52283Y-42125D01*
X52834Y-41102D02*
X52834Y-42125D01*
X52283Y-41102D02*
X52834Y-41102D01*
X51574Y-42125D02*
X51574Y-41102D01*
X52125Y-42125D02*
X51574Y-42125D01*
X52125Y-41102D02*
X52125Y-42125D01*
X51574Y-41102D02*
X52125Y-41102D01*
X53307Y-40433D02*
X53307Y-40984D01*
X53307Y-40984D02*
X52283Y-40984D01*
X52283Y-40984D02*
X52283Y-40433D01*
X52283Y-40433D02*
X53307Y-40433D01*
X52125Y-40433D02*
X52125Y-40984D01*
X52125Y-40984D02*
X51102Y-40984D01*
X51102Y-40984D02*
X51102Y-40433D01*
X51102Y-40433D02*
X52125Y-40433D01*
X51574Y-40314D02*
X51574Y-39291D01*
X52125Y-40314D02*
X51574Y-40314D01*
X52125Y-39291D02*
X52125Y-40314D01*
X51574Y-39291D02*
X52125Y-39291D01*
X52283Y-40314D02*
X52283Y-39291D01*
X52834Y-40314D02*
X52283Y-40314D01*
X52834Y-39291D02*
X52834Y-40314D01*
X52283Y-39291D02*
X52834Y-39291D01*
X53267Y-38622D02*
X53267Y-39173D01*
X53267Y-39173D02*
X52244Y-39173D01*
X52244Y-39173D02*
X52244Y-38622D01*
X52244Y-38622D02*
X53267Y-38622D01*
X52716Y-37952D02*
X52716Y-38503D01*
X52716Y-38503D02*
X51692Y-38503D01*
X51692Y-38503D02*
X51692Y-37952D01*
X51692Y-37952D02*
X52716Y-37952D01*
X51102Y-38622D02*
X52125Y-38622D01*
X51102Y-39173D02*
X51102Y-38622D01*
X52125Y-39173D02*
X51102Y-39173D01*
X52125Y-38622D02*
X52125Y-39173D01*
X46007Y-30019D02*
X48370Y-30019D01*
X48370Y-30019D02*
X48370Y-32401D01*
X48370Y-32401D02*
X56384Y-32401D01*
X46007Y-30019D02*
X46007Y-34570D01*
X41283Y-52483D02*
X41283Y-27680D01*
X67661Y-52483D02*
X41283Y-52483D01*
X67661Y-27680D02*
X67661Y-52483D01*
X41283Y-27680D02*
X67661Y-27680D01*
X64905Y-32401D02*
X64905Y-39492D01*
X57764Y-32401D02*
X64905Y-32401D01*
X57764Y-32401D02*
X57764Y-29648D01*
X65692Y-29650D02*
X57764Y-29650D01*
X65692Y-39492D02*
X65692Y-29650D01*
X64905Y-39492D02*
X65692Y-39492D01*
X57764Y-50515D02*
X57764Y-49728D01*
X65692Y-50515D02*
X57764Y-50515D01*
X65692Y-40948D02*
X65692Y-50515D01*
X64905Y-40948D02*
X65692Y-40948D01*
X64905Y-49728D02*
X64905Y-40948D01*
X57764Y-49728D02*
X64905Y-49728D01*
X45220Y-50515D02*
X45220Y-44413D01*
X56386Y-50515D02*
X45220Y-50515D01*
X56386Y-49728D02*
X56386Y-50515D01*
X46007Y-49728D02*
X56386Y-49728D01*
X46007Y-44413D02*
X46007Y-49728D01*
X46007Y-44413D02*
X45220Y-44413D01*
X45220Y-43390D02*
X45220Y-35555D01*
X46007Y-43390D02*
X45220Y-43390D01*
X46007Y-35555D02*
X46007Y-43390D01*
X46007Y-35555D02*
X45220Y-35555D01*
X46007Y-34570D02*
X45220Y-34570D01*
X45220Y-29648D02*
X45220Y-34570D01*
X45220Y-29648D02*
X56384Y-29648D01*
X56384Y-32401D02*
X56384Y-29648D01*
G54D10*
X63203Y-43237D02*
X63383Y-43237D01*
X63293Y-43552D02*
X63293Y-43237D01*
X63458Y-43237D02*
X63668Y-43552D01*
X63668Y-43237D02*
X63458Y-43552D01*
X63743Y-43237D02*
X63923Y-43237D01*
X63833Y-43552D02*
X63833Y-43237D01*
X64028Y-43387D02*
X64133Y-43387D01*
X64178Y-43552D02*
X64028Y-43552D01*
X64028Y-43237D01*
X64178Y-43237D01*
X64298Y-43537D02*
X64343Y-43552D01*
X64418Y-43552D01*
X64448Y-43537D01*
X64463Y-43522D01*
X64478Y-43492D01*
X64478Y-43462D01*
X64463Y-43432D01*
X64448Y-43417D01*
X64418Y-43402D01*
X64358Y-43387D01*
X64328Y-43372D01*
X64313Y-43357D01*
X64298Y-43327D01*
X64298Y-43297D01*
X64313Y-43267D01*
X64328Y-43252D01*
X64358Y-43237D01*
X64433Y-43237D01*
X64478Y-43252D01*
X64568Y-43237D02*
X64748Y-43237D01*
X64658Y-43552D02*
X64658Y-43237D01*
X63371Y-36627D02*
X63266Y-36477D01*
X63191Y-36627D02*
X63191Y-36312D01*
X63311Y-36312D01*
X63341Y-36327D01*
X63356Y-36342D01*
X63371Y-36372D01*
X63371Y-36417D01*
X63356Y-36447D01*
X63341Y-36462D01*
X63311Y-36477D01*
X63191Y-36477D01*
X63476Y-36312D02*
X63686Y-36627D01*
X63686Y-36312D02*
X63476Y-36627D01*
X63761Y-36312D02*
X63941Y-36312D01*
X63851Y-36627D02*
X63851Y-36312D01*
X64046Y-36462D02*
X64151Y-36462D01*
X64196Y-36627D02*
X64046Y-36627D01*
X64046Y-36312D01*
X64196Y-36312D01*
X64316Y-36612D02*
X64361Y-36627D01*
X64436Y-36627D01*
X64466Y-36612D01*
X64481Y-36597D01*
X64496Y-36567D01*
X64496Y-36537D01*
X64481Y-36507D01*
X64466Y-36492D01*
X64436Y-36477D01*
X64376Y-36462D01*
X64346Y-36447D01*
X64331Y-36432D01*
X64316Y-36402D01*
X64316Y-36372D01*
X64331Y-36342D01*
X64346Y-36327D01*
X64376Y-36312D01*
X64451Y-36312D01*
X64496Y-36327D01*
X64586Y-36312D02*
X64766Y-36312D01*
X64676Y-36627D02*
X64676Y-36312D01*
G54D11*
X49526Y-32874D02*
X49370Y-32874D01*
X49959Y-32874D02*
X49803Y-32874D01*
X51523Y-35221D02*
X51367Y-35221D01*
X60438Y-41181D02*
X60594Y-41181D01*
X55377Y-38744D02*
X55221Y-38744D01*
X60960Y-41165D02*
X60804Y-41165D01*
X60540Y-38599D02*
X60696Y-38599D01*
X60342Y-38587D02*
X60186Y-38587D01*
X59803Y-38016D02*
X59803Y-38172D01*
X59681Y-43495D02*
X59681Y-43299D01*
X58168Y-36283D02*
X57972Y-36283D01*
X59673Y-42491D02*
X59673Y-42295D01*
X60590Y-36641D02*
X60786Y-36641D01*
X57468Y-36897D02*
X57468Y-36701D01*
X59555Y-36641D02*
X59751Y-36641D01*
X57464Y-35881D02*
X57464Y-35685D01*
X58641Y-37893D02*
X58641Y-37697D01*
X60157Y-37306D02*
X60157Y-37110D01*
X58090Y-42609D02*
X58090Y-42413D01*
X57401Y-42405D02*
X57401Y-42601D01*
X61075Y-42543D02*
X61271Y-42543D01*
X60673Y-43180D02*
X60673Y-42984D01*
X60079Y-42551D02*
X60275Y-42551D01*
X57067Y-38082D02*
X57067Y-37886D01*
X56398Y-36598D02*
X56398Y-36402D01*
X55720Y-36398D02*
X55720Y-36594D01*
X57850Y-38074D02*
X57850Y-37878D01*
X61095Y-36826D02*
X61251Y-36826D01*
X61625Y-43070D02*
X61469Y-43070D01*
X61251Y-43259D02*
X61095Y-43259D01*
X60677Y-42634D02*
X60677Y-42790D01*
X60263Y-43259D02*
X60107Y-43259D01*
X59677Y-43006D02*
X59677Y-43162D01*
X59677Y-42642D02*
X59677Y-42798D01*
X59123Y-42901D02*
X59279Y-42901D01*
X59751Y-37385D02*
X59595Y-37385D01*
X57409Y-45626D02*
X57409Y-45782D01*
X58031Y-35299D02*
X58031Y-35455D01*
X57999Y-43007D02*
X57843Y-43007D01*
X57648Y-43007D02*
X57492Y-43007D01*
X57744Y-42103D02*
X57744Y-42259D01*
X59173Y-37126D02*
X59173Y-37282D01*
X60766Y-37385D02*
X60610Y-37385D01*
X60161Y-36733D02*
X60161Y-36889D01*
X57559Y-36295D02*
X57715Y-36295D01*
X52153Y-36418D02*
X52153Y-36574D01*
X58248Y-35709D02*
X58248Y-35865D01*
X57992Y-37307D02*
X58148Y-37307D01*
X57563Y-37311D02*
X57719Y-37311D01*
X56146Y-37047D02*
X56302Y-37047D01*
X58248Y-36713D02*
X58248Y-36869D01*
X57496Y-34547D02*
X57496Y-34703D01*
X55811Y-37007D02*
X55967Y-37007D01*
X59161Y-36736D02*
X59161Y-36892D01*
X61996Y-35197D02*
X61996Y-35353D01*
X48454Y-36953D02*
X48610Y-36953D01*
X48610Y-37634D02*
X48454Y-37634D01*
X60441Y-38032D02*
X60441Y-38188D01*
X60445Y-39005D02*
X60445Y-39161D01*
X60441Y-39328D02*
X60441Y-39484D01*
X60705Y-40229D02*
X60705Y-40385D01*
X60693Y-41571D02*
X60693Y-41727D01*
X55106Y-39330D02*
X55106Y-39174D01*
X60713Y-40571D02*
X60713Y-40727D01*
X55382Y-48594D02*
X55538Y-48594D01*
G54D12*
X56878Y-45326D02*
X56940Y-45326D01*
X56940Y-43826D02*
X56878Y-43826D01*
X58610Y-43826D02*
X58532Y-43826D01*
X58610Y-43826D02*
X58610Y-45326D01*
X58610Y-45326D02*
X58532Y-45326D01*
X56878Y-43826D02*
X56878Y-45326D01*
G54D13*
X56936Y-34374D02*
X56874Y-34374D01*
X56874Y-35874D02*
X56936Y-35874D01*
X55202Y-35874D02*
X55280Y-35874D01*
X55202Y-35874D02*
X55202Y-34374D01*
X55202Y-34374D02*
X55280Y-34374D01*
X56936Y-35874D02*
X56936Y-34374D01*
G54D14*
X60688Y-45173D02*
G75*
G03X60688Y-45173I-39J0D01*
G74*
G01*
G54D13*
X60413Y-45141D02*
X60413Y-44236D01*
X60413Y-44236D02*
X61594Y-44236D01*
X61594Y-44236D02*
X61594Y-45417D01*
X61594Y-45417D02*
X60688Y-45417D01*
X60688Y-45417D02*
X60413Y-45141D01*
G54D11*
X62027Y-44748D02*
X62027Y-44904D01*
G54D12*
X56051Y-41580D02*
X56051Y-41742D01*
X56051Y-41742D02*
X56208Y-41742D01*
X59446Y-41739D02*
X59290Y-41739D01*
X59446Y-41577D02*
X59446Y-41739D01*
X59278Y-38330D02*
X59441Y-38330D01*
X59441Y-38330D02*
X59441Y-38487D01*
X56012Y-38502D02*
X56223Y-38291D01*
G54D11*
X47279Y-35633D02*
X47279Y-35477D01*
X46929Y-35906D02*
X46929Y-36062D01*
G54D13*
X47854Y-37972D02*
X46240Y-37972D01*
X46240Y-37972D02*
X46240Y-36299D01*
X46240Y-36299D02*
X47854Y-36299D01*
X47854Y-36299D02*
X47854Y-37972D01*
G54D11*
X48216Y-32575D02*
X48216Y-32731D01*
X49605Y-34448D02*
X49449Y-34448D01*
G54D12*
X47244Y-44291D02*
X46300Y-44291D01*
X47244Y-44291D02*
X47244Y-46325D01*
X47244Y-46325D02*
X46300Y-46325D01*
X46300Y-44291D02*
X46300Y-46325D01*
G54D15*
X46338Y-32874D02*
X46338Y-35314D01*
X46338Y-35314D02*
X49172Y-35314D01*
X49172Y-35314D02*
X49172Y-32874D01*
X49172Y-32874D02*
X46338Y-32874D01*
G54D14*
X48818Y-33385D02*
X48858Y-33385D01*
X48818Y-33385D02*
X46653Y-33385D01*
X46653Y-33385D02*
X46653Y-34803D01*
X46653Y-34803D02*
X48858Y-34803D01*
X48858Y-34803D02*
X48858Y-33385D01*
G54D12*
X64370Y-48133D02*
X64370Y-47149D01*
X64370Y-48133D02*
X59410Y-48133D01*
X59410Y-48133D02*
X59410Y-47149D01*
X64370Y-47149D02*
X59410Y-47149D01*
X59374Y-48720D02*
X59374Y-49704D01*
X59374Y-48720D02*
X64334Y-48720D01*
X64334Y-48720D02*
X64334Y-49704D01*
X59374Y-49704D02*
X64334Y-49704D01*
G54D13*
X56220Y-48779D02*
X56220Y-49094D01*
X59037Y-34651D02*
X59174Y-34651D01*
X59037Y-34651D02*
X59037Y-34788D01*
X60295Y-34788D02*
X60295Y-34651D01*
X60295Y-34651D02*
X60158Y-34651D01*
X60158Y-35909D02*
X60295Y-35909D01*
X60295Y-35772D02*
X60295Y-35909D01*
X59037Y-35772D02*
X59174Y-35909D01*
G54D14*
X63098Y-36185D02*
X63098Y-34846D01*
X63098Y-34846D02*
X63452Y-34374D01*
X64555Y-36185D02*
X64909Y-36185D01*
X64909Y-36185D02*
X64909Y-35948D01*
X64909Y-34374D02*
X63452Y-34374D01*
X63098Y-36185D02*
X64555Y-36185D01*
X64909Y-35948D02*
X64909Y-34374D01*
X63098Y-45732D02*
X63098Y-44393D01*
X63098Y-44393D02*
X63452Y-43921D01*
X64555Y-45732D02*
X64909Y-45732D01*
X64909Y-45732D02*
X64909Y-45496D01*
X64909Y-43921D02*
X63452Y-43921D01*
X63098Y-45732D02*
X64555Y-45732D01*
X64909Y-45496D02*
X64909Y-43921D01*
X57440Y-33503D02*
X51535Y-33503D01*
X57440Y-32519D02*
X51535Y-32519D01*
G54D12*
X51535Y-32519D02*
X51535Y-33503D01*
X57440Y-32519D02*
X57440Y-33503D01*
G54D11*
X47677Y-43581D02*
X47677Y-43425D01*
G54D14*
X49757Y-33702D02*
X49607Y-33807D01*
X49757Y-33882D02*
X49442Y-33882D01*
X49442Y-33762D01*
X49457Y-33732D01*
X49472Y-33717D01*
X49502Y-33702D01*
X49547Y-33702D01*
X49577Y-33717D01*
X49592Y-33732D01*
X49607Y-33762D01*
X49607Y-33882D01*
X49547Y-33432D02*
X49757Y-33432D01*
X49427Y-33507D02*
X49652Y-33582D01*
X49652Y-33387D01*
X50414Y-33163D02*
X50264Y-33268D01*
X50414Y-33343D02*
X50099Y-33343D01*
X50099Y-33223D01*
X50114Y-33193D01*
X50129Y-33178D01*
X50159Y-33163D01*
X50204Y-33163D01*
X50234Y-33178D01*
X50249Y-33193D01*
X50264Y-33223D01*
X50264Y-33343D01*
X50204Y-32893D02*
X50414Y-32893D01*
X50084Y-32968D02*
X50309Y-33043D01*
X50309Y-32848D01*
X50414Y-32713D02*
X50414Y-32653D01*
X50399Y-32623D01*
X50384Y-32608D01*
X50339Y-32578D01*
X50279Y-32563D01*
X50159Y-32563D01*
X50129Y-32578D01*
X50114Y-32593D01*
X50099Y-32623D01*
X50099Y-32683D01*
X50114Y-32713D01*
X50129Y-32728D01*
X50159Y-32743D01*
X50234Y-32743D01*
X50264Y-32728D01*
X50279Y-32713D01*
X50294Y-32683D01*
X50294Y-32623D01*
X50279Y-32593D01*
X50264Y-32578D01*
X50234Y-32563D01*
X51206Y-35419D02*
X51056Y-35523D01*
X51206Y-35598D02*
X50891Y-35598D01*
X50891Y-35479D01*
X50906Y-35449D01*
X50921Y-35434D01*
X50951Y-35419D01*
X50996Y-35419D01*
X51026Y-35434D01*
X51041Y-35449D01*
X51056Y-35479D01*
X51056Y-35598D01*
X51026Y-35239D02*
X51011Y-35269D01*
X50996Y-35284D01*
X50966Y-35299D01*
X50951Y-35299D01*
X50921Y-35284D01*
X50906Y-35269D01*
X50891Y-35239D01*
X50891Y-35179D01*
X50906Y-35149D01*
X50921Y-35134D01*
X50951Y-35119D01*
X50966Y-35119D01*
X50996Y-35134D01*
X51011Y-35149D01*
X51026Y-35179D01*
X51026Y-35239D01*
X51041Y-35269D01*
X51056Y-35284D01*
X51086Y-35299D01*
X51146Y-35299D01*
X51176Y-35284D01*
X51191Y-35269D01*
X51206Y-35239D01*
X51206Y-35179D01*
X51191Y-35149D01*
X51176Y-35134D01*
X51146Y-35119D01*
X51086Y-35119D01*
X51056Y-35134D01*
X51041Y-35149D01*
X51026Y-35179D01*
X50996Y-34849D02*
X51206Y-34849D01*
X50876Y-34924D02*
X51101Y-34999D01*
X51101Y-34804D01*
X60308Y-41359D02*
X60158Y-41464D01*
X60308Y-41539D02*
X59993Y-41539D01*
X59993Y-41419D01*
X60008Y-41389D01*
X60023Y-41374D01*
X60053Y-41359D01*
X60098Y-41359D01*
X60128Y-41374D01*
X60143Y-41389D01*
X60158Y-41419D01*
X60158Y-41539D01*
X59993Y-41254D02*
X59993Y-41059D01*
X60113Y-41164D01*
X60113Y-41119D01*
X60128Y-41089D01*
X60143Y-41074D01*
X60173Y-41059D01*
X60248Y-41059D01*
X60278Y-41074D01*
X60293Y-41089D01*
X60308Y-41119D01*
X60308Y-41209D01*
X60293Y-41239D01*
X60278Y-41254D01*
X59993Y-40865D02*
X59993Y-40835D01*
X60008Y-40805D01*
X60023Y-40790D01*
X60053Y-40775D01*
X60113Y-40760D01*
X60188Y-40760D01*
X60248Y-40775D01*
X60278Y-40790D01*
X60293Y-40805D01*
X60308Y-40835D01*
X60308Y-40865D01*
X60293Y-40895D01*
X60278Y-40910D01*
X60248Y-40925D01*
X60188Y-40940D01*
X60113Y-40940D01*
X60053Y-40925D01*
X60023Y-40910D01*
X60008Y-40895D01*
X59993Y-40865D01*
X55048Y-38820D02*
X54898Y-38925D01*
X55048Y-39000D02*
X54733Y-39000D01*
X54733Y-38880D01*
X54748Y-38850D01*
X54763Y-38835D01*
X54793Y-38820D01*
X54838Y-38820D01*
X54868Y-38835D01*
X54883Y-38850D01*
X54898Y-38880D01*
X54898Y-39000D01*
X55048Y-38520D02*
X55048Y-38700D01*
X55048Y-38610D02*
X54733Y-38610D01*
X54778Y-38640D01*
X54808Y-38670D01*
X54823Y-38700D01*
X54838Y-38250D02*
X55048Y-38250D01*
X54718Y-38325D02*
X54943Y-38400D01*
X54943Y-38205D01*
X61434Y-41375D02*
X61284Y-41480D01*
X61434Y-41555D02*
X61119Y-41555D01*
X61119Y-41435D01*
X61134Y-41405D01*
X61149Y-41390D01*
X61179Y-41375D01*
X61224Y-41375D01*
X61254Y-41390D01*
X61269Y-41405D01*
X61284Y-41435D01*
X61284Y-41555D01*
X61119Y-41270D02*
X61119Y-41075D01*
X61239Y-41180D01*
X61239Y-41135D01*
X61254Y-41105D01*
X61269Y-41090D01*
X61299Y-41075D01*
X61374Y-41075D01*
X61404Y-41090D01*
X61419Y-41105D01*
X61434Y-41135D01*
X61434Y-41225D01*
X61419Y-41255D01*
X61404Y-41270D01*
X61434Y-40775D02*
X61434Y-40955D01*
X61434Y-40865D02*
X61119Y-40865D01*
X61164Y-40895D01*
X61194Y-40925D01*
X61209Y-40955D01*
G54D10*
X61052Y-38714D02*
X60939Y-38793D01*
X61052Y-38849D02*
X60816Y-38849D01*
X60816Y-38759D01*
X60827Y-38737D01*
X60838Y-38726D01*
X60861Y-38714D01*
X60894Y-38714D01*
X60917Y-38726D01*
X60928Y-38737D01*
X60939Y-38759D01*
X60939Y-38849D01*
X60816Y-38636D02*
X60816Y-38489D01*
X60906Y-38568D01*
X60906Y-38534D01*
X60917Y-38512D01*
X60928Y-38501D01*
X60951Y-38489D01*
X61007Y-38489D01*
X61029Y-38501D01*
X61041Y-38512D01*
X61052Y-38534D01*
X61052Y-38602D01*
X61041Y-38624D01*
X61029Y-38636D01*
X60816Y-38411D02*
X60816Y-38264D01*
X60906Y-38343D01*
X60906Y-38309D01*
X60917Y-38287D01*
X60928Y-38276D01*
X60951Y-38264D01*
X61007Y-38264D01*
X61029Y-38276D01*
X61041Y-38287D01*
X61052Y-38309D01*
X61052Y-38377D01*
X61041Y-38399D01*
X61029Y-38411D01*
X60075Y-38754D02*
X59963Y-38832D01*
X60075Y-38889D02*
X59839Y-38889D01*
X59839Y-38799D01*
X59850Y-38776D01*
X59862Y-38765D01*
X59884Y-38754D01*
X59918Y-38754D01*
X59940Y-38765D01*
X59952Y-38776D01*
X59963Y-38799D01*
X59963Y-38889D01*
X59839Y-38675D02*
X59839Y-38529D01*
X59929Y-38607D01*
X59929Y-38574D01*
X59940Y-38551D01*
X59952Y-38540D01*
X59974Y-38529D01*
X60030Y-38529D01*
X60053Y-38540D01*
X60064Y-38551D01*
X60075Y-38574D01*
X60075Y-38641D01*
X60064Y-38664D01*
X60053Y-38675D01*
X59862Y-38439D02*
X59850Y-38428D01*
X59839Y-38405D01*
X59839Y-38349D01*
X59850Y-38326D01*
X59862Y-38315D01*
X59884Y-38304D01*
X59907Y-38304D01*
X59940Y-38315D01*
X60075Y-38450D01*
X60075Y-38304D01*
X59611Y-37957D02*
X59533Y-37845D01*
X59476Y-37957D02*
X59476Y-37721D01*
X59566Y-37721D01*
X59589Y-37732D01*
X59600Y-37744D01*
X59611Y-37766D01*
X59611Y-37800D01*
X59600Y-37822D01*
X59589Y-37834D01*
X59566Y-37845D01*
X59476Y-37845D01*
X59690Y-37721D02*
X59836Y-37721D01*
X59758Y-37811D01*
X59791Y-37811D01*
X59814Y-37822D01*
X59825Y-37834D01*
X59836Y-37856D01*
X59836Y-37912D01*
X59825Y-37935D01*
X59814Y-37946D01*
X59791Y-37957D01*
X59724Y-37957D01*
X59701Y-37946D01*
X59690Y-37935D01*
X60039Y-37800D02*
X60039Y-37957D01*
X59983Y-37710D02*
X59926Y-37879D01*
X60073Y-37879D01*
X59517Y-44162D02*
X59404Y-44162D01*
X59404Y-43926D01*
X59719Y-44162D02*
X59584Y-44162D01*
X59652Y-44162D02*
X59652Y-43926D01*
X59629Y-43960D01*
X59607Y-43982D01*
X59584Y-43993D01*
X59809Y-43948D02*
X59821Y-43937D01*
X59843Y-43926D01*
X59899Y-43926D01*
X59922Y-43937D01*
X59933Y-43948D01*
X59944Y-43971D01*
X59944Y-43993D01*
X59933Y-44027D01*
X59798Y-44162D01*
X59944Y-44162D01*
G54D14*
X52725Y-40005D02*
X52725Y-40155D01*
X52410Y-40155D01*
X52440Y-39915D02*
X52425Y-39900D01*
X52410Y-39870D01*
X52410Y-39795D01*
X52425Y-39765D01*
X52440Y-39750D01*
X52470Y-39735D01*
X52500Y-39735D01*
X52545Y-39750D01*
X52725Y-39930D01*
X52725Y-39735D01*
X52410Y-39630D02*
X52410Y-39420D01*
X52725Y-39555D01*
G54D10*
X59643Y-41890D02*
X59530Y-41890D01*
X59530Y-41654D01*
X59845Y-41890D02*
X59710Y-41890D01*
X59778Y-41890D02*
X59778Y-41654D01*
X59755Y-41688D01*
X59733Y-41710D01*
X59710Y-41722D01*
X60070Y-41890D02*
X59935Y-41890D01*
X60003Y-41890D02*
X60003Y-41654D01*
X59980Y-41688D01*
X59958Y-41710D01*
X59935Y-41722D01*
G54D16*
X61607Y-36988D02*
X61607Y-37119D01*
X61332Y-37119D01*
X61332Y-36922D02*
X61332Y-36751D01*
X61437Y-36843D01*
X61437Y-36804D01*
X61450Y-36778D01*
X61463Y-36765D01*
X61489Y-36751D01*
X61555Y-36751D01*
X61581Y-36765D01*
X61594Y-36778D01*
X61607Y-36804D01*
X61607Y-36883D01*
X61594Y-36909D01*
X61581Y-36922D01*
X61332Y-36660D02*
X61332Y-36476D01*
X61607Y-36594D01*
G54D14*
X51372Y-40836D02*
X51222Y-40836D01*
X51222Y-40521D01*
X51462Y-40551D02*
X51477Y-40536D01*
X51507Y-40521D01*
X51582Y-40521D01*
X51612Y-40536D01*
X51627Y-40551D01*
X51642Y-40581D01*
X51642Y-40611D01*
X51627Y-40656D01*
X51447Y-40836D01*
X51642Y-40836D01*
X51822Y-40656D02*
X51792Y-40641D01*
X51777Y-40626D01*
X51762Y-40596D01*
X51762Y-40581D01*
X51777Y-40551D01*
X51792Y-40536D01*
X51822Y-40521D01*
X51882Y-40521D01*
X51912Y-40536D01*
X51927Y-40551D01*
X51942Y-40581D01*
X51942Y-40596D01*
X51927Y-40626D01*
X51912Y-40641D01*
X51882Y-40656D01*
X51822Y-40656D01*
X51792Y-40671D01*
X51777Y-40686D01*
X51762Y-40716D01*
X51762Y-40776D01*
X51777Y-40806D01*
X51792Y-40821D01*
X51822Y-40836D01*
X51882Y-40836D01*
X51912Y-40821D01*
X51927Y-40806D01*
X51942Y-40776D01*
X51942Y-40716D01*
X51927Y-40686D01*
X51912Y-40671D01*
X51882Y-40656D01*
X53710Y-34926D02*
X53710Y-35076D01*
X53395Y-35076D01*
X53395Y-34851D02*
X53395Y-34656D01*
X53515Y-34761D01*
X53515Y-34716D01*
X53530Y-34686D01*
X53545Y-34671D01*
X53575Y-34656D01*
X53650Y-34656D01*
X53680Y-34671D01*
X53695Y-34686D01*
X53710Y-34716D01*
X53710Y-34806D01*
X53695Y-34836D01*
X53680Y-34851D01*
X53395Y-34386D02*
X53395Y-34446D01*
X53410Y-34476D01*
X53425Y-34491D01*
X53470Y-34521D01*
X53530Y-34536D01*
X53650Y-34536D01*
X53680Y-34521D01*
X53695Y-34506D01*
X53710Y-34476D01*
X53710Y-34416D01*
X53695Y-34386D01*
X53680Y-34371D01*
X53650Y-34356D01*
X53575Y-34356D01*
X53545Y-34371D01*
X53530Y-34386D01*
X53515Y-34416D01*
X53515Y-34476D01*
X53530Y-34506D01*
X53545Y-34521D01*
X53575Y-34536D01*
X51451Y-39064D02*
X51301Y-39064D01*
X51301Y-38749D01*
X51541Y-38779D02*
X51556Y-38764D01*
X51586Y-38749D01*
X51661Y-38749D01*
X51691Y-38764D01*
X51706Y-38779D01*
X51721Y-38809D01*
X51721Y-38839D01*
X51706Y-38884D01*
X51526Y-39064D01*
X51721Y-39064D01*
X51871Y-39064D02*
X51931Y-39064D01*
X51961Y-39049D01*
X51976Y-39034D01*
X52005Y-38989D01*
X52020Y-38929D01*
X52020Y-38809D01*
X52005Y-38779D01*
X51991Y-38764D01*
X51961Y-38749D01*
X51901Y-38749D01*
X51871Y-38764D01*
X51856Y-38779D01*
X51841Y-38809D01*
X51841Y-38884D01*
X51856Y-38914D01*
X51871Y-38929D01*
X51901Y-38944D01*
X51961Y-38944D01*
X51991Y-38929D01*
X52005Y-38914D01*
X52020Y-38884D01*
G54D10*
X58485Y-37579D02*
X58373Y-37579D01*
X58373Y-37343D01*
X58665Y-37422D02*
X58665Y-37579D01*
X58609Y-37332D02*
X58553Y-37501D01*
X58699Y-37501D01*
X58778Y-37366D02*
X58789Y-37354D01*
X58812Y-37343D01*
X58868Y-37343D01*
X58890Y-37354D01*
X58902Y-37366D01*
X58913Y-37388D01*
X58913Y-37411D01*
X58902Y-37444D01*
X58767Y-37579D01*
X58913Y-37579D01*
X60037Y-37638D02*
X59924Y-37638D01*
X59924Y-37402D01*
X60093Y-37402D02*
X60239Y-37402D01*
X60160Y-37492D01*
X60194Y-37492D01*
X60217Y-37503D01*
X60228Y-37515D01*
X60239Y-37537D01*
X60239Y-37593D01*
X60228Y-37616D01*
X60217Y-37627D01*
X60194Y-37638D01*
X60127Y-37638D01*
X60104Y-37627D01*
X60093Y-37616D01*
X60329Y-37425D02*
X60340Y-37413D01*
X60363Y-37402D01*
X60419Y-37402D01*
X60442Y-37413D01*
X60453Y-37425D01*
X60464Y-37447D01*
X60464Y-37470D01*
X60453Y-37503D01*
X60318Y-37638D01*
X60464Y-37638D01*
X58544Y-42599D02*
X58432Y-42599D01*
X58432Y-42363D01*
X58747Y-42599D02*
X58612Y-42599D01*
X58679Y-42599D02*
X58679Y-42363D01*
X58657Y-42397D01*
X58634Y-42419D01*
X58612Y-42430D01*
X58826Y-42363D02*
X58972Y-42363D01*
X58893Y-42453D01*
X58927Y-42453D01*
X58949Y-42464D01*
X58961Y-42475D01*
X58972Y-42498D01*
X58972Y-42554D01*
X58961Y-42577D01*
X58949Y-42588D01*
X58927Y-42599D01*
X58859Y-42599D01*
X58837Y-42588D01*
X58826Y-42577D01*
X56659Y-42642D02*
X56546Y-42642D01*
X56546Y-42406D01*
X56715Y-42406D02*
X56861Y-42406D01*
X56782Y-42496D01*
X56816Y-42496D01*
X56839Y-42507D01*
X56850Y-42519D01*
X56861Y-42541D01*
X56861Y-42597D01*
X56850Y-42620D01*
X56839Y-42631D01*
X56816Y-42642D01*
X56749Y-42642D01*
X56726Y-42631D01*
X56715Y-42620D01*
X56940Y-42406D02*
X57086Y-42406D01*
X57007Y-42496D01*
X57041Y-42496D01*
X57064Y-42507D01*
X57075Y-42519D01*
X57086Y-42541D01*
X57086Y-42597D01*
X57075Y-42620D01*
X57064Y-42631D01*
X57041Y-42642D01*
X56974Y-42642D01*
X56951Y-42631D01*
X56940Y-42620D01*
X61634Y-42600D02*
X61634Y-42713D01*
X61398Y-42713D01*
X61421Y-42533D02*
X61410Y-42521D01*
X61398Y-42499D01*
X61398Y-42443D01*
X61410Y-42420D01*
X61421Y-42409D01*
X61443Y-42398D01*
X61466Y-42398D01*
X61500Y-42409D01*
X61634Y-42544D01*
X61634Y-42398D01*
X61398Y-42195D02*
X61398Y-42240D01*
X61410Y-42263D01*
X61421Y-42274D01*
X61455Y-42296D01*
X61500Y-42308D01*
X61589Y-42308D01*
X61612Y-42296D01*
X61623Y-42285D01*
X61634Y-42263D01*
X61634Y-42218D01*
X61623Y-42195D01*
X61612Y-42184D01*
X61589Y-42173D01*
X61533Y-42173D01*
X61511Y-42184D01*
X61500Y-42195D01*
X61488Y-42218D01*
X61488Y-42263D01*
X61500Y-42285D01*
X61511Y-42296D01*
X61533Y-42308D01*
X60517Y-43540D02*
X60404Y-43540D01*
X60404Y-43304D01*
X60719Y-43540D02*
X60584Y-43540D01*
X60652Y-43540D02*
X60652Y-43304D01*
X60629Y-43338D01*
X60607Y-43360D01*
X60584Y-43371D01*
X60798Y-43304D02*
X60956Y-43304D01*
X60854Y-43540D01*
X60355Y-42147D02*
X60355Y-42260D01*
X60119Y-42260D01*
X60141Y-42080D02*
X60130Y-42069D01*
X60119Y-42046D01*
X60119Y-41990D01*
X60130Y-41967D01*
X60141Y-41956D01*
X60164Y-41945D01*
X60186Y-41945D01*
X60220Y-41956D01*
X60355Y-42091D01*
X60355Y-41945D01*
X60141Y-41855D02*
X60130Y-41844D01*
X60119Y-41821D01*
X60119Y-41765D01*
X60130Y-41742D01*
X60141Y-41731D01*
X60164Y-41720D01*
X60186Y-41720D01*
X60220Y-41731D01*
X60355Y-41866D01*
X60355Y-41720D01*
G54D16*
X56874Y-37729D02*
X56742Y-37729D01*
X56742Y-37454D01*
X56939Y-37454D02*
X57110Y-37454D01*
X57018Y-37559D01*
X57057Y-37559D01*
X57083Y-37572D01*
X57097Y-37585D01*
X57110Y-37611D01*
X57110Y-37677D01*
X57097Y-37703D01*
X57083Y-37716D01*
X57057Y-37729D01*
X56979Y-37729D01*
X56952Y-37716D01*
X56939Y-37703D01*
X57267Y-37572D02*
X57241Y-37559D01*
X57228Y-37545D01*
X57215Y-37519D01*
X57215Y-37506D01*
X57228Y-37480D01*
X57241Y-37467D01*
X57267Y-37454D01*
X57320Y-37454D01*
X57346Y-37467D01*
X57359Y-37480D01*
X57372Y-37506D01*
X57372Y-37519D01*
X57359Y-37545D01*
X57346Y-37559D01*
X57320Y-37572D01*
X57267Y-37572D01*
X57241Y-37585D01*
X57228Y-37598D01*
X57215Y-37624D01*
X57215Y-37677D01*
X57228Y-37703D01*
X57241Y-37716D01*
X57267Y-37729D01*
X57320Y-37729D01*
X57346Y-37716D01*
X57359Y-37703D01*
X57372Y-37677D01*
X57372Y-37624D01*
X57359Y-37598D01*
X57346Y-37585D01*
X57320Y-37572D01*
X56850Y-36619D02*
X56719Y-36619D01*
X56719Y-36343D01*
X56916Y-36343D02*
X57086Y-36343D01*
X56994Y-36448D01*
X57034Y-36448D01*
X57060Y-36461D01*
X57073Y-36475D01*
X57086Y-36501D01*
X57086Y-36566D01*
X57073Y-36593D01*
X57060Y-36606D01*
X57034Y-36619D01*
X56955Y-36619D01*
X56929Y-36606D01*
X56916Y-36593D01*
X57322Y-36435D02*
X57322Y-36619D01*
X57257Y-36330D02*
X57191Y-36527D01*
X57362Y-36527D01*
G54D14*
X54844Y-36643D02*
X54694Y-36643D01*
X54694Y-36328D01*
X54919Y-36328D02*
X55114Y-36328D01*
X55009Y-36448D01*
X55054Y-36448D01*
X55084Y-36463D01*
X55099Y-36478D01*
X55114Y-36508D01*
X55114Y-36583D01*
X55099Y-36613D01*
X55084Y-36628D01*
X55054Y-36643D01*
X54964Y-36643D01*
X54934Y-36628D01*
X54919Y-36613D01*
X55399Y-36328D02*
X55249Y-36328D01*
X55234Y-36478D01*
X55249Y-36463D01*
X55279Y-36448D01*
X55354Y-36448D01*
X55384Y-36463D01*
X55399Y-36478D01*
X55414Y-36508D01*
X55414Y-36583D01*
X55399Y-36613D01*
X55384Y-36628D01*
X55354Y-36643D01*
X55279Y-36643D01*
X55249Y-36628D01*
X55234Y-36613D01*
X52002Y-42686D02*
X51852Y-42686D01*
X51852Y-42371D01*
X52242Y-42476D02*
X52242Y-42686D01*
X52167Y-42356D02*
X52092Y-42581D01*
X52287Y-42581D01*
X52467Y-42371D02*
X52497Y-42371D01*
X52527Y-42386D01*
X52542Y-42401D01*
X52557Y-42431D01*
X52572Y-42491D01*
X52572Y-42566D01*
X52557Y-42626D01*
X52542Y-42656D01*
X52527Y-42671D01*
X52497Y-42686D01*
X52467Y-42686D01*
X52437Y-42671D01*
X52422Y-42656D01*
X52407Y-42626D01*
X52392Y-42566D01*
X52392Y-42491D01*
X52407Y-42431D01*
X52422Y-42401D01*
X52437Y-42386D01*
X52467Y-42371D01*
G54D16*
X60872Y-36082D02*
X60885Y-36095D01*
X60898Y-36135D01*
X60898Y-36161D01*
X60885Y-36200D01*
X60859Y-36227D01*
X60833Y-36240D01*
X60780Y-36253D01*
X60741Y-36253D01*
X60688Y-36240D01*
X60662Y-36227D01*
X60636Y-36200D01*
X60623Y-36161D01*
X60623Y-36135D01*
X60636Y-36095D01*
X60649Y-36082D01*
X60623Y-35833D02*
X60623Y-35964D01*
X60754Y-35977D01*
X60741Y-35964D01*
X60728Y-35938D01*
X60728Y-35872D01*
X60741Y-35846D01*
X60754Y-35833D01*
X60780Y-35820D01*
X60846Y-35820D01*
X60872Y-35833D01*
X60885Y-35846D01*
X60898Y-35872D01*
X60898Y-35938D01*
X60885Y-35964D01*
X60872Y-35977D01*
X60623Y-35728D02*
X60623Y-35544D01*
X60898Y-35662D01*
G54D10*
X61943Y-43323D02*
X61954Y-43334D01*
X61965Y-43368D01*
X61965Y-43390D01*
X61954Y-43424D01*
X61931Y-43447D01*
X61909Y-43458D01*
X61864Y-43469D01*
X61830Y-43469D01*
X61785Y-43458D01*
X61763Y-43447D01*
X61740Y-43424D01*
X61729Y-43390D01*
X61729Y-43368D01*
X61740Y-43334D01*
X61751Y-43323D01*
X61965Y-43098D02*
X61965Y-43233D01*
X61965Y-43165D02*
X61729Y-43165D01*
X61763Y-43188D01*
X61785Y-43210D01*
X61796Y-43233D01*
X61729Y-42952D02*
X61729Y-42929D01*
X61740Y-42907D01*
X61751Y-42895D01*
X61774Y-42884D01*
X61819Y-42873D01*
X61875Y-42873D01*
X61920Y-42884D01*
X61943Y-42895D01*
X61954Y-42907D01*
X61965Y-42929D01*
X61965Y-42952D01*
X61954Y-42974D01*
X61943Y-42985D01*
X61920Y-42997D01*
X61875Y-43008D01*
X61819Y-43008D01*
X61774Y-42997D01*
X61751Y-42985D01*
X61740Y-42974D01*
X61729Y-42952D01*
X61965Y-42648D02*
X61965Y-42783D01*
X61965Y-42715D02*
X61729Y-42715D01*
X61763Y-42738D01*
X61785Y-42760D01*
X61796Y-42783D01*
X61604Y-43899D02*
X61615Y-43911D01*
X61627Y-43944D01*
X61627Y-43967D01*
X61615Y-44001D01*
X61593Y-44023D01*
X61570Y-44034D01*
X61525Y-44046D01*
X61492Y-44046D01*
X61447Y-44034D01*
X61424Y-44023D01*
X61402Y-44001D01*
X61390Y-43967D01*
X61390Y-43944D01*
X61402Y-43911D01*
X61413Y-43899D01*
X61390Y-43821D02*
X61390Y-43674D01*
X61480Y-43753D01*
X61480Y-43719D01*
X61492Y-43697D01*
X61503Y-43686D01*
X61525Y-43674D01*
X61582Y-43674D01*
X61604Y-43686D01*
X61615Y-43697D01*
X61627Y-43719D01*
X61627Y-43787D01*
X61615Y-43809D01*
X61604Y-43821D01*
X61390Y-43596D02*
X61390Y-43449D01*
X61480Y-43528D01*
X61480Y-43494D01*
X61492Y-43472D01*
X61503Y-43461D01*
X61525Y-43449D01*
X61582Y-43449D01*
X61604Y-43461D01*
X61615Y-43472D01*
X61627Y-43494D01*
X61627Y-43562D01*
X61615Y-43584D01*
X61604Y-43596D01*
X60533Y-42521D02*
X60521Y-42533D01*
X60488Y-42544D01*
X60465Y-42544D01*
X60431Y-42533D01*
X60409Y-42510D01*
X60398Y-42488D01*
X60386Y-42443D01*
X60386Y-42409D01*
X60398Y-42364D01*
X60409Y-42341D01*
X60431Y-42319D01*
X60465Y-42308D01*
X60488Y-42308D01*
X60521Y-42319D01*
X60533Y-42330D01*
X60611Y-42308D02*
X60758Y-42308D01*
X60679Y-42398D01*
X60713Y-42398D01*
X60735Y-42409D01*
X60746Y-42420D01*
X60758Y-42443D01*
X60758Y-42499D01*
X60746Y-42521D01*
X60735Y-42533D01*
X60713Y-42544D01*
X60645Y-42544D01*
X60623Y-42533D01*
X60611Y-42521D01*
X60960Y-42386D02*
X60960Y-42544D01*
X60904Y-42296D02*
X60848Y-42465D01*
X60994Y-42465D01*
X60269Y-44077D02*
X60281Y-44088D01*
X60292Y-44122D01*
X60292Y-44144D01*
X60281Y-44178D01*
X60258Y-44200D01*
X60236Y-44212D01*
X60191Y-44223D01*
X60157Y-44223D01*
X60112Y-44212D01*
X60089Y-44200D01*
X60067Y-44178D01*
X60056Y-44144D01*
X60056Y-44122D01*
X60067Y-44088D01*
X60078Y-44077D01*
X60056Y-43998D02*
X60056Y-43840D01*
X60292Y-43942D01*
X60078Y-43762D02*
X60067Y-43750D01*
X60056Y-43728D01*
X60056Y-43672D01*
X60067Y-43649D01*
X60078Y-43638D01*
X60101Y-43627D01*
X60123Y-43627D01*
X60157Y-43638D01*
X60292Y-43773D01*
X60292Y-43627D01*
X59513Y-43817D02*
X59502Y-43828D01*
X59468Y-43839D01*
X59446Y-43839D01*
X59412Y-43828D01*
X59389Y-43805D01*
X59378Y-43783D01*
X59367Y-43738D01*
X59367Y-43704D01*
X59378Y-43659D01*
X59389Y-43637D01*
X59412Y-43614D01*
X59446Y-43603D01*
X59468Y-43603D01*
X59502Y-43614D01*
X59513Y-43625D01*
X59727Y-43603D02*
X59614Y-43603D01*
X59603Y-43715D01*
X59614Y-43704D01*
X59637Y-43693D01*
X59693Y-43693D01*
X59715Y-43704D01*
X59727Y-43715D01*
X59738Y-43738D01*
X59738Y-43794D01*
X59727Y-43817D01*
X59715Y-43828D01*
X59693Y-43839D01*
X59637Y-43839D01*
X59614Y-43828D01*
X59603Y-43817D01*
X59940Y-43682D02*
X59940Y-43839D01*
X59884Y-43592D02*
X59828Y-43760D01*
X59974Y-43760D01*
X59513Y-42167D02*
X59502Y-42178D01*
X59468Y-42190D01*
X59446Y-42190D01*
X59412Y-42178D01*
X59389Y-42156D01*
X59378Y-42133D01*
X59367Y-42088D01*
X59367Y-42055D01*
X59378Y-42010D01*
X59389Y-41987D01*
X59412Y-41965D01*
X59446Y-41953D01*
X59468Y-41953D01*
X59502Y-41965D01*
X59513Y-41976D01*
X59727Y-41953D02*
X59614Y-41953D01*
X59603Y-42066D01*
X59614Y-42055D01*
X59637Y-42043D01*
X59693Y-42043D01*
X59715Y-42055D01*
X59727Y-42066D01*
X59738Y-42088D01*
X59738Y-42145D01*
X59727Y-42167D01*
X59715Y-42178D01*
X59693Y-42190D01*
X59637Y-42190D01*
X59614Y-42178D01*
X59603Y-42167D01*
X59963Y-42190D02*
X59828Y-42190D01*
X59895Y-42190D02*
X59895Y-41953D01*
X59873Y-41987D01*
X59850Y-42010D01*
X59828Y-42021D01*
X58986Y-43417D02*
X58997Y-43429D01*
X59008Y-43462D01*
X59008Y-43485D01*
X58997Y-43519D01*
X58975Y-43541D01*
X58952Y-43552D01*
X58907Y-43564D01*
X58874Y-43564D01*
X58829Y-43552D01*
X58806Y-43541D01*
X58784Y-43519D01*
X58772Y-43485D01*
X58772Y-43462D01*
X58784Y-43429D01*
X58795Y-43417D01*
X59008Y-43192D02*
X59008Y-43327D01*
X59008Y-43260D02*
X58772Y-43260D01*
X58806Y-43282D01*
X58829Y-43305D01*
X58840Y-43327D01*
X58795Y-43102D02*
X58784Y-43091D01*
X58772Y-43069D01*
X58772Y-43012D01*
X58784Y-42990D01*
X58795Y-42979D01*
X58817Y-42967D01*
X58840Y-42967D01*
X58874Y-42979D01*
X59008Y-43114D01*
X59008Y-42967D01*
X58772Y-42821D02*
X58772Y-42799D01*
X58784Y-42776D01*
X58795Y-42765D01*
X58817Y-42754D01*
X58862Y-42742D01*
X58919Y-42742D01*
X58964Y-42754D01*
X58986Y-42765D01*
X58997Y-42776D01*
X59008Y-42799D01*
X59008Y-42821D01*
X58997Y-42844D01*
X58986Y-42855D01*
X58964Y-42866D01*
X58919Y-42877D01*
X58862Y-42877D01*
X58817Y-42866D01*
X58795Y-42855D01*
X58784Y-42844D01*
X58772Y-42821D01*
G54D14*
X53680Y-36107D02*
X53695Y-36122D01*
X53710Y-36167D01*
X53710Y-36197D01*
X53695Y-36242D01*
X53665Y-36272D01*
X53635Y-36287D01*
X53575Y-36302D01*
X53530Y-36302D01*
X53470Y-36287D01*
X53440Y-36272D01*
X53410Y-36242D01*
X53395Y-36197D01*
X53395Y-36167D01*
X53410Y-36122D01*
X53425Y-36107D01*
X53710Y-35958D02*
X53710Y-35898D01*
X53695Y-35868D01*
X53680Y-35853D01*
X53635Y-35823D01*
X53575Y-35808D01*
X53455Y-35808D01*
X53425Y-35823D01*
X53410Y-35838D01*
X53395Y-35868D01*
X53395Y-35928D01*
X53410Y-35958D01*
X53425Y-35973D01*
X53455Y-35988D01*
X53530Y-35988D01*
X53560Y-35973D01*
X53575Y-35958D01*
X53590Y-35928D01*
X53590Y-35868D01*
X53575Y-35838D01*
X53560Y-35823D01*
X53530Y-35808D01*
X53710Y-35508D02*
X53710Y-35688D01*
X53710Y-35598D02*
X53395Y-35598D01*
X53440Y-35628D01*
X53470Y-35658D01*
X53485Y-35688D01*
X56451Y-45845D02*
X56436Y-45860D01*
X56391Y-45875D01*
X56361Y-45875D01*
X56316Y-45860D01*
X56286Y-45830D01*
X56271Y-45800D01*
X56256Y-45740D01*
X56256Y-45695D01*
X56271Y-45635D01*
X56286Y-45605D01*
X56316Y-45575D01*
X56361Y-45560D01*
X56391Y-45560D01*
X56436Y-45575D01*
X56451Y-45590D01*
X56736Y-45560D02*
X56586Y-45560D01*
X56571Y-45710D01*
X56586Y-45695D01*
X56616Y-45680D01*
X56691Y-45680D01*
X56721Y-45695D01*
X56736Y-45710D01*
X56751Y-45740D01*
X56751Y-45815D01*
X56736Y-45845D01*
X56721Y-45860D01*
X56691Y-45875D01*
X56616Y-45875D01*
X56586Y-45860D01*
X56571Y-45845D01*
X56901Y-45875D02*
X56961Y-45875D01*
X56991Y-45860D01*
X57005Y-45845D01*
X57035Y-45800D01*
X57050Y-45740D01*
X57050Y-45620D01*
X57035Y-45590D01*
X57020Y-45575D01*
X56991Y-45560D01*
X56931Y-45560D01*
X56901Y-45575D01*
X56886Y-45590D01*
X56871Y-45620D01*
X56871Y-45695D01*
X56886Y-45725D01*
X56901Y-45740D01*
X56931Y-45755D01*
X56991Y-45755D01*
X57020Y-45740D01*
X57035Y-45725D01*
X57050Y-45695D01*
X52002Y-38365D02*
X51987Y-38380D01*
X51942Y-38395D01*
X51912Y-38395D01*
X51867Y-38380D01*
X51837Y-38350D01*
X51822Y-38320D01*
X51807Y-38260D01*
X51807Y-38215D01*
X51822Y-38155D01*
X51837Y-38125D01*
X51867Y-38095D01*
X51912Y-38080D01*
X51942Y-38080D01*
X51987Y-38095D01*
X52002Y-38110D01*
X52122Y-38110D02*
X52137Y-38095D01*
X52167Y-38080D01*
X52242Y-38080D01*
X52272Y-38095D01*
X52287Y-38110D01*
X52302Y-38140D01*
X52302Y-38170D01*
X52287Y-38215D01*
X52107Y-38395D01*
X52302Y-38395D01*
X52407Y-38080D02*
X52617Y-38080D01*
X52482Y-38395D01*
G54D10*
X58309Y-43179D02*
X58320Y-43190D01*
X58331Y-43224D01*
X58331Y-43246D01*
X58320Y-43280D01*
X58298Y-43303D01*
X58275Y-43314D01*
X58230Y-43325D01*
X58196Y-43325D01*
X58151Y-43314D01*
X58129Y-43303D01*
X58106Y-43280D01*
X58095Y-43246D01*
X58095Y-43224D01*
X58106Y-43190D01*
X58118Y-43179D01*
X58095Y-42976D02*
X58095Y-43021D01*
X58106Y-43044D01*
X58118Y-43055D01*
X58151Y-43078D01*
X58196Y-43089D01*
X58286Y-43089D01*
X58309Y-43078D01*
X58320Y-43066D01*
X58331Y-43044D01*
X58331Y-42999D01*
X58320Y-42976D01*
X58309Y-42965D01*
X58286Y-42954D01*
X58230Y-42954D01*
X58208Y-42965D01*
X58196Y-42976D01*
X58185Y-42999D01*
X58185Y-43044D01*
X58196Y-43066D01*
X58208Y-43078D01*
X58230Y-43089D01*
X58331Y-42729D02*
X58331Y-42864D01*
X58331Y-42796D02*
X58095Y-42796D01*
X58129Y-42819D01*
X58151Y-42841D01*
X58163Y-42864D01*
X57376Y-43183D02*
X57387Y-43194D01*
X57398Y-43228D01*
X57398Y-43250D01*
X57387Y-43284D01*
X57365Y-43307D01*
X57342Y-43318D01*
X57297Y-43329D01*
X57263Y-43329D01*
X57218Y-43318D01*
X57196Y-43307D01*
X57173Y-43284D01*
X57162Y-43250D01*
X57162Y-43228D01*
X57173Y-43194D01*
X57185Y-43183D01*
X57162Y-42980D02*
X57162Y-43025D01*
X57173Y-43048D01*
X57185Y-43059D01*
X57218Y-43082D01*
X57263Y-43093D01*
X57353Y-43093D01*
X57376Y-43082D01*
X57387Y-43070D01*
X57398Y-43048D01*
X57398Y-43003D01*
X57387Y-42980D01*
X57376Y-42969D01*
X57353Y-42958D01*
X57297Y-42958D01*
X57275Y-42969D01*
X57263Y-42980D01*
X57252Y-43003D01*
X57252Y-43048D01*
X57263Y-43070D01*
X57275Y-43082D01*
X57297Y-43093D01*
X57162Y-42879D02*
X57162Y-42733D01*
X57252Y-42812D01*
X57252Y-42778D01*
X57263Y-42755D01*
X57275Y-42744D01*
X57297Y-42733D01*
X57353Y-42733D01*
X57376Y-42744D01*
X57387Y-42755D01*
X57398Y-42778D01*
X57398Y-42845D01*
X57387Y-42868D01*
X57376Y-42879D01*
X58245Y-42254D02*
X58234Y-42265D01*
X58200Y-42276D01*
X58178Y-42276D01*
X58144Y-42265D01*
X58122Y-42242D01*
X58110Y-42220D01*
X58099Y-42175D01*
X58099Y-42141D01*
X58110Y-42096D01*
X58122Y-42074D01*
X58144Y-42051D01*
X58178Y-42040D01*
X58200Y-42040D01*
X58234Y-42051D01*
X58245Y-42062D01*
X58335Y-42062D02*
X58347Y-42051D01*
X58369Y-42040D01*
X58425Y-42040D01*
X58448Y-42051D01*
X58459Y-42062D01*
X58470Y-42085D01*
X58470Y-42107D01*
X58459Y-42141D01*
X58324Y-42276D01*
X58470Y-42276D01*
X58695Y-42276D02*
X58560Y-42276D01*
X58628Y-42276D02*
X58628Y-42040D01*
X58605Y-42074D01*
X58583Y-42096D01*
X58560Y-42107D01*
G54D14*
X52395Y-35806D02*
X52380Y-35821D01*
X52335Y-35836D01*
X52305Y-35836D01*
X52260Y-35821D01*
X52230Y-35791D01*
X52215Y-35761D01*
X52200Y-35701D01*
X52200Y-35656D01*
X52215Y-35596D01*
X52230Y-35566D01*
X52260Y-35536D01*
X52305Y-35521D01*
X52335Y-35521D01*
X52380Y-35536D01*
X52395Y-35551D01*
X52545Y-35836D02*
X52605Y-35836D01*
X52635Y-35821D01*
X52650Y-35806D01*
X52680Y-35761D01*
X52695Y-35701D01*
X52695Y-35581D01*
X52680Y-35551D01*
X52665Y-35536D01*
X52635Y-35521D01*
X52575Y-35521D01*
X52545Y-35536D01*
X52530Y-35551D01*
X52515Y-35581D01*
X52515Y-35656D01*
X52530Y-35686D01*
X52545Y-35701D01*
X52575Y-35716D01*
X52635Y-35716D01*
X52665Y-35701D01*
X52680Y-35686D01*
X52695Y-35656D01*
X52965Y-35626D02*
X52965Y-35836D01*
X52890Y-35506D02*
X52815Y-35731D01*
X53010Y-35731D01*
G54D16*
X61120Y-37704D02*
X61133Y-37717D01*
X61146Y-37757D01*
X61146Y-37783D01*
X61133Y-37822D01*
X61107Y-37849D01*
X61081Y-37862D01*
X61028Y-37875D01*
X60989Y-37875D01*
X60937Y-37862D01*
X60910Y-37849D01*
X60884Y-37822D01*
X60871Y-37783D01*
X60871Y-37757D01*
X60884Y-37717D01*
X60897Y-37704D01*
X61146Y-37573D02*
X61146Y-37520D01*
X61133Y-37494D01*
X61120Y-37481D01*
X61081Y-37455D01*
X61028Y-37442D01*
X60923Y-37442D01*
X60897Y-37455D01*
X60884Y-37468D01*
X60871Y-37494D01*
X60871Y-37547D01*
X60884Y-37573D01*
X60897Y-37586D01*
X60923Y-37599D01*
X60989Y-37599D01*
X61015Y-37586D01*
X61028Y-37573D01*
X61041Y-37547D01*
X61041Y-37494D01*
X61028Y-37468D01*
X61015Y-37455D01*
X60989Y-37442D01*
X60897Y-37337D02*
X60884Y-37324D01*
X60871Y-37297D01*
X60871Y-37232D01*
X60884Y-37206D01*
X60897Y-37192D01*
X60923Y-37179D01*
X60950Y-37179D01*
X60989Y-37192D01*
X61146Y-37350D01*
X61146Y-37179D01*
G54D10*
X60009Y-36624D02*
X59998Y-36635D01*
X59964Y-36646D01*
X59942Y-36646D01*
X59908Y-36635D01*
X59885Y-36613D01*
X59874Y-36590D01*
X59863Y-36545D01*
X59863Y-36511D01*
X59874Y-36466D01*
X59885Y-36444D01*
X59908Y-36421D01*
X59942Y-36410D01*
X59964Y-36410D01*
X59998Y-36421D01*
X60009Y-36433D01*
X60122Y-36646D02*
X60167Y-36646D01*
X60189Y-36635D01*
X60200Y-36624D01*
X60223Y-36590D01*
X60234Y-36545D01*
X60234Y-36455D01*
X60223Y-36433D01*
X60212Y-36421D01*
X60189Y-36410D01*
X60144Y-36410D01*
X60122Y-36421D01*
X60110Y-36433D01*
X60099Y-36455D01*
X60099Y-36511D01*
X60110Y-36534D01*
X60122Y-36545D01*
X60144Y-36556D01*
X60189Y-36556D01*
X60212Y-36545D01*
X60223Y-36534D01*
X60234Y-36511D01*
X60313Y-36410D02*
X60459Y-36410D01*
X60380Y-36500D01*
X60414Y-36500D01*
X60437Y-36511D01*
X60448Y-36523D01*
X60459Y-36545D01*
X60459Y-36601D01*
X60448Y-36624D01*
X60437Y-36635D01*
X60414Y-36646D01*
X60347Y-36646D01*
X60324Y-36635D01*
X60313Y-36624D01*
G54D14*
X51987Y-40005D02*
X52002Y-40020D01*
X52017Y-40065D01*
X52017Y-40095D01*
X52002Y-40140D01*
X51972Y-40170D01*
X51942Y-40185D01*
X51882Y-40200D01*
X51837Y-40200D01*
X51777Y-40185D01*
X51747Y-40170D01*
X51717Y-40140D01*
X51702Y-40095D01*
X51702Y-40065D01*
X51717Y-40020D01*
X51732Y-40005D01*
X51807Y-39735D02*
X52017Y-39735D01*
X51687Y-39810D02*
X51912Y-39885D01*
X51912Y-39690D01*
X52017Y-39555D02*
X52017Y-39495D01*
X52002Y-39465D01*
X51987Y-39450D01*
X51942Y-39420D01*
X51882Y-39405D01*
X51762Y-39405D01*
X51732Y-39420D01*
X51717Y-39435D01*
X51702Y-39465D01*
X51702Y-39525D01*
X51717Y-39555D01*
X51732Y-39570D01*
X51762Y-39585D01*
X51837Y-39585D01*
X51867Y-39570D01*
X51882Y-39555D01*
X51897Y-39525D01*
X51897Y-39465D01*
X51882Y-39435D01*
X51867Y-39420D01*
X51837Y-39405D01*
G54D16*
X51856Y-36305D02*
X51843Y-36318D01*
X51804Y-36332D01*
X51778Y-36332D01*
X51738Y-36318D01*
X51712Y-36292D01*
X51699Y-36266D01*
X51686Y-36213D01*
X51686Y-36174D01*
X51699Y-36122D01*
X51712Y-36095D01*
X51738Y-36069D01*
X51778Y-36056D01*
X51804Y-36056D01*
X51843Y-36069D01*
X51856Y-36082D01*
X51961Y-36082D02*
X51975Y-36069D01*
X52001Y-36056D01*
X52066Y-36056D01*
X52093Y-36069D01*
X52106Y-36082D01*
X52119Y-36108D01*
X52119Y-36135D01*
X52106Y-36174D01*
X51948Y-36332D01*
X52119Y-36332D01*
X52224Y-36082D02*
X52237Y-36069D01*
X52263Y-36056D01*
X52329Y-36056D01*
X52355Y-36069D01*
X52368Y-36082D01*
X52381Y-36108D01*
X52381Y-36135D01*
X52368Y-36174D01*
X52211Y-36332D01*
X52381Y-36332D01*
X52644Y-36332D02*
X52486Y-36332D01*
X52565Y-36332D02*
X52565Y-36056D01*
X52539Y-36095D01*
X52513Y-36122D01*
X52486Y-36135D01*
G54D14*
X52553Y-39034D02*
X52538Y-39049D01*
X52493Y-39064D01*
X52463Y-39064D01*
X52418Y-39049D01*
X52388Y-39019D01*
X52373Y-38989D01*
X52358Y-38929D01*
X52358Y-38884D01*
X52373Y-38824D01*
X52388Y-38794D01*
X52418Y-38764D01*
X52463Y-38749D01*
X52493Y-38749D01*
X52538Y-38764D01*
X52553Y-38779D01*
X52823Y-38854D02*
X52823Y-39064D01*
X52748Y-38734D02*
X52673Y-38959D01*
X52868Y-38959D01*
X53123Y-38854D02*
X53123Y-39064D01*
X53048Y-38734D02*
X52973Y-38959D01*
X53168Y-38959D01*
X52695Y-41816D02*
X52710Y-41831D01*
X52725Y-41876D01*
X52725Y-41906D01*
X52710Y-41951D01*
X52680Y-41981D01*
X52650Y-41996D01*
X52590Y-42011D01*
X52545Y-42011D01*
X52485Y-41996D01*
X52455Y-41981D01*
X52425Y-41951D01*
X52410Y-41906D01*
X52410Y-41876D01*
X52425Y-41831D01*
X52440Y-41816D01*
X52410Y-41711D02*
X52410Y-41516D01*
X52530Y-41621D01*
X52530Y-41576D01*
X52545Y-41546D01*
X52560Y-41531D01*
X52590Y-41516D01*
X52665Y-41516D01*
X52695Y-41531D01*
X52710Y-41546D01*
X52725Y-41576D01*
X52725Y-41666D01*
X52710Y-41696D01*
X52695Y-41711D01*
X52725Y-41216D02*
X52725Y-41396D01*
X52725Y-41306D02*
X52410Y-41306D01*
X52455Y-41336D01*
X52485Y-41366D01*
X52500Y-41396D01*
X51987Y-41816D02*
X52002Y-41831D01*
X52017Y-41876D01*
X52017Y-41906D01*
X52002Y-41951D01*
X51972Y-41981D01*
X51942Y-41996D01*
X51882Y-42011D01*
X51837Y-42011D01*
X51777Y-41996D01*
X51747Y-41981D01*
X51717Y-41951D01*
X51702Y-41906D01*
X51702Y-41876D01*
X51717Y-41831D01*
X51732Y-41816D01*
X51702Y-41546D02*
X51702Y-41606D01*
X51717Y-41636D01*
X51732Y-41651D01*
X51777Y-41681D01*
X51837Y-41696D01*
X51957Y-41696D01*
X51987Y-41681D01*
X52002Y-41666D01*
X52017Y-41636D01*
X52017Y-41576D01*
X52002Y-41546D01*
X51987Y-41531D01*
X51957Y-41516D01*
X51882Y-41516D01*
X51852Y-41531D01*
X51837Y-41546D01*
X51822Y-41576D01*
X51822Y-41636D01*
X51837Y-41666D01*
X51852Y-41681D01*
X51882Y-41696D01*
X51837Y-41336D02*
X51822Y-41366D01*
X51807Y-41381D01*
X51777Y-41396D01*
X51762Y-41396D01*
X51732Y-41381D01*
X51717Y-41366D01*
X51702Y-41336D01*
X51702Y-41276D01*
X51717Y-41246D01*
X51732Y-41231D01*
X51762Y-41216D01*
X51777Y-41216D01*
X51807Y-41231D01*
X51822Y-41246D01*
X51837Y-41276D01*
X51837Y-41336D01*
X51852Y-41366D01*
X51867Y-41381D01*
X51897Y-41396D01*
X51957Y-41396D01*
X51987Y-41381D01*
X52002Y-41366D01*
X52017Y-41336D01*
X52017Y-41276D01*
X52002Y-41246D01*
X51987Y-41231D01*
X51957Y-41216D01*
X51897Y-41216D01*
X51867Y-41231D01*
X51852Y-41246D01*
X51837Y-41276D01*
G54D16*
X56683Y-37240D02*
X56696Y-37253D01*
X56709Y-37292D01*
X56709Y-37318D01*
X56696Y-37358D01*
X56670Y-37384D01*
X56644Y-37397D01*
X56591Y-37410D01*
X56552Y-37410D01*
X56500Y-37397D01*
X56473Y-37384D01*
X56447Y-37358D01*
X56434Y-37318D01*
X56434Y-37292D01*
X56447Y-37253D01*
X56460Y-37240D01*
X56434Y-37003D02*
X56434Y-37056D01*
X56447Y-37082D01*
X56460Y-37095D01*
X56500Y-37122D01*
X56552Y-37135D01*
X56657Y-37135D01*
X56683Y-37122D01*
X56696Y-37108D01*
X56709Y-37082D01*
X56709Y-37030D01*
X56696Y-37003D01*
X56683Y-36990D01*
X56657Y-36977D01*
X56591Y-36977D01*
X56565Y-36990D01*
X56552Y-37003D01*
X56539Y-37030D01*
X56539Y-37082D01*
X56552Y-37108D01*
X56565Y-37122D01*
X56591Y-37135D01*
X56434Y-36807D02*
X56434Y-36780D01*
X56447Y-36754D01*
X56460Y-36741D01*
X56486Y-36728D01*
X56539Y-36715D01*
X56604Y-36715D01*
X56657Y-36728D01*
X56683Y-36741D01*
X56696Y-36754D01*
X56709Y-36780D01*
X56709Y-36807D01*
X56696Y-36833D01*
X56683Y-36846D01*
X56657Y-36859D01*
X56604Y-36872D01*
X56539Y-36872D01*
X56486Y-36859D01*
X56460Y-36846D01*
X56447Y-36833D01*
X56434Y-36807D01*
G54D14*
X52592Y-40845D02*
X52577Y-40860D01*
X52532Y-40875D01*
X52502Y-40875D01*
X52457Y-40860D01*
X52427Y-40830D01*
X52412Y-40800D01*
X52397Y-40740D01*
X52397Y-40695D01*
X52412Y-40635D01*
X52427Y-40605D01*
X52457Y-40575D01*
X52502Y-40560D01*
X52532Y-40560D01*
X52577Y-40575D01*
X52592Y-40590D01*
X52697Y-40560D02*
X52892Y-40560D01*
X52787Y-40680D01*
X52832Y-40680D01*
X52862Y-40695D01*
X52877Y-40710D01*
X52892Y-40740D01*
X52892Y-40815D01*
X52877Y-40845D01*
X52862Y-40860D01*
X52832Y-40875D01*
X52742Y-40875D01*
X52712Y-40860D01*
X52697Y-40845D01*
X53162Y-40560D02*
X53102Y-40560D01*
X53072Y-40575D01*
X53057Y-40590D01*
X53027Y-40635D01*
X53012Y-40695D01*
X53012Y-40815D01*
X53027Y-40845D01*
X53042Y-40860D01*
X53072Y-40875D01*
X53132Y-40875D01*
X53162Y-40860D01*
X53177Y-40845D01*
X53192Y-40815D01*
X53192Y-40740D01*
X53177Y-40710D01*
X53162Y-40695D01*
X53132Y-40680D01*
X53072Y-40680D01*
X53042Y-40695D01*
X53027Y-40710D01*
X53012Y-40740D01*
X57289Y-34416D02*
X57274Y-34431D01*
X57229Y-34446D01*
X57199Y-34446D01*
X57154Y-34431D01*
X57124Y-34401D01*
X57109Y-34371D01*
X57094Y-34311D01*
X57094Y-34266D01*
X57109Y-34206D01*
X57124Y-34176D01*
X57154Y-34146D01*
X57199Y-34131D01*
X57229Y-34131D01*
X57274Y-34146D01*
X57289Y-34161D01*
X57559Y-34131D02*
X57499Y-34131D01*
X57469Y-34146D01*
X57454Y-34161D01*
X57424Y-34206D01*
X57409Y-34266D01*
X57409Y-34386D01*
X57424Y-34416D01*
X57439Y-34431D01*
X57469Y-34446D01*
X57529Y-34446D01*
X57559Y-34431D01*
X57574Y-34416D01*
X57589Y-34386D01*
X57589Y-34311D01*
X57574Y-34281D01*
X57559Y-34266D01*
X57529Y-34251D01*
X57469Y-34251D01*
X57439Y-34266D01*
X57424Y-34281D01*
X57409Y-34311D01*
X57739Y-34446D02*
X57799Y-34446D01*
X57829Y-34431D01*
X57844Y-34416D01*
X57874Y-34371D01*
X57889Y-34311D01*
X57889Y-34191D01*
X57874Y-34161D01*
X57859Y-34146D01*
X57829Y-34131D01*
X57769Y-34131D01*
X57739Y-34146D01*
X57724Y-34161D01*
X57709Y-34191D01*
X57709Y-34266D01*
X57724Y-34296D01*
X57739Y-34311D01*
X57769Y-34326D01*
X57829Y-34326D01*
X57859Y-34311D01*
X57874Y-34296D01*
X57889Y-34266D01*
G54D16*
X55656Y-37267D02*
X55669Y-37280D01*
X55682Y-37320D01*
X55682Y-37346D01*
X55669Y-37385D01*
X55643Y-37412D01*
X55616Y-37425D01*
X55564Y-37438D01*
X55524Y-37438D01*
X55472Y-37425D01*
X55446Y-37412D01*
X55419Y-37385D01*
X55406Y-37346D01*
X55406Y-37320D01*
X55419Y-37280D01*
X55433Y-37267D01*
X55406Y-37018D02*
X55406Y-37149D01*
X55538Y-37162D01*
X55524Y-37149D01*
X55511Y-37123D01*
X55511Y-37057D01*
X55524Y-37031D01*
X55538Y-37018D01*
X55564Y-37005D01*
X55629Y-37005D01*
X55656Y-37018D01*
X55669Y-37031D01*
X55682Y-37057D01*
X55682Y-37123D01*
X55669Y-37149D01*
X55656Y-37162D01*
X55406Y-36769D02*
X55406Y-36821D01*
X55419Y-36847D01*
X55433Y-36860D01*
X55472Y-36887D01*
X55524Y-36900D01*
X55629Y-36900D01*
X55656Y-36887D01*
X55669Y-36874D01*
X55682Y-36847D01*
X55682Y-36795D01*
X55669Y-36769D01*
X55656Y-36755D01*
X55629Y-36742D01*
X55564Y-36742D01*
X55538Y-36755D01*
X55524Y-36769D01*
X55511Y-36795D01*
X55511Y-36847D01*
X55524Y-36874D01*
X55538Y-36887D01*
X55564Y-36900D01*
G54D14*
X52395Y-35097D02*
X52380Y-35112D01*
X52335Y-35127D01*
X52305Y-35127D01*
X52260Y-35112D01*
X52230Y-35082D01*
X52215Y-35052D01*
X52200Y-34992D01*
X52200Y-34947D01*
X52215Y-34887D01*
X52230Y-34857D01*
X52260Y-34827D01*
X52305Y-34812D01*
X52335Y-34812D01*
X52380Y-34827D01*
X52395Y-34842D01*
X52545Y-35127D02*
X52605Y-35127D01*
X52635Y-35112D01*
X52650Y-35097D01*
X52680Y-35052D01*
X52695Y-34992D01*
X52695Y-34872D01*
X52680Y-34842D01*
X52665Y-34827D01*
X52635Y-34812D01*
X52575Y-34812D01*
X52545Y-34827D01*
X52530Y-34842D01*
X52515Y-34872D01*
X52515Y-34947D01*
X52530Y-34977D01*
X52545Y-34992D01*
X52575Y-35007D01*
X52635Y-35007D01*
X52665Y-34992D01*
X52680Y-34977D01*
X52695Y-34947D01*
X52980Y-34812D02*
X52830Y-34812D01*
X52815Y-34962D01*
X52830Y-34947D01*
X52860Y-34932D01*
X52935Y-34932D01*
X52965Y-34947D01*
X52980Y-34962D01*
X52995Y-34992D01*
X52995Y-35067D01*
X52980Y-35097D01*
X52965Y-35112D01*
X52935Y-35127D01*
X52860Y-35127D01*
X52830Y-35112D01*
X52815Y-35097D01*
X61825Y-35030D02*
X61810Y-35045D01*
X61765Y-35060D01*
X61735Y-35060D01*
X61690Y-35045D01*
X61660Y-35015D01*
X61645Y-34985D01*
X61630Y-34925D01*
X61630Y-34880D01*
X61645Y-34820D01*
X61660Y-34790D01*
X61690Y-34760D01*
X61735Y-34745D01*
X61765Y-34745D01*
X61810Y-34760D01*
X61825Y-34775D01*
X61930Y-34745D02*
X62140Y-34745D01*
X62005Y-35060D01*
X62230Y-34745D02*
X62440Y-34745D01*
X62305Y-35060D01*
X48325Y-37249D02*
X48340Y-37264D01*
X48355Y-37309D01*
X48355Y-37339D01*
X48340Y-37384D01*
X48310Y-37414D01*
X48280Y-37429D01*
X48220Y-37444D01*
X48175Y-37444D01*
X48115Y-37429D01*
X48085Y-37414D01*
X48055Y-37384D01*
X48040Y-37339D01*
X48040Y-37309D01*
X48055Y-37264D01*
X48070Y-37249D01*
X48040Y-37144D02*
X48040Y-36934D01*
X48355Y-37069D01*
X48040Y-36664D02*
X48040Y-36814D01*
X48190Y-36829D01*
X48175Y-36814D01*
X48160Y-36784D01*
X48160Y-36709D01*
X48175Y-36679D01*
X48190Y-36664D01*
X48220Y-36649D01*
X48295Y-36649D01*
X48325Y-36664D01*
X48340Y-36679D01*
X48355Y-36709D01*
X48355Y-36784D01*
X48340Y-36814D01*
X48325Y-36829D01*
X48640Y-38627D02*
X48655Y-38642D01*
X48670Y-38687D01*
X48670Y-38717D01*
X48655Y-38762D01*
X48625Y-38792D01*
X48595Y-38807D01*
X48535Y-38822D01*
X48490Y-38822D01*
X48430Y-38807D01*
X48400Y-38792D01*
X48370Y-38762D01*
X48355Y-38717D01*
X48355Y-38687D01*
X48370Y-38642D01*
X48385Y-38627D01*
X48355Y-38522D02*
X48355Y-38312D01*
X48670Y-38447D01*
X48355Y-38057D02*
X48355Y-38117D01*
X48370Y-38147D01*
X48385Y-38162D01*
X48430Y-38192D01*
X48490Y-38207D01*
X48610Y-38207D01*
X48640Y-38192D01*
X48655Y-38177D01*
X48670Y-38147D01*
X48670Y-38087D01*
X48655Y-38057D01*
X48640Y-38042D01*
X48610Y-38027D01*
X48535Y-38027D01*
X48505Y-38042D01*
X48490Y-38057D01*
X48475Y-38087D01*
X48475Y-38147D01*
X48490Y-38177D01*
X48505Y-38192D01*
X48535Y-38207D01*
G54D10*
X60903Y-38175D02*
X60892Y-38186D01*
X60858Y-38197D01*
X60835Y-38197D01*
X60802Y-38186D01*
X60779Y-38164D01*
X60768Y-38141D01*
X60757Y-38096D01*
X60757Y-38062D01*
X60768Y-38017D01*
X60779Y-37995D01*
X60802Y-37973D01*
X60835Y-37961D01*
X60858Y-37961D01*
X60892Y-37973D01*
X60903Y-37984D01*
X61128Y-38197D02*
X60993Y-38197D01*
X61060Y-38197D02*
X61060Y-37961D01*
X61038Y-37995D01*
X61015Y-38017D01*
X60993Y-38029D01*
X61263Y-38062D02*
X61240Y-38051D01*
X61229Y-38040D01*
X61218Y-38017D01*
X61218Y-38006D01*
X61229Y-37984D01*
X61240Y-37973D01*
X61263Y-37961D01*
X61308Y-37961D01*
X61330Y-37973D01*
X61341Y-37984D01*
X61353Y-38006D01*
X61353Y-38017D01*
X61341Y-38040D01*
X61330Y-38051D01*
X61308Y-38062D01*
X61263Y-38062D01*
X61240Y-38074D01*
X61229Y-38085D01*
X61218Y-38107D01*
X61218Y-38152D01*
X61229Y-38175D01*
X61240Y-38186D01*
X61263Y-38197D01*
X61308Y-38197D01*
X61330Y-38186D01*
X61341Y-38175D01*
X61353Y-38152D01*
X61353Y-38107D01*
X61341Y-38085D01*
X61330Y-38074D01*
X61308Y-38062D01*
G54D16*
X61161Y-39219D02*
X61148Y-39232D01*
X61108Y-39245D01*
X61082Y-39245D01*
X61043Y-39232D01*
X61017Y-39206D01*
X61003Y-39179D01*
X60990Y-39127D01*
X60990Y-39087D01*
X61003Y-39035D01*
X61017Y-39009D01*
X61043Y-38982D01*
X61082Y-38969D01*
X61108Y-38969D01*
X61148Y-38982D01*
X61161Y-38996D01*
X61423Y-39245D02*
X61266Y-39245D01*
X61345Y-39245D02*
X61345Y-38969D01*
X61318Y-39009D01*
X61292Y-39035D01*
X61266Y-39048D01*
X61515Y-38969D02*
X61699Y-38969D01*
X61581Y-39245D01*
X61161Y-39612D02*
X61148Y-39625D01*
X61108Y-39639D01*
X61082Y-39639D01*
X61043Y-39625D01*
X61017Y-39599D01*
X61003Y-39573D01*
X60990Y-39520D01*
X60990Y-39481D01*
X61003Y-39429D01*
X61017Y-39402D01*
X61043Y-39376D01*
X61082Y-39363D01*
X61108Y-39363D01*
X61148Y-39376D01*
X61161Y-39389D01*
X61423Y-39639D02*
X61266Y-39639D01*
X61345Y-39639D02*
X61345Y-39363D01*
X61318Y-39402D01*
X61292Y-39429D01*
X61266Y-39442D01*
X61660Y-39363D02*
X61607Y-39363D01*
X61581Y-39376D01*
X61568Y-39389D01*
X61541Y-39429D01*
X61528Y-39481D01*
X61528Y-39586D01*
X61541Y-39612D01*
X61555Y-39625D01*
X61581Y-39639D01*
X61633Y-39639D01*
X61660Y-39625D01*
X61673Y-39612D01*
X61686Y-39586D01*
X61686Y-39520D01*
X61673Y-39494D01*
X61660Y-39481D01*
X61633Y-39468D01*
X61581Y-39468D01*
X61555Y-39481D01*
X61541Y-39494D01*
X61528Y-39520D01*
G54D14*
X61356Y-40247D02*
X61341Y-40262D01*
X61296Y-40277D01*
X61266Y-40277D01*
X61221Y-40262D01*
X61191Y-40232D01*
X61176Y-40202D01*
X61161Y-40142D01*
X61161Y-40097D01*
X61176Y-40037D01*
X61191Y-40007D01*
X61221Y-39977D01*
X61266Y-39962D01*
X61296Y-39962D01*
X61341Y-39977D01*
X61356Y-39992D01*
X61656Y-40277D02*
X61476Y-40277D01*
X61566Y-40277D02*
X61566Y-39962D01*
X61536Y-40007D01*
X61506Y-40037D01*
X61476Y-40052D01*
X61761Y-39962D02*
X61956Y-39962D01*
X61851Y-40082D01*
X61896Y-40082D01*
X61926Y-40097D01*
X61941Y-40112D01*
X61956Y-40142D01*
X61956Y-40217D01*
X61941Y-40247D01*
X61926Y-40262D01*
X61896Y-40277D01*
X61806Y-40277D01*
X61776Y-40262D01*
X61761Y-40247D01*
X61289Y-41987D02*
X61274Y-42002D01*
X61229Y-42017D01*
X61199Y-42017D01*
X61154Y-42002D01*
X61124Y-41972D01*
X61109Y-41942D01*
X61094Y-41882D01*
X61094Y-41837D01*
X61109Y-41777D01*
X61124Y-41747D01*
X61154Y-41717D01*
X61199Y-41702D01*
X61229Y-41702D01*
X61274Y-41717D01*
X61289Y-41732D01*
X61589Y-42017D02*
X61409Y-42017D01*
X61499Y-42017D02*
X61499Y-41702D01*
X61469Y-41747D01*
X61439Y-41777D01*
X61409Y-41792D01*
X61874Y-41702D02*
X61724Y-41702D01*
X61709Y-41852D01*
X61724Y-41837D01*
X61754Y-41822D01*
X61829Y-41822D01*
X61859Y-41837D01*
X61874Y-41852D01*
X61889Y-41882D01*
X61889Y-41957D01*
X61874Y-41987D01*
X61859Y-42002D01*
X61829Y-42017D01*
X61754Y-42017D01*
X61724Y-42002D01*
X61709Y-41987D01*
X54325Y-39416D02*
X54310Y-39431D01*
X54265Y-39446D01*
X54235Y-39446D01*
X54190Y-39431D01*
X54160Y-39401D01*
X54145Y-39371D01*
X54130Y-39311D01*
X54130Y-39266D01*
X54145Y-39206D01*
X54160Y-39176D01*
X54190Y-39146D01*
X54235Y-39131D01*
X54265Y-39131D01*
X54310Y-39146D01*
X54325Y-39161D01*
X54610Y-39131D02*
X54460Y-39131D01*
X54445Y-39281D01*
X54460Y-39266D01*
X54490Y-39251D01*
X54565Y-39251D01*
X54595Y-39266D01*
X54610Y-39281D01*
X54625Y-39311D01*
X54625Y-39386D01*
X54610Y-39416D01*
X54595Y-39431D01*
X54565Y-39446D01*
X54490Y-39446D01*
X54460Y-39431D01*
X54445Y-39416D01*
X61356Y-40664D02*
X61341Y-40679D01*
X61296Y-40694D01*
X61266Y-40694D01*
X61221Y-40679D01*
X61191Y-40649D01*
X61176Y-40619D01*
X61161Y-40559D01*
X61161Y-40514D01*
X61176Y-40454D01*
X61191Y-40424D01*
X61221Y-40394D01*
X61266Y-40379D01*
X61296Y-40379D01*
X61341Y-40394D01*
X61356Y-40409D01*
X61656Y-40694D02*
X61476Y-40694D01*
X61566Y-40694D02*
X61566Y-40379D01*
X61536Y-40424D01*
X61506Y-40454D01*
X61476Y-40469D01*
X61926Y-40484D02*
X61926Y-40694D01*
X61851Y-40364D02*
X61776Y-40589D01*
X61971Y-40589D01*
X55265Y-48796D02*
X55115Y-48901D01*
X55265Y-48976D02*
X54950Y-48976D01*
X54950Y-48856D01*
X54965Y-48826D01*
X54980Y-48811D01*
X55010Y-48796D01*
X55055Y-48796D01*
X55085Y-48811D01*
X55100Y-48826D01*
X55115Y-48856D01*
X55115Y-48976D01*
X55055Y-48526D02*
X55265Y-48526D01*
X54935Y-48601D02*
X55160Y-48676D01*
X55160Y-48482D01*
X54950Y-48392D02*
X54950Y-48197D01*
X55070Y-48302D01*
X55070Y-48257D01*
X55085Y-48227D01*
X55100Y-48212D01*
X55130Y-48197D01*
X55205Y-48197D01*
X55235Y-48212D01*
X55250Y-48227D01*
X55265Y-48257D01*
X55265Y-48347D01*
X55250Y-48377D01*
X55235Y-48392D01*
X56319Y-44391D02*
X56499Y-44391D01*
X56409Y-44706D02*
X56409Y-44391D01*
X56769Y-44706D02*
X56589Y-44706D01*
X56679Y-44706D02*
X56679Y-44391D01*
X56649Y-44436D01*
X56619Y-44466D01*
X56589Y-44481D01*
G54D12*
X56866Y-43411D02*
X56866Y-43505D01*
X56791Y-43467D02*
X56866Y-43505D01*
X56940Y-43467D01*
X56821Y-43580D02*
X56866Y-43505D01*
X56910Y-43580D01*
G54D14*
X54634Y-35060D02*
X54814Y-35060D01*
X54724Y-35375D02*
X54724Y-35060D01*
X54903Y-35090D02*
X54918Y-35075D01*
X54948Y-35060D01*
X55023Y-35060D01*
X55053Y-35075D01*
X55068Y-35090D01*
X55083Y-35120D01*
X55083Y-35150D01*
X55068Y-35195D01*
X54888Y-35375D01*
X55083Y-35375D01*
G54D12*
X56917Y-35998D02*
X56917Y-36091D01*
X56842Y-36054D02*
X56917Y-36091D01*
X56992Y-36054D01*
X56872Y-36166D02*
X56917Y-36091D01*
X56962Y-36166D01*
G54D14*
X60498Y-44103D02*
X60498Y-43788D01*
X60573Y-43788D01*
X60618Y-43803D01*
X60648Y-43833D01*
X60663Y-43863D01*
X60678Y-43923D01*
X60678Y-43968D01*
X60663Y-44028D01*
X60648Y-44058D01*
X60618Y-44088D01*
X60573Y-44103D01*
X60498Y-44103D01*
X60798Y-44013D02*
X60948Y-44013D01*
X60768Y-44103D02*
X60873Y-43788D01*
X60978Y-44103D01*
X61218Y-43788D02*
X61158Y-43788D01*
X61128Y-43803D01*
X61113Y-43818D01*
X61083Y-43863D01*
X61068Y-43923D01*
X61068Y-44043D01*
X61083Y-44073D01*
X61098Y-44088D01*
X61128Y-44103D01*
X61188Y-44103D01*
X61218Y-44088D01*
X61233Y-44073D01*
X61248Y-44043D01*
X61248Y-43968D01*
X61233Y-43938D01*
X61218Y-43923D01*
X61188Y-43908D01*
X61128Y-43908D01*
X61098Y-43923D01*
X61083Y-43938D01*
X61068Y-43968D01*
X60698Y-45598D02*
X60792Y-45598D01*
X60754Y-45673D02*
X60792Y-45598D01*
X60754Y-45523D01*
X60867Y-45643D02*
X60792Y-45598D01*
X60867Y-45553D01*
X61923Y-44585D02*
X61908Y-44600D01*
X61863Y-44615D01*
X61833Y-44615D01*
X61788Y-44600D01*
X61758Y-44570D01*
X61743Y-44540D01*
X61728Y-44480D01*
X61728Y-44435D01*
X61743Y-44375D01*
X61758Y-44345D01*
X61788Y-44315D01*
X61833Y-44300D01*
X61863Y-44300D01*
X61908Y-44315D01*
X61923Y-44330D01*
X62043Y-44330D02*
X62058Y-44315D01*
X62088Y-44300D01*
X62163Y-44300D01*
X62193Y-44315D01*
X62208Y-44330D01*
X62223Y-44360D01*
X62223Y-44390D01*
X62208Y-44435D01*
X62028Y-44615D01*
X62223Y-44615D01*
X62493Y-44300D02*
X62433Y-44300D01*
X62403Y-44315D01*
X62388Y-44330D01*
X62358Y-44375D01*
X62343Y-44435D01*
X62343Y-44555D01*
X62358Y-44585D01*
X62373Y-44600D01*
X62403Y-44615D01*
X62463Y-44615D01*
X62493Y-44600D01*
X62508Y-44585D01*
X62523Y-44555D01*
X62523Y-44480D01*
X62508Y-44450D01*
X62493Y-44435D01*
X62463Y-44420D01*
X62403Y-44420D01*
X62373Y-44435D01*
X62358Y-44450D01*
X62343Y-44480D01*
X55872Y-37993D02*
X55872Y-37678D01*
X55947Y-37678D01*
X55992Y-37693D01*
X56022Y-37723D01*
X56037Y-37753D01*
X56052Y-37813D01*
X56052Y-37858D01*
X56037Y-37918D01*
X56022Y-37948D01*
X55992Y-37978D01*
X55947Y-37993D01*
X55872Y-37993D01*
X56172Y-37903D02*
X56322Y-37903D01*
X56142Y-37993D02*
X56247Y-37678D01*
X56352Y-37993D01*
X56427Y-37678D02*
X56622Y-37678D01*
X56517Y-37798D01*
X56562Y-37798D01*
X56592Y-37813D01*
X56607Y-37828D01*
X56622Y-37858D01*
X56622Y-37933D01*
X56607Y-37963D01*
X56592Y-37978D01*
X56562Y-37993D01*
X56472Y-37993D01*
X56442Y-37978D01*
X56427Y-37963D01*
X46301Y-35715D02*
X46286Y-35730D01*
X46241Y-35745D01*
X46211Y-35745D01*
X46166Y-35730D01*
X46136Y-35700D01*
X46121Y-35670D01*
X46106Y-35610D01*
X46106Y-35565D01*
X46121Y-35505D01*
X46136Y-35475D01*
X46166Y-35445D01*
X46211Y-35430D01*
X46241Y-35430D01*
X46286Y-35445D01*
X46301Y-35460D01*
X46421Y-35460D02*
X46436Y-35445D01*
X46466Y-35430D01*
X46541Y-35430D01*
X46571Y-35445D01*
X46586Y-35460D01*
X46601Y-35490D01*
X46601Y-35520D01*
X46586Y-35565D01*
X46406Y-35745D01*
X46601Y-35745D01*
X46781Y-35565D02*
X46751Y-35550D01*
X46736Y-35535D01*
X46721Y-35505D01*
X46721Y-35490D01*
X46736Y-35460D01*
X46751Y-35445D01*
X46781Y-35430D01*
X46841Y-35430D01*
X46871Y-35445D01*
X46886Y-35460D01*
X46901Y-35490D01*
X46901Y-35505D01*
X46886Y-35535D01*
X46871Y-35550D01*
X46841Y-35565D01*
X46781Y-35565D01*
X46751Y-35580D01*
X46736Y-35595D01*
X46721Y-35625D01*
X46721Y-35685D01*
X46736Y-35715D01*
X46751Y-35730D01*
X46781Y-35745D01*
X46841Y-35745D01*
X46871Y-35730D01*
X46886Y-35715D01*
X46901Y-35685D01*
X46901Y-35625D01*
X46886Y-35595D01*
X46871Y-35580D01*
X46841Y-35565D01*
X47490Y-36097D02*
X47475Y-36112D01*
X47430Y-36127D01*
X47400Y-36127D01*
X47355Y-36112D01*
X47325Y-36082D01*
X47310Y-36052D01*
X47295Y-35992D01*
X47295Y-35947D01*
X47310Y-35887D01*
X47325Y-35857D01*
X47355Y-35827D01*
X47400Y-35812D01*
X47430Y-35812D01*
X47475Y-35827D01*
X47490Y-35842D01*
X47610Y-35842D02*
X47625Y-35827D01*
X47655Y-35812D01*
X47730Y-35812D01*
X47760Y-35827D01*
X47775Y-35842D01*
X47790Y-35872D01*
X47790Y-35902D01*
X47775Y-35947D01*
X47595Y-36127D01*
X47790Y-36127D01*
X47940Y-36127D02*
X48000Y-36127D01*
X48030Y-36112D01*
X48045Y-36097D01*
X48075Y-36052D01*
X48090Y-35992D01*
X48090Y-35872D01*
X48075Y-35842D01*
X48060Y-35827D01*
X48030Y-35812D01*
X47970Y-35812D01*
X47940Y-35827D01*
X47925Y-35842D01*
X47910Y-35872D01*
X47910Y-35947D01*
X47925Y-35977D01*
X47940Y-35992D01*
X47970Y-36007D01*
X48030Y-36007D01*
X48060Y-35992D01*
X48075Y-35977D01*
X48090Y-35947D01*
X46481Y-38434D02*
X46376Y-38284D01*
X46301Y-38434D02*
X46301Y-38119D01*
X46421Y-38119D01*
X46451Y-38134D01*
X46466Y-38149D01*
X46481Y-38179D01*
X46481Y-38224D01*
X46466Y-38254D01*
X46451Y-38269D01*
X46421Y-38284D01*
X46301Y-38284D01*
X46571Y-38119D02*
X46751Y-38119D01*
X46661Y-38434D02*
X46661Y-38119D01*
X47020Y-38434D02*
X46841Y-38434D01*
X46931Y-38434D02*
X46931Y-38119D01*
X46901Y-38164D01*
X46871Y-38194D01*
X46841Y-38209D01*
G54D16*
X48751Y-32762D02*
X48738Y-32775D01*
X48699Y-32788D01*
X48673Y-32788D01*
X48633Y-32775D01*
X48607Y-32749D01*
X48594Y-32723D01*
X48581Y-32670D01*
X48581Y-32631D01*
X48594Y-32578D01*
X48607Y-32552D01*
X48633Y-32526D01*
X48673Y-32513D01*
X48699Y-32513D01*
X48738Y-32526D01*
X48751Y-32539D01*
X48843Y-32513D02*
X49014Y-32513D01*
X48922Y-32618D01*
X48961Y-32618D01*
X48988Y-32631D01*
X49001Y-32644D01*
X49014Y-32670D01*
X49014Y-32736D01*
X49001Y-32762D01*
X48988Y-32775D01*
X48961Y-32788D01*
X48883Y-32788D01*
X48856Y-32775D01*
X48843Y-32762D01*
X49185Y-32513D02*
X49211Y-32513D01*
X49237Y-32526D01*
X49250Y-32539D01*
X49263Y-32565D01*
X49276Y-32618D01*
X49276Y-32683D01*
X49263Y-32736D01*
X49250Y-32762D01*
X49237Y-32775D01*
X49211Y-32788D01*
X49185Y-32788D01*
X49158Y-32775D01*
X49145Y-32762D01*
X49132Y-32736D01*
X49119Y-32683D01*
X49119Y-32618D01*
X49132Y-32565D01*
X49145Y-32539D01*
X49158Y-32526D01*
X49185Y-32513D01*
G54D14*
X49203Y-34698D02*
X49218Y-34713D01*
X49233Y-34758D01*
X49233Y-34788D01*
X49218Y-34833D01*
X49188Y-34863D01*
X49158Y-34878D01*
X49098Y-34893D01*
X49053Y-34893D01*
X48993Y-34878D01*
X48963Y-34863D01*
X48933Y-34833D01*
X48918Y-34788D01*
X48918Y-34758D01*
X48933Y-34713D01*
X48948Y-34698D01*
X48918Y-34593D02*
X48918Y-34398D01*
X49038Y-34503D01*
X49038Y-34458D01*
X49053Y-34428D01*
X49068Y-34413D01*
X49098Y-34398D01*
X49173Y-34398D01*
X49203Y-34413D01*
X49218Y-34428D01*
X49233Y-34458D01*
X49233Y-34548D01*
X49218Y-34578D01*
X49203Y-34593D01*
X48948Y-34278D02*
X48933Y-34263D01*
X48918Y-34233D01*
X48918Y-34158D01*
X48933Y-34128D01*
X48948Y-34113D01*
X48978Y-34098D01*
X49008Y-34098D01*
X49053Y-34113D01*
X49233Y-34293D01*
X49233Y-34098D01*
X46347Y-44152D02*
X46662Y-43942D01*
X46347Y-43942D02*
X46662Y-44152D01*
X46377Y-43837D02*
X46362Y-43822D01*
X46347Y-43792D01*
X46347Y-43717D01*
X46362Y-43687D01*
X46377Y-43672D01*
X46407Y-43657D01*
X46437Y-43657D01*
X46482Y-43672D01*
X46662Y-43852D01*
X46662Y-43657D01*
G54D12*
X47763Y-46591D02*
X47763Y-46352D01*
X47883Y-46472D02*
X47643Y-46472D01*
X47568Y-46247D02*
X47883Y-46143D01*
X47568Y-46038D01*
X47853Y-45754D02*
X47868Y-45769D01*
X47883Y-45814D01*
X47883Y-45844D01*
X47868Y-45889D01*
X47838Y-45918D01*
X47808Y-45933D01*
X47748Y-45948D01*
X47703Y-45948D01*
X47643Y-45933D01*
X47613Y-45918D01*
X47583Y-45889D01*
X47568Y-45844D01*
X47568Y-45814D01*
X47583Y-45769D01*
X47598Y-45754D01*
X47853Y-45440D02*
X47868Y-45455D01*
X47883Y-45500D01*
X47883Y-45530D01*
X47868Y-45575D01*
X47838Y-45604D01*
X47808Y-45619D01*
X47748Y-45634D01*
X47703Y-45634D01*
X47643Y-45619D01*
X47613Y-45604D01*
X47583Y-45575D01*
X47568Y-45530D01*
X47568Y-45500D01*
X47583Y-45455D01*
X47598Y-45440D01*
G54D16*
X46203Y-32473D02*
X46387Y-32749D01*
X46387Y-32473D02*
X46203Y-32749D01*
X46544Y-32473D02*
X46597Y-32473D01*
X46623Y-32486D01*
X46649Y-32513D01*
X46662Y-32565D01*
X46662Y-32657D01*
X46649Y-32709D01*
X46623Y-32736D01*
X46597Y-32749D01*
X46544Y-32749D01*
X46518Y-32736D01*
X46492Y-32709D01*
X46479Y-32657D01*
X46479Y-32565D01*
X46492Y-32513D01*
X46518Y-32486D01*
X46544Y-32473D01*
X46925Y-32749D02*
X46767Y-32749D01*
X46846Y-32749D02*
X46846Y-32473D01*
X46820Y-32513D01*
X46793Y-32539D01*
X46767Y-32552D01*
G54D10*
X49366Y-33238D02*
X49366Y-33331D01*
X49272Y-33294D02*
X49366Y-33331D01*
X49459Y-33294D01*
X49309Y-33406D02*
X49366Y-33331D01*
X49422Y-33406D01*
G54D16*
X47053Y-32469D02*
X47237Y-32745D01*
X47237Y-32469D02*
X47053Y-32745D01*
X47395Y-32469D02*
X47447Y-32469D01*
X47473Y-32482D01*
X47500Y-32509D01*
X47513Y-32561D01*
X47513Y-32653D01*
X47500Y-32706D01*
X47473Y-32732D01*
X47447Y-32745D01*
X47395Y-32745D01*
X47368Y-32732D01*
X47342Y-32706D01*
X47329Y-32653D01*
X47329Y-32561D01*
X47342Y-32509D01*
X47368Y-32482D01*
X47395Y-32469D01*
X47618Y-32496D02*
X47631Y-32482D01*
X47657Y-32469D01*
X47723Y-32469D01*
X47749Y-32482D01*
X47762Y-32496D01*
X47775Y-32522D01*
X47775Y-32548D01*
X47762Y-32587D01*
X47604Y-32745D01*
X47775Y-32745D01*
G54D10*
X49015Y-33595D02*
X49015Y-33651D01*
X48959Y-33629D02*
X49015Y-33651D01*
X49071Y-33629D01*
X48982Y-33696D02*
X49015Y-33651D01*
X49049Y-33696D01*
G54D14*
X59508Y-46702D02*
X59718Y-47017D01*
X59718Y-46702D02*
X59508Y-47017D01*
X59988Y-46702D02*
X59838Y-46702D01*
X59823Y-46852D01*
X59838Y-46837D01*
X59868Y-46822D01*
X59943Y-46822D01*
X59973Y-46837D01*
X59988Y-46852D01*
X60003Y-46882D01*
X60003Y-46957D01*
X59988Y-46987D01*
X59973Y-47002D01*
X59943Y-47017D01*
X59868Y-47017D01*
X59838Y-47002D01*
X59823Y-46987D01*
G54D10*
X64656Y-48119D02*
X64476Y-48119D01*
X64566Y-48119D02*
X64566Y-47804D01*
X64536Y-47849D01*
X64506Y-47879D01*
X64476Y-47894D01*
G54D14*
X59414Y-48281D02*
X59624Y-48595D01*
X59624Y-48281D02*
X59414Y-48595D01*
X59879Y-48386D02*
X59879Y-48595D01*
X59804Y-48266D02*
X59729Y-48491D01*
X59924Y-48491D01*
G54D10*
X59262Y-49576D02*
X59083Y-49576D01*
X59173Y-49576D02*
X59173Y-49261D01*
X59143Y-49306D01*
X59113Y-49336D01*
X59083Y-49351D01*
G54D14*
X56049Y-48670D02*
X55899Y-48670D01*
X55899Y-48355D01*
X56154Y-48670D02*
X56154Y-48355D01*
X56229Y-48355D01*
X56274Y-48370D01*
X56304Y-48400D01*
X56319Y-48430D01*
X56334Y-48490D01*
X56334Y-48535D01*
X56319Y-48595D01*
X56304Y-48625D01*
X56274Y-48655D01*
X56229Y-48670D01*
X56154Y-48670D01*
X56634Y-48670D02*
X56454Y-48670D01*
X56544Y-48670D02*
X56544Y-48355D01*
X56514Y-48400D01*
X56484Y-48430D01*
X56454Y-48445D01*
X59041Y-34458D02*
X59041Y-34143D01*
X59116Y-34143D01*
X59161Y-34158D01*
X59191Y-34188D01*
X59206Y-34218D01*
X59221Y-34278D01*
X59221Y-34323D01*
X59206Y-34383D01*
X59191Y-34413D01*
X59161Y-34443D01*
X59116Y-34458D01*
X59041Y-34458D01*
X59341Y-34368D02*
X59491Y-34368D01*
X59311Y-34458D02*
X59416Y-34143D01*
X59521Y-34458D01*
X59776Y-34143D02*
X59626Y-34143D01*
X59611Y-34293D01*
X59626Y-34278D01*
X59656Y-34263D01*
X59731Y-34263D01*
X59761Y-34278D01*
X59776Y-34293D01*
X59791Y-34323D01*
X59791Y-34398D01*
X59776Y-34428D01*
X59761Y-34443D01*
X59731Y-34458D01*
X59656Y-34458D01*
X59626Y-34443D01*
X59611Y-34428D01*
G54D12*
X59112Y-36224D02*
X59205Y-36224D01*
X59168Y-36298D02*
X59205Y-36224D01*
X59168Y-36149D01*
X59280Y-36269D02*
X59205Y-36224D01*
X59280Y-36179D01*
G54D14*
X64221Y-33954D02*
X64431Y-34269D01*
X64431Y-33954D02*
X64221Y-34269D01*
X64686Y-33954D02*
X64626Y-33954D01*
X64596Y-33969D01*
X64581Y-33984D01*
X64551Y-34029D01*
X64536Y-34089D01*
X64536Y-34209D01*
X64551Y-34239D01*
X64566Y-34254D01*
X64596Y-34269D01*
X64656Y-34269D01*
X64686Y-34254D01*
X64701Y-34239D01*
X64716Y-34209D01*
X64716Y-34134D01*
X64701Y-34104D01*
X64686Y-34089D01*
X64656Y-34074D01*
X64596Y-34074D01*
X64566Y-34089D01*
X64551Y-34104D01*
X64536Y-34134D01*
X64272Y-45875D02*
X64482Y-46190D01*
X64482Y-45875D02*
X64272Y-46190D01*
X64572Y-45875D02*
X64782Y-45875D01*
X64647Y-46190D01*
X50688Y-34293D02*
X50793Y-34293D01*
X50838Y-34458D02*
X50688Y-34458D01*
X50688Y-34143D01*
X50838Y-34143D01*
X50973Y-34458D02*
X50973Y-34143D01*
X51152Y-34458D02*
X51017Y-34278D01*
X51152Y-34143D02*
X50973Y-34323D01*
X51452Y-34458D02*
X51272Y-34458D01*
X51362Y-34458D02*
X51362Y-34143D01*
X51332Y-34188D01*
X51302Y-34218D01*
X51272Y-34233D01*
X57540Y-32804D02*
X57750Y-33119D01*
X57750Y-32804D02*
X57540Y-33119D01*
X57885Y-33119D02*
X57945Y-33119D01*
X57975Y-33104D01*
X57990Y-33089D01*
X58020Y-33044D01*
X58035Y-32984D01*
X58035Y-32864D01*
X58020Y-32834D01*
X58005Y-32819D01*
X57975Y-32804D01*
X57915Y-32804D01*
X57885Y-32819D01*
X57870Y-32834D01*
X57855Y-32864D01*
X57855Y-32939D01*
X57870Y-32969D01*
X57885Y-32984D01*
X57915Y-32999D01*
X57975Y-32999D01*
X58005Y-32984D01*
X58020Y-32969D01*
X58035Y-32939D01*
G54D12*
X51388Y-33229D02*
X51209Y-33229D01*
X51299Y-33229D02*
X51299Y-32836D01*
X51269Y-32893D01*
X51239Y-32930D01*
X51209Y-32949D01*
G54D16*
X47624Y-43324D02*
X47519Y-43174D01*
X47444Y-43324D02*
X47444Y-43009D01*
X47564Y-43009D01*
X47594Y-43024D01*
X47609Y-43039D01*
X47624Y-43069D01*
X47624Y-43114D01*
X47609Y-43144D01*
X47594Y-43159D01*
X47564Y-43174D01*
X47444Y-43174D01*
X47909Y-43009D02*
X47759Y-43009D01*
X47744Y-43159D01*
X47759Y-43144D01*
X47789Y-43129D01*
X47864Y-43129D01*
X47894Y-43144D01*
X47909Y-43159D01*
X47924Y-43189D01*
X47924Y-43264D01*
X47909Y-43294D01*
X47894Y-43309D01*
X47864Y-43324D01*
X47789Y-43324D01*
X47759Y-43309D01*
X47744Y-43294D01*
M02*
