G04 (created by PCBNEW (2013-05-31 BZR 4019)-stable) date 11/04/2014 15:09:48*
%MOIN*%
G04 Gerber Fmt 3.4, Leading zero omitted, Abs format*
%FSLAX34Y34*%
G01*
G70*
G90*
G04 APERTURE LIST*
%ADD10C,0.005*%
%ADD11C,0.0077*%
%ADD12C,0.00787402*%
%ADD13C,0.011811*%
G04 APERTURE END LIST*
G54D10*
G54D11*
X42606Y-52483D02*
X42606Y-27680D01*
X68983Y-52483D02*
X42606Y-52483D01*
X68983Y-27680D02*
X68983Y-52483D01*
X42606Y-27680D02*
X68983Y-27680D01*
X66228Y-30437D02*
X66228Y-39492D01*
X57764Y-30437D02*
X66228Y-30437D01*
X57764Y-29650D02*
X57764Y-30437D01*
X67016Y-29650D02*
X57764Y-29650D01*
X67016Y-39492D02*
X67016Y-29650D01*
X66228Y-39492D02*
X67016Y-39492D01*
X57764Y-50515D02*
X57764Y-49728D01*
X67016Y-50515D02*
X57764Y-50515D01*
X67016Y-40948D02*
X67016Y-50515D01*
X66228Y-40948D02*
X67016Y-40948D01*
X66228Y-49728D02*
X66228Y-40948D01*
X57764Y-49728D02*
X66228Y-49728D01*
X46936Y-50515D02*
X46936Y-44413D01*
X56386Y-50515D02*
X46936Y-50515D01*
X56386Y-49728D02*
X56386Y-50515D01*
X47724Y-49728D02*
X56386Y-49728D01*
X47724Y-44413D02*
X47724Y-49728D01*
X46936Y-44413D02*
X47724Y-44413D01*
X46936Y-43390D02*
X46936Y-35555D01*
X47724Y-43390D02*
X46936Y-43390D01*
X47724Y-35555D02*
X47724Y-43390D01*
X46936Y-35555D02*
X47724Y-35555D01*
X47724Y-30437D02*
X47724Y-34570D01*
X46936Y-34570D02*
X47724Y-34570D01*
X46936Y-29648D02*
X46936Y-34570D01*
X46936Y-29648D02*
X56384Y-29648D01*
X56384Y-29648D02*
X56384Y-30437D01*
X47724Y-30437D02*
X56384Y-30437D01*
G54D12*
X60657Y-34787D02*
X60696Y-34826D01*
X60696Y-34787D02*
X60657Y-34826D01*
X61468Y-44992D02*
X61507Y-45031D01*
X61507Y-44992D02*
X61468Y-45031D01*
X61492Y-44598D02*
X61531Y-44637D01*
X61531Y-44598D02*
X61492Y-44637D01*
X61834Y-44401D02*
X61873Y-44440D01*
X61873Y-44401D02*
X61834Y-44440D01*
X61968Y-45405D02*
X62007Y-45444D01*
X62007Y-45405D02*
X61968Y-45444D01*
X62559Y-44421D02*
X62598Y-44460D01*
X62598Y-44421D02*
X62559Y-44460D01*
X48113Y-41142D02*
G75*
G03X48113Y-41142I-38J0D01*
G74*
G01*
X48117Y-38783D02*
G75*
G03X48117Y-38783I-38J0D01*
G74*
G01*
X48148Y-30826D02*
G75*
G03X48148Y-30826I-38J0D01*
G74*
G01*
X48148Y-31181D02*
G75*
G03X48148Y-31181I-38J0D01*
G74*
G01*
X48148Y-31574D02*
G75*
G03X48148Y-31574I-38J0D01*
G74*
G01*
X48148Y-31889D02*
G75*
G03X48148Y-31889I-38J0D01*
G74*
G01*
X48148Y-32283D02*
G75*
G03X48148Y-32283I-38J0D01*
G74*
G01*
X48148Y-32755D02*
G75*
G03X48148Y-32755I-38J0D01*
G74*
G01*
X48148Y-33149D02*
G75*
G03X48148Y-33149I-38J0D01*
G74*
G01*
X48148Y-33543D02*
G75*
G03X48148Y-33543I-38J0D01*
G74*
G01*
X48148Y-45669D02*
G75*
G03X48148Y-45669I-38J0D01*
G74*
G01*
X48148Y-46141D02*
G75*
G03X48148Y-46141I-38J0D01*
G74*
G01*
X48148Y-46535D02*
G75*
G03X48148Y-46535I-38J0D01*
G74*
G01*
X48148Y-47007D02*
G75*
G03X48148Y-47007I-38J0D01*
G74*
G01*
X48148Y-47401D02*
G75*
G03X48148Y-47401I-38J0D01*
G74*
G01*
X48148Y-47795D02*
G75*
G03X48148Y-47795I-38J0D01*
G74*
G01*
X48148Y-48188D02*
G75*
G03X48148Y-48188I-38J0D01*
G74*
G01*
X48148Y-48661D02*
G75*
G03X48148Y-48661I-38J0D01*
G74*
G01*
X48148Y-49055D02*
G75*
G03X48148Y-49055I-38J0D01*
G74*
G01*
X48148Y-49370D02*
G75*
G03X48148Y-49370I-38J0D01*
G74*
G01*
X48168Y-34035D02*
G75*
G03X48168Y-34035I-38J0D01*
G74*
G01*
X48168Y-34330D02*
G75*
G03X48168Y-34330I-38J0D01*
G74*
G01*
X48168Y-34625D02*
G75*
G03X48168Y-34625I-38J0D01*
G74*
G01*
X48168Y-34921D02*
G75*
G03X48168Y-34921I-38J0D01*
G74*
G01*
X48168Y-35216D02*
G75*
G03X48168Y-35216I-38J0D01*
G74*
G01*
X48192Y-42725D02*
G75*
G03X48192Y-42725I-38J0D01*
G74*
G01*
X48203Y-37402D02*
G75*
G03X48203Y-37402I-38J0D01*
G74*
G01*
X48211Y-40748D02*
G75*
G03X48211Y-40748I-38J0D01*
G74*
G01*
X48219Y-40355D02*
G75*
G03X48219Y-40355I-38J0D01*
G74*
G01*
X48223Y-39965D02*
G75*
G03X48223Y-39965I-38J0D01*
G74*
G01*
X48231Y-37205D02*
G75*
G03X48231Y-37205I-38J0D01*
G74*
G01*
X48231Y-37984D02*
G75*
G03X48231Y-37984I-38J0D01*
G74*
G01*
X48231Y-38591D02*
G75*
G03X48231Y-38591I-38J0D01*
G74*
G01*
X48235Y-41732D02*
G75*
G03X48235Y-41732I-38J0D01*
G74*
G01*
X48239Y-39768D02*
G75*
G03X48239Y-39768I-38J0D01*
G74*
G01*
X48239Y-40949D02*
G75*
G03X48239Y-40949I-38J0D01*
G74*
G01*
X48259Y-38386D02*
G75*
G03X48259Y-38386I-38J0D01*
G74*
G01*
X48463Y-31889D02*
G75*
G03X48463Y-31889I-38J0D01*
G74*
G01*
X48463Y-32283D02*
G75*
G03X48463Y-32283I-38J0D01*
G74*
G01*
X48463Y-32755D02*
G75*
G03X48463Y-32755I-38J0D01*
G74*
G01*
X48463Y-33149D02*
G75*
G03X48463Y-33149I-38J0D01*
G74*
G01*
X48463Y-34035D02*
G75*
G03X48463Y-34035I-38J0D01*
G74*
G01*
X48463Y-34330D02*
G75*
G03X48463Y-34330I-38J0D01*
G74*
G01*
X48463Y-34625D02*
G75*
G03X48463Y-34625I-38J0D01*
G74*
G01*
X48463Y-34921D02*
G75*
G03X48463Y-34921I-38J0D01*
G74*
G01*
X48463Y-35216D02*
G75*
G03X48463Y-35216I-38J0D01*
G74*
G01*
X48463Y-45669D02*
G75*
G03X48463Y-45669I-38J0D01*
G74*
G01*
X48463Y-46141D02*
G75*
G03X48463Y-46141I-38J0D01*
G74*
G01*
X48463Y-46535D02*
G75*
G03X48463Y-46535I-38J0D01*
G74*
G01*
X48463Y-47007D02*
G75*
G03X48463Y-47007I-38J0D01*
G74*
G01*
X48463Y-47401D02*
G75*
G03X48463Y-47401I-38J0D01*
G74*
G01*
X48463Y-47795D02*
G75*
G03X48463Y-47795I-38J0D01*
G74*
G01*
X48463Y-48188D02*
G75*
G03X48463Y-48188I-38J0D01*
G74*
G01*
X48463Y-48661D02*
G75*
G03X48463Y-48661I-38J0D01*
G74*
G01*
X48463Y-49055D02*
G75*
G03X48463Y-49055I-38J0D01*
G74*
G01*
X48542Y-30826D02*
G75*
G03X48542Y-30826I-38J0D01*
G74*
G01*
X48542Y-49370D02*
G75*
G03X48542Y-49370I-38J0D01*
G74*
G01*
X48778Y-33543D02*
G75*
G03X48778Y-33543I-38J0D01*
G74*
G01*
X48778Y-33858D02*
G75*
G03X48778Y-33858I-38J0D01*
G74*
G01*
X48778Y-47086D02*
G75*
G03X48778Y-47086I-38J0D01*
G74*
G01*
X48818Y-46141D02*
G75*
G03X48818Y-46141I-38J0D01*
G74*
G01*
X48857Y-33228D02*
G75*
G03X48857Y-33228I-38J0D01*
G74*
G01*
X48857Y-34921D02*
G75*
G03X48857Y-34921I-38J0D01*
G74*
G01*
X48857Y-35236D02*
G75*
G03X48857Y-35236I-38J0D01*
G74*
G01*
X48857Y-45669D02*
G75*
G03X48857Y-45669I-38J0D01*
G74*
G01*
X48857Y-49055D02*
G75*
G03X48857Y-49055I-38J0D01*
G74*
G01*
X48936Y-46771D02*
G75*
G03X48936Y-46771I-38J0D01*
G74*
G01*
X49014Y-30826D02*
G75*
G03X49014Y-30826I-38J0D01*
G74*
G01*
X49014Y-41299D02*
G75*
G03X49014Y-41299I-38J0D01*
G74*
G01*
X49014Y-49370D02*
G75*
G03X49014Y-49370I-38J0D01*
G74*
G01*
X49132Y-43346D02*
G75*
G03X49132Y-43346I-38J0D01*
G74*
G01*
X49170Y-37012D02*
G75*
G03X49170Y-37012I-38J0D01*
G74*
G01*
X49172Y-33543D02*
G75*
G03X49172Y-33543I-38J0D01*
G74*
G01*
X49172Y-33858D02*
G75*
G03X49172Y-33858I-38J0D01*
G74*
G01*
X49172Y-43818D02*
G75*
G03X49172Y-43818I-38J0D01*
G74*
G01*
X49211Y-34921D02*
G75*
G03X49211Y-34921I-38J0D01*
G74*
G01*
X49211Y-35275D02*
G75*
G03X49211Y-35275I-38J0D01*
G74*
G01*
X49251Y-46771D02*
G75*
G03X49251Y-46771I-38J0D01*
G74*
G01*
X49392Y-37402D02*
G75*
G03X49392Y-37402I-38J0D01*
G74*
G01*
X49408Y-30826D02*
G75*
G03X49408Y-30826I-38J0D01*
G74*
G01*
X49408Y-49370D02*
G75*
G03X49408Y-49370I-38J0D01*
G74*
G01*
X49573Y-42618D02*
G75*
G03X49573Y-42618I-38J0D01*
G74*
G01*
X49603Y-42918D02*
G75*
G03X49603Y-42918I-38J0D01*
G74*
G01*
X49605Y-42362D02*
G75*
G03X49605Y-42362I-38J0D01*
G74*
G01*
X49640Y-32177D02*
G75*
G03X49640Y-32177I-38J0D01*
G74*
G01*
X49644Y-33543D02*
G75*
G03X49644Y-33543I-38J0D01*
G74*
G01*
X49644Y-33858D02*
G75*
G03X49644Y-33858I-38J0D01*
G74*
G01*
X49644Y-36732D02*
G75*
G03X49644Y-36732I-38J0D01*
G74*
G01*
X49644Y-41535D02*
G75*
G03X49644Y-41535I-38J0D01*
G74*
G01*
X49672Y-37205D02*
G75*
G03X49672Y-37205I-38J0D01*
G74*
G01*
X49782Y-36425D02*
G75*
G03X49782Y-36425I-38J0D01*
G74*
G01*
X49786Y-36225D02*
G75*
G03X49786Y-36225I-38J0D01*
G74*
G01*
X49802Y-46692D02*
G75*
G03X49802Y-46692I-38J0D01*
G74*
G01*
X49802Y-49370D02*
G75*
G03X49802Y-49370I-38J0D01*
G74*
G01*
X49829Y-42476D02*
G75*
G03X49829Y-42476I-38J0D01*
G74*
G01*
X49881Y-30826D02*
G75*
G03X49881Y-30826I-38J0D01*
G74*
G01*
X49955Y-37012D02*
G75*
G03X49955Y-37012I-38J0D01*
G74*
G01*
X49955Y-32220D02*
G75*
G03X49955Y-32220I-38J0D01*
G74*
G01*
X49959Y-34881D02*
G75*
G03X49959Y-34881I-38J0D01*
G74*
G01*
X49959Y-41338D02*
G75*
G03X49959Y-41338I-38J0D01*
G74*
G01*
X50038Y-33543D02*
G75*
G03X50038Y-33543I-38J0D01*
G74*
G01*
X50038Y-33858D02*
G75*
G03X50038Y-33858I-38J0D01*
G74*
G01*
X50050Y-42476D02*
G75*
G03X50050Y-42476I-38J0D01*
G74*
G01*
X50152Y-35279D02*
G75*
G03X50152Y-35279I-38J0D01*
G74*
G01*
X50195Y-45551D02*
G75*
G03X50195Y-45551I-38J0D01*
G74*
G01*
X50274Y-30826D02*
G75*
G03X50274Y-30826I-38J0D01*
G74*
G01*
X50274Y-49370D02*
G75*
G03X50274Y-49370I-38J0D01*
G74*
G01*
X50353Y-46771D02*
G75*
G03X50353Y-46771I-38J0D01*
G74*
G01*
X50432Y-49133D02*
G75*
G03X50432Y-49133I-38J0D01*
G74*
G01*
X50672Y-30826D02*
G75*
G03X50672Y-30826I-38J0D01*
G74*
G01*
X50680Y-31248D02*
G75*
G03X50680Y-31248I-38J0D01*
G74*
G01*
X50747Y-47086D02*
G75*
G03X50747Y-47086I-38J0D01*
G74*
G01*
X50825Y-48818D02*
G75*
G03X50825Y-48818I-38J0D01*
G74*
G01*
X51129Y-40949D02*
G75*
G03X51129Y-40949I-38J0D01*
G74*
G01*
X51255Y-33106D02*
G75*
G03X51255Y-33106I-38J0D01*
G74*
G01*
X51270Y-32149D02*
G75*
G03X51270Y-32149I-38J0D01*
G74*
G01*
X51310Y-31090D02*
G75*
G03X51310Y-31090I-38J0D01*
G74*
G01*
X51436Y-42355D02*
G75*
G03X51436Y-42355I-38J0D01*
G74*
G01*
X51483Y-35929D02*
G75*
G03X51483Y-35929I-38J0D01*
G74*
G01*
X51621Y-31082D02*
G75*
G03X51621Y-31082I-38J0D01*
G74*
G01*
X51676Y-42355D02*
G75*
G03X51676Y-42355I-38J0D01*
G74*
G01*
X51707Y-35288D02*
G75*
G03X51707Y-35288I-38J0D01*
G74*
G01*
X51755Y-37992D02*
G75*
G03X51755Y-37992I-38J0D01*
G74*
G01*
X51759Y-37508D02*
G75*
G03X51759Y-37508I-38J0D01*
G74*
G01*
X51766Y-36957D02*
G75*
G03X51766Y-36957I-38J0D01*
G74*
G01*
X51766Y-37240D02*
G75*
G03X51766Y-37240I-38J0D01*
G74*
G01*
X51770Y-36461D02*
G75*
G03X51770Y-36461I-38J0D01*
G74*
G01*
X51790Y-40748D02*
G75*
G03X51790Y-40748I-38J0D01*
G74*
G01*
X51932Y-31070D02*
G75*
G03X51932Y-31070I-38J0D01*
G74*
G01*
X51955Y-42355D02*
G75*
G03X51955Y-42355I-38J0D01*
G74*
G01*
X52050Y-34799D02*
G75*
G03X52050Y-34799I-38J0D01*
G74*
G01*
X52156Y-42354D02*
G75*
G03X52156Y-42354I-38J0D01*
G74*
G01*
X52231Y-35890D02*
G75*
G03X52231Y-35890I-38J0D01*
G74*
G01*
X52251Y-40654D02*
G75*
G03X52251Y-40654I-38J0D01*
G74*
G01*
X52270Y-40016D02*
G75*
G03X52270Y-40016I-38J0D01*
G74*
G01*
X52286Y-40394D02*
G75*
G03X52286Y-40394I-38J0D01*
G74*
G01*
X52314Y-40847D02*
G75*
G03X52314Y-40847I-38J0D01*
G74*
G01*
X52404Y-38772D02*
G75*
G03X52404Y-38772I-38J0D01*
G74*
G01*
X52424Y-39181D02*
G75*
G03X52424Y-39181I-38J0D01*
G74*
G01*
X52440Y-39815D02*
G75*
G03X52440Y-39815I-38J0D01*
G74*
G01*
X52503Y-41043D02*
G75*
G03X52503Y-41043I-38J0D01*
G74*
G01*
X52554Y-38162D02*
G75*
G03X52554Y-38162I-38J0D01*
G74*
G01*
X52573Y-41732D02*
G75*
G03X52573Y-41732I-38J0D01*
G74*
G01*
X52581Y-37827D02*
G75*
G03X52581Y-37827I-38J0D01*
G74*
G01*
X52684Y-37508D02*
G75*
G03X52684Y-37508I-38J0D01*
G74*
G01*
X52908Y-36752D02*
G75*
G03X52908Y-36752I-38J0D01*
G74*
G01*
X52908Y-37327D02*
G75*
G03X52908Y-37327I-38J0D01*
G74*
G01*
X52940Y-30956D02*
G75*
G03X52940Y-30956I-38J0D01*
G74*
G01*
X52944Y-35095D02*
G75*
G03X52944Y-35095I-38J0D01*
G74*
G01*
X53109Y-34862D02*
G75*
G03X53109Y-34862I-38J0D01*
G74*
G01*
X53361Y-36453D02*
G75*
G03X53361Y-36453I-38J0D01*
G74*
G01*
X53617Y-41925D02*
G75*
G03X53617Y-41925I-38J0D01*
G74*
G01*
X53617Y-42122D02*
G75*
G03X53617Y-42122I-38J0D01*
G74*
G01*
X53621Y-40201D02*
G75*
G03X53621Y-40201I-38J0D01*
G74*
G01*
X53625Y-41040D02*
G75*
G03X53625Y-41040I-38J0D01*
G74*
G01*
X53629Y-41236D02*
G75*
G03X53629Y-41236I-38J0D01*
G74*
G01*
X53640Y-40559D02*
G75*
G03X53640Y-40559I-38J0D01*
G74*
G01*
X53648Y-39571D02*
G75*
G03X53648Y-39571I-38J0D01*
G74*
G01*
X53664Y-39370D02*
G75*
G03X53664Y-39370I-38J0D01*
G74*
G01*
X53688Y-38981D02*
G75*
G03X53688Y-38981I-38J0D01*
G74*
G01*
X53688Y-41536D02*
G75*
G03X53688Y-41536I-38J0D01*
G74*
G01*
X53700Y-38355D02*
G75*
G03X53700Y-38355I-38J0D01*
G74*
G01*
X53700Y-38555D02*
G75*
G03X53700Y-38555I-38J0D01*
G74*
G01*
X53818Y-37795D02*
G75*
G03X53818Y-37795I-38J0D01*
G74*
G01*
X53818Y-47244D02*
G75*
G03X53818Y-47244I-38J0D01*
G74*
G01*
X53818Y-47795D02*
G75*
G03X53818Y-47795I-38J0D01*
G74*
G01*
X53944Y-34843D02*
G75*
G03X53944Y-34843I-38J0D01*
G74*
G01*
X53975Y-31003D02*
G75*
G03X53975Y-31003I-38J0D01*
G74*
G01*
X53975Y-48661D02*
G75*
G03X53975Y-48661I-38J0D01*
G74*
G01*
X54054Y-41338D02*
G75*
G03X54054Y-41338I-38J0D01*
G74*
G01*
X54211Y-39133D02*
G75*
G03X54211Y-39133I-38J0D01*
G74*
G01*
X54211Y-48346D02*
G75*
G03X54211Y-48346I-38J0D01*
G74*
G01*
X54290Y-47795D02*
G75*
G03X54290Y-47795I-38J0D01*
G74*
G01*
X54369Y-31003D02*
G75*
G03X54369Y-31003I-38J0D01*
G74*
G01*
X54369Y-37795D02*
G75*
G03X54369Y-37795I-38J0D01*
G74*
G01*
X54447Y-32992D02*
G75*
G03X54447Y-32992I-38J0D01*
G74*
G01*
X54447Y-33307D02*
G75*
G03X54447Y-33307I-38J0D01*
G74*
G01*
X54447Y-48661D02*
G75*
G03X54447Y-48661I-38J0D01*
G74*
G01*
X54491Y-37319D02*
G75*
G03X54491Y-37319I-38J0D01*
G74*
G01*
X54495Y-43477D02*
G75*
G03X54495Y-43477I-38J0D01*
G74*
G01*
X54605Y-33779D02*
G75*
G03X54605Y-33779I-38J0D01*
G74*
G01*
X54605Y-42362D02*
G75*
G03X54605Y-42362I-38J0D01*
G74*
G01*
X54605Y-48346D02*
G75*
G03X54605Y-48346I-38J0D01*
G74*
G01*
X54617Y-44225D02*
G75*
G03X54617Y-44225I-38J0D01*
G74*
G01*
X54759Y-36075D02*
G75*
G03X54759Y-36075I-38J0D01*
G74*
G01*
X54759Y-43055D02*
G75*
G03X54759Y-43055I-38J0D01*
G74*
G01*
X54774Y-36331D02*
G75*
G03X54774Y-36331I-38J0D01*
G74*
G01*
X54841Y-31003D02*
G75*
G03X54841Y-31003I-38J0D01*
G74*
G01*
X54841Y-32992D02*
G75*
G03X54841Y-32992I-38J0D01*
G74*
G01*
X54841Y-33307D02*
G75*
G03X54841Y-33307I-38J0D01*
G74*
G01*
X54841Y-44094D02*
G75*
G03X54841Y-44094I-38J0D01*
G74*
G01*
X54841Y-48661D02*
G75*
G03X54841Y-48661I-38J0D01*
G74*
G01*
X55022Y-43063D02*
G75*
G03X55022Y-43063I-38J0D01*
G74*
G01*
X55077Y-48346D02*
G75*
G03X55077Y-48346I-38J0D01*
G74*
G01*
X55235Y-31003D02*
G75*
G03X55235Y-31003I-38J0D01*
G74*
G01*
X55263Y-43067D02*
G75*
G03X55263Y-43067I-38J0D01*
G74*
G01*
X55298Y-41209D02*
G75*
G03X55298Y-41209I-38J0D01*
G74*
G01*
X55314Y-32992D02*
G75*
G03X55314Y-32992I-38J0D01*
G74*
G01*
X55314Y-33307D02*
G75*
G03X55314Y-33307I-38J0D01*
G74*
G01*
X55314Y-48661D02*
G75*
G03X55314Y-48661I-38J0D01*
G74*
G01*
X55326Y-40421D02*
G75*
G03X55326Y-40421I-38J0D01*
G74*
G01*
X55337Y-38228D02*
G75*
G03X55337Y-38228I-38J0D01*
G74*
G01*
X55341Y-40032D02*
G75*
G03X55341Y-40032I-38J0D01*
G74*
G01*
X55404Y-40819D02*
G75*
G03X55404Y-40819I-38J0D01*
G74*
G01*
X55432Y-39638D02*
G75*
G03X55432Y-39638I-38J0D01*
G74*
G01*
X55471Y-43464D02*
G75*
G03X55471Y-43464I-38J0D01*
G74*
G01*
X55471Y-46771D02*
G75*
G03X55471Y-46771I-38J0D01*
G74*
G01*
X55483Y-41846D02*
G75*
G03X55483Y-41846I-38J0D01*
G74*
G01*
X55491Y-43067D02*
G75*
G03X55491Y-43067I-38J0D01*
G74*
G01*
X55593Y-39028D02*
G75*
G03X55593Y-39028I-38J0D01*
G74*
G01*
X55676Y-36756D02*
G75*
G03X55676Y-36756I-38J0D01*
G74*
G01*
X55707Y-31003D02*
G75*
G03X55707Y-31003I-38J0D01*
G74*
G01*
X55707Y-32992D02*
G75*
G03X55707Y-32992I-38J0D01*
G74*
G01*
X55707Y-33307D02*
G75*
G03X55707Y-33307I-38J0D01*
G74*
G01*
X55707Y-44960D02*
G75*
G03X55707Y-44960I-38J0D01*
G74*
G01*
X55707Y-48661D02*
G75*
G03X55707Y-48661I-38J0D01*
G74*
G01*
X55739Y-40618D02*
G75*
G03X55739Y-40618I-38J0D01*
G74*
G01*
X55743Y-41839D02*
G75*
G03X55743Y-41839I-38J0D01*
G74*
G01*
X55747Y-39445D02*
G75*
G03X55747Y-39445I-38J0D01*
G74*
G01*
X55774Y-39831D02*
G75*
G03X55774Y-39831I-38J0D01*
G74*
G01*
X55810Y-40232D02*
G75*
G03X55810Y-40232I-38J0D01*
G74*
G01*
X55853Y-41406D02*
G75*
G03X55853Y-41406I-38J0D01*
G74*
G01*
X55865Y-46771D02*
G75*
G03X55865Y-46771I-38J0D01*
G74*
G01*
X55869Y-39047D02*
G75*
G03X55869Y-39047I-38J0D01*
G74*
G01*
X55928Y-41016D02*
G75*
G03X55928Y-41016I-38J0D01*
G74*
G01*
X55971Y-38528D02*
G75*
G03X55971Y-38528I-38J0D01*
G74*
G01*
X56019Y-37386D02*
G75*
G03X56019Y-37386I-38J0D01*
G74*
G01*
X56022Y-38016D02*
G75*
G03X56022Y-38016I-38J0D01*
G74*
G01*
X56101Y-31003D02*
G75*
G03X56101Y-31003I-38J0D01*
G74*
G01*
X56180Y-32992D02*
G75*
G03X56180Y-32992I-38J0D01*
G74*
G01*
X56180Y-33307D02*
G75*
G03X56180Y-33307I-38J0D01*
G74*
G01*
X56298Y-42953D02*
G75*
G03X56298Y-42953I-38J0D01*
G74*
G01*
X56337Y-46771D02*
G75*
G03X56337Y-46771I-38J0D01*
G74*
G01*
X56341Y-41937D02*
G75*
G03X56341Y-41937I-38J0D01*
G74*
G01*
X56357Y-38122D02*
G75*
G03X56357Y-38122I-38J0D01*
G74*
G01*
X56573Y-32992D02*
G75*
G03X56573Y-32992I-38J0D01*
G74*
G01*
X56573Y-33307D02*
G75*
G03X56573Y-33307I-38J0D01*
G74*
G01*
X56613Y-31023D02*
G75*
G03X56613Y-31023I-38J0D01*
G74*
G01*
X56613Y-38130D02*
G75*
G03X56613Y-38130I-38J0D01*
G74*
G01*
X56652Y-46299D02*
G75*
G03X56652Y-46299I-38J0D01*
G74*
G01*
X56731Y-46771D02*
G75*
G03X56731Y-46771I-38J0D01*
G74*
G01*
X56810Y-33779D02*
G75*
G03X56810Y-33779I-38J0D01*
G74*
G01*
X56821Y-39272D02*
G75*
G03X56821Y-39272I-38J0D01*
G74*
G01*
X56821Y-39705D02*
G75*
G03X56821Y-39705I-38J0D01*
G74*
G01*
X56821Y-40138D02*
G75*
G03X56821Y-40138I-38J0D01*
G74*
G01*
X56821Y-40571D02*
G75*
G03X56821Y-40571I-38J0D01*
G74*
G01*
X56821Y-41004D02*
G75*
G03X56821Y-41004I-38J0D01*
G74*
G01*
X56987Y-42618D02*
G75*
G03X56987Y-42618I-38J0D01*
G74*
G01*
X56995Y-42059D02*
G75*
G03X56995Y-42059I-38J0D01*
G74*
G01*
X57007Y-31023D02*
G75*
G03X57007Y-31023I-38J0D01*
G74*
G01*
X57038Y-39055D02*
G75*
G03X57038Y-39055I-38J0D01*
G74*
G01*
X57038Y-39488D02*
G75*
G03X57038Y-39488I-38J0D01*
G74*
G01*
X57038Y-39921D02*
G75*
G03X57038Y-39921I-38J0D01*
G74*
G01*
X57038Y-40354D02*
G75*
G03X57038Y-40354I-38J0D01*
G74*
G01*
X57038Y-40787D02*
G75*
G03X57038Y-40787I-38J0D01*
G74*
G01*
X57046Y-32992D02*
G75*
G03X57046Y-32992I-38J0D01*
G74*
G01*
X57046Y-33307D02*
G75*
G03X57046Y-33307I-38J0D01*
G74*
G01*
X57046Y-46299D02*
G75*
G03X57046Y-46299I-38J0D01*
G74*
G01*
X57132Y-35291D02*
G75*
G03X57132Y-35291I-38J0D01*
G74*
G01*
X57144Y-36587D02*
G75*
G03X57144Y-36587I-38J0D01*
G74*
G01*
X57203Y-46771D02*
G75*
G03X57203Y-46771I-38J0D01*
G74*
G01*
X57243Y-42071D02*
G75*
G03X57243Y-42071I-38J0D01*
G74*
G01*
X57254Y-39272D02*
G75*
G03X57254Y-39272I-38J0D01*
G74*
G01*
X57254Y-39705D02*
G75*
G03X57254Y-39705I-38J0D01*
G74*
G01*
X57254Y-40138D02*
G75*
G03X57254Y-40138I-38J0D01*
G74*
G01*
X57254Y-40571D02*
G75*
G03X57254Y-40571I-38J0D01*
G74*
G01*
X57254Y-41004D02*
G75*
G03X57254Y-41004I-38J0D01*
G74*
G01*
X57440Y-32992D02*
G75*
G03X57440Y-32992I-38J0D01*
G74*
G01*
X57440Y-33307D02*
G75*
G03X57440Y-33307I-38J0D01*
G74*
G01*
X57471Y-39055D02*
G75*
G03X57471Y-39055I-38J0D01*
G74*
G01*
X57471Y-39488D02*
G75*
G03X57471Y-39488I-38J0D01*
G74*
G01*
X57471Y-39921D02*
G75*
G03X57471Y-39921I-38J0D01*
G74*
G01*
X57471Y-40354D02*
G75*
G03X57471Y-40354I-38J0D01*
G74*
G01*
X57471Y-40787D02*
G75*
G03X57471Y-40787I-38J0D01*
G74*
G01*
X57479Y-31023D02*
G75*
G03X57479Y-31023I-38J0D01*
G74*
G01*
X57503Y-41937D02*
G75*
G03X57503Y-41937I-38J0D01*
G74*
G01*
X57597Y-46771D02*
G75*
G03X57597Y-46771I-38J0D01*
G74*
G01*
X57691Y-39272D02*
G75*
G03X57691Y-39272I-38J0D01*
G74*
G01*
X57691Y-39705D02*
G75*
G03X57691Y-39705I-38J0D01*
G74*
G01*
X57691Y-40138D02*
G75*
G03X57691Y-40138I-38J0D01*
G74*
G01*
X57691Y-40571D02*
G75*
G03X57691Y-40571I-38J0D01*
G74*
G01*
X57691Y-41004D02*
G75*
G03X57691Y-41004I-38J0D01*
G74*
G01*
X57873Y-31023D02*
G75*
G03X57873Y-31023I-38J0D01*
G74*
G01*
X57904Y-39055D02*
G75*
G03X57904Y-39055I-38J0D01*
G74*
G01*
X57904Y-39488D02*
G75*
G03X57904Y-39488I-38J0D01*
G74*
G01*
X57904Y-39921D02*
G75*
G03X57904Y-39921I-38J0D01*
G74*
G01*
X57904Y-40354D02*
G75*
G03X57904Y-40354I-38J0D01*
G74*
G01*
X57904Y-40787D02*
G75*
G03X57904Y-40787I-38J0D01*
G74*
G01*
X58069Y-46771D02*
G75*
G03X58069Y-46771I-38J0D01*
G74*
G01*
X58120Y-39272D02*
G75*
G03X58120Y-39272I-38J0D01*
G74*
G01*
X58120Y-39705D02*
G75*
G03X58120Y-39705I-38J0D01*
G74*
G01*
X58120Y-40138D02*
G75*
G03X58120Y-40138I-38J0D01*
G74*
G01*
X58120Y-40571D02*
G75*
G03X58120Y-40571I-38J0D01*
G74*
G01*
X58120Y-41004D02*
G75*
G03X58120Y-41004I-38J0D01*
G74*
G01*
X58227Y-49055D02*
G75*
G03X58227Y-49055I-38J0D01*
G74*
G01*
X58227Y-49370D02*
G75*
G03X58227Y-49370I-38J0D01*
G74*
G01*
X58294Y-36228D02*
G75*
G03X58294Y-36228I-38J0D01*
G74*
G01*
X58337Y-39055D02*
G75*
G03X58337Y-39055I-38J0D01*
G74*
G01*
X58337Y-39488D02*
G75*
G03X58337Y-39488I-38J0D01*
G74*
G01*
X58337Y-39921D02*
G75*
G03X58337Y-39921I-38J0D01*
G74*
G01*
X58337Y-40354D02*
G75*
G03X58337Y-40354I-38J0D01*
G74*
G01*
X58337Y-40787D02*
G75*
G03X58337Y-40787I-38J0D01*
G74*
G01*
X58345Y-31023D02*
G75*
G03X58345Y-31023I-38J0D01*
G74*
G01*
X58384Y-47795D02*
G75*
G03X58384Y-47795I-38J0D01*
G74*
G01*
X58384Y-48267D02*
G75*
G03X58384Y-48267I-38J0D01*
G74*
G01*
X58384Y-48661D02*
G75*
G03X58384Y-48661I-38J0D01*
G74*
G01*
X58392Y-35528D02*
G75*
G03X58392Y-35528I-38J0D01*
G74*
G01*
X58408Y-36783D02*
G75*
G03X58408Y-36783I-38J0D01*
G74*
G01*
X58451Y-43508D02*
G75*
G03X58451Y-43508I-38J0D01*
G74*
G01*
X58463Y-46771D02*
G75*
G03X58463Y-46771I-38J0D01*
G74*
G01*
X58553Y-39272D02*
G75*
G03X58553Y-39272I-38J0D01*
G74*
G01*
X58553Y-39705D02*
G75*
G03X58553Y-39705I-38J0D01*
G74*
G01*
X58553Y-40138D02*
G75*
G03X58553Y-40138I-38J0D01*
G74*
G01*
X58553Y-40571D02*
G75*
G03X58553Y-40571I-38J0D01*
G74*
G01*
X58553Y-41004D02*
G75*
G03X58553Y-41004I-38J0D01*
G74*
G01*
X58574Y-41973D02*
G75*
G03X58574Y-41973I-38J0D01*
G74*
G01*
X58664Y-44390D02*
G75*
G03X58664Y-44390I-38J0D01*
G74*
G01*
X58699Y-49055D02*
G75*
G03X58699Y-49055I-38J0D01*
G74*
G01*
X58699Y-49370D02*
G75*
G03X58699Y-49370I-38J0D01*
G74*
G01*
X58739Y-31023D02*
G75*
G03X58739Y-31023I-38J0D01*
G74*
G01*
X58770Y-39055D02*
G75*
G03X58770Y-39055I-38J0D01*
G74*
G01*
X58770Y-39488D02*
G75*
G03X58770Y-39488I-38J0D01*
G74*
G01*
X58770Y-39921D02*
G75*
G03X58770Y-39921I-38J0D01*
G74*
G01*
X58770Y-40354D02*
G75*
G03X58770Y-40354I-38J0D01*
G74*
G01*
X58770Y-40787D02*
G75*
G03X58770Y-40787I-38J0D01*
G74*
G01*
X58778Y-41969D02*
G75*
G03X58778Y-41969I-38J0D01*
G74*
G01*
X58857Y-33307D02*
G75*
G03X58857Y-33307I-38J0D01*
G74*
G01*
X59093Y-46299D02*
G75*
G03X59093Y-46299I-38J0D01*
G74*
G01*
X59093Y-49055D02*
G75*
G03X59093Y-49055I-38J0D01*
G74*
G01*
X59093Y-49370D02*
G75*
G03X59093Y-49370I-38J0D01*
G74*
G01*
X59188Y-37972D02*
G75*
G03X59188Y-37972I-38J0D01*
G74*
G01*
X59211Y-31023D02*
G75*
G03X59211Y-31023I-38J0D01*
G74*
G01*
X59251Y-33779D02*
G75*
G03X59251Y-33779I-38J0D01*
G74*
G01*
X59310Y-41807D02*
G75*
G03X59310Y-41807I-38J0D01*
G74*
G01*
X59319Y-42067D02*
G75*
G03X59319Y-42067I-38J0D01*
G74*
G01*
X59329Y-33307D02*
G75*
G03X59329Y-33307I-38J0D01*
G74*
G01*
X59487Y-46299D02*
G75*
G03X59487Y-46299I-38J0D01*
G74*
G01*
X59487Y-49055D02*
G75*
G03X59487Y-49055I-38J0D01*
G74*
G01*
X59487Y-49370D02*
G75*
G03X59487Y-49370I-38J0D01*
G74*
G01*
X59546Y-36051D02*
G75*
G03X59546Y-36051I-38J0D01*
G74*
G01*
X59605Y-31023D02*
G75*
G03X59605Y-31023I-38J0D01*
G74*
G01*
X59684Y-40225D02*
G75*
G03X59684Y-40225I-38J0D01*
G74*
G01*
X59688Y-35925D02*
G75*
G03X59688Y-35925I-38J0D01*
G74*
G01*
X59707Y-40425D02*
G75*
G03X59707Y-40425I-38J0D01*
G74*
G01*
X59802Y-33307D02*
G75*
G03X59802Y-33307I-38J0D01*
G74*
G01*
X59825Y-39870D02*
G75*
G03X59825Y-39870I-38J0D01*
G74*
G01*
X59959Y-49055D02*
G75*
G03X59959Y-49055I-38J0D01*
G74*
G01*
X59959Y-49370D02*
G75*
G03X59959Y-49370I-38J0D01*
G74*
G01*
X59989Y-40876D02*
G75*
G03X59989Y-40876I-38J0D01*
G74*
G01*
X59999Y-44311D02*
G75*
G03X59999Y-44311I-38J0D01*
G74*
G01*
X60156Y-31023D02*
G75*
G03X60156Y-31023I-38J0D01*
G74*
G01*
X60195Y-33307D02*
G75*
G03X60195Y-33307I-38J0D01*
G74*
G01*
X60215Y-35130D02*
G75*
G03X60215Y-35130I-38J0D01*
G74*
G01*
X60243Y-43484D02*
G75*
G03X60243Y-43484I-38J0D01*
G74*
G01*
X60274Y-32598D02*
G75*
G03X60274Y-32598I-38J0D01*
G74*
G01*
X60284Y-35719D02*
G75*
G03X60284Y-35719I-38J0D01*
G74*
G01*
X60304Y-35482D02*
G75*
G03X60304Y-35482I-38J0D01*
G74*
G01*
X60353Y-49055D02*
G75*
G03X60353Y-49055I-38J0D01*
G74*
G01*
X60353Y-49370D02*
G75*
G03X60353Y-49370I-38J0D01*
G74*
G01*
X60550Y-31023D02*
G75*
G03X60550Y-31023I-38J0D01*
G74*
G01*
X60747Y-32598D02*
G75*
G03X60747Y-32598I-38J0D01*
G74*
G01*
X60747Y-49055D02*
G75*
G03X60747Y-49055I-38J0D01*
G74*
G01*
X60747Y-49370D02*
G75*
G03X60747Y-49370I-38J0D01*
G74*
G01*
X60825Y-33307D02*
G75*
G03X60825Y-33307I-38J0D01*
G74*
G01*
X60920Y-38087D02*
G75*
G03X60920Y-38087I-38J0D01*
G74*
G01*
X61022Y-31023D02*
G75*
G03X61022Y-31023I-38J0D01*
G74*
G01*
X61049Y-37386D02*
G75*
G03X61049Y-37386I-38J0D01*
G74*
G01*
X61062Y-35198D02*
G75*
G03X61062Y-35198I-38J0D01*
G74*
G01*
X61062Y-35536D02*
G75*
G03X61062Y-35536I-38J0D01*
G74*
G01*
X61219Y-32598D02*
G75*
G03X61219Y-32598I-38J0D01*
G74*
G01*
X61219Y-49055D02*
G75*
G03X61219Y-49055I-38J0D01*
G74*
G01*
X61219Y-49370D02*
G75*
G03X61219Y-49370I-38J0D01*
G74*
G01*
X61302Y-40071D02*
G75*
G03X61302Y-40071I-38J0D01*
G74*
G01*
X61377Y-33307D02*
G75*
G03X61377Y-33307I-38J0D01*
G74*
G01*
X61416Y-31023D02*
G75*
G03X61416Y-31023I-38J0D01*
G74*
G01*
X61424Y-35540D02*
G75*
G03X61424Y-35540I-38J0D01*
G74*
G01*
X61432Y-35193D02*
G75*
G03X61432Y-35193I-38J0D01*
G74*
G01*
X61534Y-46377D02*
G75*
G03X61534Y-46377I-38J0D01*
G74*
G01*
X61613Y-49055D02*
G75*
G03X61613Y-49055I-38J0D01*
G74*
G01*
X61613Y-49370D02*
G75*
G03X61613Y-49370I-38J0D01*
G74*
G01*
X61692Y-33779D02*
G75*
G03X61692Y-33779I-38J0D01*
G74*
G01*
X61723Y-43255D02*
G75*
G03X61723Y-43255I-38J0D01*
G74*
G01*
X61888Y-31023D02*
G75*
G03X61888Y-31023I-38J0D01*
G74*
G01*
X62085Y-32598D02*
G75*
G03X62085Y-32598I-38J0D01*
G74*
G01*
X62085Y-33307D02*
G75*
G03X62085Y-33307I-38J0D01*
G74*
G01*
X62085Y-49055D02*
G75*
G03X62085Y-49055I-38J0D01*
G74*
G01*
X62085Y-49370D02*
G75*
G03X62085Y-49370I-38J0D01*
G74*
G01*
X62117Y-44708D02*
G75*
G03X62117Y-44708I-38J0D01*
G74*
G01*
X62164Y-46771D02*
G75*
G03X62164Y-46771I-38J0D01*
G74*
G01*
X62164Y-47086D02*
G75*
G03X62164Y-47086I-38J0D01*
G74*
G01*
X62192Y-36559D02*
G75*
G03X62192Y-36559I-38J0D01*
G74*
G01*
X62282Y-31023D02*
G75*
G03X62282Y-31023I-38J0D01*
G74*
G01*
X62314Y-44901D02*
G75*
G03X62314Y-44901I-38J0D01*
G74*
G01*
X62479Y-49055D02*
G75*
G03X62479Y-49055I-38J0D01*
G74*
G01*
X62479Y-49370D02*
G75*
G03X62479Y-49370I-38J0D01*
G74*
G01*
X62558Y-46771D02*
G75*
G03X62558Y-46771I-38J0D01*
G74*
G01*
X62558Y-47086D02*
G75*
G03X62558Y-47086I-38J0D01*
G74*
G01*
X62636Y-33307D02*
G75*
G03X62636Y-33307I-38J0D01*
G74*
G01*
X62715Y-32598D02*
G75*
G03X62715Y-32598I-38J0D01*
G74*
G01*
X62755Y-31023D02*
G75*
G03X62755Y-31023I-38J0D01*
G74*
G01*
X62951Y-49055D02*
G75*
G03X62951Y-49055I-38J0D01*
G74*
G01*
X62951Y-49370D02*
G75*
G03X62951Y-49370I-38J0D01*
G74*
G01*
X63030Y-46771D02*
G75*
G03X63030Y-46771I-38J0D01*
G74*
G01*
X63030Y-47086D02*
G75*
G03X63030Y-47086I-38J0D01*
G74*
G01*
X63109Y-37480D02*
G75*
G03X63109Y-37480I-38J0D01*
G74*
G01*
X63109Y-37874D02*
G75*
G03X63109Y-37874I-38J0D01*
G74*
G01*
X63109Y-39842D02*
G75*
G03X63109Y-39842I-38J0D01*
G74*
G01*
X63109Y-40236D02*
G75*
G03X63109Y-40236I-38J0D01*
G74*
G01*
X63148Y-31023D02*
G75*
G03X63148Y-31023I-38J0D01*
G74*
G01*
X63188Y-42204D02*
G75*
G03X63188Y-42204I-38J0D01*
G74*
G01*
X63188Y-42598D02*
G75*
G03X63188Y-42598I-38J0D01*
G74*
G01*
X63345Y-33228D02*
G75*
G03X63345Y-33228I-38J0D01*
G74*
G01*
X63345Y-49055D02*
G75*
G03X63345Y-49055I-38J0D01*
G74*
G01*
X63345Y-49370D02*
G75*
G03X63345Y-49370I-38J0D01*
G74*
G01*
X63424Y-46771D02*
G75*
G03X63424Y-46771I-38J0D01*
G74*
G01*
X63424Y-47086D02*
G75*
G03X63424Y-47086I-38J0D01*
G74*
G01*
X63483Y-32637D02*
G75*
G03X63483Y-32637I-38J0D01*
G74*
G01*
X63503Y-47559D02*
G75*
G03X63503Y-47559I-38J0D01*
G74*
G01*
X63562Y-31023D02*
G75*
G03X63562Y-31023I-38J0D01*
G74*
G01*
X63581Y-34094D02*
G75*
G03X63581Y-34094I-38J0D01*
G74*
G01*
X63581Y-34409D02*
G75*
G03X63581Y-34409I-38J0D01*
G74*
G01*
X63581Y-36220D02*
G75*
G03X63581Y-36220I-38J0D01*
G74*
G01*
X63581Y-36535D02*
G75*
G03X63581Y-36535I-38J0D01*
G74*
G01*
X63581Y-36929D02*
G75*
G03X63581Y-36929I-38J0D01*
G74*
G01*
X63581Y-37401D02*
G75*
G03X63581Y-37401I-38J0D01*
G74*
G01*
X63581Y-37795D02*
G75*
G03X63581Y-37795I-38J0D01*
G74*
G01*
X63581Y-38267D02*
G75*
G03X63581Y-38267I-38J0D01*
G74*
G01*
X63581Y-38661D02*
G75*
G03X63581Y-38661I-38J0D01*
G74*
G01*
X63581Y-39133D02*
G75*
G03X63581Y-39133I-38J0D01*
G74*
G01*
X63581Y-39527D02*
G75*
G03X63581Y-39527I-38J0D01*
G74*
G01*
X63581Y-40000D02*
G75*
G03X63581Y-40000I-38J0D01*
G74*
G01*
X63581Y-43543D02*
G75*
G03X63581Y-43543I-38J0D01*
G74*
G01*
X63581Y-43858D02*
G75*
G03X63581Y-43858I-38J0D01*
G74*
G01*
X63581Y-46141D02*
G75*
G03X63581Y-46141I-38J0D01*
G74*
G01*
X63660Y-40393D02*
G75*
G03X63660Y-40393I-38J0D01*
G74*
G01*
X63660Y-40787D02*
G75*
G03X63660Y-40787I-38J0D01*
G74*
G01*
X63660Y-41259D02*
G75*
G03X63660Y-41259I-38J0D01*
G74*
G01*
X63660Y-41653D02*
G75*
G03X63660Y-41653I-38J0D01*
G74*
G01*
X63660Y-42125D02*
G75*
G03X63660Y-42125I-38J0D01*
G74*
G01*
X63660Y-42519D02*
G75*
G03X63660Y-42519I-38J0D01*
G74*
G01*
X63660Y-42992D02*
G75*
G03X63660Y-42992I-38J0D01*
G74*
G01*
X63739Y-33700D02*
G75*
G03X63739Y-33700I-38J0D01*
G74*
G01*
X63778Y-45905D02*
G75*
G03X63778Y-45905I-38J0D01*
G74*
G01*
X63818Y-47086D02*
G75*
G03X63818Y-47086I-38J0D01*
G74*
G01*
X63896Y-46771D02*
G75*
G03X63896Y-46771I-38J0D01*
G74*
G01*
X63936Y-46338D02*
G75*
G03X63936Y-46338I-38J0D01*
G74*
G01*
X63955Y-31023D02*
G75*
G03X63955Y-31023I-38J0D01*
G74*
G01*
X63975Y-33228D02*
G75*
G03X63975Y-33228I-38J0D01*
G74*
G01*
X63975Y-34094D02*
G75*
G03X63975Y-34094I-38J0D01*
G74*
G01*
X63975Y-34409D02*
G75*
G03X63975Y-34409I-38J0D01*
G74*
G01*
X63975Y-36220D02*
G75*
G03X63975Y-36220I-38J0D01*
G74*
G01*
X63975Y-36535D02*
G75*
G03X63975Y-36535I-38J0D01*
G74*
G01*
X63975Y-36850D02*
G75*
G03X63975Y-36850I-38J0D01*
G74*
G01*
X63975Y-43858D02*
G75*
G03X63975Y-43858I-38J0D01*
G74*
G01*
X64054Y-49370D02*
G75*
G03X64054Y-49370I-38J0D01*
G74*
G01*
X64172Y-45944D02*
G75*
G03X64172Y-45944I-38J0D01*
G74*
G01*
X64211Y-33779D02*
G75*
G03X64211Y-33779I-38J0D01*
G74*
G01*
X64290Y-43307D02*
G75*
G03X64290Y-43307I-38J0D01*
G74*
G01*
X64290Y-43700D02*
G75*
G03X64290Y-43700I-38J0D01*
G74*
G01*
X64290Y-46535D02*
G75*
G03X64290Y-46535I-38J0D01*
G74*
G01*
X64369Y-36850D02*
G75*
G03X64369Y-36850I-38J0D01*
G74*
G01*
X64487Y-30866D02*
G75*
G03X64487Y-30866I-38J0D01*
G74*
G01*
X64526Y-49370D02*
G75*
G03X64526Y-49370I-38J0D01*
G74*
G01*
X64605Y-33779D02*
G75*
G03X64605Y-33779I-38J0D01*
G74*
G01*
X64605Y-45944D02*
G75*
G03X64605Y-45944I-38J0D01*
G74*
G01*
X64644Y-36377D02*
G75*
G03X64644Y-36377I-38J0D01*
G74*
G01*
X64684Y-34173D02*
G75*
G03X64684Y-34173I-38J0D01*
G74*
G01*
X64684Y-43307D02*
G75*
G03X64684Y-43307I-38J0D01*
G74*
G01*
X64684Y-43700D02*
G75*
G03X64684Y-43700I-38J0D01*
G74*
G01*
X64684Y-46535D02*
G75*
G03X64684Y-46535I-38J0D01*
G74*
G01*
X64762Y-36850D02*
G75*
G03X64762Y-36850I-38J0D01*
G74*
G01*
X64881Y-30866D02*
G75*
G03X64881Y-30866I-38J0D01*
G74*
G01*
X64920Y-46259D02*
G75*
G03X64920Y-46259I-38J0D01*
G74*
G01*
X64920Y-49370D02*
G75*
G03X64920Y-49370I-38J0D01*
G74*
G01*
X64959Y-36377D02*
G75*
G03X64959Y-36377I-38J0D01*
G74*
G01*
X64999Y-34173D02*
G75*
G03X64999Y-34173I-38J0D01*
G74*
G01*
X64999Y-43700D02*
G75*
G03X64999Y-43700I-38J0D01*
G74*
G01*
X65038Y-45944D02*
G75*
G03X65038Y-45944I-38J0D01*
G74*
G01*
X65077Y-33779D02*
G75*
G03X65077Y-33779I-38J0D01*
G74*
G01*
X65156Y-43307D02*
G75*
G03X65156Y-43307I-38J0D01*
G74*
G01*
X65156Y-46535D02*
G75*
G03X65156Y-46535I-38J0D01*
G74*
G01*
X65235Y-36850D02*
G75*
G03X65235Y-36850I-38J0D01*
G74*
G01*
X65274Y-36377D02*
G75*
G03X65274Y-36377I-38J0D01*
G74*
G01*
X65314Y-34173D02*
G75*
G03X65314Y-34173I-38J0D01*
G74*
G01*
X65314Y-43700D02*
G75*
G03X65314Y-43700I-38J0D01*
G74*
G01*
X65392Y-45944D02*
G75*
G03X65392Y-45944I-38J0D01*
G74*
G01*
X65392Y-49370D02*
G75*
G03X65392Y-49370I-38J0D01*
G74*
G01*
X65471Y-33385D02*
G75*
G03X65471Y-33385I-38J0D01*
G74*
G01*
X65471Y-33779D02*
G75*
G03X65471Y-33779I-38J0D01*
G74*
G01*
X65550Y-36377D02*
G75*
G03X65550Y-36377I-38J0D01*
G74*
G01*
X65550Y-43307D02*
G75*
G03X65550Y-43307I-38J0D01*
G74*
G01*
X65550Y-46299D02*
G75*
G03X65550Y-46299I-38J0D01*
G74*
G01*
X65550Y-46850D02*
G75*
G03X65550Y-46850I-38J0D01*
G74*
G01*
X65589Y-34173D02*
G75*
G03X65589Y-34173I-38J0D01*
G74*
G01*
X65589Y-43700D02*
G75*
G03X65589Y-43700I-38J0D01*
G74*
G01*
X65629Y-36850D02*
G75*
G03X65629Y-36850I-38J0D01*
G74*
G01*
X65629Y-49055D02*
G75*
G03X65629Y-49055I-38J0D01*
G74*
G01*
X65786Y-45944D02*
G75*
G03X65786Y-45944I-38J0D01*
G74*
G01*
X65786Y-49370D02*
G75*
G03X65786Y-49370I-38J0D01*
G74*
G01*
X65865Y-33228D02*
G75*
G03X65865Y-33228I-38J0D01*
G74*
G01*
X65865Y-33700D02*
G75*
G03X65865Y-33700I-38J0D01*
G74*
G01*
X65865Y-36377D02*
G75*
G03X65865Y-36377I-38J0D01*
G74*
G01*
X65865Y-38031D02*
G75*
G03X65865Y-38031I-38J0D01*
G74*
G01*
X65865Y-38425D02*
G75*
G03X65865Y-38425I-38J0D01*
G74*
G01*
X65865Y-38897D02*
G75*
G03X65865Y-38897I-38J0D01*
G74*
G01*
X65865Y-39291D02*
G75*
G03X65865Y-39291I-38J0D01*
G74*
G01*
X65865Y-39763D02*
G75*
G03X65865Y-39763I-38J0D01*
G74*
G01*
X65865Y-40157D02*
G75*
G03X65865Y-40157I-38J0D01*
G74*
G01*
X65865Y-40787D02*
G75*
G03X65865Y-40787I-38J0D01*
G74*
G01*
X65865Y-41181D02*
G75*
G03X65865Y-41181I-38J0D01*
G74*
G01*
X65865Y-41653D02*
G75*
G03X65865Y-41653I-38J0D01*
G74*
G01*
X65865Y-42047D02*
G75*
G03X65865Y-42047I-38J0D01*
G74*
G01*
X65865Y-46535D02*
G75*
G03X65865Y-46535I-38J0D01*
G74*
G01*
X65865Y-46850D02*
G75*
G03X65865Y-46850I-38J0D01*
G74*
G01*
X65865Y-47165D02*
G75*
G03X65865Y-47165I-38J0D01*
G74*
G01*
X65904Y-34173D02*
G75*
G03X65904Y-34173I-38J0D01*
G74*
G01*
X65904Y-43700D02*
G75*
G03X65904Y-43700I-38J0D01*
G74*
G01*
X65944Y-31496D02*
G75*
G03X65944Y-31496I-38J0D01*
G74*
G01*
X65944Y-36850D02*
G75*
G03X65944Y-36850I-38J0D01*
G74*
G01*
X65944Y-43307D02*
G75*
G03X65944Y-43307I-38J0D01*
G74*
G01*
X65944Y-48661D02*
G75*
G03X65944Y-48661I-38J0D01*
G74*
G01*
X65944Y-49055D02*
G75*
G03X65944Y-49055I-38J0D01*
G74*
G01*
X59350Y-37174D02*
X59350Y-37252D01*
X59311Y-37213D02*
X59389Y-37213D01*
X59740Y-40701D02*
X59740Y-40779D01*
X59701Y-40740D02*
X59779Y-40740D01*
X59748Y-38981D02*
X59748Y-39059D01*
X59709Y-39020D02*
X59787Y-39020D01*
X59882Y-37347D02*
X59882Y-37425D01*
X59843Y-37386D02*
X59921Y-37386D01*
X60030Y-41172D02*
X60030Y-41250D01*
X59991Y-41211D02*
X60069Y-41211D01*
X60039Y-41398D02*
X60039Y-41476D01*
X60000Y-41437D02*
X60078Y-41437D01*
X60319Y-39945D02*
X60319Y-40023D01*
X60280Y-39984D02*
X60358Y-39984D01*
X60339Y-39205D02*
X60339Y-39283D01*
X60300Y-39244D02*
X60378Y-39244D01*
X60473Y-40961D02*
X60473Y-41039D01*
X60434Y-41000D02*
X60512Y-41000D01*
X60780Y-39367D02*
X60780Y-39445D01*
X60741Y-39406D02*
X60819Y-39406D01*
X60906Y-36221D02*
X60906Y-36299D01*
X60867Y-36260D02*
X60945Y-36260D01*
X61102Y-40796D02*
X61102Y-40874D01*
X61063Y-40835D02*
X61141Y-40835D01*
X61228Y-42138D02*
X61228Y-42216D01*
X61189Y-42177D02*
X61267Y-42177D01*
X61957Y-34784D02*
X61957Y-34862D01*
X61918Y-34823D02*
X61996Y-34823D01*
X61957Y-35894D02*
X61957Y-35972D01*
X61918Y-35933D02*
X61996Y-35933D01*
X48197Y-42153D02*
X48197Y-42098D01*
X48141Y-42098D01*
X48141Y-42153D01*
X48197Y-42153D01*
X48216Y-39575D02*
X48216Y-39519D01*
X48161Y-39519D01*
X48161Y-39575D01*
X48216Y-39575D01*
X48216Y-41957D02*
X48216Y-41901D01*
X48161Y-41901D01*
X48161Y-41957D01*
X48216Y-41957D01*
X56464Y-38777D02*
X56464Y-38722D01*
X56409Y-38722D01*
X56409Y-38777D01*
X56464Y-38777D01*
X56464Y-38974D02*
X56464Y-38919D01*
X56409Y-38919D01*
X56409Y-38974D01*
X56464Y-38974D01*
X56464Y-39171D02*
X56464Y-39116D01*
X56409Y-39116D01*
X56409Y-39171D01*
X56464Y-39171D01*
X56464Y-39368D02*
X56464Y-39313D01*
X56409Y-39313D01*
X56409Y-39368D01*
X56464Y-39368D01*
X56464Y-39564D02*
X56464Y-39509D01*
X56409Y-39509D01*
X56409Y-39564D01*
X56464Y-39564D01*
X56464Y-39761D02*
X56464Y-39706D01*
X56409Y-39706D01*
X56409Y-39761D01*
X56464Y-39761D01*
X56464Y-39958D02*
X56464Y-39903D01*
X56409Y-39903D01*
X56409Y-39958D01*
X56464Y-39958D01*
X56464Y-40155D02*
X56464Y-40100D01*
X56409Y-40100D01*
X56409Y-40155D01*
X56464Y-40155D01*
X56464Y-40352D02*
X56464Y-40297D01*
X56409Y-40297D01*
X56409Y-40352D01*
X56464Y-40352D01*
X56464Y-40549D02*
X56464Y-40494D01*
X56409Y-40494D01*
X56409Y-40549D01*
X56464Y-40549D01*
X56464Y-40746D02*
X56464Y-40691D01*
X56409Y-40691D01*
X56409Y-40746D01*
X56464Y-40746D01*
X56464Y-40942D02*
X56464Y-40887D01*
X56409Y-40887D01*
X56409Y-40942D01*
X56464Y-40942D01*
X56464Y-41139D02*
X56464Y-41084D01*
X56409Y-41084D01*
X56409Y-41139D01*
X56464Y-41139D01*
X56474Y-41336D02*
X56474Y-41281D01*
X56419Y-41281D01*
X56419Y-41336D01*
X56474Y-41336D01*
X56690Y-41366D02*
X56690Y-41311D01*
X56635Y-41311D01*
X56635Y-41366D01*
X56690Y-41366D01*
X56700Y-38738D02*
X56700Y-38683D01*
X56645Y-38683D01*
X56645Y-38738D01*
X56700Y-38738D01*
X56887Y-41366D02*
X56887Y-41311D01*
X56832Y-41311D01*
X56832Y-41366D01*
X56887Y-41366D01*
X56897Y-38747D02*
X56897Y-38692D01*
X56842Y-38692D01*
X56842Y-38747D01*
X56897Y-38747D01*
X57084Y-41366D02*
X57084Y-41311D01*
X57029Y-41311D01*
X57029Y-41366D01*
X57084Y-41366D01*
X57094Y-38747D02*
X57094Y-38692D01*
X57039Y-38692D01*
X57039Y-38747D01*
X57094Y-38747D01*
X57281Y-41366D02*
X57281Y-41311D01*
X57226Y-41311D01*
X57226Y-41366D01*
X57281Y-41366D01*
X57881Y-38747D02*
X57881Y-38692D01*
X57826Y-38692D01*
X57826Y-38747D01*
X57881Y-38747D01*
X58265Y-41366D02*
X58265Y-41311D01*
X58210Y-41311D01*
X58210Y-41366D01*
X58265Y-41366D01*
X58462Y-41366D02*
X58462Y-41311D01*
X58407Y-41311D01*
X58407Y-41366D01*
X58462Y-41366D01*
X59082Y-40155D02*
X59082Y-40100D01*
X59027Y-40100D01*
X59027Y-40155D01*
X59082Y-40155D01*
X59092Y-38777D02*
X59092Y-38722D01*
X59037Y-38722D01*
X59037Y-38777D01*
X59092Y-38777D01*
X59092Y-38974D02*
X59092Y-38919D01*
X59037Y-38919D01*
X59037Y-38974D01*
X59092Y-38974D01*
X59092Y-39171D02*
X59092Y-39116D01*
X59037Y-39116D01*
X59037Y-39171D01*
X59092Y-39171D01*
X59092Y-39368D02*
X59092Y-39313D01*
X59037Y-39313D01*
X59037Y-39368D01*
X59092Y-39368D01*
X59092Y-39761D02*
X59092Y-39706D01*
X59037Y-39706D01*
X59037Y-39761D01*
X59092Y-39761D01*
X59092Y-39958D02*
X59092Y-39903D01*
X59037Y-39903D01*
X59037Y-39958D01*
X59092Y-39958D01*
X59092Y-40352D02*
X59092Y-40297D01*
X59037Y-40297D01*
X59037Y-40352D01*
X59092Y-40352D01*
X59092Y-40549D02*
X59092Y-40494D01*
X59037Y-40494D01*
X59037Y-40549D01*
X59092Y-40549D01*
X59092Y-40746D02*
X59092Y-40691D01*
X59037Y-40691D01*
X59037Y-40746D01*
X59092Y-40746D01*
X59092Y-40942D02*
X59092Y-40887D01*
X59037Y-40887D01*
X59037Y-40942D01*
X59092Y-40942D01*
X59092Y-41336D02*
X59092Y-41281D01*
X59037Y-41281D01*
X59037Y-41336D01*
X59092Y-41336D01*
X59102Y-41139D02*
X59102Y-41084D01*
X59047Y-41084D01*
X59047Y-41139D01*
X59102Y-41139D01*
X48124Y-35908D02*
X48182Y-35850D01*
X48124Y-35791D01*
X48065Y-35850D01*
X48124Y-35908D01*
X48124Y-36203D02*
X48182Y-36145D01*
X48124Y-36086D01*
X48065Y-36145D01*
X48124Y-36203D01*
X48124Y-36479D02*
X48182Y-36421D01*
X48124Y-36362D01*
X48065Y-36421D01*
X48124Y-36479D01*
X48138Y-43865D02*
X48196Y-43807D01*
X48138Y-43748D01*
X48079Y-43807D01*
X48138Y-43865D01*
X48150Y-39137D02*
X48208Y-39079D01*
X48150Y-39020D01*
X48091Y-39079D01*
X48150Y-39137D01*
X48158Y-36775D02*
X48216Y-36717D01*
X48158Y-36658D01*
X48099Y-36717D01*
X48158Y-36775D01*
X48189Y-41495D02*
X48247Y-41437D01*
X48189Y-41378D01*
X48130Y-41437D01*
X48189Y-41495D01*
X48990Y-35869D02*
X49048Y-35810D01*
X48990Y-35752D01*
X48931Y-35810D01*
X48990Y-35869D01*
X48990Y-36164D02*
X49048Y-36106D01*
X48990Y-36047D01*
X48931Y-36106D01*
X48990Y-36164D01*
X48990Y-36459D02*
X49048Y-36401D01*
X48990Y-36342D01*
X48931Y-36401D01*
X48990Y-36459D01*
X50921Y-43857D02*
X50979Y-43799D01*
X50921Y-43740D01*
X50862Y-43799D01*
X50921Y-43857D01*
X51012Y-36759D02*
X51070Y-36701D01*
X51012Y-36642D01*
X50953Y-36701D01*
X51012Y-36759D01*
X51169Y-34302D02*
X51227Y-34244D01*
X51169Y-34185D01*
X51110Y-34244D01*
X51169Y-34302D01*
X51169Y-44885D02*
X51227Y-44827D01*
X51169Y-44768D01*
X51110Y-44827D01*
X51169Y-44885D01*
X51169Y-45121D02*
X51227Y-45063D01*
X51169Y-45004D01*
X51110Y-45063D01*
X51169Y-45121D01*
X51326Y-47388D02*
X51385Y-47329D01*
X51326Y-47271D01*
X51268Y-47329D01*
X51326Y-47388D01*
X51326Y-47703D02*
X51385Y-47644D01*
X51326Y-47586D01*
X51268Y-47644D01*
X51326Y-47703D01*
X51326Y-48077D02*
X51385Y-48018D01*
X51326Y-47960D01*
X51268Y-48018D01*
X51326Y-48077D01*
X51326Y-48411D02*
X51385Y-48353D01*
X51326Y-48294D01*
X51268Y-48353D01*
X51326Y-48411D01*
X51326Y-48726D02*
X51385Y-48668D01*
X51326Y-48609D01*
X51268Y-48668D01*
X51326Y-48726D01*
X51326Y-49061D02*
X51385Y-49002D01*
X51326Y-48944D01*
X51268Y-49002D01*
X51326Y-49061D01*
X51622Y-47388D02*
X51680Y-47329D01*
X51622Y-47271D01*
X51563Y-47329D01*
X51622Y-47388D01*
X51622Y-48077D02*
X51680Y-48018D01*
X51622Y-47960D01*
X51563Y-48018D01*
X51622Y-48077D01*
X51622Y-48411D02*
X51680Y-48353D01*
X51622Y-48294D01*
X51563Y-48353D01*
X51622Y-48411D01*
X51631Y-47703D02*
X51690Y-47644D01*
X51631Y-47586D01*
X51573Y-47644D01*
X51631Y-47703D01*
X51631Y-48736D02*
X51690Y-48678D01*
X51631Y-48619D01*
X51573Y-48678D01*
X51631Y-48736D01*
X51631Y-49071D02*
X51690Y-49012D01*
X51631Y-48954D01*
X51573Y-49012D01*
X51631Y-49071D01*
X51927Y-47388D02*
X51985Y-47329D01*
X51927Y-47271D01*
X51868Y-47329D01*
X51927Y-47388D01*
X51927Y-48736D02*
X51985Y-48678D01*
X51927Y-48619D01*
X51868Y-48678D01*
X51927Y-48736D01*
X51927Y-49071D02*
X51985Y-49012D01*
X51927Y-48954D01*
X51868Y-49012D01*
X51927Y-49071D01*
X51936Y-48077D02*
X51995Y-48018D01*
X51936Y-47960D01*
X51878Y-48018D01*
X51936Y-48077D01*
X51936Y-48411D02*
X51995Y-48353D01*
X51936Y-48294D01*
X51878Y-48353D01*
X51936Y-48411D01*
X51946Y-47703D02*
X52005Y-47644D01*
X51946Y-47586D01*
X51888Y-47644D01*
X51946Y-47703D01*
X51986Y-45409D02*
X52044Y-45351D01*
X51986Y-45292D01*
X51927Y-45351D01*
X51986Y-45409D01*
X51986Y-45685D02*
X52044Y-45626D01*
X51986Y-45568D01*
X51927Y-45626D01*
X51986Y-45685D01*
X52104Y-45951D02*
X52162Y-45892D01*
X52104Y-45834D01*
X52045Y-45892D01*
X52104Y-45951D01*
X52232Y-43679D02*
X52290Y-43621D01*
X52232Y-43562D01*
X52173Y-43621D01*
X52232Y-43679D01*
X52232Y-47388D02*
X52290Y-47329D01*
X52232Y-47271D01*
X52173Y-47329D01*
X52232Y-47388D01*
X52242Y-48736D02*
X52300Y-48678D01*
X52242Y-48619D01*
X52183Y-48678D01*
X52242Y-48736D01*
X52242Y-49071D02*
X52300Y-49012D01*
X52242Y-48954D01*
X52183Y-49012D01*
X52242Y-49071D01*
X52251Y-48077D02*
X52310Y-48018D01*
X52251Y-47960D01*
X52193Y-48018D01*
X52251Y-48077D01*
X52251Y-48411D02*
X52310Y-48353D01*
X52251Y-48294D01*
X52193Y-48353D01*
X52251Y-48411D01*
X52261Y-47703D02*
X52320Y-47644D01*
X52261Y-47586D01*
X52203Y-47644D01*
X52261Y-47703D01*
X52389Y-43482D02*
X52447Y-43424D01*
X52389Y-43365D01*
X52330Y-43424D01*
X52389Y-43482D01*
X52389Y-45951D02*
X52448Y-45892D01*
X52389Y-45834D01*
X52331Y-45892D01*
X52389Y-45951D01*
X52547Y-47703D02*
X52605Y-47644D01*
X52547Y-47586D01*
X52488Y-47644D01*
X52547Y-47703D01*
X52547Y-48077D02*
X52605Y-48018D01*
X52547Y-47960D01*
X52488Y-48018D01*
X52547Y-48077D01*
X52557Y-47388D02*
X52615Y-47329D01*
X52557Y-47271D01*
X52498Y-47329D01*
X52557Y-47388D01*
X52566Y-48411D02*
X52625Y-48353D01*
X52566Y-48294D01*
X52508Y-48353D01*
X52566Y-48411D01*
X52566Y-48736D02*
X52625Y-48678D01*
X52566Y-48619D01*
X52508Y-48678D01*
X52566Y-48736D01*
X52566Y-49071D02*
X52625Y-49012D01*
X52566Y-48954D01*
X52508Y-49012D01*
X52566Y-49071D01*
X52586Y-43679D02*
X52644Y-43621D01*
X52586Y-43562D01*
X52527Y-43621D01*
X52586Y-43679D01*
X52675Y-45951D02*
X52733Y-45892D01*
X52675Y-45834D01*
X52616Y-45892D01*
X52675Y-45951D01*
X52744Y-43482D02*
X52802Y-43424D01*
X52744Y-43365D01*
X52685Y-43424D01*
X52744Y-43482D01*
X52773Y-45429D02*
X52832Y-45371D01*
X52773Y-45312D01*
X52715Y-45371D01*
X52773Y-45429D01*
X52773Y-45695D02*
X52832Y-45636D01*
X52773Y-45578D01*
X52715Y-45636D01*
X52773Y-45695D01*
X52811Y-45050D02*
X52869Y-44992D01*
X52811Y-44933D01*
X52752Y-44992D01*
X52811Y-45050D01*
X52872Y-47703D02*
X52930Y-47644D01*
X52872Y-47586D01*
X52813Y-47644D01*
X52872Y-47703D01*
X52872Y-48077D02*
X52930Y-48018D01*
X52872Y-47960D01*
X52813Y-48018D01*
X52872Y-48077D01*
X52881Y-47388D02*
X52940Y-47329D01*
X52881Y-47271D01*
X52823Y-47329D01*
X52881Y-47388D01*
X52891Y-48411D02*
X52950Y-48353D01*
X52891Y-48294D01*
X52833Y-48353D01*
X52891Y-48411D01*
X52891Y-48736D02*
X52950Y-48678D01*
X52891Y-48619D01*
X52833Y-48678D01*
X52891Y-48736D01*
X52891Y-49071D02*
X52950Y-49012D01*
X52891Y-48954D01*
X52833Y-49012D01*
X52891Y-49071D01*
X52941Y-43678D02*
X52999Y-43620D01*
X52941Y-43561D01*
X52882Y-43620D01*
X52941Y-43678D01*
X53465Y-45873D02*
X53523Y-45815D01*
X53465Y-45756D01*
X53406Y-45815D01*
X53465Y-45873D01*
X53539Y-43920D02*
X53597Y-43862D01*
X53539Y-43803D01*
X53480Y-43862D01*
X53539Y-43920D01*
X53539Y-44255D02*
X53597Y-44197D01*
X53539Y-44138D01*
X53480Y-44197D01*
X53539Y-44255D01*
X54221Y-34499D02*
X54279Y-34441D01*
X54221Y-34382D01*
X54162Y-34441D01*
X54221Y-34499D01*
X54268Y-46566D02*
X54326Y-46508D01*
X54268Y-46449D01*
X54209Y-46508D01*
X54268Y-46566D01*
X54949Y-37401D02*
X55007Y-37343D01*
X54949Y-37284D01*
X54890Y-37343D01*
X54949Y-37401D01*
X55032Y-45334D02*
X55090Y-45276D01*
X55032Y-45217D01*
X54973Y-45276D01*
X55032Y-45334D01*
X55217Y-45046D02*
X55275Y-44988D01*
X55217Y-44929D01*
X55158Y-44988D01*
X55217Y-45046D01*
X55748Y-43570D02*
X55806Y-43512D01*
X55748Y-43453D01*
X55689Y-43512D01*
X55748Y-43570D01*
X56102Y-44033D02*
X56160Y-43975D01*
X56102Y-43916D01*
X56043Y-43975D01*
X56102Y-44033D01*
X56378Y-44033D02*
X56436Y-43975D01*
X56378Y-43916D01*
X56319Y-43975D01*
X56378Y-44033D01*
X56783Y-43231D02*
X56841Y-43173D01*
X56783Y-43114D01*
X56724Y-43173D01*
X56783Y-43231D01*
X57668Y-44576D02*
X57726Y-44518D01*
X57668Y-44459D01*
X57609Y-44518D01*
X57668Y-44576D01*
X57756Y-43507D02*
X57814Y-43449D01*
X57756Y-43390D01*
X57697Y-43449D01*
X57756Y-43507D01*
X57984Y-48342D02*
X58042Y-48284D01*
X57984Y-48225D01*
X57925Y-48284D01*
X57984Y-48342D01*
X58002Y-47558D02*
X58060Y-47500D01*
X58002Y-47441D01*
X57943Y-47500D01*
X58002Y-47558D01*
X58264Y-43204D02*
X58322Y-43146D01*
X58264Y-43087D01*
X58205Y-43146D01*
X58264Y-43204D01*
X58616Y-45288D02*
X58674Y-45230D01*
X58616Y-45171D01*
X58557Y-45230D01*
X58616Y-45288D01*
X58976Y-46830D02*
X59034Y-46772D01*
X58976Y-46713D01*
X58917Y-46772D01*
X58976Y-46830D01*
X59910Y-37873D02*
X59968Y-37815D01*
X59910Y-37756D01*
X59851Y-37815D01*
X59910Y-37873D01*
X60142Y-42979D02*
X60200Y-42921D01*
X60142Y-42862D01*
X60083Y-42921D01*
X60142Y-42979D01*
X60154Y-42696D02*
X60212Y-42638D01*
X60154Y-42579D01*
X60095Y-42638D01*
X60154Y-42696D01*
X61594Y-38141D02*
X61652Y-38083D01*
X61594Y-38024D01*
X61535Y-38083D01*
X61594Y-38141D01*
X61728Y-40704D02*
X61786Y-40646D01*
X61728Y-40587D01*
X61669Y-40646D01*
X61728Y-40704D01*
X61821Y-42076D02*
X61879Y-42018D01*
X61821Y-41959D01*
X61762Y-42018D01*
X61821Y-42076D01*
X62036Y-39558D02*
X62094Y-39500D01*
X62036Y-39441D01*
X61977Y-39500D01*
X62036Y-39558D01*
X62039Y-39861D02*
X62097Y-39803D01*
X62039Y-39744D01*
X61980Y-39803D01*
X62039Y-39861D01*
X55520Y-35071D02*
X55638Y-35189D01*
X55638Y-35071D02*
X55520Y-35189D01*
X55638Y-35130D02*
G75*
G03X55638Y-35130I-59J0D01*
G74*
G01*
X56032Y-35319D02*
X56150Y-35437D01*
X56150Y-35319D02*
X56032Y-35437D01*
X56150Y-35378D02*
G75*
G03X56150Y-35378I-59J0D01*
G74*
G01*
X47548Y-34453D02*
X47902Y-34807D01*
X47902Y-34453D02*
X47548Y-34807D01*
X47725Y-34453D02*
X47725Y-34807D01*
X47548Y-34630D02*
X47902Y-34630D01*
X47548Y-34886D02*
X47902Y-35240D01*
X47902Y-34886D02*
X47548Y-35240D01*
X47725Y-34886D02*
X47725Y-35240D01*
X47548Y-35063D02*
X47902Y-35063D01*
X47548Y-35319D02*
X47902Y-35673D01*
X47902Y-35319D02*
X47548Y-35673D01*
X47725Y-35319D02*
X47725Y-35673D01*
X47548Y-35496D02*
X47902Y-35496D01*
X47548Y-43292D02*
X47902Y-43646D01*
X47902Y-43292D02*
X47548Y-43646D01*
X47725Y-43292D02*
X47725Y-43646D01*
X47548Y-43469D02*
X47902Y-43469D01*
X47548Y-43725D02*
X47902Y-44079D01*
X47902Y-43725D02*
X47548Y-44079D01*
X47725Y-43725D02*
X47725Y-44079D01*
X47548Y-43902D02*
X47902Y-43902D01*
X47548Y-44158D02*
X47902Y-44512D01*
X47902Y-44158D02*
X47548Y-44512D01*
X47725Y-44158D02*
X47725Y-44512D01*
X47548Y-44335D02*
X47902Y-44335D01*
X53130Y-31637D02*
X53484Y-31991D01*
X53484Y-31637D02*
X53130Y-31991D01*
X53307Y-31637D02*
X53307Y-31991D01*
X53130Y-31814D02*
X53484Y-31814D01*
X54130Y-31657D02*
X54484Y-32011D01*
X54484Y-31657D02*
X54130Y-32011D01*
X54307Y-31657D02*
X54307Y-32011D01*
X54130Y-31834D02*
X54484Y-31834D01*
X55130Y-31657D02*
X55484Y-32011D01*
X55484Y-31657D02*
X55130Y-32011D01*
X55307Y-31657D02*
X55307Y-32011D01*
X55130Y-31834D02*
X55484Y-31834D01*
X56130Y-31657D02*
X56484Y-32011D01*
X56484Y-31657D02*
X56130Y-32011D01*
X56307Y-31657D02*
X56307Y-32011D01*
X56130Y-31834D02*
X56484Y-31834D01*
X56248Y-30260D02*
X56602Y-30614D01*
X56602Y-30260D02*
X56248Y-30614D01*
X56425Y-30260D02*
X56425Y-30614D01*
X56248Y-30437D02*
X56602Y-30437D01*
X56249Y-49591D02*
X56603Y-49945D01*
X56603Y-49591D02*
X56249Y-49945D01*
X56426Y-49591D02*
X56426Y-49945D01*
X56249Y-49768D02*
X56603Y-49768D01*
X56399Y-48902D02*
X56753Y-49256D01*
X56753Y-48902D02*
X56399Y-49256D01*
X56576Y-48902D02*
X56576Y-49256D01*
X56399Y-49079D02*
X56753Y-49079D01*
X56681Y-30260D02*
X57035Y-30614D01*
X57035Y-30260D02*
X56681Y-30614D01*
X56858Y-30260D02*
X56858Y-30614D01*
X56681Y-30437D02*
X57035Y-30437D01*
X56682Y-49591D02*
X57036Y-49945D01*
X57036Y-49591D02*
X56682Y-49945D01*
X56859Y-49591D02*
X56859Y-49945D01*
X56682Y-49768D02*
X57036Y-49768D01*
X57114Y-30260D02*
X57468Y-30614D01*
X57468Y-30260D02*
X57114Y-30614D01*
X57291Y-30260D02*
X57291Y-30614D01*
X57114Y-30437D02*
X57468Y-30437D01*
X57115Y-49591D02*
X57469Y-49945D01*
X57469Y-49591D02*
X57115Y-49945D01*
X57292Y-49591D02*
X57292Y-49945D01*
X57115Y-49768D02*
X57469Y-49768D01*
X57130Y-31657D02*
X57484Y-32011D01*
X57484Y-31657D02*
X57130Y-32011D01*
X57307Y-31657D02*
X57307Y-32011D01*
X57130Y-31834D02*
X57484Y-31834D01*
X57399Y-48902D02*
X57753Y-49256D01*
X57753Y-48902D02*
X57399Y-49256D01*
X57576Y-48902D02*
X57576Y-49256D01*
X57399Y-49079D02*
X57753Y-49079D01*
X57548Y-30260D02*
X57902Y-30614D01*
X57902Y-30260D02*
X57548Y-30614D01*
X57725Y-30260D02*
X57725Y-30614D01*
X57548Y-30437D02*
X57902Y-30437D01*
X57549Y-49591D02*
X57903Y-49945D01*
X57903Y-49591D02*
X57549Y-49945D01*
X57726Y-49591D02*
X57726Y-49945D01*
X57549Y-49768D02*
X57903Y-49768D01*
X58130Y-31657D02*
X58484Y-32011D01*
X58484Y-31657D02*
X58130Y-32011D01*
X58307Y-31657D02*
X58307Y-32011D01*
X58130Y-31834D02*
X58484Y-31834D01*
X58866Y-48153D02*
X59220Y-48507D01*
X59220Y-48153D02*
X58866Y-48507D01*
X59043Y-48153D02*
X59043Y-48507D01*
X58866Y-48330D02*
X59220Y-48330D01*
X59137Y-31637D02*
X59491Y-31991D01*
X59491Y-31637D02*
X59137Y-31991D01*
X59314Y-31637D02*
X59314Y-31991D01*
X59137Y-31814D02*
X59491Y-31814D01*
X59866Y-48173D02*
X60220Y-48527D01*
X60220Y-48173D02*
X59866Y-48527D01*
X60043Y-48173D02*
X60043Y-48527D01*
X59866Y-48350D02*
X60220Y-48350D01*
X60137Y-31657D02*
X60491Y-32011D01*
X60491Y-31657D02*
X60137Y-32011D01*
X60314Y-31657D02*
X60314Y-32011D01*
X60137Y-31834D02*
X60491Y-31834D01*
X60866Y-48173D02*
X61220Y-48527D01*
X61220Y-48173D02*
X60866Y-48527D01*
X61043Y-48173D02*
X61043Y-48527D01*
X60866Y-48350D02*
X61220Y-48350D01*
X61137Y-31657D02*
X61491Y-32011D01*
X61491Y-31657D02*
X61137Y-32011D01*
X61314Y-31657D02*
X61314Y-32011D01*
X61137Y-31834D02*
X61491Y-31834D01*
X61866Y-48173D02*
X62220Y-48527D01*
X62220Y-48173D02*
X61866Y-48527D01*
X62043Y-48173D02*
X62043Y-48527D01*
X61866Y-48350D02*
X62220Y-48350D01*
X62137Y-31657D02*
X62491Y-32011D01*
X62491Y-31657D02*
X62137Y-32011D01*
X62314Y-31657D02*
X62314Y-32011D01*
X62137Y-31834D02*
X62491Y-31834D01*
X62866Y-48173D02*
X63220Y-48527D01*
X63220Y-48173D02*
X62866Y-48527D01*
X63043Y-48173D02*
X63043Y-48527D01*
X62866Y-48350D02*
X63220Y-48350D01*
X63137Y-31657D02*
X63491Y-32011D01*
X63491Y-31657D02*
X63137Y-32011D01*
X63314Y-31657D02*
X63314Y-32011D01*
X63137Y-31834D02*
X63491Y-31834D01*
X66091Y-39394D02*
X66445Y-39748D01*
X66445Y-39394D02*
X66091Y-39748D01*
X66268Y-39394D02*
X66268Y-39748D01*
X66091Y-39571D02*
X66445Y-39571D01*
X66091Y-39827D02*
X66445Y-40181D01*
X66445Y-39827D02*
X66091Y-40181D01*
X66268Y-39827D02*
X66268Y-40181D01*
X66091Y-40004D02*
X66445Y-40004D01*
X66091Y-40260D02*
X66445Y-40614D01*
X66445Y-40260D02*
X66091Y-40614D01*
X66268Y-40260D02*
X66268Y-40614D01*
X66091Y-40437D02*
X66445Y-40437D01*
X66091Y-40693D02*
X66445Y-41047D01*
X66445Y-40693D02*
X66091Y-41047D01*
X66268Y-40693D02*
X66268Y-41047D01*
X66091Y-40870D02*
X66445Y-40870D01*
X49338Y-34846D02*
X49770Y-35278D01*
X49770Y-34846D02*
X49338Y-35278D01*
X49706Y-35214D02*
X49706Y-34909D01*
X49401Y-34909D01*
X49401Y-35214D01*
X49706Y-35214D01*
X49338Y-45238D02*
X49770Y-45670D01*
X49770Y-45238D02*
X49338Y-45670D01*
X49706Y-45606D02*
X49706Y-45301D01*
X49401Y-45301D01*
X49401Y-45606D01*
X49706Y-45606D01*
X49122Y-31598D02*
X50381Y-32857D01*
X50381Y-31598D02*
X49122Y-32857D01*
X49752Y-32857D02*
X50381Y-32228D01*
X49752Y-31598D01*
X49122Y-32228D01*
X49752Y-32857D01*
X49122Y-47345D02*
X50381Y-48604D01*
X50381Y-47345D02*
X49122Y-48604D01*
X49752Y-48604D02*
X50381Y-47975D01*
X49752Y-47345D01*
X49122Y-47975D01*
X49752Y-48604D01*
X64161Y-31598D02*
X65420Y-32857D01*
X65420Y-31598D02*
X64161Y-32857D01*
X64791Y-32857D02*
X65420Y-32228D01*
X64791Y-31598D01*
X64161Y-32228D01*
X64791Y-32857D01*
X64161Y-47345D02*
X65420Y-48604D01*
X65420Y-47345D02*
X64161Y-48604D01*
X64791Y-48604D02*
X65420Y-47975D01*
X64791Y-47345D01*
X64161Y-47975D01*
X64791Y-48604D01*
G54D13*
X43636Y-54298D02*
X43636Y-53117D01*
X43917Y-53117D01*
X44086Y-53173D01*
X44198Y-53286D01*
X44254Y-53398D01*
X44311Y-53623D01*
X44311Y-53792D01*
X44254Y-54017D01*
X44198Y-54130D01*
X44086Y-54242D01*
X43917Y-54298D01*
X43636Y-54298D01*
X44817Y-54298D02*
X44817Y-53511D01*
X44817Y-53736D02*
X44873Y-53623D01*
X44929Y-53567D01*
X45042Y-53511D01*
X45154Y-53511D01*
X45548Y-54298D02*
X45548Y-53511D01*
X45548Y-53117D02*
X45492Y-53173D01*
X45548Y-53230D01*
X45604Y-53173D01*
X45548Y-53117D01*
X45548Y-53230D01*
X46279Y-54298D02*
X46167Y-54242D01*
X46110Y-54130D01*
X46110Y-53117D01*
X46898Y-54298D02*
X46785Y-54242D01*
X46729Y-54130D01*
X46729Y-53117D01*
X48248Y-54298D02*
X48248Y-53117D01*
X48641Y-53961D01*
X49035Y-53117D01*
X49035Y-54298D01*
X50104Y-54298D02*
X50104Y-53680D01*
X50047Y-53567D01*
X49935Y-53511D01*
X49710Y-53511D01*
X49597Y-53567D01*
X50104Y-54242D02*
X49991Y-54298D01*
X49710Y-54298D01*
X49597Y-54242D01*
X49541Y-54130D01*
X49541Y-54017D01*
X49597Y-53905D01*
X49710Y-53848D01*
X49991Y-53848D01*
X50104Y-53792D01*
X50666Y-53511D02*
X50666Y-54692D01*
X50666Y-53567D02*
X50778Y-53511D01*
X51003Y-53511D01*
X51116Y-53567D01*
X51172Y-53623D01*
X51228Y-53736D01*
X51228Y-54073D01*
X51172Y-54186D01*
X51116Y-54242D01*
X51003Y-54298D01*
X50778Y-54298D01*
X50666Y-54242D01*
X51735Y-54186D02*
X51791Y-54242D01*
X51735Y-54298D01*
X51678Y-54242D01*
X51735Y-54186D01*
X51735Y-54298D01*
X51735Y-53567D02*
X51791Y-53623D01*
X51735Y-53680D01*
X51678Y-53623D01*
X51735Y-53567D01*
X51735Y-53680D01*
X42528Y-56281D02*
X42567Y-56320D01*
X42567Y-56281D02*
X42528Y-56320D01*
X43861Y-55597D02*
X43973Y-55597D01*
X44086Y-55654D01*
X44142Y-55710D01*
X44198Y-55822D01*
X44254Y-56047D01*
X44254Y-56329D01*
X44198Y-56554D01*
X44142Y-56666D01*
X44086Y-56722D01*
X43973Y-56779D01*
X43861Y-56779D01*
X43748Y-56722D01*
X43692Y-56666D01*
X43636Y-56554D01*
X43579Y-56329D01*
X43579Y-56047D01*
X43636Y-55822D01*
X43692Y-55710D01*
X43748Y-55654D01*
X43861Y-55597D01*
X44760Y-56666D02*
X44817Y-56722D01*
X44760Y-56779D01*
X44704Y-56722D01*
X44760Y-56666D01*
X44760Y-56779D01*
X45942Y-56779D02*
X45267Y-56779D01*
X45604Y-56779D02*
X45604Y-55597D01*
X45492Y-55766D01*
X45379Y-55879D01*
X45267Y-55935D01*
X46673Y-55597D02*
X46785Y-55597D01*
X46898Y-55654D01*
X46954Y-55710D01*
X47010Y-55822D01*
X47066Y-56047D01*
X47066Y-56329D01*
X47010Y-56554D01*
X46954Y-56666D01*
X46898Y-56722D01*
X46785Y-56779D01*
X46673Y-56779D01*
X46560Y-56722D01*
X46504Y-56666D01*
X46448Y-56554D01*
X46392Y-56329D01*
X46392Y-56047D01*
X46448Y-55822D01*
X46504Y-55710D01*
X46560Y-55654D01*
X46673Y-55597D01*
X47573Y-56779D02*
X47573Y-55991D01*
X47573Y-56104D02*
X47629Y-56047D01*
X47741Y-55991D01*
X47910Y-55991D01*
X48023Y-56047D01*
X48079Y-56160D01*
X48079Y-56779D01*
X48079Y-56160D02*
X48135Y-56047D01*
X48248Y-55991D01*
X48416Y-55991D01*
X48529Y-56047D01*
X48585Y-56160D01*
X48585Y-56779D01*
X49147Y-56779D02*
X49147Y-55991D01*
X49147Y-56104D02*
X49204Y-56047D01*
X49316Y-55991D01*
X49485Y-55991D01*
X49597Y-56047D01*
X49654Y-56160D01*
X49654Y-56779D01*
X49654Y-56160D02*
X49710Y-56047D01*
X49822Y-55991D01*
X49991Y-55991D01*
X50104Y-56047D01*
X50160Y-56160D01*
X50160Y-56779D01*
X52466Y-55541D02*
X51453Y-57060D01*
X53984Y-55597D02*
X54097Y-55597D01*
X54209Y-55654D01*
X54266Y-55710D01*
X54322Y-55822D01*
X54378Y-56047D01*
X54378Y-56329D01*
X54322Y-56554D01*
X54266Y-56666D01*
X54209Y-56722D01*
X54097Y-56779D01*
X53984Y-56779D01*
X53872Y-56722D01*
X53816Y-56666D01*
X53759Y-56554D01*
X53703Y-56329D01*
X53703Y-56047D01*
X53759Y-55822D01*
X53816Y-55710D01*
X53872Y-55654D01*
X53984Y-55597D01*
X54884Y-56666D02*
X54940Y-56722D01*
X54884Y-56779D01*
X54828Y-56722D01*
X54884Y-56666D01*
X54884Y-56779D01*
X55672Y-55597D02*
X55784Y-55597D01*
X55897Y-55654D01*
X55953Y-55710D01*
X56009Y-55822D01*
X56065Y-56047D01*
X56065Y-56329D01*
X56009Y-56554D01*
X55953Y-56666D01*
X55897Y-56722D01*
X55784Y-56779D01*
X55672Y-56779D01*
X55559Y-56722D01*
X55503Y-56666D01*
X55447Y-56554D01*
X55390Y-56329D01*
X55390Y-56047D01*
X55447Y-55822D01*
X55503Y-55710D01*
X55559Y-55654D01*
X55672Y-55597D01*
X56796Y-55597D02*
X56909Y-55597D01*
X57021Y-55654D01*
X57078Y-55710D01*
X57134Y-55822D01*
X57190Y-56047D01*
X57190Y-56329D01*
X57134Y-56554D01*
X57078Y-56666D01*
X57021Y-56722D01*
X56909Y-56779D01*
X56796Y-56779D01*
X56684Y-56722D01*
X56628Y-56666D01*
X56571Y-56554D01*
X56515Y-56329D01*
X56515Y-56047D01*
X56571Y-55822D01*
X56628Y-55710D01*
X56684Y-55654D01*
X56796Y-55597D01*
X58203Y-55991D02*
X58203Y-56779D01*
X57921Y-55541D02*
X57640Y-56385D01*
X58371Y-56385D01*
X58765Y-55597D02*
X58765Y-55822D01*
X59215Y-55597D02*
X59215Y-55822D01*
X60958Y-57229D02*
X60902Y-57172D01*
X60790Y-57004D01*
X60733Y-56891D01*
X60677Y-56722D01*
X60621Y-56441D01*
X60621Y-56216D01*
X60677Y-55935D01*
X60733Y-55766D01*
X60790Y-55654D01*
X60902Y-55485D01*
X60958Y-55429D01*
X61915Y-55597D02*
X61690Y-55597D01*
X61577Y-55654D01*
X61521Y-55710D01*
X61408Y-55879D01*
X61352Y-56104D01*
X61352Y-56554D01*
X61408Y-56666D01*
X61465Y-56722D01*
X61577Y-56779D01*
X61802Y-56779D01*
X61915Y-56722D01*
X61971Y-56666D01*
X62027Y-56554D01*
X62027Y-56272D01*
X61971Y-56160D01*
X61915Y-56104D01*
X61802Y-56047D01*
X61577Y-56047D01*
X61465Y-56104D01*
X61408Y-56160D01*
X61352Y-56272D01*
X63433Y-56779D02*
X63433Y-55597D01*
X63939Y-56779D02*
X63939Y-56160D01*
X63883Y-56047D01*
X63771Y-55991D01*
X63602Y-55991D01*
X63489Y-56047D01*
X63433Y-56104D01*
X64670Y-56779D02*
X64558Y-56722D01*
X64502Y-56666D01*
X64446Y-56554D01*
X64446Y-56216D01*
X64502Y-56104D01*
X64558Y-56047D01*
X64670Y-55991D01*
X64839Y-55991D01*
X64952Y-56047D01*
X65008Y-56104D01*
X65064Y-56216D01*
X65064Y-56554D01*
X65008Y-56666D01*
X64952Y-56722D01*
X64839Y-56779D01*
X64670Y-56779D01*
X65739Y-56779D02*
X65627Y-56722D01*
X65570Y-56610D01*
X65570Y-55597D01*
X66639Y-56722D02*
X66527Y-56779D01*
X66302Y-56779D01*
X66189Y-56722D01*
X66133Y-56610D01*
X66133Y-56160D01*
X66189Y-56047D01*
X66302Y-55991D01*
X66527Y-55991D01*
X66639Y-56047D01*
X66695Y-56160D01*
X66695Y-56272D01*
X66133Y-56385D01*
X67145Y-56722D02*
X67258Y-56779D01*
X67483Y-56779D01*
X67595Y-56722D01*
X67651Y-56610D01*
X67651Y-56554D01*
X67595Y-56441D01*
X67483Y-56385D01*
X67314Y-56385D01*
X67201Y-56329D01*
X67145Y-56216D01*
X67145Y-56160D01*
X67201Y-56047D01*
X67314Y-55991D01*
X67483Y-55991D01*
X67595Y-56047D01*
X68045Y-57229D02*
X68101Y-57172D01*
X68214Y-57004D01*
X68270Y-56891D01*
X68326Y-56722D01*
X68383Y-56441D01*
X68383Y-56216D01*
X68326Y-55935D01*
X68270Y-55766D01*
X68214Y-55654D01*
X68101Y-55485D01*
X68045Y-55429D01*
G54D12*
X42567Y-57860D02*
G75*
G03X42567Y-57860I-38J0D01*
G74*
G01*
G54D13*
X43861Y-57157D02*
X43973Y-57157D01*
X44086Y-57213D01*
X44142Y-57269D01*
X44198Y-57382D01*
X44254Y-57606D01*
X44254Y-57888D01*
X44198Y-58113D01*
X44142Y-58225D01*
X44086Y-58281D01*
X43973Y-58338D01*
X43861Y-58338D01*
X43748Y-58281D01*
X43692Y-58225D01*
X43636Y-58113D01*
X43579Y-57888D01*
X43579Y-57606D01*
X43636Y-57382D01*
X43692Y-57269D01*
X43748Y-57213D01*
X43861Y-57157D01*
X44760Y-58225D02*
X44817Y-58281D01*
X44760Y-58338D01*
X44704Y-58281D01*
X44760Y-58225D01*
X44760Y-58338D01*
X45267Y-57269D02*
X45323Y-57213D01*
X45435Y-57157D01*
X45717Y-57157D01*
X45829Y-57213D01*
X45885Y-57269D01*
X45942Y-57382D01*
X45942Y-57494D01*
X45885Y-57663D01*
X45210Y-58338D01*
X45942Y-58338D01*
X46673Y-57157D02*
X46785Y-57157D01*
X46898Y-57213D01*
X46954Y-57269D01*
X47010Y-57382D01*
X47066Y-57606D01*
X47066Y-57888D01*
X47010Y-58113D01*
X46954Y-58225D01*
X46898Y-58281D01*
X46785Y-58338D01*
X46673Y-58338D01*
X46560Y-58281D01*
X46504Y-58225D01*
X46448Y-58113D01*
X46392Y-57888D01*
X46392Y-57606D01*
X46448Y-57382D01*
X46504Y-57269D01*
X46560Y-57213D01*
X46673Y-57157D01*
X47573Y-58338D02*
X47573Y-57550D01*
X47573Y-57663D02*
X47629Y-57606D01*
X47741Y-57550D01*
X47910Y-57550D01*
X48023Y-57606D01*
X48079Y-57719D01*
X48079Y-58338D01*
X48079Y-57719D02*
X48135Y-57606D01*
X48248Y-57550D01*
X48416Y-57550D01*
X48529Y-57606D01*
X48585Y-57719D01*
X48585Y-58338D01*
X49147Y-58338D02*
X49147Y-57550D01*
X49147Y-57663D02*
X49204Y-57606D01*
X49316Y-57550D01*
X49485Y-57550D01*
X49597Y-57606D01*
X49654Y-57719D01*
X49654Y-58338D01*
X49654Y-57719D02*
X49710Y-57606D01*
X49822Y-57550D01*
X49991Y-57550D01*
X50104Y-57606D01*
X50160Y-57719D01*
X50160Y-58338D01*
X52466Y-57100D02*
X51453Y-58619D01*
X53984Y-57157D02*
X54097Y-57157D01*
X54209Y-57213D01*
X54266Y-57269D01*
X54322Y-57382D01*
X54378Y-57606D01*
X54378Y-57888D01*
X54322Y-58113D01*
X54266Y-58225D01*
X54209Y-58281D01*
X54097Y-58338D01*
X53984Y-58338D01*
X53872Y-58281D01*
X53816Y-58225D01*
X53759Y-58113D01*
X53703Y-57888D01*
X53703Y-57606D01*
X53759Y-57382D01*
X53816Y-57269D01*
X53872Y-57213D01*
X53984Y-57157D01*
X54884Y-58225D02*
X54940Y-58281D01*
X54884Y-58338D01*
X54828Y-58281D01*
X54884Y-58225D01*
X54884Y-58338D01*
X55672Y-57157D02*
X55784Y-57157D01*
X55897Y-57213D01*
X55953Y-57269D01*
X56009Y-57382D01*
X56065Y-57606D01*
X56065Y-57888D01*
X56009Y-58113D01*
X55953Y-58225D01*
X55897Y-58281D01*
X55784Y-58338D01*
X55672Y-58338D01*
X55559Y-58281D01*
X55503Y-58225D01*
X55447Y-58113D01*
X55390Y-57888D01*
X55390Y-57606D01*
X55447Y-57382D01*
X55503Y-57269D01*
X55559Y-57213D01*
X55672Y-57157D01*
X56796Y-57157D02*
X56909Y-57157D01*
X57021Y-57213D01*
X57078Y-57269D01*
X57134Y-57382D01*
X57190Y-57606D01*
X57190Y-57888D01*
X57134Y-58113D01*
X57078Y-58225D01*
X57021Y-58281D01*
X56909Y-58338D01*
X56796Y-58338D01*
X56684Y-58281D01*
X56628Y-58225D01*
X56571Y-58113D01*
X56515Y-57888D01*
X56515Y-57606D01*
X56571Y-57382D01*
X56628Y-57269D01*
X56684Y-57213D01*
X56796Y-57157D01*
X57865Y-57663D02*
X57753Y-57606D01*
X57696Y-57550D01*
X57640Y-57438D01*
X57640Y-57382D01*
X57696Y-57269D01*
X57753Y-57213D01*
X57865Y-57157D01*
X58090Y-57157D01*
X58203Y-57213D01*
X58259Y-57269D01*
X58315Y-57382D01*
X58315Y-57438D01*
X58259Y-57550D01*
X58203Y-57606D01*
X58090Y-57663D01*
X57865Y-57663D01*
X57753Y-57719D01*
X57696Y-57775D01*
X57640Y-57888D01*
X57640Y-58113D01*
X57696Y-58225D01*
X57753Y-58281D01*
X57865Y-58338D01*
X58090Y-58338D01*
X58203Y-58281D01*
X58259Y-58225D01*
X58315Y-58113D01*
X58315Y-57888D01*
X58259Y-57775D01*
X58203Y-57719D01*
X58090Y-57663D01*
X58765Y-57157D02*
X58765Y-57382D01*
X59215Y-57157D02*
X59215Y-57382D01*
X60958Y-58788D02*
X60902Y-58731D01*
X60790Y-58563D01*
X60733Y-58450D01*
X60677Y-58281D01*
X60621Y-58000D01*
X60621Y-57775D01*
X60677Y-57494D01*
X60733Y-57325D01*
X60790Y-57213D01*
X60902Y-57044D01*
X60958Y-56988D01*
X61971Y-57157D02*
X61408Y-57157D01*
X61352Y-57719D01*
X61408Y-57663D01*
X61521Y-57606D01*
X61802Y-57606D01*
X61915Y-57663D01*
X61971Y-57719D01*
X62027Y-57831D01*
X62027Y-58113D01*
X61971Y-58225D01*
X61915Y-58281D01*
X61802Y-58338D01*
X61521Y-58338D01*
X61408Y-58281D01*
X61352Y-58225D01*
X62477Y-57269D02*
X62533Y-57213D01*
X62646Y-57157D01*
X62927Y-57157D01*
X63039Y-57213D01*
X63096Y-57269D01*
X63152Y-57382D01*
X63152Y-57494D01*
X63096Y-57663D01*
X62421Y-58338D01*
X63152Y-58338D01*
X63602Y-57269D02*
X63658Y-57213D01*
X63771Y-57157D01*
X64052Y-57157D01*
X64164Y-57213D01*
X64221Y-57269D01*
X64277Y-57382D01*
X64277Y-57494D01*
X64221Y-57663D01*
X63546Y-58338D01*
X64277Y-58338D01*
X65683Y-58338D02*
X65683Y-57157D01*
X66189Y-58338D02*
X66189Y-57719D01*
X66133Y-57606D01*
X66020Y-57550D01*
X65852Y-57550D01*
X65739Y-57606D01*
X65683Y-57663D01*
X66920Y-58338D02*
X66808Y-58281D01*
X66751Y-58225D01*
X66695Y-58113D01*
X66695Y-57775D01*
X66751Y-57663D01*
X66808Y-57606D01*
X66920Y-57550D01*
X67089Y-57550D01*
X67201Y-57606D01*
X67258Y-57663D01*
X67314Y-57775D01*
X67314Y-58113D01*
X67258Y-58225D01*
X67201Y-58281D01*
X67089Y-58338D01*
X66920Y-58338D01*
X67989Y-58338D02*
X67876Y-58281D01*
X67820Y-58169D01*
X67820Y-57157D01*
X68889Y-58281D02*
X68776Y-58338D01*
X68551Y-58338D01*
X68439Y-58281D01*
X68383Y-58169D01*
X68383Y-57719D01*
X68439Y-57606D01*
X68551Y-57550D01*
X68776Y-57550D01*
X68889Y-57606D01*
X68945Y-57719D01*
X68945Y-57831D01*
X68383Y-57944D01*
X69395Y-58281D02*
X69507Y-58338D01*
X69732Y-58338D01*
X69845Y-58281D01*
X69901Y-58169D01*
X69901Y-58113D01*
X69845Y-58000D01*
X69732Y-57944D01*
X69564Y-57944D01*
X69451Y-57888D01*
X69395Y-57775D01*
X69395Y-57719D01*
X69451Y-57606D01*
X69564Y-57550D01*
X69732Y-57550D01*
X69845Y-57606D01*
X70295Y-58788D02*
X70351Y-58731D01*
X70464Y-58563D01*
X70520Y-58450D01*
X70576Y-58281D01*
X70632Y-58000D01*
X70632Y-57775D01*
X70576Y-57494D01*
X70520Y-57325D01*
X70464Y-57213D01*
X70351Y-57044D01*
X70295Y-56988D01*
X42528Y-59380D02*
X42528Y-59458D01*
X42489Y-59419D02*
X42567Y-59419D01*
X43861Y-58716D02*
X43973Y-58716D01*
X44086Y-58772D01*
X44142Y-58828D01*
X44198Y-58941D01*
X44254Y-59166D01*
X44254Y-59447D01*
X44198Y-59672D01*
X44142Y-59784D01*
X44086Y-59840D01*
X43973Y-59897D01*
X43861Y-59897D01*
X43748Y-59840D01*
X43692Y-59784D01*
X43636Y-59672D01*
X43579Y-59447D01*
X43579Y-59166D01*
X43636Y-58941D01*
X43692Y-58828D01*
X43748Y-58772D01*
X43861Y-58716D01*
X44760Y-59784D02*
X44817Y-59840D01*
X44760Y-59897D01*
X44704Y-59840D01*
X44760Y-59784D01*
X44760Y-59897D01*
X45267Y-58828D02*
X45323Y-58772D01*
X45435Y-58716D01*
X45717Y-58716D01*
X45829Y-58772D01*
X45885Y-58828D01*
X45942Y-58941D01*
X45942Y-59053D01*
X45885Y-59222D01*
X45210Y-59897D01*
X45942Y-59897D01*
X46673Y-58716D02*
X46785Y-58716D01*
X46898Y-58772D01*
X46954Y-58828D01*
X47010Y-58941D01*
X47066Y-59166D01*
X47066Y-59447D01*
X47010Y-59672D01*
X46954Y-59784D01*
X46898Y-59840D01*
X46785Y-59897D01*
X46673Y-59897D01*
X46560Y-59840D01*
X46504Y-59784D01*
X46448Y-59672D01*
X46392Y-59447D01*
X46392Y-59166D01*
X46448Y-58941D01*
X46504Y-58828D01*
X46560Y-58772D01*
X46673Y-58716D01*
X47573Y-59897D02*
X47573Y-59109D01*
X47573Y-59222D02*
X47629Y-59166D01*
X47741Y-59109D01*
X47910Y-59109D01*
X48023Y-59166D01*
X48079Y-59278D01*
X48079Y-59897D01*
X48079Y-59278D02*
X48135Y-59166D01*
X48248Y-59109D01*
X48416Y-59109D01*
X48529Y-59166D01*
X48585Y-59278D01*
X48585Y-59897D01*
X49147Y-59897D02*
X49147Y-59109D01*
X49147Y-59222D02*
X49204Y-59166D01*
X49316Y-59109D01*
X49485Y-59109D01*
X49597Y-59166D01*
X49654Y-59278D01*
X49654Y-59897D01*
X49654Y-59278D02*
X49710Y-59166D01*
X49822Y-59109D01*
X49991Y-59109D01*
X50104Y-59166D01*
X50160Y-59278D01*
X50160Y-59897D01*
X52466Y-58659D02*
X51453Y-60178D01*
X53984Y-58716D02*
X54097Y-58716D01*
X54209Y-58772D01*
X54266Y-58828D01*
X54322Y-58941D01*
X54378Y-59166D01*
X54378Y-59447D01*
X54322Y-59672D01*
X54266Y-59784D01*
X54209Y-59840D01*
X54097Y-59897D01*
X53984Y-59897D01*
X53872Y-59840D01*
X53816Y-59784D01*
X53759Y-59672D01*
X53703Y-59447D01*
X53703Y-59166D01*
X53759Y-58941D01*
X53816Y-58828D01*
X53872Y-58772D01*
X53984Y-58716D01*
X54884Y-59784D02*
X54940Y-59840D01*
X54884Y-59897D01*
X54828Y-59840D01*
X54884Y-59784D01*
X54884Y-59897D01*
X55672Y-58716D02*
X55784Y-58716D01*
X55897Y-58772D01*
X55953Y-58828D01*
X56009Y-58941D01*
X56065Y-59166D01*
X56065Y-59447D01*
X56009Y-59672D01*
X55953Y-59784D01*
X55897Y-59840D01*
X55784Y-59897D01*
X55672Y-59897D01*
X55559Y-59840D01*
X55503Y-59784D01*
X55447Y-59672D01*
X55390Y-59447D01*
X55390Y-59166D01*
X55447Y-58941D01*
X55503Y-58828D01*
X55559Y-58772D01*
X55672Y-58716D01*
X56796Y-58716D02*
X56909Y-58716D01*
X57021Y-58772D01*
X57078Y-58828D01*
X57134Y-58941D01*
X57190Y-59166D01*
X57190Y-59447D01*
X57134Y-59672D01*
X57078Y-59784D01*
X57021Y-59840D01*
X56909Y-59897D01*
X56796Y-59897D01*
X56684Y-59840D01*
X56628Y-59784D01*
X56571Y-59672D01*
X56515Y-59447D01*
X56515Y-59166D01*
X56571Y-58941D01*
X56628Y-58828D01*
X56684Y-58772D01*
X56796Y-58716D01*
X57865Y-59222D02*
X57753Y-59166D01*
X57696Y-59109D01*
X57640Y-58997D01*
X57640Y-58941D01*
X57696Y-58828D01*
X57753Y-58772D01*
X57865Y-58716D01*
X58090Y-58716D01*
X58203Y-58772D01*
X58259Y-58828D01*
X58315Y-58941D01*
X58315Y-58997D01*
X58259Y-59109D01*
X58203Y-59166D01*
X58090Y-59222D01*
X57865Y-59222D01*
X57753Y-59278D01*
X57696Y-59334D01*
X57640Y-59447D01*
X57640Y-59672D01*
X57696Y-59784D01*
X57753Y-59840D01*
X57865Y-59897D01*
X58090Y-59897D01*
X58203Y-59840D01*
X58259Y-59784D01*
X58315Y-59672D01*
X58315Y-59447D01*
X58259Y-59334D01*
X58203Y-59278D01*
X58090Y-59222D01*
X58765Y-58716D02*
X58765Y-58941D01*
X59215Y-58716D02*
X59215Y-58941D01*
X60958Y-60347D02*
X60902Y-60290D01*
X60790Y-60122D01*
X60733Y-60009D01*
X60677Y-59840D01*
X60621Y-59559D01*
X60621Y-59334D01*
X60677Y-59053D01*
X60733Y-58884D01*
X60790Y-58772D01*
X60902Y-58603D01*
X60958Y-58547D01*
X62027Y-59897D02*
X61352Y-59897D01*
X61690Y-59897D02*
X61690Y-58716D01*
X61577Y-58884D01*
X61465Y-58997D01*
X61352Y-59053D01*
X63096Y-58716D02*
X62533Y-58716D01*
X62477Y-59278D01*
X62533Y-59222D01*
X62646Y-59166D01*
X62927Y-59166D01*
X63039Y-59222D01*
X63096Y-59278D01*
X63152Y-59391D01*
X63152Y-59672D01*
X63096Y-59784D01*
X63039Y-59840D01*
X62927Y-59897D01*
X62646Y-59897D01*
X62533Y-59840D01*
X62477Y-59784D01*
X64558Y-59897D02*
X64558Y-58716D01*
X65064Y-59897D02*
X65064Y-59278D01*
X65008Y-59166D01*
X64895Y-59109D01*
X64727Y-59109D01*
X64614Y-59166D01*
X64558Y-59222D01*
X65795Y-59897D02*
X65683Y-59840D01*
X65627Y-59784D01*
X65570Y-59672D01*
X65570Y-59334D01*
X65627Y-59222D01*
X65683Y-59166D01*
X65795Y-59109D01*
X65964Y-59109D01*
X66077Y-59166D01*
X66133Y-59222D01*
X66189Y-59334D01*
X66189Y-59672D01*
X66133Y-59784D01*
X66077Y-59840D01*
X65964Y-59897D01*
X65795Y-59897D01*
X66864Y-59897D02*
X66751Y-59840D01*
X66695Y-59728D01*
X66695Y-58716D01*
X67764Y-59840D02*
X67651Y-59897D01*
X67426Y-59897D01*
X67314Y-59840D01*
X67258Y-59728D01*
X67258Y-59278D01*
X67314Y-59166D01*
X67426Y-59109D01*
X67651Y-59109D01*
X67764Y-59166D01*
X67820Y-59278D01*
X67820Y-59391D01*
X67258Y-59503D01*
X68270Y-59840D02*
X68383Y-59897D01*
X68607Y-59897D01*
X68720Y-59840D01*
X68776Y-59728D01*
X68776Y-59672D01*
X68720Y-59559D01*
X68607Y-59503D01*
X68439Y-59503D01*
X68326Y-59447D01*
X68270Y-59334D01*
X68270Y-59278D01*
X68326Y-59166D01*
X68439Y-59109D01*
X68607Y-59109D01*
X68720Y-59166D01*
X69170Y-60347D02*
X69226Y-60290D01*
X69339Y-60122D01*
X69395Y-60009D01*
X69451Y-59840D01*
X69507Y-59559D01*
X69507Y-59334D01*
X69451Y-59053D01*
X69395Y-58884D01*
X69339Y-58772D01*
X69226Y-58603D01*
X69170Y-58547D01*
G54D12*
X42555Y-61006D02*
X42555Y-60950D01*
X42500Y-60950D01*
X42500Y-61006D01*
X42555Y-61006D01*
G54D13*
X43861Y-60275D02*
X43973Y-60275D01*
X44086Y-60331D01*
X44142Y-60387D01*
X44198Y-60500D01*
X44254Y-60725D01*
X44254Y-61006D01*
X44198Y-61231D01*
X44142Y-61343D01*
X44086Y-61400D01*
X43973Y-61456D01*
X43861Y-61456D01*
X43748Y-61400D01*
X43692Y-61343D01*
X43636Y-61231D01*
X43579Y-61006D01*
X43579Y-60725D01*
X43636Y-60500D01*
X43692Y-60387D01*
X43748Y-60331D01*
X43861Y-60275D01*
X44760Y-61343D02*
X44817Y-61400D01*
X44760Y-61456D01*
X44704Y-61400D01*
X44760Y-61343D01*
X44760Y-61456D01*
X45267Y-60387D02*
X45323Y-60331D01*
X45435Y-60275D01*
X45717Y-60275D01*
X45829Y-60331D01*
X45885Y-60387D01*
X45942Y-60500D01*
X45942Y-60612D01*
X45885Y-60781D01*
X45210Y-61456D01*
X45942Y-61456D01*
X46673Y-60275D02*
X46785Y-60275D01*
X46898Y-60331D01*
X46954Y-60387D01*
X47010Y-60500D01*
X47066Y-60725D01*
X47066Y-61006D01*
X47010Y-61231D01*
X46954Y-61343D01*
X46898Y-61400D01*
X46785Y-61456D01*
X46673Y-61456D01*
X46560Y-61400D01*
X46504Y-61343D01*
X46448Y-61231D01*
X46392Y-61006D01*
X46392Y-60725D01*
X46448Y-60500D01*
X46504Y-60387D01*
X46560Y-60331D01*
X46673Y-60275D01*
X47573Y-61456D02*
X47573Y-60668D01*
X47573Y-60781D02*
X47629Y-60725D01*
X47741Y-60668D01*
X47910Y-60668D01*
X48023Y-60725D01*
X48079Y-60837D01*
X48079Y-61456D01*
X48079Y-60837D02*
X48135Y-60725D01*
X48248Y-60668D01*
X48416Y-60668D01*
X48529Y-60725D01*
X48585Y-60837D01*
X48585Y-61456D01*
X49147Y-61456D02*
X49147Y-60668D01*
X49147Y-60781D02*
X49204Y-60725D01*
X49316Y-60668D01*
X49485Y-60668D01*
X49597Y-60725D01*
X49654Y-60837D01*
X49654Y-61456D01*
X49654Y-60837D02*
X49710Y-60725D01*
X49822Y-60668D01*
X49991Y-60668D01*
X50104Y-60725D01*
X50160Y-60837D01*
X50160Y-61456D01*
X52466Y-60218D02*
X51453Y-61737D01*
X53984Y-60275D02*
X54097Y-60275D01*
X54209Y-60331D01*
X54266Y-60387D01*
X54322Y-60500D01*
X54378Y-60725D01*
X54378Y-61006D01*
X54322Y-61231D01*
X54266Y-61343D01*
X54209Y-61400D01*
X54097Y-61456D01*
X53984Y-61456D01*
X53872Y-61400D01*
X53816Y-61343D01*
X53759Y-61231D01*
X53703Y-61006D01*
X53703Y-60725D01*
X53759Y-60500D01*
X53816Y-60387D01*
X53872Y-60331D01*
X53984Y-60275D01*
X54884Y-61343D02*
X54940Y-61400D01*
X54884Y-61456D01*
X54828Y-61400D01*
X54884Y-61343D01*
X54884Y-61456D01*
X55672Y-60275D02*
X55784Y-60275D01*
X55897Y-60331D01*
X55953Y-60387D01*
X56009Y-60500D01*
X56065Y-60725D01*
X56065Y-61006D01*
X56009Y-61231D01*
X55953Y-61343D01*
X55897Y-61400D01*
X55784Y-61456D01*
X55672Y-61456D01*
X55559Y-61400D01*
X55503Y-61343D01*
X55447Y-61231D01*
X55390Y-61006D01*
X55390Y-60725D01*
X55447Y-60500D01*
X55503Y-60387D01*
X55559Y-60331D01*
X55672Y-60275D01*
X56796Y-60275D02*
X56909Y-60275D01*
X57021Y-60331D01*
X57078Y-60387D01*
X57134Y-60500D01*
X57190Y-60725D01*
X57190Y-61006D01*
X57134Y-61231D01*
X57078Y-61343D01*
X57021Y-61400D01*
X56909Y-61456D01*
X56796Y-61456D01*
X56684Y-61400D01*
X56628Y-61343D01*
X56571Y-61231D01*
X56515Y-61006D01*
X56515Y-60725D01*
X56571Y-60500D01*
X56628Y-60387D01*
X56684Y-60331D01*
X56796Y-60275D01*
X57865Y-60781D02*
X57753Y-60725D01*
X57696Y-60668D01*
X57640Y-60556D01*
X57640Y-60500D01*
X57696Y-60387D01*
X57753Y-60331D01*
X57865Y-60275D01*
X58090Y-60275D01*
X58203Y-60331D01*
X58259Y-60387D01*
X58315Y-60500D01*
X58315Y-60556D01*
X58259Y-60668D01*
X58203Y-60725D01*
X58090Y-60781D01*
X57865Y-60781D01*
X57753Y-60837D01*
X57696Y-60893D01*
X57640Y-61006D01*
X57640Y-61231D01*
X57696Y-61343D01*
X57753Y-61400D01*
X57865Y-61456D01*
X58090Y-61456D01*
X58203Y-61400D01*
X58259Y-61343D01*
X58315Y-61231D01*
X58315Y-61006D01*
X58259Y-60893D01*
X58203Y-60837D01*
X58090Y-60781D01*
X58765Y-60275D02*
X58765Y-60500D01*
X59215Y-60275D02*
X59215Y-60500D01*
X60958Y-61906D02*
X60902Y-61849D01*
X60790Y-61681D01*
X60733Y-61568D01*
X60677Y-61400D01*
X60621Y-61118D01*
X60621Y-60893D01*
X60677Y-60612D01*
X60733Y-60443D01*
X60790Y-60331D01*
X60902Y-60162D01*
X60958Y-60106D01*
X61915Y-60668D02*
X61915Y-61456D01*
X61633Y-60218D02*
X61352Y-61062D01*
X62083Y-61062D01*
X62758Y-60275D02*
X62871Y-60275D01*
X62983Y-60331D01*
X63039Y-60387D01*
X63096Y-60500D01*
X63152Y-60725D01*
X63152Y-61006D01*
X63096Y-61231D01*
X63039Y-61343D01*
X62983Y-61400D01*
X62871Y-61456D01*
X62758Y-61456D01*
X62646Y-61400D01*
X62589Y-61343D01*
X62533Y-61231D01*
X62477Y-61006D01*
X62477Y-60725D01*
X62533Y-60500D01*
X62589Y-60387D01*
X62646Y-60331D01*
X62758Y-60275D01*
X64558Y-61456D02*
X64558Y-60275D01*
X65064Y-61456D02*
X65064Y-60837D01*
X65008Y-60725D01*
X64895Y-60668D01*
X64727Y-60668D01*
X64614Y-60725D01*
X64558Y-60781D01*
X65795Y-61456D02*
X65683Y-61400D01*
X65627Y-61343D01*
X65570Y-61231D01*
X65570Y-60893D01*
X65627Y-60781D01*
X65683Y-60725D01*
X65795Y-60668D01*
X65964Y-60668D01*
X66077Y-60725D01*
X66133Y-60781D01*
X66189Y-60893D01*
X66189Y-61231D01*
X66133Y-61343D01*
X66077Y-61400D01*
X65964Y-61456D01*
X65795Y-61456D01*
X66864Y-61456D02*
X66751Y-61400D01*
X66695Y-61287D01*
X66695Y-60275D01*
X67764Y-61400D02*
X67651Y-61456D01*
X67426Y-61456D01*
X67314Y-61400D01*
X67258Y-61287D01*
X67258Y-60837D01*
X67314Y-60725D01*
X67426Y-60668D01*
X67651Y-60668D01*
X67764Y-60725D01*
X67820Y-60837D01*
X67820Y-60950D01*
X67258Y-61062D01*
X68270Y-61400D02*
X68383Y-61456D01*
X68607Y-61456D01*
X68720Y-61400D01*
X68776Y-61287D01*
X68776Y-61231D01*
X68720Y-61118D01*
X68607Y-61062D01*
X68439Y-61062D01*
X68326Y-61006D01*
X68270Y-60893D01*
X68270Y-60837D01*
X68326Y-60725D01*
X68439Y-60668D01*
X68607Y-60668D01*
X68720Y-60725D01*
X69170Y-61906D02*
X69226Y-61849D01*
X69339Y-61681D01*
X69395Y-61568D01*
X69451Y-61400D01*
X69507Y-61118D01*
X69507Y-60893D01*
X69451Y-60612D01*
X69395Y-60443D01*
X69339Y-60331D01*
X69226Y-60162D01*
X69170Y-60106D01*
G54D12*
X42508Y-62595D02*
X42567Y-62537D01*
X42508Y-62478D01*
X42450Y-62537D01*
X42508Y-62595D01*
G54D13*
X43861Y-61834D02*
X43973Y-61834D01*
X44086Y-61890D01*
X44142Y-61946D01*
X44198Y-62059D01*
X44254Y-62284D01*
X44254Y-62565D01*
X44198Y-62790D01*
X44142Y-62902D01*
X44086Y-62959D01*
X43973Y-63015D01*
X43861Y-63015D01*
X43748Y-62959D01*
X43692Y-62902D01*
X43636Y-62790D01*
X43579Y-62565D01*
X43579Y-62284D01*
X43636Y-62059D01*
X43692Y-61946D01*
X43748Y-61890D01*
X43861Y-61834D01*
X44760Y-62902D02*
X44817Y-62959D01*
X44760Y-63015D01*
X44704Y-62959D01*
X44760Y-62902D01*
X44760Y-63015D01*
X45210Y-61834D02*
X45942Y-61834D01*
X45548Y-62284D01*
X45717Y-62284D01*
X45829Y-62340D01*
X45885Y-62396D01*
X45942Y-62509D01*
X45942Y-62790D01*
X45885Y-62902D01*
X45829Y-62959D01*
X45717Y-63015D01*
X45379Y-63015D01*
X45267Y-62959D01*
X45210Y-62902D01*
X46673Y-61834D02*
X46785Y-61834D01*
X46898Y-61890D01*
X46954Y-61946D01*
X47010Y-62059D01*
X47066Y-62284D01*
X47066Y-62565D01*
X47010Y-62790D01*
X46954Y-62902D01*
X46898Y-62959D01*
X46785Y-63015D01*
X46673Y-63015D01*
X46560Y-62959D01*
X46504Y-62902D01*
X46448Y-62790D01*
X46392Y-62565D01*
X46392Y-62284D01*
X46448Y-62059D01*
X46504Y-61946D01*
X46560Y-61890D01*
X46673Y-61834D01*
X47573Y-63015D02*
X47573Y-62227D01*
X47573Y-62340D02*
X47629Y-62284D01*
X47741Y-62227D01*
X47910Y-62227D01*
X48023Y-62284D01*
X48079Y-62396D01*
X48079Y-63015D01*
X48079Y-62396D02*
X48135Y-62284D01*
X48248Y-62227D01*
X48416Y-62227D01*
X48529Y-62284D01*
X48585Y-62396D01*
X48585Y-63015D01*
X49147Y-63015D02*
X49147Y-62227D01*
X49147Y-62340D02*
X49204Y-62284D01*
X49316Y-62227D01*
X49485Y-62227D01*
X49597Y-62284D01*
X49654Y-62396D01*
X49654Y-63015D01*
X49654Y-62396D02*
X49710Y-62284D01*
X49822Y-62227D01*
X49991Y-62227D01*
X50104Y-62284D01*
X50160Y-62396D01*
X50160Y-63015D01*
X52466Y-61777D02*
X51453Y-63296D01*
X53984Y-61834D02*
X54097Y-61834D01*
X54209Y-61890D01*
X54266Y-61946D01*
X54322Y-62059D01*
X54378Y-62284D01*
X54378Y-62565D01*
X54322Y-62790D01*
X54266Y-62902D01*
X54209Y-62959D01*
X54097Y-63015D01*
X53984Y-63015D01*
X53872Y-62959D01*
X53816Y-62902D01*
X53759Y-62790D01*
X53703Y-62565D01*
X53703Y-62284D01*
X53759Y-62059D01*
X53816Y-61946D01*
X53872Y-61890D01*
X53984Y-61834D01*
X54884Y-62902D02*
X54940Y-62959D01*
X54884Y-63015D01*
X54828Y-62959D01*
X54884Y-62902D01*
X54884Y-63015D01*
X55672Y-61834D02*
X55784Y-61834D01*
X55897Y-61890D01*
X55953Y-61946D01*
X56009Y-62059D01*
X56065Y-62284D01*
X56065Y-62565D01*
X56009Y-62790D01*
X55953Y-62902D01*
X55897Y-62959D01*
X55784Y-63015D01*
X55672Y-63015D01*
X55559Y-62959D01*
X55503Y-62902D01*
X55447Y-62790D01*
X55390Y-62565D01*
X55390Y-62284D01*
X55447Y-62059D01*
X55503Y-61946D01*
X55559Y-61890D01*
X55672Y-61834D01*
X57190Y-63015D02*
X56515Y-63015D01*
X56853Y-63015D02*
X56853Y-61834D01*
X56740Y-62002D01*
X56628Y-62115D01*
X56515Y-62171D01*
X57640Y-61946D02*
X57696Y-61890D01*
X57809Y-61834D01*
X58090Y-61834D01*
X58203Y-61890D01*
X58259Y-61946D01*
X58315Y-62059D01*
X58315Y-62171D01*
X58259Y-62340D01*
X57584Y-63015D01*
X58315Y-63015D01*
X58765Y-61834D02*
X58765Y-62059D01*
X59215Y-61834D02*
X59215Y-62059D01*
X60958Y-63465D02*
X60902Y-63409D01*
X60790Y-63240D01*
X60733Y-63127D01*
X60677Y-62959D01*
X60621Y-62677D01*
X60621Y-62452D01*
X60677Y-62171D01*
X60733Y-62002D01*
X60790Y-61890D01*
X60902Y-61721D01*
X60958Y-61665D01*
X61465Y-63015D02*
X61690Y-63015D01*
X61802Y-62959D01*
X61858Y-62902D01*
X61971Y-62734D01*
X62027Y-62509D01*
X62027Y-62059D01*
X61971Y-61946D01*
X61915Y-61890D01*
X61802Y-61834D01*
X61577Y-61834D01*
X61465Y-61890D01*
X61408Y-61946D01*
X61352Y-62059D01*
X61352Y-62340D01*
X61408Y-62452D01*
X61465Y-62509D01*
X61577Y-62565D01*
X61802Y-62565D01*
X61915Y-62509D01*
X61971Y-62452D01*
X62027Y-62340D01*
X63152Y-63015D02*
X62477Y-63015D01*
X62814Y-63015D02*
X62814Y-61834D01*
X62702Y-62002D01*
X62589Y-62115D01*
X62477Y-62171D01*
X64558Y-63015D02*
X64558Y-61834D01*
X65064Y-63015D02*
X65064Y-62396D01*
X65008Y-62284D01*
X64895Y-62227D01*
X64727Y-62227D01*
X64614Y-62284D01*
X64558Y-62340D01*
X65795Y-63015D02*
X65683Y-62959D01*
X65627Y-62902D01*
X65570Y-62790D01*
X65570Y-62452D01*
X65627Y-62340D01*
X65683Y-62284D01*
X65795Y-62227D01*
X65964Y-62227D01*
X66077Y-62284D01*
X66133Y-62340D01*
X66189Y-62452D01*
X66189Y-62790D01*
X66133Y-62902D01*
X66077Y-62959D01*
X65964Y-63015D01*
X65795Y-63015D01*
X66864Y-63015D02*
X66751Y-62959D01*
X66695Y-62846D01*
X66695Y-61834D01*
X67764Y-62959D02*
X67651Y-63015D01*
X67426Y-63015D01*
X67314Y-62959D01*
X67258Y-62846D01*
X67258Y-62396D01*
X67314Y-62284D01*
X67426Y-62227D01*
X67651Y-62227D01*
X67764Y-62284D01*
X67820Y-62396D01*
X67820Y-62509D01*
X67258Y-62621D01*
X68270Y-62959D02*
X68383Y-63015D01*
X68607Y-63015D01*
X68720Y-62959D01*
X68776Y-62846D01*
X68776Y-62790D01*
X68720Y-62677D01*
X68607Y-62621D01*
X68439Y-62621D01*
X68326Y-62565D01*
X68270Y-62452D01*
X68270Y-62396D01*
X68326Y-62284D01*
X68439Y-62227D01*
X68607Y-62227D01*
X68720Y-62284D01*
X69170Y-63465D02*
X69226Y-63409D01*
X69339Y-63240D01*
X69395Y-63127D01*
X69451Y-62959D01*
X69507Y-62677D01*
X69507Y-62452D01*
X69451Y-62171D01*
X69395Y-62002D01*
X69339Y-61890D01*
X69226Y-61721D01*
X69170Y-61665D01*
X42449Y-64037D02*
X42567Y-64155D01*
X42567Y-64037D02*
X42449Y-64155D01*
G54D12*
X42567Y-64096D02*
G75*
G03X42567Y-64096I-59J0D01*
G74*
G01*
G54D13*
X43861Y-63393D02*
X43973Y-63393D01*
X44086Y-63449D01*
X44142Y-63505D01*
X44198Y-63618D01*
X44254Y-63843D01*
X44254Y-64124D01*
X44198Y-64349D01*
X44142Y-64461D01*
X44086Y-64518D01*
X43973Y-64574D01*
X43861Y-64574D01*
X43748Y-64518D01*
X43692Y-64461D01*
X43636Y-64349D01*
X43579Y-64124D01*
X43579Y-63843D01*
X43636Y-63618D01*
X43692Y-63505D01*
X43748Y-63449D01*
X43861Y-63393D01*
X44760Y-64461D02*
X44817Y-64518D01*
X44760Y-64574D01*
X44704Y-64518D01*
X44760Y-64461D01*
X44760Y-64574D01*
X45210Y-63393D02*
X45942Y-63393D01*
X45548Y-63843D01*
X45717Y-63843D01*
X45829Y-63899D01*
X45885Y-63955D01*
X45942Y-64068D01*
X45942Y-64349D01*
X45885Y-64461D01*
X45829Y-64518D01*
X45717Y-64574D01*
X45379Y-64574D01*
X45267Y-64518D01*
X45210Y-64461D01*
X46673Y-63393D02*
X46785Y-63393D01*
X46898Y-63449D01*
X46954Y-63505D01*
X47010Y-63618D01*
X47066Y-63843D01*
X47066Y-64124D01*
X47010Y-64349D01*
X46954Y-64461D01*
X46898Y-64518D01*
X46785Y-64574D01*
X46673Y-64574D01*
X46560Y-64518D01*
X46504Y-64461D01*
X46448Y-64349D01*
X46392Y-64124D01*
X46392Y-63843D01*
X46448Y-63618D01*
X46504Y-63505D01*
X46560Y-63449D01*
X46673Y-63393D01*
X47573Y-64574D02*
X47573Y-63786D01*
X47573Y-63899D02*
X47629Y-63843D01*
X47741Y-63786D01*
X47910Y-63786D01*
X48023Y-63843D01*
X48079Y-63955D01*
X48079Y-64574D01*
X48079Y-63955D02*
X48135Y-63843D01*
X48248Y-63786D01*
X48416Y-63786D01*
X48529Y-63843D01*
X48585Y-63955D01*
X48585Y-64574D01*
X49147Y-64574D02*
X49147Y-63786D01*
X49147Y-63899D02*
X49204Y-63843D01*
X49316Y-63786D01*
X49485Y-63786D01*
X49597Y-63843D01*
X49654Y-63955D01*
X49654Y-64574D01*
X49654Y-63955D02*
X49710Y-63843D01*
X49822Y-63786D01*
X49991Y-63786D01*
X50104Y-63843D01*
X50160Y-63955D01*
X50160Y-64574D01*
X52466Y-63337D02*
X51453Y-64855D01*
X53984Y-63393D02*
X54097Y-63393D01*
X54209Y-63449D01*
X54266Y-63505D01*
X54322Y-63618D01*
X54378Y-63843D01*
X54378Y-64124D01*
X54322Y-64349D01*
X54266Y-64461D01*
X54209Y-64518D01*
X54097Y-64574D01*
X53984Y-64574D01*
X53872Y-64518D01*
X53816Y-64461D01*
X53759Y-64349D01*
X53703Y-64124D01*
X53703Y-63843D01*
X53759Y-63618D01*
X53816Y-63505D01*
X53872Y-63449D01*
X53984Y-63393D01*
X54884Y-64461D02*
X54940Y-64518D01*
X54884Y-64574D01*
X54828Y-64518D01*
X54884Y-64461D01*
X54884Y-64574D01*
X55672Y-63393D02*
X55784Y-63393D01*
X55897Y-63449D01*
X55953Y-63505D01*
X56009Y-63618D01*
X56065Y-63843D01*
X56065Y-64124D01*
X56009Y-64349D01*
X55953Y-64461D01*
X55897Y-64518D01*
X55784Y-64574D01*
X55672Y-64574D01*
X55559Y-64518D01*
X55503Y-64461D01*
X55447Y-64349D01*
X55390Y-64124D01*
X55390Y-63843D01*
X55447Y-63618D01*
X55503Y-63505D01*
X55559Y-63449D01*
X55672Y-63393D01*
X57190Y-64574D02*
X56515Y-64574D01*
X56853Y-64574D02*
X56853Y-63393D01*
X56740Y-63561D01*
X56628Y-63674D01*
X56515Y-63730D01*
X57640Y-63505D02*
X57696Y-63449D01*
X57809Y-63393D01*
X58090Y-63393D01*
X58203Y-63449D01*
X58259Y-63505D01*
X58315Y-63618D01*
X58315Y-63730D01*
X58259Y-63899D01*
X57584Y-64574D01*
X58315Y-64574D01*
X58765Y-63393D02*
X58765Y-63618D01*
X59215Y-63393D02*
X59215Y-63618D01*
X60958Y-65024D02*
X60902Y-64968D01*
X60790Y-64799D01*
X60733Y-64686D01*
X60677Y-64518D01*
X60621Y-64236D01*
X60621Y-64011D01*
X60677Y-63730D01*
X60733Y-63561D01*
X60790Y-63449D01*
X60902Y-63280D01*
X60958Y-63224D01*
X61352Y-63505D02*
X61408Y-63449D01*
X61521Y-63393D01*
X61802Y-63393D01*
X61915Y-63449D01*
X61971Y-63505D01*
X62027Y-63618D01*
X62027Y-63730D01*
X61971Y-63899D01*
X61296Y-64574D01*
X62027Y-64574D01*
X63433Y-64574D02*
X63433Y-63393D01*
X63939Y-64574D02*
X63939Y-63955D01*
X63883Y-63843D01*
X63771Y-63786D01*
X63602Y-63786D01*
X63489Y-63843D01*
X63433Y-63899D01*
X64670Y-64574D02*
X64558Y-64518D01*
X64502Y-64461D01*
X64446Y-64349D01*
X64446Y-64011D01*
X64502Y-63899D01*
X64558Y-63843D01*
X64670Y-63786D01*
X64839Y-63786D01*
X64952Y-63843D01*
X65008Y-63899D01*
X65064Y-64011D01*
X65064Y-64349D01*
X65008Y-64461D01*
X64952Y-64518D01*
X64839Y-64574D01*
X64670Y-64574D01*
X65739Y-64574D02*
X65627Y-64518D01*
X65570Y-64405D01*
X65570Y-63393D01*
X66639Y-64518D02*
X66527Y-64574D01*
X66302Y-64574D01*
X66189Y-64518D01*
X66133Y-64405D01*
X66133Y-63955D01*
X66189Y-63843D01*
X66302Y-63786D01*
X66527Y-63786D01*
X66639Y-63843D01*
X66695Y-63955D01*
X66695Y-64068D01*
X66133Y-64180D01*
X67145Y-64518D02*
X67258Y-64574D01*
X67483Y-64574D01*
X67595Y-64518D01*
X67651Y-64405D01*
X67651Y-64349D01*
X67595Y-64236D01*
X67483Y-64180D01*
X67314Y-64180D01*
X67201Y-64124D01*
X67145Y-64011D01*
X67145Y-63955D01*
X67201Y-63843D01*
X67314Y-63786D01*
X67483Y-63786D01*
X67595Y-63843D01*
X68045Y-65024D02*
X68101Y-64968D01*
X68214Y-64799D01*
X68270Y-64686D01*
X68326Y-64518D01*
X68383Y-64236D01*
X68383Y-64011D01*
X68326Y-63730D01*
X68270Y-63561D01*
X68214Y-63449D01*
X68101Y-63280D01*
X68045Y-63224D01*
X42213Y-65478D02*
X42567Y-65832D01*
X42567Y-65478D02*
X42213Y-65832D01*
X42390Y-65478D02*
X42390Y-65832D01*
X42213Y-65655D02*
X42567Y-65655D01*
X43861Y-64952D02*
X43973Y-64952D01*
X44086Y-65008D01*
X44142Y-65064D01*
X44198Y-65177D01*
X44254Y-65402D01*
X44254Y-65683D01*
X44198Y-65908D01*
X44142Y-66020D01*
X44086Y-66077D01*
X43973Y-66133D01*
X43861Y-66133D01*
X43748Y-66077D01*
X43692Y-66020D01*
X43636Y-65908D01*
X43579Y-65683D01*
X43579Y-65402D01*
X43636Y-65177D01*
X43692Y-65064D01*
X43748Y-65008D01*
X43861Y-64952D01*
X44760Y-66020D02*
X44817Y-66077D01*
X44760Y-66133D01*
X44704Y-66077D01*
X44760Y-66020D01*
X44760Y-66133D01*
X45379Y-66133D02*
X45604Y-66133D01*
X45717Y-66077D01*
X45773Y-66020D01*
X45885Y-65852D01*
X45942Y-65627D01*
X45942Y-65177D01*
X45885Y-65064D01*
X45829Y-65008D01*
X45717Y-64952D01*
X45492Y-64952D01*
X45379Y-65008D01*
X45323Y-65064D01*
X45267Y-65177D01*
X45267Y-65458D01*
X45323Y-65570D01*
X45379Y-65627D01*
X45492Y-65683D01*
X45717Y-65683D01*
X45829Y-65627D01*
X45885Y-65570D01*
X45942Y-65458D01*
X46673Y-64952D02*
X46785Y-64952D01*
X46898Y-65008D01*
X46954Y-65064D01*
X47010Y-65177D01*
X47066Y-65402D01*
X47066Y-65683D01*
X47010Y-65908D01*
X46954Y-66020D01*
X46898Y-66077D01*
X46785Y-66133D01*
X46673Y-66133D01*
X46560Y-66077D01*
X46504Y-66020D01*
X46448Y-65908D01*
X46392Y-65683D01*
X46392Y-65402D01*
X46448Y-65177D01*
X46504Y-65064D01*
X46560Y-65008D01*
X46673Y-64952D01*
X47573Y-66133D02*
X47573Y-65346D01*
X47573Y-65458D02*
X47629Y-65402D01*
X47741Y-65346D01*
X47910Y-65346D01*
X48023Y-65402D01*
X48079Y-65514D01*
X48079Y-66133D01*
X48079Y-65514D02*
X48135Y-65402D01*
X48248Y-65346D01*
X48416Y-65346D01*
X48529Y-65402D01*
X48585Y-65514D01*
X48585Y-66133D01*
X49147Y-66133D02*
X49147Y-65346D01*
X49147Y-65458D02*
X49204Y-65402D01*
X49316Y-65346D01*
X49485Y-65346D01*
X49597Y-65402D01*
X49654Y-65514D01*
X49654Y-66133D01*
X49654Y-65514D02*
X49710Y-65402D01*
X49822Y-65346D01*
X49991Y-65346D01*
X50104Y-65402D01*
X50160Y-65514D01*
X50160Y-66133D01*
X52466Y-64896D02*
X51453Y-66414D01*
X53984Y-64952D02*
X54097Y-64952D01*
X54209Y-65008D01*
X54266Y-65064D01*
X54322Y-65177D01*
X54378Y-65402D01*
X54378Y-65683D01*
X54322Y-65908D01*
X54266Y-66020D01*
X54209Y-66077D01*
X54097Y-66133D01*
X53984Y-66133D01*
X53872Y-66077D01*
X53816Y-66020D01*
X53759Y-65908D01*
X53703Y-65683D01*
X53703Y-65402D01*
X53759Y-65177D01*
X53816Y-65064D01*
X53872Y-65008D01*
X53984Y-64952D01*
X54884Y-66020D02*
X54940Y-66077D01*
X54884Y-66133D01*
X54828Y-66077D01*
X54884Y-66020D01*
X54884Y-66133D01*
X55672Y-64952D02*
X55784Y-64952D01*
X55897Y-65008D01*
X55953Y-65064D01*
X56009Y-65177D01*
X56065Y-65402D01*
X56065Y-65683D01*
X56009Y-65908D01*
X55953Y-66020D01*
X55897Y-66077D01*
X55784Y-66133D01*
X55672Y-66133D01*
X55559Y-66077D01*
X55503Y-66020D01*
X55447Y-65908D01*
X55390Y-65683D01*
X55390Y-65402D01*
X55447Y-65177D01*
X55503Y-65064D01*
X55559Y-65008D01*
X55672Y-64952D01*
X56459Y-64952D02*
X57190Y-64952D01*
X56796Y-65402D01*
X56965Y-65402D01*
X57078Y-65458D01*
X57134Y-65514D01*
X57190Y-65627D01*
X57190Y-65908D01*
X57134Y-66020D01*
X57078Y-66077D01*
X56965Y-66133D01*
X56628Y-66133D01*
X56515Y-66077D01*
X56459Y-66020D01*
X58259Y-64952D02*
X57696Y-64952D01*
X57640Y-65514D01*
X57696Y-65458D01*
X57809Y-65402D01*
X58090Y-65402D01*
X58203Y-65458D01*
X58259Y-65514D01*
X58315Y-65627D01*
X58315Y-65908D01*
X58259Y-66020D01*
X58203Y-66077D01*
X58090Y-66133D01*
X57809Y-66133D01*
X57696Y-66077D01*
X57640Y-66020D01*
X58765Y-64952D02*
X58765Y-65177D01*
X59215Y-64952D02*
X59215Y-65177D01*
X60958Y-66583D02*
X60902Y-66527D01*
X60790Y-66358D01*
X60733Y-66245D01*
X60677Y-66077D01*
X60621Y-65795D01*
X60621Y-65570D01*
X60677Y-65289D01*
X60733Y-65121D01*
X60790Y-65008D01*
X60902Y-64839D01*
X60958Y-64783D01*
X61296Y-64952D02*
X62027Y-64952D01*
X61633Y-65402D01*
X61802Y-65402D01*
X61915Y-65458D01*
X61971Y-65514D01*
X62027Y-65627D01*
X62027Y-65908D01*
X61971Y-66020D01*
X61915Y-66077D01*
X61802Y-66133D01*
X61465Y-66133D01*
X61352Y-66077D01*
X61296Y-66020D01*
X63039Y-64952D02*
X62814Y-64952D01*
X62702Y-65008D01*
X62646Y-65064D01*
X62533Y-65233D01*
X62477Y-65458D01*
X62477Y-65908D01*
X62533Y-66020D01*
X62589Y-66077D01*
X62702Y-66133D01*
X62927Y-66133D01*
X63039Y-66077D01*
X63096Y-66020D01*
X63152Y-65908D01*
X63152Y-65627D01*
X63096Y-65514D01*
X63039Y-65458D01*
X62927Y-65402D01*
X62702Y-65402D01*
X62589Y-65458D01*
X62533Y-65514D01*
X62477Y-65627D01*
X64558Y-66133D02*
X64558Y-64952D01*
X65064Y-66133D02*
X65064Y-65514D01*
X65008Y-65402D01*
X64895Y-65346D01*
X64727Y-65346D01*
X64614Y-65402D01*
X64558Y-65458D01*
X65795Y-66133D02*
X65683Y-66077D01*
X65627Y-66020D01*
X65570Y-65908D01*
X65570Y-65570D01*
X65627Y-65458D01*
X65683Y-65402D01*
X65795Y-65346D01*
X65964Y-65346D01*
X66077Y-65402D01*
X66133Y-65458D01*
X66189Y-65570D01*
X66189Y-65908D01*
X66133Y-66020D01*
X66077Y-66077D01*
X65964Y-66133D01*
X65795Y-66133D01*
X66864Y-66133D02*
X66751Y-66077D01*
X66695Y-65964D01*
X66695Y-64952D01*
X67764Y-66077D02*
X67651Y-66133D01*
X67426Y-66133D01*
X67314Y-66077D01*
X67258Y-65964D01*
X67258Y-65514D01*
X67314Y-65402D01*
X67426Y-65346D01*
X67651Y-65346D01*
X67764Y-65402D01*
X67820Y-65514D01*
X67820Y-65627D01*
X67258Y-65739D01*
X68270Y-66077D02*
X68383Y-66133D01*
X68607Y-66133D01*
X68720Y-66077D01*
X68776Y-65964D01*
X68776Y-65908D01*
X68720Y-65795D01*
X68607Y-65739D01*
X68439Y-65739D01*
X68326Y-65683D01*
X68270Y-65570D01*
X68270Y-65514D01*
X68326Y-65402D01*
X68439Y-65346D01*
X68607Y-65346D01*
X68720Y-65402D01*
X69170Y-66583D02*
X69226Y-66527D01*
X69339Y-66358D01*
X69395Y-66245D01*
X69451Y-66077D01*
X69507Y-65795D01*
X69507Y-65570D01*
X69451Y-65289D01*
X69395Y-65121D01*
X69339Y-65008D01*
X69226Y-64839D01*
X69170Y-64783D01*
X42135Y-66998D02*
X42567Y-67430D01*
X42567Y-66998D02*
X42135Y-67430D01*
G54D12*
X42504Y-67367D02*
X42504Y-67061D01*
X42198Y-67061D01*
X42198Y-67367D01*
X42504Y-67367D01*
G54D13*
X44254Y-67692D02*
X43579Y-67692D01*
X43917Y-67692D02*
X43917Y-66511D01*
X43804Y-66680D01*
X43692Y-66792D01*
X43579Y-66848D01*
X44760Y-67579D02*
X44817Y-67636D01*
X44760Y-67692D01*
X44704Y-67636D01*
X44760Y-67579D01*
X44760Y-67692D01*
X45942Y-67692D02*
X45267Y-67692D01*
X45604Y-67692D02*
X45604Y-66511D01*
X45492Y-66680D01*
X45379Y-66792D01*
X45267Y-66848D01*
X46673Y-66511D02*
X46785Y-66511D01*
X46898Y-66567D01*
X46954Y-66623D01*
X47010Y-66736D01*
X47066Y-66961D01*
X47066Y-67242D01*
X47010Y-67467D01*
X46954Y-67579D01*
X46898Y-67636D01*
X46785Y-67692D01*
X46673Y-67692D01*
X46560Y-67636D01*
X46504Y-67579D01*
X46448Y-67467D01*
X46392Y-67242D01*
X46392Y-66961D01*
X46448Y-66736D01*
X46504Y-66623D01*
X46560Y-66567D01*
X46673Y-66511D01*
X47573Y-67692D02*
X47573Y-66905D01*
X47573Y-67017D02*
X47629Y-66961D01*
X47741Y-66905D01*
X47910Y-66905D01*
X48023Y-66961D01*
X48079Y-67073D01*
X48079Y-67692D01*
X48079Y-67073D02*
X48135Y-66961D01*
X48248Y-66905D01*
X48416Y-66905D01*
X48529Y-66961D01*
X48585Y-67073D01*
X48585Y-67692D01*
X49147Y-67692D02*
X49147Y-66905D01*
X49147Y-67017D02*
X49204Y-66961D01*
X49316Y-66905D01*
X49485Y-66905D01*
X49597Y-66961D01*
X49654Y-67073D01*
X49654Y-67692D01*
X49654Y-67073D02*
X49710Y-66961D01*
X49822Y-66905D01*
X49991Y-66905D01*
X50104Y-66961D01*
X50160Y-67073D01*
X50160Y-67692D01*
X52466Y-66455D02*
X51453Y-67973D01*
X53984Y-66511D02*
X54097Y-66511D01*
X54209Y-66567D01*
X54266Y-66623D01*
X54322Y-66736D01*
X54378Y-66961D01*
X54378Y-67242D01*
X54322Y-67467D01*
X54266Y-67579D01*
X54209Y-67636D01*
X54097Y-67692D01*
X53984Y-67692D01*
X53872Y-67636D01*
X53816Y-67579D01*
X53759Y-67467D01*
X53703Y-67242D01*
X53703Y-66961D01*
X53759Y-66736D01*
X53816Y-66623D01*
X53872Y-66567D01*
X53984Y-66511D01*
X54884Y-67579D02*
X54940Y-67636D01*
X54884Y-67692D01*
X54828Y-67636D01*
X54884Y-67579D01*
X54884Y-67692D01*
X55672Y-66511D02*
X55784Y-66511D01*
X55897Y-66567D01*
X55953Y-66623D01*
X56009Y-66736D01*
X56065Y-66961D01*
X56065Y-67242D01*
X56009Y-67467D01*
X55953Y-67579D01*
X55897Y-67636D01*
X55784Y-67692D01*
X55672Y-67692D01*
X55559Y-67636D01*
X55503Y-67579D01*
X55447Y-67467D01*
X55390Y-67242D01*
X55390Y-66961D01*
X55447Y-66736D01*
X55503Y-66623D01*
X55559Y-66567D01*
X55672Y-66511D01*
X57078Y-66905D02*
X57078Y-67692D01*
X56796Y-66455D02*
X56515Y-67298D01*
X57246Y-67298D01*
X57584Y-66511D02*
X58315Y-66511D01*
X57921Y-66961D01*
X58090Y-66961D01*
X58203Y-67017D01*
X58259Y-67073D01*
X58315Y-67186D01*
X58315Y-67467D01*
X58259Y-67579D01*
X58203Y-67636D01*
X58090Y-67692D01*
X57753Y-67692D01*
X57640Y-67636D01*
X57584Y-67579D01*
X58765Y-66511D02*
X58765Y-66736D01*
X59215Y-66511D02*
X59215Y-66736D01*
X60958Y-68142D02*
X60902Y-68086D01*
X60790Y-67917D01*
X60733Y-67804D01*
X60677Y-67636D01*
X60621Y-67355D01*
X60621Y-67130D01*
X60677Y-66848D01*
X60733Y-66680D01*
X60790Y-66567D01*
X60902Y-66398D01*
X60958Y-66342D01*
X61352Y-66623D02*
X61408Y-66567D01*
X61521Y-66511D01*
X61802Y-66511D01*
X61915Y-66567D01*
X61971Y-66623D01*
X62027Y-66736D01*
X62027Y-66848D01*
X61971Y-67017D01*
X61296Y-67692D01*
X62027Y-67692D01*
X63433Y-67692D02*
X63433Y-66511D01*
X63939Y-67692D02*
X63939Y-67073D01*
X63883Y-66961D01*
X63771Y-66905D01*
X63602Y-66905D01*
X63489Y-66961D01*
X63433Y-67017D01*
X64670Y-67692D02*
X64558Y-67636D01*
X64502Y-67579D01*
X64446Y-67467D01*
X64446Y-67130D01*
X64502Y-67017D01*
X64558Y-66961D01*
X64670Y-66905D01*
X64839Y-66905D01*
X64952Y-66961D01*
X65008Y-67017D01*
X65064Y-67130D01*
X65064Y-67467D01*
X65008Y-67579D01*
X64952Y-67636D01*
X64839Y-67692D01*
X64670Y-67692D01*
X65739Y-67692D02*
X65627Y-67636D01*
X65570Y-67523D01*
X65570Y-66511D01*
X66639Y-67636D02*
X66527Y-67692D01*
X66302Y-67692D01*
X66189Y-67636D01*
X66133Y-67523D01*
X66133Y-67073D01*
X66189Y-66961D01*
X66302Y-66905D01*
X66527Y-66905D01*
X66639Y-66961D01*
X66695Y-67073D01*
X66695Y-67186D01*
X66133Y-67298D01*
X67145Y-67636D02*
X67258Y-67692D01*
X67483Y-67692D01*
X67595Y-67636D01*
X67651Y-67523D01*
X67651Y-67467D01*
X67595Y-67355D01*
X67483Y-67298D01*
X67314Y-67298D01*
X67201Y-67242D01*
X67145Y-67130D01*
X67145Y-67073D01*
X67201Y-66961D01*
X67314Y-66905D01*
X67483Y-66905D01*
X67595Y-66961D01*
X68045Y-68142D02*
X68101Y-68086D01*
X68214Y-67917D01*
X68270Y-67804D01*
X68326Y-67636D01*
X68383Y-67355D01*
X68383Y-67130D01*
X68326Y-66848D01*
X68270Y-66680D01*
X68214Y-66567D01*
X68101Y-66398D01*
X68045Y-66342D01*
X41308Y-68143D02*
X42567Y-69402D01*
X42567Y-68143D02*
X41308Y-69402D01*
G54D12*
X41937Y-69402D02*
X42567Y-68773D01*
X41937Y-68143D01*
X41308Y-68773D01*
X41937Y-69402D01*
G54D13*
X43523Y-68070D02*
X44254Y-68070D01*
X43861Y-68520D01*
X44029Y-68520D01*
X44142Y-68576D01*
X44198Y-68632D01*
X44254Y-68745D01*
X44254Y-69026D01*
X44198Y-69139D01*
X44142Y-69195D01*
X44029Y-69251D01*
X43692Y-69251D01*
X43579Y-69195D01*
X43523Y-69139D01*
X44760Y-69139D02*
X44817Y-69195D01*
X44760Y-69251D01*
X44704Y-69195D01*
X44760Y-69139D01*
X44760Y-69251D01*
X45267Y-68182D02*
X45323Y-68126D01*
X45435Y-68070D01*
X45717Y-68070D01*
X45829Y-68126D01*
X45885Y-68182D01*
X45942Y-68295D01*
X45942Y-68407D01*
X45885Y-68576D01*
X45210Y-69251D01*
X45942Y-69251D01*
X46673Y-68070D02*
X46785Y-68070D01*
X46898Y-68126D01*
X46954Y-68182D01*
X47010Y-68295D01*
X47066Y-68520D01*
X47066Y-68801D01*
X47010Y-69026D01*
X46954Y-69139D01*
X46898Y-69195D01*
X46785Y-69251D01*
X46673Y-69251D01*
X46560Y-69195D01*
X46504Y-69139D01*
X46448Y-69026D01*
X46392Y-68801D01*
X46392Y-68520D01*
X46448Y-68295D01*
X46504Y-68182D01*
X46560Y-68126D01*
X46673Y-68070D01*
X47573Y-69251D02*
X47573Y-68464D01*
X47573Y-68576D02*
X47629Y-68520D01*
X47741Y-68464D01*
X47910Y-68464D01*
X48023Y-68520D01*
X48079Y-68632D01*
X48079Y-69251D01*
X48079Y-68632D02*
X48135Y-68520D01*
X48248Y-68464D01*
X48416Y-68464D01*
X48529Y-68520D01*
X48585Y-68632D01*
X48585Y-69251D01*
X49147Y-69251D02*
X49147Y-68464D01*
X49147Y-68576D02*
X49204Y-68520D01*
X49316Y-68464D01*
X49485Y-68464D01*
X49597Y-68520D01*
X49654Y-68632D01*
X49654Y-69251D01*
X49654Y-68632D02*
X49710Y-68520D01*
X49822Y-68464D01*
X49991Y-68464D01*
X50104Y-68520D01*
X50160Y-68632D01*
X50160Y-69251D01*
X52466Y-68014D02*
X51453Y-69532D01*
X53984Y-68070D02*
X54097Y-68070D01*
X54209Y-68126D01*
X54266Y-68182D01*
X54322Y-68295D01*
X54378Y-68520D01*
X54378Y-68801D01*
X54322Y-69026D01*
X54266Y-69139D01*
X54209Y-69195D01*
X54097Y-69251D01*
X53984Y-69251D01*
X53872Y-69195D01*
X53816Y-69139D01*
X53759Y-69026D01*
X53703Y-68801D01*
X53703Y-68520D01*
X53759Y-68295D01*
X53816Y-68182D01*
X53872Y-68126D01*
X53984Y-68070D01*
X54884Y-69139D02*
X54940Y-69195D01*
X54884Y-69251D01*
X54828Y-69195D01*
X54884Y-69139D01*
X54884Y-69251D01*
X56065Y-69251D02*
X55390Y-69251D01*
X55728Y-69251D02*
X55728Y-68070D01*
X55615Y-68239D01*
X55503Y-68351D01*
X55390Y-68407D01*
X56515Y-68182D02*
X56571Y-68126D01*
X56684Y-68070D01*
X56965Y-68070D01*
X57078Y-68126D01*
X57134Y-68182D01*
X57190Y-68295D01*
X57190Y-68407D01*
X57134Y-68576D01*
X56459Y-69251D01*
X57190Y-69251D01*
X58203Y-68070D02*
X57978Y-68070D01*
X57865Y-68126D01*
X57809Y-68182D01*
X57696Y-68351D01*
X57640Y-68576D01*
X57640Y-69026D01*
X57696Y-69139D01*
X57753Y-69195D01*
X57865Y-69251D01*
X58090Y-69251D01*
X58203Y-69195D01*
X58259Y-69139D01*
X58315Y-69026D01*
X58315Y-68745D01*
X58259Y-68632D01*
X58203Y-68576D01*
X58090Y-68520D01*
X57865Y-68520D01*
X57753Y-68576D01*
X57696Y-68632D01*
X57640Y-68745D01*
X58765Y-68070D02*
X58765Y-68295D01*
X59215Y-68070D02*
X59215Y-68295D01*
X60958Y-69701D02*
X60902Y-69645D01*
X60790Y-69476D01*
X60733Y-69364D01*
X60677Y-69195D01*
X60621Y-68914D01*
X60621Y-68689D01*
X60677Y-68407D01*
X60733Y-68239D01*
X60790Y-68126D01*
X60902Y-67957D01*
X60958Y-67901D01*
X61915Y-68464D02*
X61915Y-69251D01*
X61633Y-68014D02*
X61352Y-68857D01*
X62083Y-68857D01*
X63433Y-69251D02*
X63433Y-68070D01*
X63939Y-69251D02*
X63939Y-68632D01*
X63883Y-68520D01*
X63771Y-68464D01*
X63602Y-68464D01*
X63489Y-68520D01*
X63433Y-68576D01*
X64670Y-69251D02*
X64558Y-69195D01*
X64502Y-69139D01*
X64446Y-69026D01*
X64446Y-68689D01*
X64502Y-68576D01*
X64558Y-68520D01*
X64670Y-68464D01*
X64839Y-68464D01*
X64952Y-68520D01*
X65008Y-68576D01*
X65064Y-68689D01*
X65064Y-69026D01*
X65008Y-69139D01*
X64952Y-69195D01*
X64839Y-69251D01*
X64670Y-69251D01*
X65739Y-69251D02*
X65627Y-69195D01*
X65570Y-69082D01*
X65570Y-68070D01*
X66639Y-69195D02*
X66527Y-69251D01*
X66302Y-69251D01*
X66189Y-69195D01*
X66133Y-69082D01*
X66133Y-68632D01*
X66189Y-68520D01*
X66302Y-68464D01*
X66527Y-68464D01*
X66639Y-68520D01*
X66695Y-68632D01*
X66695Y-68745D01*
X66133Y-68857D01*
X67145Y-69195D02*
X67258Y-69251D01*
X67483Y-69251D01*
X67595Y-69195D01*
X67651Y-69082D01*
X67651Y-69026D01*
X67595Y-68914D01*
X67483Y-68857D01*
X67314Y-68857D01*
X67201Y-68801D01*
X67145Y-68689D01*
X67145Y-68632D01*
X67201Y-68520D01*
X67314Y-68464D01*
X67483Y-68464D01*
X67595Y-68520D01*
X68045Y-69701D02*
X68101Y-69645D01*
X68214Y-69476D01*
X68270Y-69364D01*
X68326Y-69195D01*
X68383Y-68914D01*
X68383Y-68689D01*
X68326Y-68407D01*
X68270Y-68239D01*
X68214Y-68126D01*
X68101Y-67957D01*
X68045Y-67901D01*
M02*
